%FSLAX45Y45*%
G04 Gerber Fmt 4.5, Leading zero omitted, Abs format (unit mm)*
G04 Created by KiCad (PCBNEW 4.0.1-stable) date 2016/08/15 16:12:24*
%MOMM*%
G01*
G04 APERTURE LIST*
%ADD10C,0.127000*%
%ADD11C,0.300000*%
%ADD12C,0.200000*%
G04 APERTURE END LIST*
D10*
D11*
X8241200Y-3565800D02*
G75*
G03X8241200Y-3565800I-125000J0D01*
G01*
X8241200Y-415800D02*
G75*
G03X8241200Y-415800I-125000J0D01*
G01*
X541200Y-3565800D02*
G75*
G03X541200Y-3565800I-125000J0D01*
G01*
X541200Y-415800D02*
G75*
G03X541200Y-415800I-125000J0D01*
G01*
X8516200Y-15800D02*
X16200Y-15800D01*
X16200Y-15800D02*
X16200Y-5415800D01*
X8516200Y-5415800D02*
X16200Y-5415800D01*
X8516200Y-15800D02*
X8516200Y-5415800D01*
D12*
X166200Y-4085800D02*
X206200Y-4125800D01*
X206200Y-4085800D02*
X166200Y-4125800D01*
X246200Y-1585800D02*
X286200Y-1625800D01*
X286200Y-1585800D02*
X246200Y-1625800D01*
X446200Y-845800D02*
X486200Y-885800D01*
X486200Y-845800D02*
X446200Y-885800D01*
X581200Y-1024000D02*
X621200Y-1064000D01*
X621200Y-1024000D02*
X581200Y-1064000D01*
X610820Y-1348900D02*
X650820Y-1388900D01*
X650820Y-1348900D02*
X610820Y-1388900D01*
X641030Y-4425100D02*
X681030Y-4465100D01*
X681030Y-4425100D02*
X641030Y-4465100D01*
X652750Y-4333100D02*
X692750Y-4373100D01*
X692750Y-4333100D02*
X652750Y-4373100D01*
X660330Y-740300D02*
X700330Y-780300D01*
X700330Y-740300D02*
X660330Y-780300D01*
X729150Y-152430D02*
X769150Y-192430D01*
X769150Y-152430D02*
X729150Y-192430D01*
X771230Y-5187300D02*
X811230Y-5227300D01*
X811230Y-5187300D02*
X771230Y-5227300D01*
X788090Y-4681200D02*
X828090Y-4721200D01*
X828090Y-4681200D02*
X788090Y-4721200D01*
X802420Y-705200D02*
X842420Y-745200D01*
X842420Y-705200D02*
X802420Y-745200D01*
X809260Y-4593300D02*
X849260Y-4633300D01*
X849260Y-4593300D02*
X809260Y-4633300D01*
X876200Y-4400600D02*
X916200Y-4440600D01*
X916200Y-4400600D02*
X876200Y-4440600D01*
X885240Y-4722400D02*
X925240Y-4762400D01*
X925240Y-4722400D02*
X885240Y-4762400D01*
X896200Y-4525800D02*
X936200Y-4565800D01*
X936200Y-4525800D02*
X896200Y-4565800D01*
X911000Y-3795800D02*
X951000Y-3835800D01*
X951000Y-3795800D02*
X911000Y-3835800D01*
X925390Y-4870800D02*
X965390Y-4910800D01*
X965390Y-4870800D02*
X925390Y-4910800D01*
X1046200Y-3045800D02*
X1086200Y-3085800D01*
X1086200Y-3045800D02*
X1046200Y-3085800D01*
X1143040Y-5107000D02*
X1183040Y-5147000D01*
X1183040Y-5107000D02*
X1143040Y-5147000D01*
X1293730Y-4214800D02*
X1333730Y-4254800D01*
X1333730Y-4214800D02*
X1293730Y-4254800D01*
X1306200Y-1515800D02*
X1346200Y-1555800D01*
X1346200Y-1515800D02*
X1306200Y-1555800D01*
X1346200Y-1855800D02*
X1386200Y-1895800D01*
X1386200Y-1855800D02*
X1346200Y-1895800D01*
X1456200Y-3335800D02*
X1496200Y-3375800D01*
X1496200Y-3335800D02*
X1456200Y-3375800D01*
X1468940Y-858600D02*
X1508940Y-898600D01*
X1508940Y-858600D02*
X1468940Y-898600D01*
X1646200Y-2555800D02*
X1686200Y-2595800D01*
X1686200Y-2555800D02*
X1646200Y-2595800D01*
X1654750Y-1747600D02*
X1694750Y-1787600D01*
X1694750Y-1747600D02*
X1654750Y-1787600D01*
X1696200Y-785800D02*
X1736200Y-825800D01*
X1736200Y-785800D02*
X1696200Y-825800D01*
X1716200Y-4455800D02*
X1756200Y-4495800D01*
X1756200Y-4455800D02*
X1716200Y-4495800D01*
X1726200Y-1615800D02*
X1766200Y-1655800D01*
X1766200Y-1615800D02*
X1726200Y-1655800D01*
X1746200Y-2305800D02*
X1786200Y-2345800D01*
X1786200Y-2305800D02*
X1746200Y-2345800D01*
X1763180Y-4885300D02*
X1803180Y-4925300D01*
X1803180Y-4885300D02*
X1763180Y-4925300D01*
X1793790Y-4533300D02*
X1833790Y-4573300D01*
X1833790Y-4533300D02*
X1793790Y-4573300D01*
X1805170Y-1524800D02*
X1845170Y-1564800D01*
X1845170Y-1524800D02*
X1805170Y-1564800D01*
X1827340Y-4737000D02*
X1867340Y-4777000D01*
X1867340Y-4737000D02*
X1827340Y-4777000D01*
X1834200Y-1987800D02*
X1874200Y-2027800D01*
X1874200Y-1987800D02*
X1834200Y-2027800D01*
X1862180Y-1155000D02*
X1902180Y-1195000D01*
X1902180Y-1155000D02*
X1862180Y-1195000D01*
X1886200Y-5185800D02*
X1926200Y-5225800D01*
X1926200Y-5185800D02*
X1886200Y-5225800D01*
X1923700Y-1543300D02*
X1963700Y-1583300D01*
X1963700Y-1543300D02*
X1923700Y-1583300D01*
X1948700Y-2398300D02*
X1988700Y-2438300D01*
X1988700Y-2398300D02*
X1948700Y-2438300D01*
X1968150Y-1170800D02*
X2008150Y-1210800D01*
X2008150Y-1170800D02*
X1968150Y-1210800D01*
X2025530Y-4622800D02*
X2065530Y-4662800D01*
X2065530Y-4622800D02*
X2025530Y-4662800D01*
X2026380Y-4797200D02*
X2066380Y-4837200D01*
X2066380Y-4797200D02*
X2026380Y-4837200D01*
X2074200Y-1536800D02*
X2114200Y-1576800D01*
X2114200Y-1536800D02*
X2074200Y-1576800D01*
X2086200Y-685800D02*
X2126200Y-725800D01*
X2126200Y-685800D02*
X2086200Y-725800D01*
X2116200Y-2081800D02*
X2156200Y-2121800D01*
X2156200Y-2081800D02*
X2116200Y-2121800D01*
X2205650Y-4345300D02*
X2245650Y-4385300D01*
X2245650Y-4345300D02*
X2205650Y-4385300D01*
X2239350Y-3864600D02*
X2279350Y-3904600D01*
X2279350Y-3864600D02*
X2239350Y-3904600D01*
X2240750Y-3474200D02*
X2280750Y-3514200D01*
X2280750Y-3474200D02*
X2240750Y-3514200D01*
X2256200Y-4455800D02*
X2296200Y-4495800D01*
X2296200Y-4455800D02*
X2256200Y-4495800D01*
X2266200Y-1635800D02*
X2306200Y-1675800D01*
X2306200Y-1635800D02*
X2266200Y-1675800D01*
X2306200Y-685800D02*
X2346200Y-725800D01*
X2346200Y-685800D02*
X2306200Y-725800D01*
X2336200Y-1835800D02*
X2376200Y-1875800D01*
X2376200Y-1835800D02*
X2336200Y-1875800D01*
X2336200Y-2045800D02*
X2376200Y-2085800D01*
X2376200Y-2045800D02*
X2336200Y-2085800D01*
X2346200Y-1235800D02*
X2386200Y-1275800D01*
X2386200Y-1235800D02*
X2346200Y-1275800D01*
X2376200Y-1355800D02*
X2416200Y-1395800D01*
X2416200Y-1355800D02*
X2376200Y-1395800D01*
X2409080Y-2191700D02*
X2449080Y-2231700D01*
X2449080Y-2191700D02*
X2409080Y-2231700D01*
X2476200Y-3474800D02*
X2516200Y-3514800D01*
X2516200Y-3474800D02*
X2476200Y-3514800D01*
X2527730Y-1336400D02*
X2567730Y-1376400D01*
X2567730Y-1336400D02*
X2527730Y-1376400D01*
X2583880Y-3464700D02*
X2623880Y-3504700D01*
X2623880Y-3464700D02*
X2583880Y-3504700D01*
X2584240Y-3791400D02*
X2624240Y-3831400D01*
X2624240Y-3791400D02*
X2584240Y-3831400D01*
X2591200Y-4226000D02*
X2631200Y-4266000D01*
X2631200Y-4226000D02*
X2591200Y-4266000D01*
X2595240Y-1635600D02*
X2635240Y-1675600D01*
X2635240Y-1635600D02*
X2595240Y-1675600D01*
X2597670Y-1389000D02*
X2637670Y-1429000D01*
X2637670Y-1389000D02*
X2597670Y-1429000D01*
X2617850Y-4558300D02*
X2657850Y-4598300D01*
X2657850Y-4558300D02*
X2617850Y-4598300D01*
X2636200Y-1125800D02*
X2676200Y-1165800D01*
X2676200Y-1125800D02*
X2636200Y-1165800D01*
X2731200Y-2295800D02*
X2771200Y-2335800D01*
X2771200Y-2295800D02*
X2731200Y-2335800D01*
X2786200Y-3474800D02*
X2826200Y-3514800D01*
X2826200Y-3474800D02*
X2786200Y-3514800D01*
X2816200Y-1475800D02*
X2856200Y-1515800D01*
X2856200Y-1475800D02*
X2816200Y-1515800D01*
X2851200Y-1815800D02*
X2891200Y-1855800D01*
X2891200Y-1815800D02*
X2851200Y-1855800D01*
X2946200Y-4825800D02*
X2986200Y-4865800D01*
X2986200Y-4825800D02*
X2946200Y-4865800D01*
X2950690Y-1438500D02*
X2990690Y-1478500D01*
X2990690Y-1438500D02*
X2950690Y-1478500D01*
X2966200Y-1065800D02*
X3006200Y-1105800D01*
X3006200Y-1065800D02*
X2966200Y-1105800D01*
X2991200Y-4228300D02*
X3031200Y-4268300D01*
X3031200Y-4228300D02*
X2991200Y-4268300D01*
X3012200Y-3144800D02*
X3052200Y-3184800D01*
X3052200Y-3144800D02*
X3012200Y-3184800D01*
X3026200Y-2425800D02*
X3066200Y-2465800D01*
X3066200Y-2425800D02*
X3026200Y-2465800D01*
X3037160Y-3474400D02*
X3077160Y-3514400D01*
X3077160Y-3474400D02*
X3037160Y-3514400D01*
X3146200Y-3139800D02*
X3186200Y-3179800D01*
X3186200Y-3139800D02*
X3146200Y-3179800D01*
X3159600Y-4227200D02*
X3199600Y-4267200D01*
X3199600Y-4227200D02*
X3159600Y-4267200D01*
X3186200Y-2175800D02*
X3226200Y-2215800D01*
X3226200Y-2175800D02*
X3186200Y-2215800D01*
X3231200Y-3471000D02*
X3271200Y-3511000D01*
X3271200Y-3471000D02*
X3231200Y-3511000D01*
X3281200Y-4243300D02*
X3321200Y-4283300D01*
X3321200Y-4243300D02*
X3281200Y-4283300D01*
X3410000Y-760000D02*
X3450000Y-800000D01*
X3450000Y-760000D02*
X3410000Y-800000D01*
X3414030Y-4228000D02*
X3454030Y-4268000D01*
X3454030Y-4228000D02*
X3414030Y-4268000D01*
X3426200Y-2245800D02*
X3466200Y-2285800D01*
X3466200Y-2245800D02*
X3426200Y-2285800D01*
X3513470Y-3787300D02*
X3553470Y-3827300D01*
X3553470Y-3787300D02*
X3513470Y-3827300D01*
X3556200Y-2605800D02*
X3596200Y-2645800D01*
X3596200Y-2605800D02*
X3556200Y-2645800D01*
X3586200Y-1015800D02*
X3626200Y-1055800D01*
X3626200Y-1015800D02*
X3586200Y-1055800D01*
X3586960Y-4227000D02*
X3626960Y-4267000D01*
X3626960Y-4227000D02*
X3586960Y-4267000D01*
X3619110Y-4657200D02*
X3659110Y-4697200D01*
X3659110Y-4657200D02*
X3619110Y-4697200D01*
X3631200Y-3409300D02*
X3671200Y-3449300D01*
X3671200Y-3409300D02*
X3631200Y-3449300D01*
X3640440Y-3800300D02*
X3680440Y-3840300D01*
X3680440Y-3800300D02*
X3640440Y-3840300D01*
X3706200Y-2715800D02*
X3746200Y-2755800D01*
X3746200Y-2715800D02*
X3706200Y-2755800D01*
X3726030Y-3360200D02*
X3766030Y-3400200D01*
X3766030Y-3360200D02*
X3726030Y-3400200D01*
X3743100Y-4229300D02*
X3783100Y-4269300D01*
X3783100Y-4229300D02*
X3743100Y-4269300D01*
X3765870Y-3788600D02*
X3805870Y-3828600D01*
X3805870Y-3788600D02*
X3765870Y-3828600D01*
X3863160Y-3788000D02*
X3903160Y-3828000D01*
X3903160Y-3788000D02*
X3863160Y-3828000D01*
X3866200Y-4685800D02*
X3906200Y-4725800D01*
X3906200Y-4685800D02*
X3866200Y-4725800D01*
X3893230Y-3359300D02*
X3933230Y-3399300D01*
X3933230Y-3359300D02*
X3893230Y-3399300D01*
X3926200Y-2235800D02*
X3966200Y-2275800D01*
X3966200Y-2235800D02*
X3926200Y-2275800D01*
X3947720Y-1015800D02*
X3987720Y-1055800D01*
X3987720Y-1015800D02*
X3947720Y-1055800D01*
X3956200Y-2605800D02*
X3996200Y-2645800D01*
X3996200Y-2605800D02*
X3956200Y-2645800D01*
X3977320Y-3408400D02*
X4017320Y-3448400D01*
X4017320Y-3408400D02*
X3977320Y-3448400D01*
X3993510Y-2955800D02*
X4033510Y-2995800D01*
X4033510Y-2955800D02*
X3993510Y-2995800D01*
X4018700Y-3855800D02*
X4058700Y-3895800D01*
X4058700Y-3855800D02*
X4018700Y-3895800D01*
X4031200Y-4229900D02*
X4071200Y-4269900D01*
X4071200Y-4229900D02*
X4031200Y-4269900D01*
X4111200Y-3795600D02*
X4151200Y-3835600D01*
X4151200Y-3795600D02*
X4111200Y-3835600D01*
X4114200Y-2425800D02*
X4154200Y-2465800D01*
X4154200Y-2425800D02*
X4114200Y-2465800D01*
X4161840Y-4538300D02*
X4201840Y-4578300D01*
X4201840Y-4538300D02*
X4161840Y-4578300D01*
X4166200Y-2285800D02*
X4206200Y-2325800D01*
X4206200Y-2285800D02*
X4166200Y-2325800D01*
X4169380Y-1940900D02*
X4209380Y-1980900D01*
X4209380Y-1940900D02*
X4169380Y-1980900D01*
X4176200Y-1225800D02*
X4216200Y-1265800D01*
X4216200Y-1225800D02*
X4176200Y-1265800D01*
X4186200Y-3145800D02*
X4226200Y-3185800D01*
X4226200Y-3145800D02*
X4186200Y-3185800D01*
X4203400Y-3789100D02*
X4243400Y-3829100D01*
X4243400Y-3789100D02*
X4203400Y-3829100D01*
X4206200Y-845800D02*
X4246200Y-885800D01*
X4246200Y-845800D02*
X4206200Y-885800D01*
X4246200Y-2245800D02*
X4286200Y-2285800D01*
X4286200Y-2245800D02*
X4246200Y-2285800D01*
X4246200Y-4854400D02*
X4286200Y-4894400D01*
X4286200Y-4854400D02*
X4246200Y-4894400D01*
X4264900Y-2375000D02*
X4304900Y-2415000D01*
X4304900Y-2375000D02*
X4264900Y-2415000D01*
X4266200Y-1725800D02*
X4306200Y-1765800D01*
X4306200Y-1725800D02*
X4266200Y-1765800D01*
X4271200Y-4227700D02*
X4311200Y-4267700D01*
X4311200Y-4227700D02*
X4271200Y-4267700D01*
X4326200Y-2035800D02*
X4366200Y-2075800D01*
X4366200Y-2035800D02*
X4326200Y-2075800D01*
X4326200Y-2705800D02*
X4366200Y-2745800D01*
X4366200Y-2705800D02*
X4326200Y-2745800D01*
X4336200Y-3785800D02*
X4376200Y-3825800D01*
X4376200Y-3785800D02*
X4336200Y-3825800D01*
X4546200Y-4851000D02*
X4586200Y-4891000D01*
X4586200Y-4851000D02*
X4546200Y-4891000D01*
X4550400Y-4284700D02*
X4590400Y-4324700D01*
X4590400Y-4284700D02*
X4550400Y-4324700D01*
X4550950Y-1269800D02*
X4590950Y-1309800D01*
X4590950Y-1269800D02*
X4550950Y-1309800D01*
X4570000Y-700000D02*
X4610000Y-740000D01*
X4610000Y-700000D02*
X4570000Y-740000D01*
X4616200Y-2145800D02*
X4656200Y-2185800D01*
X4656200Y-2145800D02*
X4616200Y-2185800D01*
X4616200Y-2445800D02*
X4656200Y-2485800D01*
X4656200Y-2445800D02*
X4616200Y-2485800D01*
X4691200Y-1900800D02*
X4731200Y-1940800D01*
X4731200Y-1900800D02*
X4691200Y-1940800D01*
X4717400Y-3988300D02*
X4757400Y-4028300D01*
X4757400Y-3988300D02*
X4717400Y-4028300D01*
X4735060Y-1207200D02*
X4775060Y-1247200D01*
X4775060Y-1207200D02*
X4735060Y-1247200D01*
X4748510Y-892400D02*
X4788510Y-932400D01*
X4788510Y-892400D02*
X4748510Y-932400D01*
X4846200Y-4856000D02*
X4886200Y-4896000D01*
X4886200Y-4856000D02*
X4846200Y-4896000D01*
X4857100Y-1060200D02*
X4897100Y-1100200D01*
X4897100Y-1060200D02*
X4857100Y-1100200D01*
X4867980Y-1271000D02*
X4907980Y-1311000D01*
X4907980Y-1271000D02*
X4867980Y-1311000D01*
X4871080Y-3888600D02*
X4911080Y-3928600D01*
X4911080Y-3888600D02*
X4871080Y-3928600D01*
X4886200Y-4235800D02*
X4926200Y-4275800D01*
X4926200Y-4235800D02*
X4886200Y-4275800D01*
X4899880Y-3777400D02*
X4939880Y-3817400D01*
X4939880Y-3777400D02*
X4899880Y-3817400D01*
X4972200Y-4313800D02*
X5012200Y-4353800D01*
X5012200Y-4313800D02*
X4972200Y-4353800D01*
X4975210Y-1274800D02*
X5015210Y-1314800D01*
X5015210Y-1274800D02*
X4975210Y-1314800D01*
X5016500Y-373620D02*
X5056500Y-413620D01*
X5056500Y-373620D02*
X5016500Y-413620D01*
X5018900Y-3298300D02*
X5058900Y-3338300D01*
X5058900Y-3298300D02*
X5018900Y-3338300D01*
X5027200Y-4392800D02*
X5067200Y-4432800D01*
X5067200Y-4392800D02*
X5027200Y-4432800D01*
X5070200Y-3621800D02*
X5110200Y-3661800D01*
X5110200Y-3621800D02*
X5070200Y-3661800D01*
X5096200Y-2775800D02*
X5136200Y-2815800D01*
X5136200Y-2775800D02*
X5096200Y-2815800D01*
X5100000Y-2395800D02*
X5140000Y-2435800D01*
X5140000Y-2395800D02*
X5100000Y-2435800D01*
X5136200Y-2925800D02*
X5176200Y-2965800D01*
X5176200Y-2925800D02*
X5136200Y-2965800D01*
X5146200Y-5071700D02*
X5186200Y-5111700D01*
X5186200Y-5071700D02*
X5146200Y-5111700D01*
X5158700Y-1753300D02*
X5198700Y-1793300D01*
X5198700Y-1753300D02*
X5158700Y-1793300D01*
X5181200Y-3784800D02*
X5221200Y-3824800D01*
X5221200Y-3784800D02*
X5181200Y-3824800D01*
X5211600Y-3335800D02*
X5251600Y-3375800D01*
X5251600Y-3335800D02*
X5211600Y-3375800D01*
X5240400Y-4889400D02*
X5280400Y-4929400D01*
X5280400Y-4889400D02*
X5240400Y-4929400D01*
X5255000Y-450600D02*
X5295000Y-490600D01*
X5295000Y-450600D02*
X5255000Y-490600D01*
X5276200Y-3845800D02*
X5316200Y-3885800D01*
X5316200Y-3845800D02*
X5276200Y-3885800D01*
X5308700Y-2025800D02*
X5348700Y-2065800D01*
X5348700Y-2025800D02*
X5308700Y-2065800D01*
X5336200Y-4915800D02*
X5376200Y-4955800D01*
X5376200Y-4915800D02*
X5336200Y-4955800D01*
X5376200Y-3975800D02*
X5416200Y-4015800D01*
X5416200Y-3975800D02*
X5376200Y-4015800D01*
X5402000Y-3011000D02*
X5442000Y-3051000D01*
X5442000Y-3011000D02*
X5402000Y-3051000D01*
X5403700Y-4333300D02*
X5443700Y-4373300D01*
X5443700Y-4333300D02*
X5403700Y-4373300D01*
X5416200Y-1555800D02*
X5456200Y-1595800D01*
X5456200Y-1555800D02*
X5416200Y-1595800D01*
X5436200Y-1345800D02*
X5476200Y-1385800D01*
X5476200Y-1345800D02*
X5436200Y-1385800D01*
X5486200Y-3153300D02*
X5526200Y-3193300D01*
X5526200Y-3153300D02*
X5486200Y-3193300D01*
X5491200Y-4866000D02*
X5531200Y-4906000D01*
X5531200Y-4866000D02*
X5491200Y-4906000D01*
X5496200Y-4255800D02*
X5536200Y-4295800D01*
X5536200Y-4255800D02*
X5496200Y-4295800D01*
X5556200Y-1265800D02*
X5596200Y-1305800D01*
X5596200Y-1265800D02*
X5556200Y-1305800D01*
X5576000Y-3640000D02*
X5616000Y-3680000D01*
X5616000Y-3640000D02*
X5576000Y-3680000D01*
X5576200Y-1645800D02*
X5616200Y-1685800D01*
X5616200Y-1645800D02*
X5576200Y-1685800D01*
X5600800Y-2851100D02*
X5640800Y-2891100D01*
X5640800Y-2851100D02*
X5600800Y-2891100D01*
X5608400Y-381510D02*
X5648400Y-421510D01*
X5648400Y-381510D02*
X5608400Y-421510D01*
X5632300Y-3073500D02*
X5672300Y-3113500D01*
X5672300Y-3073500D02*
X5632300Y-3113500D01*
X5636200Y-2035800D02*
X5676200Y-2075800D01*
X5676200Y-2035800D02*
X5636200Y-2075800D01*
X5666200Y-1585800D02*
X5706200Y-1625800D01*
X5706200Y-1585800D02*
X5666200Y-1625800D01*
X5686200Y-1365800D02*
X5726200Y-1405800D01*
X5726200Y-1365800D02*
X5686200Y-1405800D01*
X5755000Y-4760000D02*
X5795000Y-4800000D01*
X5795000Y-4760000D02*
X5755000Y-4800000D01*
X5766200Y-2825800D02*
X5806200Y-2865800D01*
X5806200Y-2825800D02*
X5766200Y-2865800D01*
X5796200Y-3435800D02*
X5836200Y-3475800D01*
X5836200Y-3435800D02*
X5796200Y-3475800D01*
X5796200Y-4625800D02*
X5836200Y-4665800D01*
X5836200Y-4625800D02*
X5796200Y-4665800D01*
X5800000Y-400000D02*
X5840000Y-440000D01*
X5840000Y-400000D02*
X5800000Y-440000D01*
X5856200Y-1170800D02*
X5896200Y-1210800D01*
X5896200Y-1170800D02*
X5856200Y-1210800D01*
X5866200Y-4105800D02*
X5906200Y-4145800D01*
X5906200Y-4105800D02*
X5866200Y-4145800D01*
X5866200Y-4365800D02*
X5906200Y-4405800D01*
X5906200Y-4365800D02*
X5866200Y-4405800D01*
X5901700Y-4527800D02*
X5941700Y-4567800D01*
X5941700Y-4527800D02*
X5901700Y-4567800D01*
X5964300Y-148320D02*
X6004300Y-188320D01*
X6004300Y-148320D02*
X5964300Y-188320D01*
X5984100Y-3510200D02*
X6024100Y-3550200D01*
X6024100Y-3510200D02*
X5984100Y-3550200D01*
X6006200Y-2715800D02*
X6046200Y-2755800D01*
X6046200Y-2715800D02*
X6006200Y-2755800D01*
X6009400Y-3205800D02*
X6049400Y-3245800D01*
X6049400Y-3205800D02*
X6009400Y-3245800D01*
X6036200Y-1395800D02*
X6076200Y-1435800D01*
X6076200Y-1395800D02*
X6036200Y-1435800D01*
X6186200Y-325800D02*
X6226200Y-365800D01*
X6226200Y-325800D02*
X6186200Y-365800D01*
X6336200Y-2535800D02*
X6376200Y-2575800D01*
X6376200Y-2535800D02*
X6336200Y-2575800D01*
X6336200Y-3035800D02*
X6376200Y-3075800D01*
X6376200Y-3035800D02*
X6336200Y-3075800D01*
X6346200Y-2895800D02*
X6386200Y-2935800D01*
X6386200Y-2895800D02*
X6346200Y-2935800D01*
X6346200Y-3435800D02*
X6386200Y-3475800D01*
X6386200Y-3435800D02*
X6346200Y-3475800D01*
X6466200Y-4675800D02*
X6506200Y-4715800D01*
X6506200Y-4675800D02*
X6466200Y-4715800D01*
X6508100Y-148320D02*
X6548100Y-188320D01*
X6548100Y-148320D02*
X6508100Y-188320D01*
X6520000Y-500000D02*
X6560000Y-540000D01*
X6560000Y-500000D02*
X6520000Y-540000D01*
X6562400Y-3205800D02*
X6602400Y-3245800D01*
X6602400Y-3205800D02*
X6562400Y-3245800D01*
X6566200Y-2665800D02*
X6606200Y-2705800D01*
X6606200Y-2665800D02*
X6566200Y-2705800D01*
X6586200Y-845800D02*
X6626200Y-885800D01*
X6626200Y-845800D02*
X6586200Y-885800D01*
X6586200Y-2455800D02*
X6626200Y-2495800D01*
X6626200Y-2455800D02*
X6586200Y-2495800D01*
X6590000Y-1170000D02*
X6630000Y-1210000D01*
X6630000Y-1170000D02*
X6590000Y-1210000D01*
X6600000Y-1900000D02*
X6640000Y-1940000D01*
X6640000Y-1900000D02*
X6600000Y-1940000D01*
X6600800Y-5275800D02*
X6640800Y-5315800D01*
X6640800Y-5275800D02*
X6600800Y-5315800D01*
X6626200Y-4853700D02*
X6666200Y-4893700D01*
X6666200Y-4853700D02*
X6626200Y-4893700D01*
X6696200Y-305800D02*
X6736200Y-345800D01*
X6736200Y-305800D02*
X6696200Y-345800D01*
X6776200Y-1565800D02*
X6816200Y-1605800D01*
X6816200Y-1565800D02*
X6776200Y-1605800D01*
X6826200Y-4852200D02*
X6866200Y-4892200D01*
X6866200Y-4852200D02*
X6826200Y-4892200D01*
X6848000Y-4458200D02*
X6888000Y-4498200D01*
X6888000Y-4458200D02*
X6848000Y-4498200D01*
X6890500Y-158370D02*
X6930500Y-198370D01*
X6930500Y-158370D02*
X6890500Y-198370D01*
X6931000Y-4540000D02*
X6971000Y-4580000D01*
X6971000Y-4540000D02*
X6931000Y-4580000D01*
X7036200Y-515800D02*
X7076200Y-555800D01*
X7076200Y-515800D02*
X7036200Y-555800D01*
X7101500Y-2786100D02*
X7141500Y-2826100D01*
X7141500Y-2786100D02*
X7101500Y-2826100D01*
X7130000Y-1240000D02*
X7170000Y-1280000D01*
X7170000Y-1240000D02*
X7130000Y-1280000D01*
X7140000Y-1990000D02*
X7180000Y-2030000D01*
X7180000Y-1990000D02*
X7140000Y-2030000D01*
X7142600Y-4851000D02*
X7182600Y-4891000D01*
X7182600Y-4851000D02*
X7142600Y-4891000D01*
X7148000Y-4381200D02*
X7188000Y-4421200D01*
X7188000Y-4381200D02*
X7148000Y-4421200D01*
X7196200Y-4285800D02*
X7236200Y-4325800D01*
X7236200Y-4285800D02*
X7196200Y-4325800D01*
X7206200Y-4015800D02*
X7246200Y-4055800D01*
X7246200Y-4015800D02*
X7206200Y-4055800D01*
X7236200Y-2935800D02*
X7276200Y-2975800D01*
X7276200Y-2935800D02*
X7236200Y-2975800D01*
X7376200Y-1345800D02*
X7416200Y-1385800D01*
X7416200Y-1345800D02*
X7376200Y-1385800D01*
X7396200Y-2055800D02*
X7436200Y-2095800D01*
X7436200Y-2055800D02*
X7396200Y-2095800D01*
X7415800Y-3812100D02*
X7455800Y-3852100D01*
X7455800Y-3812100D02*
X7415800Y-3852100D01*
X7426200Y-4851500D02*
X7466200Y-4891500D01*
X7466200Y-4851500D02*
X7426200Y-4891500D01*
X7476200Y-845800D02*
X7516200Y-885800D01*
X7516200Y-845800D02*
X7476200Y-885800D01*
X7496200Y-1615800D02*
X7536200Y-1655800D01*
X7536200Y-1615800D02*
X7496200Y-1655800D01*
X7508700Y-2363300D02*
X7548700Y-2403300D01*
X7548700Y-2363300D02*
X7508700Y-2403300D01*
X7510000Y-3450000D02*
X7550000Y-3490000D01*
X7550000Y-3450000D02*
X7510000Y-3490000D01*
X7617400Y-4105800D02*
X7657400Y-4145800D01*
X7657400Y-4105800D02*
X7617400Y-4145800D01*
X7620000Y-1240000D02*
X7660000Y-1280000D01*
X7660000Y-1240000D02*
X7620000Y-1280000D01*
X7630000Y-1990000D02*
X7670000Y-2030000D01*
X7670000Y-1990000D02*
X7630000Y-2030000D01*
X7663300Y-4432500D02*
X7703300Y-4472500D01*
X7703300Y-4432500D02*
X7663300Y-4472500D01*
X7676200Y-4898300D02*
X7716200Y-4938300D01*
X7716200Y-4898300D02*
X7676200Y-4938300D01*
X7783700Y-3798300D02*
X7823700Y-3838300D01*
X7823700Y-3798300D02*
X7783700Y-3838300D01*
X7863700Y-3983300D02*
X7903700Y-4023300D01*
X7903700Y-3983300D02*
X7863700Y-4023300D01*
X7933700Y-4838300D02*
X7973700Y-4878300D01*
X7973700Y-4838300D02*
X7933700Y-4878300D01*
X7996200Y-2955800D02*
X8036200Y-2995800D01*
X8036200Y-2955800D02*
X7996200Y-2995800D01*
X7996200Y-4435800D02*
X8036200Y-4475800D01*
X8036200Y-4435800D02*
X7996200Y-4475800D01*
X8120000Y-3870000D02*
X8160000Y-3910000D01*
X8160000Y-3870000D02*
X8120000Y-3910000D01*
X8336200Y-3965800D02*
X8376200Y-4005800D01*
X8376200Y-3965800D02*
X8336200Y-4005800D01*
X8336200Y-4545800D02*
X8376200Y-4585800D01*
X8376200Y-4545800D02*
X8336200Y-4585800D01*
X1001200Y-5270800D02*
G75*
G03X1001200Y-5270800I-25000J0D01*
G01*
X961200Y-5238300D02*
X961200Y-5303300D01*
X991200Y-5238300D02*
X991200Y-5303300D01*
X961200Y-5303300D02*
G75*
G03X991200Y-5303300I15000J0D01*
G01*
X991200Y-5238300D02*
G75*
G03X961200Y-5238300I-15000J0D01*
G01*
X1701200Y-5270800D02*
G75*
G03X1701200Y-5270800I-25000J0D01*
G01*
X1661200Y-5238300D02*
X1661200Y-5303300D01*
X1691200Y-5238300D02*
X1691200Y-5303300D01*
X1661200Y-5303300D02*
G75*
G03X1691200Y-5303300I15000J0D01*
G01*
X1691200Y-5238300D02*
G75*
G03X1661200Y-5238300I-15000J0D01*
G01*
X1076200Y-4973300D02*
X1076200Y-5028300D01*
X1048700Y-5000800D02*
X1103700Y-5000800D01*
X1061200Y-5018300D02*
X1091200Y-5018300D01*
X1061200Y-4983300D02*
X1091200Y-4983300D01*
X1091200Y-5018300D02*
G75*
G03X1091200Y-4983300I0J17500D01*
G01*
X1061200Y-4983300D02*
G75*
G03X1061200Y-5018300I0J-17500D01*
G01*
X1576200Y-4973300D02*
X1576200Y-5028300D01*
X1548700Y-5000800D02*
X1603700Y-5000800D01*
X1561200Y-5018300D02*
X1591200Y-5018300D01*
X1561200Y-4983300D02*
X1591200Y-4983300D01*
X1591200Y-5018300D02*
G75*
G03X1591200Y-4983300I0J17500D01*
G01*
X1561200Y-4983300D02*
G75*
G03X1561200Y-5018300I0J-17500D01*
G01*
X1043141Y-342741D02*
X1043141Y-288859D01*
X989259Y-288859D01*
X989259Y-342741D01*
X1043141Y-342741D01*
X1043141Y-542741D02*
X1043141Y-488859D01*
X989259Y-488859D01*
X989259Y-542741D01*
X1043141Y-542741D01*
X1243141Y-342741D02*
X1243141Y-288859D01*
X1189259Y-288859D01*
X1189259Y-342741D01*
X1243141Y-342741D01*
X1243141Y-542741D02*
X1243141Y-488859D01*
X1189259Y-488859D01*
X1189259Y-542741D01*
X1243141Y-542741D01*
X1443141Y-342741D02*
X1443141Y-288859D01*
X1389259Y-288859D01*
X1389259Y-342741D01*
X1443141Y-342741D01*
X1443141Y-542741D02*
X1443141Y-488859D01*
X1389259Y-488859D01*
X1389259Y-542741D01*
X1443141Y-542741D01*
X1643141Y-342741D02*
X1643141Y-288859D01*
X1589259Y-288859D01*
X1589259Y-342741D01*
X1643141Y-342741D01*
X1643141Y-542741D02*
X1643141Y-488859D01*
X1589259Y-488859D01*
X1589259Y-542741D01*
X1643141Y-542741D01*
X1843141Y-342741D02*
X1843141Y-288859D01*
X1789259Y-288859D01*
X1789259Y-342741D01*
X1843141Y-342741D01*
X1843141Y-542741D02*
X1843141Y-488859D01*
X1789259Y-488859D01*
X1789259Y-542741D01*
X1843141Y-542741D01*
X2043141Y-342741D02*
X2043141Y-288859D01*
X1989259Y-288859D01*
X1989259Y-342741D01*
X2043141Y-342741D01*
X2043141Y-542741D02*
X2043141Y-488859D01*
X1989259Y-488859D01*
X1989259Y-542741D01*
X2043141Y-542741D01*
X2243141Y-342741D02*
X2243141Y-288859D01*
X2189259Y-288859D01*
X2189259Y-342741D01*
X2243141Y-342741D01*
X2243141Y-542741D02*
X2243141Y-488859D01*
X2189259Y-488859D01*
X2189259Y-542741D01*
X2243141Y-542741D01*
X2443141Y-342741D02*
X2443141Y-288859D01*
X2389259Y-288859D01*
X2389259Y-342741D01*
X2443141Y-342741D01*
X2443141Y-542741D02*
X2443141Y-488859D01*
X2389259Y-488859D01*
X2389259Y-542741D01*
X2443141Y-542741D01*
X2643141Y-342741D02*
X2643141Y-288859D01*
X2589259Y-288859D01*
X2589259Y-342741D01*
X2643141Y-342741D01*
X2643141Y-542741D02*
X2643141Y-488859D01*
X2589259Y-488859D01*
X2589259Y-542741D01*
X2643141Y-542741D01*
X2843141Y-342741D02*
X2843141Y-288859D01*
X2789259Y-288859D01*
X2789259Y-342741D01*
X2843141Y-342741D01*
X2843141Y-542741D02*
X2843141Y-488859D01*
X2789259Y-488859D01*
X2789259Y-542741D01*
X2843141Y-542741D01*
X3043141Y-342741D02*
X3043141Y-288859D01*
X2989259Y-288859D01*
X2989259Y-342741D01*
X3043141Y-342741D01*
X3043141Y-542741D02*
X3043141Y-488859D01*
X2989259Y-488859D01*
X2989259Y-542741D01*
X3043141Y-542741D01*
X3243141Y-342741D02*
X3243141Y-288859D01*
X3189259Y-288859D01*
X3189259Y-342741D01*
X3243141Y-342741D01*
X3243141Y-542741D02*
X3243141Y-488859D01*
X3189259Y-488859D01*
X3189259Y-542741D01*
X3243141Y-542741D01*
X3443141Y-342741D02*
X3443141Y-288859D01*
X3389259Y-288859D01*
X3389259Y-342741D01*
X3443141Y-342741D01*
X3443141Y-542741D02*
X3443141Y-488859D01*
X3389259Y-488859D01*
X3389259Y-542741D01*
X3443141Y-542741D01*
X3643141Y-342741D02*
X3643141Y-288859D01*
X3589259Y-288859D01*
X3589259Y-342741D01*
X3643141Y-342741D01*
X3643141Y-542741D02*
X3643141Y-488859D01*
X3589259Y-488859D01*
X3589259Y-542741D01*
X3643141Y-542741D01*
X3843141Y-342741D02*
X3843141Y-288859D01*
X3789259Y-288859D01*
X3789259Y-342741D01*
X3843141Y-342741D01*
X3843141Y-542741D02*
X3843141Y-488859D01*
X3789259Y-488859D01*
X3789259Y-542741D01*
X3843141Y-542741D01*
X4043141Y-342741D02*
X4043141Y-288859D01*
X3989259Y-288859D01*
X3989259Y-342741D01*
X4043141Y-342741D01*
X4043141Y-542741D02*
X4043141Y-488859D01*
X3989259Y-488859D01*
X3989259Y-542741D01*
X4043141Y-542741D01*
X4243141Y-342741D02*
X4243141Y-288859D01*
X4189259Y-288859D01*
X4189259Y-342741D01*
X4243141Y-342741D01*
X4243141Y-542741D02*
X4243141Y-488859D01*
X4189259Y-488859D01*
X4189259Y-542741D01*
X4243141Y-542741D01*
X4443141Y-342741D02*
X4443141Y-288859D01*
X4389259Y-288859D01*
X4389259Y-342741D01*
X4443141Y-342741D01*
X4443141Y-542741D02*
X4443141Y-488859D01*
X4389259Y-488859D01*
X4389259Y-542741D01*
X4443141Y-542741D01*
X4643141Y-342741D02*
X4643141Y-288859D01*
X4589259Y-288859D01*
X4589259Y-342741D01*
X4643141Y-342741D01*
X4643141Y-542741D02*
X4643141Y-488859D01*
X4589259Y-488859D01*
X4589259Y-542741D01*
X4643141Y-542741D01*
X4843141Y-342741D02*
X4843141Y-288859D01*
X4789259Y-288859D01*
X4789259Y-342741D01*
X4843141Y-342741D01*
X4843141Y-542741D02*
X4843141Y-488859D01*
X4789259Y-488859D01*
X4789259Y-542741D01*
X4843141Y-542741D01*
X236200Y-5276600D02*
X287000Y-5225800D01*
X236200Y-5175000D01*
X185400Y-5225800D01*
X236200Y-5276600D01*
X466200Y-4346600D02*
X517000Y-4295800D01*
X466200Y-4245000D01*
X415400Y-4295800D01*
X466200Y-4346600D01*
X4956200Y-886600D02*
X5007000Y-835800D01*
X4956200Y-785000D01*
X4905400Y-835800D01*
X4956200Y-886600D01*
X5306200Y-886600D02*
X5357000Y-835800D01*
X5306200Y-785000D01*
X5255400Y-835800D01*
X5306200Y-886600D01*
X5656200Y-886600D02*
X5707000Y-835800D01*
X5656200Y-785000D01*
X5605400Y-835800D01*
X5656200Y-886600D01*
X7626200Y-456600D02*
X7677000Y-405800D01*
X7626200Y-355000D01*
X7575400Y-405800D01*
X7626200Y-456600D01*
D11*
X272629Y-5896514D02*
X272629Y-5596514D01*
X344057Y-5596514D01*
X386914Y-5610800D01*
X415486Y-5639371D01*
X429771Y-5667943D01*
X444057Y-5725086D01*
X444057Y-5767943D01*
X429771Y-5825086D01*
X415486Y-5853657D01*
X386914Y-5882229D01*
X344057Y-5896514D01*
X272629Y-5896514D01*
X572629Y-5896514D02*
X572629Y-5696514D01*
X572629Y-5753657D02*
X586914Y-5725086D01*
X601200Y-5710800D01*
X629771Y-5696514D01*
X658343Y-5696514D01*
X758343Y-5896514D02*
X758343Y-5696514D01*
X758343Y-5596514D02*
X744057Y-5610800D01*
X758343Y-5625086D01*
X772628Y-5610800D01*
X758343Y-5596514D01*
X758343Y-5625086D01*
X944057Y-5896514D02*
X915486Y-5882229D01*
X901200Y-5853657D01*
X901200Y-5596514D01*
X1101200Y-5896514D02*
X1072629Y-5882229D01*
X1058343Y-5853657D01*
X1058343Y-5596514D01*
X1444057Y-5896514D02*
X1444057Y-5596514D01*
X1544057Y-5810800D01*
X1644057Y-5596514D01*
X1644057Y-5896514D01*
X1915486Y-5896514D02*
X1915486Y-5739371D01*
X1901200Y-5710800D01*
X1872628Y-5696514D01*
X1815486Y-5696514D01*
X1786914Y-5710800D01*
X1915486Y-5882229D02*
X1886914Y-5896514D01*
X1815486Y-5896514D01*
X1786914Y-5882229D01*
X1772628Y-5853657D01*
X1772628Y-5825086D01*
X1786914Y-5796514D01*
X1815486Y-5782229D01*
X1886914Y-5782229D01*
X1915486Y-5767943D01*
X2058343Y-5696514D02*
X2058343Y-5996514D01*
X2058343Y-5710800D02*
X2086914Y-5696514D01*
X2144057Y-5696514D01*
X2172629Y-5710800D01*
X2186914Y-5725086D01*
X2201200Y-5753657D01*
X2201200Y-5839371D01*
X2186914Y-5867943D01*
X2172629Y-5882229D01*
X2144057Y-5896514D01*
X2086914Y-5896514D01*
X2058343Y-5882229D01*
X2329771Y-5867943D02*
X2344057Y-5882229D01*
X2329771Y-5896514D01*
X2315486Y-5882229D01*
X2329771Y-5867943D01*
X2329771Y-5896514D01*
X2329771Y-5710800D02*
X2344057Y-5725086D01*
X2329771Y-5739371D01*
X2315486Y-5725086D01*
X2329771Y-5710800D01*
X2329771Y-5739371D01*
X-38800Y-6370800D02*
X1200Y-6410800D01*
X1200Y-6370800D02*
X-38800Y-6410800D01*
X329771Y-6226514D02*
X358343Y-6226514D01*
X386914Y-6240800D01*
X401200Y-6255086D01*
X415486Y-6283657D01*
X429771Y-6340800D01*
X429771Y-6412229D01*
X415486Y-6469371D01*
X401200Y-6497943D01*
X386914Y-6512229D01*
X358343Y-6526514D01*
X329771Y-6526514D01*
X301200Y-6512229D01*
X286914Y-6497943D01*
X272629Y-6469371D01*
X258343Y-6412229D01*
X258343Y-6340800D01*
X272629Y-6283657D01*
X286914Y-6255086D01*
X301200Y-6240800D01*
X329771Y-6226514D01*
X558343Y-6497943D02*
X572629Y-6512229D01*
X558343Y-6526514D01*
X544057Y-6512229D01*
X558343Y-6497943D01*
X558343Y-6526514D01*
X829771Y-6326514D02*
X829771Y-6526514D01*
X758343Y-6212229D02*
X686914Y-6426514D01*
X872628Y-6426514D01*
X1044057Y-6226514D02*
X1072629Y-6226514D01*
X1101200Y-6240800D01*
X1115486Y-6255086D01*
X1129771Y-6283657D01*
X1144057Y-6340800D01*
X1144057Y-6412229D01*
X1129771Y-6469371D01*
X1115486Y-6497943D01*
X1101200Y-6512229D01*
X1072629Y-6526514D01*
X1044057Y-6526514D01*
X1015486Y-6512229D01*
X1001200Y-6497943D01*
X986914Y-6469371D01*
X972628Y-6412229D01*
X972628Y-6340800D01*
X986914Y-6283657D01*
X1001200Y-6255086D01*
X1015486Y-6240800D01*
X1044057Y-6226514D01*
X1272629Y-6526514D02*
X1272629Y-6326514D01*
X1272629Y-6355086D02*
X1286914Y-6340800D01*
X1315486Y-6326514D01*
X1358343Y-6326514D01*
X1386914Y-6340800D01*
X1401200Y-6369371D01*
X1401200Y-6526514D01*
X1401200Y-6369371D02*
X1415486Y-6340800D01*
X1444057Y-6326514D01*
X1486914Y-6326514D01*
X1515486Y-6340800D01*
X1529771Y-6369371D01*
X1529771Y-6526514D01*
X1672628Y-6526514D02*
X1672628Y-6326514D01*
X1672628Y-6355086D02*
X1686914Y-6340800D01*
X1715486Y-6326514D01*
X1758343Y-6326514D01*
X1786914Y-6340800D01*
X1801200Y-6369371D01*
X1801200Y-6526514D01*
X1801200Y-6369371D02*
X1815486Y-6340800D01*
X1844057Y-6326514D01*
X1886914Y-6326514D01*
X1915486Y-6340800D01*
X1929771Y-6369371D01*
X1929771Y-6526514D01*
X2515486Y-6212229D02*
X2258343Y-6597943D01*
X2901200Y-6226514D02*
X2929771Y-6226514D01*
X2958343Y-6240800D01*
X2972628Y-6255086D01*
X2986914Y-6283657D01*
X3001200Y-6340800D01*
X3001200Y-6412229D01*
X2986914Y-6469371D01*
X2972628Y-6497943D01*
X2958343Y-6512229D01*
X2929771Y-6526514D01*
X2901200Y-6526514D01*
X2872628Y-6512229D01*
X2858343Y-6497943D01*
X2844057Y-6469371D01*
X2829771Y-6412229D01*
X2829771Y-6340800D01*
X2844057Y-6283657D01*
X2858343Y-6255086D01*
X2872628Y-6240800D01*
X2901200Y-6226514D01*
X3129771Y-6497943D02*
X3144057Y-6512229D01*
X3129771Y-6526514D01*
X3115486Y-6512229D01*
X3129771Y-6497943D01*
X3129771Y-6526514D01*
X3329771Y-6226514D02*
X3358343Y-6226514D01*
X3386914Y-6240800D01*
X3401200Y-6255086D01*
X3415485Y-6283657D01*
X3429771Y-6340800D01*
X3429771Y-6412229D01*
X3415485Y-6469371D01*
X3401200Y-6497943D01*
X3386914Y-6512229D01*
X3358343Y-6526514D01*
X3329771Y-6526514D01*
X3301200Y-6512229D01*
X3286914Y-6497943D01*
X3272628Y-6469371D01*
X3258343Y-6412229D01*
X3258343Y-6340800D01*
X3272628Y-6283657D01*
X3286914Y-6255086D01*
X3301200Y-6240800D01*
X3329771Y-6226514D01*
X3715485Y-6526514D02*
X3544057Y-6526514D01*
X3629771Y-6526514D02*
X3629771Y-6226514D01*
X3601200Y-6269371D01*
X3572628Y-6297943D01*
X3544057Y-6312229D01*
X3972628Y-6226514D02*
X3915485Y-6226514D01*
X3886914Y-6240800D01*
X3872628Y-6255086D01*
X3844057Y-6297943D01*
X3829771Y-6355086D01*
X3829771Y-6469371D01*
X3844057Y-6497943D01*
X3858343Y-6512229D01*
X3886914Y-6526514D01*
X3944057Y-6526514D01*
X3972628Y-6512229D01*
X3986914Y-6497943D01*
X4001200Y-6469371D01*
X4001200Y-6397943D01*
X3986914Y-6369371D01*
X3972628Y-6355086D01*
X3944057Y-6340800D01*
X3886914Y-6340800D01*
X3858343Y-6355086D01*
X3844057Y-6369371D01*
X3829771Y-6397943D01*
X4115486Y-6226514D02*
X4115486Y-6283657D01*
X4229771Y-6226514D02*
X4229771Y-6283657D01*
X4672628Y-6640800D02*
X4658343Y-6626514D01*
X4629771Y-6583657D01*
X4615486Y-6555086D01*
X4601200Y-6512229D01*
X4586914Y-6440800D01*
X4586914Y-6383657D01*
X4601200Y-6312229D01*
X4615486Y-6269371D01*
X4629771Y-6240800D01*
X4658343Y-6197943D01*
X4672628Y-6183657D01*
X4772628Y-6255086D02*
X4786914Y-6240800D01*
X4815486Y-6226514D01*
X4886914Y-6226514D01*
X4915486Y-6240800D01*
X4929771Y-6255086D01*
X4944057Y-6283657D01*
X4944057Y-6312229D01*
X4929771Y-6355086D01*
X4758343Y-6526514D01*
X4944057Y-6526514D01*
X5201200Y-6326514D02*
X5201200Y-6526514D01*
X5129771Y-6212229D02*
X5058343Y-6426514D01*
X5244057Y-6426514D01*
X5415486Y-6226514D02*
X5444057Y-6226514D01*
X5472628Y-6240800D01*
X5486914Y-6255086D01*
X5501200Y-6283657D01*
X5515486Y-6340800D01*
X5515486Y-6412229D01*
X5501200Y-6469371D01*
X5486914Y-6497943D01*
X5472628Y-6512229D01*
X5444057Y-6526514D01*
X5415486Y-6526514D01*
X5386914Y-6512229D01*
X5372628Y-6497943D01*
X5358343Y-6469371D01*
X5344057Y-6412229D01*
X5344057Y-6340800D01*
X5358343Y-6283657D01*
X5372628Y-6255086D01*
X5386914Y-6240800D01*
X5415486Y-6226514D01*
X5872628Y-6526514D02*
X5872628Y-6226514D01*
X6001200Y-6526514D02*
X6001200Y-6369371D01*
X5986914Y-6340800D01*
X5958343Y-6326514D01*
X5915485Y-6326514D01*
X5886914Y-6340800D01*
X5872628Y-6355086D01*
X6186914Y-6526514D02*
X6158343Y-6512229D01*
X6144057Y-6497943D01*
X6129771Y-6469371D01*
X6129771Y-6383657D01*
X6144057Y-6355086D01*
X6158343Y-6340800D01*
X6186914Y-6326514D01*
X6229771Y-6326514D01*
X6258343Y-6340800D01*
X6272628Y-6355086D01*
X6286914Y-6383657D01*
X6286914Y-6469371D01*
X6272628Y-6497943D01*
X6258343Y-6512229D01*
X6229771Y-6526514D01*
X6186914Y-6526514D01*
X6458343Y-6526514D02*
X6429771Y-6512229D01*
X6415486Y-6483657D01*
X6415486Y-6226514D01*
X6686914Y-6512229D02*
X6658343Y-6526514D01*
X6601200Y-6526514D01*
X6572628Y-6512229D01*
X6558343Y-6483657D01*
X6558343Y-6369371D01*
X6572628Y-6340800D01*
X6601200Y-6326514D01*
X6658343Y-6326514D01*
X6686914Y-6340800D01*
X6701200Y-6369371D01*
X6701200Y-6397943D01*
X6558343Y-6426514D01*
X6815486Y-6512229D02*
X6844057Y-6526514D01*
X6901200Y-6526514D01*
X6929771Y-6512229D01*
X6944057Y-6483657D01*
X6944057Y-6469371D01*
X6929771Y-6440800D01*
X6901200Y-6426514D01*
X6858343Y-6426514D01*
X6829771Y-6412229D01*
X6815486Y-6383657D01*
X6815486Y-6369371D01*
X6829771Y-6340800D01*
X6858343Y-6326514D01*
X6901200Y-6326514D01*
X6929771Y-6340800D01*
X7044057Y-6640800D02*
X7058343Y-6626514D01*
X7086914Y-6583657D01*
X7101200Y-6555086D01*
X7115486Y-6512229D01*
X7129771Y-6440800D01*
X7129771Y-6383657D01*
X7115486Y-6312229D01*
X7101200Y-6269371D01*
X7086914Y-6240800D01*
X7058343Y-6197943D01*
X7044057Y-6183657D01*
X1200Y-6786800D02*
G75*
G03X1200Y-6786800I-25000J0D01*
G01*
X329771Y-6622514D02*
X358343Y-6622514D01*
X386914Y-6636800D01*
X401200Y-6651086D01*
X415486Y-6679657D01*
X429771Y-6736800D01*
X429771Y-6808229D01*
X415486Y-6865371D01*
X401200Y-6893943D01*
X386914Y-6908229D01*
X358343Y-6922514D01*
X329771Y-6922514D01*
X301200Y-6908229D01*
X286914Y-6893943D01*
X272629Y-6865371D01*
X258343Y-6808229D01*
X258343Y-6736800D01*
X272629Y-6679657D01*
X286914Y-6651086D01*
X301200Y-6636800D01*
X329771Y-6622514D01*
X558343Y-6893943D02*
X572629Y-6908229D01*
X558343Y-6922514D01*
X544057Y-6908229D01*
X558343Y-6893943D01*
X558343Y-6922514D01*
X844057Y-6622514D02*
X701200Y-6622514D01*
X686914Y-6765371D01*
X701200Y-6751086D01*
X729771Y-6736800D01*
X801200Y-6736800D01*
X829771Y-6751086D01*
X844057Y-6765371D01*
X858343Y-6793943D01*
X858343Y-6865371D01*
X844057Y-6893943D01*
X829771Y-6908229D01*
X801200Y-6922514D01*
X729771Y-6922514D01*
X701200Y-6908229D01*
X686914Y-6893943D01*
X1044057Y-6622514D02*
X1072629Y-6622514D01*
X1101200Y-6636800D01*
X1115486Y-6651086D01*
X1129771Y-6679657D01*
X1144057Y-6736800D01*
X1144057Y-6808229D01*
X1129771Y-6865371D01*
X1115486Y-6893943D01*
X1101200Y-6908229D01*
X1072629Y-6922514D01*
X1044057Y-6922514D01*
X1015486Y-6908229D01*
X1001200Y-6893943D01*
X986914Y-6865371D01*
X972628Y-6808229D01*
X972628Y-6736800D01*
X986914Y-6679657D01*
X1001200Y-6651086D01*
X1015486Y-6636800D01*
X1044057Y-6622514D01*
X1272629Y-6922514D02*
X1272629Y-6722514D01*
X1272629Y-6751086D02*
X1286914Y-6736800D01*
X1315486Y-6722514D01*
X1358343Y-6722514D01*
X1386914Y-6736800D01*
X1401200Y-6765371D01*
X1401200Y-6922514D01*
X1401200Y-6765371D02*
X1415486Y-6736800D01*
X1444057Y-6722514D01*
X1486914Y-6722514D01*
X1515486Y-6736800D01*
X1529771Y-6765371D01*
X1529771Y-6922514D01*
X1672628Y-6922514D02*
X1672628Y-6722514D01*
X1672628Y-6751086D02*
X1686914Y-6736800D01*
X1715486Y-6722514D01*
X1758343Y-6722514D01*
X1786914Y-6736800D01*
X1801200Y-6765371D01*
X1801200Y-6922514D01*
X1801200Y-6765371D02*
X1815486Y-6736800D01*
X1844057Y-6722514D01*
X1886914Y-6722514D01*
X1915486Y-6736800D01*
X1929771Y-6765371D01*
X1929771Y-6922514D01*
X2515486Y-6608229D02*
X2258343Y-6993943D01*
X2901200Y-6622514D02*
X2929771Y-6622514D01*
X2958343Y-6636800D01*
X2972628Y-6651086D01*
X2986914Y-6679657D01*
X3001200Y-6736800D01*
X3001200Y-6808229D01*
X2986914Y-6865371D01*
X2972628Y-6893943D01*
X2958343Y-6908229D01*
X2929771Y-6922514D01*
X2901200Y-6922514D01*
X2872628Y-6908229D01*
X2858343Y-6893943D01*
X2844057Y-6865371D01*
X2829771Y-6808229D01*
X2829771Y-6736800D01*
X2844057Y-6679657D01*
X2858343Y-6651086D01*
X2872628Y-6636800D01*
X2901200Y-6622514D01*
X3129771Y-6893943D02*
X3144057Y-6908229D01*
X3129771Y-6922514D01*
X3115486Y-6908229D01*
X3129771Y-6893943D01*
X3129771Y-6922514D01*
X3329771Y-6622514D02*
X3358343Y-6622514D01*
X3386914Y-6636800D01*
X3401200Y-6651086D01*
X3415485Y-6679657D01*
X3429771Y-6736800D01*
X3429771Y-6808229D01*
X3415485Y-6865371D01*
X3401200Y-6893943D01*
X3386914Y-6908229D01*
X3358343Y-6922514D01*
X3329771Y-6922514D01*
X3301200Y-6908229D01*
X3286914Y-6893943D01*
X3272628Y-6865371D01*
X3258343Y-6808229D01*
X3258343Y-6736800D01*
X3272628Y-6679657D01*
X3286914Y-6651086D01*
X3301200Y-6636800D01*
X3329771Y-6622514D01*
X3544057Y-6651086D02*
X3558343Y-6636800D01*
X3586914Y-6622514D01*
X3658343Y-6622514D01*
X3686914Y-6636800D01*
X3701200Y-6651086D01*
X3715485Y-6679657D01*
X3715485Y-6708229D01*
X3701200Y-6751086D01*
X3529771Y-6922514D01*
X3715485Y-6922514D01*
X3901200Y-6622514D02*
X3929771Y-6622514D01*
X3958343Y-6636800D01*
X3972628Y-6651086D01*
X3986914Y-6679657D01*
X4001200Y-6736800D01*
X4001200Y-6808229D01*
X3986914Y-6865371D01*
X3972628Y-6893943D01*
X3958343Y-6908229D01*
X3929771Y-6922514D01*
X3901200Y-6922514D01*
X3872628Y-6908229D01*
X3858343Y-6893943D01*
X3844057Y-6865371D01*
X3829771Y-6808229D01*
X3829771Y-6736800D01*
X3844057Y-6679657D01*
X3858343Y-6651086D01*
X3872628Y-6636800D01*
X3901200Y-6622514D01*
X4115486Y-6622514D02*
X4115486Y-6679657D01*
X4229771Y-6622514D02*
X4229771Y-6679657D01*
X4672628Y-7036800D02*
X4658343Y-7022514D01*
X4629771Y-6979657D01*
X4615486Y-6951086D01*
X4601200Y-6908229D01*
X4586914Y-6836800D01*
X4586914Y-6779657D01*
X4601200Y-6708229D01*
X4615486Y-6665371D01*
X4629771Y-6636800D01*
X4658343Y-6593943D01*
X4672628Y-6579657D01*
X4844057Y-6622514D02*
X4872628Y-6622514D01*
X4901200Y-6636800D01*
X4915486Y-6651086D01*
X4929771Y-6679657D01*
X4944057Y-6736800D01*
X4944057Y-6808229D01*
X4929771Y-6865371D01*
X4915486Y-6893943D01*
X4901200Y-6908229D01*
X4872628Y-6922514D01*
X4844057Y-6922514D01*
X4815486Y-6908229D01*
X4801200Y-6893943D01*
X4786914Y-6865371D01*
X4772628Y-6808229D01*
X4772628Y-6736800D01*
X4786914Y-6679657D01*
X4801200Y-6651086D01*
X4815486Y-6636800D01*
X4844057Y-6622514D01*
X5301200Y-6922514D02*
X5301200Y-6622514D01*
X5429771Y-6922514D02*
X5429771Y-6765371D01*
X5415486Y-6736800D01*
X5386914Y-6722514D01*
X5344057Y-6722514D01*
X5315486Y-6736800D01*
X5301200Y-6751086D01*
X5615485Y-6922514D02*
X5586914Y-6908229D01*
X5572628Y-6893943D01*
X5558343Y-6865371D01*
X5558343Y-6779657D01*
X5572628Y-6751086D01*
X5586914Y-6736800D01*
X5615485Y-6722514D01*
X5658343Y-6722514D01*
X5686914Y-6736800D01*
X5701200Y-6751086D01*
X5715485Y-6779657D01*
X5715485Y-6865371D01*
X5701200Y-6893943D01*
X5686914Y-6908229D01*
X5658343Y-6922514D01*
X5615485Y-6922514D01*
X5886914Y-6922514D02*
X5858343Y-6908229D01*
X5844057Y-6879657D01*
X5844057Y-6622514D01*
X6115486Y-6908229D02*
X6086914Y-6922514D01*
X6029771Y-6922514D01*
X6001200Y-6908229D01*
X5986914Y-6879657D01*
X5986914Y-6765371D01*
X6001200Y-6736800D01*
X6029771Y-6722514D01*
X6086914Y-6722514D01*
X6115486Y-6736800D01*
X6129771Y-6765371D01*
X6129771Y-6793943D01*
X5986914Y-6822514D01*
X6244057Y-6908229D02*
X6272628Y-6922514D01*
X6329771Y-6922514D01*
X6358343Y-6908229D01*
X6372628Y-6879657D01*
X6372628Y-6865371D01*
X6358343Y-6836800D01*
X6329771Y-6822514D01*
X6286914Y-6822514D01*
X6258343Y-6808229D01*
X6244057Y-6779657D01*
X6244057Y-6765371D01*
X6258343Y-6736800D01*
X6286914Y-6722514D01*
X6329771Y-6722514D01*
X6358343Y-6736800D01*
X6729771Y-6808229D02*
X6958343Y-6808229D01*
X6844057Y-6922514D02*
X6844057Y-6693943D01*
X7315486Y-6651086D02*
X7329771Y-6636800D01*
X7358343Y-6622514D01*
X7429771Y-6622514D01*
X7458343Y-6636800D01*
X7472628Y-6651086D01*
X7486914Y-6679657D01*
X7486914Y-6708229D01*
X7472628Y-6751086D01*
X7301200Y-6922514D01*
X7486914Y-6922514D01*
X7829771Y-6908229D02*
X7858343Y-6922514D01*
X7915485Y-6922514D01*
X7944057Y-6908229D01*
X7958343Y-6879657D01*
X7958343Y-6865371D01*
X7944057Y-6836800D01*
X7915485Y-6822514D01*
X7872628Y-6822514D01*
X7844057Y-6808229D01*
X7829771Y-6779657D01*
X7829771Y-6765371D01*
X7844057Y-6736800D01*
X7872628Y-6722514D01*
X7915485Y-6722514D01*
X7944057Y-6736800D01*
X8129771Y-6922514D02*
X8101200Y-6908229D01*
X8086914Y-6879657D01*
X8086914Y-6622514D01*
X8286914Y-6922514D02*
X8258343Y-6908229D01*
X8244057Y-6893943D01*
X8229771Y-6865371D01*
X8229771Y-6779657D01*
X8244057Y-6751086D01*
X8258343Y-6736800D01*
X8286914Y-6722514D01*
X8329771Y-6722514D01*
X8358343Y-6736800D01*
X8372628Y-6751086D01*
X8386914Y-6779657D01*
X8386914Y-6865371D01*
X8372628Y-6893943D01*
X8358343Y-6908229D01*
X8329771Y-6922514D01*
X8286914Y-6922514D01*
X8472628Y-6722514D02*
X8586914Y-6722514D01*
X8515486Y-6622514D02*
X8515486Y-6879657D01*
X8529771Y-6908229D01*
X8558343Y-6922514D01*
X8586914Y-6922514D01*
X8672629Y-6908229D02*
X8701200Y-6922514D01*
X8758343Y-6922514D01*
X8786914Y-6908229D01*
X8801200Y-6879657D01*
X8801200Y-6865371D01*
X8786914Y-6836800D01*
X8758343Y-6822514D01*
X8715486Y-6822514D01*
X8686914Y-6808229D01*
X8672629Y-6779657D01*
X8672629Y-6765371D01*
X8686914Y-6736800D01*
X8715486Y-6722514D01*
X8758343Y-6722514D01*
X8786914Y-6736800D01*
X8901200Y-7036800D02*
X8915486Y-7022514D01*
X8944057Y-6979657D01*
X8958343Y-6951086D01*
X8972628Y-6908229D01*
X8986914Y-6836800D01*
X8986914Y-6779657D01*
X8972628Y-6708229D01*
X8958343Y-6665371D01*
X8944057Y-6636800D01*
X8915486Y-6593943D01*
X8901200Y-6579657D01*
X-26300Y-7155300D02*
X-26300Y-7210300D01*
X-53800Y-7182800D02*
X1200Y-7182800D01*
X329771Y-7018514D02*
X358343Y-7018514D01*
X386914Y-7032800D01*
X401200Y-7047086D01*
X415486Y-7075657D01*
X429771Y-7132800D01*
X429771Y-7204229D01*
X415486Y-7261371D01*
X401200Y-7289943D01*
X386914Y-7304229D01*
X358343Y-7318514D01*
X329771Y-7318514D01*
X301200Y-7304229D01*
X286914Y-7289943D01*
X272629Y-7261371D01*
X258343Y-7204229D01*
X258343Y-7132800D01*
X272629Y-7075657D01*
X286914Y-7047086D01*
X301200Y-7032800D01*
X329771Y-7018514D01*
X558343Y-7289943D02*
X572629Y-7304229D01*
X558343Y-7318514D01*
X544057Y-7304229D01*
X558343Y-7289943D01*
X558343Y-7318514D01*
X844057Y-7018514D02*
X701200Y-7018514D01*
X686914Y-7161371D01*
X701200Y-7147086D01*
X729771Y-7132800D01*
X801200Y-7132800D01*
X829771Y-7147086D01*
X844057Y-7161371D01*
X858343Y-7189943D01*
X858343Y-7261371D01*
X844057Y-7289943D01*
X829771Y-7304229D01*
X801200Y-7318514D01*
X729771Y-7318514D01*
X701200Y-7304229D01*
X686914Y-7289943D01*
X1129771Y-7018514D02*
X986914Y-7018514D01*
X972628Y-7161371D01*
X986914Y-7147086D01*
X1015486Y-7132800D01*
X1086914Y-7132800D01*
X1115486Y-7147086D01*
X1129771Y-7161371D01*
X1144057Y-7189943D01*
X1144057Y-7261371D01*
X1129771Y-7289943D01*
X1115486Y-7304229D01*
X1086914Y-7318514D01*
X1015486Y-7318514D01*
X986914Y-7304229D01*
X972628Y-7289943D01*
X1272629Y-7318514D02*
X1272629Y-7118514D01*
X1272629Y-7147086D02*
X1286914Y-7132800D01*
X1315486Y-7118514D01*
X1358343Y-7118514D01*
X1386914Y-7132800D01*
X1401200Y-7161371D01*
X1401200Y-7318514D01*
X1401200Y-7161371D02*
X1415486Y-7132800D01*
X1444057Y-7118514D01*
X1486914Y-7118514D01*
X1515486Y-7132800D01*
X1529771Y-7161371D01*
X1529771Y-7318514D01*
X1672628Y-7318514D02*
X1672628Y-7118514D01*
X1672628Y-7147086D02*
X1686914Y-7132800D01*
X1715486Y-7118514D01*
X1758343Y-7118514D01*
X1786914Y-7132800D01*
X1801200Y-7161371D01*
X1801200Y-7318514D01*
X1801200Y-7161371D02*
X1815486Y-7132800D01*
X1844057Y-7118514D01*
X1886914Y-7118514D01*
X1915486Y-7132800D01*
X1929771Y-7161371D01*
X1929771Y-7318514D01*
X2515486Y-7004229D02*
X2258343Y-7389943D01*
X2901200Y-7018514D02*
X2929771Y-7018514D01*
X2958343Y-7032800D01*
X2972628Y-7047086D01*
X2986914Y-7075657D01*
X3001200Y-7132800D01*
X3001200Y-7204229D01*
X2986914Y-7261371D01*
X2972628Y-7289943D01*
X2958343Y-7304229D01*
X2929771Y-7318514D01*
X2901200Y-7318514D01*
X2872628Y-7304229D01*
X2858343Y-7289943D01*
X2844057Y-7261371D01*
X2829771Y-7204229D01*
X2829771Y-7132800D01*
X2844057Y-7075657D01*
X2858343Y-7047086D01*
X2872628Y-7032800D01*
X2901200Y-7018514D01*
X3129771Y-7289943D02*
X3144057Y-7304229D01*
X3129771Y-7318514D01*
X3115486Y-7304229D01*
X3129771Y-7289943D01*
X3129771Y-7318514D01*
X3329771Y-7018514D02*
X3358343Y-7018514D01*
X3386914Y-7032800D01*
X3401200Y-7047086D01*
X3415485Y-7075657D01*
X3429771Y-7132800D01*
X3429771Y-7204229D01*
X3415485Y-7261371D01*
X3401200Y-7289943D01*
X3386914Y-7304229D01*
X3358343Y-7318514D01*
X3329771Y-7318514D01*
X3301200Y-7304229D01*
X3286914Y-7289943D01*
X3272628Y-7261371D01*
X3258343Y-7204229D01*
X3258343Y-7132800D01*
X3272628Y-7075657D01*
X3286914Y-7047086D01*
X3301200Y-7032800D01*
X3329771Y-7018514D01*
X3544057Y-7047086D02*
X3558343Y-7032800D01*
X3586914Y-7018514D01*
X3658343Y-7018514D01*
X3686914Y-7032800D01*
X3701200Y-7047086D01*
X3715485Y-7075657D01*
X3715485Y-7104229D01*
X3701200Y-7147086D01*
X3529771Y-7318514D01*
X3715485Y-7318514D01*
X3829771Y-7047086D02*
X3844057Y-7032800D01*
X3872628Y-7018514D01*
X3944057Y-7018514D01*
X3972628Y-7032800D01*
X3986914Y-7047086D01*
X4001200Y-7075657D01*
X4001200Y-7104229D01*
X3986914Y-7147086D01*
X3815485Y-7318514D01*
X4001200Y-7318514D01*
X4115486Y-7018514D02*
X4115486Y-7075657D01*
X4229771Y-7018514D02*
X4229771Y-7075657D01*
X4672628Y-7432800D02*
X4658343Y-7418514D01*
X4629771Y-7375657D01*
X4615486Y-7347086D01*
X4601200Y-7304229D01*
X4586914Y-7232800D01*
X4586914Y-7175657D01*
X4601200Y-7104229D01*
X4615486Y-7061371D01*
X4629771Y-7032800D01*
X4658343Y-6989943D01*
X4672628Y-6975657D01*
X4844057Y-7018514D02*
X4872628Y-7018514D01*
X4901200Y-7032800D01*
X4915486Y-7047086D01*
X4929771Y-7075657D01*
X4944057Y-7132800D01*
X4944057Y-7204229D01*
X4929771Y-7261371D01*
X4915486Y-7289943D01*
X4901200Y-7304229D01*
X4872628Y-7318514D01*
X4844057Y-7318514D01*
X4815486Y-7304229D01*
X4801200Y-7289943D01*
X4786914Y-7261371D01*
X4772628Y-7204229D01*
X4772628Y-7132800D01*
X4786914Y-7075657D01*
X4801200Y-7047086D01*
X4815486Y-7032800D01*
X4844057Y-7018514D01*
X5301200Y-7318514D02*
X5301200Y-7018514D01*
X5429771Y-7318514D02*
X5429771Y-7161371D01*
X5415486Y-7132800D01*
X5386914Y-7118514D01*
X5344057Y-7118514D01*
X5315486Y-7132800D01*
X5301200Y-7147086D01*
X5615485Y-7318514D02*
X5586914Y-7304229D01*
X5572628Y-7289943D01*
X5558343Y-7261371D01*
X5558343Y-7175657D01*
X5572628Y-7147086D01*
X5586914Y-7132800D01*
X5615485Y-7118514D01*
X5658343Y-7118514D01*
X5686914Y-7132800D01*
X5701200Y-7147086D01*
X5715485Y-7175657D01*
X5715485Y-7261371D01*
X5701200Y-7289943D01*
X5686914Y-7304229D01*
X5658343Y-7318514D01*
X5615485Y-7318514D01*
X5886914Y-7318514D02*
X5858343Y-7304229D01*
X5844057Y-7275657D01*
X5844057Y-7018514D01*
X6115486Y-7304229D02*
X6086914Y-7318514D01*
X6029771Y-7318514D01*
X6001200Y-7304229D01*
X5986914Y-7275657D01*
X5986914Y-7161371D01*
X6001200Y-7132800D01*
X6029771Y-7118514D01*
X6086914Y-7118514D01*
X6115486Y-7132800D01*
X6129771Y-7161371D01*
X6129771Y-7189943D01*
X5986914Y-7218514D01*
X6244057Y-7304229D02*
X6272628Y-7318514D01*
X6329771Y-7318514D01*
X6358343Y-7304229D01*
X6372628Y-7275657D01*
X6372628Y-7261371D01*
X6358343Y-7232800D01*
X6329771Y-7218514D01*
X6286914Y-7218514D01*
X6258343Y-7204229D01*
X6244057Y-7175657D01*
X6244057Y-7161371D01*
X6258343Y-7132800D01*
X6286914Y-7118514D01*
X6329771Y-7118514D01*
X6358343Y-7132800D01*
X6729771Y-7204229D02*
X6958343Y-7204229D01*
X6844057Y-7318514D02*
X6844057Y-7089943D01*
X7315486Y-7047086D02*
X7329771Y-7032800D01*
X7358343Y-7018514D01*
X7429771Y-7018514D01*
X7458343Y-7032800D01*
X7472628Y-7047086D01*
X7486914Y-7075657D01*
X7486914Y-7104229D01*
X7472628Y-7147086D01*
X7301200Y-7318514D01*
X7486914Y-7318514D01*
X7829771Y-7304229D02*
X7858343Y-7318514D01*
X7915485Y-7318514D01*
X7944057Y-7304229D01*
X7958343Y-7275657D01*
X7958343Y-7261371D01*
X7944057Y-7232800D01*
X7915485Y-7218514D01*
X7872628Y-7218514D01*
X7844057Y-7204229D01*
X7829771Y-7175657D01*
X7829771Y-7161371D01*
X7844057Y-7132800D01*
X7872628Y-7118514D01*
X7915485Y-7118514D01*
X7944057Y-7132800D01*
X8129771Y-7318514D02*
X8101200Y-7304229D01*
X8086914Y-7275657D01*
X8086914Y-7018514D01*
X8286914Y-7318514D02*
X8258343Y-7304229D01*
X8244057Y-7289943D01*
X8229771Y-7261371D01*
X8229771Y-7175657D01*
X8244057Y-7147086D01*
X8258343Y-7132800D01*
X8286914Y-7118514D01*
X8329771Y-7118514D01*
X8358343Y-7132800D01*
X8372628Y-7147086D01*
X8386914Y-7175657D01*
X8386914Y-7261371D01*
X8372628Y-7289943D01*
X8358343Y-7304229D01*
X8329771Y-7318514D01*
X8286914Y-7318514D01*
X8472628Y-7118514D02*
X8586914Y-7118514D01*
X8515486Y-7018514D02*
X8515486Y-7275657D01*
X8529771Y-7304229D01*
X8558343Y-7318514D01*
X8586914Y-7318514D01*
X8672629Y-7304229D02*
X8701200Y-7318514D01*
X8758343Y-7318514D01*
X8786914Y-7304229D01*
X8801200Y-7275657D01*
X8801200Y-7261371D01*
X8786914Y-7232800D01*
X8758343Y-7218514D01*
X8715486Y-7218514D01*
X8686914Y-7204229D01*
X8672629Y-7175657D01*
X8672629Y-7161371D01*
X8686914Y-7132800D01*
X8715486Y-7118514D01*
X8758343Y-7118514D01*
X8786914Y-7132800D01*
X8901200Y-7432800D02*
X8915486Y-7418514D01*
X8944057Y-7375657D01*
X8958343Y-7347086D01*
X8972628Y-7304229D01*
X8986914Y-7232800D01*
X8986914Y-7175657D01*
X8972628Y-7104229D01*
X8958343Y-7061371D01*
X8944057Y-7032800D01*
X8915486Y-6989943D01*
X8901200Y-6975657D01*
X-9959Y-7605741D02*
X-9959Y-7551859D01*
X-63841Y-7551859D01*
X-63841Y-7605741D01*
X-9959Y-7605741D01*
X329771Y-7414514D02*
X358343Y-7414514D01*
X386914Y-7428800D01*
X401200Y-7443086D01*
X415486Y-7471657D01*
X429771Y-7528800D01*
X429771Y-7600229D01*
X415486Y-7657371D01*
X401200Y-7685943D01*
X386914Y-7700229D01*
X358343Y-7714514D01*
X329771Y-7714514D01*
X301200Y-7700229D01*
X286914Y-7685943D01*
X272629Y-7657371D01*
X258343Y-7600229D01*
X258343Y-7528800D01*
X272629Y-7471657D01*
X286914Y-7443086D01*
X301200Y-7428800D01*
X329771Y-7414514D01*
X558343Y-7685943D02*
X572629Y-7700229D01*
X558343Y-7714514D01*
X544057Y-7700229D01*
X558343Y-7685943D01*
X558343Y-7714514D01*
X672628Y-7414514D02*
X872628Y-7414514D01*
X744057Y-7714514D01*
X1115486Y-7414514D02*
X1058343Y-7414514D01*
X1029771Y-7428800D01*
X1015486Y-7443086D01*
X986914Y-7485943D01*
X972628Y-7543086D01*
X972628Y-7657371D01*
X986914Y-7685943D01*
X1001200Y-7700229D01*
X1029771Y-7714514D01*
X1086914Y-7714514D01*
X1115486Y-7700229D01*
X1129771Y-7685943D01*
X1144057Y-7657371D01*
X1144057Y-7585943D01*
X1129771Y-7557371D01*
X1115486Y-7543086D01*
X1086914Y-7528800D01*
X1029771Y-7528800D01*
X1001200Y-7543086D01*
X986914Y-7557371D01*
X972628Y-7585943D01*
X1272629Y-7714514D02*
X1272629Y-7514514D01*
X1272629Y-7543086D02*
X1286914Y-7528800D01*
X1315486Y-7514514D01*
X1358343Y-7514514D01*
X1386914Y-7528800D01*
X1401200Y-7557371D01*
X1401200Y-7714514D01*
X1401200Y-7557371D02*
X1415486Y-7528800D01*
X1444057Y-7514514D01*
X1486914Y-7514514D01*
X1515486Y-7528800D01*
X1529771Y-7557371D01*
X1529771Y-7714514D01*
X1672628Y-7714514D02*
X1672628Y-7514514D01*
X1672628Y-7543086D02*
X1686914Y-7528800D01*
X1715486Y-7514514D01*
X1758343Y-7514514D01*
X1786914Y-7528800D01*
X1801200Y-7557371D01*
X1801200Y-7714514D01*
X1801200Y-7557371D02*
X1815486Y-7528800D01*
X1844057Y-7514514D01*
X1886914Y-7514514D01*
X1915486Y-7528800D01*
X1929771Y-7557371D01*
X1929771Y-7714514D01*
X2515486Y-7400229D02*
X2258343Y-7785943D01*
X2901200Y-7414514D02*
X2929771Y-7414514D01*
X2958343Y-7428800D01*
X2972628Y-7443086D01*
X2986914Y-7471657D01*
X3001200Y-7528800D01*
X3001200Y-7600229D01*
X2986914Y-7657371D01*
X2972628Y-7685943D01*
X2958343Y-7700229D01*
X2929771Y-7714514D01*
X2901200Y-7714514D01*
X2872628Y-7700229D01*
X2858343Y-7685943D01*
X2844057Y-7657371D01*
X2829771Y-7600229D01*
X2829771Y-7528800D01*
X2844057Y-7471657D01*
X2858343Y-7443086D01*
X2872628Y-7428800D01*
X2901200Y-7414514D01*
X3129771Y-7685943D02*
X3144057Y-7700229D01*
X3129771Y-7714514D01*
X3115486Y-7700229D01*
X3129771Y-7685943D01*
X3129771Y-7714514D01*
X3329771Y-7414514D02*
X3358343Y-7414514D01*
X3386914Y-7428800D01*
X3401200Y-7443086D01*
X3415485Y-7471657D01*
X3429771Y-7528800D01*
X3429771Y-7600229D01*
X3415485Y-7657371D01*
X3401200Y-7685943D01*
X3386914Y-7700229D01*
X3358343Y-7714514D01*
X3329771Y-7714514D01*
X3301200Y-7700229D01*
X3286914Y-7685943D01*
X3272628Y-7657371D01*
X3258343Y-7600229D01*
X3258343Y-7528800D01*
X3272628Y-7471657D01*
X3286914Y-7443086D01*
X3301200Y-7428800D01*
X3329771Y-7414514D01*
X3529771Y-7414514D02*
X3715485Y-7414514D01*
X3615485Y-7528800D01*
X3658343Y-7528800D01*
X3686914Y-7543086D01*
X3701200Y-7557371D01*
X3715485Y-7585943D01*
X3715485Y-7657371D01*
X3701200Y-7685943D01*
X3686914Y-7700229D01*
X3658343Y-7714514D01*
X3572628Y-7714514D01*
X3544057Y-7700229D01*
X3529771Y-7685943D01*
X3901200Y-7414514D02*
X3929771Y-7414514D01*
X3958343Y-7428800D01*
X3972628Y-7443086D01*
X3986914Y-7471657D01*
X4001200Y-7528800D01*
X4001200Y-7600229D01*
X3986914Y-7657371D01*
X3972628Y-7685943D01*
X3958343Y-7700229D01*
X3929771Y-7714514D01*
X3901200Y-7714514D01*
X3872628Y-7700229D01*
X3858343Y-7685943D01*
X3844057Y-7657371D01*
X3829771Y-7600229D01*
X3829771Y-7528800D01*
X3844057Y-7471657D01*
X3858343Y-7443086D01*
X3872628Y-7428800D01*
X3901200Y-7414514D01*
X4115486Y-7414514D02*
X4115486Y-7471657D01*
X4229771Y-7414514D02*
X4229771Y-7471657D01*
X4672628Y-7828800D02*
X4658343Y-7814514D01*
X4629771Y-7771657D01*
X4615486Y-7743086D01*
X4601200Y-7700229D01*
X4586914Y-7628800D01*
X4586914Y-7571657D01*
X4601200Y-7500229D01*
X4615486Y-7457371D01*
X4629771Y-7428800D01*
X4658343Y-7385943D01*
X4672628Y-7371657D01*
X4915486Y-7514514D02*
X4915486Y-7714514D01*
X4844057Y-7400229D02*
X4772628Y-7614514D01*
X4958343Y-7614514D01*
X5129771Y-7414514D02*
X5158343Y-7414514D01*
X5186914Y-7428800D01*
X5201200Y-7443086D01*
X5215486Y-7471657D01*
X5229771Y-7528800D01*
X5229771Y-7600229D01*
X5215486Y-7657371D01*
X5201200Y-7685943D01*
X5186914Y-7700229D01*
X5158343Y-7714514D01*
X5129771Y-7714514D01*
X5101200Y-7700229D01*
X5086914Y-7685943D01*
X5072628Y-7657371D01*
X5058343Y-7600229D01*
X5058343Y-7528800D01*
X5072628Y-7471657D01*
X5086914Y-7443086D01*
X5101200Y-7428800D01*
X5129771Y-7414514D01*
X5586914Y-7714514D02*
X5586914Y-7414514D01*
X5715485Y-7714514D02*
X5715485Y-7557371D01*
X5701200Y-7528800D01*
X5672628Y-7514514D01*
X5629771Y-7514514D01*
X5601200Y-7528800D01*
X5586914Y-7543086D01*
X5901200Y-7714514D02*
X5872628Y-7700229D01*
X5858343Y-7685943D01*
X5844057Y-7657371D01*
X5844057Y-7571657D01*
X5858343Y-7543086D01*
X5872628Y-7528800D01*
X5901200Y-7514514D01*
X5944057Y-7514514D01*
X5972628Y-7528800D01*
X5986914Y-7543086D01*
X6001200Y-7571657D01*
X6001200Y-7657371D01*
X5986914Y-7685943D01*
X5972628Y-7700229D01*
X5944057Y-7714514D01*
X5901200Y-7714514D01*
X6172628Y-7714514D02*
X6144057Y-7700229D01*
X6129771Y-7671657D01*
X6129771Y-7414514D01*
X6401200Y-7700229D02*
X6372628Y-7714514D01*
X6315486Y-7714514D01*
X6286914Y-7700229D01*
X6272628Y-7671657D01*
X6272628Y-7557371D01*
X6286914Y-7528800D01*
X6315486Y-7514514D01*
X6372628Y-7514514D01*
X6401200Y-7528800D01*
X6415486Y-7557371D01*
X6415486Y-7585943D01*
X6272628Y-7614514D01*
X6529771Y-7700229D02*
X6558343Y-7714514D01*
X6615486Y-7714514D01*
X6644057Y-7700229D01*
X6658343Y-7671657D01*
X6658343Y-7657371D01*
X6644057Y-7628800D01*
X6615486Y-7614514D01*
X6572628Y-7614514D01*
X6544057Y-7600229D01*
X6529771Y-7571657D01*
X6529771Y-7557371D01*
X6544057Y-7528800D01*
X6572628Y-7514514D01*
X6615486Y-7514514D01*
X6644057Y-7528800D01*
X6758343Y-7828800D02*
X6772628Y-7814514D01*
X6801200Y-7771657D01*
X6815486Y-7743086D01*
X6829771Y-7700229D01*
X6844057Y-7628800D01*
X6844057Y-7571657D01*
X6829771Y-7500229D01*
X6815486Y-7457371D01*
X6801200Y-7428800D01*
X6772628Y-7385943D01*
X6758343Y-7371657D01*
X-49600Y-8025600D02*
X1200Y-7974800D01*
X-49600Y-7924000D01*
X-100400Y-7974800D01*
X-49600Y-8025600D01*
X429771Y-8110514D02*
X258343Y-8110514D01*
X344057Y-8110514D02*
X344057Y-7810514D01*
X315486Y-7853371D01*
X286914Y-7881943D01*
X258343Y-7896229D01*
X558343Y-8081943D02*
X572629Y-8096229D01*
X558343Y-8110514D01*
X544057Y-8096229D01*
X558343Y-8081943D01*
X558343Y-8110514D01*
X758343Y-7810514D02*
X786914Y-7810514D01*
X815486Y-7824800D01*
X829771Y-7839086D01*
X844057Y-7867657D01*
X858343Y-7924800D01*
X858343Y-7996229D01*
X844057Y-8053371D01*
X829771Y-8081943D01*
X815486Y-8096229D01*
X786914Y-8110514D01*
X758343Y-8110514D01*
X729771Y-8096229D01*
X715486Y-8081943D01*
X701200Y-8053371D01*
X686914Y-7996229D01*
X686914Y-7924800D01*
X701200Y-7867657D01*
X715486Y-7839086D01*
X729771Y-7824800D01*
X758343Y-7810514D01*
X972628Y-7839086D02*
X986914Y-7824800D01*
X1015486Y-7810514D01*
X1086914Y-7810514D01*
X1115486Y-7824800D01*
X1129771Y-7839086D01*
X1144057Y-7867657D01*
X1144057Y-7896229D01*
X1129771Y-7939086D01*
X958343Y-8110514D01*
X1144057Y-8110514D01*
X1272629Y-8110514D02*
X1272629Y-7910514D01*
X1272629Y-7939086D02*
X1286914Y-7924800D01*
X1315486Y-7910514D01*
X1358343Y-7910514D01*
X1386914Y-7924800D01*
X1401200Y-7953371D01*
X1401200Y-8110514D01*
X1401200Y-7953371D02*
X1415486Y-7924800D01*
X1444057Y-7910514D01*
X1486914Y-7910514D01*
X1515486Y-7924800D01*
X1529771Y-7953371D01*
X1529771Y-8110514D01*
X1672628Y-8110514D02*
X1672628Y-7910514D01*
X1672628Y-7939086D02*
X1686914Y-7924800D01*
X1715486Y-7910514D01*
X1758343Y-7910514D01*
X1786914Y-7924800D01*
X1801200Y-7953371D01*
X1801200Y-8110514D01*
X1801200Y-7953371D02*
X1815486Y-7924800D01*
X1844057Y-7910514D01*
X1886914Y-7910514D01*
X1915486Y-7924800D01*
X1929771Y-7953371D01*
X1929771Y-8110514D01*
X2515486Y-7796229D02*
X2258343Y-8181943D01*
X2901200Y-7810514D02*
X2929771Y-7810514D01*
X2958343Y-7824800D01*
X2972628Y-7839086D01*
X2986914Y-7867657D01*
X3001200Y-7924800D01*
X3001200Y-7996229D01*
X2986914Y-8053371D01*
X2972628Y-8081943D01*
X2958343Y-8096229D01*
X2929771Y-8110514D01*
X2901200Y-8110514D01*
X2872628Y-8096229D01*
X2858343Y-8081943D01*
X2844057Y-8053371D01*
X2829771Y-7996229D01*
X2829771Y-7924800D01*
X2844057Y-7867657D01*
X2858343Y-7839086D01*
X2872628Y-7824800D01*
X2901200Y-7810514D01*
X3129771Y-8081943D02*
X3144057Y-8096229D01*
X3129771Y-8110514D01*
X3115486Y-8096229D01*
X3129771Y-8081943D01*
X3129771Y-8110514D01*
X3329771Y-7810514D02*
X3358343Y-7810514D01*
X3386914Y-7824800D01*
X3401200Y-7839086D01*
X3415485Y-7867657D01*
X3429771Y-7924800D01*
X3429771Y-7996229D01*
X3415485Y-8053371D01*
X3401200Y-8081943D01*
X3386914Y-8096229D01*
X3358343Y-8110514D01*
X3329771Y-8110514D01*
X3301200Y-8096229D01*
X3286914Y-8081943D01*
X3272628Y-8053371D01*
X3258343Y-7996229D01*
X3258343Y-7924800D01*
X3272628Y-7867657D01*
X3286914Y-7839086D01*
X3301200Y-7824800D01*
X3329771Y-7810514D01*
X3686914Y-7910514D02*
X3686914Y-8110514D01*
X3615485Y-7796229D02*
X3544057Y-8010514D01*
X3729771Y-8010514D01*
X3901200Y-7810514D02*
X3929771Y-7810514D01*
X3958343Y-7824800D01*
X3972628Y-7839086D01*
X3986914Y-7867657D01*
X4001200Y-7924800D01*
X4001200Y-7996229D01*
X3986914Y-8053371D01*
X3972628Y-8081943D01*
X3958343Y-8096229D01*
X3929771Y-8110514D01*
X3901200Y-8110514D01*
X3872628Y-8096229D01*
X3858343Y-8081943D01*
X3844057Y-8053371D01*
X3829771Y-7996229D01*
X3829771Y-7924800D01*
X3844057Y-7867657D01*
X3858343Y-7839086D01*
X3872628Y-7824800D01*
X3901200Y-7810514D01*
X4115486Y-7810514D02*
X4115486Y-7867657D01*
X4229771Y-7810514D02*
X4229771Y-7867657D01*
X4672628Y-8224800D02*
X4658343Y-8210514D01*
X4629771Y-8167657D01*
X4615486Y-8139086D01*
X4601200Y-8096229D01*
X4586914Y-8024800D01*
X4586914Y-7967657D01*
X4601200Y-7896229D01*
X4615486Y-7853371D01*
X4629771Y-7824800D01*
X4658343Y-7781943D01*
X4672628Y-7767657D01*
X4915486Y-7810514D02*
X4858343Y-7810514D01*
X4829771Y-7824800D01*
X4815486Y-7839086D01*
X4786914Y-7881943D01*
X4772628Y-7939086D01*
X4772628Y-8053371D01*
X4786914Y-8081943D01*
X4801200Y-8096229D01*
X4829771Y-8110514D01*
X4886914Y-8110514D01*
X4915486Y-8096229D01*
X4929771Y-8081943D01*
X4944057Y-8053371D01*
X4944057Y-7981943D01*
X4929771Y-7953371D01*
X4915486Y-7939086D01*
X4886914Y-7924800D01*
X4829771Y-7924800D01*
X4801200Y-7939086D01*
X4786914Y-7953371D01*
X4772628Y-7981943D01*
X5301200Y-8110514D02*
X5301200Y-7810514D01*
X5429771Y-8110514D02*
X5429771Y-7953371D01*
X5415486Y-7924800D01*
X5386914Y-7910514D01*
X5344057Y-7910514D01*
X5315486Y-7924800D01*
X5301200Y-7939086D01*
X5615485Y-8110514D02*
X5586914Y-8096229D01*
X5572628Y-8081943D01*
X5558343Y-8053371D01*
X5558343Y-7967657D01*
X5572628Y-7939086D01*
X5586914Y-7924800D01*
X5615485Y-7910514D01*
X5658343Y-7910514D01*
X5686914Y-7924800D01*
X5701200Y-7939086D01*
X5715485Y-7967657D01*
X5715485Y-8053371D01*
X5701200Y-8081943D01*
X5686914Y-8096229D01*
X5658343Y-8110514D01*
X5615485Y-8110514D01*
X5886914Y-8110514D02*
X5858343Y-8096229D01*
X5844057Y-8067657D01*
X5844057Y-7810514D01*
X6115486Y-8096229D02*
X6086914Y-8110514D01*
X6029771Y-8110514D01*
X6001200Y-8096229D01*
X5986914Y-8067657D01*
X5986914Y-7953371D01*
X6001200Y-7924800D01*
X6029771Y-7910514D01*
X6086914Y-7910514D01*
X6115486Y-7924800D01*
X6129771Y-7953371D01*
X6129771Y-7981943D01*
X5986914Y-8010514D01*
X6244057Y-8096229D02*
X6272628Y-8110514D01*
X6329771Y-8110514D01*
X6358343Y-8096229D01*
X6372628Y-8067657D01*
X6372628Y-8053371D01*
X6358343Y-8024800D01*
X6329771Y-8010514D01*
X6286914Y-8010514D01*
X6258343Y-7996229D01*
X6244057Y-7967657D01*
X6244057Y-7953371D01*
X6258343Y-7924800D01*
X6286914Y-7910514D01*
X6329771Y-7910514D01*
X6358343Y-7924800D01*
X6472628Y-8224800D02*
X6486914Y-8210514D01*
X6515486Y-8167657D01*
X6529771Y-8139086D01*
X6544057Y-8096229D01*
X6558343Y-8024800D01*
X6558343Y-7967657D01*
X6544057Y-7896229D01*
X6529771Y-7853371D01*
X6515486Y-7824800D01*
X6486914Y-7781943D01*
X6472628Y-7767657D01*
M02*
