%TF.GenerationSoftware,KiCad,Pcbnew,4.0.2-stable*%
%TF.CreationDate,2016-08-10T11:52:40+09:00*%
%TF.ProjectId,Shimonso-IoT-Type-R,5368696D6F6E736F2D496F542D547970,rev?*%
%TF.FileFunction,Copper,L1,Top,Signal*%
%FSLAX46Y46*%
G04 Gerber Fmt 4.6, Leading zero omitted, Abs format (unit mm)*
G04 Created by KiCad (PCBNEW 4.0.2-stable) date 2016年08月10日水曜日 11:52:40*
%MOMM*%
G01*
G04 APERTURE LIST*
%ADD10C,0.100000*%
%ADD11R,2.235200X2.235200*%
%ADD12R,0.797560X0.797560*%
%ADD13R,3.100000X0.304800*%
%ADD14R,1.500000X1.550000*%
%ADD15R,0.400000X1.350000*%
%ADD16O,0.890000X1.550000*%
%ADD17O,1.250000X0.950000*%
%ADD18R,0.400000X0.400000*%
%ADD19R,0.300000X0.650000*%
%ADD20R,0.300000X0.645000*%
%ADD21R,0.800000X0.410000*%
%ADD22R,0.300000X0.795000*%
%ADD23R,1.300000X1.900000*%
%ADD24R,0.720000X0.600000*%
%ADD25R,1.800000X0.560000*%
%ADD26R,0.330000X0.230000*%
%ADD27R,0.230000X0.330000*%
%ADD28O,0.550000X0.300000*%
%ADD29R,0.300000X0.450000*%
%ADD30O,0.300000X0.550000*%
%ADD31R,0.800000X0.300000*%
%ADD32R,0.450000X0.300000*%
%ADD33R,0.275000X0.250000*%
%ADD34R,0.250000X0.275000*%
%ADD35R,1.720000X0.500000*%
%ADD36R,0.340000X1.510000*%
%ADD37R,2.000000X0.300000*%
%ADD38R,2.100000X0.540000*%
%ADD39R,1.340000X3.600000*%
%ADD40R,0.610000X2.000000*%
%ADD41C,1.600000*%
%ADD42R,1.700000X1.200000*%
%ADD43R,0.800000X0.700000*%
%ADD44R,0.700000X0.800000*%
%ADD45R,0.800000X0.900000*%
%ADD46R,9.000000X9.000000*%
%ADD47R,2.700000X0.900000*%
%ADD48R,0.900000X2.700000*%
%ADD49R,1.700000X6.300000*%
%ADD50R,1.200000X0.900000*%
%ADD51R,1.510000X0.270000*%
%ADD52R,1.510000X0.260000*%
%ADD53R,0.250000X0.600000*%
%ADD54R,0.270000X1.510000*%
%ADD55R,0.260000X1.510000*%
%ADD56R,0.270000X1.900000*%
%ADD57C,0.600000*%
%ADD58C,0.200000*%
%ADD59C,0.150000*%
%ADD60C,0.250000*%
%ADD61C,0.350000*%
%ADD62C,0.400000*%
G04 APERTURE END LIST*
D10*
D11*
X106400000Y-104200000D03*
X102900000Y-104200000D03*
X99400000Y-104200000D03*
X126100000Y-99900000D03*
X52200000Y-148100000D03*
X54500000Y-138800000D03*
D12*
X75349300Y-148600000D03*
X73850700Y-148600000D03*
X75349300Y-145300000D03*
X73850700Y-145300000D03*
X121900000Y-97550700D03*
X121900000Y-99049300D03*
X116100000Y-97450700D03*
X116100000Y-98949300D03*
X111100000Y-97450700D03*
X111100000Y-98949300D03*
X83400000Y-106750700D03*
X83400000Y-108249300D03*
D13*
X61050000Y-138777500D03*
X64950000Y-138777500D03*
X64950000Y-139412500D03*
X61050000Y-139412500D03*
X61050000Y-140047500D03*
X64950000Y-140047500D03*
X64950000Y-143222500D03*
X61050000Y-143222500D03*
X61050000Y-142587500D03*
X64950000Y-142587500D03*
X64950000Y-141952500D03*
X61050000Y-141952500D03*
X61050000Y-140682500D03*
X64950000Y-140682500D03*
X64950000Y-141317500D03*
X61050000Y-141317500D03*
D14*
X64100000Y-148550000D03*
D15*
X64400000Y-145850000D03*
X63100000Y-145850000D03*
X63750000Y-145850000D03*
X62450000Y-145850000D03*
D16*
X66600000Y-148550000D03*
X59600000Y-148550000D03*
D17*
X65600000Y-145850000D03*
X60600000Y-145850000D03*
D15*
X61800000Y-145850000D03*
D14*
X62100000Y-148550000D03*
D18*
X89100000Y-123600000D03*
X89100000Y-124600000D03*
X86100000Y-123600000D03*
X86100000Y-124600000D03*
X88100000Y-122600000D03*
X87100000Y-122600000D03*
X86100000Y-122600000D03*
X89100000Y-122600000D03*
X89100000Y-125600000D03*
X86100000Y-125600000D03*
X87100000Y-125600000D03*
X88100000Y-125600000D03*
D19*
X79400000Y-126125000D03*
X80400000Y-126125000D03*
X79400000Y-124275000D03*
D10*
G36*
X80300000Y-125405000D02*
X80100000Y-125655000D01*
X79700000Y-125655000D01*
X79500000Y-125405000D01*
X80300000Y-125405000D01*
X80300000Y-125405000D01*
G37*
D20*
X79900000Y-125977500D03*
D21*
X79900000Y-125200000D03*
D22*
X79900000Y-124347500D03*
D10*
G36*
X79500000Y-124995000D02*
X79700000Y-124745000D01*
X80100000Y-124745000D01*
X80300000Y-124995000D01*
X79500000Y-124995000D01*
X79500000Y-124995000D01*
G37*
D19*
X80400000Y-124275000D03*
D23*
X52600000Y-105300000D03*
X52600000Y-108500000D03*
X58100000Y-108500000D03*
X58100000Y-105300000D03*
D24*
X69315000Y-114025000D03*
X70285000Y-114025000D03*
X71255000Y-114025000D03*
X68345000Y-114025000D03*
X68345000Y-112575000D03*
X71255000Y-112575000D03*
X70285000Y-112575000D03*
X69315000Y-112575000D03*
D25*
X61600000Y-104595000D03*
X61600000Y-105865000D03*
X61600000Y-107135000D03*
X61600000Y-108405000D03*
X67000000Y-108405000D03*
X67000000Y-107135000D03*
X67000000Y-105865000D03*
X67000000Y-104595000D03*
D26*
X99610000Y-115450000D03*
X99610000Y-115900000D03*
X99610000Y-116350000D03*
D27*
X100625000Y-115110000D03*
X100175000Y-115110000D03*
X100175000Y-116690000D03*
X100625000Y-116690000D03*
D26*
X101190000Y-116350000D03*
X101190000Y-115900000D03*
X101190000Y-115450000D03*
D28*
X91910000Y-116750000D03*
D29*
X90900000Y-118225000D03*
X90900000Y-116375000D03*
D30*
X90350000Y-118310000D03*
X91450000Y-118310000D03*
X90350000Y-116290000D03*
X91450000Y-116290000D03*
D28*
X89890000Y-116750000D03*
X89890000Y-117850000D03*
X91910000Y-117850000D03*
D31*
X91650000Y-117300000D03*
D32*
X89975000Y-117300000D03*
D33*
X104800000Y-110887500D03*
X104800000Y-110387500D03*
D34*
X104800000Y-109875000D03*
X105300000Y-109875000D03*
X105800000Y-109875000D03*
X106300000Y-109875000D03*
D33*
X106300000Y-110387500D03*
X106300000Y-110887500D03*
D34*
X106300000Y-111400000D03*
X105800000Y-111400000D03*
X105300000Y-111400000D03*
X104800000Y-111400000D03*
D35*
X95600000Y-103550000D03*
X95600000Y-105450000D03*
X93600000Y-105450000D03*
X93600000Y-104500000D03*
X93600000Y-103550000D03*
D36*
X126840000Y-138365000D03*
X127340000Y-138365000D03*
X128340000Y-138365000D03*
X127840000Y-138365000D03*
X127840000Y-135875000D03*
X128340000Y-135875000D03*
X127340000Y-135875000D03*
X126840000Y-135875000D03*
D37*
X113400000Y-128100000D03*
X108000000Y-128100000D03*
X108000000Y-128750000D03*
X113400000Y-128750000D03*
X113400000Y-130050000D03*
X108000000Y-130050000D03*
X108000000Y-129400000D03*
X113400000Y-129400000D03*
X113400000Y-126800000D03*
X108000000Y-126800000D03*
X108000000Y-127450000D03*
X113400000Y-127450000D03*
X113400000Y-126150000D03*
X108000000Y-126150000D03*
X108000000Y-125500000D03*
X113400000Y-125500000D03*
D38*
X121450000Y-115105000D03*
X121450000Y-113835000D03*
X121450000Y-111295000D03*
X121450000Y-112565000D03*
X126350000Y-112565000D03*
X126350000Y-111295000D03*
X126350000Y-113835000D03*
X126350000Y-115105000D03*
D39*
X86510000Y-145800000D03*
D40*
X89500000Y-143000000D03*
X91500000Y-143000000D03*
X90500000Y-143000000D03*
X94500000Y-143000000D03*
X95500000Y-143000000D03*
X93500000Y-143000000D03*
X92500000Y-143000000D03*
X100500000Y-143000000D03*
X101500000Y-143000000D03*
X103500000Y-143000000D03*
X102500000Y-143000000D03*
X98500000Y-143000000D03*
X99500000Y-143000000D03*
X97500000Y-143000000D03*
X96500000Y-143000000D03*
D39*
X106490000Y-145800000D03*
X112310000Y-145800000D03*
D40*
X115300000Y-143000000D03*
X117300000Y-143000000D03*
X116300000Y-143000000D03*
X120300000Y-143000000D03*
X121300000Y-143000000D03*
X119300000Y-143000000D03*
X118300000Y-143000000D03*
X126300000Y-143000000D03*
X127300000Y-143000000D03*
X129300000Y-143000000D03*
X128300000Y-143000000D03*
X124300000Y-143000000D03*
X125300000Y-143000000D03*
X123300000Y-143000000D03*
X122300000Y-143000000D03*
D39*
X132290000Y-145800000D03*
D41*
X60000000Y-101000000D03*
X60000000Y-99000000D03*
X62000000Y-101000000D03*
X62000000Y-99000000D03*
X64000000Y-101000000D03*
X64000000Y-99000000D03*
X66000000Y-101000000D03*
X66000000Y-99000000D03*
X68000000Y-101000000D03*
X68000000Y-99000000D03*
X70000000Y-101000000D03*
X70000000Y-99000000D03*
X72000000Y-101000000D03*
X72000000Y-99000000D03*
X74000000Y-101000000D03*
X74000000Y-99000000D03*
X76000000Y-101000000D03*
X76000000Y-99000000D03*
X78000000Y-101000000D03*
X78000000Y-99000000D03*
X80000000Y-101000000D03*
X80000000Y-99000000D03*
X82000000Y-101000000D03*
X82000000Y-99000000D03*
X84000000Y-101000000D03*
X84000000Y-99000000D03*
X86000000Y-101000000D03*
X86000000Y-99000000D03*
X88000000Y-101000000D03*
X88000000Y-99000000D03*
X90000000Y-101000000D03*
X90000000Y-99000000D03*
X92000000Y-101000000D03*
X92000000Y-99000000D03*
X94000000Y-101000000D03*
X94000000Y-99000000D03*
X96000000Y-101000000D03*
X96000000Y-99000000D03*
X98000000Y-101000000D03*
X98000000Y-99000000D03*
D38*
X121350000Y-107605000D03*
X121350000Y-106335000D03*
X121350000Y-103795000D03*
X121350000Y-105065000D03*
X126250000Y-105065000D03*
X126250000Y-103795000D03*
X126250000Y-106335000D03*
X126250000Y-107605000D03*
D42*
X64900000Y-130600000D03*
X64900000Y-134000000D03*
D43*
X59000000Y-114650000D03*
X59000000Y-112950000D03*
X73600000Y-102750000D03*
X73600000Y-104450000D03*
D44*
X79350000Y-148600000D03*
X77650000Y-148600000D03*
X79350000Y-145300000D03*
X77650000Y-145300000D03*
D43*
X99670000Y-137710000D03*
X99670000Y-136010000D03*
X97620000Y-138820000D03*
X97620000Y-137120000D03*
X83400000Y-103650000D03*
X83400000Y-105350000D03*
D45*
X86650000Y-106200000D03*
X88550000Y-106200000D03*
X87600000Y-108200000D03*
D46*
X73700000Y-125100000D03*
D47*
X55750000Y-112900000D03*
X52450000Y-112900000D03*
D48*
X130800000Y-119068800D03*
X130800000Y-125721600D03*
X123300000Y-119068800D03*
X123300000Y-125721600D03*
X130800000Y-115150000D03*
X130800000Y-111850000D03*
X130600000Y-107650000D03*
X130600000Y-104350000D03*
X117000000Y-107650000D03*
X117000000Y-104350000D03*
X117000000Y-115050000D03*
X117000000Y-111750000D03*
X56300000Y-144850000D03*
X56300000Y-148150000D03*
D44*
X54450000Y-116400000D03*
X52750000Y-116400000D03*
X105000000Y-139310000D03*
X106700000Y-139310000D03*
D43*
X52800000Y-142750000D03*
X52800000Y-144450000D03*
D49*
X59000000Y-126550000D03*
X59000000Y-118850000D03*
D43*
X51700000Y-137850000D03*
X51700000Y-139550000D03*
X64900000Y-135450000D03*
X64900000Y-137150000D03*
D50*
X59725000Y-111100000D03*
X61875000Y-111100000D03*
D51*
X71055000Y-106250000D03*
X71055000Y-106750000D03*
X71055000Y-107750000D03*
X71055000Y-107250000D03*
X73545000Y-107250000D03*
X73545000Y-107750000D03*
X73545000Y-106750000D03*
D52*
X73545000Y-106250000D03*
D53*
X68650000Y-117100000D03*
X69158000Y-117100000D03*
X70150000Y-117100000D03*
X69650000Y-117100000D03*
X69650000Y-119100000D03*
X70150000Y-119100000D03*
X69158000Y-119100000D03*
X68650000Y-119100000D03*
D54*
X101850000Y-138245000D03*
X102350000Y-138245000D03*
X103350000Y-138245000D03*
X102850000Y-138245000D03*
X102850000Y-135755000D03*
X103350000Y-135755000D03*
X102350000Y-135755000D03*
D55*
X101850000Y-135755000D03*
D56*
X81900000Y-116350000D03*
X82400000Y-116350000D03*
X80900000Y-116350000D03*
X81400000Y-116350000D03*
X82900000Y-116350000D03*
X82900000Y-120250000D03*
X81400000Y-120250000D03*
X80900000Y-120250000D03*
X82400000Y-120250000D03*
X81900000Y-120250000D03*
D57*
X66990000Y-104240000D03*
X105140000Y-109170000D03*
X101820000Y-116110000D03*
X100200000Y-117260000D03*
X128670000Y-135900000D03*
X106940000Y-111940000D03*
X104630000Y-111890000D03*
X95310000Y-117440000D03*
X89530000Y-118620000D03*
X73530000Y-107910000D03*
X69300000Y-112200000D03*
X68070000Y-120980000D03*
X80400000Y-127600000D03*
X83110000Y-118390000D03*
X79560000Y-107270000D03*
X130140000Y-125790000D03*
X123860000Y-125730000D03*
X123970000Y-117000000D03*
X123825300Y-109400000D03*
X86140000Y-106200000D03*
X91470000Y-107030000D03*
X91790000Y-103900000D03*
X92380000Y-104490000D03*
X121960000Y-136790000D03*
X113410000Y-130260000D03*
X113400000Y-126470000D03*
X104800000Y-136780000D03*
X107350000Y-141474700D03*
X93600000Y-133600000D03*
X91100000Y-133600000D03*
X69900000Y-119400000D03*
X53100000Y-116750000D03*
X52450000Y-113500000D03*
X57250000Y-126550000D03*
X54150000Y-106900000D03*
X90350000Y-137990000D03*
X87950000Y-138110000D03*
X85550000Y-138120000D03*
X83150000Y-138180000D03*
X80780000Y-138180000D03*
X75150000Y-133880000D03*
X88740000Y-133480000D03*
X86360000Y-133530000D03*
X82360000Y-133520000D03*
X78370000Y-135550000D03*
X75150000Y-130900000D03*
X72710000Y-133590000D03*
X98500000Y-144240000D03*
X95500000Y-144230000D03*
X124300000Y-144420000D03*
X121300000Y-144290000D03*
X118280000Y-144330000D03*
X115310000Y-141720000D03*
X115310000Y-141710000D03*
X92510000Y-144580000D03*
X88590000Y-142260000D03*
X123600000Y-104200000D03*
X129200000Y-111850000D03*
X129100000Y-104350000D03*
X118200000Y-104400000D03*
X64900000Y-132000000D03*
X56700000Y-140900000D03*
X52100000Y-136400000D03*
X68400000Y-140800000D03*
X87197000Y-123383800D03*
X61900000Y-144600000D03*
X67500000Y-141600000D03*
X79320000Y-128110000D03*
X68350000Y-112060000D03*
X81920000Y-117690000D03*
X80620000Y-120960000D03*
X90780000Y-122470000D03*
X81470000Y-118380000D03*
X79300000Y-129090000D03*
X70999200Y-111372600D03*
X73110000Y-112120000D03*
X67526400Y-119250000D03*
X65850000Y-113320000D03*
X61950000Y-111650000D03*
X129550000Y-140880000D03*
X129610000Y-145850000D03*
X129990000Y-143030000D03*
X113410000Y-125320000D03*
X108575300Y-141530000D03*
X104860000Y-144390000D03*
X79350000Y-146900000D03*
X127190800Y-109375300D03*
X123804800Y-107605000D03*
X89874900Y-122600000D03*
X104552500Y-142120900D03*
X122750000Y-140399800D03*
X68220200Y-119943800D03*
X111939300Y-122944700D03*
X71376300Y-102750000D03*
X84000000Y-103000000D03*
X107900000Y-100300000D03*
X115700000Y-114900000D03*
X115200000Y-107600000D03*
X121291300Y-108437500D03*
X106080000Y-109210000D03*
X105530000Y-110660000D03*
X107080000Y-109940000D03*
X101700000Y-118550000D03*
X130210000Y-134740000D03*
X75240000Y-107510000D03*
X93700000Y-112890000D03*
X92000000Y-120000000D03*
X93470000Y-119170000D03*
X73460000Y-115470000D03*
X76890000Y-107150000D03*
X77020000Y-110390000D03*
X104390000Y-137840000D03*
X102150000Y-126370000D03*
X107210000Y-124280000D03*
X126350000Y-114500000D03*
X125010000Y-130912600D03*
X98845000Y-138535000D03*
X57547500Y-140047500D03*
X129310200Y-115150000D03*
X92733800Y-118163300D03*
X106624700Y-124924100D03*
X128650000Y-139673700D03*
X104050000Y-115920000D03*
X58000000Y-147000000D03*
X67800000Y-146000000D03*
X83970000Y-134290000D03*
X126840000Y-134290000D03*
X108220000Y-132340000D03*
X97371600Y-130332200D03*
X124130000Y-132940000D03*
X107580000Y-133060000D03*
X85921500Y-130773100D03*
X90050000Y-134380000D03*
X89147600Y-130129700D03*
X87389500Y-133928100D03*
X111940000Y-140450000D03*
X96600000Y-132400000D03*
X123241800Y-144561100D03*
X93780000Y-135070000D03*
X98500000Y-133300000D03*
X77620000Y-135120000D03*
X83200000Y-134000000D03*
X74370000Y-134460000D03*
X80670000Y-133940000D03*
X76730000Y-133900000D03*
X91800000Y-139860000D03*
X93330000Y-141400000D03*
X75970000Y-134390000D03*
X73530000Y-134130000D03*
X72050000Y-134200000D03*
X71079800Y-134088900D03*
X51800000Y-102900000D03*
X63000000Y-134000000D03*
X64800000Y-105500000D03*
X100280000Y-115720000D03*
X90730000Y-117290000D03*
X78460000Y-113910000D03*
X73600000Y-106000000D03*
X70300000Y-114500000D03*
X97160000Y-114320000D03*
X80160000Y-109180000D03*
X58120000Y-97760000D03*
X97530000Y-115800000D03*
X69200000Y-118000000D03*
X100200000Y-111900000D03*
X92000000Y-115700000D03*
X110030000Y-105180000D03*
X109140000Y-104160000D03*
X100623300Y-99430500D03*
X99782600Y-100499900D03*
X96470000Y-104630000D03*
X102520000Y-106140000D03*
X101455600Y-123575300D03*
X96701200Y-102707100D03*
X104020000Y-100080000D03*
X106059000Y-127732000D03*
X108983500Y-97450700D03*
X115184400Y-98165600D03*
X119416800Y-97550700D03*
X127310000Y-144260000D03*
X128280000Y-141280000D03*
X126780000Y-140010000D03*
X121350000Y-133810000D03*
X130030000Y-139420000D03*
X112000000Y-128750000D03*
X100500000Y-141500000D03*
X101500000Y-144750000D03*
X101800000Y-139800000D03*
X102700000Y-141400000D03*
X112000000Y-127500000D03*
X99500000Y-141500000D03*
X89515200Y-106200000D03*
X69000000Y-106800000D03*
X105459400Y-126717600D03*
X95930000Y-106440000D03*
X103170000Y-139350000D03*
X71055000Y-108812000D03*
X92845700Y-117300000D03*
X56900000Y-105300000D03*
X56800000Y-108500000D03*
X89973100Y-125600000D03*
X68000000Y-143200000D03*
X58500000Y-143600000D03*
X104924200Y-126025800D03*
X57500000Y-142500000D03*
X88360000Y-123570000D03*
X86210000Y-121480000D03*
X67200000Y-142500000D03*
D58*
X103812500Y-110887500D02*
X103800000Y-110900000D01*
D59*
X67000000Y-104595000D02*
X67000000Y-104250000D01*
X67000000Y-104250000D02*
X66990000Y-104240000D01*
X105300000Y-109875000D02*
X105300000Y-109330000D01*
X105300000Y-109330000D02*
X105140000Y-109170000D01*
X105800000Y-109875000D02*
X105300000Y-109875000D01*
X101190000Y-115900000D02*
X101610000Y-115900000D01*
X101610000Y-115900000D02*
X101820000Y-116110000D01*
D60*
X100175000Y-116690000D02*
X100175000Y-117235000D01*
X100175000Y-117235000D02*
X100200000Y-117260000D01*
X108000000Y-130050000D02*
X113400000Y-130050000D01*
X128340000Y-135875000D02*
X128645000Y-135875000D01*
X128645000Y-135875000D02*
X128670000Y-135900000D01*
X104800000Y-111400000D02*
X104800000Y-111720000D01*
X106940000Y-111940000D02*
X106400000Y-111400000D01*
X104800000Y-111720000D02*
X104630000Y-111890000D01*
X106400000Y-111400000D02*
X106300000Y-111400000D01*
X91910000Y-116750000D02*
X92380000Y-116750000D01*
X94410000Y-116540000D02*
X95310000Y-117440000D01*
X92590000Y-116540000D02*
X94410000Y-116540000D01*
X92380000Y-116750000D02*
X92590000Y-116540000D01*
X73545000Y-107750000D02*
X73545000Y-107895000D01*
X73545000Y-107895000D02*
X73530000Y-107910000D01*
D61*
X69315000Y-112215000D02*
X69300000Y-112200000D01*
X69315000Y-112215000D02*
X69315000Y-112575000D01*
D60*
X69900000Y-119400000D02*
X69900000Y-119490000D01*
X68230000Y-120980000D02*
X68070000Y-120980000D01*
X69100000Y-120110000D02*
X68230000Y-120980000D01*
X69280000Y-120110000D02*
X69100000Y-120110000D01*
X69900000Y-119490000D02*
X69280000Y-120110000D01*
X80400000Y-126125000D02*
X80400000Y-127600000D01*
X81900000Y-120250000D02*
X81900000Y-119080000D01*
X82590000Y-118390000D02*
X83110000Y-118390000D01*
X81900000Y-119080000D02*
X82590000Y-118390000D01*
X91450000Y-118310000D02*
X91450000Y-118730000D01*
X89530000Y-118210000D02*
X89890000Y-117850000D01*
X89530000Y-118620000D02*
X89530000Y-118210000D01*
X90020000Y-119110000D02*
X89530000Y-118620000D01*
X91070000Y-119110000D02*
X90020000Y-119110000D01*
X91450000Y-118730000D02*
X91070000Y-119110000D01*
X130800000Y-125721600D02*
X130208400Y-125721600D01*
X130208400Y-125721600D02*
X130140000Y-125790000D01*
X123300000Y-125721600D02*
X123851600Y-125721600D01*
X123851600Y-125721600D02*
X123860000Y-125730000D01*
X86650000Y-106200000D02*
X86140000Y-106200000D01*
X93600000Y-104500000D02*
X92390000Y-104500000D01*
X92390000Y-104500000D02*
X92380000Y-104490000D01*
X113400000Y-130050000D02*
X113400000Y-130250000D01*
X113400000Y-130250000D02*
X113410000Y-130260000D01*
X113400000Y-126800000D02*
X113400000Y-126470000D01*
X113400000Y-126470000D02*
X113400000Y-126150000D01*
X106700000Y-139310000D02*
X106700000Y-138680000D01*
X103775000Y-135755000D02*
X104800000Y-136780000D01*
X103775000Y-135755000D02*
X103350000Y-135755000D01*
X106700000Y-138680000D02*
X104800000Y-136780000D01*
X69650000Y-119100000D02*
X69650000Y-119150000D01*
X69650000Y-119150000D02*
X69900000Y-119400000D01*
X69900000Y-119400000D02*
X70150000Y-119150000D01*
X70150000Y-119100000D02*
X70150000Y-119150000D01*
X69650000Y-119100000D02*
X70150000Y-119100000D01*
D61*
X52750000Y-116400000D02*
X53100000Y-116750000D01*
X52500000Y-115900000D02*
X52450000Y-115900000D01*
X52500000Y-115900000D02*
X52450000Y-115900000D01*
X53100000Y-116750000D02*
X53100000Y-122400000D01*
X53100000Y-122400000D02*
X57250000Y-126550000D01*
X52450000Y-112900000D02*
X52450000Y-113500000D01*
X52450000Y-113500000D02*
X52450000Y-115900000D01*
X52450000Y-115900000D02*
X52450000Y-116100000D01*
X52450000Y-116100000D02*
X52750000Y-116400000D01*
X52450000Y-116100000D02*
X52750000Y-116400000D01*
X59000000Y-126550000D02*
X57250000Y-126550000D01*
X98500000Y-143000000D02*
X98500000Y-144240000D01*
X95500000Y-143000000D02*
X95500000Y-144230000D01*
X124300000Y-143000000D02*
X124300000Y-144420000D01*
X121300000Y-143000000D02*
X121300000Y-144290000D01*
X118300000Y-143000000D02*
X118300000Y-144310000D01*
X118300000Y-144310000D02*
X118280000Y-144330000D01*
X115300000Y-143000000D02*
X115300000Y-141730000D01*
X115300000Y-141730000D02*
X115310000Y-141720000D01*
X115310000Y-141710000D02*
X115320000Y-141700000D01*
X115320000Y-141700000D02*
X115320000Y-141680000D01*
X115320000Y-141680000D02*
X115330000Y-141690000D01*
X115330000Y-141690000D02*
X115330000Y-141710000D01*
X92500000Y-143000000D02*
X92500000Y-144570000D01*
X92500000Y-144570000D02*
X92510000Y-144580000D01*
X89500000Y-143000000D02*
X89330000Y-143000000D01*
X89330000Y-143000000D02*
X88590000Y-142260000D01*
X126350000Y-112565000D02*
X124065000Y-112565000D01*
X118450000Y-110300000D02*
X117000000Y-111750000D01*
X122700000Y-110300000D02*
X118450000Y-110300000D01*
X124000000Y-111600000D02*
X122700000Y-110300000D01*
X124000000Y-112500000D02*
X124000000Y-111600000D01*
X124065000Y-112565000D02*
X124000000Y-112500000D01*
X130800000Y-111850000D02*
X129200000Y-111850000D01*
X129200000Y-111850000D02*
X128950000Y-111850000D01*
X128235000Y-112565000D02*
X126350000Y-112565000D01*
X128950000Y-111850000D02*
X128235000Y-112565000D01*
X118250000Y-104350000D02*
X118200000Y-104350000D01*
X118200000Y-104350000D02*
X118200000Y-104400000D01*
X120000000Y-102700000D02*
X119900000Y-102700000D01*
X117000000Y-104350000D02*
X118250000Y-104350000D01*
X124065000Y-105065000D02*
X126250000Y-105065000D01*
X123600000Y-104600000D02*
X124065000Y-105065000D01*
X123600000Y-103900000D02*
X123600000Y-104200000D01*
X123600000Y-104200000D02*
X123600000Y-104600000D01*
X122400000Y-102700000D02*
X123600000Y-103900000D01*
X120000000Y-102700000D02*
X122400000Y-102700000D01*
X118250000Y-104350000D02*
X119900000Y-102700000D01*
X130600000Y-104350000D02*
X129100000Y-104350000D01*
X129100000Y-104350000D02*
X128750000Y-104350000D01*
X128035000Y-105065000D02*
X126250000Y-105065000D01*
X128750000Y-104350000D02*
X128035000Y-105065000D01*
X64900000Y-130600000D02*
X64900000Y-132000000D01*
X58817500Y-141317500D02*
X58400000Y-140900000D01*
X56700000Y-140900000D02*
X58400000Y-140900000D01*
X58817500Y-141317500D02*
X61050000Y-141317500D01*
X51700000Y-137850000D02*
X51700000Y-136800000D01*
X51700000Y-136800000D02*
X52100000Y-136400000D01*
X64950000Y-140682500D02*
X68282500Y-140682500D01*
X68282500Y-140682500D02*
X68400000Y-140800000D01*
X56300000Y-148150000D02*
X56300000Y-147950000D01*
X56300000Y-147950000D02*
X52800000Y-144450000D01*
X65600000Y-145850000D02*
X64400000Y-145850000D01*
X59600000Y-148550000D02*
X56700000Y-148550000D01*
X56700000Y-148550000D02*
X56300000Y-148150000D01*
X65600000Y-148000000D02*
X66050000Y-148000000D01*
X66050000Y-148000000D02*
X66600000Y-148550000D01*
X65600000Y-145850000D02*
X65600000Y-148000000D01*
X65050000Y-148550000D02*
X64100000Y-148550000D01*
X65600000Y-148000000D02*
X65050000Y-148550000D01*
X123300000Y-125721600D02*
X123300000Y-126150000D01*
X116100000Y-98949300D02*
X116100000Y-99361300D01*
X116100000Y-99361300D02*
X116100000Y-99773400D01*
X111100000Y-98949300D02*
X111924100Y-98949300D01*
X121900000Y-99049300D02*
X121075900Y-99049300D01*
X119451800Y-100673400D02*
X117000000Y-100673400D01*
X121075900Y-99049300D02*
X119451800Y-100673400D01*
X116100000Y-99773400D02*
X117000000Y-100673400D01*
X117000000Y-100673400D02*
X117000000Y-104350000D01*
X121900000Y-99049300D02*
X122724100Y-99049300D01*
X121300000Y-143000000D02*
X121300000Y-142287300D01*
X123574800Y-99900000D02*
X122724100Y-99049300D01*
X126100000Y-99900000D02*
X123574800Y-99900000D01*
X59600000Y-148550000D02*
X59600000Y-147949800D01*
X62100000Y-148550000D02*
X60924700Y-148550000D01*
X62100000Y-148550000D02*
X64100000Y-148550000D01*
X56300000Y-148100000D02*
X56300000Y-148150000D01*
X112336100Y-99361300D02*
X116100000Y-99361300D01*
X111924100Y-98949300D02*
X112336100Y-99361300D01*
X60324500Y-147949800D02*
X60924700Y-148550000D01*
X59600000Y-147949800D02*
X60324500Y-147949800D01*
X130800000Y-111850000D02*
X130800000Y-110487300D01*
X131494500Y-105244500D02*
X130600000Y-104350000D01*
X131494500Y-109792800D02*
X131494500Y-105244500D01*
X130800000Y-110487300D02*
X131494500Y-109792800D01*
X111100000Y-98949300D02*
X110275900Y-98949300D01*
X87197000Y-123322300D02*
X87197000Y-123383800D01*
X87100000Y-123225300D02*
X87197000Y-123322300D01*
X87100000Y-122600000D02*
X87100000Y-123225300D01*
X98294800Y-98705200D02*
X98000000Y-99000000D01*
X110275900Y-98949300D02*
X110031800Y-98705200D01*
X59000000Y-114650000D02*
X59000000Y-118850000D01*
D60*
X61900000Y-144600000D02*
X56550000Y-144600000D01*
X56550000Y-144600000D02*
X56300000Y-144850000D01*
X61800000Y-144700000D02*
X61800000Y-145850000D01*
X61900000Y-144600000D02*
X61800000Y-144700000D01*
X64950000Y-141317500D02*
X67217500Y-141317500D01*
X67217500Y-141317500D02*
X67500000Y-141600000D01*
X52800000Y-142750000D02*
X54200000Y-142750000D01*
X54200000Y-142750000D02*
X56300000Y-144850000D01*
X61800000Y-145850000D02*
X61800000Y-145400000D01*
X56300000Y-144850000D02*
X56300000Y-143987300D01*
X79400000Y-126125000D02*
X79400000Y-128030000D01*
X79400000Y-128030000D02*
X79320000Y-128110000D01*
X68345000Y-112065000D02*
X68345000Y-112575000D01*
X68350000Y-112060000D02*
X68345000Y-112065000D01*
X81900000Y-116350000D02*
X81900000Y-117670000D01*
X81900000Y-117670000D02*
X81920000Y-117690000D01*
X80900000Y-120250000D02*
X80900000Y-120680000D01*
X80900000Y-120680000D02*
X80620000Y-120960000D01*
X71255000Y-111628400D02*
X71255000Y-112575000D01*
X71255000Y-111628400D02*
X70999200Y-111372600D01*
X61875000Y-111100000D02*
X61875000Y-111575000D01*
X61875000Y-111575000D02*
X61950000Y-111650000D01*
X129960000Y-143000000D02*
X129300000Y-143000000D01*
X129990000Y-143030000D02*
X129960000Y-143000000D01*
X113400000Y-125500000D02*
X113400000Y-125330000D01*
X113400000Y-125330000D02*
X113410000Y-125320000D01*
X130600000Y-107650000D02*
X130600000Y-109375300D01*
X126250000Y-106335000D02*
X127675300Y-106335000D01*
X127675300Y-107605000D02*
X127675300Y-106335000D01*
X130600000Y-109375300D02*
X127675300Y-109375300D01*
X127675300Y-109375300D02*
X127190800Y-109375300D01*
X127675300Y-109375300D02*
X127675300Y-107605000D01*
X126962700Y-107605000D02*
X127675300Y-107605000D01*
X126962700Y-107605000D02*
X126250000Y-107605000D01*
X126250000Y-107605000D02*
X123804800Y-107605000D01*
X79350000Y-145300000D02*
X79350000Y-146900000D01*
X79350000Y-146900000D02*
X79350000Y-148600000D01*
X68388700Y-119775300D02*
X68650000Y-119775300D01*
X68220200Y-119943800D02*
X68388700Y-119775300D01*
X103500000Y-143000000D02*
X103500000Y-142282800D01*
X89100000Y-122600000D02*
X89387700Y-122600000D01*
X89387700Y-122600000D02*
X89675300Y-122600000D01*
X68650000Y-119100000D02*
X68650000Y-119775300D01*
X113400000Y-125500000D02*
X112024700Y-125500000D01*
X89675300Y-122600000D02*
X89874900Y-122600000D01*
X112024700Y-125500000D02*
X111939300Y-125414600D01*
X111939300Y-125414600D02*
X111939300Y-122944700D01*
X111594600Y-122600000D02*
X111939300Y-122944700D01*
X73600000Y-102750000D02*
X71376300Y-102750000D01*
X103500000Y-142282800D02*
X103581000Y-142201800D01*
X103661900Y-142120900D02*
X104552500Y-142120900D01*
X103581000Y-142201800D02*
X103661900Y-142120900D01*
X86675400Y-122024600D02*
X86100000Y-122600000D01*
X88812300Y-122024600D02*
X86675400Y-122024600D01*
X89387700Y-122600000D02*
X88812300Y-122024600D01*
X84000000Y-103000000D02*
X83400000Y-103600000D01*
X83400000Y-103600000D02*
X83400000Y-103650000D01*
D61*
X121450000Y-111295000D02*
X120005000Y-111295000D01*
X119800000Y-111500000D02*
X119800000Y-115105000D01*
X120005000Y-111295000D02*
X119800000Y-111500000D01*
X121450000Y-115105000D02*
X119800000Y-115105000D01*
X119800000Y-115105000D02*
X117055000Y-115105000D01*
X117055000Y-115105000D02*
X117000000Y-115050000D01*
X121350000Y-103795000D02*
X120105000Y-103795000D01*
X119700000Y-104200000D02*
X119700000Y-107650000D01*
X120105000Y-103795000D02*
X119700000Y-104200000D01*
X117000000Y-107650000D02*
X119700000Y-107650000D01*
X119700000Y-107650000D02*
X121305000Y-107650000D01*
X121305000Y-107650000D02*
X121350000Y-107605000D01*
X115850000Y-115050000D02*
X117000000Y-115050000D01*
X115700000Y-114900000D02*
X115850000Y-115050000D01*
X115250000Y-107650000D02*
X117000000Y-107650000D01*
X115200000Y-107600000D02*
X115250000Y-107650000D01*
X96000000Y-101000000D02*
X96000000Y-102100000D01*
X95600000Y-102500000D02*
X95600000Y-103550000D01*
X96000000Y-102100000D02*
X95600000Y-102500000D01*
D60*
X121350000Y-107605000D02*
X120637400Y-107605000D01*
X117000000Y-114444800D02*
X117000000Y-115050000D01*
X120637400Y-107605000D02*
X120637400Y-108437500D01*
X120637400Y-108437500D02*
X121291300Y-108437500D01*
X122851200Y-118620000D02*
X103220000Y-118620000D01*
X101190000Y-116590000D02*
X103220000Y-118620000D01*
X101190000Y-116590000D02*
X101190000Y-116350000D01*
X122851200Y-118620000D02*
X123300000Y-119068800D01*
X100625000Y-116690000D02*
X100625000Y-116795000D01*
X100625000Y-116795000D02*
X100790000Y-116960000D01*
X100790000Y-116960000D02*
X100790000Y-117640000D01*
X100790000Y-117640000D02*
X100990000Y-117840000D01*
X104800000Y-109875000D02*
X104800000Y-109830000D01*
X104800000Y-109830000D02*
X104380000Y-109410000D01*
X104380000Y-109410000D02*
X104380000Y-109030000D01*
X104380000Y-109030000D02*
X104930000Y-108480000D01*
X104930000Y-108480000D02*
X105350000Y-108480000D01*
X105350000Y-108480000D02*
X106080000Y-109210000D01*
X106190000Y-109320000D02*
X106190000Y-109400000D01*
X106080000Y-109210000D02*
X106190000Y-109320000D01*
X105800000Y-110930000D02*
X105800000Y-111400000D01*
X105530000Y-110660000D02*
X105800000Y-110930000D01*
X106300000Y-109875000D02*
X107015000Y-109875000D01*
X107015000Y-109875000D02*
X107080000Y-109940000D01*
X106300000Y-109875000D02*
X106300000Y-109510000D01*
X106300000Y-109510000D02*
X106190000Y-109400000D01*
X100990000Y-117840000D02*
X101700000Y-118550000D01*
X127840000Y-135875000D02*
X127840000Y-134860000D01*
X127960000Y-134740000D02*
X130210000Y-134740000D01*
X127840000Y-134860000D02*
X127960000Y-134740000D01*
X73545000Y-107250000D02*
X74980000Y-107250000D01*
X74980000Y-107250000D02*
X75240000Y-107510000D01*
D62*
X126350000Y-117650000D02*
X125600000Y-117650000D01*
X124181200Y-119068800D02*
X123300000Y-119068800D01*
X125600000Y-117650000D02*
X124181200Y-119068800D01*
X126350000Y-115105000D02*
X126350000Y-117650000D01*
X127768800Y-119068800D02*
X130800000Y-119068800D01*
X126350000Y-117650000D02*
X127768800Y-119068800D01*
X130800000Y-115150000D02*
X129310200Y-115150000D01*
X129310200Y-115150000D02*
X126395000Y-115150000D01*
X126395000Y-115150000D02*
X126350000Y-115105000D01*
X126350000Y-113835000D02*
X126350000Y-114500000D01*
X126350000Y-114500000D02*
X126350000Y-115105000D01*
D60*
X97620000Y-138820000D02*
X98560000Y-138820000D01*
X98560000Y-138820000D02*
X98845000Y-138535000D01*
X98845000Y-138535000D02*
X99670000Y-137710000D01*
X102850000Y-136890000D02*
X103440000Y-136890000D01*
X103440000Y-136890000D02*
X104390000Y-137840000D01*
X105000000Y-138450000D02*
X105000000Y-139310000D01*
X104390000Y-137840000D02*
X105000000Y-138450000D01*
X102850000Y-135755000D02*
X102850000Y-136890000D01*
X102850000Y-136890000D02*
X102840000Y-136900000D01*
X57547500Y-140047500D02*
X57500000Y-140000000D01*
X61050000Y-140047500D02*
X57547500Y-140047500D01*
X106624700Y-125500000D02*
X106624700Y-124924100D01*
X108000000Y-125500000D02*
X106624700Y-125500000D01*
X130800000Y-119931400D02*
X130800000Y-119068800D01*
X126350000Y-115105000D02*
X127062700Y-115105000D01*
X92223300Y-118163300D02*
X92733800Y-118163300D01*
X91910000Y-117850000D02*
X92223300Y-118163300D01*
X127840000Y-138365000D02*
X128340000Y-138365000D01*
X128650000Y-139673700D02*
X128340000Y-138365000D01*
X101190000Y-115450000D02*
X103580000Y-115450000D01*
X103580000Y-115450000D02*
X104050000Y-115920000D01*
D61*
X61600000Y-108405000D02*
X61195000Y-108405000D01*
X61195000Y-108405000D02*
X59725000Y-109875000D01*
X59725000Y-109875000D02*
X59725000Y-111100000D01*
X55750000Y-112900000D02*
X55750000Y-115100000D01*
X55750000Y-115100000D02*
X54450000Y-116400000D01*
X55750000Y-112900000D02*
X58950000Y-112900000D01*
X58950000Y-112900000D02*
X59000000Y-112950000D01*
X59725000Y-111100000D02*
X59725000Y-112225000D01*
X59725000Y-112225000D02*
X59000000Y-112950000D01*
D60*
X55750000Y-115100000D02*
X54450000Y-116400000D01*
X61600000Y-108405000D02*
X61095000Y-108405000D01*
X58950000Y-112900000D02*
X59000000Y-112950000D01*
X55800000Y-112950000D02*
X55750000Y-112900000D01*
X63100000Y-145850000D02*
X63100000Y-146700000D01*
X59000000Y-147000000D02*
X58000000Y-147000000D01*
X62800000Y-147000000D02*
X59000000Y-147000000D01*
X63100000Y-146700000D02*
X62800000Y-147000000D01*
X62450000Y-145850000D02*
X62450000Y-145050000D01*
X66400000Y-144600000D02*
X67800000Y-146000000D01*
X62900000Y-144600000D02*
X66400000Y-144600000D01*
X62450000Y-145050000D02*
X62900000Y-144600000D01*
D58*
X99670000Y-136010000D02*
X84350000Y-136010000D01*
X83970000Y-135630000D02*
X83970000Y-134290000D01*
X84350000Y-136010000D02*
X83970000Y-135630000D01*
X101850000Y-135755000D02*
X99925000Y-135755000D01*
X99925000Y-135755000D02*
X99670000Y-136010000D01*
X127340000Y-135875000D02*
X127340000Y-134790000D01*
X127340000Y-134790000D02*
X126840000Y-134290000D01*
D60*
X105046655Y-131429745D02*
X105046655Y-131429255D01*
X107309745Y-131429745D02*
X105046655Y-131429745D01*
X108220000Y-132340000D02*
X107309745Y-131429745D01*
X97371600Y-130332200D02*
X103949600Y-130332200D01*
X103949600Y-130332200D02*
X105046655Y-131429255D01*
X105046655Y-131429255D02*
X105046900Y-131429500D01*
D58*
X126840000Y-135875000D02*
X126840000Y-135650000D01*
X126840000Y-135650000D02*
X124130000Y-132940000D01*
D60*
X105136555Y-132227245D02*
X105136555Y-132226755D01*
X106747245Y-132227245D02*
X105136555Y-132227245D01*
X107580000Y-133060000D02*
X106747245Y-132227245D01*
X86259700Y-131111300D02*
X104021100Y-131111300D01*
X85921500Y-130773100D02*
X86259700Y-131111300D01*
X104021100Y-131111300D02*
X105136555Y-132226755D01*
X105136555Y-132226755D02*
X105136800Y-132227000D01*
X91180000Y-134360000D02*
X90070000Y-134360000D01*
X99190001Y-133839999D02*
X98860000Y-134170000D01*
X98860000Y-134170000D02*
X94110000Y-134170000D01*
X94110000Y-134170000D02*
X93920000Y-134360000D01*
X93920000Y-134360000D02*
X91180000Y-134360000D01*
X99639999Y-133839999D02*
X103550001Y-133839999D01*
X103576800Y-133813200D02*
X110582300Y-140818700D01*
X110582300Y-140818700D02*
X110582300Y-147789700D01*
X110582300Y-147789700D02*
X111268200Y-148475600D01*
X111268200Y-148475600D02*
X116199700Y-148475600D01*
X116199700Y-148475600D02*
X120300000Y-144375300D01*
X120300000Y-144375300D02*
X120300000Y-143000000D01*
X103550001Y-133839999D02*
X103576800Y-133813200D01*
X99639999Y-133839999D02*
X99190001Y-133839999D01*
X90070000Y-134360000D02*
X90050000Y-134380000D01*
X116300000Y-143000000D02*
X116300000Y-139020000D01*
X116300000Y-139020000D02*
X114018555Y-136738555D01*
X114018555Y-136738555D02*
X114018555Y-136678555D01*
X114018555Y-136678555D02*
X107959800Y-130619800D01*
X105194800Y-130619800D02*
X107959800Y-130619800D01*
X104225100Y-129650100D02*
X105194800Y-130619800D01*
X89627200Y-129650100D02*
X104225100Y-129650100D01*
X89147600Y-130129700D02*
X89627200Y-129650100D01*
X106099145Y-133389145D02*
X106119145Y-133389145D01*
X114040000Y-144030000D02*
X114885600Y-144875600D01*
X114040000Y-141310000D02*
X114040000Y-144030000D01*
X106119145Y-133389145D02*
X114040000Y-141310000D01*
X105590855Y-133389145D02*
X105590855Y-133388900D01*
X106099145Y-133389145D02*
X105590855Y-133389145D01*
X95200000Y-131712000D02*
X91588000Y-131712000D01*
X91588000Y-131712000D02*
X89020000Y-134280000D01*
X87741400Y-134280000D02*
X87389500Y-133928100D01*
X89020000Y-134280000D02*
X87741400Y-134280000D01*
X103914200Y-131712000D02*
X95200000Y-131712000D01*
X117300000Y-144375300D02*
X116799700Y-144875600D01*
X116799700Y-144875600D02*
X114885600Y-144875600D01*
X117300000Y-144375300D02*
X117300000Y-143000000D01*
X105590855Y-133388900D02*
X105591100Y-133388900D01*
X105591100Y-133388900D02*
X103914200Y-131712000D01*
X111242300Y-139747700D02*
X111242300Y-139806100D01*
X111242300Y-139752300D02*
X111242300Y-139747700D01*
X111940000Y-140450000D02*
X111242300Y-139752300D01*
X103947300Y-132452700D02*
X96652700Y-132452700D01*
X96652700Y-132452700D02*
X96600000Y-132400000D01*
X111242300Y-139806100D02*
X111300700Y-139806100D01*
X111300700Y-139806100D02*
X103947300Y-132452700D01*
X123300000Y-143000000D02*
X123300000Y-144502900D01*
X123300000Y-144502900D02*
X123241800Y-144561100D01*
X103473100Y-134417200D02*
X99482800Y-134417200D01*
X103473100Y-134417200D02*
X109832100Y-140776200D01*
X109832100Y-140776200D02*
X109832100Y-147805400D01*
X109832100Y-147805400D02*
X111031900Y-149005200D01*
X111031900Y-149005200D02*
X117670100Y-149005200D01*
X117670100Y-149005200D02*
X122300000Y-144375300D01*
X122300000Y-143000000D02*
X122300000Y-144375300D01*
X98830000Y-135070000D02*
X93780000Y-135070000D01*
X99482800Y-134417200D02*
X98830000Y-135070000D01*
X98596100Y-133203900D02*
X99223900Y-133203900D01*
X98500000Y-133300000D02*
X98596100Y-133203900D01*
X99376100Y-133203900D02*
X99223900Y-133203900D01*
X103686100Y-133203900D02*
X99376100Y-133203900D01*
X119300000Y-143000000D02*
X119300000Y-144375300D01*
X111082700Y-140600500D02*
X103686100Y-133203900D01*
X111082700Y-147582400D02*
X111082700Y-140600500D01*
X111475600Y-147975300D02*
X111082700Y-147582400D01*
X115700000Y-147975300D02*
X111475600Y-147975300D01*
X119300000Y-144375300D02*
X115700000Y-147975300D01*
X99376100Y-133203900D02*
X99370000Y-133210000D01*
X84810000Y-128580000D02*
X83870000Y-128580000D01*
X77620000Y-134830000D02*
X77620000Y-135120000D01*
X83870000Y-128580000D02*
X77620000Y-134830000D01*
X108000000Y-128750000D02*
X105350000Y-128750000D01*
X105180000Y-128580000D02*
X84810000Y-128580000D01*
X105350000Y-128750000D02*
X105180000Y-128580000D01*
D58*
X102350000Y-136830000D02*
X97910000Y-136830000D01*
X97910000Y-136830000D02*
X97620000Y-137120000D01*
X97620000Y-137120000D02*
X84140000Y-137120000D01*
X84140000Y-137120000D02*
X83200000Y-136180000D01*
X83200000Y-136180000D02*
X83200000Y-134000000D01*
X102350000Y-135755000D02*
X102350000Y-136830000D01*
X102350000Y-136830000D02*
X102350000Y-136840000D01*
D60*
X83200000Y-134000000D02*
X83200000Y-134330000D01*
X90500000Y-143000000D02*
X90500000Y-142050000D01*
X90500000Y-142050000D02*
X89830000Y-141380000D01*
X80870000Y-141380000D02*
X79920000Y-140430000D01*
X89830000Y-141380000D02*
X80870000Y-141380000D01*
X90510000Y-142990000D02*
X90500000Y-143000000D01*
X74832698Y-135380000D02*
X74870000Y-135380000D01*
X74870000Y-135380000D02*
X79920000Y-140430000D01*
X74370000Y-134460000D02*
X74370000Y-134917302D01*
X74370000Y-134917302D02*
X74832698Y-135380000D01*
X105030000Y-129400000D02*
X104710002Y-129080002D01*
X104710002Y-129080002D02*
X85529998Y-129080002D01*
X85529998Y-129080002D02*
X80670000Y-133940000D01*
X108000000Y-129400000D02*
X105030000Y-129400000D01*
X93500000Y-143000000D02*
X93500000Y-141570000D01*
X76775950Y-133945950D02*
X76775950Y-135654050D01*
X76730000Y-133900000D02*
X76775950Y-133945950D01*
X76775950Y-135654050D02*
X79935950Y-138814050D01*
X79954050Y-138814050D02*
X81020000Y-139880000D01*
X81020000Y-139880000D02*
X91540000Y-139880000D01*
X79935950Y-138814050D02*
X79954050Y-138814050D01*
X91780000Y-139880000D02*
X91540000Y-139880000D01*
X91800000Y-139860000D02*
X91780000Y-139880000D01*
X93500000Y-141570000D02*
X93330000Y-141400000D01*
X94500000Y-143000000D02*
X94500000Y-141470000D01*
X79920000Y-139600000D02*
X79910000Y-139600000D01*
X80910000Y-140590000D02*
X79920000Y-139600000D01*
X93620000Y-140590000D02*
X80910000Y-140590000D01*
X94500000Y-141470000D02*
X93620000Y-140590000D01*
X78800000Y-138490000D02*
X79910000Y-139600000D01*
X75950000Y-135640000D02*
X75950000Y-134410000D01*
X75950000Y-134410000D02*
X75970000Y-134390000D01*
X78800000Y-138490000D02*
X75950000Y-135640000D01*
X94370000Y-142870000D02*
X94500000Y-143000000D01*
X91500000Y-144390000D02*
X91500000Y-144910000D01*
X91040000Y-145370000D02*
X90550000Y-145370000D01*
X91500000Y-144910000D02*
X91040000Y-145370000D01*
X86890000Y-142350000D02*
X80970000Y-142350000D01*
X89910000Y-145370000D02*
X86890000Y-142350000D01*
X90550000Y-145370000D02*
X90510000Y-145370000D01*
X90510000Y-145370000D02*
X89910000Y-145370000D01*
X80960000Y-142370000D02*
X80960000Y-142340000D01*
X80960000Y-142360000D02*
X80960000Y-142370000D01*
X80970000Y-142350000D02*
X80960000Y-142360000D01*
X73530000Y-134130000D02*
X73530000Y-134910000D01*
X73530000Y-134910000D02*
X80960000Y-142340000D01*
X91500000Y-143000000D02*
X91500000Y-144390000D01*
X72050000Y-134200000D02*
X72050000Y-134353998D01*
X85671600Y-147975598D02*
X85671600Y-147975300D01*
X72050000Y-134353998D02*
X85671600Y-147975598D01*
X96500000Y-143000000D02*
X96500000Y-144375300D01*
X85671600Y-147975300D02*
X92900000Y-147975300D01*
X92900000Y-147975300D02*
X96500000Y-144375300D01*
X85671600Y-147975300D02*
X85671600Y-147975300D01*
X97500000Y-143000000D02*
X97500000Y-144375300D01*
X93399700Y-148475600D02*
X97500000Y-144375300D01*
X85363100Y-148475600D02*
X93399700Y-148475600D01*
X71079800Y-134192300D02*
X85363100Y-148475600D01*
X71079800Y-134088900D02*
X71079800Y-134192300D01*
X59360000Y-97800000D02*
X59350000Y-97800000D01*
X59350000Y-97800000D02*
X59010000Y-98140000D01*
X56330000Y-97800000D02*
X57160000Y-98630000D01*
X58520000Y-98630000D02*
X59010000Y-98140000D01*
X57160000Y-98630000D02*
X58520000Y-98630000D01*
X62800000Y-97800000D02*
X59360000Y-97800000D01*
X62800000Y-97800000D02*
X64000000Y-99000000D01*
X56330000Y-97800000D02*
X55630000Y-97100000D01*
X64900000Y-134000000D02*
X63000000Y-134000000D01*
X52600000Y-97100000D02*
X55630000Y-97100000D01*
X51000000Y-98700000D02*
X52600000Y-97100000D01*
X51000000Y-101600000D02*
X51000000Y-98700000D01*
X51800000Y-102400000D02*
X51000000Y-101600000D01*
X51800000Y-102900000D02*
X51800000Y-102400000D01*
X64900000Y-135450000D02*
X64900000Y-134000000D01*
X64900000Y-134000000D02*
X64600000Y-134000000D01*
X64800000Y-112900000D02*
X64800000Y-105500000D01*
X62975300Y-137600000D02*
X62975300Y-137575300D01*
X61600000Y-136200000D02*
X61600000Y-134400000D01*
X62975300Y-137575300D02*
X61600000Y-136200000D01*
X61600000Y-134400000D02*
X61600000Y-116100000D01*
X61050000Y-140682500D02*
X62975300Y-140682500D01*
X62975300Y-140682500D02*
X63000000Y-140657800D01*
X61600000Y-116100000D02*
X64800000Y-112900000D01*
X62975300Y-140682500D02*
X62975300Y-137600000D01*
X61050000Y-138777500D02*
X61050000Y-115850000D01*
X64000000Y-112900000D02*
X64000000Y-105000000D01*
X61050000Y-115850000D02*
X64000000Y-112900000D01*
X64000000Y-105000000D02*
X66100000Y-102900000D01*
X66100000Y-102900000D02*
X66200000Y-102800000D01*
X70200000Y-102800000D02*
X72000000Y-101000000D01*
X66200000Y-102800000D02*
X70200000Y-102800000D01*
D58*
X104800000Y-110887500D02*
X104437500Y-110887500D01*
X99080000Y-115220000D02*
X99080000Y-115900000D01*
X101950002Y-112349998D02*
X99080000Y-115220000D01*
X102975002Y-112349998D02*
X101950002Y-112349998D01*
X104437500Y-110887500D02*
X102975002Y-112349998D01*
X90350000Y-116290000D02*
X90350000Y-115000000D01*
X90300000Y-115100000D02*
X90300000Y-115000000D01*
X90300000Y-115050000D02*
X90300000Y-115100000D01*
X90350000Y-115000000D02*
X90300000Y-115050000D01*
X99610000Y-115900000D02*
X99080000Y-115900000D01*
X99080000Y-115900000D02*
X98500000Y-115900000D01*
X97600000Y-115000000D02*
X90300000Y-115000000D01*
X90300000Y-115000000D02*
X83700000Y-115000000D01*
X98500000Y-115900000D02*
X98300000Y-115700000D01*
X98300000Y-115700000D02*
X97600000Y-115000000D01*
X75400000Y-106700000D02*
X83700000Y-115000000D01*
X73545000Y-106750000D02*
X75450000Y-106750000D01*
X75400000Y-106800000D02*
X75400000Y-106700000D01*
X75450000Y-106750000D02*
X75400000Y-106800000D01*
X75300000Y-106600000D02*
X75400000Y-106700000D01*
X75300000Y-106300000D02*
X75300000Y-106600000D01*
X75300000Y-102499300D02*
X74000000Y-101199300D01*
X75300000Y-106300000D02*
X75300000Y-102499300D01*
X74000000Y-101199300D02*
X74000000Y-101000000D01*
D60*
X74000000Y-101199300D02*
X74000000Y-101000000D01*
D58*
X105300000Y-111400000D02*
X105300000Y-112360000D01*
X104910000Y-112750000D02*
X102180000Y-112750000D01*
X105300000Y-112360000D02*
X104910000Y-112750000D01*
X100175000Y-115110000D02*
X100175000Y-114755000D01*
X100175000Y-114755000D02*
X102180000Y-112750000D01*
X100175000Y-115615000D02*
X100175000Y-115110000D01*
X100280000Y-115720000D02*
X100175000Y-115615000D01*
X73545000Y-106250000D02*
X72700000Y-106250000D01*
X90900000Y-117120000D02*
X90900000Y-116375000D01*
X90730000Y-117290000D02*
X90900000Y-117120000D01*
X73250000Y-108700000D02*
X78460000Y-113910000D01*
X73110000Y-108700000D02*
X73250000Y-108700000D01*
X72350000Y-107940000D02*
X73110000Y-108700000D01*
X72350000Y-106600000D02*
X72350000Y-107940000D01*
X72700000Y-106250000D02*
X72350000Y-106600000D01*
X73545000Y-106250000D02*
X73545000Y-106055000D01*
X73545000Y-106055000D02*
X73600000Y-106000000D01*
D60*
X70285000Y-114025000D02*
X70285000Y-114485000D01*
X70285000Y-114485000D02*
X70300000Y-114500000D01*
X95170000Y-112330000D02*
X97160000Y-114320000D01*
X82000000Y-98770000D02*
X80400000Y-97170000D01*
X80400000Y-97170000D02*
X58710000Y-97170000D01*
X58710000Y-97170000D02*
X58120000Y-97760000D01*
X83220000Y-112240000D02*
X95170000Y-112240000D01*
X80160000Y-109180000D02*
X83220000Y-112240000D01*
X95170000Y-112240000D02*
X95170000Y-112330000D01*
X98080000Y-116350000D02*
X99610000Y-116350000D01*
X97530000Y-115800000D02*
X98080000Y-116350000D01*
X82000000Y-99000000D02*
X82000000Y-98770000D01*
D59*
X69158000Y-117100000D02*
X69158000Y-117958000D01*
X69158000Y-117958000D02*
X69200000Y-118000000D01*
D60*
X105700000Y-96800000D02*
X109900000Y-101000000D01*
X109900000Y-101900000D02*
X109900000Y-101000000D01*
X106800000Y-107500000D02*
X109900000Y-104400000D01*
X109900000Y-104400000D02*
X109900000Y-101900000D01*
X105700000Y-96800000D02*
X86200000Y-96800000D01*
X86200000Y-96800000D02*
X84000000Y-99000000D01*
X104600000Y-107500000D02*
X106800000Y-107500000D01*
X106800000Y-107500000D02*
X106900000Y-107500000D01*
X100200000Y-111900000D02*
X104600000Y-107500000D01*
X91450000Y-116290000D02*
X91450000Y-116250000D01*
X91450000Y-116250000D02*
X92000000Y-115700000D01*
X84000000Y-99000000D02*
X86049700Y-96950300D01*
X109080000Y-102850000D02*
X109080000Y-104100000D01*
X107780000Y-107430000D02*
X107780000Y-108780000D01*
X110030000Y-105180000D02*
X107780000Y-107430000D01*
X109080000Y-104100000D02*
X109140000Y-104160000D01*
X100420000Y-97290000D02*
X103520000Y-97290000D01*
X87440000Y-97290000D02*
X100420000Y-97290000D01*
X86000000Y-98730000D02*
X87440000Y-97290000D01*
X109080000Y-102850000D02*
X109110000Y-102850000D01*
X103520000Y-97290000D02*
X109080000Y-102850000D01*
X86000000Y-99000000D02*
X86000000Y-98730000D01*
X86000000Y-99000000D02*
X86080000Y-99000000D01*
X86000000Y-99000000D02*
X86000000Y-99300000D01*
X86000000Y-99000000D02*
X86000000Y-99090000D01*
X106300000Y-110887500D02*
X107092500Y-110887500D01*
X107092500Y-110887500D02*
X107780000Y-110200000D01*
X107780000Y-110200000D02*
X107780000Y-108780000D01*
X99782600Y-100271200D02*
X99782600Y-100499900D01*
X100623300Y-99430500D02*
X99782600Y-100271200D01*
X98160000Y-106280000D02*
X98120000Y-106280000D01*
X98120000Y-106280000D02*
X96470000Y-104630000D01*
X102380000Y-106280000D02*
X98160000Y-106280000D01*
X102520000Y-106140000D02*
X102380000Y-106280000D01*
X108000000Y-127450000D02*
X109375300Y-127450000D01*
X109375300Y-125147400D02*
X109375300Y-127450000D01*
X107803200Y-123575300D02*
X109375300Y-125147400D01*
X101455600Y-123575300D02*
X107803200Y-123575300D01*
X106400000Y-104200000D02*
X104907100Y-104200000D01*
X104254000Y-102707100D02*
X96701200Y-102707100D01*
X104907100Y-103360200D02*
X104254000Y-102707100D01*
X104907100Y-104200000D02*
X104907100Y-103360200D01*
X101130000Y-97830000D02*
X101770000Y-97830000D01*
X92000000Y-99000000D02*
X93170000Y-97830000D01*
X93170000Y-97830000D02*
X101130000Y-97830000D01*
X101770000Y-97830000D02*
X104020000Y-100080000D01*
X108000000Y-128100000D02*
X106427000Y-128100000D01*
X106427000Y-128100000D02*
X106059000Y-127732000D01*
X83400000Y-105350000D02*
X83400000Y-106750700D01*
X87600000Y-108200000D02*
X83449300Y-108200000D01*
X83449300Y-108200000D02*
X83400000Y-108249300D01*
X111100000Y-97450700D02*
X108983500Y-97450700D01*
X116100000Y-97450700D02*
X115325900Y-97450700D01*
X115325900Y-98024100D02*
X115184400Y-98165600D01*
X115325900Y-97450700D02*
X115325900Y-98024100D01*
X121900000Y-97550700D02*
X119416800Y-97550700D01*
X75349300Y-145300000D02*
X77650000Y-145300000D01*
X73850700Y-145300000D02*
X73850700Y-143750700D01*
X69512500Y-139412500D02*
X64950000Y-139412500D01*
X73850700Y-143750700D02*
X69512500Y-139412500D01*
X73850700Y-145300000D02*
X73950000Y-145250000D01*
X77650000Y-148600000D02*
X75349300Y-148600000D01*
X72600000Y-143400000D02*
X72600000Y-147349300D01*
X69247500Y-140047500D02*
X72600000Y-143400000D01*
X64950000Y-140047500D02*
X69247500Y-140047500D01*
X72600000Y-147349300D02*
X73850700Y-148600000D01*
X125924600Y-139615300D02*
X125924600Y-140724600D01*
X113400000Y-129400000D02*
X115709300Y-129400000D01*
X115709300Y-129400000D02*
X125924600Y-139615300D01*
X126300000Y-141100000D02*
X126300000Y-143000000D01*
X125924600Y-140724600D02*
X126300000Y-141100000D01*
D59*
X127340000Y-138365000D02*
X127340000Y-142960000D01*
X127340000Y-142960000D02*
X127300000Y-143000000D01*
X127300000Y-143000000D02*
X127300000Y-144250000D01*
X127300000Y-144250000D02*
X127310000Y-144260000D01*
X127280000Y-142980000D02*
X127300000Y-143000000D01*
X128300000Y-141300000D02*
X128300000Y-143000000D01*
X128280000Y-141280000D02*
X128300000Y-141300000D01*
X126840000Y-138365000D02*
X126840000Y-139950000D01*
X126840000Y-139950000D02*
X126780000Y-140010000D01*
D60*
X125870000Y-145070000D02*
X130330000Y-145070000D01*
X130330000Y-145070000D02*
X130682500Y-144717500D01*
X125300000Y-144375300D02*
X125300000Y-144500000D01*
X130682500Y-144717500D02*
X130682500Y-143607500D01*
X125300000Y-144500000D02*
X125870000Y-145070000D01*
X130682500Y-143150000D02*
X130682500Y-143607500D01*
X121350000Y-133810000D02*
X120121200Y-132581200D01*
X120121200Y-132581200D02*
X120098800Y-132581200D01*
X130682500Y-143150000D02*
X130682500Y-140072500D01*
X130682500Y-140072500D02*
X130030000Y-139420000D01*
X125300000Y-143000000D02*
X125300000Y-144375300D01*
X115510900Y-127993300D02*
X120098800Y-132581200D01*
X120098800Y-132581200D02*
X120108600Y-132591000D01*
X113506700Y-127993300D02*
X115510900Y-127993300D01*
X113400000Y-128100000D02*
X113506700Y-127993300D01*
X113400000Y-128750000D02*
X112000000Y-128750000D01*
X100500000Y-141500000D02*
X100500000Y-143000000D01*
D59*
X102350000Y-138245000D02*
X102350000Y-140150000D01*
X101500000Y-141000000D02*
X101500000Y-143000000D01*
X102350000Y-140150000D02*
X101500000Y-141000000D01*
D60*
X101500000Y-143000000D02*
X101500000Y-144750000D01*
X101500000Y-142437400D02*
X101500000Y-143000000D01*
D59*
X101850000Y-138245000D02*
X101850000Y-139750000D01*
X101850000Y-139750000D02*
X101800000Y-139800000D01*
X102700000Y-141400000D02*
X102500000Y-141600000D01*
X102500000Y-141600000D02*
X102500000Y-143000000D01*
D60*
X112050000Y-127450000D02*
X112000000Y-127500000D01*
X113400000Y-127450000D02*
X112050000Y-127450000D01*
X99500000Y-141500000D02*
X99500000Y-143000000D01*
X79900000Y-124870000D02*
X79900000Y-125200000D01*
X79900000Y-125200000D02*
X79900000Y-125530000D01*
X79024700Y-125100000D02*
X79124700Y-125200000D01*
X73700000Y-125100000D02*
X79024700Y-125100000D01*
X79900000Y-125200000D02*
X79124700Y-125200000D01*
X88550000Y-106200000D02*
X89515200Y-106200000D01*
D59*
X70900000Y-116350000D02*
X70850000Y-116350000D01*
X70285000Y-112885000D02*
X70285000Y-112575000D01*
X71900000Y-114400000D02*
X70700000Y-115600000D01*
X71900000Y-113600000D02*
X71900000Y-114400000D01*
X71500000Y-113200000D02*
X71900000Y-113600000D01*
X70600000Y-113200000D02*
X71500000Y-113200000D01*
X70285000Y-112885000D02*
X70600000Y-113200000D01*
X70700000Y-116200000D02*
X70700000Y-115600000D01*
X70850000Y-116350000D02*
X70700000Y-116200000D01*
X70150000Y-117100000D02*
X70900000Y-116350000D01*
X70900000Y-116350000D02*
X80900000Y-116350000D01*
X70285000Y-112575000D02*
X70285000Y-109485000D01*
X70285000Y-109485000D02*
X69000000Y-108200000D01*
X69000000Y-108200000D02*
X69000000Y-106800000D01*
X69000000Y-106800000D02*
X69000000Y-106750000D01*
X69000000Y-106750000D02*
X69000000Y-106800000D01*
X69000000Y-106800000D02*
X69000000Y-106750000D01*
X71055000Y-106750000D02*
X69000000Y-106750000D01*
X69000000Y-106750000D02*
X67385000Y-106750000D01*
X67385000Y-106750000D02*
X67000000Y-107135000D01*
X67800000Y-114800000D02*
X68200000Y-115200000D01*
X70100000Y-115200000D02*
X70350000Y-115450000D01*
X68200000Y-115200000D02*
X70100000Y-115200000D01*
X67000000Y-105865000D02*
X66735000Y-105865000D01*
X66735000Y-105865000D02*
X65700000Y-106900000D01*
X67500000Y-114500000D02*
X67800000Y-114800000D01*
X67500000Y-111000000D02*
X67500000Y-114500000D01*
X65700000Y-109200000D02*
X67500000Y-111000000D01*
X65700000Y-107700000D02*
X65700000Y-109200000D01*
X65700000Y-106900000D02*
X65700000Y-107700000D01*
X69650000Y-117100000D02*
X69650000Y-116150000D01*
X69650000Y-116150000D02*
X69700000Y-116100000D01*
X70350000Y-115450000D02*
X69700000Y-116100000D01*
X71255000Y-114545000D02*
X71000000Y-114800000D01*
X71000000Y-114800000D02*
X70350000Y-115450000D01*
X71255000Y-114545000D02*
X71255000Y-114025000D01*
X80850000Y-117950000D02*
X81400000Y-117400000D01*
X69950000Y-117950000D02*
X69650000Y-117650000D01*
X69650000Y-117100000D02*
X69650000Y-117650000D01*
X81400000Y-117400000D02*
X81400000Y-116350000D01*
X69950000Y-117950000D02*
X80850000Y-117950000D01*
X71055000Y-106250000D02*
X67385000Y-106250000D01*
X67385000Y-106250000D02*
X67000000Y-105865000D01*
X73600000Y-104450000D02*
X73600000Y-104500000D01*
X73600000Y-104500000D02*
X71850000Y-106250000D01*
X71850000Y-106250000D02*
X71055000Y-106250000D01*
D60*
X106542300Y-126717600D02*
X105459400Y-126717600D01*
X106624700Y-126800000D02*
X106542300Y-126717600D01*
X108000000Y-126800000D02*
X106624700Y-126800000D01*
X95600000Y-105450000D02*
X95600000Y-106110000D01*
X95600000Y-106110000D02*
X95930000Y-106440000D01*
X58700000Y-139400000D02*
X57492900Y-138800000D01*
X61050000Y-139412500D02*
X58700000Y-139400000D01*
X54500000Y-138800000D02*
X57492900Y-138800000D01*
X103350000Y-139170000D02*
X103350000Y-138245000D01*
X103170000Y-139350000D02*
X103350000Y-139170000D01*
X103350000Y-138810100D02*
X103350000Y-138745000D01*
X103350000Y-138245000D02*
X103350000Y-138745000D01*
X71055000Y-107250000D02*
X71055000Y-107750000D01*
X71055000Y-107750000D02*
X71055000Y-108812000D01*
X70489900Y-107750000D02*
X70555000Y-107750000D01*
X71055000Y-108812000D02*
X71044600Y-108812000D01*
X71055000Y-107750000D02*
X70555000Y-107750000D01*
X91650000Y-117300000D02*
X92845700Y-117300000D01*
X58100000Y-105300000D02*
X56900000Y-105300000D01*
X59690300Y-105865000D02*
X59125300Y-105300000D01*
X61600000Y-105865000D02*
X59690300Y-105865000D01*
X58612700Y-105300000D02*
X59125300Y-105300000D01*
X58612700Y-105300000D02*
X58100000Y-105300000D01*
X56800000Y-108500000D02*
X58100000Y-108500000D01*
X60324700Y-107300600D02*
X59125300Y-108500000D01*
X60324700Y-107135000D02*
X60324700Y-107300600D01*
X61600000Y-107135000D02*
X60324700Y-107135000D01*
X58612700Y-108500000D02*
X59125300Y-108500000D01*
X58612700Y-108500000D02*
X58100000Y-108500000D01*
X89100000Y-125600000D02*
X89973100Y-125600000D01*
X64950000Y-143222500D02*
X67977500Y-143222500D01*
X67977500Y-143222500D02*
X68000000Y-143200000D01*
X59300000Y-143600000D02*
X59677500Y-143222500D01*
X58500000Y-143600000D02*
X59300000Y-143600000D01*
X59677500Y-143222500D02*
X61050000Y-143222500D01*
X106500500Y-126025800D02*
X104924200Y-126025800D01*
X106624700Y-126150000D02*
X106500500Y-126025800D01*
X108000000Y-126150000D02*
X106624700Y-126150000D01*
X54600000Y-141600000D02*
X56100000Y-141600000D01*
X58352500Y-141952500D02*
X58000000Y-141600000D01*
X58000000Y-141600000D02*
X56100000Y-141600000D01*
X58352500Y-141952500D02*
X61050000Y-141952500D01*
X51700000Y-139550000D02*
X51700000Y-139900000D01*
X51700000Y-139900000D02*
X54600000Y-141600000D01*
X61050000Y-142587500D02*
X57587500Y-142587500D01*
X57587500Y-142587500D02*
X57500000Y-142500000D01*
X64900000Y-137150000D02*
X64900000Y-138727500D01*
X64900000Y-138727500D02*
X64950000Y-138777500D01*
X90900000Y-118225000D02*
X90435000Y-118225000D01*
X90435000Y-118225000D02*
X90350000Y-118310000D01*
X68345000Y-114025000D02*
X69315000Y-114025000D01*
X82900000Y-120250000D02*
X84980000Y-120250000D01*
X88390000Y-123600000D02*
X89100000Y-123600000D01*
X88360000Y-123570000D02*
X88390000Y-123600000D01*
X84980000Y-120250000D02*
X86210000Y-121480000D01*
X82400000Y-120250000D02*
X82400000Y-121550000D01*
X79400000Y-123430000D02*
X79400000Y-124275000D01*
X80460000Y-122370000D02*
X79400000Y-123430000D01*
X81580000Y-122370000D02*
X80460000Y-122370000D01*
X82400000Y-121550000D02*
X81580000Y-122370000D01*
X64950000Y-142587500D02*
X67112500Y-142587500D01*
X67112500Y-142587500D02*
X67200000Y-142500000D01*
X64950000Y-141952500D02*
X66652500Y-141952500D01*
X66652500Y-141952500D02*
X67200000Y-142500000D01*
X64950000Y-141952500D02*
X65912700Y-141952500D01*
X65912700Y-142587500D02*
X64950000Y-142587500D01*
M02*
