%TF.GenerationSoftware,KiCad,Pcbnew,4.0.1-stable*%
%TF.CreationDate,2016-08-15T16:12:19+09:00*%
%TF.ProjectId,Shimonso-IoT-Type-R,5368696D6F6E736F2D496F542D547970,rev?*%
%TF.FileFunction,Copper,L2,Inr,Plane*%
%FSLAX46Y46*%
G04 Gerber Fmt 4.6, Leading zero omitted, Abs format (unit mm)*
G04 Created by KiCad (PCBNEW 4.0.1-stable) date 2016/08/15 16:12:19*
%MOMM*%
G01*
G04 APERTURE LIST*
%ADD10C,0.100000*%
%ADD11R,2.235200X2.235200*%
%ADD12O,0.890000X1.550000*%
%ADD13O,1.250000X0.950000*%
%ADD14C,1.600000*%
%ADD15C,0.600000*%
%ADD16C,0.200000*%
%ADD17C,0.350000*%
%ADD18C,0.254000*%
G04 APERTURE END LIST*
D10*
D11*
X56562000Y-8358000D03*
X53062000Y-8358000D03*
X49562000Y-8358000D03*
X76262000Y-4058000D03*
X2362000Y-52258000D03*
X4662000Y-42958000D03*
D12*
X16762000Y-52708000D03*
X9762000Y-52708000D03*
D13*
X15762000Y-50008000D03*
X10762000Y-50008000D03*
D14*
X10162000Y-5158000D03*
X10162000Y-3158000D03*
X12162000Y-5158000D03*
X12162000Y-3158000D03*
X14162000Y-5158000D03*
X14162000Y-3158000D03*
X16162000Y-5158000D03*
X16162000Y-3158000D03*
X18162000Y-5158000D03*
X18162000Y-3158000D03*
X20162000Y-5158000D03*
X20162000Y-3158000D03*
X22162000Y-5158000D03*
X22162000Y-3158000D03*
X24162000Y-5158000D03*
X24162000Y-3158000D03*
X26162000Y-5158000D03*
X26162000Y-3158000D03*
X28162000Y-5158000D03*
X28162000Y-3158000D03*
X30162000Y-5158000D03*
X30162000Y-3158000D03*
X32162000Y-5158000D03*
X32162000Y-3158000D03*
X34162000Y-5158000D03*
X34162000Y-3158000D03*
X36162000Y-5158000D03*
X36162000Y-3158000D03*
X38162000Y-5158000D03*
X38162000Y-3158000D03*
X40162000Y-5158000D03*
X40162000Y-3158000D03*
X42162000Y-5158000D03*
X42162000Y-3158000D03*
X44162000Y-5158000D03*
X44162000Y-3158000D03*
X46162000Y-5158000D03*
X46162000Y-3158000D03*
X48162000Y-5158000D03*
X48162000Y-3158000D03*
D15*
X31662000Y-31598000D03*
X19437000Y-15633000D03*
X33012000Y-42633000D03*
X30112000Y-42483000D03*
X41312000Y-38156000D03*
X43562000Y-38058000D03*
X19687000Y-24183000D03*
X80162000Y-29758000D03*
X72562000Y-29558000D03*
X53962000Y-39958000D03*
X37262000Y-27358000D03*
X55762000Y-12858000D03*
X54362000Y-15758000D03*
X43462000Y-20558000D03*
X41862000Y-23058000D03*
X23662000Y-12558000D03*
X39462000Y-22558000D03*
X14762000Y-33558000D03*
X16662000Y-25758000D03*
X56562000Y-20558000D03*
X60562000Y-14158000D03*
X73962000Y-13658000D03*
X74162000Y-20758000D03*
X60262000Y-27358000D03*
X34462000Y-22658000D03*
X42062000Y-31658000D03*
X43462000Y-27258000D03*
X58162000Y-46458000D03*
X58862000Y-41258000D03*
X19062000Y-52058000D03*
X22762000Y-44758000D03*
X4662000Y-8658000D03*
X13662000Y-18758000D03*
X23562000Y-18558000D03*
X23962000Y-13758000D03*
X29862000Y-10858000D03*
X41962000Y-12458000D03*
X46362000Y-24658000D03*
X46362000Y-21658000D03*
X72262000Y-40358000D03*
X83562000Y-45658000D03*
X83562000Y-39858000D03*
X66062000Y-24758000D03*
X65862000Y-26858000D03*
X38862000Y-47058000D03*
X1862000Y-41058000D03*
X17362000Y-44758000D03*
X9162000Y-45458000D03*
X10662000Y-30658000D03*
X17162000Y-8058000D03*
X36062000Y-10358000D03*
X42262000Y-8658000D03*
X56862000Y-16058000D03*
X78837000Y-40033000D03*
X64862000Y-46958000D03*
X63662000Y-34558000D03*
X58162000Y-34558000D03*
X63562000Y-30558000D03*
X74962000Y-8658000D03*
X75162000Y-16358000D03*
X67962000Y-15858000D03*
X66062000Y-8658000D03*
X2662000Y-16058000D03*
X62062000Y-3458000D03*
X67162000Y-3258000D03*
X22607500Y-34942000D03*
X26112000Y-42460000D03*
X24962000Y-34948000D03*
X32512000Y-34910000D03*
X30571600Y-34944000D03*
X28062000Y-34948000D03*
X40512000Y-42499000D03*
X42912000Y-42477000D03*
X37631000Y-42493000D03*
X38831600Y-38080000D03*
X36069600Y-42470000D03*
X36512000Y-34293000D03*
X74462000Y-48715000D03*
X68462000Y-48722000D03*
X71626000Y-48710000D03*
X48662000Y-48760000D03*
X42662000Y-48744000D03*
X45662000Y-48710000D03*
X7912300Y-52073000D03*
X9453900Y-48908000D03*
X18137900Y-45533000D03*
X30322000Y-31648000D03*
X39762000Y-26258000D03*
X79537000Y-48583000D03*
X53562000Y-49358000D03*
X30462000Y-24458000D03*
X32062000Y-21958000D03*
X23262000Y-7058000D03*
X21062000Y-7058000D03*
X17662000Y-23258000D03*
X13262000Y-15358000D03*
X17462000Y-16358000D03*
X22862000Y-16558000D03*
X29662000Y-48458000D03*
X35762000Y-26258000D03*
X58862000Y-43858000D03*
X63662000Y-29158000D03*
X63562000Y-25558000D03*
X80162000Y-44558000D03*
X72162000Y-43058000D03*
X65400000Y-5200000D03*
X76400000Y-12600000D03*
X45900000Y-7200000D03*
X34300000Y-7800000D03*
X58200000Y-4200000D03*
X66200000Y-19200000D03*
X66100000Y-11900000D03*
X71600000Y-20100000D03*
X71500000Y-12600000D03*
X75287000Y-23833000D03*
X27512000Y-23158000D03*
X28712000Y-18358000D03*
X57062000Y-13858000D03*
X54562000Y-13658000D03*
X51200000Y-24158000D03*
X51162000Y-27958000D03*
X55962000Y-16658000D03*
X55162000Y-42758000D03*
X49062000Y-42558000D03*
X52962000Y-38658000D03*
X8962000Y-44206000D03*
X23562000Y-20658000D03*
X26562000Y-11458000D03*
X28362000Y-14958000D03*
X51562000Y-29458000D03*
X57862000Y-28458000D03*
X42862000Y-17458000D03*
X42662000Y-22658000D03*
X70562000Y-5358000D03*
X81400000Y-38900000D03*
X75300000Y-34700000D03*
X76500000Y-20100000D03*
X76374000Y-41258000D03*
X53287000Y-20458000D03*
X11630400Y-51270000D03*
X17831800Y-49053000D03*
X35334700Y-38073000D03*
X50902000Y-36418000D03*
X52012000Y-38048000D03*
X45704000Y-43047000D03*
X68680000Y-44782000D03*
X78037000Y-38183000D03*
X37460300Y-33802000D03*
X71215000Y-28061000D03*
X74358000Y-38321000D03*
X36604400Y-38203000D03*
X39132300Y-33793000D03*
X50389000Y-33183000D03*
X66462000Y-48737000D03*
X37858700Y-38086000D03*
X49198800Y-37974000D03*
X57750000Y-47800000D03*
X52604000Y-49094000D03*
X48910800Y-39086000D03*
X42234000Y-38091000D03*
X40387000Y-38758000D03*
X39973200Y-34284000D03*
X56208000Y-28711000D03*
X69510000Y-45600000D03*
X31796000Y-42472000D03*
X47374000Y-40083000D03*
X26378500Y-45783000D03*
X52316000Y-33558000D03*
X26038800Y-34847000D03*
X36391100Y-46772000D03*
X34340300Y-42480000D03*
X26042400Y-38114000D03*
X41818400Y-45583000D03*
X22256500Y-43653000D03*
X22593500Y-38846000D03*
X8224200Y-7252000D03*
X6803300Y-7603000D03*
X7491500Y-1724300D03*
X9310000Y-38158000D03*
X20463800Y-48172000D03*
X14889400Y-8786000D03*
X13137300Y-42348000D03*
X26176700Y-14090000D03*
X51787000Y-17733000D03*
X47112000Y-19208000D03*
X29706900Y-14585000D03*
X26152400Y-16556000D03*
X41342000Y-24458000D03*
X16747500Y-17676000D03*
X25477300Y-13564000D03*
X24290800Y-22117000D03*
X41893800Y-19609000D03*
X50365000Y-3936200D03*
X58762000Y-11908000D03*
X52750000Y-4706000D03*
X45709500Y-12898000D03*
X48879800Y-12910000D03*
X55062000Y-31733000D03*
X49952100Y-12948000D03*
X56284000Y-4015100D03*
X60294000Y-32258000D03*
X59843000Y-1683200D03*
X65281000Y-1683200D03*
X69105000Y-1783700D03*
X76962000Y-49183000D03*
X76833000Y-44525000D03*
X65824000Y-32258000D03*
X71680000Y-44012000D03*
X66208000Y-52958000D03*
X60041000Y-35302000D03*
X50472000Y-44128000D03*
X51662000Y-50917000D03*
X49922000Y-43338000D03*
X55112000Y-48860000D03*
X59217000Y-45478000D03*
X55960000Y-36600000D03*
X39677200Y-10358000D03*
X20942000Y-15568000D03*
X21362000Y-21018000D03*
X18821800Y-11750000D03*
X18542000Y-20078000D03*
X18251700Y-15448000D03*
X56523000Y-30935000D03*
X47685100Y-9124000D03*
X48771000Y-10802000D03*
X47550600Y-12272000D03*
X6727500Y-43531000D03*
X54237000Y-43533000D03*
X19881500Y-11908000D03*
X42849000Y-23950000D03*
X6012000Y-10440000D03*
X6308200Y-13689000D03*
X40135100Y-29758000D03*
X18473400Y-47570000D03*
X9052400Y-47424000D03*
X54220000Y-30310000D03*
X8292600Y-46133000D03*
X6610300Y-44451000D03*
X8080900Y-47012000D03*
X20455300Y-46428000D03*
D16*
X54362000Y-15758000D02*
X52132000Y-15758000D01*
X46362000Y-21528000D02*
X46362000Y-21658000D01*
X52132000Y-15758000D02*
X46362000Y-21528000D01*
X31662000Y-31598000D02*
X32972000Y-31598000D01*
X32972000Y-31598000D02*
X34092000Y-30478000D01*
D17*
X19437000Y-15633000D02*
X19462000Y-15658000D01*
X33012000Y-42633000D02*
X33012000Y-42658000D01*
X30112000Y-42483000D02*
X30137000Y-42483000D01*
X41387000Y-38231000D02*
X41312000Y-38156000D01*
X41387000Y-38708000D02*
X41387000Y-38231000D01*
X41662000Y-38983000D02*
X41387000Y-38708000D01*
X42637000Y-38983000D02*
X41662000Y-38983000D01*
X43562000Y-38058000D02*
X42637000Y-38983000D01*
D16*
X19812000Y-24308000D02*
X19887000Y-24308000D01*
X19687000Y-24183000D02*
X19812000Y-24308000D01*
D17*
X79962000Y-29558000D02*
X72562000Y-29558000D01*
X80162000Y-29758000D02*
X79962000Y-29558000D01*
X74162000Y-27958000D02*
X74162000Y-20758000D01*
X72562000Y-29558000D02*
X74162000Y-27958000D01*
X55262000Y-41258000D02*
X58862000Y-41258000D01*
X53962000Y-39958000D02*
X55262000Y-41258000D01*
X43362000Y-27358000D02*
X43462000Y-27258000D01*
X37262000Y-27358000D02*
X43362000Y-27358000D01*
X34162000Y-30458000D02*
X37262000Y-27358000D01*
X55762000Y-12858000D02*
X55762000Y-15758000D01*
X55662000Y-15658000D02*
X55662000Y-15758000D01*
X55762000Y-15758000D02*
X55662000Y-15658000D01*
X45262000Y-20558000D02*
X46362000Y-21658000D01*
X43462000Y-20558000D02*
X45262000Y-20558000D01*
X41862000Y-22158000D02*
X43462000Y-20558000D01*
X41862000Y-23058000D02*
X41862000Y-22158000D01*
D16*
X23662000Y-12558000D02*
X23662000Y-12658000D01*
X39462000Y-22558000D02*
X39362000Y-22658000D01*
D17*
X11862000Y-30658000D02*
X14762000Y-33558000D01*
X10662000Y-30658000D02*
X11862000Y-30658000D01*
X16162000Y-25258000D02*
X16162000Y-25158000D01*
X16112000Y-25208000D02*
X16162000Y-25258000D01*
X56862000Y-20258000D02*
X56562000Y-20558000D01*
X56862000Y-16058000D02*
X56862000Y-20258000D01*
X60462000Y-14258000D02*
X60462000Y-16058000D01*
X60562000Y-14158000D02*
X60462000Y-14258000D01*
X74962000Y-13658000D02*
X73962000Y-13658000D01*
X75162000Y-19758000D02*
X75162000Y-16358000D01*
X74162000Y-20758000D02*
X75162000Y-19758000D01*
X60762000Y-26858000D02*
X65862000Y-26858000D01*
X60262000Y-27358000D02*
X60762000Y-26858000D01*
X42562000Y-27258000D02*
X38812000Y-23508000D01*
X43462000Y-27258000D02*
X42562000Y-27258000D01*
X37962000Y-22658000D02*
X34462000Y-22658000D01*
X38812000Y-23508000D02*
X37962000Y-22658000D01*
X43462000Y-30258000D02*
X43462000Y-27258000D01*
X42062000Y-31658000D02*
X43462000Y-30258000D01*
X46062000Y-24658000D02*
X43462000Y-27258000D01*
X46362000Y-24658000D02*
X46062000Y-24658000D01*
X58162000Y-46458000D02*
X58162000Y-47058000D01*
X59362000Y-40758000D02*
X58862000Y-41258000D01*
X63662000Y-40758000D02*
X59362000Y-40758000D01*
X18412000Y-52708000D02*
X16762000Y-52708000D01*
X19062000Y-52058000D02*
X18412000Y-52708000D01*
X2662000Y-10658000D02*
X4662000Y-8658000D01*
X2662000Y-16058000D02*
X2662000Y-10658000D01*
X8162000Y-5158000D02*
X10162000Y-5158000D01*
X4662000Y-8658000D02*
X8162000Y-5158000D01*
X13862000Y-18958000D02*
X19562000Y-18958000D01*
X13662000Y-18758000D02*
X13862000Y-18958000D01*
X23162000Y-18958000D02*
X23562000Y-18558000D01*
X19562000Y-18958000D02*
X23162000Y-18958000D01*
X23662000Y-13458000D02*
X23662000Y-12658000D01*
X23962000Y-13758000D02*
X23662000Y-13458000D01*
X41962000Y-8958000D02*
X42262000Y-8658000D01*
X41962000Y-12458000D02*
X41962000Y-8958000D01*
X46362000Y-16858000D02*
X41962000Y-12458000D01*
X46362000Y-21658000D02*
X46362000Y-16858000D01*
X46362000Y-24658000D02*
X46362000Y-21658000D01*
X72362000Y-40258000D02*
X72362000Y-34558000D01*
X72262000Y-40358000D02*
X72362000Y-40258000D01*
X83562000Y-39858000D02*
X83562000Y-45658000D01*
X83387000Y-40033000D02*
X78837000Y-40033000D01*
X83562000Y-39858000D02*
X83387000Y-40033000D01*
X65862000Y-24958000D02*
X65862000Y-26858000D01*
X66062000Y-24758000D02*
X65862000Y-24958000D01*
X66512000Y-27508000D02*
X66612000Y-27508000D01*
X65862000Y-26858000D02*
X66512000Y-27508000D01*
X2362000Y-41558000D02*
X2362000Y-52258000D01*
X1862000Y-41058000D02*
X2362000Y-41558000D01*
X16762000Y-52708000D02*
X9762000Y-52708000D01*
X17362000Y-48408000D02*
X15762000Y-50008000D01*
X17362000Y-44758000D02*
X17362000Y-48408000D01*
X16662000Y-45458000D02*
X9162000Y-45458000D01*
X17362000Y-44758000D02*
X16662000Y-45458000D01*
X10762000Y-47058000D02*
X9162000Y-45458000D01*
X10762000Y-50008000D02*
X10762000Y-47058000D01*
X19562000Y-14958000D02*
X21862000Y-12658000D01*
X19562000Y-18958000D02*
X19562000Y-14958000D01*
X13062000Y-8058000D02*
X10162000Y-5158000D01*
X17162000Y-8058000D02*
X13062000Y-8058000D01*
X23662000Y-12658000D02*
X21862000Y-12658000D01*
X21762000Y-12658000D02*
X17162000Y-8058000D01*
X21862000Y-12658000D02*
X21762000Y-12658000D01*
X37762000Y-8658000D02*
X36062000Y-10358000D01*
X42262000Y-8658000D02*
X37762000Y-8658000D01*
X45862000Y-8658000D02*
X42262000Y-8658000D01*
X48162000Y-6358000D02*
X45862000Y-8658000D01*
X48162000Y-5158000D02*
X48162000Y-6358000D01*
X63662000Y-30658000D02*
X63562000Y-30558000D01*
X63662000Y-34558000D02*
X63662000Y-30658000D01*
X58162000Y-34558000D02*
X63662000Y-34558000D01*
X76262000Y-7358000D02*
X74962000Y-8658000D01*
X76262000Y-4058000D02*
X76262000Y-7358000D01*
X67262000Y-9858000D02*
X66062000Y-8658000D01*
X67262000Y-15158000D02*
X67262000Y-9858000D01*
X67962000Y-15858000D02*
X67262000Y-15158000D01*
X2812000Y-52708000D02*
X2362000Y-52258000D01*
X9762000Y-52708000D02*
X2812000Y-52708000D01*
X15762000Y-51708000D02*
X16762000Y-52708000D01*
X15762000Y-50008000D02*
X15762000Y-51708000D01*
X10162000Y-8558000D02*
X2662000Y-16058000D01*
X10162000Y-5158000D02*
X10162000Y-8558000D01*
X10162000Y-3158000D02*
X10162000Y-5158000D01*
X61762000Y-3158000D02*
X62062000Y-3458000D01*
X48162000Y-3158000D02*
X61762000Y-3158000D01*
X48162000Y-3158000D02*
X48162000Y-5158000D01*
X56462000Y-15758000D02*
X55762000Y-15758000D01*
X56762000Y-16058000D02*
X56462000Y-15758000D01*
X56862000Y-16058000D02*
X56762000Y-16058000D01*
X39962000Y-23058000D02*
X39462000Y-22558000D01*
X41862000Y-23058000D02*
X39962000Y-23058000D01*
X39462000Y-22858000D02*
X38812000Y-23508000D01*
X39462000Y-22558000D02*
X39462000Y-22858000D01*
X10662000Y-30658000D02*
X16112000Y-25208000D01*
X74962000Y-8658000D02*
X74962000Y-13658000D01*
X64762000Y-47058000D02*
X64862000Y-46958000D01*
X58162000Y-47058000D02*
X64762000Y-47058000D01*
X17362000Y-44758000D02*
X22762000Y-44758000D01*
X36562000Y-44758000D02*
X38862000Y-47058000D01*
X22762000Y-44758000D02*
X36562000Y-44758000D01*
X30362000Y-10358000D02*
X29862000Y-10858000D01*
X36062000Y-10358000D02*
X30362000Y-10358000D01*
X28062000Y-12658000D02*
X23662000Y-12658000D01*
X29862000Y-10858000D02*
X28062000Y-12658000D01*
X56862000Y-16058000D02*
X60462000Y-16058000D01*
X67762000Y-16058000D02*
X67962000Y-15858000D01*
X60462000Y-16058000D02*
X67762000Y-16058000D01*
X63662000Y-34558000D02*
X63662000Y-40758000D01*
X63662000Y-45758000D02*
X64862000Y-46958000D01*
X63662000Y-40758000D02*
X63662000Y-45758000D01*
X63662000Y-34558000D02*
X72362000Y-34558000D01*
X73362000Y-34558000D02*
X78837000Y-40033000D01*
X72362000Y-34558000D02*
X73362000Y-34558000D01*
X69562000Y-24558000D02*
X66612000Y-27508000D01*
X69562000Y-15858000D02*
X69562000Y-24558000D01*
X66612000Y-27508000D02*
X63562000Y-30558000D01*
X74962000Y-16158000D02*
X75162000Y-16358000D01*
X67962000Y-15858000D02*
X69562000Y-15858000D01*
X74662000Y-15858000D02*
X74962000Y-16158000D01*
X69562000Y-15858000D02*
X74662000Y-15858000D01*
X67162000Y-3258000D02*
X67362000Y-3458000D01*
X67962000Y-4058000D02*
X76262000Y-4058000D01*
X67362000Y-3458000D02*
X67962000Y-4058000D01*
X67162000Y-3258000D02*
X67162000Y-3458000D01*
X67162000Y-7558000D02*
X66062000Y-8658000D01*
X67162000Y-3458000D02*
X67162000Y-7558000D01*
X16112000Y-25208000D02*
X16162000Y-25158000D01*
X38862000Y-47058000D02*
X58162000Y-47058000D01*
X19562000Y-24558000D02*
X19812000Y-24308000D01*
X16762000Y-24558000D02*
X19562000Y-24558000D01*
X16162000Y-25158000D02*
X16762000Y-24558000D01*
X19562000Y-21958000D02*
X19562000Y-18958000D01*
X20862000Y-23258000D02*
X19562000Y-21958000D01*
X19812000Y-24308000D02*
X20862000Y-23258000D01*
X55762000Y-15758000D02*
X55662000Y-15758000D01*
X55662000Y-15758000D02*
X54362000Y-15758000D01*
X16662000Y-25758000D02*
X16162000Y-25258000D01*
X16162000Y-25258000D02*
X16112000Y-25208000D01*
X74962000Y-13658000D02*
X74962000Y-16158000D01*
X74962000Y-16158000D02*
X75162000Y-16358000D01*
X67362000Y-3458000D02*
X67162000Y-3458000D01*
X67162000Y-3458000D02*
X62062000Y-3458000D01*
X30862000Y-30458000D02*
X34162000Y-30458000D01*
D18*
G36*
X6699308Y-1193973D02*
X6556662Y-1537501D01*
X6556338Y-1909467D01*
X6698383Y-2253243D01*
X6961173Y-2516492D01*
X7304701Y-2659138D01*
X7676667Y-2659462D01*
X8020443Y-2517417D01*
X8283692Y-2254627D01*
X8327031Y-2150255D01*
X9333861Y-2150255D01*
X10162000Y-2978395D01*
X10176142Y-2964252D01*
X10355748Y-3143858D01*
X10341605Y-3158000D01*
X10355748Y-3172142D01*
X10176142Y-3351748D01*
X10162000Y-3337605D01*
X9728034Y-3771571D01*
X9407995Y-3904136D01*
X9333861Y-4150255D01*
X9341606Y-4158000D01*
X9333861Y-4165745D01*
X9407995Y-4411864D01*
X9700668Y-4517062D01*
X10162000Y-4978395D01*
X10176143Y-4964253D01*
X10355748Y-5143858D01*
X10341605Y-5158000D01*
X10355748Y-5172142D01*
X10176142Y-5351748D01*
X10162000Y-5337605D01*
X9333861Y-6165745D01*
X9407995Y-6411864D01*
X9945223Y-6604965D01*
X10515454Y-6577778D01*
X10916005Y-6411864D01*
X10990139Y-6165747D01*
X11105014Y-6280622D01*
X11180091Y-6205545D01*
X11348077Y-6373824D01*
X11875309Y-6592750D01*
X12446187Y-6593248D01*
X12973800Y-6375243D01*
X13161974Y-6187397D01*
X13348077Y-6373824D01*
X13875309Y-6592750D01*
X14446187Y-6593248D01*
X14973800Y-6375243D01*
X15161974Y-6187397D01*
X15348077Y-6373824D01*
X15875309Y-6592750D01*
X16446187Y-6593248D01*
X16973800Y-6375243D01*
X17161974Y-6187397D01*
X17348077Y-6373824D01*
X17875309Y-6592750D01*
X18446187Y-6593248D01*
X18973800Y-6375243D01*
X19161974Y-6187397D01*
X19348077Y-6373824D01*
X19875309Y-6592750D01*
X20242652Y-6593070D01*
X20127162Y-6871201D01*
X20126838Y-7243167D01*
X20268883Y-7586943D01*
X20531673Y-7850192D01*
X20875201Y-7992838D01*
X21247167Y-7993162D01*
X21590943Y-7851117D01*
X21854192Y-7588327D01*
X21996838Y-7244799D01*
X21997162Y-6872833D01*
X21881437Y-6592755D01*
X22442580Y-6593245D01*
X22327162Y-6871201D01*
X22326838Y-7243167D01*
X22468883Y-7586943D01*
X22731673Y-7850192D01*
X23075201Y-7992838D01*
X23447167Y-7993162D01*
X23466516Y-7985167D01*
X33364838Y-7985167D01*
X33506883Y-8328943D01*
X33769673Y-8592192D01*
X34113201Y-8734838D01*
X34485167Y-8735162D01*
X34828943Y-8593117D01*
X35092192Y-8330327D01*
X35234838Y-7986799D01*
X35235162Y-7614833D01*
X35093117Y-7271057D01*
X34830327Y-7007808D01*
X34486799Y-6865162D01*
X34114833Y-6864838D01*
X33771057Y-7006883D01*
X33507808Y-7269673D01*
X33365162Y-7613201D01*
X33364838Y-7985167D01*
X23466516Y-7985167D01*
X23790943Y-7851117D01*
X24054192Y-7588327D01*
X24196838Y-7244799D01*
X24197162Y-6872833D01*
X24081509Y-6592930D01*
X24446187Y-6593248D01*
X24973800Y-6375243D01*
X25161974Y-6187397D01*
X25348077Y-6373824D01*
X25875309Y-6592750D01*
X26446187Y-6593248D01*
X26973800Y-6375243D01*
X27161974Y-6187397D01*
X27348077Y-6373824D01*
X27875309Y-6592750D01*
X28446187Y-6593248D01*
X28973800Y-6375243D01*
X29161974Y-6187397D01*
X29348077Y-6373824D01*
X29875309Y-6592750D01*
X30446187Y-6593248D01*
X30973800Y-6375243D01*
X31161974Y-6187397D01*
X31348077Y-6373824D01*
X31875309Y-6592750D01*
X32446187Y-6593248D01*
X32973800Y-6375243D01*
X33161974Y-6187397D01*
X33348077Y-6373824D01*
X33875309Y-6592750D01*
X34446187Y-6593248D01*
X34973800Y-6375243D01*
X35161974Y-6187397D01*
X35348077Y-6373824D01*
X35875309Y-6592750D01*
X36446187Y-6593248D01*
X36973800Y-6375243D01*
X37161974Y-6187397D01*
X37348077Y-6373824D01*
X37875309Y-6592750D01*
X38446187Y-6593248D01*
X38973800Y-6375243D01*
X39161974Y-6187397D01*
X39348077Y-6373824D01*
X39875309Y-6592750D01*
X40446187Y-6593248D01*
X40973800Y-6375243D01*
X41161974Y-6187397D01*
X41348077Y-6373824D01*
X41875309Y-6592750D01*
X42446187Y-6593248D01*
X42973800Y-6375243D01*
X43161974Y-6187397D01*
X43348077Y-6373824D01*
X43875309Y-6592750D01*
X44446187Y-6593248D01*
X44973800Y-6375243D01*
X45161974Y-6187397D01*
X45348077Y-6373824D01*
X45399444Y-6395154D01*
X45371057Y-6406883D01*
X45107808Y-6669673D01*
X44965162Y-7013201D01*
X44964838Y-7385167D01*
X45106883Y-7728943D01*
X45369673Y-7992192D01*
X45713201Y-8134838D01*
X46085167Y-8135162D01*
X46428943Y-7993117D01*
X46692192Y-7730327D01*
X46834838Y-7386799D01*
X46835162Y-7014833D01*
X46693117Y-6671057D01*
X46566017Y-6543735D01*
X46973800Y-6375243D01*
X47143852Y-6205488D01*
X47218986Y-6280622D01*
X47333861Y-6165747D01*
X47407995Y-6411864D01*
X47945223Y-6604965D01*
X48515454Y-6577778D01*
X48916005Y-6411864D01*
X48990139Y-6165745D01*
X48162000Y-5337605D01*
X48147858Y-5351748D01*
X47968253Y-5172143D01*
X47982395Y-5158000D01*
X48341605Y-5158000D01*
X49169745Y-5986139D01*
X49415864Y-5912005D01*
X49608965Y-5374777D01*
X49585908Y-4891167D01*
X51814838Y-4891167D01*
X51956883Y-5234943D01*
X52219673Y-5498192D01*
X52563201Y-5640838D01*
X52935167Y-5641162D01*
X53278943Y-5499117D01*
X53393092Y-5385167D01*
X64464838Y-5385167D01*
X64606883Y-5728943D01*
X64869673Y-5992192D01*
X65213201Y-6134838D01*
X65585167Y-6135162D01*
X65928943Y-5993117D01*
X66192192Y-5730327D01*
X66269908Y-5543167D01*
X69626838Y-5543167D01*
X69768883Y-5886943D01*
X70031673Y-6150192D01*
X70375201Y-6292838D01*
X70747167Y-6293162D01*
X71090943Y-6151117D01*
X71354192Y-5888327D01*
X71496838Y-5544799D01*
X71497162Y-5172833D01*
X71355117Y-4829057D01*
X71092327Y-4565808D01*
X70748799Y-4423162D01*
X70376833Y-4422838D01*
X70033057Y-4564883D01*
X69769808Y-4827673D01*
X69627162Y-5171201D01*
X69626838Y-5543167D01*
X66269908Y-5543167D01*
X66334838Y-5386799D01*
X66335162Y-5014833D01*
X66193117Y-4671057D01*
X65930327Y-4407808D01*
X65776059Y-4343750D01*
X74509400Y-4343750D01*
X74509400Y-5301910D01*
X74606073Y-5535299D01*
X74784702Y-5713927D01*
X75018091Y-5810600D01*
X75976250Y-5810600D01*
X76135000Y-5651850D01*
X76135000Y-4185000D01*
X76389000Y-4185000D01*
X76389000Y-5651850D01*
X76547750Y-5810600D01*
X77505909Y-5810600D01*
X77739298Y-5713927D01*
X77917927Y-5535299D01*
X78014600Y-5301910D01*
X78014600Y-4343750D01*
X77855850Y-4185000D01*
X76389000Y-4185000D01*
X76135000Y-4185000D01*
X74668150Y-4185000D01*
X74509400Y-4343750D01*
X65776059Y-4343750D01*
X65586799Y-4265162D01*
X65214833Y-4264838D01*
X64871057Y-4406883D01*
X64607808Y-4669673D01*
X64465162Y-5013201D01*
X64464838Y-5385167D01*
X53393092Y-5385167D01*
X53542192Y-5236327D01*
X53684838Y-4892799D01*
X53685162Y-4520833D01*
X53552708Y-4200267D01*
X55348838Y-4200267D01*
X55490883Y-4544043D01*
X55753673Y-4807292D01*
X56097201Y-4949938D01*
X56469167Y-4950262D01*
X56812943Y-4808217D01*
X57076192Y-4545427D01*
X57142738Y-4385167D01*
X57264838Y-4385167D01*
X57406883Y-4728943D01*
X57669673Y-4992192D01*
X58013201Y-5134838D01*
X58385167Y-5135162D01*
X58728943Y-4993117D01*
X58992192Y-4730327D01*
X59134838Y-4386799D01*
X59135037Y-4158000D01*
X79127000Y-4158000D01*
X79281905Y-4936761D01*
X79723038Y-5596962D01*
X80383239Y-6038095D01*
X81162000Y-6193000D01*
X81940761Y-6038095D01*
X82600962Y-5596962D01*
X83042095Y-4936761D01*
X83197000Y-4158000D01*
X83042095Y-3379239D01*
X82600962Y-2719038D01*
X81940761Y-2277905D01*
X81162000Y-2123000D01*
X80383239Y-2277905D01*
X79723038Y-2719038D01*
X79281905Y-3379239D01*
X79127000Y-4158000D01*
X59135037Y-4158000D01*
X59135162Y-4014833D01*
X58993117Y-3671057D01*
X58730327Y-3407808D01*
X58386799Y-3265162D01*
X58014833Y-3264838D01*
X57671057Y-3406883D01*
X57407808Y-3669673D01*
X57265162Y-4013201D01*
X57264838Y-4385167D01*
X57142738Y-4385167D01*
X57218838Y-4201899D01*
X57219162Y-3829933D01*
X57077117Y-3486157D01*
X56814327Y-3222908D01*
X56470799Y-3080262D01*
X56098833Y-3079938D01*
X55755057Y-3221983D01*
X55491808Y-3484773D01*
X55349162Y-3828301D01*
X55348838Y-4200267D01*
X53552708Y-4200267D01*
X53543117Y-4177057D01*
X53280327Y-3913808D01*
X52936799Y-3771162D01*
X52564833Y-3770838D01*
X52221057Y-3912883D01*
X51957808Y-4175673D01*
X51815162Y-4519201D01*
X51814838Y-4891167D01*
X49585908Y-4891167D01*
X49581778Y-4804546D01*
X49415864Y-4403995D01*
X49169745Y-4329861D01*
X48341605Y-5158000D01*
X47982395Y-5158000D01*
X47968252Y-5143858D01*
X48147858Y-4964252D01*
X48162000Y-4978395D01*
X48595966Y-4544429D01*
X48916005Y-4411864D01*
X48990139Y-4165745D01*
X48982394Y-4158000D01*
X48990139Y-4150255D01*
X48916005Y-3904136D01*
X48623332Y-3798938D01*
X48162000Y-3337605D01*
X48147858Y-3351748D01*
X47968253Y-3172143D01*
X47982395Y-3158000D01*
X48341605Y-3158000D01*
X49169745Y-3986139D01*
X49415864Y-3912005D01*
X49430055Y-3872525D01*
X49429838Y-4121367D01*
X49571883Y-4465143D01*
X49834673Y-4728392D01*
X50178201Y-4871038D01*
X50550167Y-4871362D01*
X50893943Y-4729317D01*
X51157192Y-4466527D01*
X51299838Y-4122999D01*
X51300162Y-3751033D01*
X51158117Y-3407257D01*
X50895327Y-3144008D01*
X50551799Y-3001362D01*
X50179833Y-3001038D01*
X49836057Y-3143083D01*
X49608738Y-3370006D01*
X49582234Y-2814090D01*
X74509400Y-2814090D01*
X74509400Y-3772250D01*
X74668150Y-3931000D01*
X76135000Y-3931000D01*
X76135000Y-2464150D01*
X76389000Y-2464150D01*
X76389000Y-3931000D01*
X77855850Y-3931000D01*
X78014600Y-3772250D01*
X78014600Y-2814090D01*
X77917927Y-2580701D01*
X77739298Y-2402073D01*
X77505909Y-2305400D01*
X76547750Y-2305400D01*
X76389000Y-2464150D01*
X76135000Y-2464150D01*
X75976250Y-2305400D01*
X75018091Y-2305400D01*
X74784702Y-2402073D01*
X74606073Y-2580701D01*
X74509400Y-2814090D01*
X49582234Y-2814090D01*
X49581778Y-2804546D01*
X49415864Y-2403995D01*
X49169745Y-2329861D01*
X48341605Y-3158000D01*
X47982395Y-3158000D01*
X47968252Y-3143858D01*
X48147858Y-2964252D01*
X48162000Y-2978395D01*
X48990139Y-2150255D01*
X48916005Y-1904136D01*
X48378777Y-1711035D01*
X47808546Y-1738222D01*
X47407995Y-1904136D01*
X47333861Y-2150253D01*
X47218986Y-2035378D01*
X47143909Y-2110455D01*
X46975923Y-1942176D01*
X46448691Y-1723250D01*
X45877813Y-1722752D01*
X45350200Y-1940757D01*
X45162026Y-2128603D01*
X44975923Y-1942176D01*
X44448691Y-1723250D01*
X43877813Y-1722752D01*
X43350200Y-1940757D01*
X43162026Y-2128603D01*
X42975923Y-1942176D01*
X42448691Y-1723250D01*
X41877813Y-1722752D01*
X41350200Y-1940757D01*
X41162026Y-2128603D01*
X40975923Y-1942176D01*
X40448691Y-1723250D01*
X39877813Y-1722752D01*
X39350200Y-1940757D01*
X39162026Y-2128603D01*
X38975923Y-1942176D01*
X38448691Y-1723250D01*
X37877813Y-1722752D01*
X37350200Y-1940757D01*
X37162026Y-2128603D01*
X36975923Y-1942176D01*
X36448691Y-1723250D01*
X35877813Y-1722752D01*
X35350200Y-1940757D01*
X35162026Y-2128603D01*
X34975923Y-1942176D01*
X34448691Y-1723250D01*
X33877813Y-1722752D01*
X33350200Y-1940757D01*
X33162026Y-2128603D01*
X32975923Y-1942176D01*
X32448691Y-1723250D01*
X31877813Y-1722752D01*
X31350200Y-1940757D01*
X31162026Y-2128603D01*
X30975923Y-1942176D01*
X30448691Y-1723250D01*
X29877813Y-1722752D01*
X29350200Y-1940757D01*
X29162026Y-2128603D01*
X28975923Y-1942176D01*
X28448691Y-1723250D01*
X27877813Y-1722752D01*
X27350200Y-1940757D01*
X27162026Y-2128603D01*
X26975923Y-1942176D01*
X26448691Y-1723250D01*
X25877813Y-1722752D01*
X25350200Y-1940757D01*
X25162026Y-2128603D01*
X24975923Y-1942176D01*
X24448691Y-1723250D01*
X23877813Y-1722752D01*
X23350200Y-1940757D01*
X23162026Y-2128603D01*
X22975923Y-1942176D01*
X22448691Y-1723250D01*
X21877813Y-1722752D01*
X21350200Y-1940757D01*
X21162026Y-2128603D01*
X20975923Y-1942176D01*
X20448691Y-1723250D01*
X19877813Y-1722752D01*
X19350200Y-1940757D01*
X19162026Y-2128603D01*
X18975923Y-1942176D01*
X18448691Y-1723250D01*
X17877813Y-1722752D01*
X17350200Y-1940757D01*
X17162026Y-2128603D01*
X16975923Y-1942176D01*
X16448691Y-1723250D01*
X15877813Y-1722752D01*
X15350200Y-1940757D01*
X15162026Y-2128603D01*
X14975923Y-1942176D01*
X14448691Y-1723250D01*
X13877813Y-1722752D01*
X13350200Y-1940757D01*
X13162026Y-2128603D01*
X12975923Y-1942176D01*
X12448691Y-1723250D01*
X11877813Y-1722752D01*
X11350200Y-1940757D01*
X11180148Y-2110512D01*
X11105014Y-2035378D01*
X10990139Y-2150253D01*
X10916005Y-1904136D01*
X10378777Y-1711035D01*
X9808546Y-1738222D01*
X9407995Y-1904136D01*
X9333861Y-2150255D01*
X8327031Y-2150255D01*
X8426338Y-1911099D01*
X8426662Y-1539133D01*
X8284617Y-1195357D01*
X8032700Y-943000D01*
X59261048Y-943000D01*
X59050808Y-1152873D01*
X58908162Y-1496401D01*
X58907838Y-1868367D01*
X59049883Y-2212143D01*
X59312673Y-2475392D01*
X59656201Y-2618038D01*
X60028167Y-2618362D01*
X60371943Y-2476317D01*
X60635192Y-2213527D01*
X60777838Y-1869999D01*
X60778162Y-1498033D01*
X60636117Y-1154257D01*
X60425228Y-943000D01*
X64699048Y-943000D01*
X64488808Y-1152873D01*
X64346162Y-1496401D01*
X64345838Y-1868367D01*
X64487883Y-2212143D01*
X64750673Y-2475392D01*
X65094201Y-2618038D01*
X65466167Y-2618362D01*
X65809943Y-2476317D01*
X66073192Y-2213527D01*
X66215838Y-1869999D01*
X66216162Y-1498033D01*
X66074117Y-1154257D01*
X65863228Y-943000D01*
X68691217Y-943000D01*
X68576057Y-990583D01*
X68312808Y-1253373D01*
X68170162Y-1596901D01*
X68169838Y-1968867D01*
X68311883Y-2312643D01*
X68574673Y-2575892D01*
X68918201Y-2718538D01*
X69290167Y-2718862D01*
X69633943Y-2576817D01*
X69897192Y-2314027D01*
X70039838Y-1970499D01*
X70040162Y-1598533D01*
X69898117Y-1254757D01*
X69635327Y-991508D01*
X69518507Y-943000D01*
X84377000Y-943000D01*
X84377000Y-53373000D01*
X67048080Y-53373000D01*
X67142838Y-53144799D01*
X67143162Y-52772833D01*
X67001117Y-52429057D01*
X66738327Y-52165808D01*
X66394799Y-52023162D01*
X66022833Y-52022838D01*
X65679057Y-52164883D01*
X65415808Y-52427673D01*
X65273162Y-52771201D01*
X65272838Y-53143167D01*
X65367803Y-53373000D01*
X17774590Y-53373000D01*
X17842000Y-53165000D01*
X17842000Y-52835000D01*
X16889000Y-52835000D01*
X16889000Y-52855000D01*
X16635000Y-52855000D01*
X16635000Y-52835000D01*
X15682000Y-52835000D01*
X15682000Y-53165000D01*
X15749410Y-53373000D01*
X10774590Y-53373000D01*
X10842000Y-53165000D01*
X10842000Y-52835000D01*
X9889000Y-52835000D01*
X9889000Y-52855000D01*
X9635000Y-52855000D01*
X9635000Y-52835000D01*
X8682000Y-52835000D01*
X8682000Y-53165000D01*
X8749410Y-53373000D01*
X4114600Y-53373000D01*
X4114600Y-52543750D01*
X3955850Y-52385000D01*
X2489000Y-52385000D01*
X2489000Y-52405000D01*
X2235000Y-52405000D01*
X2235000Y-52385000D01*
X2215000Y-52385000D01*
X2215000Y-52251000D01*
X8682000Y-52251000D01*
X8682000Y-52581000D01*
X9635000Y-52581000D01*
X9635000Y-51465546D01*
X9889000Y-51465546D01*
X9889000Y-52581000D01*
X10842000Y-52581000D01*
X10842000Y-52251000D01*
X15682000Y-52251000D01*
X15682000Y-52581000D01*
X16635000Y-52581000D01*
X16635000Y-51465546D01*
X16889000Y-51465546D01*
X16889000Y-52581000D01*
X17842000Y-52581000D01*
X17842000Y-52251000D01*
X17711189Y-51847369D01*
X17435873Y-51524522D01*
X17055213Y-51338565D01*
X16889000Y-51465546D01*
X16635000Y-51465546D01*
X16468787Y-51338565D01*
X16088127Y-51524522D01*
X15812811Y-51847369D01*
X15682000Y-52251000D01*
X10842000Y-52251000D01*
X10711189Y-51847369D01*
X10435873Y-51524522D01*
X10055213Y-51338565D01*
X9889000Y-51465546D01*
X9635000Y-51465546D01*
X9468787Y-51338565D01*
X9088127Y-51524522D01*
X8812811Y-51847369D01*
X8682000Y-52251000D01*
X2215000Y-52251000D01*
X2215000Y-52131000D01*
X2235000Y-52131000D01*
X2235000Y-50664150D01*
X2489000Y-50664150D01*
X2489000Y-52131000D01*
X3955850Y-52131000D01*
X4114600Y-51972250D01*
X4114600Y-51014090D01*
X4017927Y-50780701D01*
X3839298Y-50602073D01*
X3605909Y-50505400D01*
X2647750Y-50505400D01*
X2489000Y-50664150D01*
X2235000Y-50664150D01*
X2076250Y-50505400D01*
X1118091Y-50505400D01*
X947000Y-50576268D01*
X947000Y-50305938D01*
X9542732Y-50305938D01*
X9726448Y-50679821D01*
X10050951Y-50967568D01*
X10460869Y-51109229D01*
X10634998Y-50960565D01*
X10634998Y-51118000D01*
X10695532Y-51118000D01*
X10695238Y-51455167D01*
X10837283Y-51798943D01*
X11100073Y-52062192D01*
X11443601Y-52204838D01*
X11815567Y-52205162D01*
X12159343Y-52063117D01*
X12422592Y-51800327D01*
X12565238Y-51456799D01*
X12565562Y-51084833D01*
X12423517Y-50741057D01*
X12160727Y-50477808D01*
X11941538Y-50386792D01*
X11981268Y-50305938D01*
X14542732Y-50305938D01*
X14726448Y-50679821D01*
X15050951Y-50967568D01*
X15460869Y-51109229D01*
X15635000Y-50960563D01*
X15635000Y-50135000D01*
X15889000Y-50135000D01*
X15889000Y-50960563D01*
X16063131Y-51109229D01*
X16083565Y-51102167D01*
X50726838Y-51102167D01*
X50868883Y-51445943D01*
X51131673Y-51709192D01*
X51475201Y-51851838D01*
X51847167Y-51852162D01*
X52190943Y-51710117D01*
X52454192Y-51447327D01*
X52596838Y-51103799D01*
X52597162Y-50731833D01*
X52455117Y-50388057D01*
X52192327Y-50124808D01*
X51848799Y-49982162D01*
X51476833Y-49981838D01*
X51133057Y-50123883D01*
X50869808Y-50386673D01*
X50727162Y-50730201D01*
X50726838Y-51102167D01*
X16083565Y-51102167D01*
X16473049Y-50967568D01*
X16797552Y-50679821D01*
X16981268Y-50305938D01*
X16854734Y-50135000D01*
X15889000Y-50135000D01*
X15635000Y-50135000D01*
X14669266Y-50135000D01*
X14542732Y-50305938D01*
X11981268Y-50305938D01*
X11854734Y-50135000D01*
X10889000Y-50135000D01*
X10889000Y-50155000D01*
X10635000Y-50155000D01*
X10635000Y-50135000D01*
X9669266Y-50135000D01*
X9542732Y-50305938D01*
X947000Y-50305938D01*
X947000Y-47197167D01*
X7145738Y-47197167D01*
X7287783Y-47540943D01*
X7550573Y-47804192D01*
X7894101Y-47946838D01*
X8256891Y-47947154D01*
X8259283Y-47952943D01*
X8522073Y-48216192D01*
X8734930Y-48304578D01*
X8661708Y-48377673D01*
X8519062Y-48721201D01*
X8518738Y-49093167D01*
X8660783Y-49436943D01*
X8923573Y-49700192D01*
X9267101Y-49842838D01*
X9639067Y-49843162D01*
X9640744Y-49842469D01*
X9669266Y-49881000D01*
X10635000Y-49881000D01*
X10635000Y-49055437D01*
X10889000Y-49055437D01*
X10889000Y-49881000D01*
X11854734Y-49881000D01*
X11981268Y-49710062D01*
X14542732Y-49710062D01*
X14669266Y-49881000D01*
X15635000Y-49881000D01*
X15635000Y-49055437D01*
X15889000Y-49055437D01*
X15889000Y-49881000D01*
X16854734Y-49881000D01*
X16981268Y-49710062D01*
X16797552Y-49336179D01*
X16687021Y-49238167D01*
X16896638Y-49238167D01*
X17038683Y-49581943D01*
X17301473Y-49845192D01*
X17645001Y-49987838D01*
X18016967Y-49988162D01*
X18360743Y-49846117D01*
X18623992Y-49583327D01*
X18766638Y-49239799D01*
X18766962Y-48867833D01*
X18624917Y-48524057D01*
X18606009Y-48505116D01*
X18658567Y-48505162D01*
X19002343Y-48363117D01*
X19265592Y-48100327D01*
X19408238Y-47756799D01*
X19408562Y-47384833D01*
X19266517Y-47041057D01*
X19003727Y-46777808D01*
X18660199Y-46635162D01*
X18288233Y-46634838D01*
X17944457Y-46776883D01*
X17681208Y-47039673D01*
X17538562Y-47383201D01*
X17538238Y-47755167D01*
X17680283Y-48098943D01*
X17699191Y-48117884D01*
X17646633Y-48117838D01*
X17302857Y-48259883D01*
X17039608Y-48522673D01*
X16896962Y-48866201D01*
X16896638Y-49238167D01*
X16687021Y-49238167D01*
X16473049Y-49048432D01*
X16063131Y-48906771D01*
X15889000Y-49055437D01*
X15635000Y-49055437D01*
X15460869Y-48906771D01*
X15050951Y-49048432D01*
X14726448Y-49336179D01*
X14542732Y-49710062D01*
X11981268Y-49710062D01*
X11797552Y-49336179D01*
X11473049Y-49048432D01*
X11063131Y-48906771D01*
X10889000Y-49055437D01*
X10635000Y-49055437D01*
X10460869Y-48906771D01*
X10388880Y-48931649D01*
X10389062Y-48722833D01*
X10247017Y-48379057D01*
X9984227Y-48115808D01*
X9771370Y-48027422D01*
X9844592Y-47954327D01*
X9987238Y-47610799D01*
X9987562Y-47238833D01*
X9845517Y-46895057D01*
X9582727Y-46631808D01*
X9537835Y-46613167D01*
X19520138Y-46613167D01*
X19662183Y-46956943D01*
X19924973Y-47220192D01*
X20121459Y-47301781D01*
X19934857Y-47378883D01*
X19671608Y-47641673D01*
X19528962Y-47985201D01*
X19528638Y-48357167D01*
X19670683Y-48700943D01*
X19933473Y-48964192D01*
X20277001Y-49106838D01*
X20648967Y-49107162D01*
X20992743Y-48965117D01*
X21255992Y-48702327D01*
X21280557Y-48643167D01*
X28726838Y-48643167D01*
X28868883Y-48986943D01*
X29131673Y-49250192D01*
X29475201Y-49392838D01*
X29847167Y-49393162D01*
X30123056Y-49279167D01*
X51668838Y-49279167D01*
X51810883Y-49622943D01*
X52073673Y-49886192D01*
X52417201Y-50028838D01*
X52789167Y-50029162D01*
X52875319Y-49993565D01*
X53031673Y-50150192D01*
X53375201Y-50292838D01*
X53747167Y-50293162D01*
X54090943Y-50151117D01*
X54354192Y-49888327D01*
X54490266Y-49560626D01*
X54581673Y-49652192D01*
X54925201Y-49794838D01*
X55297167Y-49795162D01*
X55640943Y-49653117D01*
X55904192Y-49390327D01*
X56046838Y-49046799D01*
X56046946Y-48922167D01*
X65526838Y-48922167D01*
X65668883Y-49265943D01*
X65931673Y-49529192D01*
X66275201Y-49671838D01*
X66647167Y-49672162D01*
X66990943Y-49530117D01*
X67153175Y-49368167D01*
X76026838Y-49368167D01*
X76168883Y-49711943D01*
X76431673Y-49975192D01*
X76775201Y-50117838D01*
X77147167Y-50118162D01*
X77490943Y-49976117D01*
X77754192Y-49713327D01*
X77896838Y-49369799D01*
X77897162Y-48997833D01*
X77802267Y-48768167D01*
X78601838Y-48768167D01*
X78743883Y-49111943D01*
X79006673Y-49375192D01*
X79350201Y-49517838D01*
X79722167Y-49518162D01*
X80065943Y-49376117D01*
X80329192Y-49113327D01*
X80471838Y-48769799D01*
X80472162Y-48397833D01*
X80330117Y-48054057D01*
X80067327Y-47790808D01*
X79723799Y-47648162D01*
X79351833Y-47647838D01*
X79008057Y-47789883D01*
X78744808Y-48052673D01*
X78602162Y-48396201D01*
X78601838Y-48768167D01*
X77802267Y-48768167D01*
X77755117Y-48654057D01*
X77492327Y-48390808D01*
X77148799Y-48248162D01*
X76776833Y-48247838D01*
X76433057Y-48389883D01*
X76169808Y-48652673D01*
X76027162Y-48996201D01*
X76026838Y-49368167D01*
X67153175Y-49368167D01*
X67254192Y-49267327D01*
X67396838Y-48923799D01*
X67397162Y-48551833D01*
X67255117Y-48208057D01*
X66992327Y-47944808D01*
X66648799Y-47802162D01*
X66276833Y-47801838D01*
X65933057Y-47943883D01*
X65669808Y-48206673D01*
X65527162Y-48550201D01*
X65526838Y-48922167D01*
X56046946Y-48922167D01*
X56047162Y-48674833D01*
X55905117Y-48331057D01*
X55642327Y-48067808D01*
X55443307Y-47985167D01*
X56814838Y-47985167D01*
X56956883Y-48328943D01*
X57219673Y-48592192D01*
X57563201Y-48734838D01*
X57935167Y-48735162D01*
X58278943Y-48593117D01*
X58542192Y-48330327D01*
X58684838Y-47986799D01*
X58685162Y-47614833D01*
X58543117Y-47271057D01*
X58280327Y-47007808D01*
X57936799Y-46865162D01*
X57564833Y-46864838D01*
X57221057Y-47006883D01*
X56957808Y-47269673D01*
X56815162Y-47613201D01*
X56814838Y-47985167D01*
X55443307Y-47985167D01*
X55298799Y-47925162D01*
X54926833Y-47924838D01*
X54583057Y-48066883D01*
X54319808Y-48329673D01*
X54183734Y-48657374D01*
X54092327Y-48565808D01*
X53748799Y-48423162D01*
X53376833Y-48422838D01*
X53290681Y-48458435D01*
X53134327Y-48301808D01*
X52790799Y-48159162D01*
X52418833Y-48158838D01*
X52075057Y-48300883D01*
X51811808Y-48563673D01*
X51669162Y-48907201D01*
X51668838Y-49279167D01*
X30123056Y-49279167D01*
X30190943Y-49251117D01*
X30454192Y-48988327D01*
X30596838Y-48644799D01*
X30597162Y-48272833D01*
X30455117Y-47929057D01*
X30192327Y-47665808D01*
X29848799Y-47523162D01*
X29476833Y-47522838D01*
X29133057Y-47664883D01*
X28869808Y-47927673D01*
X28727162Y-48271201D01*
X28726838Y-48643167D01*
X21280557Y-48643167D01*
X21398638Y-48358799D01*
X21398962Y-47986833D01*
X21256917Y-47643057D01*
X20994127Y-47379808D01*
X20797641Y-47298219D01*
X20984243Y-47221117D01*
X21247492Y-46958327D01*
X21247973Y-46957167D01*
X35455938Y-46957167D01*
X35597983Y-47300943D01*
X35860773Y-47564192D01*
X36204301Y-47706838D01*
X36576267Y-47707162D01*
X36920043Y-47565117D01*
X37183292Y-47302327D01*
X37325938Y-46958799D01*
X37326262Y-46586833D01*
X37184217Y-46243057D01*
X36921427Y-45979808D01*
X36577899Y-45837162D01*
X36205933Y-45836838D01*
X35862157Y-45978883D01*
X35598908Y-46241673D01*
X35456262Y-46585201D01*
X35455938Y-46957167D01*
X21247973Y-46957167D01*
X21390138Y-46614799D01*
X21390462Y-46242833D01*
X21276973Y-45968167D01*
X25443338Y-45968167D01*
X25585383Y-46311943D01*
X25848173Y-46575192D01*
X26191701Y-46717838D01*
X26563667Y-46718162D01*
X26907443Y-46576117D01*
X27170692Y-46313327D01*
X27313338Y-45969799D01*
X27313513Y-45768167D01*
X40883238Y-45768167D01*
X41025283Y-46111943D01*
X41288073Y-46375192D01*
X41631601Y-46517838D01*
X42003567Y-46518162D01*
X42347343Y-46376117D01*
X42610592Y-46113327D01*
X42753238Y-45769799D01*
X42753562Y-45397833D01*
X42611517Y-45054057D01*
X42348727Y-44790808D01*
X42005199Y-44648162D01*
X41633233Y-44647838D01*
X41289457Y-44789883D01*
X41026208Y-45052673D01*
X40883562Y-45396201D01*
X40883238Y-45768167D01*
X27313513Y-45768167D01*
X27313662Y-45597833D01*
X27171617Y-45254057D01*
X26908827Y-44990808D01*
X26565299Y-44848162D01*
X26193333Y-44847838D01*
X25849557Y-44989883D01*
X25586308Y-45252673D01*
X25443662Y-45596201D01*
X25443338Y-45968167D01*
X21276973Y-45968167D01*
X21248417Y-45899057D01*
X20985627Y-45635808D01*
X20642099Y-45493162D01*
X20270133Y-45492838D01*
X19926357Y-45634883D01*
X19663108Y-45897673D01*
X19520462Y-46241201D01*
X19520138Y-46613167D01*
X9537835Y-46613167D01*
X9239199Y-46489162D01*
X9157142Y-46489091D01*
X9227438Y-46319799D01*
X9227762Y-45947833D01*
X9132867Y-45718167D01*
X17202738Y-45718167D01*
X17344783Y-46061943D01*
X17607573Y-46325192D01*
X17951101Y-46467838D01*
X18323067Y-46468162D01*
X18666843Y-46326117D01*
X18930092Y-46063327D01*
X19072738Y-45719799D01*
X19073062Y-45347833D01*
X18931017Y-45004057D01*
X18668227Y-44740808D01*
X18324699Y-44598162D01*
X17952733Y-44597838D01*
X17608957Y-44739883D01*
X17345708Y-45002673D01*
X17203062Y-45346201D01*
X17202738Y-45718167D01*
X9132867Y-45718167D01*
X9085717Y-45604057D01*
X8822927Y-45340808D01*
X8479399Y-45198162D01*
X8107433Y-45197838D01*
X7763657Y-45339883D01*
X7500408Y-45602673D01*
X7357762Y-45946201D01*
X7357438Y-46318167D01*
X7385198Y-46385351D01*
X7288708Y-46481673D01*
X7146062Y-46825201D01*
X7145738Y-47197167D01*
X947000Y-47197167D01*
X947000Y-41840400D01*
X2896960Y-41840400D01*
X2896960Y-44075600D01*
X2941238Y-44310917D01*
X3080310Y-44527041D01*
X3292510Y-44672031D01*
X3544400Y-44723040D01*
X5711033Y-44723040D01*
X5817183Y-44979943D01*
X6079973Y-45243192D01*
X6423501Y-45385838D01*
X6795467Y-45386162D01*
X7139243Y-45244117D01*
X7402492Y-44981327D01*
X7545138Y-44637799D01*
X7545352Y-44391167D01*
X8026838Y-44391167D01*
X8168883Y-44734943D01*
X8431673Y-44998192D01*
X8775201Y-45140838D01*
X9147167Y-45141162D01*
X9490943Y-44999117D01*
X9754192Y-44736327D01*
X9896838Y-44392799D01*
X9897162Y-44020833D01*
X9821687Y-43838167D01*
X21321338Y-43838167D01*
X21463383Y-44181943D01*
X21726173Y-44445192D01*
X22069701Y-44587838D01*
X22441667Y-44588162D01*
X22785443Y-44446117D01*
X23048692Y-44183327D01*
X23191338Y-43839799D01*
X23191662Y-43467833D01*
X23049617Y-43124057D01*
X22786827Y-42860808D01*
X22443299Y-42718162D01*
X22071333Y-42717838D01*
X21727557Y-42859883D01*
X21464308Y-43122673D01*
X21321662Y-43466201D01*
X21321338Y-43838167D01*
X9821687Y-43838167D01*
X9755117Y-43677057D01*
X9492327Y-43413808D01*
X9148799Y-43271162D01*
X8776833Y-43270838D01*
X8433057Y-43412883D01*
X8169808Y-43675673D01*
X8027162Y-44019201D01*
X8026838Y-44391167D01*
X7545352Y-44391167D01*
X7545462Y-44265833D01*
X7478112Y-44102834D01*
X7519692Y-44061327D01*
X7662338Y-43717799D01*
X7662662Y-43345833D01*
X7520617Y-43002057D01*
X7257827Y-42738808D01*
X6914299Y-42596162D01*
X6542333Y-42595838D01*
X6427040Y-42643476D01*
X6427040Y-42533167D01*
X12202138Y-42533167D01*
X12344183Y-42876943D01*
X12606973Y-43140192D01*
X12950501Y-43282838D01*
X13322467Y-43283162D01*
X13666243Y-43141117D01*
X13929492Y-42878327D01*
X14021326Y-42657167D01*
X30860838Y-42657167D01*
X31002883Y-43000943D01*
X31265673Y-43264192D01*
X31609201Y-43406838D01*
X31981167Y-43407162D01*
X32324943Y-43265117D01*
X32588192Y-43002327D01*
X32728193Y-42665167D01*
X33405138Y-42665167D01*
X33547183Y-43008943D01*
X33809973Y-43272192D01*
X34153501Y-43414838D01*
X34525467Y-43415162D01*
X34869243Y-43273117D01*
X34910264Y-43232167D01*
X44768838Y-43232167D01*
X44910883Y-43575943D01*
X45173673Y-43839192D01*
X45517201Y-43981838D01*
X45889167Y-43982162D01*
X46232943Y-43840117D01*
X46496192Y-43577327D01*
X46638838Y-43233799D01*
X46639162Y-42861833D01*
X46590131Y-42743167D01*
X48126838Y-42743167D01*
X48268883Y-43086943D01*
X48531673Y-43350192D01*
X48875201Y-43492838D01*
X48986864Y-43492935D01*
X48986838Y-43523167D01*
X49128883Y-43866943D01*
X49391673Y-44130192D01*
X49536945Y-44190514D01*
X49536838Y-44313167D01*
X49678883Y-44656943D01*
X49941673Y-44920192D01*
X50285201Y-45062838D01*
X50657167Y-45063162D01*
X51000943Y-44921117D01*
X51264192Y-44658327D01*
X51406838Y-44314799D01*
X51407162Y-43942833D01*
X51314333Y-43718167D01*
X53301838Y-43718167D01*
X53443883Y-44061943D01*
X53706673Y-44325192D01*
X54050201Y-44467838D01*
X54422167Y-44468162D01*
X54765943Y-44326117D01*
X55029192Y-44063327D01*
X55037563Y-44043167D01*
X57926838Y-44043167D01*
X58068883Y-44386943D01*
X58331673Y-44650192D01*
X58607906Y-44764894D01*
X58424808Y-44947673D01*
X58282162Y-45291201D01*
X58281838Y-45663167D01*
X58423883Y-46006943D01*
X58686673Y-46270192D01*
X59030201Y-46412838D01*
X59402167Y-46413162D01*
X59745943Y-46271117D01*
X60009192Y-46008327D01*
X60151838Y-45664799D01*
X60152162Y-45292833D01*
X60017600Y-44967167D01*
X67744838Y-44967167D01*
X67886883Y-45310943D01*
X68149673Y-45574192D01*
X68493201Y-45716838D01*
X68574897Y-45716909D01*
X68574838Y-45785167D01*
X68716883Y-46128943D01*
X68979673Y-46392192D01*
X69323201Y-46534838D01*
X69695167Y-46535162D01*
X70038943Y-46393117D01*
X70302192Y-46130327D01*
X70444838Y-45786799D01*
X70445162Y-45414833D01*
X70303117Y-45071057D01*
X70040327Y-44807808D01*
X69696799Y-44665162D01*
X69615103Y-44665091D01*
X69615162Y-44596833D01*
X69473117Y-44253057D01*
X69417325Y-44197167D01*
X70744838Y-44197167D01*
X70886883Y-44540943D01*
X71149673Y-44804192D01*
X71493201Y-44946838D01*
X71865167Y-44947162D01*
X72208943Y-44805117D01*
X72304058Y-44710167D01*
X75897838Y-44710167D01*
X76039883Y-45053943D01*
X76302673Y-45317192D01*
X76646201Y-45459838D01*
X77018167Y-45460162D01*
X77361943Y-45318117D01*
X77625192Y-45055327D01*
X77754812Y-44743167D01*
X79226838Y-44743167D01*
X79368883Y-45086943D01*
X79631673Y-45350192D01*
X79975201Y-45492838D01*
X80347167Y-45493162D01*
X80690943Y-45351117D01*
X80954192Y-45088327D01*
X81096838Y-44744799D01*
X81097162Y-44372833D01*
X80955117Y-44029057D01*
X80692327Y-43765808D01*
X80348799Y-43623162D01*
X79976833Y-43622838D01*
X79633057Y-43764883D01*
X79369808Y-44027673D01*
X79227162Y-44371201D01*
X79226838Y-44743167D01*
X77754812Y-44743167D01*
X77767838Y-44711799D01*
X77768162Y-44339833D01*
X77626117Y-43996057D01*
X77363327Y-43732808D01*
X77019799Y-43590162D01*
X76647833Y-43589838D01*
X76304057Y-43731883D01*
X76040808Y-43994673D01*
X75898162Y-44338201D01*
X75897838Y-44710167D01*
X72304058Y-44710167D01*
X72472192Y-44542327D01*
X72614838Y-44198799D01*
X72615114Y-43882449D01*
X72690943Y-43851117D01*
X72954192Y-43588327D01*
X73096838Y-43244799D01*
X73097162Y-42872833D01*
X72955117Y-42529057D01*
X72692327Y-42265808D01*
X72348799Y-42123162D01*
X71976833Y-42122838D01*
X71633057Y-42264883D01*
X71369808Y-42527673D01*
X71227162Y-42871201D01*
X71226886Y-43187551D01*
X71151057Y-43218883D01*
X70887808Y-43481673D01*
X70745162Y-43825201D01*
X70744838Y-44197167D01*
X69417325Y-44197167D01*
X69210327Y-43989808D01*
X68866799Y-43847162D01*
X68494833Y-43846838D01*
X68151057Y-43988883D01*
X67887808Y-44251673D01*
X67745162Y-44595201D01*
X67744838Y-44967167D01*
X60017600Y-44967167D01*
X60010117Y-44949057D01*
X59747327Y-44685808D01*
X59471094Y-44571106D01*
X59654192Y-44388327D01*
X59796838Y-44044799D01*
X59797162Y-43672833D01*
X59655117Y-43329057D01*
X59392327Y-43065808D01*
X59048799Y-42923162D01*
X58676833Y-42922838D01*
X58333057Y-43064883D01*
X58069808Y-43327673D01*
X57927162Y-43671201D01*
X57926838Y-44043167D01*
X55037563Y-44043167D01*
X55171838Y-43719799D01*
X55171861Y-43693009D01*
X55347167Y-43693162D01*
X55690943Y-43551117D01*
X55954192Y-43288327D01*
X56096838Y-42944799D01*
X56097162Y-42572833D01*
X55955117Y-42229057D01*
X55692327Y-41965808D01*
X55348799Y-41823162D01*
X54976833Y-41822838D01*
X54633057Y-41964883D01*
X54369808Y-42227673D01*
X54227162Y-42571201D01*
X54227139Y-42597991D01*
X54051833Y-42597838D01*
X53708057Y-42739883D01*
X53444808Y-43002673D01*
X53302162Y-43346201D01*
X53301838Y-43718167D01*
X51314333Y-43718167D01*
X51265117Y-43599057D01*
X51002327Y-43335808D01*
X50857055Y-43275486D01*
X50857162Y-43152833D01*
X50715117Y-42809057D01*
X50452327Y-42545808D01*
X50108799Y-42403162D01*
X49997136Y-42403065D01*
X49997162Y-42372833D01*
X49855117Y-42029057D01*
X49592327Y-41765808D01*
X49248799Y-41623162D01*
X48876833Y-41622838D01*
X48533057Y-41764883D01*
X48269808Y-42027673D01*
X48127162Y-42371201D01*
X48126838Y-42743167D01*
X46590131Y-42743167D01*
X46497117Y-42518057D01*
X46234327Y-42254808D01*
X45890799Y-42112162D01*
X45518833Y-42111838D01*
X45175057Y-42253883D01*
X44911808Y-42516673D01*
X44769162Y-42860201D01*
X44768838Y-43232167D01*
X34910264Y-43232167D01*
X35132492Y-43010327D01*
X35275138Y-42666799D01*
X35275462Y-42294833D01*
X35133417Y-41951057D01*
X34870627Y-41687808D01*
X34527099Y-41545162D01*
X34155133Y-41544838D01*
X33811357Y-41686883D01*
X33548108Y-41949673D01*
X33405462Y-42293201D01*
X33405138Y-42665167D01*
X32728193Y-42665167D01*
X32730838Y-42658799D01*
X32731162Y-42286833D01*
X32589117Y-41943057D01*
X32326327Y-41679808D01*
X31982799Y-41537162D01*
X31610833Y-41536838D01*
X31267057Y-41678883D01*
X31003808Y-41941673D01*
X30861162Y-42285201D01*
X30860838Y-42657167D01*
X14021326Y-42657167D01*
X14072138Y-42534799D01*
X14072462Y-42162833D01*
X13930417Y-41819057D01*
X13667627Y-41555808D01*
X13396359Y-41443167D01*
X75438838Y-41443167D01*
X75580883Y-41786943D01*
X75843673Y-42050192D01*
X76187201Y-42192838D01*
X76559167Y-42193162D01*
X76902943Y-42051117D01*
X77166192Y-41788327D01*
X77308838Y-41444799D01*
X77309162Y-41072833D01*
X77167117Y-40729057D01*
X76904327Y-40465808D01*
X76560799Y-40323162D01*
X76188833Y-40322838D01*
X75845057Y-40464883D01*
X75581808Y-40727673D01*
X75439162Y-41071201D01*
X75438838Y-41443167D01*
X13396359Y-41443167D01*
X13324099Y-41413162D01*
X12952133Y-41412838D01*
X12608357Y-41554883D01*
X12345108Y-41817673D01*
X12202462Y-42161201D01*
X12202138Y-42533167D01*
X6427040Y-42533167D01*
X6427040Y-41840400D01*
X6382762Y-41605083D01*
X6243690Y-41388959D01*
X6031490Y-41243969D01*
X5779600Y-41192960D01*
X3544400Y-41192960D01*
X3309083Y-41237238D01*
X3092959Y-41376310D01*
X2947969Y-41588510D01*
X2896960Y-41840400D01*
X947000Y-41840400D01*
X947000Y-40268167D01*
X46438838Y-40268167D01*
X46580883Y-40611943D01*
X46843673Y-40875192D01*
X47187201Y-41017838D01*
X47559167Y-41018162D01*
X47902943Y-40876117D01*
X48166192Y-40613327D01*
X48308838Y-40269799D01*
X48309162Y-39897833D01*
X48244953Y-39742436D01*
X48380473Y-39878192D01*
X48724001Y-40020838D01*
X49095967Y-40021162D01*
X49439743Y-39879117D01*
X49702992Y-39616327D01*
X49845638Y-39272799D01*
X49845962Y-38900833D01*
X49772324Y-38722614D01*
X49990992Y-38504327D01*
X50103588Y-38233167D01*
X51076838Y-38233167D01*
X51218883Y-38576943D01*
X51481673Y-38840192D01*
X51825201Y-38982838D01*
X52084642Y-38983064D01*
X52168883Y-39186943D01*
X52431673Y-39450192D01*
X52775201Y-39592838D01*
X53147167Y-39593162D01*
X53490943Y-39451117D01*
X53754192Y-39188327D01*
X53896838Y-38844799D01*
X53897132Y-38506167D01*
X73422838Y-38506167D01*
X73564883Y-38849943D01*
X73827673Y-39113192D01*
X74171201Y-39255838D01*
X74543167Y-39256162D01*
X74886943Y-39114117D01*
X75150192Y-38851327D01*
X75292838Y-38507799D01*
X75292959Y-38368167D01*
X77101838Y-38368167D01*
X77243883Y-38711943D01*
X77506673Y-38975192D01*
X77850201Y-39117838D01*
X78222167Y-39118162D01*
X78302021Y-39085167D01*
X80464838Y-39085167D01*
X80606883Y-39428943D01*
X80869673Y-39692192D01*
X81213201Y-39834838D01*
X81585167Y-39835162D01*
X81928943Y-39693117D01*
X82192192Y-39430327D01*
X82334838Y-39086799D01*
X82335162Y-38714833D01*
X82193117Y-38371057D01*
X81930327Y-38107808D01*
X81586799Y-37965162D01*
X81214833Y-37964838D01*
X80871057Y-38106883D01*
X80607808Y-38369673D01*
X80465162Y-38713201D01*
X80464838Y-39085167D01*
X78302021Y-39085167D01*
X78565943Y-38976117D01*
X78829192Y-38713327D01*
X78971838Y-38369799D01*
X78972162Y-37997833D01*
X78830117Y-37654057D01*
X78567327Y-37390808D01*
X78223799Y-37248162D01*
X77851833Y-37247838D01*
X77508057Y-37389883D01*
X77244808Y-37652673D01*
X77102162Y-37996201D01*
X77101838Y-38368167D01*
X75292959Y-38368167D01*
X75293162Y-38135833D01*
X75151117Y-37792057D01*
X74888327Y-37528808D01*
X74544799Y-37386162D01*
X74172833Y-37385838D01*
X73829057Y-37527883D01*
X73565808Y-37790673D01*
X73423162Y-38134201D01*
X73422838Y-38506167D01*
X53897132Y-38506167D01*
X53897162Y-38472833D01*
X53755117Y-38129057D01*
X53492327Y-37865808D01*
X53148799Y-37723162D01*
X52889358Y-37722936D01*
X52805117Y-37519057D01*
X52542327Y-37255808D01*
X52198799Y-37113162D01*
X51826833Y-37112838D01*
X51483057Y-37254883D01*
X51219808Y-37517673D01*
X51077162Y-37861201D01*
X51076838Y-38233167D01*
X50103588Y-38233167D01*
X50133638Y-38160799D01*
X50133962Y-37788833D01*
X49991917Y-37445057D01*
X49729127Y-37181808D01*
X49385599Y-37039162D01*
X49013633Y-37038838D01*
X48669857Y-37180883D01*
X48406608Y-37443673D01*
X48263962Y-37787201D01*
X48263638Y-38159167D01*
X48337276Y-38337386D01*
X48118608Y-38555673D01*
X47975962Y-38899201D01*
X47975638Y-39271167D01*
X48039847Y-39426564D01*
X47904327Y-39290808D01*
X47560799Y-39148162D01*
X47188833Y-39147838D01*
X46845057Y-39289883D01*
X46581808Y-39552673D01*
X46439162Y-39896201D01*
X46438838Y-40268167D01*
X947000Y-40268167D01*
X947000Y-38343167D01*
X8374838Y-38343167D01*
X8516883Y-38686943D01*
X8779673Y-38950192D01*
X9123201Y-39092838D01*
X9495167Y-39093162D01*
X9645206Y-39031167D01*
X21658338Y-39031167D01*
X21800383Y-39374943D01*
X22063173Y-39638192D01*
X22406701Y-39780838D01*
X22778667Y-39781162D01*
X23122443Y-39639117D01*
X23385692Y-39376327D01*
X23528338Y-39032799D01*
X23528662Y-38660833D01*
X23386617Y-38317057D01*
X23368759Y-38299167D01*
X25107238Y-38299167D01*
X25249283Y-38642943D01*
X25512073Y-38906192D01*
X25855601Y-39048838D01*
X26227567Y-39049162D01*
X26571343Y-38907117D01*
X26834592Y-38644327D01*
X26977238Y-38300799D01*
X26977275Y-38258167D01*
X34399538Y-38258167D01*
X34541583Y-38601943D01*
X34804373Y-38865192D01*
X35147901Y-39007838D01*
X35519867Y-39008162D01*
X35863643Y-38866117D01*
X35904504Y-38825327D01*
X36074073Y-38995192D01*
X36417601Y-39137838D01*
X36789567Y-39138162D01*
X37133343Y-38996117D01*
X37289991Y-38839743D01*
X37328373Y-38878192D01*
X37671901Y-39020838D01*
X38043867Y-39021162D01*
X38232629Y-38943167D01*
X39451838Y-38943167D01*
X39593883Y-39286943D01*
X39856673Y-39550192D01*
X40200201Y-39692838D01*
X40572167Y-39693162D01*
X40915943Y-39551117D01*
X41179192Y-39288327D01*
X41321838Y-38944799D01*
X41322162Y-38572833D01*
X41199583Y-38276167D01*
X41298838Y-38276167D01*
X41440883Y-38619943D01*
X41703673Y-38883192D01*
X42047201Y-39025838D01*
X42419167Y-39026162D01*
X42762943Y-38884117D01*
X43026192Y-38621327D01*
X43168838Y-38277799D01*
X43169162Y-37905833D01*
X43027117Y-37562057D01*
X42764327Y-37298808D01*
X42420799Y-37156162D01*
X42048833Y-37155838D01*
X41705057Y-37297883D01*
X41441808Y-37560673D01*
X41299162Y-37904201D01*
X41298838Y-38276167D01*
X41199583Y-38276167D01*
X41180117Y-38229057D01*
X40917327Y-37965808D01*
X40573799Y-37823162D01*
X40201833Y-37822838D01*
X39858057Y-37964883D01*
X39594808Y-38227673D01*
X39452162Y-38571201D01*
X39451838Y-38943167D01*
X38232629Y-38943167D01*
X38387643Y-38879117D01*
X38650892Y-38616327D01*
X38793538Y-38272799D01*
X38793862Y-37900833D01*
X38651817Y-37557057D01*
X38389027Y-37293808D01*
X38045499Y-37151162D01*
X37673533Y-37150838D01*
X37329757Y-37292883D01*
X37173109Y-37449257D01*
X37134727Y-37410808D01*
X36791199Y-37268162D01*
X36419233Y-37267838D01*
X36075457Y-37409883D01*
X36034596Y-37450673D01*
X35865027Y-37280808D01*
X35521499Y-37138162D01*
X35149533Y-37137838D01*
X34805757Y-37279883D01*
X34542508Y-37542673D01*
X34399862Y-37886201D01*
X34399538Y-38258167D01*
X26977275Y-38258167D01*
X26977562Y-37928833D01*
X26835517Y-37585057D01*
X26572727Y-37321808D01*
X26229199Y-37179162D01*
X25857233Y-37178838D01*
X25513457Y-37320883D01*
X25250208Y-37583673D01*
X25107562Y-37927201D01*
X25107238Y-38299167D01*
X23368759Y-38299167D01*
X23123827Y-38053808D01*
X22780299Y-37911162D01*
X22408333Y-37910838D01*
X22064557Y-38052883D01*
X21801308Y-38315673D01*
X21658662Y-38659201D01*
X21658338Y-39031167D01*
X9645206Y-39031167D01*
X9838943Y-38951117D01*
X10102192Y-38688327D01*
X10244838Y-38344799D01*
X10245162Y-37972833D01*
X10103117Y-37629057D01*
X9840327Y-37365808D01*
X9496799Y-37223162D01*
X9124833Y-37222838D01*
X8781057Y-37364883D01*
X8517808Y-37627673D01*
X8375162Y-37971201D01*
X8374838Y-38343167D01*
X947000Y-38343167D01*
X947000Y-35658000D01*
X2127000Y-35658000D01*
X2281905Y-36436761D01*
X2723038Y-37096962D01*
X3383239Y-37538095D01*
X4162000Y-37693000D01*
X4940761Y-37538095D01*
X5600962Y-37096962D01*
X5930905Y-36603167D01*
X49966838Y-36603167D01*
X50108883Y-36946943D01*
X50371673Y-37210192D01*
X50715201Y-37352838D01*
X51087167Y-37353162D01*
X51430943Y-37211117D01*
X51694192Y-36948327D01*
X51761942Y-36785167D01*
X55024838Y-36785167D01*
X55166883Y-37128943D01*
X55429673Y-37392192D01*
X55773201Y-37534838D01*
X56145167Y-37535162D01*
X56488943Y-37393117D01*
X56752192Y-37130327D01*
X56894838Y-36786799D01*
X56895162Y-36414833D01*
X56753117Y-36071057D01*
X56490327Y-35807808D01*
X56146799Y-35665162D01*
X55774833Y-35664838D01*
X55431057Y-35806883D01*
X55167808Y-36069673D01*
X55025162Y-36413201D01*
X55024838Y-36785167D01*
X51761942Y-36785167D01*
X51836838Y-36604799D01*
X51837162Y-36232833D01*
X51695117Y-35889057D01*
X51432327Y-35625808D01*
X51098445Y-35487167D01*
X59105838Y-35487167D01*
X59247883Y-35830943D01*
X59510673Y-36094192D01*
X59854201Y-36236838D01*
X60226167Y-36237162D01*
X60569943Y-36095117D01*
X60833192Y-35832327D01*
X60905579Y-35658000D01*
X79127000Y-35658000D01*
X79281905Y-36436761D01*
X79723038Y-37096962D01*
X80383239Y-37538095D01*
X81162000Y-37693000D01*
X81940761Y-37538095D01*
X82600962Y-37096962D01*
X83042095Y-36436761D01*
X83197000Y-35658000D01*
X83042095Y-34879239D01*
X82600962Y-34219038D01*
X81940761Y-33777905D01*
X81162000Y-33623000D01*
X80383239Y-33777905D01*
X79723038Y-34219038D01*
X79281905Y-34879239D01*
X79127000Y-35658000D01*
X60905579Y-35658000D01*
X60975838Y-35488799D01*
X60976162Y-35116833D01*
X60880440Y-34885167D01*
X74364838Y-34885167D01*
X74506883Y-35228943D01*
X74769673Y-35492192D01*
X75113201Y-35634838D01*
X75485167Y-35635162D01*
X75828943Y-35493117D01*
X76092192Y-35230327D01*
X76234838Y-34886799D01*
X76235162Y-34514833D01*
X76093117Y-34171057D01*
X75830327Y-33907808D01*
X75486799Y-33765162D01*
X75114833Y-33764838D01*
X74771057Y-33906883D01*
X74507808Y-34169673D01*
X74365162Y-34513201D01*
X74364838Y-34885167D01*
X60880440Y-34885167D01*
X60834117Y-34773057D01*
X60571327Y-34509808D01*
X60227799Y-34367162D01*
X59855833Y-34366838D01*
X59512057Y-34508883D01*
X59248808Y-34771673D01*
X59106162Y-35115201D01*
X59105838Y-35487167D01*
X51098445Y-35487167D01*
X51088799Y-35483162D01*
X50716833Y-35482838D01*
X50373057Y-35624883D01*
X50109808Y-35887673D01*
X49967162Y-36231201D01*
X49966838Y-36603167D01*
X5930905Y-36603167D01*
X6042095Y-36436761D01*
X6197000Y-35658000D01*
X6072515Y-35032167D01*
X25103638Y-35032167D01*
X25245683Y-35375943D01*
X25508473Y-35639192D01*
X25852001Y-35781838D01*
X26223967Y-35782162D01*
X26567743Y-35640117D01*
X26830992Y-35377327D01*
X26973638Y-35033799D01*
X26973962Y-34661833D01*
X26831917Y-34318057D01*
X26569127Y-34054808D01*
X26406231Y-33987167D01*
X36525138Y-33987167D01*
X36667183Y-34330943D01*
X36929973Y-34594192D01*
X37273501Y-34736838D01*
X37645467Y-34737162D01*
X37989243Y-34595117D01*
X38252492Y-34332327D01*
X38298095Y-34222503D01*
X38339183Y-34321943D01*
X38601973Y-34585192D01*
X38945501Y-34727838D01*
X39144990Y-34728012D01*
X39180083Y-34812943D01*
X39442873Y-35076192D01*
X39786401Y-35218838D01*
X40158367Y-35219162D01*
X40502143Y-35077117D01*
X40765392Y-34814327D01*
X40908038Y-34470799D01*
X40908362Y-34098833D01*
X40766317Y-33755057D01*
X40503527Y-33491808D01*
X40205768Y-33368167D01*
X49453838Y-33368167D01*
X49595883Y-33711943D01*
X49858673Y-33975192D01*
X50202201Y-34117838D01*
X50574167Y-34118162D01*
X50917943Y-33976117D01*
X51151299Y-33743167D01*
X51380838Y-33743167D01*
X51522883Y-34086943D01*
X51785673Y-34350192D01*
X52129201Y-34492838D01*
X52501167Y-34493162D01*
X52844943Y-34351117D01*
X53108192Y-34088327D01*
X53250838Y-33744799D01*
X53251162Y-33372833D01*
X53109117Y-33029057D01*
X52846327Y-32765808D01*
X52502799Y-32623162D01*
X52130833Y-32622838D01*
X51787057Y-32764883D01*
X51523808Y-33027673D01*
X51381162Y-33371201D01*
X51380838Y-33743167D01*
X51151299Y-33743167D01*
X51181192Y-33713327D01*
X51323838Y-33369799D01*
X51324162Y-32997833D01*
X51182117Y-32654057D01*
X50919327Y-32390808D01*
X50575799Y-32248162D01*
X50203833Y-32247838D01*
X49860057Y-32389883D01*
X49596808Y-32652673D01*
X49454162Y-32996201D01*
X49453838Y-33368167D01*
X40205768Y-33368167D01*
X40159999Y-33349162D01*
X39960510Y-33348988D01*
X39925417Y-33264057D01*
X39662627Y-33000808D01*
X39319099Y-32858162D01*
X38947133Y-32857838D01*
X38603357Y-32999883D01*
X38340108Y-33262673D01*
X38294505Y-33372497D01*
X38253417Y-33273057D01*
X37990627Y-33009808D01*
X37647099Y-32867162D01*
X37275133Y-32866838D01*
X36931357Y-33008883D01*
X36668108Y-33271673D01*
X36525462Y-33615201D01*
X36525138Y-33987167D01*
X26406231Y-33987167D01*
X26225599Y-33912162D01*
X25853633Y-33911838D01*
X25509857Y-34053883D01*
X25246608Y-34316673D01*
X25103962Y-34660201D01*
X25103638Y-35032167D01*
X6072515Y-35032167D01*
X6042095Y-34879239D01*
X5600962Y-34219038D01*
X4940761Y-33777905D01*
X4162000Y-33623000D01*
X3383239Y-33777905D01*
X2723038Y-34219038D01*
X2281905Y-34879239D01*
X2127000Y-35658000D01*
X947000Y-35658000D01*
X947000Y-31833167D01*
X29386838Y-31833167D01*
X29528883Y-32176943D01*
X29791673Y-32440192D01*
X30135201Y-32582838D01*
X30507167Y-32583162D01*
X30850943Y-32441117D01*
X31114192Y-32178327D01*
X31256838Y-31834799D01*
X31257162Y-31462833D01*
X31115117Y-31119057D01*
X30852327Y-30855808D01*
X30508799Y-30713162D01*
X30136833Y-30712838D01*
X29793057Y-30854883D01*
X29529808Y-31117673D01*
X29387162Y-31461201D01*
X29386838Y-31833167D01*
X947000Y-31833167D01*
X947000Y-29943167D01*
X39199938Y-29943167D01*
X39341983Y-30286943D01*
X39604773Y-30550192D01*
X39948301Y-30692838D01*
X40320267Y-30693162D01*
X40664043Y-30551117D01*
X40720090Y-30495167D01*
X53284838Y-30495167D01*
X53426883Y-30838943D01*
X53689673Y-31102192D01*
X54033201Y-31244838D01*
X54252220Y-31245029D01*
X54127162Y-31546201D01*
X54126838Y-31918167D01*
X54268883Y-32261943D01*
X54531673Y-32525192D01*
X54875201Y-32667838D01*
X55247167Y-32668162D01*
X55590943Y-32526117D01*
X55674037Y-32443167D01*
X59358838Y-32443167D01*
X59500883Y-32786943D01*
X59763673Y-33050192D01*
X60107201Y-33192838D01*
X60479167Y-33193162D01*
X60822943Y-33051117D01*
X61086192Y-32788327D01*
X61228838Y-32444799D01*
X61228839Y-32443167D01*
X64888838Y-32443167D01*
X65030883Y-32786943D01*
X65293673Y-33050192D01*
X65637201Y-33192838D01*
X66009167Y-33193162D01*
X66352943Y-33051117D01*
X66616192Y-32788327D01*
X66758838Y-32444799D01*
X66759162Y-32072833D01*
X66617117Y-31729057D01*
X66354327Y-31465808D01*
X66010799Y-31323162D01*
X65638833Y-31322838D01*
X65295057Y-31464883D01*
X65031808Y-31727673D01*
X64889162Y-32071201D01*
X64888838Y-32443167D01*
X61228839Y-32443167D01*
X61229162Y-32072833D01*
X61087117Y-31729057D01*
X60824327Y-31465808D01*
X60480799Y-31323162D01*
X60108833Y-31322838D01*
X59765057Y-31464883D01*
X59501808Y-31727673D01*
X59359162Y-32071201D01*
X59358838Y-32443167D01*
X55674037Y-32443167D01*
X55854192Y-32263327D01*
X55996838Y-31919799D01*
X55997004Y-31728990D01*
X56336201Y-31869838D01*
X56708167Y-31870162D01*
X57051943Y-31728117D01*
X57315192Y-31465327D01*
X57457838Y-31121799D01*
X57458162Y-30749833D01*
X57316117Y-30406057D01*
X57053327Y-30142808D01*
X56709799Y-30000162D01*
X56337833Y-29999838D01*
X55994057Y-30141883D01*
X55730808Y-30404673D01*
X55588162Y-30748201D01*
X55587996Y-30939010D01*
X55248799Y-30798162D01*
X55029780Y-30797971D01*
X55154838Y-30496799D01*
X55155162Y-30124833D01*
X55013117Y-29781057D01*
X54750327Y-29517808D01*
X54406799Y-29375162D01*
X54034833Y-29374838D01*
X53691057Y-29516883D01*
X53427808Y-29779673D01*
X53285162Y-30123201D01*
X53284838Y-30495167D01*
X40720090Y-30495167D01*
X40927292Y-30288327D01*
X41069938Y-29944799D01*
X41070262Y-29572833D01*
X40928217Y-29229057D01*
X40665427Y-28965808D01*
X40321899Y-28823162D01*
X39949933Y-28822838D01*
X39606157Y-28964883D01*
X39342908Y-29227673D01*
X39200262Y-29571201D01*
X39199938Y-29943167D01*
X947000Y-29943167D01*
X947000Y-28143167D01*
X50226838Y-28143167D01*
X50368883Y-28486943D01*
X50631673Y-28750192D01*
X50854790Y-28842839D01*
X50769808Y-28927673D01*
X50627162Y-29271201D01*
X50626838Y-29643167D01*
X50768883Y-29986943D01*
X51031673Y-30250192D01*
X51375201Y-30392838D01*
X51747167Y-30393162D01*
X52090943Y-30251117D01*
X52354192Y-29988327D01*
X52496838Y-29644799D01*
X52497162Y-29272833D01*
X52355117Y-28929057D01*
X52322285Y-28896167D01*
X55272838Y-28896167D01*
X55414883Y-29239943D01*
X55677673Y-29503192D01*
X56021201Y-29645838D01*
X56393167Y-29646162D01*
X56736943Y-29504117D01*
X57000192Y-29241327D01*
X57094971Y-29013076D01*
X57331673Y-29250192D01*
X57675201Y-29392838D01*
X58047167Y-29393162D01*
X58168164Y-29343167D01*
X62726838Y-29343167D01*
X62868883Y-29686943D01*
X63131673Y-29950192D01*
X63475201Y-30092838D01*
X63847167Y-30093162D01*
X64190943Y-29951117D01*
X64454192Y-29688327D01*
X64596838Y-29344799D01*
X64597162Y-28972833D01*
X64455117Y-28629057D01*
X64192327Y-28365808D01*
X63904201Y-28246167D01*
X70279838Y-28246167D01*
X70421883Y-28589943D01*
X70684673Y-28853192D01*
X71028201Y-28995838D01*
X71400167Y-28996162D01*
X71743943Y-28854117D01*
X72007192Y-28591327D01*
X72149838Y-28247799D01*
X72150162Y-27875833D01*
X72008117Y-27532057D01*
X71745327Y-27268808D01*
X71401799Y-27126162D01*
X71029833Y-27125838D01*
X70686057Y-27267883D01*
X70422808Y-27530673D01*
X70280162Y-27874201D01*
X70279838Y-28246167D01*
X63904201Y-28246167D01*
X63848799Y-28223162D01*
X63476833Y-28222838D01*
X63133057Y-28364883D01*
X62869808Y-28627673D01*
X62727162Y-28971201D01*
X62726838Y-29343167D01*
X58168164Y-29343167D01*
X58390943Y-29251117D01*
X58654192Y-28988327D01*
X58796838Y-28644799D01*
X58797162Y-28272833D01*
X58655117Y-27929057D01*
X58392327Y-27665808D01*
X58048799Y-27523162D01*
X57676833Y-27522838D01*
X57333057Y-27664883D01*
X57069808Y-27927673D01*
X56975029Y-28155924D01*
X56738327Y-27918808D01*
X56394799Y-27776162D01*
X56022833Y-27775838D01*
X55679057Y-27917883D01*
X55415808Y-28180673D01*
X55273162Y-28524201D01*
X55272838Y-28896167D01*
X52322285Y-28896167D01*
X52092327Y-28665808D01*
X51869210Y-28573161D01*
X51954192Y-28488327D01*
X52096838Y-28144799D01*
X52097162Y-27772833D01*
X51955117Y-27429057D01*
X51692327Y-27165808D01*
X51348799Y-27023162D01*
X50976833Y-27022838D01*
X50633057Y-27164883D01*
X50369808Y-27427673D01*
X50227162Y-27771201D01*
X50226838Y-28143167D01*
X947000Y-28143167D01*
X947000Y-26443167D01*
X34826838Y-26443167D01*
X34968883Y-26786943D01*
X35231673Y-27050192D01*
X35575201Y-27192838D01*
X35947167Y-27193162D01*
X36290943Y-27051117D01*
X36554192Y-26788327D01*
X36696838Y-26444799D01*
X36696839Y-26443167D01*
X38826838Y-26443167D01*
X38968883Y-26786943D01*
X39231673Y-27050192D01*
X39575201Y-27192838D01*
X39947167Y-27193162D01*
X40290943Y-27051117D01*
X40554192Y-26788327D01*
X40696838Y-26444799D01*
X40697162Y-26072833D01*
X40560948Y-25743167D01*
X62626838Y-25743167D01*
X62768883Y-26086943D01*
X63031673Y-26350192D01*
X63375201Y-26492838D01*
X63747167Y-26493162D01*
X64090943Y-26351117D01*
X64354192Y-26088327D01*
X64496838Y-25744799D01*
X64497162Y-25372833D01*
X64355117Y-25029057D01*
X64092327Y-24765808D01*
X63748799Y-24623162D01*
X63376833Y-24622838D01*
X63033057Y-24764883D01*
X62769808Y-25027673D01*
X62627162Y-25371201D01*
X62626838Y-25743167D01*
X40560948Y-25743167D01*
X40555117Y-25729057D01*
X40292327Y-25465808D01*
X39948799Y-25323162D01*
X39576833Y-25322838D01*
X39233057Y-25464883D01*
X38969808Y-25727673D01*
X38827162Y-26071201D01*
X38826838Y-26443167D01*
X36696839Y-26443167D01*
X36697162Y-26072833D01*
X36555117Y-25729057D01*
X36292327Y-25465808D01*
X35948799Y-25323162D01*
X35576833Y-25322838D01*
X35233057Y-25464883D01*
X34969808Y-25727673D01*
X34827162Y-26071201D01*
X34826838Y-26443167D01*
X947000Y-26443167D01*
X947000Y-24643167D01*
X29526838Y-24643167D01*
X29668883Y-24986943D01*
X29931673Y-25250192D01*
X30275201Y-25392838D01*
X30647167Y-25393162D01*
X30990943Y-25251117D01*
X31254192Y-24988327D01*
X31396838Y-24644799D01*
X31396839Y-24643167D01*
X40406838Y-24643167D01*
X40548883Y-24986943D01*
X40811673Y-25250192D01*
X41155201Y-25392838D01*
X41527167Y-25393162D01*
X41870943Y-25251117D01*
X42134192Y-24988327D01*
X42260567Y-24683984D01*
X42318673Y-24742192D01*
X42662201Y-24884838D01*
X43034167Y-24885162D01*
X43377943Y-24743117D01*
X43641192Y-24480327D01*
X43698146Y-24343167D01*
X50264838Y-24343167D01*
X50406883Y-24686943D01*
X50669673Y-24950192D01*
X51013201Y-25092838D01*
X51385167Y-25093162D01*
X51728943Y-24951117D01*
X51992192Y-24688327D01*
X52134838Y-24344799D01*
X52135122Y-24018167D01*
X74351838Y-24018167D01*
X74493883Y-24361943D01*
X74756673Y-24625192D01*
X75100201Y-24767838D01*
X75472167Y-24768162D01*
X75815943Y-24626117D01*
X76079192Y-24363327D01*
X76221838Y-24019799D01*
X76222162Y-23647833D01*
X76080117Y-23304057D01*
X75817327Y-23040808D01*
X75473799Y-22898162D01*
X75101833Y-22897838D01*
X74758057Y-23039883D01*
X74494808Y-23302673D01*
X74352162Y-23646201D01*
X74351838Y-24018167D01*
X52135122Y-24018167D01*
X52135162Y-23972833D01*
X51993117Y-23629057D01*
X51730327Y-23365808D01*
X51386799Y-23223162D01*
X51014833Y-23222838D01*
X50671057Y-23364883D01*
X50407808Y-23627673D01*
X50265162Y-23971201D01*
X50264838Y-24343167D01*
X43698146Y-24343167D01*
X43783838Y-24136799D01*
X43784162Y-23764833D01*
X43642117Y-23421057D01*
X43431954Y-23210527D01*
X43454192Y-23188327D01*
X43596838Y-22844799D01*
X43597162Y-22472833D01*
X43455117Y-22129057D01*
X43192327Y-21865808D01*
X42848799Y-21723162D01*
X42476833Y-21722838D01*
X42133057Y-21864883D01*
X41869808Y-22127673D01*
X41727162Y-22471201D01*
X41726838Y-22843167D01*
X41868883Y-23186943D01*
X42079046Y-23397473D01*
X42056808Y-23419673D01*
X41930433Y-23724016D01*
X41872327Y-23665808D01*
X41528799Y-23523162D01*
X41156833Y-23522838D01*
X40813057Y-23664883D01*
X40549808Y-23927673D01*
X40407162Y-24271201D01*
X40406838Y-24643167D01*
X31396839Y-24643167D01*
X31397162Y-24272833D01*
X31255117Y-23929057D01*
X30992327Y-23665808D01*
X30648799Y-23523162D01*
X30276833Y-23522838D01*
X29933057Y-23664883D01*
X29669808Y-23927673D01*
X29527162Y-24271201D01*
X29526838Y-24643167D01*
X947000Y-24643167D01*
X947000Y-23443167D01*
X16726838Y-23443167D01*
X16868883Y-23786943D01*
X17131673Y-24050192D01*
X17475201Y-24192838D01*
X17847167Y-24193162D01*
X18190943Y-24051117D01*
X18454192Y-23788327D01*
X18596838Y-23444799D01*
X18596926Y-23343167D01*
X26576838Y-23343167D01*
X26718883Y-23686943D01*
X26981673Y-23950192D01*
X27325201Y-24092838D01*
X27697167Y-24093162D01*
X28040943Y-23951117D01*
X28304192Y-23688327D01*
X28446838Y-23344799D01*
X28447162Y-22972833D01*
X28305117Y-22629057D01*
X28042327Y-22365808D01*
X27698799Y-22223162D01*
X27326833Y-22222838D01*
X26983057Y-22364883D01*
X26719808Y-22627673D01*
X26577162Y-22971201D01*
X26576838Y-23343167D01*
X18596926Y-23343167D01*
X18597162Y-23072833D01*
X18455117Y-22729057D01*
X18192327Y-22465808D01*
X17848799Y-22323162D01*
X17476833Y-22322838D01*
X17133057Y-22464883D01*
X16869808Y-22727673D01*
X16727162Y-23071201D01*
X16726838Y-23443167D01*
X947000Y-23443167D01*
X947000Y-21203167D01*
X20426838Y-21203167D01*
X20568883Y-21546943D01*
X20831673Y-21810192D01*
X21175201Y-21952838D01*
X21547167Y-21953162D01*
X21890943Y-21811117D01*
X22154192Y-21548327D01*
X22296838Y-21204799D01*
X22297152Y-20843167D01*
X22626838Y-20843167D01*
X22768883Y-21186943D01*
X23031673Y-21450192D01*
X23375201Y-21592838D01*
X23496004Y-21592943D01*
X23355962Y-21930201D01*
X23355638Y-22302167D01*
X23497683Y-22645943D01*
X23760473Y-22909192D01*
X24104001Y-23051838D01*
X24475967Y-23052162D01*
X24819743Y-22910117D01*
X25082992Y-22647327D01*
X25225638Y-22303799D01*
X25225777Y-22143167D01*
X31126838Y-22143167D01*
X31268883Y-22486943D01*
X31531673Y-22750192D01*
X31875201Y-22892838D01*
X32247167Y-22893162D01*
X32590943Y-22751117D01*
X32854192Y-22488327D01*
X32996838Y-22144799D01*
X32997162Y-21772833D01*
X32855117Y-21429057D01*
X32592327Y-21165808D01*
X32248799Y-21023162D01*
X31876833Y-21022838D01*
X31533057Y-21164883D01*
X31269808Y-21427673D01*
X31127162Y-21771201D01*
X31126838Y-22143167D01*
X25225777Y-22143167D01*
X25225962Y-21931833D01*
X25083917Y-21588057D01*
X24821127Y-21324808D01*
X24477599Y-21182162D01*
X24356796Y-21182057D01*
X24496838Y-20844799D01*
X24497013Y-20643167D01*
X52351838Y-20643167D01*
X52493883Y-20986943D01*
X52756673Y-21250192D01*
X53100201Y-21392838D01*
X53472167Y-21393162D01*
X53815943Y-21251117D01*
X54079192Y-20988327D01*
X54221838Y-20644799D01*
X54222151Y-20285167D01*
X70664838Y-20285167D01*
X70806883Y-20628943D01*
X71069673Y-20892192D01*
X71413201Y-21034838D01*
X71785167Y-21035162D01*
X72128943Y-20893117D01*
X72392192Y-20630327D01*
X72534838Y-20286799D01*
X72534839Y-20285167D01*
X75564838Y-20285167D01*
X75706883Y-20628943D01*
X75969673Y-20892192D01*
X76313201Y-21034838D01*
X76685167Y-21035162D01*
X77028943Y-20893117D01*
X77292192Y-20630327D01*
X77434838Y-20286799D01*
X77435162Y-19914833D01*
X77293117Y-19571057D01*
X77030327Y-19307808D01*
X76686799Y-19165162D01*
X76314833Y-19164838D01*
X75971057Y-19306883D01*
X75707808Y-19569673D01*
X75565162Y-19913201D01*
X75564838Y-20285167D01*
X72534839Y-20285167D01*
X72535162Y-19914833D01*
X72393117Y-19571057D01*
X72130327Y-19307808D01*
X71786799Y-19165162D01*
X71414833Y-19164838D01*
X71071057Y-19306883D01*
X70807808Y-19569673D01*
X70665162Y-19913201D01*
X70664838Y-20285167D01*
X54222151Y-20285167D01*
X54222162Y-20272833D01*
X54080117Y-19929057D01*
X53817327Y-19665808D01*
X53473799Y-19523162D01*
X53101833Y-19522838D01*
X52758057Y-19664883D01*
X52494808Y-19927673D01*
X52352162Y-20271201D01*
X52351838Y-20643167D01*
X24497013Y-20643167D01*
X24497162Y-20472833D01*
X24355117Y-20129057D01*
X24092327Y-19865808D01*
X23919798Y-19794167D01*
X40958638Y-19794167D01*
X41100683Y-20137943D01*
X41363473Y-20401192D01*
X41707001Y-20543838D01*
X42078967Y-20544162D01*
X42422743Y-20402117D01*
X42685992Y-20139327D01*
X42828638Y-19795799D01*
X42828962Y-19423833D01*
X42816292Y-19393167D01*
X46176838Y-19393167D01*
X46318883Y-19736943D01*
X46581673Y-20000192D01*
X46925201Y-20142838D01*
X47297167Y-20143162D01*
X47640943Y-20001117D01*
X47904192Y-19738327D01*
X48046838Y-19394799D01*
X48046846Y-19385167D01*
X65264838Y-19385167D01*
X65406883Y-19728943D01*
X65669673Y-19992192D01*
X66013201Y-20134838D01*
X66385167Y-20135162D01*
X66728943Y-19993117D01*
X66992192Y-19730327D01*
X67134838Y-19386799D01*
X67135162Y-19014833D01*
X66993117Y-18671057D01*
X66730327Y-18407808D01*
X66386799Y-18265162D01*
X66014833Y-18264838D01*
X65671057Y-18406883D01*
X65407808Y-18669673D01*
X65265162Y-19013201D01*
X65264838Y-19385167D01*
X48046846Y-19385167D01*
X48047162Y-19022833D01*
X47905117Y-18679057D01*
X47642327Y-18415808D01*
X47298799Y-18273162D01*
X46926833Y-18272838D01*
X46583057Y-18414883D01*
X46319808Y-18677673D01*
X46177162Y-19021201D01*
X46176838Y-19393167D01*
X42816292Y-19393167D01*
X42686917Y-19080057D01*
X42424127Y-18816808D01*
X42080599Y-18674162D01*
X41708633Y-18673838D01*
X41364857Y-18815883D01*
X41101608Y-19078673D01*
X40958962Y-19422201D01*
X40958638Y-19794167D01*
X23919798Y-19794167D01*
X23748799Y-19723162D01*
X23376833Y-19722838D01*
X23033057Y-19864883D01*
X22769808Y-20127673D01*
X22627162Y-20471201D01*
X22626838Y-20843167D01*
X22297152Y-20843167D01*
X22297162Y-20832833D01*
X22155117Y-20489057D01*
X21892327Y-20225808D01*
X21548799Y-20083162D01*
X21176833Y-20082838D01*
X20833057Y-20224883D01*
X20569808Y-20487673D01*
X20427162Y-20831201D01*
X20426838Y-21203167D01*
X947000Y-21203167D01*
X947000Y-20263167D01*
X17606838Y-20263167D01*
X17748883Y-20606943D01*
X18011673Y-20870192D01*
X18355201Y-21012838D01*
X18727167Y-21013162D01*
X19070943Y-20871117D01*
X19334192Y-20608327D01*
X19476838Y-20264799D01*
X19477162Y-19892833D01*
X19335117Y-19549057D01*
X19072327Y-19285808D01*
X18728799Y-19143162D01*
X18356833Y-19142838D01*
X18013057Y-19284883D01*
X17749808Y-19547673D01*
X17607162Y-19891201D01*
X17606838Y-20263167D01*
X947000Y-20263167D01*
X947000Y-17861167D01*
X15812338Y-17861167D01*
X15954383Y-18204943D01*
X16217173Y-18468192D01*
X16560701Y-18610838D01*
X16932667Y-18611162D01*
X17097227Y-18543167D01*
X27776838Y-18543167D01*
X27918883Y-18886943D01*
X28181673Y-19150192D01*
X28525201Y-19292838D01*
X28897167Y-19293162D01*
X29240943Y-19151117D01*
X29504192Y-18888327D01*
X29646838Y-18544799D01*
X29647162Y-18172833D01*
X29505117Y-17829057D01*
X29319552Y-17643167D01*
X41926838Y-17643167D01*
X42068883Y-17986943D01*
X42331673Y-18250192D01*
X42675201Y-18392838D01*
X43047167Y-18393162D01*
X43390943Y-18251117D01*
X43654192Y-17988327D01*
X43683325Y-17918167D01*
X50851838Y-17918167D01*
X50993883Y-18261943D01*
X51256673Y-18525192D01*
X51600201Y-18667838D01*
X51972167Y-18668162D01*
X52315943Y-18526117D01*
X52579192Y-18263327D01*
X52721838Y-17919799D01*
X52722162Y-17547833D01*
X52580117Y-17204057D01*
X52317327Y-16940808D01*
X52082183Y-16843167D01*
X55026838Y-16843167D01*
X55168883Y-17186943D01*
X55431673Y-17450192D01*
X55775201Y-17592838D01*
X56147167Y-17593162D01*
X56490943Y-17451117D01*
X56754192Y-17188327D01*
X56896838Y-16844799D01*
X56897162Y-16472833D01*
X56755117Y-16129057D01*
X56492327Y-15865808D01*
X56148799Y-15723162D01*
X55776833Y-15722838D01*
X55433057Y-15864883D01*
X55169808Y-16127673D01*
X55027162Y-16471201D01*
X55026838Y-16843167D01*
X52082183Y-16843167D01*
X51973799Y-16798162D01*
X51601833Y-16797838D01*
X51258057Y-16939883D01*
X50994808Y-17202673D01*
X50852162Y-17546201D01*
X50851838Y-17918167D01*
X43683325Y-17918167D01*
X43796838Y-17644799D01*
X43797162Y-17272833D01*
X43655117Y-16929057D01*
X43392327Y-16665808D01*
X43048799Y-16523162D01*
X42676833Y-16522838D01*
X42333057Y-16664883D01*
X42069808Y-16927673D01*
X41927162Y-17271201D01*
X41926838Y-17643167D01*
X29319552Y-17643167D01*
X29242327Y-17565808D01*
X28898799Y-17423162D01*
X28526833Y-17422838D01*
X28183057Y-17564883D01*
X27919808Y-17827673D01*
X27777162Y-18171201D01*
X27776838Y-18543167D01*
X17097227Y-18543167D01*
X17276443Y-18469117D01*
X17539692Y-18206327D01*
X17682338Y-17862799D01*
X17682662Y-17490833D01*
X17600970Y-17293122D01*
X17647167Y-17293162D01*
X17990943Y-17151117D01*
X18254192Y-16888327D01*
X18314467Y-16743167D01*
X21926838Y-16743167D01*
X22068883Y-17086943D01*
X22331673Y-17350192D01*
X22675201Y-17492838D01*
X23047167Y-17493162D01*
X23390943Y-17351117D01*
X23654192Y-17088327D01*
X23796838Y-16744799D01*
X23796841Y-16741167D01*
X25217238Y-16741167D01*
X25359283Y-17084943D01*
X25622073Y-17348192D01*
X25965601Y-17490838D01*
X26337567Y-17491162D01*
X26681343Y-17349117D01*
X26944592Y-17086327D01*
X27087238Y-16742799D01*
X27087562Y-16370833D01*
X26945517Y-16027057D01*
X26682727Y-15763808D01*
X26339199Y-15621162D01*
X25967233Y-15620838D01*
X25623457Y-15762883D01*
X25360208Y-16025673D01*
X25217562Y-16369201D01*
X25217238Y-16741167D01*
X23796841Y-16741167D01*
X23797162Y-16372833D01*
X23655117Y-16029057D01*
X23392327Y-15765808D01*
X23048799Y-15623162D01*
X22676833Y-15622838D01*
X22333057Y-15764883D01*
X22069808Y-16027673D01*
X21927162Y-16371201D01*
X21926838Y-16743167D01*
X18314467Y-16743167D01*
X18396838Y-16544799D01*
X18396979Y-16383127D01*
X18436867Y-16383162D01*
X18780643Y-16241117D01*
X19043892Y-15978327D01*
X19137387Y-15753167D01*
X20006838Y-15753167D01*
X20148883Y-16096943D01*
X20411673Y-16360192D01*
X20755201Y-16502838D01*
X21127167Y-16503162D01*
X21470943Y-16361117D01*
X21734192Y-16098327D01*
X21876838Y-15754799D01*
X21877162Y-15382833D01*
X21778135Y-15143167D01*
X27426838Y-15143167D01*
X27568883Y-15486943D01*
X27831673Y-15750192D01*
X28175201Y-15892838D01*
X28547167Y-15893162D01*
X28890943Y-15751117D01*
X29154192Y-15488327D01*
X29196844Y-15385609D01*
X29520101Y-15519838D01*
X29892067Y-15520162D01*
X30235843Y-15378117D01*
X30499092Y-15115327D01*
X30641738Y-14771799D01*
X30642062Y-14399833D01*
X30500017Y-14056057D01*
X30237227Y-13792808D01*
X29893699Y-13650162D01*
X29521733Y-13649838D01*
X29177957Y-13791883D01*
X28914708Y-14054673D01*
X28872056Y-14157391D01*
X28548799Y-14023162D01*
X28176833Y-14022838D01*
X27833057Y-14164883D01*
X27569808Y-14427673D01*
X27427162Y-14771201D01*
X27426838Y-15143167D01*
X21778135Y-15143167D01*
X21735117Y-15039057D01*
X21472327Y-14775808D01*
X21128799Y-14633162D01*
X20756833Y-14632838D01*
X20413057Y-14774883D01*
X20149808Y-15037673D01*
X20007162Y-15381201D01*
X20006838Y-15753167D01*
X19137387Y-15753167D01*
X19186538Y-15634799D01*
X19186862Y-15262833D01*
X19044817Y-14919057D01*
X18782027Y-14655808D01*
X18438499Y-14513162D01*
X18066533Y-14512838D01*
X17722757Y-14654883D01*
X17459508Y-14917673D01*
X17316862Y-15261201D01*
X17316721Y-15422873D01*
X17276833Y-15422838D01*
X16933057Y-15564883D01*
X16669808Y-15827673D01*
X16527162Y-16171201D01*
X16526838Y-16543167D01*
X16608530Y-16740878D01*
X16562333Y-16740838D01*
X16218557Y-16882883D01*
X15955308Y-17145673D01*
X15812662Y-17489201D01*
X15812338Y-17861167D01*
X947000Y-17861167D01*
X947000Y-15543167D01*
X12326838Y-15543167D01*
X12468883Y-15886943D01*
X12731673Y-16150192D01*
X13075201Y-16292838D01*
X13447167Y-16293162D01*
X13790943Y-16151117D01*
X14054192Y-15888327D01*
X14196838Y-15544799D01*
X14197162Y-15172833D01*
X14055117Y-14829057D01*
X13792327Y-14565808D01*
X13448799Y-14423162D01*
X13076833Y-14422838D01*
X12733057Y-14564883D01*
X12469808Y-14827673D01*
X12327162Y-15171201D01*
X12326838Y-15543167D01*
X947000Y-15543167D01*
X947000Y-13874167D01*
X5373038Y-13874167D01*
X5515083Y-14217943D01*
X5777873Y-14481192D01*
X6121401Y-14623838D01*
X6493367Y-14624162D01*
X6837143Y-14482117D01*
X7100392Y-14219327D01*
X7243038Y-13875799D01*
X7243148Y-13749167D01*
X24542138Y-13749167D01*
X24684183Y-14092943D01*
X24946973Y-14356192D01*
X25290501Y-14498838D01*
X25333972Y-14498876D01*
X25383583Y-14618943D01*
X25646373Y-14882192D01*
X25989901Y-15024838D01*
X26361867Y-15025162D01*
X26705643Y-14883117D01*
X26968892Y-14620327D01*
X27111538Y-14276799D01*
X27111862Y-13904833D01*
X26969817Y-13561057D01*
X26707027Y-13297808D01*
X26363499Y-13155162D01*
X26320028Y-13155124D01*
X26290296Y-13083167D01*
X44774338Y-13083167D01*
X44916383Y-13426943D01*
X45179173Y-13690192D01*
X45522701Y-13832838D01*
X45894667Y-13833162D01*
X46238443Y-13691117D01*
X46501692Y-13428327D01*
X46644338Y-13084799D01*
X46644662Y-12712833D01*
X46539024Y-12457167D01*
X46615438Y-12457167D01*
X46757483Y-12800943D01*
X47020273Y-13064192D01*
X47363801Y-13206838D01*
X47735767Y-13207162D01*
X47953705Y-13117112D01*
X48086683Y-13438943D01*
X48349473Y-13702192D01*
X48693001Y-13844838D01*
X49064967Y-13845162D01*
X49391765Y-13710132D01*
X49421773Y-13740192D01*
X49765301Y-13882838D01*
X50137267Y-13883162D01*
X50234062Y-13843167D01*
X53626838Y-13843167D01*
X53768883Y-14186943D01*
X54031673Y-14450192D01*
X54375201Y-14592838D01*
X54747167Y-14593162D01*
X55090943Y-14451117D01*
X55354192Y-14188327D01*
X55414467Y-14043167D01*
X56126838Y-14043167D01*
X56268883Y-14386943D01*
X56531673Y-14650192D01*
X56875201Y-14792838D01*
X57247167Y-14793162D01*
X57590943Y-14651117D01*
X57854192Y-14388327D01*
X57996838Y-14044799D01*
X57997162Y-13672833D01*
X57855117Y-13329057D01*
X57592327Y-13065808D01*
X57248799Y-12923162D01*
X56876833Y-12922838D01*
X56533057Y-13064883D01*
X56269808Y-13327673D01*
X56127162Y-13671201D01*
X56126838Y-14043167D01*
X55414467Y-14043167D01*
X55496838Y-13844799D01*
X55497162Y-13472833D01*
X55355117Y-13129057D01*
X55092327Y-12865808D01*
X54748799Y-12723162D01*
X54376833Y-12722838D01*
X54033057Y-12864883D01*
X53769808Y-13127673D01*
X53627162Y-13471201D01*
X53626838Y-13843167D01*
X50234062Y-13843167D01*
X50481043Y-13741117D01*
X50744292Y-13478327D01*
X50886938Y-13134799D01*
X50887262Y-12762833D01*
X50745217Y-12419057D01*
X50482427Y-12155808D01*
X50331572Y-12093167D01*
X57826838Y-12093167D01*
X57968883Y-12436943D01*
X58231673Y-12700192D01*
X58575201Y-12842838D01*
X58947167Y-12843162D01*
X59290943Y-12701117D01*
X59554192Y-12438327D01*
X59696838Y-12094799D01*
X59696846Y-12085167D01*
X65164838Y-12085167D01*
X65306883Y-12428943D01*
X65569673Y-12692192D01*
X65913201Y-12834838D01*
X66285167Y-12835162D01*
X66406164Y-12785167D01*
X70564838Y-12785167D01*
X70706883Y-13128943D01*
X70969673Y-13392192D01*
X71313201Y-13534838D01*
X71685167Y-13535162D01*
X72028943Y-13393117D01*
X72292192Y-13130327D01*
X72434838Y-12786799D01*
X72434839Y-12785167D01*
X75464838Y-12785167D01*
X75606883Y-13128943D01*
X75869673Y-13392192D01*
X76213201Y-13534838D01*
X76585167Y-13535162D01*
X76928943Y-13393117D01*
X77192192Y-13130327D01*
X77334838Y-12786799D01*
X77335162Y-12414833D01*
X77193117Y-12071057D01*
X76930327Y-11807808D01*
X76586799Y-11665162D01*
X76214833Y-11664838D01*
X75871057Y-11806883D01*
X75607808Y-12069673D01*
X75465162Y-12413201D01*
X75464838Y-12785167D01*
X72434839Y-12785167D01*
X72435162Y-12414833D01*
X72293117Y-12071057D01*
X72030327Y-11807808D01*
X71686799Y-11665162D01*
X71314833Y-11664838D01*
X70971057Y-11806883D01*
X70707808Y-12069673D01*
X70565162Y-12413201D01*
X70564838Y-12785167D01*
X66406164Y-12785167D01*
X66628943Y-12693117D01*
X66892192Y-12430327D01*
X67034838Y-12086799D01*
X67035162Y-11714833D01*
X66893117Y-11371057D01*
X66630327Y-11107808D01*
X66286799Y-10965162D01*
X65914833Y-10964838D01*
X65571057Y-11106883D01*
X65307808Y-11369673D01*
X65165162Y-11713201D01*
X65164838Y-12085167D01*
X59696846Y-12085167D01*
X59697162Y-11722833D01*
X59555117Y-11379057D01*
X59292327Y-11115808D01*
X58948799Y-10973162D01*
X58576833Y-10972838D01*
X58233057Y-11114883D01*
X57969808Y-11377673D01*
X57827162Y-11721201D01*
X57826838Y-12093167D01*
X50331572Y-12093167D01*
X50138899Y-12013162D01*
X49766933Y-12012838D01*
X49440135Y-12147868D01*
X49410127Y-12117808D01*
X49066599Y-11975162D01*
X48694633Y-11974838D01*
X48476695Y-12064888D01*
X48343717Y-11743057D01*
X48080927Y-11479808D01*
X47737399Y-11337162D01*
X47365433Y-11336838D01*
X47021657Y-11478883D01*
X46758408Y-11741673D01*
X46615762Y-12085201D01*
X46615438Y-12457167D01*
X46539024Y-12457167D01*
X46502617Y-12369057D01*
X46239827Y-12105808D01*
X45896299Y-11963162D01*
X45524333Y-11962838D01*
X45180557Y-12104883D01*
X44917308Y-12367673D01*
X44774662Y-12711201D01*
X44774338Y-13083167D01*
X26290296Y-13083167D01*
X26270417Y-13035057D01*
X26007627Y-12771808D01*
X25664099Y-12629162D01*
X25292133Y-12628838D01*
X24948357Y-12770883D01*
X24685108Y-13033673D01*
X24542462Y-13377201D01*
X24542138Y-13749167D01*
X7243148Y-13749167D01*
X7243362Y-13503833D01*
X7101317Y-13160057D01*
X6838527Y-12896808D01*
X6494999Y-12754162D01*
X6123033Y-12753838D01*
X5779257Y-12895883D01*
X5516008Y-13158673D01*
X5373362Y-13502201D01*
X5373038Y-13874167D01*
X947000Y-13874167D01*
X947000Y-11935167D01*
X17886638Y-11935167D01*
X18028683Y-12278943D01*
X18291473Y-12542192D01*
X18635001Y-12684838D01*
X19006967Y-12685162D01*
X19240035Y-12588860D01*
X19351173Y-12700192D01*
X19694701Y-12842838D01*
X20066667Y-12843162D01*
X20410443Y-12701117D01*
X20673692Y-12438327D01*
X20816338Y-12094799D01*
X20816662Y-11722833D01*
X20783745Y-11643167D01*
X25626838Y-11643167D01*
X25768883Y-11986943D01*
X26031673Y-12250192D01*
X26375201Y-12392838D01*
X26747167Y-12393162D01*
X27090943Y-12251117D01*
X27354192Y-11988327D01*
X27496838Y-11644799D01*
X27497162Y-11272833D01*
X27355117Y-10929057D01*
X27092327Y-10665808D01*
X26796977Y-10543167D01*
X38742038Y-10543167D01*
X38884083Y-10886943D01*
X39146873Y-11150192D01*
X39490401Y-11292838D01*
X39862367Y-11293162D01*
X40206143Y-11151117D01*
X40469392Y-10888327D01*
X40612038Y-10544799D01*
X40612362Y-10172833D01*
X40470317Y-9829057D01*
X40207527Y-9565808D01*
X39863999Y-9423162D01*
X39492033Y-9422838D01*
X39148257Y-9564883D01*
X38885008Y-9827673D01*
X38742362Y-10171201D01*
X38742038Y-10543167D01*
X26796977Y-10543167D01*
X26748799Y-10523162D01*
X26376833Y-10522838D01*
X26033057Y-10664883D01*
X25769808Y-10927673D01*
X25627162Y-11271201D01*
X25626838Y-11643167D01*
X20783745Y-11643167D01*
X20674617Y-11379057D01*
X20411827Y-11115808D01*
X20068299Y-10973162D01*
X19696333Y-10972838D01*
X19463265Y-11069140D01*
X19352127Y-10957808D01*
X19008599Y-10815162D01*
X18636633Y-10814838D01*
X18292857Y-10956883D01*
X18029608Y-11219673D01*
X17886962Y-11563201D01*
X17886638Y-11935167D01*
X947000Y-11935167D01*
X947000Y-10625167D01*
X5076838Y-10625167D01*
X5218883Y-10968943D01*
X5481673Y-11232192D01*
X5825201Y-11374838D01*
X6197167Y-11375162D01*
X6540943Y-11233117D01*
X6804192Y-10970327D01*
X6946838Y-10626799D01*
X6947162Y-10254833D01*
X6805117Y-9911057D01*
X6542327Y-9647808D01*
X6198799Y-9505162D01*
X5826833Y-9504838D01*
X5483057Y-9646883D01*
X5219808Y-9909673D01*
X5077162Y-10253201D01*
X5076838Y-10625167D01*
X947000Y-10625167D01*
X947000Y-8971167D01*
X13954238Y-8971167D01*
X14096283Y-9314943D01*
X14359073Y-9578192D01*
X14702601Y-9720838D01*
X15074567Y-9721162D01*
X15418343Y-9579117D01*
X15681592Y-9316327D01*
X15684565Y-9309167D01*
X46749938Y-9309167D01*
X46891983Y-9652943D01*
X47154773Y-9916192D01*
X47498301Y-10058838D01*
X47870267Y-10059162D01*
X48059339Y-9981039D01*
X48184370Y-10066469D01*
X47978808Y-10271673D01*
X47836162Y-10615201D01*
X47835838Y-10987167D01*
X47977883Y-11330943D01*
X48240673Y-11594192D01*
X48584201Y-11736838D01*
X48956167Y-11737162D01*
X49299943Y-11595117D01*
X49563192Y-11332327D01*
X49705838Y-10988799D01*
X49706162Y-10616833D01*
X49564117Y-10273057D01*
X49414362Y-10123040D01*
X50679600Y-10123040D01*
X50914917Y-10078762D01*
X51131041Y-9939690D01*
X51276031Y-9727490D01*
X51311448Y-9552596D01*
X51341238Y-9710917D01*
X51480310Y-9927041D01*
X51692510Y-10072031D01*
X51944400Y-10123040D01*
X54179600Y-10123040D01*
X54414917Y-10078762D01*
X54631041Y-9939690D01*
X54776031Y-9727490D01*
X54811448Y-9552596D01*
X54841238Y-9710917D01*
X54980310Y-9927041D01*
X55192510Y-10072031D01*
X55444400Y-10123040D01*
X57679600Y-10123040D01*
X57914917Y-10078762D01*
X58131041Y-9939690D01*
X58276031Y-9727490D01*
X58327040Y-9475600D01*
X58327040Y-7240400D01*
X58282762Y-7005083D01*
X58143690Y-6788959D01*
X57931490Y-6643969D01*
X57679600Y-6592960D01*
X55444400Y-6592960D01*
X55209083Y-6637238D01*
X54992959Y-6776310D01*
X54847969Y-6988510D01*
X54812552Y-7163404D01*
X54782762Y-7005083D01*
X54643690Y-6788959D01*
X54431490Y-6643969D01*
X54179600Y-6592960D01*
X51944400Y-6592960D01*
X51709083Y-6637238D01*
X51492959Y-6776310D01*
X51347969Y-6988510D01*
X51312552Y-7163404D01*
X51282762Y-7005083D01*
X51143690Y-6788959D01*
X50931490Y-6643969D01*
X50679600Y-6592960D01*
X48444400Y-6592960D01*
X48209083Y-6637238D01*
X47992959Y-6776310D01*
X47847969Y-6988510D01*
X47796960Y-7240400D01*
X47796960Y-8189097D01*
X47499933Y-8188838D01*
X47156157Y-8330883D01*
X46892908Y-8593673D01*
X46750262Y-8937201D01*
X46749938Y-9309167D01*
X15684565Y-9309167D01*
X15824238Y-8972799D01*
X15824562Y-8600833D01*
X15682517Y-8257057D01*
X15419727Y-7993808D01*
X15076199Y-7851162D01*
X14704233Y-7850838D01*
X14360457Y-7992883D01*
X14097208Y-8255673D01*
X13954562Y-8599201D01*
X13954238Y-8971167D01*
X947000Y-8971167D01*
X947000Y-7788167D01*
X5868138Y-7788167D01*
X6010183Y-8131943D01*
X6272973Y-8395192D01*
X6616501Y-8537838D01*
X6988467Y-8538162D01*
X7332243Y-8396117D01*
X7595492Y-8133327D01*
X7650532Y-8000776D01*
X7693873Y-8044192D01*
X8037401Y-8186838D01*
X8409367Y-8187162D01*
X8753143Y-8045117D01*
X9016392Y-7782327D01*
X9159038Y-7438799D01*
X9159362Y-7066833D01*
X9017317Y-6723057D01*
X8754527Y-6459808D01*
X8410999Y-6317162D01*
X8039033Y-6316838D01*
X7695257Y-6458883D01*
X7432008Y-6721673D01*
X7376968Y-6854224D01*
X7333627Y-6810808D01*
X6990099Y-6668162D01*
X6618133Y-6667838D01*
X6274357Y-6809883D01*
X6011108Y-7072673D01*
X5868462Y-7416201D01*
X5868138Y-7788167D01*
X947000Y-7788167D01*
X947000Y-4158000D01*
X2127000Y-4158000D01*
X2281905Y-4936761D01*
X2723038Y-5596962D01*
X3383239Y-6038095D01*
X4162000Y-6193000D01*
X4940761Y-6038095D01*
X5600962Y-5596962D01*
X6039113Y-4941223D01*
X8715035Y-4941223D01*
X8742222Y-5511454D01*
X8908136Y-5912005D01*
X9154255Y-5986139D01*
X9982395Y-5158000D01*
X9154255Y-4329861D01*
X8908136Y-4403995D01*
X8715035Y-4941223D01*
X6039113Y-4941223D01*
X6042095Y-4936761D01*
X6197000Y-4158000D01*
X6042095Y-3379239D01*
X5749422Y-2941223D01*
X8715035Y-2941223D01*
X8742222Y-3511454D01*
X8908136Y-3912005D01*
X9154255Y-3986139D01*
X9982395Y-3158000D01*
X9154255Y-2329861D01*
X8908136Y-2403995D01*
X8715035Y-2941223D01*
X5749422Y-2941223D01*
X5600962Y-2719038D01*
X4940761Y-2277905D01*
X4162000Y-2123000D01*
X3383239Y-2277905D01*
X2723038Y-2719038D01*
X2281905Y-3379239D01*
X2127000Y-4158000D01*
X947000Y-4158000D01*
X947000Y-943000D01*
X6950719Y-943000D01*
X6699308Y-1193973D01*
X6699308Y-1193973D01*
G37*
X6699308Y-1193973D02*
X6556662Y-1537501D01*
X6556338Y-1909467D01*
X6698383Y-2253243D01*
X6961173Y-2516492D01*
X7304701Y-2659138D01*
X7676667Y-2659462D01*
X8020443Y-2517417D01*
X8283692Y-2254627D01*
X8327031Y-2150255D01*
X9333861Y-2150255D01*
X10162000Y-2978395D01*
X10176142Y-2964252D01*
X10355748Y-3143858D01*
X10341605Y-3158000D01*
X10355748Y-3172142D01*
X10176142Y-3351748D01*
X10162000Y-3337605D01*
X9728034Y-3771571D01*
X9407995Y-3904136D01*
X9333861Y-4150255D01*
X9341606Y-4158000D01*
X9333861Y-4165745D01*
X9407995Y-4411864D01*
X9700668Y-4517062D01*
X10162000Y-4978395D01*
X10176143Y-4964253D01*
X10355748Y-5143858D01*
X10341605Y-5158000D01*
X10355748Y-5172142D01*
X10176142Y-5351748D01*
X10162000Y-5337605D01*
X9333861Y-6165745D01*
X9407995Y-6411864D01*
X9945223Y-6604965D01*
X10515454Y-6577778D01*
X10916005Y-6411864D01*
X10990139Y-6165747D01*
X11105014Y-6280622D01*
X11180091Y-6205545D01*
X11348077Y-6373824D01*
X11875309Y-6592750D01*
X12446187Y-6593248D01*
X12973800Y-6375243D01*
X13161974Y-6187397D01*
X13348077Y-6373824D01*
X13875309Y-6592750D01*
X14446187Y-6593248D01*
X14973800Y-6375243D01*
X15161974Y-6187397D01*
X15348077Y-6373824D01*
X15875309Y-6592750D01*
X16446187Y-6593248D01*
X16973800Y-6375243D01*
X17161974Y-6187397D01*
X17348077Y-6373824D01*
X17875309Y-6592750D01*
X18446187Y-6593248D01*
X18973800Y-6375243D01*
X19161974Y-6187397D01*
X19348077Y-6373824D01*
X19875309Y-6592750D01*
X20242652Y-6593070D01*
X20127162Y-6871201D01*
X20126838Y-7243167D01*
X20268883Y-7586943D01*
X20531673Y-7850192D01*
X20875201Y-7992838D01*
X21247167Y-7993162D01*
X21590943Y-7851117D01*
X21854192Y-7588327D01*
X21996838Y-7244799D01*
X21997162Y-6872833D01*
X21881437Y-6592755D01*
X22442580Y-6593245D01*
X22327162Y-6871201D01*
X22326838Y-7243167D01*
X22468883Y-7586943D01*
X22731673Y-7850192D01*
X23075201Y-7992838D01*
X23447167Y-7993162D01*
X23466516Y-7985167D01*
X33364838Y-7985167D01*
X33506883Y-8328943D01*
X33769673Y-8592192D01*
X34113201Y-8734838D01*
X34485167Y-8735162D01*
X34828943Y-8593117D01*
X35092192Y-8330327D01*
X35234838Y-7986799D01*
X35235162Y-7614833D01*
X35093117Y-7271057D01*
X34830327Y-7007808D01*
X34486799Y-6865162D01*
X34114833Y-6864838D01*
X33771057Y-7006883D01*
X33507808Y-7269673D01*
X33365162Y-7613201D01*
X33364838Y-7985167D01*
X23466516Y-7985167D01*
X23790943Y-7851117D01*
X24054192Y-7588327D01*
X24196838Y-7244799D01*
X24197162Y-6872833D01*
X24081509Y-6592930D01*
X24446187Y-6593248D01*
X24973800Y-6375243D01*
X25161974Y-6187397D01*
X25348077Y-6373824D01*
X25875309Y-6592750D01*
X26446187Y-6593248D01*
X26973800Y-6375243D01*
X27161974Y-6187397D01*
X27348077Y-6373824D01*
X27875309Y-6592750D01*
X28446187Y-6593248D01*
X28973800Y-6375243D01*
X29161974Y-6187397D01*
X29348077Y-6373824D01*
X29875309Y-6592750D01*
X30446187Y-6593248D01*
X30973800Y-6375243D01*
X31161974Y-6187397D01*
X31348077Y-6373824D01*
X31875309Y-6592750D01*
X32446187Y-6593248D01*
X32973800Y-6375243D01*
X33161974Y-6187397D01*
X33348077Y-6373824D01*
X33875309Y-6592750D01*
X34446187Y-6593248D01*
X34973800Y-6375243D01*
X35161974Y-6187397D01*
X35348077Y-6373824D01*
X35875309Y-6592750D01*
X36446187Y-6593248D01*
X36973800Y-6375243D01*
X37161974Y-6187397D01*
X37348077Y-6373824D01*
X37875309Y-6592750D01*
X38446187Y-6593248D01*
X38973800Y-6375243D01*
X39161974Y-6187397D01*
X39348077Y-6373824D01*
X39875309Y-6592750D01*
X40446187Y-6593248D01*
X40973800Y-6375243D01*
X41161974Y-6187397D01*
X41348077Y-6373824D01*
X41875309Y-6592750D01*
X42446187Y-6593248D01*
X42973800Y-6375243D01*
X43161974Y-6187397D01*
X43348077Y-6373824D01*
X43875309Y-6592750D01*
X44446187Y-6593248D01*
X44973800Y-6375243D01*
X45161974Y-6187397D01*
X45348077Y-6373824D01*
X45399444Y-6395154D01*
X45371057Y-6406883D01*
X45107808Y-6669673D01*
X44965162Y-7013201D01*
X44964838Y-7385167D01*
X45106883Y-7728943D01*
X45369673Y-7992192D01*
X45713201Y-8134838D01*
X46085167Y-8135162D01*
X46428943Y-7993117D01*
X46692192Y-7730327D01*
X46834838Y-7386799D01*
X46835162Y-7014833D01*
X46693117Y-6671057D01*
X46566017Y-6543735D01*
X46973800Y-6375243D01*
X47143852Y-6205488D01*
X47218986Y-6280622D01*
X47333861Y-6165747D01*
X47407995Y-6411864D01*
X47945223Y-6604965D01*
X48515454Y-6577778D01*
X48916005Y-6411864D01*
X48990139Y-6165745D01*
X48162000Y-5337605D01*
X48147858Y-5351748D01*
X47968253Y-5172143D01*
X47982395Y-5158000D01*
X48341605Y-5158000D01*
X49169745Y-5986139D01*
X49415864Y-5912005D01*
X49608965Y-5374777D01*
X49585908Y-4891167D01*
X51814838Y-4891167D01*
X51956883Y-5234943D01*
X52219673Y-5498192D01*
X52563201Y-5640838D01*
X52935167Y-5641162D01*
X53278943Y-5499117D01*
X53393092Y-5385167D01*
X64464838Y-5385167D01*
X64606883Y-5728943D01*
X64869673Y-5992192D01*
X65213201Y-6134838D01*
X65585167Y-6135162D01*
X65928943Y-5993117D01*
X66192192Y-5730327D01*
X66269908Y-5543167D01*
X69626838Y-5543167D01*
X69768883Y-5886943D01*
X70031673Y-6150192D01*
X70375201Y-6292838D01*
X70747167Y-6293162D01*
X71090943Y-6151117D01*
X71354192Y-5888327D01*
X71496838Y-5544799D01*
X71497162Y-5172833D01*
X71355117Y-4829057D01*
X71092327Y-4565808D01*
X70748799Y-4423162D01*
X70376833Y-4422838D01*
X70033057Y-4564883D01*
X69769808Y-4827673D01*
X69627162Y-5171201D01*
X69626838Y-5543167D01*
X66269908Y-5543167D01*
X66334838Y-5386799D01*
X66335162Y-5014833D01*
X66193117Y-4671057D01*
X65930327Y-4407808D01*
X65776059Y-4343750D01*
X74509400Y-4343750D01*
X74509400Y-5301910D01*
X74606073Y-5535299D01*
X74784702Y-5713927D01*
X75018091Y-5810600D01*
X75976250Y-5810600D01*
X76135000Y-5651850D01*
X76135000Y-4185000D01*
X76389000Y-4185000D01*
X76389000Y-5651850D01*
X76547750Y-5810600D01*
X77505909Y-5810600D01*
X77739298Y-5713927D01*
X77917927Y-5535299D01*
X78014600Y-5301910D01*
X78014600Y-4343750D01*
X77855850Y-4185000D01*
X76389000Y-4185000D01*
X76135000Y-4185000D01*
X74668150Y-4185000D01*
X74509400Y-4343750D01*
X65776059Y-4343750D01*
X65586799Y-4265162D01*
X65214833Y-4264838D01*
X64871057Y-4406883D01*
X64607808Y-4669673D01*
X64465162Y-5013201D01*
X64464838Y-5385167D01*
X53393092Y-5385167D01*
X53542192Y-5236327D01*
X53684838Y-4892799D01*
X53685162Y-4520833D01*
X53552708Y-4200267D01*
X55348838Y-4200267D01*
X55490883Y-4544043D01*
X55753673Y-4807292D01*
X56097201Y-4949938D01*
X56469167Y-4950262D01*
X56812943Y-4808217D01*
X57076192Y-4545427D01*
X57142738Y-4385167D01*
X57264838Y-4385167D01*
X57406883Y-4728943D01*
X57669673Y-4992192D01*
X58013201Y-5134838D01*
X58385167Y-5135162D01*
X58728943Y-4993117D01*
X58992192Y-4730327D01*
X59134838Y-4386799D01*
X59135037Y-4158000D01*
X79127000Y-4158000D01*
X79281905Y-4936761D01*
X79723038Y-5596962D01*
X80383239Y-6038095D01*
X81162000Y-6193000D01*
X81940761Y-6038095D01*
X82600962Y-5596962D01*
X83042095Y-4936761D01*
X83197000Y-4158000D01*
X83042095Y-3379239D01*
X82600962Y-2719038D01*
X81940761Y-2277905D01*
X81162000Y-2123000D01*
X80383239Y-2277905D01*
X79723038Y-2719038D01*
X79281905Y-3379239D01*
X79127000Y-4158000D01*
X59135037Y-4158000D01*
X59135162Y-4014833D01*
X58993117Y-3671057D01*
X58730327Y-3407808D01*
X58386799Y-3265162D01*
X58014833Y-3264838D01*
X57671057Y-3406883D01*
X57407808Y-3669673D01*
X57265162Y-4013201D01*
X57264838Y-4385167D01*
X57142738Y-4385167D01*
X57218838Y-4201899D01*
X57219162Y-3829933D01*
X57077117Y-3486157D01*
X56814327Y-3222908D01*
X56470799Y-3080262D01*
X56098833Y-3079938D01*
X55755057Y-3221983D01*
X55491808Y-3484773D01*
X55349162Y-3828301D01*
X55348838Y-4200267D01*
X53552708Y-4200267D01*
X53543117Y-4177057D01*
X53280327Y-3913808D01*
X52936799Y-3771162D01*
X52564833Y-3770838D01*
X52221057Y-3912883D01*
X51957808Y-4175673D01*
X51815162Y-4519201D01*
X51814838Y-4891167D01*
X49585908Y-4891167D01*
X49581778Y-4804546D01*
X49415864Y-4403995D01*
X49169745Y-4329861D01*
X48341605Y-5158000D01*
X47982395Y-5158000D01*
X47968252Y-5143858D01*
X48147858Y-4964252D01*
X48162000Y-4978395D01*
X48595966Y-4544429D01*
X48916005Y-4411864D01*
X48990139Y-4165745D01*
X48982394Y-4158000D01*
X48990139Y-4150255D01*
X48916005Y-3904136D01*
X48623332Y-3798938D01*
X48162000Y-3337605D01*
X48147858Y-3351748D01*
X47968253Y-3172143D01*
X47982395Y-3158000D01*
X48341605Y-3158000D01*
X49169745Y-3986139D01*
X49415864Y-3912005D01*
X49430055Y-3872525D01*
X49429838Y-4121367D01*
X49571883Y-4465143D01*
X49834673Y-4728392D01*
X50178201Y-4871038D01*
X50550167Y-4871362D01*
X50893943Y-4729317D01*
X51157192Y-4466527D01*
X51299838Y-4122999D01*
X51300162Y-3751033D01*
X51158117Y-3407257D01*
X50895327Y-3144008D01*
X50551799Y-3001362D01*
X50179833Y-3001038D01*
X49836057Y-3143083D01*
X49608738Y-3370006D01*
X49582234Y-2814090D01*
X74509400Y-2814090D01*
X74509400Y-3772250D01*
X74668150Y-3931000D01*
X76135000Y-3931000D01*
X76135000Y-2464150D01*
X76389000Y-2464150D01*
X76389000Y-3931000D01*
X77855850Y-3931000D01*
X78014600Y-3772250D01*
X78014600Y-2814090D01*
X77917927Y-2580701D01*
X77739298Y-2402073D01*
X77505909Y-2305400D01*
X76547750Y-2305400D01*
X76389000Y-2464150D01*
X76135000Y-2464150D01*
X75976250Y-2305400D01*
X75018091Y-2305400D01*
X74784702Y-2402073D01*
X74606073Y-2580701D01*
X74509400Y-2814090D01*
X49582234Y-2814090D01*
X49581778Y-2804546D01*
X49415864Y-2403995D01*
X49169745Y-2329861D01*
X48341605Y-3158000D01*
X47982395Y-3158000D01*
X47968252Y-3143858D01*
X48147858Y-2964252D01*
X48162000Y-2978395D01*
X48990139Y-2150255D01*
X48916005Y-1904136D01*
X48378777Y-1711035D01*
X47808546Y-1738222D01*
X47407995Y-1904136D01*
X47333861Y-2150253D01*
X47218986Y-2035378D01*
X47143909Y-2110455D01*
X46975923Y-1942176D01*
X46448691Y-1723250D01*
X45877813Y-1722752D01*
X45350200Y-1940757D01*
X45162026Y-2128603D01*
X44975923Y-1942176D01*
X44448691Y-1723250D01*
X43877813Y-1722752D01*
X43350200Y-1940757D01*
X43162026Y-2128603D01*
X42975923Y-1942176D01*
X42448691Y-1723250D01*
X41877813Y-1722752D01*
X41350200Y-1940757D01*
X41162026Y-2128603D01*
X40975923Y-1942176D01*
X40448691Y-1723250D01*
X39877813Y-1722752D01*
X39350200Y-1940757D01*
X39162026Y-2128603D01*
X38975923Y-1942176D01*
X38448691Y-1723250D01*
X37877813Y-1722752D01*
X37350200Y-1940757D01*
X37162026Y-2128603D01*
X36975923Y-1942176D01*
X36448691Y-1723250D01*
X35877813Y-1722752D01*
X35350200Y-1940757D01*
X35162026Y-2128603D01*
X34975923Y-1942176D01*
X34448691Y-1723250D01*
X33877813Y-1722752D01*
X33350200Y-1940757D01*
X33162026Y-2128603D01*
X32975923Y-1942176D01*
X32448691Y-1723250D01*
X31877813Y-1722752D01*
X31350200Y-1940757D01*
X31162026Y-2128603D01*
X30975923Y-1942176D01*
X30448691Y-1723250D01*
X29877813Y-1722752D01*
X29350200Y-1940757D01*
X29162026Y-2128603D01*
X28975923Y-1942176D01*
X28448691Y-1723250D01*
X27877813Y-1722752D01*
X27350200Y-1940757D01*
X27162026Y-2128603D01*
X26975923Y-1942176D01*
X26448691Y-1723250D01*
X25877813Y-1722752D01*
X25350200Y-1940757D01*
X25162026Y-2128603D01*
X24975923Y-1942176D01*
X24448691Y-1723250D01*
X23877813Y-1722752D01*
X23350200Y-1940757D01*
X23162026Y-2128603D01*
X22975923Y-1942176D01*
X22448691Y-1723250D01*
X21877813Y-1722752D01*
X21350200Y-1940757D01*
X21162026Y-2128603D01*
X20975923Y-1942176D01*
X20448691Y-1723250D01*
X19877813Y-1722752D01*
X19350200Y-1940757D01*
X19162026Y-2128603D01*
X18975923Y-1942176D01*
X18448691Y-1723250D01*
X17877813Y-1722752D01*
X17350200Y-1940757D01*
X17162026Y-2128603D01*
X16975923Y-1942176D01*
X16448691Y-1723250D01*
X15877813Y-1722752D01*
X15350200Y-1940757D01*
X15162026Y-2128603D01*
X14975923Y-1942176D01*
X14448691Y-1723250D01*
X13877813Y-1722752D01*
X13350200Y-1940757D01*
X13162026Y-2128603D01*
X12975923Y-1942176D01*
X12448691Y-1723250D01*
X11877813Y-1722752D01*
X11350200Y-1940757D01*
X11180148Y-2110512D01*
X11105014Y-2035378D01*
X10990139Y-2150253D01*
X10916005Y-1904136D01*
X10378777Y-1711035D01*
X9808546Y-1738222D01*
X9407995Y-1904136D01*
X9333861Y-2150255D01*
X8327031Y-2150255D01*
X8426338Y-1911099D01*
X8426662Y-1539133D01*
X8284617Y-1195357D01*
X8032700Y-943000D01*
X59261048Y-943000D01*
X59050808Y-1152873D01*
X58908162Y-1496401D01*
X58907838Y-1868367D01*
X59049883Y-2212143D01*
X59312673Y-2475392D01*
X59656201Y-2618038D01*
X60028167Y-2618362D01*
X60371943Y-2476317D01*
X60635192Y-2213527D01*
X60777838Y-1869999D01*
X60778162Y-1498033D01*
X60636117Y-1154257D01*
X60425228Y-943000D01*
X64699048Y-943000D01*
X64488808Y-1152873D01*
X64346162Y-1496401D01*
X64345838Y-1868367D01*
X64487883Y-2212143D01*
X64750673Y-2475392D01*
X65094201Y-2618038D01*
X65466167Y-2618362D01*
X65809943Y-2476317D01*
X66073192Y-2213527D01*
X66215838Y-1869999D01*
X66216162Y-1498033D01*
X66074117Y-1154257D01*
X65863228Y-943000D01*
X68691217Y-943000D01*
X68576057Y-990583D01*
X68312808Y-1253373D01*
X68170162Y-1596901D01*
X68169838Y-1968867D01*
X68311883Y-2312643D01*
X68574673Y-2575892D01*
X68918201Y-2718538D01*
X69290167Y-2718862D01*
X69633943Y-2576817D01*
X69897192Y-2314027D01*
X70039838Y-1970499D01*
X70040162Y-1598533D01*
X69898117Y-1254757D01*
X69635327Y-991508D01*
X69518507Y-943000D01*
X84377000Y-943000D01*
X84377000Y-53373000D01*
X67048080Y-53373000D01*
X67142838Y-53144799D01*
X67143162Y-52772833D01*
X67001117Y-52429057D01*
X66738327Y-52165808D01*
X66394799Y-52023162D01*
X66022833Y-52022838D01*
X65679057Y-52164883D01*
X65415808Y-52427673D01*
X65273162Y-52771201D01*
X65272838Y-53143167D01*
X65367803Y-53373000D01*
X17774590Y-53373000D01*
X17842000Y-53165000D01*
X17842000Y-52835000D01*
X16889000Y-52835000D01*
X16889000Y-52855000D01*
X16635000Y-52855000D01*
X16635000Y-52835000D01*
X15682000Y-52835000D01*
X15682000Y-53165000D01*
X15749410Y-53373000D01*
X10774590Y-53373000D01*
X10842000Y-53165000D01*
X10842000Y-52835000D01*
X9889000Y-52835000D01*
X9889000Y-52855000D01*
X9635000Y-52855000D01*
X9635000Y-52835000D01*
X8682000Y-52835000D01*
X8682000Y-53165000D01*
X8749410Y-53373000D01*
X4114600Y-53373000D01*
X4114600Y-52543750D01*
X3955850Y-52385000D01*
X2489000Y-52385000D01*
X2489000Y-52405000D01*
X2235000Y-52405000D01*
X2235000Y-52385000D01*
X2215000Y-52385000D01*
X2215000Y-52251000D01*
X8682000Y-52251000D01*
X8682000Y-52581000D01*
X9635000Y-52581000D01*
X9635000Y-51465546D01*
X9889000Y-51465546D01*
X9889000Y-52581000D01*
X10842000Y-52581000D01*
X10842000Y-52251000D01*
X15682000Y-52251000D01*
X15682000Y-52581000D01*
X16635000Y-52581000D01*
X16635000Y-51465546D01*
X16889000Y-51465546D01*
X16889000Y-52581000D01*
X17842000Y-52581000D01*
X17842000Y-52251000D01*
X17711189Y-51847369D01*
X17435873Y-51524522D01*
X17055213Y-51338565D01*
X16889000Y-51465546D01*
X16635000Y-51465546D01*
X16468787Y-51338565D01*
X16088127Y-51524522D01*
X15812811Y-51847369D01*
X15682000Y-52251000D01*
X10842000Y-52251000D01*
X10711189Y-51847369D01*
X10435873Y-51524522D01*
X10055213Y-51338565D01*
X9889000Y-51465546D01*
X9635000Y-51465546D01*
X9468787Y-51338565D01*
X9088127Y-51524522D01*
X8812811Y-51847369D01*
X8682000Y-52251000D01*
X2215000Y-52251000D01*
X2215000Y-52131000D01*
X2235000Y-52131000D01*
X2235000Y-50664150D01*
X2489000Y-50664150D01*
X2489000Y-52131000D01*
X3955850Y-52131000D01*
X4114600Y-51972250D01*
X4114600Y-51014090D01*
X4017927Y-50780701D01*
X3839298Y-50602073D01*
X3605909Y-50505400D01*
X2647750Y-50505400D01*
X2489000Y-50664150D01*
X2235000Y-50664150D01*
X2076250Y-50505400D01*
X1118091Y-50505400D01*
X947000Y-50576268D01*
X947000Y-50305938D01*
X9542732Y-50305938D01*
X9726448Y-50679821D01*
X10050951Y-50967568D01*
X10460869Y-51109229D01*
X10634998Y-50960565D01*
X10634998Y-51118000D01*
X10695532Y-51118000D01*
X10695238Y-51455167D01*
X10837283Y-51798943D01*
X11100073Y-52062192D01*
X11443601Y-52204838D01*
X11815567Y-52205162D01*
X12159343Y-52063117D01*
X12422592Y-51800327D01*
X12565238Y-51456799D01*
X12565562Y-51084833D01*
X12423517Y-50741057D01*
X12160727Y-50477808D01*
X11941538Y-50386792D01*
X11981268Y-50305938D01*
X14542732Y-50305938D01*
X14726448Y-50679821D01*
X15050951Y-50967568D01*
X15460869Y-51109229D01*
X15635000Y-50960563D01*
X15635000Y-50135000D01*
X15889000Y-50135000D01*
X15889000Y-50960563D01*
X16063131Y-51109229D01*
X16083565Y-51102167D01*
X50726838Y-51102167D01*
X50868883Y-51445943D01*
X51131673Y-51709192D01*
X51475201Y-51851838D01*
X51847167Y-51852162D01*
X52190943Y-51710117D01*
X52454192Y-51447327D01*
X52596838Y-51103799D01*
X52597162Y-50731833D01*
X52455117Y-50388057D01*
X52192327Y-50124808D01*
X51848799Y-49982162D01*
X51476833Y-49981838D01*
X51133057Y-50123883D01*
X50869808Y-50386673D01*
X50727162Y-50730201D01*
X50726838Y-51102167D01*
X16083565Y-51102167D01*
X16473049Y-50967568D01*
X16797552Y-50679821D01*
X16981268Y-50305938D01*
X16854734Y-50135000D01*
X15889000Y-50135000D01*
X15635000Y-50135000D01*
X14669266Y-50135000D01*
X14542732Y-50305938D01*
X11981268Y-50305938D01*
X11854734Y-50135000D01*
X10889000Y-50135000D01*
X10889000Y-50155000D01*
X10635000Y-50155000D01*
X10635000Y-50135000D01*
X9669266Y-50135000D01*
X9542732Y-50305938D01*
X947000Y-50305938D01*
X947000Y-47197167D01*
X7145738Y-47197167D01*
X7287783Y-47540943D01*
X7550573Y-47804192D01*
X7894101Y-47946838D01*
X8256891Y-47947154D01*
X8259283Y-47952943D01*
X8522073Y-48216192D01*
X8734930Y-48304578D01*
X8661708Y-48377673D01*
X8519062Y-48721201D01*
X8518738Y-49093167D01*
X8660783Y-49436943D01*
X8923573Y-49700192D01*
X9267101Y-49842838D01*
X9639067Y-49843162D01*
X9640744Y-49842469D01*
X9669266Y-49881000D01*
X10635000Y-49881000D01*
X10635000Y-49055437D01*
X10889000Y-49055437D01*
X10889000Y-49881000D01*
X11854734Y-49881000D01*
X11981268Y-49710062D01*
X14542732Y-49710062D01*
X14669266Y-49881000D01*
X15635000Y-49881000D01*
X15635000Y-49055437D01*
X15889000Y-49055437D01*
X15889000Y-49881000D01*
X16854734Y-49881000D01*
X16981268Y-49710062D01*
X16797552Y-49336179D01*
X16687021Y-49238167D01*
X16896638Y-49238167D01*
X17038683Y-49581943D01*
X17301473Y-49845192D01*
X17645001Y-49987838D01*
X18016967Y-49988162D01*
X18360743Y-49846117D01*
X18623992Y-49583327D01*
X18766638Y-49239799D01*
X18766962Y-48867833D01*
X18624917Y-48524057D01*
X18606009Y-48505116D01*
X18658567Y-48505162D01*
X19002343Y-48363117D01*
X19265592Y-48100327D01*
X19408238Y-47756799D01*
X19408562Y-47384833D01*
X19266517Y-47041057D01*
X19003727Y-46777808D01*
X18660199Y-46635162D01*
X18288233Y-46634838D01*
X17944457Y-46776883D01*
X17681208Y-47039673D01*
X17538562Y-47383201D01*
X17538238Y-47755167D01*
X17680283Y-48098943D01*
X17699191Y-48117884D01*
X17646633Y-48117838D01*
X17302857Y-48259883D01*
X17039608Y-48522673D01*
X16896962Y-48866201D01*
X16896638Y-49238167D01*
X16687021Y-49238167D01*
X16473049Y-49048432D01*
X16063131Y-48906771D01*
X15889000Y-49055437D01*
X15635000Y-49055437D01*
X15460869Y-48906771D01*
X15050951Y-49048432D01*
X14726448Y-49336179D01*
X14542732Y-49710062D01*
X11981268Y-49710062D01*
X11797552Y-49336179D01*
X11473049Y-49048432D01*
X11063131Y-48906771D01*
X10889000Y-49055437D01*
X10635000Y-49055437D01*
X10460869Y-48906771D01*
X10388880Y-48931649D01*
X10389062Y-48722833D01*
X10247017Y-48379057D01*
X9984227Y-48115808D01*
X9771370Y-48027422D01*
X9844592Y-47954327D01*
X9987238Y-47610799D01*
X9987562Y-47238833D01*
X9845517Y-46895057D01*
X9582727Y-46631808D01*
X9537835Y-46613167D01*
X19520138Y-46613167D01*
X19662183Y-46956943D01*
X19924973Y-47220192D01*
X20121459Y-47301781D01*
X19934857Y-47378883D01*
X19671608Y-47641673D01*
X19528962Y-47985201D01*
X19528638Y-48357167D01*
X19670683Y-48700943D01*
X19933473Y-48964192D01*
X20277001Y-49106838D01*
X20648967Y-49107162D01*
X20992743Y-48965117D01*
X21255992Y-48702327D01*
X21280557Y-48643167D01*
X28726838Y-48643167D01*
X28868883Y-48986943D01*
X29131673Y-49250192D01*
X29475201Y-49392838D01*
X29847167Y-49393162D01*
X30123056Y-49279167D01*
X51668838Y-49279167D01*
X51810883Y-49622943D01*
X52073673Y-49886192D01*
X52417201Y-50028838D01*
X52789167Y-50029162D01*
X52875319Y-49993565D01*
X53031673Y-50150192D01*
X53375201Y-50292838D01*
X53747167Y-50293162D01*
X54090943Y-50151117D01*
X54354192Y-49888327D01*
X54490266Y-49560626D01*
X54581673Y-49652192D01*
X54925201Y-49794838D01*
X55297167Y-49795162D01*
X55640943Y-49653117D01*
X55904192Y-49390327D01*
X56046838Y-49046799D01*
X56046946Y-48922167D01*
X65526838Y-48922167D01*
X65668883Y-49265943D01*
X65931673Y-49529192D01*
X66275201Y-49671838D01*
X66647167Y-49672162D01*
X66990943Y-49530117D01*
X67153175Y-49368167D01*
X76026838Y-49368167D01*
X76168883Y-49711943D01*
X76431673Y-49975192D01*
X76775201Y-50117838D01*
X77147167Y-50118162D01*
X77490943Y-49976117D01*
X77754192Y-49713327D01*
X77896838Y-49369799D01*
X77897162Y-48997833D01*
X77802267Y-48768167D01*
X78601838Y-48768167D01*
X78743883Y-49111943D01*
X79006673Y-49375192D01*
X79350201Y-49517838D01*
X79722167Y-49518162D01*
X80065943Y-49376117D01*
X80329192Y-49113327D01*
X80471838Y-48769799D01*
X80472162Y-48397833D01*
X80330117Y-48054057D01*
X80067327Y-47790808D01*
X79723799Y-47648162D01*
X79351833Y-47647838D01*
X79008057Y-47789883D01*
X78744808Y-48052673D01*
X78602162Y-48396201D01*
X78601838Y-48768167D01*
X77802267Y-48768167D01*
X77755117Y-48654057D01*
X77492327Y-48390808D01*
X77148799Y-48248162D01*
X76776833Y-48247838D01*
X76433057Y-48389883D01*
X76169808Y-48652673D01*
X76027162Y-48996201D01*
X76026838Y-49368167D01*
X67153175Y-49368167D01*
X67254192Y-49267327D01*
X67396838Y-48923799D01*
X67397162Y-48551833D01*
X67255117Y-48208057D01*
X66992327Y-47944808D01*
X66648799Y-47802162D01*
X66276833Y-47801838D01*
X65933057Y-47943883D01*
X65669808Y-48206673D01*
X65527162Y-48550201D01*
X65526838Y-48922167D01*
X56046946Y-48922167D01*
X56047162Y-48674833D01*
X55905117Y-48331057D01*
X55642327Y-48067808D01*
X55443307Y-47985167D01*
X56814838Y-47985167D01*
X56956883Y-48328943D01*
X57219673Y-48592192D01*
X57563201Y-48734838D01*
X57935167Y-48735162D01*
X58278943Y-48593117D01*
X58542192Y-48330327D01*
X58684838Y-47986799D01*
X58685162Y-47614833D01*
X58543117Y-47271057D01*
X58280327Y-47007808D01*
X57936799Y-46865162D01*
X57564833Y-46864838D01*
X57221057Y-47006883D01*
X56957808Y-47269673D01*
X56815162Y-47613201D01*
X56814838Y-47985167D01*
X55443307Y-47985167D01*
X55298799Y-47925162D01*
X54926833Y-47924838D01*
X54583057Y-48066883D01*
X54319808Y-48329673D01*
X54183734Y-48657374D01*
X54092327Y-48565808D01*
X53748799Y-48423162D01*
X53376833Y-48422838D01*
X53290681Y-48458435D01*
X53134327Y-48301808D01*
X52790799Y-48159162D01*
X52418833Y-48158838D01*
X52075057Y-48300883D01*
X51811808Y-48563673D01*
X51669162Y-48907201D01*
X51668838Y-49279167D01*
X30123056Y-49279167D01*
X30190943Y-49251117D01*
X30454192Y-48988327D01*
X30596838Y-48644799D01*
X30597162Y-48272833D01*
X30455117Y-47929057D01*
X30192327Y-47665808D01*
X29848799Y-47523162D01*
X29476833Y-47522838D01*
X29133057Y-47664883D01*
X28869808Y-47927673D01*
X28727162Y-48271201D01*
X28726838Y-48643167D01*
X21280557Y-48643167D01*
X21398638Y-48358799D01*
X21398962Y-47986833D01*
X21256917Y-47643057D01*
X20994127Y-47379808D01*
X20797641Y-47298219D01*
X20984243Y-47221117D01*
X21247492Y-46958327D01*
X21247973Y-46957167D01*
X35455938Y-46957167D01*
X35597983Y-47300943D01*
X35860773Y-47564192D01*
X36204301Y-47706838D01*
X36576267Y-47707162D01*
X36920043Y-47565117D01*
X37183292Y-47302327D01*
X37325938Y-46958799D01*
X37326262Y-46586833D01*
X37184217Y-46243057D01*
X36921427Y-45979808D01*
X36577899Y-45837162D01*
X36205933Y-45836838D01*
X35862157Y-45978883D01*
X35598908Y-46241673D01*
X35456262Y-46585201D01*
X35455938Y-46957167D01*
X21247973Y-46957167D01*
X21390138Y-46614799D01*
X21390462Y-46242833D01*
X21276973Y-45968167D01*
X25443338Y-45968167D01*
X25585383Y-46311943D01*
X25848173Y-46575192D01*
X26191701Y-46717838D01*
X26563667Y-46718162D01*
X26907443Y-46576117D01*
X27170692Y-46313327D01*
X27313338Y-45969799D01*
X27313513Y-45768167D01*
X40883238Y-45768167D01*
X41025283Y-46111943D01*
X41288073Y-46375192D01*
X41631601Y-46517838D01*
X42003567Y-46518162D01*
X42347343Y-46376117D01*
X42610592Y-46113327D01*
X42753238Y-45769799D01*
X42753562Y-45397833D01*
X42611517Y-45054057D01*
X42348727Y-44790808D01*
X42005199Y-44648162D01*
X41633233Y-44647838D01*
X41289457Y-44789883D01*
X41026208Y-45052673D01*
X40883562Y-45396201D01*
X40883238Y-45768167D01*
X27313513Y-45768167D01*
X27313662Y-45597833D01*
X27171617Y-45254057D01*
X26908827Y-44990808D01*
X26565299Y-44848162D01*
X26193333Y-44847838D01*
X25849557Y-44989883D01*
X25586308Y-45252673D01*
X25443662Y-45596201D01*
X25443338Y-45968167D01*
X21276973Y-45968167D01*
X21248417Y-45899057D01*
X20985627Y-45635808D01*
X20642099Y-45493162D01*
X20270133Y-45492838D01*
X19926357Y-45634883D01*
X19663108Y-45897673D01*
X19520462Y-46241201D01*
X19520138Y-46613167D01*
X9537835Y-46613167D01*
X9239199Y-46489162D01*
X9157142Y-46489091D01*
X9227438Y-46319799D01*
X9227762Y-45947833D01*
X9132867Y-45718167D01*
X17202738Y-45718167D01*
X17344783Y-46061943D01*
X17607573Y-46325192D01*
X17951101Y-46467838D01*
X18323067Y-46468162D01*
X18666843Y-46326117D01*
X18930092Y-46063327D01*
X19072738Y-45719799D01*
X19073062Y-45347833D01*
X18931017Y-45004057D01*
X18668227Y-44740808D01*
X18324699Y-44598162D01*
X17952733Y-44597838D01*
X17608957Y-44739883D01*
X17345708Y-45002673D01*
X17203062Y-45346201D01*
X17202738Y-45718167D01*
X9132867Y-45718167D01*
X9085717Y-45604057D01*
X8822927Y-45340808D01*
X8479399Y-45198162D01*
X8107433Y-45197838D01*
X7763657Y-45339883D01*
X7500408Y-45602673D01*
X7357762Y-45946201D01*
X7357438Y-46318167D01*
X7385198Y-46385351D01*
X7288708Y-46481673D01*
X7146062Y-46825201D01*
X7145738Y-47197167D01*
X947000Y-47197167D01*
X947000Y-41840400D01*
X2896960Y-41840400D01*
X2896960Y-44075600D01*
X2941238Y-44310917D01*
X3080310Y-44527041D01*
X3292510Y-44672031D01*
X3544400Y-44723040D01*
X5711033Y-44723040D01*
X5817183Y-44979943D01*
X6079973Y-45243192D01*
X6423501Y-45385838D01*
X6795467Y-45386162D01*
X7139243Y-45244117D01*
X7402492Y-44981327D01*
X7545138Y-44637799D01*
X7545352Y-44391167D01*
X8026838Y-44391167D01*
X8168883Y-44734943D01*
X8431673Y-44998192D01*
X8775201Y-45140838D01*
X9147167Y-45141162D01*
X9490943Y-44999117D01*
X9754192Y-44736327D01*
X9896838Y-44392799D01*
X9897162Y-44020833D01*
X9821687Y-43838167D01*
X21321338Y-43838167D01*
X21463383Y-44181943D01*
X21726173Y-44445192D01*
X22069701Y-44587838D01*
X22441667Y-44588162D01*
X22785443Y-44446117D01*
X23048692Y-44183327D01*
X23191338Y-43839799D01*
X23191662Y-43467833D01*
X23049617Y-43124057D01*
X22786827Y-42860808D01*
X22443299Y-42718162D01*
X22071333Y-42717838D01*
X21727557Y-42859883D01*
X21464308Y-43122673D01*
X21321662Y-43466201D01*
X21321338Y-43838167D01*
X9821687Y-43838167D01*
X9755117Y-43677057D01*
X9492327Y-43413808D01*
X9148799Y-43271162D01*
X8776833Y-43270838D01*
X8433057Y-43412883D01*
X8169808Y-43675673D01*
X8027162Y-44019201D01*
X8026838Y-44391167D01*
X7545352Y-44391167D01*
X7545462Y-44265833D01*
X7478112Y-44102834D01*
X7519692Y-44061327D01*
X7662338Y-43717799D01*
X7662662Y-43345833D01*
X7520617Y-43002057D01*
X7257827Y-42738808D01*
X6914299Y-42596162D01*
X6542333Y-42595838D01*
X6427040Y-42643476D01*
X6427040Y-42533167D01*
X12202138Y-42533167D01*
X12344183Y-42876943D01*
X12606973Y-43140192D01*
X12950501Y-43282838D01*
X13322467Y-43283162D01*
X13666243Y-43141117D01*
X13929492Y-42878327D01*
X14021326Y-42657167D01*
X30860838Y-42657167D01*
X31002883Y-43000943D01*
X31265673Y-43264192D01*
X31609201Y-43406838D01*
X31981167Y-43407162D01*
X32324943Y-43265117D01*
X32588192Y-43002327D01*
X32728193Y-42665167D01*
X33405138Y-42665167D01*
X33547183Y-43008943D01*
X33809973Y-43272192D01*
X34153501Y-43414838D01*
X34525467Y-43415162D01*
X34869243Y-43273117D01*
X34910264Y-43232167D01*
X44768838Y-43232167D01*
X44910883Y-43575943D01*
X45173673Y-43839192D01*
X45517201Y-43981838D01*
X45889167Y-43982162D01*
X46232943Y-43840117D01*
X46496192Y-43577327D01*
X46638838Y-43233799D01*
X46639162Y-42861833D01*
X46590131Y-42743167D01*
X48126838Y-42743167D01*
X48268883Y-43086943D01*
X48531673Y-43350192D01*
X48875201Y-43492838D01*
X48986864Y-43492935D01*
X48986838Y-43523167D01*
X49128883Y-43866943D01*
X49391673Y-44130192D01*
X49536945Y-44190514D01*
X49536838Y-44313167D01*
X49678883Y-44656943D01*
X49941673Y-44920192D01*
X50285201Y-45062838D01*
X50657167Y-45063162D01*
X51000943Y-44921117D01*
X51264192Y-44658327D01*
X51406838Y-44314799D01*
X51407162Y-43942833D01*
X51314333Y-43718167D01*
X53301838Y-43718167D01*
X53443883Y-44061943D01*
X53706673Y-44325192D01*
X54050201Y-44467838D01*
X54422167Y-44468162D01*
X54765943Y-44326117D01*
X55029192Y-44063327D01*
X55037563Y-44043167D01*
X57926838Y-44043167D01*
X58068883Y-44386943D01*
X58331673Y-44650192D01*
X58607906Y-44764894D01*
X58424808Y-44947673D01*
X58282162Y-45291201D01*
X58281838Y-45663167D01*
X58423883Y-46006943D01*
X58686673Y-46270192D01*
X59030201Y-46412838D01*
X59402167Y-46413162D01*
X59745943Y-46271117D01*
X60009192Y-46008327D01*
X60151838Y-45664799D01*
X60152162Y-45292833D01*
X60017600Y-44967167D01*
X67744838Y-44967167D01*
X67886883Y-45310943D01*
X68149673Y-45574192D01*
X68493201Y-45716838D01*
X68574897Y-45716909D01*
X68574838Y-45785167D01*
X68716883Y-46128943D01*
X68979673Y-46392192D01*
X69323201Y-46534838D01*
X69695167Y-46535162D01*
X70038943Y-46393117D01*
X70302192Y-46130327D01*
X70444838Y-45786799D01*
X70445162Y-45414833D01*
X70303117Y-45071057D01*
X70040327Y-44807808D01*
X69696799Y-44665162D01*
X69615103Y-44665091D01*
X69615162Y-44596833D01*
X69473117Y-44253057D01*
X69417325Y-44197167D01*
X70744838Y-44197167D01*
X70886883Y-44540943D01*
X71149673Y-44804192D01*
X71493201Y-44946838D01*
X71865167Y-44947162D01*
X72208943Y-44805117D01*
X72304058Y-44710167D01*
X75897838Y-44710167D01*
X76039883Y-45053943D01*
X76302673Y-45317192D01*
X76646201Y-45459838D01*
X77018167Y-45460162D01*
X77361943Y-45318117D01*
X77625192Y-45055327D01*
X77754812Y-44743167D01*
X79226838Y-44743167D01*
X79368883Y-45086943D01*
X79631673Y-45350192D01*
X79975201Y-45492838D01*
X80347167Y-45493162D01*
X80690943Y-45351117D01*
X80954192Y-45088327D01*
X81096838Y-44744799D01*
X81097162Y-44372833D01*
X80955117Y-44029057D01*
X80692327Y-43765808D01*
X80348799Y-43623162D01*
X79976833Y-43622838D01*
X79633057Y-43764883D01*
X79369808Y-44027673D01*
X79227162Y-44371201D01*
X79226838Y-44743167D01*
X77754812Y-44743167D01*
X77767838Y-44711799D01*
X77768162Y-44339833D01*
X77626117Y-43996057D01*
X77363327Y-43732808D01*
X77019799Y-43590162D01*
X76647833Y-43589838D01*
X76304057Y-43731883D01*
X76040808Y-43994673D01*
X75898162Y-44338201D01*
X75897838Y-44710167D01*
X72304058Y-44710167D01*
X72472192Y-44542327D01*
X72614838Y-44198799D01*
X72615114Y-43882449D01*
X72690943Y-43851117D01*
X72954192Y-43588327D01*
X73096838Y-43244799D01*
X73097162Y-42872833D01*
X72955117Y-42529057D01*
X72692327Y-42265808D01*
X72348799Y-42123162D01*
X71976833Y-42122838D01*
X71633057Y-42264883D01*
X71369808Y-42527673D01*
X71227162Y-42871201D01*
X71226886Y-43187551D01*
X71151057Y-43218883D01*
X70887808Y-43481673D01*
X70745162Y-43825201D01*
X70744838Y-44197167D01*
X69417325Y-44197167D01*
X69210327Y-43989808D01*
X68866799Y-43847162D01*
X68494833Y-43846838D01*
X68151057Y-43988883D01*
X67887808Y-44251673D01*
X67745162Y-44595201D01*
X67744838Y-44967167D01*
X60017600Y-44967167D01*
X60010117Y-44949057D01*
X59747327Y-44685808D01*
X59471094Y-44571106D01*
X59654192Y-44388327D01*
X59796838Y-44044799D01*
X59797162Y-43672833D01*
X59655117Y-43329057D01*
X59392327Y-43065808D01*
X59048799Y-42923162D01*
X58676833Y-42922838D01*
X58333057Y-43064883D01*
X58069808Y-43327673D01*
X57927162Y-43671201D01*
X57926838Y-44043167D01*
X55037563Y-44043167D01*
X55171838Y-43719799D01*
X55171861Y-43693009D01*
X55347167Y-43693162D01*
X55690943Y-43551117D01*
X55954192Y-43288327D01*
X56096838Y-42944799D01*
X56097162Y-42572833D01*
X55955117Y-42229057D01*
X55692327Y-41965808D01*
X55348799Y-41823162D01*
X54976833Y-41822838D01*
X54633057Y-41964883D01*
X54369808Y-42227673D01*
X54227162Y-42571201D01*
X54227139Y-42597991D01*
X54051833Y-42597838D01*
X53708057Y-42739883D01*
X53444808Y-43002673D01*
X53302162Y-43346201D01*
X53301838Y-43718167D01*
X51314333Y-43718167D01*
X51265117Y-43599057D01*
X51002327Y-43335808D01*
X50857055Y-43275486D01*
X50857162Y-43152833D01*
X50715117Y-42809057D01*
X50452327Y-42545808D01*
X50108799Y-42403162D01*
X49997136Y-42403065D01*
X49997162Y-42372833D01*
X49855117Y-42029057D01*
X49592327Y-41765808D01*
X49248799Y-41623162D01*
X48876833Y-41622838D01*
X48533057Y-41764883D01*
X48269808Y-42027673D01*
X48127162Y-42371201D01*
X48126838Y-42743167D01*
X46590131Y-42743167D01*
X46497117Y-42518057D01*
X46234327Y-42254808D01*
X45890799Y-42112162D01*
X45518833Y-42111838D01*
X45175057Y-42253883D01*
X44911808Y-42516673D01*
X44769162Y-42860201D01*
X44768838Y-43232167D01*
X34910264Y-43232167D01*
X35132492Y-43010327D01*
X35275138Y-42666799D01*
X35275462Y-42294833D01*
X35133417Y-41951057D01*
X34870627Y-41687808D01*
X34527099Y-41545162D01*
X34155133Y-41544838D01*
X33811357Y-41686883D01*
X33548108Y-41949673D01*
X33405462Y-42293201D01*
X33405138Y-42665167D01*
X32728193Y-42665167D01*
X32730838Y-42658799D01*
X32731162Y-42286833D01*
X32589117Y-41943057D01*
X32326327Y-41679808D01*
X31982799Y-41537162D01*
X31610833Y-41536838D01*
X31267057Y-41678883D01*
X31003808Y-41941673D01*
X30861162Y-42285201D01*
X30860838Y-42657167D01*
X14021326Y-42657167D01*
X14072138Y-42534799D01*
X14072462Y-42162833D01*
X13930417Y-41819057D01*
X13667627Y-41555808D01*
X13396359Y-41443167D01*
X75438838Y-41443167D01*
X75580883Y-41786943D01*
X75843673Y-42050192D01*
X76187201Y-42192838D01*
X76559167Y-42193162D01*
X76902943Y-42051117D01*
X77166192Y-41788327D01*
X77308838Y-41444799D01*
X77309162Y-41072833D01*
X77167117Y-40729057D01*
X76904327Y-40465808D01*
X76560799Y-40323162D01*
X76188833Y-40322838D01*
X75845057Y-40464883D01*
X75581808Y-40727673D01*
X75439162Y-41071201D01*
X75438838Y-41443167D01*
X13396359Y-41443167D01*
X13324099Y-41413162D01*
X12952133Y-41412838D01*
X12608357Y-41554883D01*
X12345108Y-41817673D01*
X12202462Y-42161201D01*
X12202138Y-42533167D01*
X6427040Y-42533167D01*
X6427040Y-41840400D01*
X6382762Y-41605083D01*
X6243690Y-41388959D01*
X6031490Y-41243969D01*
X5779600Y-41192960D01*
X3544400Y-41192960D01*
X3309083Y-41237238D01*
X3092959Y-41376310D01*
X2947969Y-41588510D01*
X2896960Y-41840400D01*
X947000Y-41840400D01*
X947000Y-40268167D01*
X46438838Y-40268167D01*
X46580883Y-40611943D01*
X46843673Y-40875192D01*
X47187201Y-41017838D01*
X47559167Y-41018162D01*
X47902943Y-40876117D01*
X48166192Y-40613327D01*
X48308838Y-40269799D01*
X48309162Y-39897833D01*
X48244953Y-39742436D01*
X48380473Y-39878192D01*
X48724001Y-40020838D01*
X49095967Y-40021162D01*
X49439743Y-39879117D01*
X49702992Y-39616327D01*
X49845638Y-39272799D01*
X49845962Y-38900833D01*
X49772324Y-38722614D01*
X49990992Y-38504327D01*
X50103588Y-38233167D01*
X51076838Y-38233167D01*
X51218883Y-38576943D01*
X51481673Y-38840192D01*
X51825201Y-38982838D01*
X52084642Y-38983064D01*
X52168883Y-39186943D01*
X52431673Y-39450192D01*
X52775201Y-39592838D01*
X53147167Y-39593162D01*
X53490943Y-39451117D01*
X53754192Y-39188327D01*
X53896838Y-38844799D01*
X53897132Y-38506167D01*
X73422838Y-38506167D01*
X73564883Y-38849943D01*
X73827673Y-39113192D01*
X74171201Y-39255838D01*
X74543167Y-39256162D01*
X74886943Y-39114117D01*
X75150192Y-38851327D01*
X75292838Y-38507799D01*
X75292959Y-38368167D01*
X77101838Y-38368167D01*
X77243883Y-38711943D01*
X77506673Y-38975192D01*
X77850201Y-39117838D01*
X78222167Y-39118162D01*
X78302021Y-39085167D01*
X80464838Y-39085167D01*
X80606883Y-39428943D01*
X80869673Y-39692192D01*
X81213201Y-39834838D01*
X81585167Y-39835162D01*
X81928943Y-39693117D01*
X82192192Y-39430327D01*
X82334838Y-39086799D01*
X82335162Y-38714833D01*
X82193117Y-38371057D01*
X81930327Y-38107808D01*
X81586799Y-37965162D01*
X81214833Y-37964838D01*
X80871057Y-38106883D01*
X80607808Y-38369673D01*
X80465162Y-38713201D01*
X80464838Y-39085167D01*
X78302021Y-39085167D01*
X78565943Y-38976117D01*
X78829192Y-38713327D01*
X78971838Y-38369799D01*
X78972162Y-37997833D01*
X78830117Y-37654057D01*
X78567327Y-37390808D01*
X78223799Y-37248162D01*
X77851833Y-37247838D01*
X77508057Y-37389883D01*
X77244808Y-37652673D01*
X77102162Y-37996201D01*
X77101838Y-38368167D01*
X75292959Y-38368167D01*
X75293162Y-38135833D01*
X75151117Y-37792057D01*
X74888327Y-37528808D01*
X74544799Y-37386162D01*
X74172833Y-37385838D01*
X73829057Y-37527883D01*
X73565808Y-37790673D01*
X73423162Y-38134201D01*
X73422838Y-38506167D01*
X53897132Y-38506167D01*
X53897162Y-38472833D01*
X53755117Y-38129057D01*
X53492327Y-37865808D01*
X53148799Y-37723162D01*
X52889358Y-37722936D01*
X52805117Y-37519057D01*
X52542327Y-37255808D01*
X52198799Y-37113162D01*
X51826833Y-37112838D01*
X51483057Y-37254883D01*
X51219808Y-37517673D01*
X51077162Y-37861201D01*
X51076838Y-38233167D01*
X50103588Y-38233167D01*
X50133638Y-38160799D01*
X50133962Y-37788833D01*
X49991917Y-37445057D01*
X49729127Y-37181808D01*
X49385599Y-37039162D01*
X49013633Y-37038838D01*
X48669857Y-37180883D01*
X48406608Y-37443673D01*
X48263962Y-37787201D01*
X48263638Y-38159167D01*
X48337276Y-38337386D01*
X48118608Y-38555673D01*
X47975962Y-38899201D01*
X47975638Y-39271167D01*
X48039847Y-39426564D01*
X47904327Y-39290808D01*
X47560799Y-39148162D01*
X47188833Y-39147838D01*
X46845057Y-39289883D01*
X46581808Y-39552673D01*
X46439162Y-39896201D01*
X46438838Y-40268167D01*
X947000Y-40268167D01*
X947000Y-38343167D01*
X8374838Y-38343167D01*
X8516883Y-38686943D01*
X8779673Y-38950192D01*
X9123201Y-39092838D01*
X9495167Y-39093162D01*
X9645206Y-39031167D01*
X21658338Y-39031167D01*
X21800383Y-39374943D01*
X22063173Y-39638192D01*
X22406701Y-39780838D01*
X22778667Y-39781162D01*
X23122443Y-39639117D01*
X23385692Y-39376327D01*
X23528338Y-39032799D01*
X23528662Y-38660833D01*
X23386617Y-38317057D01*
X23368759Y-38299167D01*
X25107238Y-38299167D01*
X25249283Y-38642943D01*
X25512073Y-38906192D01*
X25855601Y-39048838D01*
X26227567Y-39049162D01*
X26571343Y-38907117D01*
X26834592Y-38644327D01*
X26977238Y-38300799D01*
X26977275Y-38258167D01*
X34399538Y-38258167D01*
X34541583Y-38601943D01*
X34804373Y-38865192D01*
X35147901Y-39007838D01*
X35519867Y-39008162D01*
X35863643Y-38866117D01*
X35904504Y-38825327D01*
X36074073Y-38995192D01*
X36417601Y-39137838D01*
X36789567Y-39138162D01*
X37133343Y-38996117D01*
X37289991Y-38839743D01*
X37328373Y-38878192D01*
X37671901Y-39020838D01*
X38043867Y-39021162D01*
X38232629Y-38943167D01*
X39451838Y-38943167D01*
X39593883Y-39286943D01*
X39856673Y-39550192D01*
X40200201Y-39692838D01*
X40572167Y-39693162D01*
X40915943Y-39551117D01*
X41179192Y-39288327D01*
X41321838Y-38944799D01*
X41322162Y-38572833D01*
X41199583Y-38276167D01*
X41298838Y-38276167D01*
X41440883Y-38619943D01*
X41703673Y-38883192D01*
X42047201Y-39025838D01*
X42419167Y-39026162D01*
X42762943Y-38884117D01*
X43026192Y-38621327D01*
X43168838Y-38277799D01*
X43169162Y-37905833D01*
X43027117Y-37562057D01*
X42764327Y-37298808D01*
X42420799Y-37156162D01*
X42048833Y-37155838D01*
X41705057Y-37297883D01*
X41441808Y-37560673D01*
X41299162Y-37904201D01*
X41298838Y-38276167D01*
X41199583Y-38276167D01*
X41180117Y-38229057D01*
X40917327Y-37965808D01*
X40573799Y-37823162D01*
X40201833Y-37822838D01*
X39858057Y-37964883D01*
X39594808Y-38227673D01*
X39452162Y-38571201D01*
X39451838Y-38943167D01*
X38232629Y-38943167D01*
X38387643Y-38879117D01*
X38650892Y-38616327D01*
X38793538Y-38272799D01*
X38793862Y-37900833D01*
X38651817Y-37557057D01*
X38389027Y-37293808D01*
X38045499Y-37151162D01*
X37673533Y-37150838D01*
X37329757Y-37292883D01*
X37173109Y-37449257D01*
X37134727Y-37410808D01*
X36791199Y-37268162D01*
X36419233Y-37267838D01*
X36075457Y-37409883D01*
X36034596Y-37450673D01*
X35865027Y-37280808D01*
X35521499Y-37138162D01*
X35149533Y-37137838D01*
X34805757Y-37279883D01*
X34542508Y-37542673D01*
X34399862Y-37886201D01*
X34399538Y-38258167D01*
X26977275Y-38258167D01*
X26977562Y-37928833D01*
X26835517Y-37585057D01*
X26572727Y-37321808D01*
X26229199Y-37179162D01*
X25857233Y-37178838D01*
X25513457Y-37320883D01*
X25250208Y-37583673D01*
X25107562Y-37927201D01*
X25107238Y-38299167D01*
X23368759Y-38299167D01*
X23123827Y-38053808D01*
X22780299Y-37911162D01*
X22408333Y-37910838D01*
X22064557Y-38052883D01*
X21801308Y-38315673D01*
X21658662Y-38659201D01*
X21658338Y-39031167D01*
X9645206Y-39031167D01*
X9838943Y-38951117D01*
X10102192Y-38688327D01*
X10244838Y-38344799D01*
X10245162Y-37972833D01*
X10103117Y-37629057D01*
X9840327Y-37365808D01*
X9496799Y-37223162D01*
X9124833Y-37222838D01*
X8781057Y-37364883D01*
X8517808Y-37627673D01*
X8375162Y-37971201D01*
X8374838Y-38343167D01*
X947000Y-38343167D01*
X947000Y-35658000D01*
X2127000Y-35658000D01*
X2281905Y-36436761D01*
X2723038Y-37096962D01*
X3383239Y-37538095D01*
X4162000Y-37693000D01*
X4940761Y-37538095D01*
X5600962Y-37096962D01*
X5930905Y-36603167D01*
X49966838Y-36603167D01*
X50108883Y-36946943D01*
X50371673Y-37210192D01*
X50715201Y-37352838D01*
X51087167Y-37353162D01*
X51430943Y-37211117D01*
X51694192Y-36948327D01*
X51761942Y-36785167D01*
X55024838Y-36785167D01*
X55166883Y-37128943D01*
X55429673Y-37392192D01*
X55773201Y-37534838D01*
X56145167Y-37535162D01*
X56488943Y-37393117D01*
X56752192Y-37130327D01*
X56894838Y-36786799D01*
X56895162Y-36414833D01*
X56753117Y-36071057D01*
X56490327Y-35807808D01*
X56146799Y-35665162D01*
X55774833Y-35664838D01*
X55431057Y-35806883D01*
X55167808Y-36069673D01*
X55025162Y-36413201D01*
X55024838Y-36785167D01*
X51761942Y-36785167D01*
X51836838Y-36604799D01*
X51837162Y-36232833D01*
X51695117Y-35889057D01*
X51432327Y-35625808D01*
X51098445Y-35487167D01*
X59105838Y-35487167D01*
X59247883Y-35830943D01*
X59510673Y-36094192D01*
X59854201Y-36236838D01*
X60226167Y-36237162D01*
X60569943Y-36095117D01*
X60833192Y-35832327D01*
X60905579Y-35658000D01*
X79127000Y-35658000D01*
X79281905Y-36436761D01*
X79723038Y-37096962D01*
X80383239Y-37538095D01*
X81162000Y-37693000D01*
X81940761Y-37538095D01*
X82600962Y-37096962D01*
X83042095Y-36436761D01*
X83197000Y-35658000D01*
X83042095Y-34879239D01*
X82600962Y-34219038D01*
X81940761Y-33777905D01*
X81162000Y-33623000D01*
X80383239Y-33777905D01*
X79723038Y-34219038D01*
X79281905Y-34879239D01*
X79127000Y-35658000D01*
X60905579Y-35658000D01*
X60975838Y-35488799D01*
X60976162Y-35116833D01*
X60880440Y-34885167D01*
X74364838Y-34885167D01*
X74506883Y-35228943D01*
X74769673Y-35492192D01*
X75113201Y-35634838D01*
X75485167Y-35635162D01*
X75828943Y-35493117D01*
X76092192Y-35230327D01*
X76234838Y-34886799D01*
X76235162Y-34514833D01*
X76093117Y-34171057D01*
X75830327Y-33907808D01*
X75486799Y-33765162D01*
X75114833Y-33764838D01*
X74771057Y-33906883D01*
X74507808Y-34169673D01*
X74365162Y-34513201D01*
X74364838Y-34885167D01*
X60880440Y-34885167D01*
X60834117Y-34773057D01*
X60571327Y-34509808D01*
X60227799Y-34367162D01*
X59855833Y-34366838D01*
X59512057Y-34508883D01*
X59248808Y-34771673D01*
X59106162Y-35115201D01*
X59105838Y-35487167D01*
X51098445Y-35487167D01*
X51088799Y-35483162D01*
X50716833Y-35482838D01*
X50373057Y-35624883D01*
X50109808Y-35887673D01*
X49967162Y-36231201D01*
X49966838Y-36603167D01*
X5930905Y-36603167D01*
X6042095Y-36436761D01*
X6197000Y-35658000D01*
X6072515Y-35032167D01*
X25103638Y-35032167D01*
X25245683Y-35375943D01*
X25508473Y-35639192D01*
X25852001Y-35781838D01*
X26223967Y-35782162D01*
X26567743Y-35640117D01*
X26830992Y-35377327D01*
X26973638Y-35033799D01*
X26973962Y-34661833D01*
X26831917Y-34318057D01*
X26569127Y-34054808D01*
X26406231Y-33987167D01*
X36525138Y-33987167D01*
X36667183Y-34330943D01*
X36929973Y-34594192D01*
X37273501Y-34736838D01*
X37645467Y-34737162D01*
X37989243Y-34595117D01*
X38252492Y-34332327D01*
X38298095Y-34222503D01*
X38339183Y-34321943D01*
X38601973Y-34585192D01*
X38945501Y-34727838D01*
X39144990Y-34728012D01*
X39180083Y-34812943D01*
X39442873Y-35076192D01*
X39786401Y-35218838D01*
X40158367Y-35219162D01*
X40502143Y-35077117D01*
X40765392Y-34814327D01*
X40908038Y-34470799D01*
X40908362Y-34098833D01*
X40766317Y-33755057D01*
X40503527Y-33491808D01*
X40205768Y-33368167D01*
X49453838Y-33368167D01*
X49595883Y-33711943D01*
X49858673Y-33975192D01*
X50202201Y-34117838D01*
X50574167Y-34118162D01*
X50917943Y-33976117D01*
X51151299Y-33743167D01*
X51380838Y-33743167D01*
X51522883Y-34086943D01*
X51785673Y-34350192D01*
X52129201Y-34492838D01*
X52501167Y-34493162D01*
X52844943Y-34351117D01*
X53108192Y-34088327D01*
X53250838Y-33744799D01*
X53251162Y-33372833D01*
X53109117Y-33029057D01*
X52846327Y-32765808D01*
X52502799Y-32623162D01*
X52130833Y-32622838D01*
X51787057Y-32764883D01*
X51523808Y-33027673D01*
X51381162Y-33371201D01*
X51380838Y-33743167D01*
X51151299Y-33743167D01*
X51181192Y-33713327D01*
X51323838Y-33369799D01*
X51324162Y-32997833D01*
X51182117Y-32654057D01*
X50919327Y-32390808D01*
X50575799Y-32248162D01*
X50203833Y-32247838D01*
X49860057Y-32389883D01*
X49596808Y-32652673D01*
X49454162Y-32996201D01*
X49453838Y-33368167D01*
X40205768Y-33368167D01*
X40159999Y-33349162D01*
X39960510Y-33348988D01*
X39925417Y-33264057D01*
X39662627Y-33000808D01*
X39319099Y-32858162D01*
X38947133Y-32857838D01*
X38603357Y-32999883D01*
X38340108Y-33262673D01*
X38294505Y-33372497D01*
X38253417Y-33273057D01*
X37990627Y-33009808D01*
X37647099Y-32867162D01*
X37275133Y-32866838D01*
X36931357Y-33008883D01*
X36668108Y-33271673D01*
X36525462Y-33615201D01*
X36525138Y-33987167D01*
X26406231Y-33987167D01*
X26225599Y-33912162D01*
X25853633Y-33911838D01*
X25509857Y-34053883D01*
X25246608Y-34316673D01*
X25103962Y-34660201D01*
X25103638Y-35032167D01*
X6072515Y-35032167D01*
X6042095Y-34879239D01*
X5600962Y-34219038D01*
X4940761Y-33777905D01*
X4162000Y-33623000D01*
X3383239Y-33777905D01*
X2723038Y-34219038D01*
X2281905Y-34879239D01*
X2127000Y-35658000D01*
X947000Y-35658000D01*
X947000Y-31833167D01*
X29386838Y-31833167D01*
X29528883Y-32176943D01*
X29791673Y-32440192D01*
X30135201Y-32582838D01*
X30507167Y-32583162D01*
X30850943Y-32441117D01*
X31114192Y-32178327D01*
X31256838Y-31834799D01*
X31257162Y-31462833D01*
X31115117Y-31119057D01*
X30852327Y-30855808D01*
X30508799Y-30713162D01*
X30136833Y-30712838D01*
X29793057Y-30854883D01*
X29529808Y-31117673D01*
X29387162Y-31461201D01*
X29386838Y-31833167D01*
X947000Y-31833167D01*
X947000Y-29943167D01*
X39199938Y-29943167D01*
X39341983Y-30286943D01*
X39604773Y-30550192D01*
X39948301Y-30692838D01*
X40320267Y-30693162D01*
X40664043Y-30551117D01*
X40720090Y-30495167D01*
X53284838Y-30495167D01*
X53426883Y-30838943D01*
X53689673Y-31102192D01*
X54033201Y-31244838D01*
X54252220Y-31245029D01*
X54127162Y-31546201D01*
X54126838Y-31918167D01*
X54268883Y-32261943D01*
X54531673Y-32525192D01*
X54875201Y-32667838D01*
X55247167Y-32668162D01*
X55590943Y-32526117D01*
X55674037Y-32443167D01*
X59358838Y-32443167D01*
X59500883Y-32786943D01*
X59763673Y-33050192D01*
X60107201Y-33192838D01*
X60479167Y-33193162D01*
X60822943Y-33051117D01*
X61086192Y-32788327D01*
X61228838Y-32444799D01*
X61228839Y-32443167D01*
X64888838Y-32443167D01*
X65030883Y-32786943D01*
X65293673Y-33050192D01*
X65637201Y-33192838D01*
X66009167Y-33193162D01*
X66352943Y-33051117D01*
X66616192Y-32788327D01*
X66758838Y-32444799D01*
X66759162Y-32072833D01*
X66617117Y-31729057D01*
X66354327Y-31465808D01*
X66010799Y-31323162D01*
X65638833Y-31322838D01*
X65295057Y-31464883D01*
X65031808Y-31727673D01*
X64889162Y-32071201D01*
X64888838Y-32443167D01*
X61228839Y-32443167D01*
X61229162Y-32072833D01*
X61087117Y-31729057D01*
X60824327Y-31465808D01*
X60480799Y-31323162D01*
X60108833Y-31322838D01*
X59765057Y-31464883D01*
X59501808Y-31727673D01*
X59359162Y-32071201D01*
X59358838Y-32443167D01*
X55674037Y-32443167D01*
X55854192Y-32263327D01*
X55996838Y-31919799D01*
X55997004Y-31728990D01*
X56336201Y-31869838D01*
X56708167Y-31870162D01*
X57051943Y-31728117D01*
X57315192Y-31465327D01*
X57457838Y-31121799D01*
X57458162Y-30749833D01*
X57316117Y-30406057D01*
X57053327Y-30142808D01*
X56709799Y-30000162D01*
X56337833Y-29999838D01*
X55994057Y-30141883D01*
X55730808Y-30404673D01*
X55588162Y-30748201D01*
X55587996Y-30939010D01*
X55248799Y-30798162D01*
X55029780Y-30797971D01*
X55154838Y-30496799D01*
X55155162Y-30124833D01*
X55013117Y-29781057D01*
X54750327Y-29517808D01*
X54406799Y-29375162D01*
X54034833Y-29374838D01*
X53691057Y-29516883D01*
X53427808Y-29779673D01*
X53285162Y-30123201D01*
X53284838Y-30495167D01*
X40720090Y-30495167D01*
X40927292Y-30288327D01*
X41069938Y-29944799D01*
X41070262Y-29572833D01*
X40928217Y-29229057D01*
X40665427Y-28965808D01*
X40321899Y-28823162D01*
X39949933Y-28822838D01*
X39606157Y-28964883D01*
X39342908Y-29227673D01*
X39200262Y-29571201D01*
X39199938Y-29943167D01*
X947000Y-29943167D01*
X947000Y-28143167D01*
X50226838Y-28143167D01*
X50368883Y-28486943D01*
X50631673Y-28750192D01*
X50854790Y-28842839D01*
X50769808Y-28927673D01*
X50627162Y-29271201D01*
X50626838Y-29643167D01*
X50768883Y-29986943D01*
X51031673Y-30250192D01*
X51375201Y-30392838D01*
X51747167Y-30393162D01*
X52090943Y-30251117D01*
X52354192Y-29988327D01*
X52496838Y-29644799D01*
X52497162Y-29272833D01*
X52355117Y-28929057D01*
X52322285Y-28896167D01*
X55272838Y-28896167D01*
X55414883Y-29239943D01*
X55677673Y-29503192D01*
X56021201Y-29645838D01*
X56393167Y-29646162D01*
X56736943Y-29504117D01*
X57000192Y-29241327D01*
X57094971Y-29013076D01*
X57331673Y-29250192D01*
X57675201Y-29392838D01*
X58047167Y-29393162D01*
X58168164Y-29343167D01*
X62726838Y-29343167D01*
X62868883Y-29686943D01*
X63131673Y-29950192D01*
X63475201Y-30092838D01*
X63847167Y-30093162D01*
X64190943Y-29951117D01*
X64454192Y-29688327D01*
X64596838Y-29344799D01*
X64597162Y-28972833D01*
X64455117Y-28629057D01*
X64192327Y-28365808D01*
X63904201Y-28246167D01*
X70279838Y-28246167D01*
X70421883Y-28589943D01*
X70684673Y-28853192D01*
X71028201Y-28995838D01*
X71400167Y-28996162D01*
X71743943Y-28854117D01*
X72007192Y-28591327D01*
X72149838Y-28247799D01*
X72150162Y-27875833D01*
X72008117Y-27532057D01*
X71745327Y-27268808D01*
X71401799Y-27126162D01*
X71029833Y-27125838D01*
X70686057Y-27267883D01*
X70422808Y-27530673D01*
X70280162Y-27874201D01*
X70279838Y-28246167D01*
X63904201Y-28246167D01*
X63848799Y-28223162D01*
X63476833Y-28222838D01*
X63133057Y-28364883D01*
X62869808Y-28627673D01*
X62727162Y-28971201D01*
X62726838Y-29343167D01*
X58168164Y-29343167D01*
X58390943Y-29251117D01*
X58654192Y-28988327D01*
X58796838Y-28644799D01*
X58797162Y-28272833D01*
X58655117Y-27929057D01*
X58392327Y-27665808D01*
X58048799Y-27523162D01*
X57676833Y-27522838D01*
X57333057Y-27664883D01*
X57069808Y-27927673D01*
X56975029Y-28155924D01*
X56738327Y-27918808D01*
X56394799Y-27776162D01*
X56022833Y-27775838D01*
X55679057Y-27917883D01*
X55415808Y-28180673D01*
X55273162Y-28524201D01*
X55272838Y-28896167D01*
X52322285Y-28896167D01*
X52092327Y-28665808D01*
X51869210Y-28573161D01*
X51954192Y-28488327D01*
X52096838Y-28144799D01*
X52097162Y-27772833D01*
X51955117Y-27429057D01*
X51692327Y-27165808D01*
X51348799Y-27023162D01*
X50976833Y-27022838D01*
X50633057Y-27164883D01*
X50369808Y-27427673D01*
X50227162Y-27771201D01*
X50226838Y-28143167D01*
X947000Y-28143167D01*
X947000Y-26443167D01*
X34826838Y-26443167D01*
X34968883Y-26786943D01*
X35231673Y-27050192D01*
X35575201Y-27192838D01*
X35947167Y-27193162D01*
X36290943Y-27051117D01*
X36554192Y-26788327D01*
X36696838Y-26444799D01*
X36696839Y-26443167D01*
X38826838Y-26443167D01*
X38968883Y-26786943D01*
X39231673Y-27050192D01*
X39575201Y-27192838D01*
X39947167Y-27193162D01*
X40290943Y-27051117D01*
X40554192Y-26788327D01*
X40696838Y-26444799D01*
X40697162Y-26072833D01*
X40560948Y-25743167D01*
X62626838Y-25743167D01*
X62768883Y-26086943D01*
X63031673Y-26350192D01*
X63375201Y-26492838D01*
X63747167Y-26493162D01*
X64090943Y-26351117D01*
X64354192Y-26088327D01*
X64496838Y-25744799D01*
X64497162Y-25372833D01*
X64355117Y-25029057D01*
X64092327Y-24765808D01*
X63748799Y-24623162D01*
X63376833Y-24622838D01*
X63033057Y-24764883D01*
X62769808Y-25027673D01*
X62627162Y-25371201D01*
X62626838Y-25743167D01*
X40560948Y-25743167D01*
X40555117Y-25729057D01*
X40292327Y-25465808D01*
X39948799Y-25323162D01*
X39576833Y-25322838D01*
X39233057Y-25464883D01*
X38969808Y-25727673D01*
X38827162Y-26071201D01*
X38826838Y-26443167D01*
X36696839Y-26443167D01*
X36697162Y-26072833D01*
X36555117Y-25729057D01*
X36292327Y-25465808D01*
X35948799Y-25323162D01*
X35576833Y-25322838D01*
X35233057Y-25464883D01*
X34969808Y-25727673D01*
X34827162Y-26071201D01*
X34826838Y-26443167D01*
X947000Y-26443167D01*
X947000Y-24643167D01*
X29526838Y-24643167D01*
X29668883Y-24986943D01*
X29931673Y-25250192D01*
X30275201Y-25392838D01*
X30647167Y-25393162D01*
X30990943Y-25251117D01*
X31254192Y-24988327D01*
X31396838Y-24644799D01*
X31396839Y-24643167D01*
X40406838Y-24643167D01*
X40548883Y-24986943D01*
X40811673Y-25250192D01*
X41155201Y-25392838D01*
X41527167Y-25393162D01*
X41870943Y-25251117D01*
X42134192Y-24988327D01*
X42260567Y-24683984D01*
X42318673Y-24742192D01*
X42662201Y-24884838D01*
X43034167Y-24885162D01*
X43377943Y-24743117D01*
X43641192Y-24480327D01*
X43698146Y-24343167D01*
X50264838Y-24343167D01*
X50406883Y-24686943D01*
X50669673Y-24950192D01*
X51013201Y-25092838D01*
X51385167Y-25093162D01*
X51728943Y-24951117D01*
X51992192Y-24688327D01*
X52134838Y-24344799D01*
X52135122Y-24018167D01*
X74351838Y-24018167D01*
X74493883Y-24361943D01*
X74756673Y-24625192D01*
X75100201Y-24767838D01*
X75472167Y-24768162D01*
X75815943Y-24626117D01*
X76079192Y-24363327D01*
X76221838Y-24019799D01*
X76222162Y-23647833D01*
X76080117Y-23304057D01*
X75817327Y-23040808D01*
X75473799Y-22898162D01*
X75101833Y-22897838D01*
X74758057Y-23039883D01*
X74494808Y-23302673D01*
X74352162Y-23646201D01*
X74351838Y-24018167D01*
X52135122Y-24018167D01*
X52135162Y-23972833D01*
X51993117Y-23629057D01*
X51730327Y-23365808D01*
X51386799Y-23223162D01*
X51014833Y-23222838D01*
X50671057Y-23364883D01*
X50407808Y-23627673D01*
X50265162Y-23971201D01*
X50264838Y-24343167D01*
X43698146Y-24343167D01*
X43783838Y-24136799D01*
X43784162Y-23764833D01*
X43642117Y-23421057D01*
X43431954Y-23210527D01*
X43454192Y-23188327D01*
X43596838Y-22844799D01*
X43597162Y-22472833D01*
X43455117Y-22129057D01*
X43192327Y-21865808D01*
X42848799Y-21723162D01*
X42476833Y-21722838D01*
X42133057Y-21864883D01*
X41869808Y-22127673D01*
X41727162Y-22471201D01*
X41726838Y-22843167D01*
X41868883Y-23186943D01*
X42079046Y-23397473D01*
X42056808Y-23419673D01*
X41930433Y-23724016D01*
X41872327Y-23665808D01*
X41528799Y-23523162D01*
X41156833Y-23522838D01*
X40813057Y-23664883D01*
X40549808Y-23927673D01*
X40407162Y-24271201D01*
X40406838Y-24643167D01*
X31396839Y-24643167D01*
X31397162Y-24272833D01*
X31255117Y-23929057D01*
X30992327Y-23665808D01*
X30648799Y-23523162D01*
X30276833Y-23522838D01*
X29933057Y-23664883D01*
X29669808Y-23927673D01*
X29527162Y-24271201D01*
X29526838Y-24643167D01*
X947000Y-24643167D01*
X947000Y-23443167D01*
X16726838Y-23443167D01*
X16868883Y-23786943D01*
X17131673Y-24050192D01*
X17475201Y-24192838D01*
X17847167Y-24193162D01*
X18190943Y-24051117D01*
X18454192Y-23788327D01*
X18596838Y-23444799D01*
X18596926Y-23343167D01*
X26576838Y-23343167D01*
X26718883Y-23686943D01*
X26981673Y-23950192D01*
X27325201Y-24092838D01*
X27697167Y-24093162D01*
X28040943Y-23951117D01*
X28304192Y-23688327D01*
X28446838Y-23344799D01*
X28447162Y-22972833D01*
X28305117Y-22629057D01*
X28042327Y-22365808D01*
X27698799Y-22223162D01*
X27326833Y-22222838D01*
X26983057Y-22364883D01*
X26719808Y-22627673D01*
X26577162Y-22971201D01*
X26576838Y-23343167D01*
X18596926Y-23343167D01*
X18597162Y-23072833D01*
X18455117Y-22729057D01*
X18192327Y-22465808D01*
X17848799Y-22323162D01*
X17476833Y-22322838D01*
X17133057Y-22464883D01*
X16869808Y-22727673D01*
X16727162Y-23071201D01*
X16726838Y-23443167D01*
X947000Y-23443167D01*
X947000Y-21203167D01*
X20426838Y-21203167D01*
X20568883Y-21546943D01*
X20831673Y-21810192D01*
X21175201Y-21952838D01*
X21547167Y-21953162D01*
X21890943Y-21811117D01*
X22154192Y-21548327D01*
X22296838Y-21204799D01*
X22297152Y-20843167D01*
X22626838Y-20843167D01*
X22768883Y-21186943D01*
X23031673Y-21450192D01*
X23375201Y-21592838D01*
X23496004Y-21592943D01*
X23355962Y-21930201D01*
X23355638Y-22302167D01*
X23497683Y-22645943D01*
X23760473Y-22909192D01*
X24104001Y-23051838D01*
X24475967Y-23052162D01*
X24819743Y-22910117D01*
X25082992Y-22647327D01*
X25225638Y-22303799D01*
X25225777Y-22143167D01*
X31126838Y-22143167D01*
X31268883Y-22486943D01*
X31531673Y-22750192D01*
X31875201Y-22892838D01*
X32247167Y-22893162D01*
X32590943Y-22751117D01*
X32854192Y-22488327D01*
X32996838Y-22144799D01*
X32997162Y-21772833D01*
X32855117Y-21429057D01*
X32592327Y-21165808D01*
X32248799Y-21023162D01*
X31876833Y-21022838D01*
X31533057Y-21164883D01*
X31269808Y-21427673D01*
X31127162Y-21771201D01*
X31126838Y-22143167D01*
X25225777Y-22143167D01*
X25225962Y-21931833D01*
X25083917Y-21588057D01*
X24821127Y-21324808D01*
X24477599Y-21182162D01*
X24356796Y-21182057D01*
X24496838Y-20844799D01*
X24497013Y-20643167D01*
X52351838Y-20643167D01*
X52493883Y-20986943D01*
X52756673Y-21250192D01*
X53100201Y-21392838D01*
X53472167Y-21393162D01*
X53815943Y-21251117D01*
X54079192Y-20988327D01*
X54221838Y-20644799D01*
X54222151Y-20285167D01*
X70664838Y-20285167D01*
X70806883Y-20628943D01*
X71069673Y-20892192D01*
X71413201Y-21034838D01*
X71785167Y-21035162D01*
X72128943Y-20893117D01*
X72392192Y-20630327D01*
X72534838Y-20286799D01*
X72534839Y-20285167D01*
X75564838Y-20285167D01*
X75706883Y-20628943D01*
X75969673Y-20892192D01*
X76313201Y-21034838D01*
X76685167Y-21035162D01*
X77028943Y-20893117D01*
X77292192Y-20630327D01*
X77434838Y-20286799D01*
X77435162Y-19914833D01*
X77293117Y-19571057D01*
X77030327Y-19307808D01*
X76686799Y-19165162D01*
X76314833Y-19164838D01*
X75971057Y-19306883D01*
X75707808Y-19569673D01*
X75565162Y-19913201D01*
X75564838Y-20285167D01*
X72534839Y-20285167D01*
X72535162Y-19914833D01*
X72393117Y-19571057D01*
X72130327Y-19307808D01*
X71786799Y-19165162D01*
X71414833Y-19164838D01*
X71071057Y-19306883D01*
X70807808Y-19569673D01*
X70665162Y-19913201D01*
X70664838Y-20285167D01*
X54222151Y-20285167D01*
X54222162Y-20272833D01*
X54080117Y-19929057D01*
X53817327Y-19665808D01*
X53473799Y-19523162D01*
X53101833Y-19522838D01*
X52758057Y-19664883D01*
X52494808Y-19927673D01*
X52352162Y-20271201D01*
X52351838Y-20643167D01*
X24497013Y-20643167D01*
X24497162Y-20472833D01*
X24355117Y-20129057D01*
X24092327Y-19865808D01*
X23919798Y-19794167D01*
X40958638Y-19794167D01*
X41100683Y-20137943D01*
X41363473Y-20401192D01*
X41707001Y-20543838D01*
X42078967Y-20544162D01*
X42422743Y-20402117D01*
X42685992Y-20139327D01*
X42828638Y-19795799D01*
X42828962Y-19423833D01*
X42816292Y-19393167D01*
X46176838Y-19393167D01*
X46318883Y-19736943D01*
X46581673Y-20000192D01*
X46925201Y-20142838D01*
X47297167Y-20143162D01*
X47640943Y-20001117D01*
X47904192Y-19738327D01*
X48046838Y-19394799D01*
X48046846Y-19385167D01*
X65264838Y-19385167D01*
X65406883Y-19728943D01*
X65669673Y-19992192D01*
X66013201Y-20134838D01*
X66385167Y-20135162D01*
X66728943Y-19993117D01*
X66992192Y-19730327D01*
X67134838Y-19386799D01*
X67135162Y-19014833D01*
X66993117Y-18671057D01*
X66730327Y-18407808D01*
X66386799Y-18265162D01*
X66014833Y-18264838D01*
X65671057Y-18406883D01*
X65407808Y-18669673D01*
X65265162Y-19013201D01*
X65264838Y-19385167D01*
X48046846Y-19385167D01*
X48047162Y-19022833D01*
X47905117Y-18679057D01*
X47642327Y-18415808D01*
X47298799Y-18273162D01*
X46926833Y-18272838D01*
X46583057Y-18414883D01*
X46319808Y-18677673D01*
X46177162Y-19021201D01*
X46176838Y-19393167D01*
X42816292Y-19393167D01*
X42686917Y-19080057D01*
X42424127Y-18816808D01*
X42080599Y-18674162D01*
X41708633Y-18673838D01*
X41364857Y-18815883D01*
X41101608Y-19078673D01*
X40958962Y-19422201D01*
X40958638Y-19794167D01*
X23919798Y-19794167D01*
X23748799Y-19723162D01*
X23376833Y-19722838D01*
X23033057Y-19864883D01*
X22769808Y-20127673D01*
X22627162Y-20471201D01*
X22626838Y-20843167D01*
X22297152Y-20843167D01*
X22297162Y-20832833D01*
X22155117Y-20489057D01*
X21892327Y-20225808D01*
X21548799Y-20083162D01*
X21176833Y-20082838D01*
X20833057Y-20224883D01*
X20569808Y-20487673D01*
X20427162Y-20831201D01*
X20426838Y-21203167D01*
X947000Y-21203167D01*
X947000Y-20263167D01*
X17606838Y-20263167D01*
X17748883Y-20606943D01*
X18011673Y-20870192D01*
X18355201Y-21012838D01*
X18727167Y-21013162D01*
X19070943Y-20871117D01*
X19334192Y-20608327D01*
X19476838Y-20264799D01*
X19477162Y-19892833D01*
X19335117Y-19549057D01*
X19072327Y-19285808D01*
X18728799Y-19143162D01*
X18356833Y-19142838D01*
X18013057Y-19284883D01*
X17749808Y-19547673D01*
X17607162Y-19891201D01*
X17606838Y-20263167D01*
X947000Y-20263167D01*
X947000Y-17861167D01*
X15812338Y-17861167D01*
X15954383Y-18204943D01*
X16217173Y-18468192D01*
X16560701Y-18610838D01*
X16932667Y-18611162D01*
X17097227Y-18543167D01*
X27776838Y-18543167D01*
X27918883Y-18886943D01*
X28181673Y-19150192D01*
X28525201Y-19292838D01*
X28897167Y-19293162D01*
X29240943Y-19151117D01*
X29504192Y-18888327D01*
X29646838Y-18544799D01*
X29647162Y-18172833D01*
X29505117Y-17829057D01*
X29319552Y-17643167D01*
X41926838Y-17643167D01*
X42068883Y-17986943D01*
X42331673Y-18250192D01*
X42675201Y-18392838D01*
X43047167Y-18393162D01*
X43390943Y-18251117D01*
X43654192Y-17988327D01*
X43683325Y-17918167D01*
X50851838Y-17918167D01*
X50993883Y-18261943D01*
X51256673Y-18525192D01*
X51600201Y-18667838D01*
X51972167Y-18668162D01*
X52315943Y-18526117D01*
X52579192Y-18263327D01*
X52721838Y-17919799D01*
X52722162Y-17547833D01*
X52580117Y-17204057D01*
X52317327Y-16940808D01*
X52082183Y-16843167D01*
X55026838Y-16843167D01*
X55168883Y-17186943D01*
X55431673Y-17450192D01*
X55775201Y-17592838D01*
X56147167Y-17593162D01*
X56490943Y-17451117D01*
X56754192Y-17188327D01*
X56896838Y-16844799D01*
X56897162Y-16472833D01*
X56755117Y-16129057D01*
X56492327Y-15865808D01*
X56148799Y-15723162D01*
X55776833Y-15722838D01*
X55433057Y-15864883D01*
X55169808Y-16127673D01*
X55027162Y-16471201D01*
X55026838Y-16843167D01*
X52082183Y-16843167D01*
X51973799Y-16798162D01*
X51601833Y-16797838D01*
X51258057Y-16939883D01*
X50994808Y-17202673D01*
X50852162Y-17546201D01*
X50851838Y-17918167D01*
X43683325Y-17918167D01*
X43796838Y-17644799D01*
X43797162Y-17272833D01*
X43655117Y-16929057D01*
X43392327Y-16665808D01*
X43048799Y-16523162D01*
X42676833Y-16522838D01*
X42333057Y-16664883D01*
X42069808Y-16927673D01*
X41927162Y-17271201D01*
X41926838Y-17643167D01*
X29319552Y-17643167D01*
X29242327Y-17565808D01*
X28898799Y-17423162D01*
X28526833Y-17422838D01*
X28183057Y-17564883D01*
X27919808Y-17827673D01*
X27777162Y-18171201D01*
X27776838Y-18543167D01*
X17097227Y-18543167D01*
X17276443Y-18469117D01*
X17539692Y-18206327D01*
X17682338Y-17862799D01*
X17682662Y-17490833D01*
X17600970Y-17293122D01*
X17647167Y-17293162D01*
X17990943Y-17151117D01*
X18254192Y-16888327D01*
X18314467Y-16743167D01*
X21926838Y-16743167D01*
X22068883Y-17086943D01*
X22331673Y-17350192D01*
X22675201Y-17492838D01*
X23047167Y-17493162D01*
X23390943Y-17351117D01*
X23654192Y-17088327D01*
X23796838Y-16744799D01*
X23796841Y-16741167D01*
X25217238Y-16741167D01*
X25359283Y-17084943D01*
X25622073Y-17348192D01*
X25965601Y-17490838D01*
X26337567Y-17491162D01*
X26681343Y-17349117D01*
X26944592Y-17086327D01*
X27087238Y-16742799D01*
X27087562Y-16370833D01*
X26945517Y-16027057D01*
X26682727Y-15763808D01*
X26339199Y-15621162D01*
X25967233Y-15620838D01*
X25623457Y-15762883D01*
X25360208Y-16025673D01*
X25217562Y-16369201D01*
X25217238Y-16741167D01*
X23796841Y-16741167D01*
X23797162Y-16372833D01*
X23655117Y-16029057D01*
X23392327Y-15765808D01*
X23048799Y-15623162D01*
X22676833Y-15622838D01*
X22333057Y-15764883D01*
X22069808Y-16027673D01*
X21927162Y-16371201D01*
X21926838Y-16743167D01*
X18314467Y-16743167D01*
X18396838Y-16544799D01*
X18396979Y-16383127D01*
X18436867Y-16383162D01*
X18780643Y-16241117D01*
X19043892Y-15978327D01*
X19137387Y-15753167D01*
X20006838Y-15753167D01*
X20148883Y-16096943D01*
X20411673Y-16360192D01*
X20755201Y-16502838D01*
X21127167Y-16503162D01*
X21470943Y-16361117D01*
X21734192Y-16098327D01*
X21876838Y-15754799D01*
X21877162Y-15382833D01*
X21778135Y-15143167D01*
X27426838Y-15143167D01*
X27568883Y-15486943D01*
X27831673Y-15750192D01*
X28175201Y-15892838D01*
X28547167Y-15893162D01*
X28890943Y-15751117D01*
X29154192Y-15488327D01*
X29196844Y-15385609D01*
X29520101Y-15519838D01*
X29892067Y-15520162D01*
X30235843Y-15378117D01*
X30499092Y-15115327D01*
X30641738Y-14771799D01*
X30642062Y-14399833D01*
X30500017Y-14056057D01*
X30237227Y-13792808D01*
X29893699Y-13650162D01*
X29521733Y-13649838D01*
X29177957Y-13791883D01*
X28914708Y-14054673D01*
X28872056Y-14157391D01*
X28548799Y-14023162D01*
X28176833Y-14022838D01*
X27833057Y-14164883D01*
X27569808Y-14427673D01*
X27427162Y-14771201D01*
X27426838Y-15143167D01*
X21778135Y-15143167D01*
X21735117Y-15039057D01*
X21472327Y-14775808D01*
X21128799Y-14633162D01*
X20756833Y-14632838D01*
X20413057Y-14774883D01*
X20149808Y-15037673D01*
X20007162Y-15381201D01*
X20006838Y-15753167D01*
X19137387Y-15753167D01*
X19186538Y-15634799D01*
X19186862Y-15262833D01*
X19044817Y-14919057D01*
X18782027Y-14655808D01*
X18438499Y-14513162D01*
X18066533Y-14512838D01*
X17722757Y-14654883D01*
X17459508Y-14917673D01*
X17316862Y-15261201D01*
X17316721Y-15422873D01*
X17276833Y-15422838D01*
X16933057Y-15564883D01*
X16669808Y-15827673D01*
X16527162Y-16171201D01*
X16526838Y-16543167D01*
X16608530Y-16740878D01*
X16562333Y-16740838D01*
X16218557Y-16882883D01*
X15955308Y-17145673D01*
X15812662Y-17489201D01*
X15812338Y-17861167D01*
X947000Y-17861167D01*
X947000Y-15543167D01*
X12326838Y-15543167D01*
X12468883Y-15886943D01*
X12731673Y-16150192D01*
X13075201Y-16292838D01*
X13447167Y-16293162D01*
X13790943Y-16151117D01*
X14054192Y-15888327D01*
X14196838Y-15544799D01*
X14197162Y-15172833D01*
X14055117Y-14829057D01*
X13792327Y-14565808D01*
X13448799Y-14423162D01*
X13076833Y-14422838D01*
X12733057Y-14564883D01*
X12469808Y-14827673D01*
X12327162Y-15171201D01*
X12326838Y-15543167D01*
X947000Y-15543167D01*
X947000Y-13874167D01*
X5373038Y-13874167D01*
X5515083Y-14217943D01*
X5777873Y-14481192D01*
X6121401Y-14623838D01*
X6493367Y-14624162D01*
X6837143Y-14482117D01*
X7100392Y-14219327D01*
X7243038Y-13875799D01*
X7243148Y-13749167D01*
X24542138Y-13749167D01*
X24684183Y-14092943D01*
X24946973Y-14356192D01*
X25290501Y-14498838D01*
X25333972Y-14498876D01*
X25383583Y-14618943D01*
X25646373Y-14882192D01*
X25989901Y-15024838D01*
X26361867Y-15025162D01*
X26705643Y-14883117D01*
X26968892Y-14620327D01*
X27111538Y-14276799D01*
X27111862Y-13904833D01*
X26969817Y-13561057D01*
X26707027Y-13297808D01*
X26363499Y-13155162D01*
X26320028Y-13155124D01*
X26290296Y-13083167D01*
X44774338Y-13083167D01*
X44916383Y-13426943D01*
X45179173Y-13690192D01*
X45522701Y-13832838D01*
X45894667Y-13833162D01*
X46238443Y-13691117D01*
X46501692Y-13428327D01*
X46644338Y-13084799D01*
X46644662Y-12712833D01*
X46539024Y-12457167D01*
X46615438Y-12457167D01*
X46757483Y-12800943D01*
X47020273Y-13064192D01*
X47363801Y-13206838D01*
X47735767Y-13207162D01*
X47953705Y-13117112D01*
X48086683Y-13438943D01*
X48349473Y-13702192D01*
X48693001Y-13844838D01*
X49064967Y-13845162D01*
X49391765Y-13710132D01*
X49421773Y-13740192D01*
X49765301Y-13882838D01*
X50137267Y-13883162D01*
X50234062Y-13843167D01*
X53626838Y-13843167D01*
X53768883Y-14186943D01*
X54031673Y-14450192D01*
X54375201Y-14592838D01*
X54747167Y-14593162D01*
X55090943Y-14451117D01*
X55354192Y-14188327D01*
X55414467Y-14043167D01*
X56126838Y-14043167D01*
X56268883Y-14386943D01*
X56531673Y-14650192D01*
X56875201Y-14792838D01*
X57247167Y-14793162D01*
X57590943Y-14651117D01*
X57854192Y-14388327D01*
X57996838Y-14044799D01*
X57997162Y-13672833D01*
X57855117Y-13329057D01*
X57592327Y-13065808D01*
X57248799Y-12923162D01*
X56876833Y-12922838D01*
X56533057Y-13064883D01*
X56269808Y-13327673D01*
X56127162Y-13671201D01*
X56126838Y-14043167D01*
X55414467Y-14043167D01*
X55496838Y-13844799D01*
X55497162Y-13472833D01*
X55355117Y-13129057D01*
X55092327Y-12865808D01*
X54748799Y-12723162D01*
X54376833Y-12722838D01*
X54033057Y-12864883D01*
X53769808Y-13127673D01*
X53627162Y-13471201D01*
X53626838Y-13843167D01*
X50234062Y-13843167D01*
X50481043Y-13741117D01*
X50744292Y-13478327D01*
X50886938Y-13134799D01*
X50887262Y-12762833D01*
X50745217Y-12419057D01*
X50482427Y-12155808D01*
X50331572Y-12093167D01*
X57826838Y-12093167D01*
X57968883Y-12436943D01*
X58231673Y-12700192D01*
X58575201Y-12842838D01*
X58947167Y-12843162D01*
X59290943Y-12701117D01*
X59554192Y-12438327D01*
X59696838Y-12094799D01*
X59696846Y-12085167D01*
X65164838Y-12085167D01*
X65306883Y-12428943D01*
X65569673Y-12692192D01*
X65913201Y-12834838D01*
X66285167Y-12835162D01*
X66406164Y-12785167D01*
X70564838Y-12785167D01*
X70706883Y-13128943D01*
X70969673Y-13392192D01*
X71313201Y-13534838D01*
X71685167Y-13535162D01*
X72028943Y-13393117D01*
X72292192Y-13130327D01*
X72434838Y-12786799D01*
X72434839Y-12785167D01*
X75464838Y-12785167D01*
X75606883Y-13128943D01*
X75869673Y-13392192D01*
X76213201Y-13534838D01*
X76585167Y-13535162D01*
X76928943Y-13393117D01*
X77192192Y-13130327D01*
X77334838Y-12786799D01*
X77335162Y-12414833D01*
X77193117Y-12071057D01*
X76930327Y-11807808D01*
X76586799Y-11665162D01*
X76214833Y-11664838D01*
X75871057Y-11806883D01*
X75607808Y-12069673D01*
X75465162Y-12413201D01*
X75464838Y-12785167D01*
X72434839Y-12785167D01*
X72435162Y-12414833D01*
X72293117Y-12071057D01*
X72030327Y-11807808D01*
X71686799Y-11665162D01*
X71314833Y-11664838D01*
X70971057Y-11806883D01*
X70707808Y-12069673D01*
X70565162Y-12413201D01*
X70564838Y-12785167D01*
X66406164Y-12785167D01*
X66628943Y-12693117D01*
X66892192Y-12430327D01*
X67034838Y-12086799D01*
X67035162Y-11714833D01*
X66893117Y-11371057D01*
X66630327Y-11107808D01*
X66286799Y-10965162D01*
X65914833Y-10964838D01*
X65571057Y-11106883D01*
X65307808Y-11369673D01*
X65165162Y-11713201D01*
X65164838Y-12085167D01*
X59696846Y-12085167D01*
X59697162Y-11722833D01*
X59555117Y-11379057D01*
X59292327Y-11115808D01*
X58948799Y-10973162D01*
X58576833Y-10972838D01*
X58233057Y-11114883D01*
X57969808Y-11377673D01*
X57827162Y-11721201D01*
X57826838Y-12093167D01*
X50331572Y-12093167D01*
X50138899Y-12013162D01*
X49766933Y-12012838D01*
X49440135Y-12147868D01*
X49410127Y-12117808D01*
X49066599Y-11975162D01*
X48694633Y-11974838D01*
X48476695Y-12064888D01*
X48343717Y-11743057D01*
X48080927Y-11479808D01*
X47737399Y-11337162D01*
X47365433Y-11336838D01*
X47021657Y-11478883D01*
X46758408Y-11741673D01*
X46615762Y-12085201D01*
X46615438Y-12457167D01*
X46539024Y-12457167D01*
X46502617Y-12369057D01*
X46239827Y-12105808D01*
X45896299Y-11963162D01*
X45524333Y-11962838D01*
X45180557Y-12104883D01*
X44917308Y-12367673D01*
X44774662Y-12711201D01*
X44774338Y-13083167D01*
X26290296Y-13083167D01*
X26270417Y-13035057D01*
X26007627Y-12771808D01*
X25664099Y-12629162D01*
X25292133Y-12628838D01*
X24948357Y-12770883D01*
X24685108Y-13033673D01*
X24542462Y-13377201D01*
X24542138Y-13749167D01*
X7243148Y-13749167D01*
X7243362Y-13503833D01*
X7101317Y-13160057D01*
X6838527Y-12896808D01*
X6494999Y-12754162D01*
X6123033Y-12753838D01*
X5779257Y-12895883D01*
X5516008Y-13158673D01*
X5373362Y-13502201D01*
X5373038Y-13874167D01*
X947000Y-13874167D01*
X947000Y-11935167D01*
X17886638Y-11935167D01*
X18028683Y-12278943D01*
X18291473Y-12542192D01*
X18635001Y-12684838D01*
X19006967Y-12685162D01*
X19240035Y-12588860D01*
X19351173Y-12700192D01*
X19694701Y-12842838D01*
X20066667Y-12843162D01*
X20410443Y-12701117D01*
X20673692Y-12438327D01*
X20816338Y-12094799D01*
X20816662Y-11722833D01*
X20783745Y-11643167D01*
X25626838Y-11643167D01*
X25768883Y-11986943D01*
X26031673Y-12250192D01*
X26375201Y-12392838D01*
X26747167Y-12393162D01*
X27090943Y-12251117D01*
X27354192Y-11988327D01*
X27496838Y-11644799D01*
X27497162Y-11272833D01*
X27355117Y-10929057D01*
X27092327Y-10665808D01*
X26796977Y-10543167D01*
X38742038Y-10543167D01*
X38884083Y-10886943D01*
X39146873Y-11150192D01*
X39490401Y-11292838D01*
X39862367Y-11293162D01*
X40206143Y-11151117D01*
X40469392Y-10888327D01*
X40612038Y-10544799D01*
X40612362Y-10172833D01*
X40470317Y-9829057D01*
X40207527Y-9565808D01*
X39863999Y-9423162D01*
X39492033Y-9422838D01*
X39148257Y-9564883D01*
X38885008Y-9827673D01*
X38742362Y-10171201D01*
X38742038Y-10543167D01*
X26796977Y-10543167D01*
X26748799Y-10523162D01*
X26376833Y-10522838D01*
X26033057Y-10664883D01*
X25769808Y-10927673D01*
X25627162Y-11271201D01*
X25626838Y-11643167D01*
X20783745Y-11643167D01*
X20674617Y-11379057D01*
X20411827Y-11115808D01*
X20068299Y-10973162D01*
X19696333Y-10972838D01*
X19463265Y-11069140D01*
X19352127Y-10957808D01*
X19008599Y-10815162D01*
X18636633Y-10814838D01*
X18292857Y-10956883D01*
X18029608Y-11219673D01*
X17886962Y-11563201D01*
X17886638Y-11935167D01*
X947000Y-11935167D01*
X947000Y-10625167D01*
X5076838Y-10625167D01*
X5218883Y-10968943D01*
X5481673Y-11232192D01*
X5825201Y-11374838D01*
X6197167Y-11375162D01*
X6540943Y-11233117D01*
X6804192Y-10970327D01*
X6946838Y-10626799D01*
X6947162Y-10254833D01*
X6805117Y-9911057D01*
X6542327Y-9647808D01*
X6198799Y-9505162D01*
X5826833Y-9504838D01*
X5483057Y-9646883D01*
X5219808Y-9909673D01*
X5077162Y-10253201D01*
X5076838Y-10625167D01*
X947000Y-10625167D01*
X947000Y-8971167D01*
X13954238Y-8971167D01*
X14096283Y-9314943D01*
X14359073Y-9578192D01*
X14702601Y-9720838D01*
X15074567Y-9721162D01*
X15418343Y-9579117D01*
X15681592Y-9316327D01*
X15684565Y-9309167D01*
X46749938Y-9309167D01*
X46891983Y-9652943D01*
X47154773Y-9916192D01*
X47498301Y-10058838D01*
X47870267Y-10059162D01*
X48059339Y-9981039D01*
X48184370Y-10066469D01*
X47978808Y-10271673D01*
X47836162Y-10615201D01*
X47835838Y-10987167D01*
X47977883Y-11330943D01*
X48240673Y-11594192D01*
X48584201Y-11736838D01*
X48956167Y-11737162D01*
X49299943Y-11595117D01*
X49563192Y-11332327D01*
X49705838Y-10988799D01*
X49706162Y-10616833D01*
X49564117Y-10273057D01*
X49414362Y-10123040D01*
X50679600Y-10123040D01*
X50914917Y-10078762D01*
X51131041Y-9939690D01*
X51276031Y-9727490D01*
X51311448Y-9552596D01*
X51341238Y-9710917D01*
X51480310Y-9927041D01*
X51692510Y-10072031D01*
X51944400Y-10123040D01*
X54179600Y-10123040D01*
X54414917Y-10078762D01*
X54631041Y-9939690D01*
X54776031Y-9727490D01*
X54811448Y-9552596D01*
X54841238Y-9710917D01*
X54980310Y-9927041D01*
X55192510Y-10072031D01*
X55444400Y-10123040D01*
X57679600Y-10123040D01*
X57914917Y-10078762D01*
X58131041Y-9939690D01*
X58276031Y-9727490D01*
X58327040Y-9475600D01*
X58327040Y-7240400D01*
X58282762Y-7005083D01*
X58143690Y-6788959D01*
X57931490Y-6643969D01*
X57679600Y-6592960D01*
X55444400Y-6592960D01*
X55209083Y-6637238D01*
X54992959Y-6776310D01*
X54847969Y-6988510D01*
X54812552Y-7163404D01*
X54782762Y-7005083D01*
X54643690Y-6788959D01*
X54431490Y-6643969D01*
X54179600Y-6592960D01*
X51944400Y-6592960D01*
X51709083Y-6637238D01*
X51492959Y-6776310D01*
X51347969Y-6988510D01*
X51312552Y-7163404D01*
X51282762Y-7005083D01*
X51143690Y-6788959D01*
X50931490Y-6643969D01*
X50679600Y-6592960D01*
X48444400Y-6592960D01*
X48209083Y-6637238D01*
X47992959Y-6776310D01*
X47847969Y-6988510D01*
X47796960Y-7240400D01*
X47796960Y-8189097D01*
X47499933Y-8188838D01*
X47156157Y-8330883D01*
X46892908Y-8593673D01*
X46750262Y-8937201D01*
X46749938Y-9309167D01*
X15684565Y-9309167D01*
X15824238Y-8972799D01*
X15824562Y-8600833D01*
X15682517Y-8257057D01*
X15419727Y-7993808D01*
X15076199Y-7851162D01*
X14704233Y-7850838D01*
X14360457Y-7992883D01*
X14097208Y-8255673D01*
X13954562Y-8599201D01*
X13954238Y-8971167D01*
X947000Y-8971167D01*
X947000Y-7788167D01*
X5868138Y-7788167D01*
X6010183Y-8131943D01*
X6272973Y-8395192D01*
X6616501Y-8537838D01*
X6988467Y-8538162D01*
X7332243Y-8396117D01*
X7595492Y-8133327D01*
X7650532Y-8000776D01*
X7693873Y-8044192D01*
X8037401Y-8186838D01*
X8409367Y-8187162D01*
X8753143Y-8045117D01*
X9016392Y-7782327D01*
X9159038Y-7438799D01*
X9159362Y-7066833D01*
X9017317Y-6723057D01*
X8754527Y-6459808D01*
X8410999Y-6317162D01*
X8039033Y-6316838D01*
X7695257Y-6458883D01*
X7432008Y-6721673D01*
X7376968Y-6854224D01*
X7333627Y-6810808D01*
X6990099Y-6668162D01*
X6618133Y-6667838D01*
X6274357Y-6809883D01*
X6011108Y-7072673D01*
X5868462Y-7416201D01*
X5868138Y-7788167D01*
X947000Y-7788167D01*
X947000Y-4158000D01*
X2127000Y-4158000D01*
X2281905Y-4936761D01*
X2723038Y-5596962D01*
X3383239Y-6038095D01*
X4162000Y-6193000D01*
X4940761Y-6038095D01*
X5600962Y-5596962D01*
X6039113Y-4941223D01*
X8715035Y-4941223D01*
X8742222Y-5511454D01*
X8908136Y-5912005D01*
X9154255Y-5986139D01*
X9982395Y-5158000D01*
X9154255Y-4329861D01*
X8908136Y-4403995D01*
X8715035Y-4941223D01*
X6039113Y-4941223D01*
X6042095Y-4936761D01*
X6197000Y-4158000D01*
X6042095Y-3379239D01*
X5749422Y-2941223D01*
X8715035Y-2941223D01*
X8742222Y-3511454D01*
X8908136Y-3912005D01*
X9154255Y-3986139D01*
X9982395Y-3158000D01*
X9154255Y-2329861D01*
X8908136Y-2403995D01*
X8715035Y-2941223D01*
X5749422Y-2941223D01*
X5600962Y-2719038D01*
X4940761Y-2277905D01*
X4162000Y-2123000D01*
X3383239Y-2277905D01*
X2723038Y-2719038D01*
X2281905Y-3379239D01*
X2127000Y-4158000D01*
X947000Y-4158000D01*
X947000Y-943000D01*
X6950719Y-943000D01*
X6699308Y-1193973D01*
M02*
