%TF.GenerationSoftware,KiCad,Pcbnew,4.0.1-stable*%
%TF.CreationDate,2016-08-15T16:12:19+09:00*%
%TF.ProjectId,Shimonso-IoT-Type-R,5368696D6F6E736F2D496F542D547970,rev?*%
%TF.FileFunction,Legend,Top*%
%FSLAX46Y46*%
G04 Gerber Fmt 4.6, Leading zero omitted, Abs format (unit mm)*
G04 Created by KiCad (PCBNEW 4.0.1-stable) date 2016/08/15 16:12:19*
%MOMM*%
G01*
G04 APERTURE LIST*
%ADD10C,0.100000*%
%ADD11C,0.200000*%
%ADD12C,0.150000*%
%ADD13C,0.300000*%
%ADD14C,0.250000*%
%ADD15R,2.435200X2.435200*%
%ADD16R,3.300000X0.504800*%
%ADD17R,1.700000X1.750000*%
%ADD18R,0.600000X1.550000*%
%ADD19O,1.090000X1.750000*%
%ADD20O,1.450000X1.150000*%
%ADD21R,0.700000X1.650000*%
%ADD22R,0.600000X0.600000*%
%ADD23R,1.500000X2.100000*%
%ADD24R,1.020000X0.900000*%
%ADD25R,2.000000X0.760000*%
%ADD26R,0.630000X0.530000*%
%ADD27R,0.530000X0.630000*%
%ADD28O,0.850000X0.600000*%
%ADD29R,0.600000X0.750000*%
%ADD30O,0.600000X0.850000*%
%ADD31R,1.100000X0.600000*%
%ADD32R,0.750000X0.600000*%
%ADD33R,0.575000X0.550000*%
%ADD34R,0.550000X0.575000*%
%ADD35R,1.920000X0.700000*%
%ADD36R,0.540000X1.710000*%
%ADD37R,2.200000X0.500000*%
%ADD38R,2.300000X0.740000*%
%ADD39R,1.540000X3.800000*%
%ADD40R,0.810000X2.200000*%
%ADD41R,0.910000X2.300000*%
%ADD42C,1.800000*%
%ADD43R,1.900000X1.400000*%
%ADD44R,1.000000X0.900000*%
%ADD45R,0.900000X1.000000*%
%ADD46R,1.000000X1.100000*%
%ADD47R,9.200000X9.200000*%
%ADD48R,2.900000X1.100000*%
%ADD49R,1.100000X2.900000*%
%ADD50R,1.900000X6.500000*%
%ADD51R,1.400000X1.100000*%
%ADD52R,1.810000X0.570000*%
%ADD53R,1.810000X0.560000*%
%ADD54R,0.550000X0.900000*%
%ADD55R,0.570000X1.810000*%
%ADD56R,0.560000X1.810000*%
%ADD57R,0.570000X2.200000*%
%ADD58R,0.600000X0.950000*%
%ADD59R,0.600000X2.600000*%
%ADD60R,0.997560X0.997560*%
G04 APERTURE END LIST*
D10*
D11*
X83662000Y-4158000D02*
G75*
G03X83662000Y-4158000I-2500000J0D01*
G01*
X6662000Y-4158000D02*
G75*
G03X6662000Y-4158000I-2500000J0D01*
G01*
D12*
X58112000Y-6808000D02*
X58112000Y-8358000D01*
X55012000Y-8358000D02*
X55012000Y-6808000D01*
X55012000Y-6808000D02*
X58112000Y-6808000D01*
X55292000Y-9628000D02*
X57832000Y-9628000D01*
X54612000Y-6808000D02*
X54612000Y-8358000D01*
X51512000Y-8358000D02*
X51512000Y-6808000D01*
X51512000Y-6808000D02*
X54612000Y-6808000D01*
X51792000Y-9628000D02*
X54332000Y-9628000D01*
X51112000Y-6808000D02*
X51112000Y-8358000D01*
X48012000Y-8358000D02*
X48012000Y-6808000D01*
X48012000Y-6808000D02*
X51112000Y-6808000D01*
X48292000Y-9628000D02*
X50832000Y-9628000D01*
X77812000Y-2508000D02*
X77812000Y-4058000D01*
X74712000Y-4058000D02*
X74712000Y-2508000D01*
X74712000Y-2508000D02*
X77812000Y-2508000D01*
X74992000Y-5328000D02*
X77532000Y-5328000D01*
X3912000Y-50708000D02*
X3912000Y-52258000D01*
X812000Y-52258000D02*
X812000Y-50708000D01*
X812000Y-50708000D02*
X3912000Y-50708000D01*
X1092000Y-53528000D02*
X3632000Y-53528000D01*
X6212000Y-41408000D02*
X6212000Y-42958000D01*
X3112000Y-42958000D02*
X3112000Y-41408000D01*
X3112000Y-41408000D02*
X6212000Y-41408000D01*
X3392000Y-44228000D02*
X5932000Y-44228000D01*
D13*
X8668362Y-41650400D02*
G75*
G03X8668362Y-41650400I-183162J0D01*
G01*
X17162000Y-42158000D02*
X17162000Y-48158000D01*
X17162000Y-48158000D02*
X9162000Y-48158000D01*
X9162000Y-48158000D02*
X9162000Y-42158000D01*
X9162000Y-42158000D02*
X17162000Y-42158000D01*
X16862000Y-49858000D02*
X17212000Y-49858000D01*
X17262000Y-51258000D02*
X17262000Y-49858000D01*
X9262000Y-51258000D02*
X9262000Y-49858000D01*
X9312000Y-49858000D02*
X9662000Y-49858000D01*
X35128644Y-31204400D02*
G75*
G03X35128644Y-31204400I-160644J0D01*
G01*
X35462000Y-25808000D02*
X40062000Y-25808000D01*
X40062000Y-25808000D02*
X40062000Y-30708000D01*
X40062000Y-30708000D02*
X35462000Y-30708000D01*
X35462000Y-30708000D02*
X35462000Y-25808000D01*
X751844Y-11058000D02*
G75*
G03X751844Y-11058000I-160644J0D01*
G01*
X9462000Y-14058000D02*
X1562000Y-14058000D01*
X1562000Y-14058000D02*
X1562000Y-8058000D01*
X1562000Y-8058000D02*
X9462000Y-8058000D01*
X9462000Y-8058000D02*
X9462000Y-14058000D01*
X22859405Y-15375200D02*
G75*
G03X22859405Y-15375200I-179605J0D01*
G01*
X22227000Y-15883000D02*
X17697000Y-15883000D01*
X17697000Y-15883000D02*
X17697000Y-19033000D01*
X17697000Y-19033000D02*
X22227000Y-19033000D01*
X22227000Y-19033000D02*
X22227000Y-15883000D01*
X10412000Y-13608000D02*
X10412000Y-7708000D01*
X10412000Y-7708000D02*
X18512000Y-7708000D01*
X18512000Y-7708000D02*
X18512000Y-13608000D01*
X18512000Y-13608000D02*
X10412000Y-13608000D01*
X52773605Y-22217000D02*
G75*
G03X52773605Y-22217000I-179605J0D01*
G01*
X52007000Y-21503000D02*
X49117000Y-21503000D01*
X49117000Y-21503000D02*
X49117000Y-18613000D01*
X49117000Y-18613000D02*
X52007000Y-18613000D01*
X52007000Y-18613000D02*
X52007000Y-21503000D01*
X43527605Y-23871000D02*
G75*
G03X43527605Y-23871000I-179605J0D01*
G01*
X39312000Y-23208000D02*
X39312000Y-19708000D01*
X42812000Y-23208000D02*
X42812000Y-19708000D01*
X42812000Y-19708000D02*
X39312000Y-19708000D01*
X42812000Y-23208000D02*
X39312000Y-23208000D01*
X53819000Y-16701000D02*
G75*
G03X53819000Y-16701000I-127000J0D01*
G01*
X54374500Y-13470500D02*
X57049500Y-13470500D01*
X57049500Y-16145500D02*
X57049500Y-13470500D01*
X54374500Y-16145500D02*
X57049500Y-16145500D01*
X54374500Y-16145500D02*
X54374500Y-13470500D01*
X42147605Y-6473600D02*
G75*
G03X42147605Y-6473600I-179605J0D01*
G01*
X47072000Y-7008000D02*
X47072000Y-10308000D01*
X42452000Y-7008000D02*
X42452000Y-10308000D01*
X47072000Y-7008000D02*
X42452000Y-7008000D01*
X47072000Y-10308000D02*
X42452000Y-10308000D01*
X79202000Y-38828000D02*
X76302000Y-38828000D01*
X76302000Y-38828000D02*
X76302000Y-43728000D01*
X76302000Y-43728000D02*
X79202000Y-43728000D01*
X79202000Y-43728000D02*
X79202000Y-38828000D01*
X79916362Y-38179200D02*
G75*
G03X79916362Y-38179200I-183162J0D01*
G01*
X56281284Y-28337200D02*
G75*
G03X56281284Y-28337200I-143684J0D01*
G01*
X65012000Y-28883000D02*
X65012000Y-34983000D01*
X65012000Y-34983000D02*
X56712000Y-34983000D01*
X56712000Y-34983000D02*
X56712000Y-28883000D01*
X56712000Y-28883000D02*
X65012000Y-28883000D01*
X70112000Y-19983000D02*
X70112000Y-14733000D01*
X70112000Y-14733000D02*
X78012000Y-14733000D01*
X78012000Y-14723000D02*
X78012000Y-19983000D01*
X78012000Y-19983000D02*
X70112000Y-19983000D01*
X34662000Y-45708000D02*
X34662000Y-52158000D01*
X58662000Y-45708000D02*
X58662000Y-52158000D01*
X58662000Y-45708000D02*
X34662000Y-45708000D01*
X60462000Y-45708000D02*
X60462000Y-52158000D01*
X84462000Y-45708000D02*
X84462000Y-52158000D01*
X84462000Y-45708000D02*
X60462000Y-45708000D01*
X70012000Y-12483000D02*
X70012000Y-7233000D01*
X70012000Y-7233000D02*
X77912000Y-7233000D01*
X77912000Y-7223000D02*
X77912000Y-12483000D01*
X77912000Y-12483000D02*
X70012000Y-12483000D01*
X16362000Y-38408000D02*
X16762000Y-38408000D01*
X13362000Y-38408000D02*
X13762000Y-38408000D01*
X16362000Y-34508000D02*
X16762000Y-34508000D01*
X13362000Y-34508000D02*
X13762000Y-34508000D01*
X16762000Y-38408000D02*
X16762000Y-34508000D01*
X13362000Y-38408000D02*
X13362000Y-34508000D01*
X9912000Y-17458000D02*
X9912000Y-18458000D01*
X8412000Y-18458000D02*
X8412000Y-17458000D01*
X23012000Y-8258000D02*
X23012000Y-7258000D01*
X24512000Y-7258000D02*
X24512000Y-8258000D01*
X28162000Y-52008000D02*
X29162000Y-52008000D01*
X29162000Y-53508000D02*
X28162000Y-53508000D01*
X28162000Y-48708000D02*
X29162000Y-48708000D01*
X29162000Y-50208000D02*
X28162000Y-50208000D01*
X50582000Y-40518000D02*
X50582000Y-41518000D01*
X49082000Y-41518000D02*
X49082000Y-40518000D01*
X48532000Y-41628000D02*
X48532000Y-42628000D01*
X47032000Y-42628000D02*
X47032000Y-41628000D01*
X32812000Y-9158000D02*
X32812000Y-8158000D01*
X34312000Y-8158000D02*
X34312000Y-9158000D01*
X37662000Y-10158000D02*
X37862000Y-10158000D01*
X39612000Y-10158000D02*
X40862000Y-10158000D01*
X38612000Y-12558000D02*
X40862000Y-12558000D01*
X34662000Y-12558000D02*
X36912000Y-12558000D01*
X34662000Y-10158000D02*
X35912000Y-10158000D01*
X40862000Y-10158000D02*
X40862000Y-12558000D01*
X34662000Y-10158000D02*
X34662000Y-12558000D01*
X6912000Y-15758000D02*
X5912000Y-14758000D01*
X6912000Y-18358000D02*
X5912000Y-19358000D01*
X1612000Y-19358000D02*
X1612000Y-17858000D01*
X1612000Y-16258000D02*
X1612000Y-14758000D01*
X6912000Y-16258000D02*
X6912000Y-15758000D01*
X6912000Y-18358000D02*
X6912000Y-17858000D01*
X1612000Y-14758000D02*
X5912000Y-14758000D01*
X1612000Y-19358000D02*
X5912000Y-19358000D01*
X78512000Y-23058000D02*
X77512000Y-24058000D01*
X83412000Y-23058000D02*
X84412000Y-24058000D01*
X84412000Y-30658000D02*
X81762000Y-30658000D01*
X80162000Y-30658000D02*
X77512000Y-30658000D01*
X80162000Y-23058000D02*
X78512000Y-23058000D01*
X83412000Y-23058000D02*
X81762000Y-23058000D01*
X77512000Y-30658000D02*
X77512000Y-24058000D01*
X84412000Y-30658000D02*
X84412000Y-24058000D01*
X71012000Y-23058000D02*
X70012000Y-24058000D01*
X75912000Y-23058000D02*
X76912000Y-24058000D01*
X76912000Y-30658000D02*
X74262000Y-30658000D01*
X72662000Y-30658000D02*
X70012000Y-30658000D01*
X72662000Y-23058000D02*
X71012000Y-23058000D01*
X75912000Y-23058000D02*
X74262000Y-23058000D01*
X70012000Y-30658000D02*
X70012000Y-24058000D01*
X76912000Y-30658000D02*
X76912000Y-24058000D01*
X82262000Y-20308000D02*
X83262000Y-19308000D01*
X79662000Y-20308000D02*
X78662000Y-19308000D01*
X78662000Y-15008000D02*
X80162000Y-15008000D01*
X81762000Y-15008000D02*
X83262000Y-15008000D01*
X81762000Y-20308000D02*
X82262000Y-20308000D01*
X79662000Y-20308000D02*
X80162000Y-20308000D01*
X83262000Y-15008000D02*
X83262000Y-19308000D01*
X78662000Y-15008000D02*
X78662000Y-19308000D01*
X82062000Y-12808000D02*
X83062000Y-11808000D01*
X79462000Y-12808000D02*
X78462000Y-11808000D01*
X78462000Y-7508000D02*
X79962000Y-7508000D01*
X81562000Y-7508000D02*
X83062000Y-7508000D01*
X81562000Y-12808000D02*
X82062000Y-12808000D01*
X79462000Y-12808000D02*
X79962000Y-12808000D01*
X83062000Y-7508000D02*
X83062000Y-11808000D01*
X78462000Y-7508000D02*
X78462000Y-11808000D01*
X68462000Y-12808000D02*
X69462000Y-11808000D01*
X65862000Y-12808000D02*
X64862000Y-11808000D01*
X64862000Y-7508000D02*
X66362000Y-7508000D01*
X67962000Y-7508000D02*
X69462000Y-7508000D01*
X67962000Y-12808000D02*
X68462000Y-12808000D01*
X65862000Y-12808000D02*
X66362000Y-12808000D01*
X69462000Y-7508000D02*
X69462000Y-11808000D01*
X64862000Y-7508000D02*
X64862000Y-11808000D01*
X68462000Y-20208000D02*
X69462000Y-19208000D01*
X65862000Y-20208000D02*
X64862000Y-19208000D01*
X64862000Y-14908000D02*
X66362000Y-14908000D01*
X67962000Y-14908000D02*
X69462000Y-14908000D01*
X67962000Y-20208000D02*
X68462000Y-20208000D01*
X65862000Y-20208000D02*
X66362000Y-20208000D01*
X69462000Y-14908000D02*
X69462000Y-19208000D01*
X64862000Y-14908000D02*
X64862000Y-19208000D01*
X5162000Y-48008000D02*
X4162000Y-49008000D01*
X7762000Y-48008000D02*
X8762000Y-49008000D01*
X8762000Y-53308000D02*
X7262000Y-53308000D01*
X5662000Y-53308000D02*
X4162000Y-53308000D01*
X5662000Y-48008000D02*
X5162000Y-48008000D01*
X7762000Y-48008000D02*
X7262000Y-48008000D01*
X4162000Y-53308000D02*
X4162000Y-49008000D01*
X8762000Y-53308000D02*
X8762000Y-49008000D01*
X3262000Y-19808000D02*
X4262000Y-19808000D01*
X4262000Y-21308000D02*
X3262000Y-21308000D01*
X56512000Y-44218000D02*
X55512000Y-44218000D01*
X55512000Y-42718000D02*
X56512000Y-42718000D01*
X2212000Y-48258000D02*
X2212000Y-47258000D01*
X3712000Y-47258000D02*
X3712000Y-48258000D01*
X10362000Y-32408000D02*
X14712000Y-32408000D01*
X10362000Y-21308000D02*
X12662000Y-21308000D01*
X12662000Y-21308000D02*
X14712000Y-23358000D01*
X3612000Y-23358000D02*
X5662000Y-21308000D01*
X5662000Y-21308000D02*
X7962000Y-21308000D01*
X14712000Y-32408000D02*
X14712000Y-23358000D01*
X3612000Y-32408000D02*
X3612000Y-23358000D01*
X3612000Y-32408000D02*
X7962000Y-32408000D01*
X1112000Y-43358000D02*
X1112000Y-42358000D01*
X2612000Y-42358000D02*
X2612000Y-43358000D01*
X14312000Y-40958000D02*
X14312000Y-39958000D01*
X15812000Y-39958000D02*
X15812000Y-40958000D01*
X10112000Y-16033000D02*
X11812000Y-16033000D01*
X10112000Y-14483000D02*
X11812000Y-14483000D01*
X24912000Y-12608000D02*
X24912000Y-9708000D01*
X24912000Y-9708000D02*
X20012000Y-9708000D01*
X20012000Y-9708000D02*
X20012000Y-12608000D01*
X20012000Y-12608000D02*
X24912000Y-12608000D01*
X25743962Y-13139200D02*
G75*
G03X25743962Y-13139200I-183162J0D01*
G01*
X17862005Y-24417000D02*
G75*
G03X17862005Y-24417000I-179605J0D01*
G01*
X18212000Y-24008000D02*
X20912000Y-24008000D01*
X20912000Y-24008000D02*
X20912000Y-20508000D01*
X20912000Y-20508000D02*
X18212000Y-20508000D01*
X18212000Y-20508000D02*
X18212000Y-24008000D01*
X54212000Y-38708000D02*
X51312000Y-38708000D01*
X51312000Y-38708000D02*
X51312000Y-43608000D01*
X51312000Y-43608000D02*
X54212000Y-43608000D01*
X54212000Y-43608000D02*
X54212000Y-38708000D01*
X54926362Y-38059200D02*
G75*
G03X54926362Y-38059200I-183162J0D01*
G01*
X30442000Y-19108000D02*
X33682000Y-19108000D01*
X33682000Y-19108000D02*
X33682000Y-25808000D01*
X33682000Y-25808000D02*
X30442000Y-25808000D01*
X30442000Y-25808000D02*
X30442000Y-19108000D01*
X32492000Y-30788000D02*
X30392000Y-30788000D01*
X32492000Y-27388000D02*
X30392000Y-27388000D01*
X30392000Y-30788000D02*
X30392000Y-27388000D01*
X32492000Y-30788000D02*
X32492000Y-27388000D01*
D12*
X34162000Y-12608000D02*
X34162000Y-10708000D01*
X32962000Y-12633000D02*
X32962000Y-10733000D01*
X33562000Y-11858000D02*
X33562000Y-11408000D01*
X33312000Y-11858000D02*
X33812000Y-11858000D01*
X33562000Y-11783000D02*
X33312000Y-11533000D01*
X33337000Y-11533000D02*
X33837000Y-11533000D01*
X33837000Y-11533000D02*
X33587000Y-11783000D01*
X61862000Y-3308000D02*
X61862000Y-1408000D01*
X60662000Y-3333000D02*
X60662000Y-1433000D01*
X61262000Y-2558000D02*
X61262000Y-2108000D01*
X61012000Y-2558000D02*
X61512000Y-2558000D01*
X61262000Y-2483000D02*
X61012000Y-2233000D01*
X61037000Y-2233000D02*
X61537000Y-2233000D01*
X61537000Y-2233000D02*
X61287000Y-2483000D01*
X66862000Y-3308000D02*
X66862000Y-1408000D01*
X65662000Y-3333000D02*
X65662000Y-1433000D01*
X66262000Y-2558000D02*
X66262000Y-2108000D01*
X66012000Y-2558000D02*
X66512000Y-2558000D01*
X66262000Y-2483000D02*
X66012000Y-2233000D01*
X66037000Y-2233000D02*
X66537000Y-2233000D01*
X66537000Y-2233000D02*
X66287000Y-2483000D01*
X72662000Y-3408000D02*
X72662000Y-1508000D01*
X71462000Y-3433000D02*
X71462000Y-1533000D01*
X72062000Y-2658000D02*
X72062000Y-2208000D01*
X71812000Y-2658000D02*
X72312000Y-2658000D01*
X72062000Y-2583000D02*
X71812000Y-2333000D01*
X71837000Y-2333000D02*
X72337000Y-2333000D01*
X72337000Y-2333000D02*
X72087000Y-2583000D01*
X23812000Y-50058000D02*
X25712000Y-50058000D01*
X23787000Y-48858000D02*
X25687000Y-48858000D01*
X24562000Y-49458000D02*
X25012000Y-49458000D01*
X24562000Y-49208000D02*
X24562000Y-49708000D01*
X24637000Y-49458000D02*
X24887000Y-49208000D01*
X24887000Y-49233000D02*
X24887000Y-49733000D01*
X24887000Y-49733000D02*
X24637000Y-49483000D01*
X23812000Y-53358000D02*
X25712000Y-53358000D01*
X23787000Y-52158000D02*
X25687000Y-52158000D01*
X24562000Y-52758000D02*
X25012000Y-52758000D01*
X24562000Y-52508000D02*
X24562000Y-53008000D01*
X24637000Y-52758000D02*
X24887000Y-52508000D01*
X24887000Y-52533000D02*
X24887000Y-53033000D01*
X24887000Y-53033000D02*
X24637000Y-52783000D01*
D14*
X55302286Y-10036381D02*
X55873715Y-10036381D01*
X55588000Y-11036381D02*
X55588000Y-10036381D01*
X56207048Y-11036381D02*
X56207048Y-10036381D01*
X56207048Y-10512571D02*
X56778477Y-10512571D01*
X56778477Y-11036381D02*
X56778477Y-10036381D01*
X57683239Y-10036381D02*
X57492762Y-10036381D01*
X57397524Y-10084000D01*
X57349905Y-10131619D01*
X57254667Y-10274476D01*
X57207048Y-10464952D01*
X57207048Y-10845905D01*
X57254667Y-10941143D01*
X57302286Y-10988762D01*
X57397524Y-11036381D01*
X57588001Y-11036381D01*
X57683239Y-10988762D01*
X57730858Y-10941143D01*
X57778477Y-10845905D01*
X57778477Y-10607810D01*
X57730858Y-10512571D01*
X57683239Y-10464952D01*
X57588001Y-10417333D01*
X57397524Y-10417333D01*
X57302286Y-10464952D01*
X57254667Y-10512571D01*
X57207048Y-10607810D01*
X51826286Y-5460381D02*
X52397715Y-5460381D01*
X52112000Y-6460381D02*
X52112000Y-5460381D01*
X52731048Y-6460381D02*
X52731048Y-5460381D01*
X52731048Y-5936571D02*
X53302477Y-5936571D01*
X53302477Y-6460381D02*
X53302477Y-5460381D01*
X54254858Y-5460381D02*
X53778667Y-5460381D01*
X53731048Y-5936571D01*
X53778667Y-5888952D01*
X53873905Y-5841333D01*
X54112001Y-5841333D01*
X54207239Y-5888952D01*
X54254858Y-5936571D01*
X54302477Y-6031810D01*
X54302477Y-6269905D01*
X54254858Y-6365143D01*
X54207239Y-6412762D01*
X54112001Y-6460381D01*
X53873905Y-6460381D01*
X53778667Y-6412762D01*
X53731048Y-6365143D01*
X48190286Y-10036381D02*
X48761715Y-10036381D01*
X48476000Y-11036381D02*
X48476000Y-10036381D01*
X49095048Y-11036381D02*
X49095048Y-10036381D01*
X49095048Y-10512571D02*
X49666477Y-10512571D01*
X49666477Y-11036381D02*
X49666477Y-10036381D01*
X50571239Y-10369714D02*
X50571239Y-11036381D01*
X50333143Y-9988762D02*
X50095048Y-10703048D01*
X50714096Y-10703048D01*
X75026286Y-1160381D02*
X75597715Y-1160381D01*
X75312000Y-2160381D02*
X75312000Y-1160381D01*
X75931048Y-2160381D02*
X75931048Y-1160381D01*
X75931048Y-1636571D02*
X76502477Y-1636571D01*
X76502477Y-2160381D02*
X76502477Y-1160381D01*
X76883429Y-1160381D02*
X77502477Y-1160381D01*
X77169143Y-1541333D01*
X77312001Y-1541333D01*
X77407239Y-1588952D01*
X77454858Y-1636571D01*
X77502477Y-1731810D01*
X77502477Y-1969905D01*
X77454858Y-2065143D01*
X77407239Y-2112762D01*
X77312001Y-2160381D01*
X77026286Y-2160381D01*
X76931048Y-2112762D01*
X76883429Y-2065143D01*
X1126286Y-49360381D02*
X1697715Y-49360381D01*
X1412000Y-50360381D02*
X1412000Y-49360381D01*
X2031048Y-50360381D02*
X2031048Y-49360381D01*
X2031048Y-49836571D02*
X2602477Y-49836571D01*
X2602477Y-50360381D02*
X2602477Y-49360381D01*
X3031048Y-49455619D02*
X3078667Y-49408000D01*
X3173905Y-49360381D01*
X3412001Y-49360381D01*
X3507239Y-49408000D01*
X3554858Y-49455619D01*
X3602477Y-49550857D01*
X3602477Y-49646095D01*
X3554858Y-49788952D01*
X2983429Y-50360381D01*
X3602477Y-50360381D01*
X6764381Y-44127714D02*
X6764381Y-43556285D01*
X7764381Y-43842000D02*
X6764381Y-43842000D01*
X7764381Y-43222952D02*
X6764381Y-43222952D01*
X7240571Y-43222952D02*
X7240571Y-42651523D01*
X7764381Y-42651523D02*
X6764381Y-42651523D01*
X7764381Y-41651523D02*
X7764381Y-42222952D01*
X7764381Y-41937238D02*
X6764381Y-41937238D01*
X6907238Y-42032476D01*
X7002476Y-42127714D01*
X7050095Y-42222952D01*
X9300095Y-40710381D02*
X9300095Y-41519905D01*
X9347714Y-41615143D01*
X9395333Y-41662762D01*
X9490571Y-41710381D01*
X9681048Y-41710381D01*
X9776286Y-41662762D01*
X9823905Y-41615143D01*
X9871524Y-41519905D01*
X9871524Y-40710381D01*
X10871524Y-41710381D02*
X10300095Y-41710381D01*
X10585809Y-41710381D02*
X10585809Y-40710381D01*
X10490571Y-40853238D01*
X10395333Y-40948476D01*
X10300095Y-40996095D01*
X18347715Y-53415143D02*
X18300096Y-53462762D01*
X18157239Y-53510381D01*
X18062001Y-53510381D01*
X17919143Y-53462762D01*
X17823905Y-53367524D01*
X17776286Y-53272286D01*
X17728667Y-53081810D01*
X17728667Y-52938952D01*
X17776286Y-52748476D01*
X17823905Y-52653238D01*
X17919143Y-52558000D01*
X18062001Y-52510381D01*
X18157239Y-52510381D01*
X18300096Y-52558000D01*
X18347715Y-52605619D01*
X18966762Y-52510381D02*
X19157239Y-52510381D01*
X19252477Y-52558000D01*
X19347715Y-52653238D01*
X19395334Y-52843714D01*
X19395334Y-53177048D01*
X19347715Y-53367524D01*
X19252477Y-53462762D01*
X19157239Y-53510381D01*
X18966762Y-53510381D01*
X18871524Y-53462762D01*
X18776286Y-53367524D01*
X18728667Y-53177048D01*
X18728667Y-52843714D01*
X18776286Y-52653238D01*
X18871524Y-52558000D01*
X18966762Y-52510381D01*
X19823905Y-53510381D02*
X19823905Y-52510381D01*
X20395334Y-53510381D01*
X20395334Y-52510381D01*
X20776286Y-52510381D02*
X21395334Y-52510381D01*
X21062000Y-52891333D01*
X21204858Y-52891333D01*
X21300096Y-52938952D01*
X21347715Y-52986571D01*
X21395334Y-53081810D01*
X21395334Y-53319905D01*
X21347715Y-53415143D01*
X21300096Y-53462762D01*
X21204858Y-53510381D01*
X20919143Y-53510381D01*
X20823905Y-53462762D01*
X20776286Y-53415143D01*
X36481905Y-24412381D02*
X36481905Y-25221905D01*
X36529524Y-25317143D01*
X36577143Y-25364762D01*
X36672381Y-25412381D01*
X36862858Y-25412381D01*
X36958096Y-25364762D01*
X37005715Y-25317143D01*
X37053334Y-25221905D01*
X37053334Y-24412381D01*
X38053334Y-25412381D02*
X37481905Y-25412381D01*
X37767619Y-25412381D02*
X37767619Y-24412381D01*
X37672381Y-24555238D01*
X37577143Y-24650476D01*
X37481905Y-24698095D01*
X38624762Y-24840952D02*
X38529524Y-24793333D01*
X38481905Y-24745714D01*
X38434286Y-24650476D01*
X38434286Y-24602857D01*
X38481905Y-24507619D01*
X38529524Y-24460000D01*
X38624762Y-24412381D01*
X38815239Y-24412381D01*
X38910477Y-24460000D01*
X38958096Y-24507619D01*
X39005715Y-24602857D01*
X39005715Y-24650476D01*
X38958096Y-24745714D01*
X38910477Y-24793333D01*
X38815239Y-24840952D01*
X38624762Y-24840952D01*
X38529524Y-24888571D01*
X38481905Y-24936190D01*
X38434286Y-25031429D01*
X38434286Y-25221905D01*
X38481905Y-25317143D01*
X38529524Y-25364762D01*
X38624762Y-25412381D01*
X38815239Y-25412381D01*
X38910477Y-25364762D01*
X38958096Y-25317143D01*
X39005715Y-25221905D01*
X39005715Y-25031429D01*
X38958096Y-24936190D01*
X38910477Y-24888571D01*
X38815239Y-24840952D01*
X6723905Y-6610381D02*
X6723905Y-7419905D01*
X6771524Y-7515143D01*
X6819143Y-7562762D01*
X6914381Y-7610381D01*
X7104858Y-7610381D01*
X7200096Y-7562762D01*
X7247715Y-7515143D01*
X7295334Y-7419905D01*
X7295334Y-6610381D01*
X8295334Y-7610381D02*
X7723905Y-7610381D01*
X8009619Y-7610381D02*
X8009619Y-6610381D01*
X7914381Y-6753238D01*
X7819143Y-6848476D01*
X7723905Y-6896095D01*
X9152477Y-6610381D02*
X8962000Y-6610381D01*
X8866762Y-6658000D01*
X8819143Y-6705619D01*
X8723905Y-6848476D01*
X8676286Y-7038952D01*
X8676286Y-7419905D01*
X8723905Y-7515143D01*
X8771524Y-7562762D01*
X8866762Y-7610381D01*
X9057239Y-7610381D01*
X9152477Y-7562762D01*
X9200096Y-7515143D01*
X9247715Y-7419905D01*
X9247715Y-7181810D01*
X9200096Y-7086571D01*
X9152477Y-7038952D01*
X9057239Y-6991333D01*
X8866762Y-6991333D01*
X8771524Y-7038952D01*
X8723905Y-7086571D01*
X8676286Y-7181810D01*
X22514381Y-18796095D02*
X23323905Y-18796095D01*
X23419143Y-18748476D01*
X23466762Y-18700857D01*
X23514381Y-18605619D01*
X23514381Y-18415142D01*
X23466762Y-18319904D01*
X23419143Y-18272285D01*
X23323905Y-18224666D01*
X22514381Y-18224666D01*
X23514381Y-17224666D02*
X23514381Y-17796095D01*
X23514381Y-17510381D02*
X22514381Y-17510381D01*
X22657238Y-17605619D01*
X22752476Y-17700857D01*
X22800095Y-17796095D01*
X22514381Y-16891333D02*
X22514381Y-16272285D01*
X22895333Y-16605619D01*
X22895333Y-16462761D01*
X22942952Y-16367523D01*
X22990571Y-16319904D01*
X23085810Y-16272285D01*
X23323905Y-16272285D01*
X23419143Y-16319904D01*
X23466762Y-16367523D01*
X23514381Y-16462761D01*
X23514381Y-16748476D01*
X23466762Y-16843714D01*
X23419143Y-16891333D01*
X13223905Y-13910381D02*
X13223905Y-14719905D01*
X13271524Y-14815143D01*
X13319143Y-14862762D01*
X13414381Y-14910381D01*
X13604858Y-14910381D01*
X13700096Y-14862762D01*
X13747715Y-14815143D01*
X13795334Y-14719905D01*
X13795334Y-13910381D01*
X14795334Y-14910381D02*
X14223905Y-14910381D01*
X14509619Y-14910381D02*
X14509619Y-13910381D01*
X14414381Y-14053238D01*
X14319143Y-14148476D01*
X14223905Y-14196095D01*
X15176286Y-14005619D02*
X15223905Y-13958000D01*
X15319143Y-13910381D01*
X15557239Y-13910381D01*
X15652477Y-13958000D01*
X15700096Y-14005619D01*
X15747715Y-14100857D01*
X15747715Y-14196095D01*
X15700096Y-14338952D01*
X15128667Y-14910381D01*
X15747715Y-14910381D01*
X52364381Y-21246095D02*
X53173905Y-21246095D01*
X53269143Y-21198476D01*
X53316762Y-21150857D01*
X53364381Y-21055619D01*
X53364381Y-20865142D01*
X53316762Y-20769904D01*
X53269143Y-20722285D01*
X53173905Y-20674666D01*
X52364381Y-20674666D01*
X53364381Y-19674666D02*
X53364381Y-20246095D01*
X53364381Y-19960381D02*
X52364381Y-19960381D01*
X52507238Y-20055619D01*
X52602476Y-20150857D01*
X52650095Y-20246095D01*
X53364381Y-18722285D02*
X53364381Y-19293714D01*
X53364381Y-19008000D02*
X52364381Y-19008000D01*
X52507238Y-19103238D01*
X52602476Y-19198476D01*
X52650095Y-19293714D01*
X40300095Y-23510381D02*
X40300095Y-24319905D01*
X40347714Y-24415143D01*
X40395333Y-24462762D01*
X40490571Y-24510381D01*
X40681048Y-24510381D01*
X40776286Y-24462762D01*
X40823905Y-24415143D01*
X40871524Y-24319905D01*
X40871524Y-23510381D01*
X41395333Y-24510381D02*
X41585809Y-24510381D01*
X41681048Y-24462762D01*
X41728667Y-24415143D01*
X41823905Y-24272286D01*
X41871524Y-24081810D01*
X41871524Y-23700857D01*
X41823905Y-23605619D01*
X41776286Y-23558000D01*
X41681048Y-23510381D01*
X41490571Y-23510381D01*
X41395333Y-23558000D01*
X41347714Y-23605619D01*
X41300095Y-23700857D01*
X41300095Y-23938952D01*
X41347714Y-24034190D01*
X41395333Y-24081810D01*
X41490571Y-24129429D01*
X41681048Y-24129429D01*
X41776286Y-24081810D01*
X41823905Y-24034190D01*
X41871524Y-23938952D01*
X53014381Y-15469905D02*
X53823905Y-15469905D01*
X53919143Y-15422286D01*
X53966762Y-15374667D01*
X54014381Y-15279429D01*
X54014381Y-15088952D01*
X53966762Y-14993714D01*
X53919143Y-14946095D01*
X53823905Y-14898476D01*
X53014381Y-14898476D01*
X53442952Y-14279429D02*
X53395333Y-14374667D01*
X53347714Y-14422286D01*
X53252476Y-14469905D01*
X53204857Y-14469905D01*
X53109619Y-14422286D01*
X53062000Y-14374667D01*
X53014381Y-14279429D01*
X53014381Y-14088952D01*
X53062000Y-13993714D01*
X53109619Y-13946095D01*
X53204857Y-13898476D01*
X53252476Y-13898476D01*
X53347714Y-13946095D01*
X53395333Y-13993714D01*
X53442952Y-14088952D01*
X53442952Y-14279429D01*
X53490571Y-14374667D01*
X53538190Y-14422286D01*
X53633429Y-14469905D01*
X53823905Y-14469905D01*
X53919143Y-14422286D01*
X53966762Y-14374667D01*
X54014381Y-14279429D01*
X54014381Y-14088952D01*
X53966762Y-13993714D01*
X53919143Y-13946095D01*
X53823905Y-13898476D01*
X53633429Y-13898476D01*
X53538190Y-13946095D01*
X53490571Y-13993714D01*
X53442952Y-14088952D01*
X43888095Y-10798381D02*
X43888095Y-11607905D01*
X43935714Y-11703143D01*
X43983333Y-11750762D01*
X44078571Y-11798381D01*
X44269048Y-11798381D01*
X44364286Y-11750762D01*
X44411905Y-11703143D01*
X44459524Y-11607905D01*
X44459524Y-10798381D01*
X44840476Y-10798381D02*
X45507143Y-10798381D01*
X45078571Y-11798381D01*
X76990095Y-37180381D02*
X76990095Y-37989905D01*
X77037714Y-38085143D01*
X77085333Y-38132762D01*
X77180571Y-38180381D01*
X77371048Y-38180381D01*
X77466286Y-38132762D01*
X77513905Y-38085143D01*
X77561524Y-37989905D01*
X77561524Y-37180381D01*
X78466286Y-37180381D02*
X78275809Y-37180381D01*
X78180571Y-37228000D01*
X78132952Y-37275619D01*
X78037714Y-37418476D01*
X77990095Y-37608952D01*
X77990095Y-37989905D01*
X78037714Y-38085143D01*
X78085333Y-38132762D01*
X78180571Y-38180381D01*
X78371048Y-38180381D01*
X78466286Y-38132762D01*
X78513905Y-38085143D01*
X78561524Y-37989905D01*
X78561524Y-37751810D01*
X78513905Y-37656571D01*
X78466286Y-37608952D01*
X78371048Y-37561333D01*
X78180571Y-37561333D01*
X78085333Y-37608952D01*
X78037714Y-37656571D01*
X77990095Y-37751810D01*
X60100095Y-27460381D02*
X60100095Y-28269905D01*
X60147714Y-28365143D01*
X60195333Y-28412762D01*
X60290571Y-28460381D01*
X60481048Y-28460381D01*
X60576286Y-28412762D01*
X60623905Y-28365143D01*
X60671524Y-28269905D01*
X60671524Y-27460381D01*
X61576286Y-27793714D02*
X61576286Y-28460381D01*
X61338190Y-27412762D02*
X61100095Y-28127048D01*
X61719143Y-28127048D01*
X69418095Y-20412381D02*
X69418095Y-21221905D01*
X69465714Y-21317143D01*
X69513333Y-21364762D01*
X69608571Y-21412381D01*
X69799048Y-21412381D01*
X69894286Y-21364762D01*
X69941905Y-21317143D01*
X69989524Y-21221905D01*
X69989524Y-20412381D01*
X70370476Y-20412381D02*
X70989524Y-20412381D01*
X70656190Y-20793333D01*
X70799048Y-20793333D01*
X70894286Y-20840952D01*
X70941905Y-20888571D01*
X70989524Y-20983810D01*
X70989524Y-21221905D01*
X70941905Y-21317143D01*
X70894286Y-21364762D01*
X70799048Y-21412381D01*
X70513333Y-21412381D01*
X70418095Y-21364762D01*
X70370476Y-21317143D01*
X35247715Y-45215143D02*
X35200096Y-45262762D01*
X35057239Y-45310381D01*
X34962001Y-45310381D01*
X34819143Y-45262762D01*
X34723905Y-45167524D01*
X34676286Y-45072286D01*
X34628667Y-44881810D01*
X34628667Y-44738952D01*
X34676286Y-44548476D01*
X34723905Y-44453238D01*
X34819143Y-44358000D01*
X34962001Y-44310381D01*
X35057239Y-44310381D01*
X35200096Y-44358000D01*
X35247715Y-44405619D01*
X35866762Y-44310381D02*
X36057239Y-44310381D01*
X36152477Y-44358000D01*
X36247715Y-44453238D01*
X36295334Y-44643714D01*
X36295334Y-44977048D01*
X36247715Y-45167524D01*
X36152477Y-45262762D01*
X36057239Y-45310381D01*
X35866762Y-45310381D01*
X35771524Y-45262762D01*
X35676286Y-45167524D01*
X35628667Y-44977048D01*
X35628667Y-44643714D01*
X35676286Y-44453238D01*
X35771524Y-44358000D01*
X35866762Y-44310381D01*
X36723905Y-45310381D02*
X36723905Y-44310381D01*
X37295334Y-45310381D01*
X37295334Y-44310381D01*
X38247715Y-44310381D02*
X37771524Y-44310381D01*
X37723905Y-44786571D01*
X37771524Y-44738952D01*
X37866762Y-44691333D01*
X38104858Y-44691333D01*
X38200096Y-44738952D01*
X38247715Y-44786571D01*
X38295334Y-44881810D01*
X38295334Y-45119905D01*
X38247715Y-45215143D01*
X38200096Y-45262762D01*
X38104858Y-45310381D01*
X37866762Y-45310381D01*
X37771524Y-45262762D01*
X37723905Y-45215143D01*
X61147715Y-45215143D02*
X61100096Y-45262762D01*
X60957239Y-45310381D01*
X60862001Y-45310381D01*
X60719143Y-45262762D01*
X60623905Y-45167524D01*
X60576286Y-45072286D01*
X60528667Y-44881810D01*
X60528667Y-44738952D01*
X60576286Y-44548476D01*
X60623905Y-44453238D01*
X60719143Y-44358000D01*
X60862001Y-44310381D01*
X60957239Y-44310381D01*
X61100096Y-44358000D01*
X61147715Y-44405619D01*
X61766762Y-44310381D02*
X61957239Y-44310381D01*
X62052477Y-44358000D01*
X62147715Y-44453238D01*
X62195334Y-44643714D01*
X62195334Y-44977048D01*
X62147715Y-45167524D01*
X62052477Y-45262762D01*
X61957239Y-45310381D01*
X61766762Y-45310381D01*
X61671524Y-45262762D01*
X61576286Y-45167524D01*
X61528667Y-44977048D01*
X61528667Y-44643714D01*
X61576286Y-44453238D01*
X61671524Y-44358000D01*
X61766762Y-44310381D01*
X62623905Y-45310381D02*
X62623905Y-44310381D01*
X63195334Y-45310381D01*
X63195334Y-44310381D01*
X64100096Y-44643714D02*
X64100096Y-45310381D01*
X63862000Y-44262762D02*
X63623905Y-44977048D01*
X64242953Y-44977048D01*
X8719143Y-5472285D02*
X8766762Y-5519904D01*
X8814381Y-5662761D01*
X8814381Y-5757999D01*
X8766762Y-5900857D01*
X8671524Y-5996095D01*
X8576286Y-6043714D01*
X8385810Y-6091333D01*
X8242952Y-6091333D01*
X8052476Y-6043714D01*
X7957238Y-5996095D01*
X7862000Y-5900857D01*
X7814381Y-5757999D01*
X7814381Y-5662761D01*
X7862000Y-5519904D01*
X7909619Y-5472285D01*
X7814381Y-4853238D02*
X7814381Y-4662761D01*
X7862000Y-4567523D01*
X7957238Y-4472285D01*
X8147714Y-4424666D01*
X8481048Y-4424666D01*
X8671524Y-4472285D01*
X8766762Y-4567523D01*
X8814381Y-4662761D01*
X8814381Y-4853238D01*
X8766762Y-4948476D01*
X8671524Y-5043714D01*
X8481048Y-5091333D01*
X8147714Y-5091333D01*
X7957238Y-5043714D01*
X7862000Y-4948476D01*
X7814381Y-4853238D01*
X8814381Y-3996095D02*
X7814381Y-3996095D01*
X8814381Y-3424666D01*
X7814381Y-3424666D01*
X7909619Y-2996095D02*
X7862000Y-2948476D01*
X7814381Y-2853238D01*
X7814381Y-2615142D01*
X7862000Y-2519904D01*
X7909619Y-2472285D01*
X8004857Y-2424666D01*
X8100095Y-2424666D01*
X8242952Y-2472285D01*
X8814381Y-3043714D01*
X8814381Y-2424666D01*
X73148095Y-5752381D02*
X73148095Y-6561905D01*
X73195714Y-6657143D01*
X73243333Y-6704762D01*
X73338571Y-6752381D01*
X73529048Y-6752381D01*
X73624286Y-6704762D01*
X73671905Y-6657143D01*
X73719524Y-6561905D01*
X73719524Y-5752381D01*
X74148095Y-5847619D02*
X74195714Y-5800000D01*
X74290952Y-5752381D01*
X74529048Y-5752381D01*
X74624286Y-5800000D01*
X74671905Y-5847619D01*
X74719524Y-5942857D01*
X74719524Y-6038095D01*
X74671905Y-6180952D01*
X74100476Y-6752381D01*
X74719524Y-6752381D01*
X14828667Y-33762762D02*
X14971524Y-33810381D01*
X15209620Y-33810381D01*
X15304858Y-33762762D01*
X15352477Y-33715143D01*
X15400096Y-33619905D01*
X15400096Y-33524667D01*
X15352477Y-33429429D01*
X15304858Y-33381810D01*
X15209620Y-33334190D01*
X15019143Y-33286571D01*
X14923905Y-33238952D01*
X14876286Y-33191333D01*
X14828667Y-33096095D01*
X14828667Y-33000857D01*
X14876286Y-32905619D01*
X14923905Y-32858000D01*
X15019143Y-32810381D01*
X15257239Y-32810381D01*
X15400096Y-32858000D01*
X15733429Y-32810381D02*
X15971524Y-33810381D01*
X16162001Y-33096095D01*
X16352477Y-33810381D01*
X16590572Y-32810381D01*
X17495334Y-33810381D02*
X16923905Y-33810381D01*
X17209619Y-33810381D02*
X17209619Y-32810381D01*
X17114381Y-32953238D01*
X17019143Y-33048476D01*
X16923905Y-33096095D01*
X10919143Y-18410381D02*
X10585809Y-17934190D01*
X10347714Y-18410381D02*
X10347714Y-17410381D01*
X10728667Y-17410381D01*
X10823905Y-17458000D01*
X10871524Y-17505619D01*
X10919143Y-17600857D01*
X10919143Y-17743714D01*
X10871524Y-17838952D01*
X10823905Y-17886571D01*
X10728667Y-17934190D01*
X10347714Y-17934190D01*
X11252476Y-17410381D02*
X11871524Y-17410381D01*
X11538190Y-17791333D01*
X11681048Y-17791333D01*
X11776286Y-17838952D01*
X11823905Y-17886571D01*
X11871524Y-17981810D01*
X11871524Y-18219905D01*
X11823905Y-18315143D01*
X11776286Y-18362762D01*
X11681048Y-18410381D01*
X11395333Y-18410381D01*
X11300095Y-18362762D01*
X11252476Y-18315143D01*
X12252476Y-17505619D02*
X12300095Y-17458000D01*
X12395333Y-17410381D01*
X12633429Y-17410381D01*
X12728667Y-17458000D01*
X12776286Y-17505619D01*
X12823905Y-17600857D01*
X12823905Y-17696095D01*
X12776286Y-17838952D01*
X12204857Y-18410381D01*
X12823905Y-18410381D01*
X26520781Y-8604057D02*
X26044590Y-8937391D01*
X26520781Y-9175486D02*
X25520781Y-9175486D01*
X25520781Y-8794533D01*
X25568400Y-8699295D01*
X25616019Y-8651676D01*
X25711257Y-8604057D01*
X25854114Y-8604057D01*
X25949352Y-8651676D01*
X25996971Y-8699295D01*
X26044590Y-8794533D01*
X26044590Y-9175486D01*
X25520781Y-8270724D02*
X25520781Y-7651676D01*
X25901733Y-7985010D01*
X25901733Y-7842152D01*
X25949352Y-7746914D01*
X25996971Y-7699295D01*
X26092210Y-7651676D01*
X26330305Y-7651676D01*
X26425543Y-7699295D01*
X26473162Y-7746914D01*
X26520781Y-7842152D01*
X26520781Y-8127867D01*
X26473162Y-8223105D01*
X26425543Y-8270724D01*
X25520781Y-7032629D02*
X25520781Y-6937390D01*
X25568400Y-6842152D01*
X25616019Y-6794533D01*
X25711257Y-6746914D01*
X25901733Y-6699295D01*
X26139829Y-6699295D01*
X26330305Y-6746914D01*
X26425543Y-6794533D01*
X26473162Y-6842152D01*
X26520781Y-6937390D01*
X26520781Y-7032629D01*
X26473162Y-7127867D01*
X26425543Y-7175486D01*
X26330305Y-7223105D01*
X26139829Y-7270724D01*
X25901733Y-7270724D01*
X25711257Y-7223105D01*
X25616019Y-7175486D01*
X25568400Y-7127867D01*
X25520781Y-7032629D01*
X28119143Y-51610381D02*
X27785809Y-51134190D01*
X27547714Y-51610381D02*
X27547714Y-50610381D01*
X27928667Y-50610381D01*
X28023905Y-50658000D01*
X28071524Y-50705619D01*
X28119143Y-50800857D01*
X28119143Y-50943714D01*
X28071524Y-51038952D01*
X28023905Y-51086571D01*
X27928667Y-51134190D01*
X27547714Y-51134190D01*
X29071524Y-51610381D02*
X28500095Y-51610381D01*
X28785809Y-51610381D02*
X28785809Y-50610381D01*
X28690571Y-50753238D01*
X28595333Y-50848476D01*
X28500095Y-50896095D01*
X29404857Y-50610381D02*
X30071524Y-50610381D01*
X29642952Y-51610381D01*
X28119143Y-48210381D02*
X27785809Y-47734190D01*
X27547714Y-48210381D02*
X27547714Y-47210381D01*
X27928667Y-47210381D01*
X28023905Y-47258000D01*
X28071524Y-47305619D01*
X28119143Y-47400857D01*
X28119143Y-47543714D01*
X28071524Y-47638952D01*
X28023905Y-47686571D01*
X27928667Y-47734190D01*
X27547714Y-47734190D01*
X29071524Y-48210381D02*
X28500095Y-48210381D01*
X28785809Y-48210381D02*
X28785809Y-47210381D01*
X28690571Y-47353238D01*
X28595333Y-47448476D01*
X28500095Y-47496095D01*
X29928667Y-47210381D02*
X29738190Y-47210381D01*
X29642952Y-47258000D01*
X29595333Y-47305619D01*
X29500095Y-47448476D01*
X29452476Y-47638952D01*
X29452476Y-48019905D01*
X29500095Y-48115143D01*
X29547714Y-48162762D01*
X29642952Y-48210381D01*
X29833429Y-48210381D01*
X29928667Y-48162762D01*
X29976286Y-48115143D01*
X30023905Y-48019905D01*
X30023905Y-47781810D01*
X29976286Y-47686571D01*
X29928667Y-47638952D01*
X29833429Y-47591333D01*
X29642952Y-47591333D01*
X29547714Y-47638952D01*
X29500095Y-47686571D01*
X29452476Y-47781810D01*
X50302381Y-38442857D02*
X49826190Y-38776191D01*
X50302381Y-39014286D02*
X49302381Y-39014286D01*
X49302381Y-38633333D01*
X49350000Y-38538095D01*
X49397619Y-38490476D01*
X49492857Y-38442857D01*
X49635714Y-38442857D01*
X49730952Y-38490476D01*
X49778571Y-38538095D01*
X49826190Y-38633333D01*
X49826190Y-39014286D01*
X50302381Y-37490476D02*
X50302381Y-38061905D01*
X50302381Y-37776191D02*
X49302381Y-37776191D01*
X49445238Y-37871429D01*
X49540476Y-37966667D01*
X49588095Y-38061905D01*
X49302381Y-36871429D02*
X49302381Y-36776190D01*
X49350000Y-36680952D01*
X49397619Y-36633333D01*
X49492857Y-36585714D01*
X49683333Y-36538095D01*
X49921429Y-36538095D01*
X50111905Y-36585714D01*
X50207143Y-36633333D01*
X50254762Y-36680952D01*
X50302381Y-36776190D01*
X50302381Y-36871429D01*
X50254762Y-36966667D01*
X50207143Y-37014286D01*
X50111905Y-37061905D01*
X49921429Y-37109524D01*
X49683333Y-37109524D01*
X49492857Y-37061905D01*
X49397619Y-37014286D01*
X49350000Y-36966667D01*
X49302381Y-36871429D01*
X48262381Y-39606666D02*
X47786190Y-39940000D01*
X48262381Y-40178095D02*
X47262381Y-40178095D01*
X47262381Y-39797142D01*
X47310000Y-39701904D01*
X47357619Y-39654285D01*
X47452857Y-39606666D01*
X47595714Y-39606666D01*
X47690952Y-39654285D01*
X47738571Y-39701904D01*
X47786190Y-39797142D01*
X47786190Y-40178095D01*
X48262381Y-39130476D02*
X48262381Y-38940000D01*
X48214762Y-38844761D01*
X48167143Y-38797142D01*
X48024286Y-38701904D01*
X47833810Y-38654285D01*
X47452857Y-38654285D01*
X47357619Y-38701904D01*
X47310000Y-38749523D01*
X47262381Y-38844761D01*
X47262381Y-39035238D01*
X47310000Y-39130476D01*
X47357619Y-39178095D01*
X47452857Y-39225714D01*
X47690952Y-39225714D01*
X47786190Y-39178095D01*
X47833810Y-39130476D01*
X47881429Y-39035238D01*
X47881429Y-38844761D01*
X47833810Y-38749523D01*
X47786190Y-38701904D01*
X47690952Y-38654285D01*
X35704381Y-8718666D02*
X35228190Y-9052000D01*
X35704381Y-9290095D02*
X34704381Y-9290095D01*
X34704381Y-8909142D01*
X34752000Y-8813904D01*
X34799619Y-8766285D01*
X34894857Y-8718666D01*
X35037714Y-8718666D01*
X35132952Y-8766285D01*
X35180571Y-8813904D01*
X35228190Y-8909142D01*
X35228190Y-9290095D01*
X34704381Y-8385333D02*
X34704381Y-7766285D01*
X35085333Y-8099619D01*
X35085333Y-7956761D01*
X35132952Y-7861523D01*
X35180571Y-7813904D01*
X35275810Y-7766285D01*
X35513905Y-7766285D01*
X35609143Y-7813904D01*
X35656762Y-7861523D01*
X35704381Y-7956761D01*
X35704381Y-8242476D01*
X35656762Y-8337714D01*
X35609143Y-8385333D01*
X37666762Y-14205619D02*
X37571524Y-14158000D01*
X37476286Y-14062762D01*
X37333429Y-13919905D01*
X37238190Y-13872286D01*
X37142952Y-13872286D01*
X37190571Y-14110381D02*
X37095333Y-14062762D01*
X37000095Y-13967524D01*
X36952476Y-13777048D01*
X36952476Y-13443714D01*
X37000095Y-13253238D01*
X37095333Y-13158000D01*
X37190571Y-13110381D01*
X37381048Y-13110381D01*
X37476286Y-13158000D01*
X37571524Y-13253238D01*
X37619143Y-13443714D01*
X37619143Y-13777048D01*
X37571524Y-13967524D01*
X37476286Y-14062762D01*
X37381048Y-14110381D01*
X37190571Y-14110381D01*
X38571524Y-14110381D02*
X38000095Y-14110381D01*
X38285809Y-14110381D02*
X38285809Y-13110381D01*
X38190571Y-13253238D01*
X38095333Y-13348476D01*
X38000095Y-13396095D01*
X18622381Y-30996667D02*
X17622381Y-30996667D01*
X17622381Y-30615714D01*
X17670000Y-30520476D01*
X17717619Y-30472857D01*
X17812857Y-30425238D01*
X17955714Y-30425238D01*
X18050952Y-30472857D01*
X18098571Y-30520476D01*
X18146190Y-30615714D01*
X18146190Y-30996667D01*
X18336667Y-30044286D02*
X18336667Y-29568095D01*
X18622381Y-30139524D02*
X17622381Y-29806191D01*
X18622381Y-29472857D01*
X18622381Y-29139524D02*
X17622381Y-29139524D01*
X17622381Y-28901429D01*
X17670000Y-28758571D01*
X17765238Y-28663333D01*
X17860476Y-28615714D01*
X18050952Y-28568095D01*
X18193810Y-28568095D01*
X18384286Y-28615714D01*
X18479524Y-28663333D01*
X18574762Y-28758571D01*
X18622381Y-28901429D01*
X18622381Y-29139524D01*
X18622381Y-27615714D02*
X18622381Y-28187143D01*
X18622381Y-27901429D02*
X17622381Y-27901429D01*
X17765238Y-27996667D01*
X17860476Y-28091905D01*
X17908095Y-28187143D01*
X5942953Y-20715143D02*
X5895334Y-20762762D01*
X5752477Y-20810381D01*
X5657239Y-20810381D01*
X5514381Y-20762762D01*
X5419143Y-20667524D01*
X5371524Y-20572286D01*
X5323905Y-20381810D01*
X5323905Y-20238952D01*
X5371524Y-20048476D01*
X5419143Y-19953238D01*
X5514381Y-19858000D01*
X5657239Y-19810381D01*
X5752477Y-19810381D01*
X5895334Y-19858000D01*
X5942953Y-19905619D01*
X6371524Y-20286571D02*
X6704858Y-20286571D01*
X6847715Y-20810381D02*
X6371524Y-20810381D01*
X6371524Y-19810381D01*
X6847715Y-19810381D01*
X7419143Y-20238952D02*
X7323905Y-20191333D01*
X7276286Y-20143714D01*
X7228667Y-20048476D01*
X7228667Y-20000857D01*
X7276286Y-19905619D01*
X7323905Y-19858000D01*
X7419143Y-19810381D01*
X7609620Y-19810381D01*
X7704858Y-19858000D01*
X7752477Y-19905619D01*
X7800096Y-20000857D01*
X7800096Y-20048476D01*
X7752477Y-20143714D01*
X7704858Y-20191333D01*
X7609620Y-20238952D01*
X7419143Y-20238952D01*
X7323905Y-20286571D01*
X7276286Y-20334190D01*
X7228667Y-20429429D01*
X7228667Y-20619905D01*
X7276286Y-20715143D01*
X7323905Y-20762762D01*
X7419143Y-20810381D01*
X7609620Y-20810381D01*
X7704858Y-20762762D01*
X7752477Y-20715143D01*
X7800096Y-20619905D01*
X7800096Y-20429429D01*
X7752477Y-20334190D01*
X7704858Y-20286571D01*
X7609620Y-20238952D01*
X7493429Y-19165352D02*
X7493429Y-18403447D01*
X7874381Y-18784399D02*
X7112476Y-18784399D01*
X80352953Y-32785143D02*
X80305334Y-32832762D01*
X80162477Y-32880381D01*
X80067239Y-32880381D01*
X79924381Y-32832762D01*
X79829143Y-32737524D01*
X79781524Y-32642286D01*
X79733905Y-32451810D01*
X79733905Y-32308952D01*
X79781524Y-32118476D01*
X79829143Y-32023238D01*
X79924381Y-31928000D01*
X80067239Y-31880381D01*
X80162477Y-31880381D01*
X80305334Y-31928000D01*
X80352953Y-31975619D01*
X80781524Y-32356571D02*
X81114858Y-32356571D01*
X81257715Y-32880381D02*
X80781524Y-32880381D01*
X80781524Y-31880381D01*
X81257715Y-31880381D01*
X81591048Y-31880381D02*
X82257715Y-31880381D01*
X81829143Y-32880381D01*
X81881048Y-22279429D02*
X82642953Y-22279429D01*
X82262001Y-22660381D02*
X82262001Y-21898476D01*
X69387143Y-27499047D02*
X69434762Y-27546666D01*
X69482381Y-27689523D01*
X69482381Y-27784761D01*
X69434762Y-27927619D01*
X69339524Y-28022857D01*
X69244286Y-28070476D01*
X69053810Y-28118095D01*
X68910952Y-28118095D01*
X68720476Y-28070476D01*
X68625238Y-28022857D01*
X68530000Y-27927619D01*
X68482381Y-27784761D01*
X68482381Y-27689523D01*
X68530000Y-27546666D01*
X68577619Y-27499047D01*
X68958571Y-27070476D02*
X68958571Y-26737142D01*
X69482381Y-26594285D02*
X69482381Y-27070476D01*
X68482381Y-27070476D01*
X68482381Y-26594285D01*
X68482381Y-25737142D02*
X68482381Y-25927619D01*
X68530000Y-26022857D01*
X68577619Y-26070476D01*
X68720476Y-26165714D01*
X68910952Y-26213333D01*
X69291905Y-26213333D01*
X69387143Y-26165714D01*
X69434762Y-26118095D01*
X69482381Y-26022857D01*
X69482381Y-25832380D01*
X69434762Y-25737142D01*
X69387143Y-25689523D01*
X69291905Y-25641904D01*
X69053810Y-25641904D01*
X68958571Y-25689523D01*
X68910952Y-25737142D01*
X68863333Y-25832380D01*
X68863333Y-26022857D01*
X68910952Y-26118095D01*
X68958571Y-26165714D01*
X69053810Y-26213333D01*
X74381048Y-22279429D02*
X75142953Y-22279429D01*
X74762001Y-22660381D02*
X74762001Y-21898476D01*
X82230953Y-21597143D02*
X82183334Y-21644762D01*
X82040477Y-21692381D01*
X81945239Y-21692381D01*
X81802381Y-21644762D01*
X81707143Y-21549524D01*
X81659524Y-21454286D01*
X81611905Y-21263810D01*
X81611905Y-21120952D01*
X81659524Y-20930476D01*
X81707143Y-20835238D01*
X81802381Y-20740000D01*
X81945239Y-20692381D01*
X82040477Y-20692381D01*
X82183334Y-20740000D01*
X82230953Y-20787619D01*
X82659524Y-21168571D02*
X82992858Y-21168571D01*
X83135715Y-21692381D02*
X82659524Y-21692381D01*
X82659524Y-20692381D01*
X83135715Y-20692381D01*
X84040477Y-20692381D02*
X83564286Y-20692381D01*
X83516667Y-21168571D01*
X83564286Y-21120952D01*
X83659524Y-21073333D01*
X83897620Y-21073333D01*
X83992858Y-21120952D01*
X84040477Y-21168571D01*
X84088096Y-21263810D01*
X84088096Y-21501905D01*
X84040477Y-21597143D01*
X83992858Y-21644762D01*
X83897620Y-21692381D01*
X83659524Y-21692381D01*
X83564286Y-21644762D01*
X83516667Y-21597143D01*
X78854648Y-20889429D02*
X79616553Y-20889429D01*
X79235601Y-21270381D02*
X79235601Y-20508476D01*
X82192953Y-14315143D02*
X82145334Y-14362762D01*
X82002477Y-14410381D01*
X81907239Y-14410381D01*
X81764381Y-14362762D01*
X81669143Y-14267524D01*
X81621524Y-14172286D01*
X81573905Y-13981810D01*
X81573905Y-13838952D01*
X81621524Y-13648476D01*
X81669143Y-13553238D01*
X81764381Y-13458000D01*
X81907239Y-13410381D01*
X82002477Y-13410381D01*
X82145334Y-13458000D01*
X82192953Y-13505619D01*
X82621524Y-13886571D02*
X82954858Y-13886571D01*
X83097715Y-14410381D02*
X82621524Y-14410381D01*
X82621524Y-13410381D01*
X83097715Y-13410381D01*
X83954858Y-13743714D02*
X83954858Y-14410381D01*
X83716762Y-13362762D02*
X83478667Y-14077048D01*
X84097715Y-14077048D01*
X78654648Y-13389429D02*
X79416553Y-13389429D01*
X79035601Y-13770381D02*
X79035601Y-13008476D01*
X64327143Y-10769047D02*
X64374762Y-10816666D01*
X64422381Y-10959523D01*
X64422381Y-11054761D01*
X64374762Y-11197619D01*
X64279524Y-11292857D01*
X64184286Y-11340476D01*
X63993810Y-11388095D01*
X63850952Y-11388095D01*
X63660476Y-11340476D01*
X63565238Y-11292857D01*
X63470000Y-11197619D01*
X63422381Y-11054761D01*
X63422381Y-10959523D01*
X63470000Y-10816666D01*
X63517619Y-10769047D01*
X63898571Y-10340476D02*
X63898571Y-10007142D01*
X64422381Y-9864285D02*
X64422381Y-10340476D01*
X63422381Y-10340476D01*
X63422381Y-9864285D01*
X63422381Y-9530952D02*
X63422381Y-8911904D01*
X63803333Y-9245238D01*
X63803333Y-9102380D01*
X63850952Y-9007142D01*
X63898571Y-8959523D01*
X63993810Y-8911904D01*
X64231905Y-8911904D01*
X64327143Y-8959523D01*
X64374762Y-9007142D01*
X64422381Y-9102380D01*
X64422381Y-9388095D01*
X64374762Y-9483333D01*
X64327143Y-9530952D01*
X65054648Y-13389429D02*
X65816553Y-13389429D01*
X65435601Y-13770381D02*
X65435601Y-13008476D01*
X64307143Y-18179047D02*
X64354762Y-18226666D01*
X64402381Y-18369523D01*
X64402381Y-18464761D01*
X64354762Y-18607619D01*
X64259524Y-18702857D01*
X64164286Y-18750476D01*
X63973810Y-18798095D01*
X63830952Y-18798095D01*
X63640476Y-18750476D01*
X63545238Y-18702857D01*
X63450000Y-18607619D01*
X63402381Y-18464761D01*
X63402381Y-18369523D01*
X63450000Y-18226666D01*
X63497619Y-18179047D01*
X63878571Y-17750476D02*
X63878571Y-17417142D01*
X64402381Y-17274285D02*
X64402381Y-17750476D01*
X63402381Y-17750476D01*
X63402381Y-17274285D01*
X63497619Y-16893333D02*
X63450000Y-16845714D01*
X63402381Y-16750476D01*
X63402381Y-16512380D01*
X63450000Y-16417142D01*
X63497619Y-16369523D01*
X63592857Y-16321904D01*
X63688095Y-16321904D01*
X63830952Y-16369523D01*
X64402381Y-16940952D01*
X64402381Y-16321904D01*
X65054648Y-20789429D02*
X65816553Y-20789429D01*
X65435601Y-21170381D02*
X65435601Y-20408476D01*
X5642953Y-47115143D02*
X5595334Y-47162762D01*
X5452477Y-47210381D01*
X5357239Y-47210381D01*
X5214381Y-47162762D01*
X5119143Y-47067524D01*
X5071524Y-46972286D01*
X5023905Y-46781810D01*
X5023905Y-46638952D01*
X5071524Y-46448476D01*
X5119143Y-46353238D01*
X5214381Y-46258000D01*
X5357239Y-46210381D01*
X5452477Y-46210381D01*
X5595334Y-46258000D01*
X5642953Y-46305619D01*
X6071524Y-46686571D02*
X6404858Y-46686571D01*
X6547715Y-47210381D02*
X6071524Y-47210381D01*
X6071524Y-46210381D01*
X6547715Y-46210381D01*
X7500096Y-47210381D02*
X6928667Y-47210381D01*
X7214381Y-47210381D02*
X7214381Y-46210381D01*
X7119143Y-46353238D01*
X7023905Y-46448476D01*
X6928667Y-46496095D01*
X7807448Y-47569429D02*
X8569353Y-47569429D01*
X8188401Y-47950381D02*
X8188401Y-47188476D01*
X1419143Y-22315143D02*
X1371524Y-22362762D01*
X1228667Y-22410381D01*
X1133429Y-22410381D01*
X990571Y-22362762D01*
X895333Y-22267524D01*
X847714Y-22172286D01*
X800095Y-21981810D01*
X800095Y-21838952D01*
X847714Y-21648476D01*
X895333Y-21553238D01*
X990571Y-21458000D01*
X1133429Y-21410381D01*
X1228667Y-21410381D01*
X1371524Y-21458000D01*
X1419143Y-21505619D01*
X2181048Y-21886571D02*
X2323905Y-21934190D01*
X2371524Y-21981810D01*
X2419143Y-22077048D01*
X2419143Y-22219905D01*
X2371524Y-22315143D01*
X2323905Y-22362762D01*
X2228667Y-22410381D01*
X1847714Y-22410381D01*
X1847714Y-21410381D01*
X2181048Y-21410381D01*
X2276286Y-21458000D01*
X2323905Y-21505619D01*
X2371524Y-21600857D01*
X2371524Y-21696095D01*
X2323905Y-21791333D01*
X2276286Y-21838952D01*
X2181048Y-21886571D01*
X1847714Y-21886571D01*
X2800095Y-21505619D02*
X2847714Y-21458000D01*
X2942952Y-21410381D01*
X3181048Y-21410381D01*
X3276286Y-21458000D01*
X3323905Y-21505619D01*
X3371524Y-21600857D01*
X3371524Y-21696095D01*
X3323905Y-21838952D01*
X2752476Y-22410381D01*
X3371524Y-22410381D01*
X3942952Y-21838952D02*
X3847714Y-21791333D01*
X3800095Y-21743714D01*
X3752476Y-21648476D01*
X3752476Y-21600857D01*
X3800095Y-21505619D01*
X3847714Y-21458000D01*
X3942952Y-21410381D01*
X4133429Y-21410381D01*
X4228667Y-21458000D01*
X4276286Y-21505619D01*
X4323905Y-21600857D01*
X4323905Y-21648476D01*
X4276286Y-21743714D01*
X4228667Y-21791333D01*
X4133429Y-21838952D01*
X3942952Y-21838952D01*
X3847714Y-21886571D01*
X3800095Y-21934190D01*
X3752476Y-22029429D01*
X3752476Y-22219905D01*
X3800095Y-22315143D01*
X3847714Y-22362762D01*
X3942952Y-22410381D01*
X4133429Y-22410381D01*
X4228667Y-22362762D01*
X4276286Y-22315143D01*
X4323905Y-22219905D01*
X4323905Y-22029429D01*
X4276286Y-21934190D01*
X4228667Y-21886571D01*
X4133429Y-21838952D01*
X60413334Y-41947143D02*
X60365715Y-41994762D01*
X60222858Y-42042381D01*
X60127620Y-42042381D01*
X59984762Y-41994762D01*
X59889524Y-41899524D01*
X59841905Y-41804286D01*
X59794286Y-41613810D01*
X59794286Y-41470952D01*
X59841905Y-41280476D01*
X59889524Y-41185238D01*
X59984762Y-41090000D01*
X60127620Y-41042381D01*
X60222858Y-41042381D01*
X60365715Y-41090000D01*
X60413334Y-41137619D01*
X61175239Y-41518571D02*
X61318096Y-41566190D01*
X61365715Y-41613810D01*
X61413334Y-41709048D01*
X61413334Y-41851905D01*
X61365715Y-41947143D01*
X61318096Y-41994762D01*
X61222858Y-42042381D01*
X60841905Y-42042381D01*
X60841905Y-41042381D01*
X61175239Y-41042381D01*
X61270477Y-41090000D01*
X61318096Y-41137619D01*
X61365715Y-41232857D01*
X61365715Y-41328095D01*
X61318096Y-41423333D01*
X61270477Y-41470952D01*
X61175239Y-41518571D01*
X60841905Y-41518571D01*
X61746667Y-41042381D02*
X62413334Y-41042381D01*
X61984762Y-42042381D01*
X2195334Y-45715143D02*
X2147715Y-45762762D01*
X2004858Y-45810381D01*
X1909620Y-45810381D01*
X1766762Y-45762762D01*
X1671524Y-45667524D01*
X1623905Y-45572286D01*
X1576286Y-45381810D01*
X1576286Y-45238952D01*
X1623905Y-45048476D01*
X1671524Y-44953238D01*
X1766762Y-44858000D01*
X1909620Y-44810381D01*
X2004858Y-44810381D01*
X2147715Y-44858000D01*
X2195334Y-44905619D01*
X2957239Y-45286571D02*
X3100096Y-45334190D01*
X3147715Y-45381810D01*
X3195334Y-45477048D01*
X3195334Y-45619905D01*
X3147715Y-45715143D01*
X3100096Y-45762762D01*
X3004858Y-45810381D01*
X2623905Y-45810381D01*
X2623905Y-44810381D01*
X2957239Y-44810381D01*
X3052477Y-44858000D01*
X3100096Y-44905619D01*
X3147715Y-45000857D01*
X3147715Y-45096095D01*
X3100096Y-45191333D01*
X3052477Y-45238952D01*
X2957239Y-45286571D01*
X2623905Y-45286571D01*
X4147715Y-45810381D02*
X3576286Y-45810381D01*
X3862000Y-45810381D02*
X3862000Y-44810381D01*
X3766762Y-44953238D01*
X3671524Y-45048476D01*
X3576286Y-45096095D01*
X11095334Y-33815143D02*
X11047715Y-33862762D01*
X10904858Y-33910381D01*
X10809620Y-33910381D01*
X10666762Y-33862762D01*
X10571524Y-33767524D01*
X10523905Y-33672286D01*
X10476286Y-33481810D01*
X10476286Y-33338952D01*
X10523905Y-33148476D01*
X10571524Y-33053238D01*
X10666762Y-32958000D01*
X10809620Y-32910381D01*
X10904858Y-32910381D01*
X11047715Y-32958000D01*
X11095334Y-33005619D01*
X12047715Y-33910381D02*
X11476286Y-33910381D01*
X11762000Y-33910381D02*
X11762000Y-32910381D01*
X11666762Y-33053238D01*
X11571524Y-33148476D01*
X11476286Y-33196095D01*
X10983429Y-20788952D02*
X10983429Y-20027047D01*
X11364381Y-20407999D02*
X10602476Y-20407999D01*
X1335143Y-41008381D02*
X1001809Y-40532190D01*
X763714Y-41008381D02*
X763714Y-40008381D01*
X1144667Y-40008381D01*
X1239905Y-40056000D01*
X1287524Y-40103619D01*
X1335143Y-40198857D01*
X1335143Y-40341714D01*
X1287524Y-40436952D01*
X1239905Y-40484571D01*
X1144667Y-40532190D01*
X763714Y-40532190D01*
X2287524Y-41008381D02*
X1716095Y-41008381D01*
X2001809Y-41008381D02*
X2001809Y-40008381D01*
X1906571Y-40151238D01*
X1811333Y-40246476D01*
X1716095Y-40294095D01*
X2668476Y-40103619D02*
X2716095Y-40056000D01*
X2811333Y-40008381D01*
X3049429Y-40008381D01*
X3144667Y-40056000D01*
X3192286Y-40103619D01*
X3239905Y-40198857D01*
X3239905Y-40294095D01*
X3192286Y-40436952D01*
X2620857Y-41008381D01*
X3239905Y-41008381D01*
X16819143Y-41010381D02*
X16485809Y-40534190D01*
X16247714Y-41010381D02*
X16247714Y-40010381D01*
X16628667Y-40010381D01*
X16723905Y-40058000D01*
X16771524Y-40105619D01*
X16819143Y-40200857D01*
X16819143Y-40343714D01*
X16771524Y-40438952D01*
X16723905Y-40486571D01*
X16628667Y-40534190D01*
X16247714Y-40534190D01*
X17771524Y-41010381D02*
X17200095Y-41010381D01*
X17485809Y-41010381D02*
X17485809Y-40010381D01*
X17390571Y-40153238D01*
X17295333Y-40248476D01*
X17200095Y-40296095D01*
X18628667Y-40343714D02*
X18628667Y-41010381D01*
X18390571Y-39962762D02*
X18152476Y-40677048D01*
X18771524Y-40677048D01*
X7523905Y-15810381D02*
X7523905Y-14810381D01*
X7762000Y-14810381D01*
X7904858Y-14858000D01*
X8000096Y-14953238D01*
X8047715Y-15048476D01*
X8095334Y-15238952D01*
X8095334Y-15381810D01*
X8047715Y-15572286D01*
X8000096Y-15667524D01*
X7904858Y-15762762D01*
X7762000Y-15810381D01*
X7523905Y-15810381D01*
X9047715Y-15810381D02*
X8476286Y-15810381D01*
X8762000Y-15810381D02*
X8762000Y-14810381D01*
X8666762Y-14953238D01*
X8571524Y-15048476D01*
X8476286Y-15096095D01*
X25464381Y-12396095D02*
X26273905Y-12396095D01*
X26369143Y-12348476D01*
X26416762Y-12300857D01*
X26464381Y-12205619D01*
X26464381Y-12015142D01*
X26416762Y-11919904D01*
X26369143Y-11872285D01*
X26273905Y-11824666D01*
X25464381Y-11824666D01*
X26464381Y-10824666D02*
X26464381Y-11396095D01*
X26464381Y-11110381D02*
X25464381Y-11110381D01*
X25607238Y-11205619D01*
X25702476Y-11300857D01*
X25750095Y-11396095D01*
X25464381Y-10205619D02*
X25464381Y-10110380D01*
X25512000Y-10015142D01*
X25559619Y-9967523D01*
X25654857Y-9919904D01*
X25845333Y-9872285D01*
X26083429Y-9872285D01*
X26273905Y-9919904D01*
X26369143Y-9967523D01*
X26416762Y-10015142D01*
X26464381Y-10110380D01*
X26464381Y-10205619D01*
X26416762Y-10300857D01*
X26369143Y-10348476D01*
X26273905Y-10396095D01*
X26083429Y-10443714D01*
X25845333Y-10443714D01*
X25654857Y-10396095D01*
X25559619Y-10348476D01*
X25512000Y-10300857D01*
X25464381Y-10205619D01*
X16814381Y-23446095D02*
X17623905Y-23446095D01*
X17719143Y-23398476D01*
X17766762Y-23350857D01*
X17814381Y-23255619D01*
X17814381Y-23065142D01*
X17766762Y-22969904D01*
X17719143Y-22922285D01*
X17623905Y-22874666D01*
X16814381Y-22874666D01*
X17814381Y-21874666D02*
X17814381Y-22446095D01*
X17814381Y-22160381D02*
X16814381Y-22160381D01*
X16957238Y-22255619D01*
X17052476Y-22350857D01*
X17100095Y-22446095D01*
X17147714Y-21017523D02*
X17814381Y-21017523D01*
X16766762Y-21255619D02*
X17481048Y-21493714D01*
X17481048Y-20874666D01*
X52000095Y-37060381D02*
X52000095Y-37869905D01*
X52047714Y-37965143D01*
X52095333Y-38012762D01*
X52190571Y-38060381D01*
X52381048Y-38060381D01*
X52476286Y-38012762D01*
X52523905Y-37965143D01*
X52571524Y-37869905D01*
X52571524Y-37060381D01*
X53523905Y-37060381D02*
X53047714Y-37060381D01*
X53000095Y-37536571D01*
X53047714Y-37488952D01*
X53142952Y-37441333D01*
X53381048Y-37441333D01*
X53476286Y-37488952D01*
X53523905Y-37536571D01*
X53571524Y-37631810D01*
X53571524Y-37869905D01*
X53523905Y-37965143D01*
X53476286Y-38012762D01*
X53381048Y-38060381D01*
X53142952Y-38060381D01*
X53047714Y-38012762D01*
X53000095Y-37965143D01*
X30901905Y-17602381D02*
X30901905Y-18411905D01*
X30949524Y-18507143D01*
X30997143Y-18554762D01*
X31092381Y-18602381D01*
X31282858Y-18602381D01*
X31378096Y-18554762D01*
X31425715Y-18507143D01*
X31473334Y-18411905D01*
X31473334Y-17602381D01*
X32473334Y-18602381D02*
X31901905Y-18602381D01*
X32187619Y-18602381D02*
X32187619Y-17602381D01*
X32092381Y-17745238D01*
X31997143Y-17840476D01*
X31901905Y-17888095D01*
X33378096Y-17602381D02*
X32901905Y-17602381D01*
X32854286Y-18078571D01*
X32901905Y-18030952D01*
X32997143Y-17983333D01*
X33235239Y-17983333D01*
X33330477Y-18030952D01*
X33378096Y-18078571D01*
X33425715Y-18173810D01*
X33425715Y-18411905D01*
X33378096Y-18507143D01*
X33330477Y-18554762D01*
X33235239Y-18602381D01*
X32997143Y-18602381D01*
X32901905Y-18554762D01*
X32854286Y-18507143D01*
X32994381Y-30326095D02*
X33803905Y-30326095D01*
X33899143Y-30278476D01*
X33946762Y-30230857D01*
X33994381Y-30135619D01*
X33994381Y-29945142D01*
X33946762Y-29849904D01*
X33899143Y-29802285D01*
X33803905Y-29754666D01*
X32994381Y-29754666D01*
X33994381Y-28754666D02*
X33994381Y-29326095D01*
X33994381Y-29040381D02*
X32994381Y-29040381D01*
X33137238Y-29135619D01*
X33232476Y-29230857D01*
X33280095Y-29326095D01*
X32994381Y-28421333D02*
X32994381Y-27754666D01*
X33994381Y-28183238D01*
X32464381Y-14299666D02*
X32464381Y-14775857D01*
X31464381Y-14775857D01*
X32559619Y-14204428D02*
X32559619Y-13442523D01*
X31512000Y-12680618D02*
X31464381Y-12775856D01*
X31464381Y-12918713D01*
X31512000Y-13061571D01*
X31607238Y-13156809D01*
X31702476Y-13204428D01*
X31892952Y-13252047D01*
X32035810Y-13252047D01*
X32226286Y-13204428D01*
X32321524Y-13156809D01*
X32416762Y-13061571D01*
X32464381Y-12918713D01*
X32464381Y-12823475D01*
X32416762Y-12680618D01*
X32369143Y-12632999D01*
X32035810Y-12632999D01*
X32035810Y-12823475D01*
X32464381Y-12204428D02*
X31464381Y-12204428D01*
X31464381Y-11823475D01*
X31512000Y-11728237D01*
X31559619Y-11680618D01*
X31654857Y-11632999D01*
X31797714Y-11632999D01*
X31892952Y-11680618D01*
X31940571Y-11728237D01*
X31988190Y-11823475D01*
X31988190Y-12204428D01*
X32464381Y-11204428D02*
X31464381Y-11204428D01*
X31464381Y-10537762D02*
X31464381Y-10347285D01*
X31512000Y-10252047D01*
X31607238Y-10156809D01*
X31797714Y-10109190D01*
X32131048Y-10109190D01*
X32321524Y-10156809D01*
X32416762Y-10252047D01*
X32464381Y-10347285D01*
X32464381Y-10537762D01*
X32416762Y-10633000D01*
X32321524Y-10728238D01*
X32131048Y-10775857D01*
X31797714Y-10775857D01*
X31607238Y-10728238D01*
X31512000Y-10633000D01*
X31464381Y-10537762D01*
X32559619Y-9918714D02*
X32559619Y-9156809D01*
X31940571Y-8918714D02*
X31940571Y-8585380D01*
X32464381Y-8442523D02*
X32464381Y-8918714D01*
X31464381Y-8918714D01*
X31464381Y-8442523D01*
X60164381Y-3309190D02*
X60164381Y-3785381D01*
X59164381Y-3785381D01*
X60259619Y-3213952D02*
X60259619Y-2452047D01*
X59164381Y-1737761D02*
X59164381Y-2213952D01*
X59640571Y-2261571D01*
X59592952Y-2213952D01*
X59545333Y-2118714D01*
X59545333Y-1880618D01*
X59592952Y-1785380D01*
X59640571Y-1737761D01*
X59735810Y-1690142D01*
X59973905Y-1690142D01*
X60069143Y-1737761D01*
X60116762Y-1785380D01*
X60164381Y-1880618D01*
X60164381Y-2118714D01*
X60116762Y-2213952D01*
X60069143Y-2261571D01*
X59164381Y-1404428D02*
X60164381Y-1071095D01*
X59164381Y-737761D01*
X65164381Y-3785381D02*
X65164381Y-4261572D01*
X64164381Y-4261572D01*
X65259619Y-3690143D02*
X65259619Y-2928238D01*
X64164381Y-2785381D02*
X64164381Y-2166333D01*
X64545333Y-2499667D01*
X64545333Y-2356809D01*
X64592952Y-2261571D01*
X64640571Y-2213952D01*
X64735810Y-2166333D01*
X64973905Y-2166333D01*
X65069143Y-2213952D01*
X65116762Y-2261571D01*
X65164381Y-2356809D01*
X65164381Y-2642524D01*
X65116762Y-2737762D01*
X65069143Y-2785381D01*
X64164381Y-1880619D02*
X65164381Y-1547286D01*
X64164381Y-1213952D01*
X64164381Y-975857D02*
X64164381Y-356809D01*
X64545333Y-690143D01*
X64545333Y-547285D01*
X64592952Y-452047D01*
X64640571Y-404428D01*
X64735810Y-356809D01*
X64973905Y-356809D01*
X65069143Y-404428D01*
X65116762Y-452047D01*
X65164381Y-547285D01*
X65164381Y-833000D01*
X65116762Y-928238D01*
X65069143Y-975857D01*
X70964381Y-3885381D02*
X70964381Y-4361572D01*
X69964381Y-4361572D01*
X71059619Y-3790143D02*
X71059619Y-3028238D01*
X70964381Y-2266333D02*
X70964381Y-2837762D01*
X70964381Y-2552048D02*
X69964381Y-2552048D01*
X70107238Y-2647286D01*
X70202476Y-2742524D01*
X70250095Y-2837762D01*
X69964381Y-1980619D02*
X70964381Y-1647286D01*
X69964381Y-1313952D01*
X70392952Y-837762D02*
X70345333Y-933000D01*
X70297714Y-980619D01*
X70202476Y-1028238D01*
X70154857Y-1028238D01*
X70059619Y-980619D01*
X70012000Y-933000D01*
X69964381Y-837762D01*
X69964381Y-647285D01*
X70012000Y-552047D01*
X70059619Y-504428D01*
X70154857Y-456809D01*
X70202476Y-456809D01*
X70297714Y-504428D01*
X70345333Y-552047D01*
X70392952Y-647285D01*
X70392952Y-837762D01*
X70440571Y-933000D01*
X70488190Y-980619D01*
X70583429Y-1028238D01*
X70773905Y-1028238D01*
X70869143Y-980619D01*
X70916762Y-933000D01*
X70964381Y-837762D01*
X70964381Y-647285D01*
X70916762Y-552047D01*
X70869143Y-504428D01*
X70773905Y-456809D01*
X70583429Y-456809D01*
X70488190Y-504428D01*
X70440571Y-552047D01*
X70392952Y-647285D01*
X23858429Y-48360381D02*
X23382238Y-48360381D01*
X23382238Y-47360381D01*
X23953667Y-48455619D02*
X24715572Y-48455619D01*
X24810810Y-47360381D02*
X25382239Y-47360381D01*
X25096524Y-48360381D02*
X25096524Y-47360381D01*
X25620334Y-47360381D02*
X26287001Y-48360381D01*
X26287001Y-47360381D02*
X25620334Y-48360381D01*
X23739381Y-51660381D02*
X23263190Y-51660381D01*
X23263190Y-50660381D01*
X23834619Y-51755619D02*
X24596524Y-51755619D01*
X25406048Y-51660381D02*
X25072714Y-51184190D01*
X24834619Y-51660381D02*
X24834619Y-50660381D01*
X25215572Y-50660381D01*
X25310810Y-50708000D01*
X25358429Y-50755619D01*
X25406048Y-50850857D01*
X25406048Y-50993714D01*
X25358429Y-51088952D01*
X25310810Y-51136571D01*
X25215572Y-51184190D01*
X24834619Y-51184190D01*
X25739381Y-50660381D02*
X26406048Y-51660381D01*
X26406048Y-50660381D02*
X25739381Y-51660381D01*
%LPC*%
D15*
X56562000Y-8358000D03*
X53062000Y-8358000D03*
X49562000Y-8358000D03*
X76262000Y-4058000D03*
X2362000Y-52258000D03*
X4662000Y-42958000D03*
D16*
X11212000Y-42935500D03*
X15112000Y-42935500D03*
X15112000Y-43570500D03*
X11212000Y-43570500D03*
X11212000Y-44205500D03*
X15112000Y-44205500D03*
X15112000Y-47380500D03*
X11212000Y-47380500D03*
X11212000Y-46745500D03*
X15112000Y-46745500D03*
X15112000Y-46110500D03*
X11212000Y-46110500D03*
X11212000Y-44840500D03*
X15112000Y-44840500D03*
X15112000Y-45475500D03*
X11212000Y-45475500D03*
D17*
X14262000Y-52708000D03*
D18*
X14562000Y-50008000D03*
X13262000Y-50008000D03*
X13912000Y-50008000D03*
X12612000Y-50008000D03*
D19*
X16762000Y-52708000D03*
X9762000Y-52708000D03*
D20*
X15762000Y-50008000D03*
X10762000Y-50008000D03*
D21*
X11962000Y-50008000D03*
D17*
X12262000Y-52708000D03*
D22*
X39262000Y-27758000D03*
X39262000Y-28758000D03*
X36262000Y-27758000D03*
X36262000Y-28758000D03*
X38262000Y-26758000D03*
X37262000Y-26758000D03*
X36262000Y-26758000D03*
X39262000Y-26758000D03*
X39262000Y-29758000D03*
X36262000Y-29758000D03*
X37262000Y-29758000D03*
X38262000Y-29758000D03*
D23*
X2762000Y-9458000D03*
X2762000Y-12658000D03*
X8262000Y-12658000D03*
X8262000Y-9458000D03*
D24*
X19477000Y-18183000D03*
X20447000Y-18183000D03*
X21417000Y-18183000D03*
X18507000Y-18183000D03*
X18507000Y-16733000D03*
X21417000Y-16733000D03*
X20447000Y-16733000D03*
X19477000Y-16733000D03*
D25*
X11762000Y-8753000D03*
X11762000Y-10023000D03*
X11762000Y-11293000D03*
X11762000Y-12563000D03*
X17162000Y-12563000D03*
X17162000Y-11293000D03*
X17162000Y-10023000D03*
X17162000Y-8753000D03*
D26*
X49772000Y-19608000D03*
X49772000Y-20058000D03*
X49772000Y-20508000D03*
D27*
X50787000Y-19268000D03*
X50337000Y-19268000D03*
X50337000Y-20848000D03*
X50787000Y-20848000D03*
D26*
X51352000Y-20508000D03*
X51352000Y-20058000D03*
X51352000Y-19608000D03*
D28*
X42072000Y-20908000D03*
D29*
X41062000Y-22383000D03*
X41062000Y-20533000D03*
D30*
X40512000Y-22468000D03*
X41612000Y-22468000D03*
X40512000Y-20448000D03*
X41612000Y-20448000D03*
D28*
X40052000Y-20908000D03*
X40052000Y-22008000D03*
X42072000Y-22008000D03*
D31*
X41812000Y-21458000D03*
D32*
X40137000Y-21458000D03*
D33*
X54962000Y-15045500D03*
X54962000Y-14545500D03*
D34*
X54962000Y-14033000D03*
X55462000Y-14033000D03*
X55962000Y-14033000D03*
X56462000Y-14033000D03*
D33*
X56462000Y-14545500D03*
X56462000Y-15045500D03*
D34*
X56462000Y-15558000D03*
X55962000Y-15558000D03*
X55462000Y-15558000D03*
X54962000Y-15558000D03*
D35*
X45762000Y-7708000D03*
X45762000Y-9608000D03*
X43762000Y-9608000D03*
X43762000Y-8658000D03*
X43762000Y-7708000D03*
D36*
X77002000Y-42523000D03*
X77502000Y-42523000D03*
X78502000Y-42523000D03*
X78002000Y-42523000D03*
X78002000Y-40033000D03*
X78502000Y-40033000D03*
X77502000Y-40033000D03*
X77002000Y-40033000D03*
D37*
X63562000Y-32258000D03*
X58162000Y-32258000D03*
X58162000Y-32908000D03*
X63562000Y-32908000D03*
X63562000Y-34208000D03*
X58162000Y-34208000D03*
X58162000Y-33558000D03*
X63562000Y-33558000D03*
X63562000Y-30958000D03*
X58162000Y-30958000D03*
X58162000Y-31608000D03*
X63562000Y-31608000D03*
X63562000Y-30308000D03*
X58162000Y-30308000D03*
X58162000Y-29658000D03*
X63562000Y-29658000D03*
D38*
X71612000Y-19263000D03*
X71612000Y-17993000D03*
X71612000Y-15453000D03*
X71612000Y-16723000D03*
X76512000Y-16723000D03*
X76512000Y-15453000D03*
X76512000Y-17993000D03*
X76512000Y-19263000D03*
D39*
X36672000Y-49958000D03*
D40*
X39662000Y-47158000D03*
X41662000Y-47158000D03*
X40662000Y-47158000D03*
X44662000Y-47158000D03*
X45662000Y-47158000D03*
X43662000Y-47158000D03*
X42662000Y-47158000D03*
X50662000Y-47158000D03*
X51662000Y-47158000D03*
D41*
X53662000Y-47158000D03*
D40*
X52662000Y-47158000D03*
X48662000Y-47158000D03*
X49662000Y-47158000D03*
X47662000Y-47158000D03*
X46662000Y-47158000D03*
D39*
X56652000Y-49958000D03*
X62472000Y-49958000D03*
D40*
X65462000Y-47158000D03*
X67462000Y-47158000D03*
X66462000Y-47158000D03*
X70462000Y-47158000D03*
X71462000Y-47158000D03*
X69462000Y-47158000D03*
X68462000Y-47158000D03*
X76462000Y-47158000D03*
X77462000Y-47158000D03*
X79462000Y-47158000D03*
X78462000Y-47158000D03*
X74462000Y-47158000D03*
X75462000Y-47158000D03*
X73462000Y-47158000D03*
X72462000Y-47158000D03*
D39*
X82452000Y-49958000D03*
D42*
X10162000Y-5158000D03*
X10162000Y-3158000D03*
X12162000Y-5158000D03*
X12162000Y-3158000D03*
X14162000Y-5158000D03*
X14162000Y-3158000D03*
X16162000Y-5158000D03*
X16162000Y-3158000D03*
X18162000Y-5158000D03*
X18162000Y-3158000D03*
X20162000Y-5158000D03*
X20162000Y-3158000D03*
X22162000Y-5158000D03*
X22162000Y-3158000D03*
X24162000Y-5158000D03*
X24162000Y-3158000D03*
X26162000Y-5158000D03*
X26162000Y-3158000D03*
X28162000Y-5158000D03*
X28162000Y-3158000D03*
X30162000Y-5158000D03*
X30162000Y-3158000D03*
X32162000Y-5158000D03*
X32162000Y-3158000D03*
X34162000Y-5158000D03*
X34162000Y-3158000D03*
X36162000Y-5158000D03*
X36162000Y-3158000D03*
X38162000Y-5158000D03*
X38162000Y-3158000D03*
X40162000Y-5158000D03*
X40162000Y-3158000D03*
X42162000Y-5158000D03*
X42162000Y-3158000D03*
X44162000Y-5158000D03*
X44162000Y-3158000D03*
X46162000Y-5158000D03*
X46162000Y-3158000D03*
X48162000Y-5158000D03*
X48162000Y-3158000D03*
D38*
X71512000Y-11763000D03*
X71512000Y-10493000D03*
X71512000Y-7953000D03*
X71512000Y-9223000D03*
X76412000Y-9223000D03*
X76412000Y-7953000D03*
X76412000Y-10493000D03*
X76412000Y-11763000D03*
D43*
X15062000Y-34758000D03*
X15062000Y-38158000D03*
D44*
X9162000Y-18808000D03*
X9162000Y-17108000D03*
X23762000Y-6908000D03*
X23762000Y-8608000D03*
D45*
X29512000Y-52758000D03*
X27812000Y-52758000D03*
X29512000Y-49458000D03*
X27812000Y-49458000D03*
D44*
X49832000Y-41868000D03*
X49832000Y-40168000D03*
X47782000Y-42978000D03*
X47782000Y-41278000D03*
X33562000Y-7808000D03*
X33562000Y-9508000D03*
D46*
X36812000Y-10358000D03*
X38712000Y-10358000D03*
X37762000Y-12358000D03*
D47*
X23862000Y-29258000D03*
D48*
X5912000Y-17058000D03*
X2612000Y-17058000D03*
D49*
X80962000Y-23226800D03*
X80962000Y-29879600D03*
X73462000Y-23226800D03*
X73462000Y-29879600D03*
X80962000Y-19308000D03*
X80962000Y-16008000D03*
X80762000Y-11808000D03*
X80762000Y-8508000D03*
X67162000Y-11808000D03*
X67162000Y-8508000D03*
X67162000Y-19208000D03*
X67162000Y-15908000D03*
X6462000Y-49008000D03*
X6462000Y-52308000D03*
D45*
X4612000Y-20558000D03*
X2912000Y-20558000D03*
X55162000Y-43468000D03*
X56862000Y-43468000D03*
D44*
X2962000Y-46908000D03*
X2962000Y-48608000D03*
D50*
X9162000Y-30708000D03*
X9162000Y-23008000D03*
D44*
X1862000Y-42008000D03*
X1862000Y-43708000D03*
X15062000Y-39608000D03*
X15062000Y-41308000D03*
D51*
X9887000Y-15258000D03*
X12037000Y-15258000D03*
D52*
X21217000Y-10408000D03*
X21217000Y-10908000D03*
X21217000Y-11908000D03*
X21217000Y-11408000D03*
X23707000Y-11408000D03*
X23707000Y-11908000D03*
X23707000Y-10908000D03*
D53*
X23707000Y-10408000D03*
D54*
X18812000Y-21258000D03*
X19320000Y-21258000D03*
X20312000Y-21258000D03*
X19812000Y-21258000D03*
X19812000Y-23258000D03*
X20312000Y-23258000D03*
X19320000Y-23258000D03*
X18812000Y-23258000D03*
D55*
X52012000Y-42403000D03*
X52512000Y-42403000D03*
X53512000Y-42403000D03*
X53012000Y-42403000D03*
X53012000Y-39913000D03*
X53512000Y-39913000D03*
X52512000Y-39913000D03*
D56*
X52012000Y-39913000D03*
D57*
X32062000Y-20508000D03*
X32562000Y-20508000D03*
X31062000Y-20508000D03*
X31562000Y-20508000D03*
X33062000Y-20508000D03*
X33062000Y-24408000D03*
X31562000Y-24408000D03*
X31062000Y-24408000D03*
X32562000Y-24408000D03*
X32062000Y-24408000D03*
D58*
X30942000Y-30013000D03*
X31942000Y-30013000D03*
X30942000Y-28163000D03*
X31942000Y-28163000D03*
D59*
X31442000Y-29088000D03*
D60*
X33562000Y-10908700D03*
X33562000Y-12407300D03*
X61262000Y-1608700D03*
X61262000Y-3107300D03*
X66262000Y-1608700D03*
X66262000Y-3107300D03*
X72062000Y-1708700D03*
X72062000Y-3207300D03*
X25511300Y-49458000D03*
X24012700Y-49458000D03*
X25511300Y-52758000D03*
X24012700Y-52758000D03*
M02*
