M48
;DRILL file {KiCad 4.0.2-stable} date 2016年08月10日水曜日 14:12:40
;FORMAT={3:3/ absolute / metric / suppress leading zeros}
FMAT,2
METRIC,TZ
T1C0.400
T2C0.500
T3C0.550
T4C0.762
T5C1.016
%
G90
G05
M71
T1
X1762Y-6888
X2062Y-40388
X2412Y-17488
X3062Y-20738
X4112Y-10888
X6662Y-44888
X6762Y-12488
X6862Y-9288
X7212Y-30538
X7462Y-46488
X7510Y-44036
X7962Y-50988
X8082Y-1748
X8462Y-47588
X11862Y-48588
X11912Y-15638
X12962Y-37988
X14762Y-9488
X14862Y-35988
X15812Y-17308
X16952Y-8228
X17162Y-46488
X17462Y-45588
X17488Y-23238
X17762Y-49988
X17962Y-47188
X18032Y-24968
X18182Y-23932
X18312Y-16048
X18362Y-44788
X18962Y-10788
X19162Y-21988
X19262Y-16188
X19862Y-23388
X20262Y-18488
X20961Y-15361
X21017Y-12800
X21042Y-38077
X21338Y-6738
X22012Y-38188
X22672Y-37578
X23072Y-16108
X23422Y-19458
X23492Y-11898
X23492Y-38118
X23562Y-9988
X24332Y-38448
X25112Y-34888
X25112Y-37868
X25202Y-11498
X25932Y-38378
X26692Y-37888
X26852Y-11138
X26982Y-14378
X27582Y-39108
X28332Y-39538
X28422Y-17898
X29262Y-33078
X29282Y-32098
X29312Y-50888
X29522Y-11258
X30122Y-13168
X30362Y-31588
X30582Y-24948
X30632Y-37928
X30742Y-42168
X31432Y-22368
X31882Y-21678
X32322Y-37508
X33072Y-22378
X33112Y-42168
X33162Y-37988
X33932Y-38278
X33962Y-6988
X35512Y-42108
X35884Y-34761
X36102Y-10188
X36172Y-25468
X36322Y-37518
X37159Y-27372
X37352Y-37916
X37912Y-42098
X38322Y-27558
X38552Y-46248
X38702Y-37468
X39110Y-34118
X39477Y-10188
X39492Y-22608
X39837Y-26588
X39935Y-29588
X40012Y-38368
X40312Y-41978
X40692Y-21278
X40742Y-26458
X41062Y-37588
X41432Y-11018
X41752Y-7888
X41762Y-43848
X41962Y-19688
X41962Y-23988
X42342Y-8478
X42472Y-48568
X42696Y-22151
X42808Y-21288
X43292Y-45388
X43432Y-23158
X43562Y-37588
X43662Y-16878
X43742Y-39058
X45272Y-21428
X45462Y-48218
X45892Y-10428
X46432Y-8618
X46562Y-36388
X46663Y-6695
X47122Y-18308
X47334Y-34320
X47492Y-19788
X48462Y-37288
X48462Y-48228
X48807Y-42523
X49462Y-45488
X49745Y-4488
X50162Y-15888
X50162Y-21248
X50242Y-19708
X50462Y-45488
X50585Y-3419
X51418Y-27563
X51462Y-48738
X51662Y-22538
X51762Y-43788
X51782Y-20098
X52112Y-30358
X52482Y-10128
X52662Y-45388
X53132Y-43338
X53982Y-4068
X54012Y-19908
X54352Y-41828
X54515Y-46109
X54592Y-15878
X54762Y-40768
X54822Y-48378
X54886Y-30014
X55102Y-13158
X55421Y-30706
X55492Y-14648
X56021Y-31720
X56042Y-13198
X56587Y-28912
X56902Y-15928
X57042Y-13928
X57172Y-28268
X57312Y-45463
X57542Y-37048
X57862Y-4288
X58182Y-36328
X58537Y-45518
X58945Y-1439
X59102Y-8148
X59690Y-15494
X59992Y-9168
X61901Y-26933
X61902Y-44438
X61962Y-31488
X61962Y-32738
X63362Y-30458
X63372Y-29308
X63372Y-34248
X65146Y-2154
X65162Y-11588
X65272Y-45698
X65272Y-45708
X65662Y-18888
X68162Y-8388
X68242Y-48318
X69379Y-1539
X71253Y-12426
X71262Y-48278
X71312Y-37798
X71922Y-40778
X72712Y-44388
X73204Y-48549
X73562Y-8188
X73767Y-11593
X73787Y-13388
X73822Y-29718
X73932Y-20988
X74092Y-36928
X74262Y-48408
X74972Y-34901
X76312Y-18488
X76742Y-43998
X76802Y-38278
X77153Y-13363
X77272Y-48248
X78242Y-45268
X78612Y-43662
X78632Y-39888
X79062Y-8338
X79162Y-15838
X79272Y-19138
X79512Y-44868
X79572Y-49838
X79952Y-47018
X79992Y-43408
X80102Y-29778
X80172Y-38728
X83820Y-40132
T4
X9962Y-2988
X9962Y-4988
X11962Y-2988
X11962Y-4988
X13962Y-2988
X13962Y-4988
X15962Y-2988
X15962Y-4988
X17962Y-2988
X17962Y-4988
X19962Y-2988
X19962Y-4988
X21962Y-2988
X21962Y-4988
X23962Y-2988
X23962Y-4988
X25962Y-2988
X25962Y-4988
X27962Y-2988
X27962Y-4988
X29962Y-2988
X29962Y-4988
X31962Y-2988
X31962Y-4988
X33962Y-2988
X33962Y-4988
X35962Y-2988
X35962Y-4988
X37962Y-2988
X37962Y-4988
X39962Y-2988
X39962Y-4988
X41962Y-2988
X41962Y-4988
X43962Y-2988
X43962Y-4988
X45962Y-2988
X45962Y-4988
X47962Y-2988
X47962Y-4988
T5
X2162Y-52088
X4462Y-42788
X49362Y-8188
X52862Y-8188
X56362Y-8188
X76062Y-3888
T2
X9562Y-52213G85X9562Y-52863
G05
X16562Y-52213G85X16562Y-52863
G05
T3
X10412Y-49838G85X10712Y-49838
G05
X15412Y-49838G85X15712Y-49838
G05
T0
M30
