M48
;DRILL file {KiCad 4.0.2-stable} date 2016年08月10日水曜日 14:50:04
;FORMAT={3:3/ absolute / metric / suppress leading zeros}
FMAT,2
METRIC,TZ
T1C0.400
T2C0.500
T3C0.550
T4C0.762
T5C1.016
%
G90
G05
M71
T1
X1962Y-7058
X2262Y-40558
X2612Y-17658
X3262Y-20908
X4312Y-11058
X6862Y-45058
X6962Y-12658
X7062Y-9458
X7412Y-30708
X7662Y-46658
X7710Y-44206
X8162Y-51158
X8282Y-1918
X8662Y-47758
X12062Y-48758
X12112Y-15808
X13162Y-38158
X14962Y-9658
X15062Y-36158
X16012Y-17478
X17152Y-8398
X17362Y-46658
X17662Y-45758
X17688Y-23408
X17962Y-50158
X18162Y-47358
X18232Y-25138
X18382Y-24102
X18512Y-16218
X18562Y-44958
X19162Y-10958
X19362Y-22158
X19462Y-16358
X20062Y-23558
X20462Y-18658
X21161Y-15531
X21217Y-12970
X21242Y-38247
X21538Y-6908
X22212Y-38358
X22872Y-37748
X23272Y-16278
X23622Y-19628
X23692Y-12068
X23692Y-38288
X23762Y-10158
X24532Y-38618
X25312Y-35058
X25312Y-38038
X25402Y-11668
X26132Y-38548
X26892Y-38058
X27052Y-11308
X27182Y-14548
X27782Y-39278
X28532Y-39708
X28622Y-18068
X29462Y-33248
X29482Y-32268
X29512Y-51058
X29722Y-11428
X30322Y-13338
X30562Y-31758
X30782Y-25118
X30832Y-38098
X30942Y-42338
X31632Y-22538
X32082Y-21848
X32522Y-37678
X33272Y-22548
X33312Y-42338
X33362Y-38158
X34132Y-38448
X34162Y-7158
X35712Y-42278
X36084Y-34931
X36302Y-10358
X36372Y-25638
X36522Y-37688
X37359Y-27542
X37552Y-38086
X38112Y-42268
X38522Y-27728
X38752Y-46418
X38902Y-37638
X39310Y-34288
X39677Y-10358
X39692Y-22778
X40037Y-26758
X40135Y-29758
X40212Y-38538
X40512Y-42148
X40892Y-21448
X40942Y-26628
X41262Y-37758
X41632Y-11188
X41952Y-8058
X41962Y-44018
X42162Y-19858
X42162Y-24158
X42542Y-8648
X42672Y-48738
X42896Y-22321
X43008Y-21458
X43492Y-45558
X43632Y-23328
X43762Y-37758
X43862Y-17048
X43942Y-39228
X45472Y-21598
X45662Y-48388
X46092Y-10598
X46632Y-8788
X46762Y-36558
X46863Y-6865
X47322Y-18478
X47534Y-34490
X47692Y-19958
X48662Y-37458
X48662Y-48398
X49007Y-42693
X49662Y-45658
X49945Y-4658
X50362Y-16058
X50362Y-21418
X50442Y-19878
X50662Y-45658
X50785Y-3588
X51618Y-27733
X51662Y-48908
X51862Y-22708
X51962Y-43958
X51982Y-20268
X52312Y-30528
X52682Y-10298
X52862Y-45558
X53332Y-43508
X54182Y-4238
X54212Y-20078
X54552Y-41998
X54715Y-46279
X54792Y-16048
X54962Y-40938
X55022Y-48548
X55086Y-30184
X55302Y-13328
X55621Y-30876
X55692Y-14818
X56221Y-31890
X56242Y-13368
X56787Y-29082
X57102Y-16098
X57242Y-14098
X57372Y-28438
X57512Y-45633
X57742Y-37218
X58062Y-4458
X58382Y-36498
X58737Y-45688
X59145Y-1609
X59302Y-8318
X59890Y-15664
X60192Y-9338
X62101Y-27103
X62102Y-44608
X62162Y-31658
X62162Y-32908
X63562Y-30628
X63572Y-29478
X63572Y-34418
X65346Y-2324
X65362Y-11758
X65472Y-45868
X65472Y-45878
X65862Y-19058
X68362Y-8558
X68442Y-48488
X69579Y-1709
X71453Y-12596
X71462Y-48448
X71512Y-37968
X72122Y-40948
X72912Y-44558
X73404Y-48719
X73762Y-8358
X73967Y-11763
X73987Y-13558
X74022Y-29888
X74132Y-21158
X74292Y-37098
X74462Y-48578
X75172Y-35071
X76512Y-18658
X76942Y-44168
X77002Y-38448
X77353Y-13533
X77472Y-48418
X78442Y-45438
X78812Y-43832
X78832Y-40058
X79262Y-8508
X79362Y-16008
X79472Y-19308
X79712Y-45038
X79772Y-50008
X80152Y-47188
X80192Y-43578
X80302Y-29948
X80372Y-38898
X84020Y-40302
T4
X10162Y-3158
X10162Y-5158
X12162Y-3158
X12162Y-5158
X14162Y-3158
X14162Y-5158
X16162Y-3158
X16162Y-5158
X18162Y-3158
X18162Y-5158
X20162Y-3158
X20162Y-5158
X22162Y-3158
X22162Y-5158
X24162Y-3158
X24162Y-5158
X26162Y-3158
X26162Y-5158
X28162Y-3158
X28162Y-5158
X30162Y-3158
X30162Y-5158
X32162Y-3158
X32162Y-5158
X34162Y-3158
X34162Y-5158
X36162Y-3158
X36162Y-5158
X38162Y-3158
X38162Y-5158
X40162Y-3158
X40162Y-5158
X42162Y-3158
X42162Y-5158
X44162Y-3158
X44162Y-5158
X46162Y-3158
X46162Y-5158
X48162Y-3158
X48162Y-5158
T5
X2362Y-52258
X4662Y-42958
X49562Y-8358
X53062Y-8358
X56562Y-8358
X76262Y-4058
T2
X9762Y-52383G85X9762Y-53033
G05
X16762Y-52383G85X16762Y-53033
G05
T3
X10612Y-50008G85X10912Y-50008
G05
X15612Y-50008G85X15912Y-50008
G05
T0
M30
