%TF.GenerationSoftware,KiCad,Pcbnew,4.0.2-stable*%
%TF.CreationDate,2016-08-10T14:49:54+09:00*%
%TF.ProjectId,Shimonso-IoT-Type-R,5368696D6F6E736F2D496F542D547970,rev?*%
%TF.FileFunction,Legend,Top*%
%FSLAX46Y46*%
G04 Gerber Fmt 4.6, Leading zero omitted, Abs format (unit mm)*
G04 Created by KiCad (PCBNEW 4.0.2-stable) date 2016年08月10日水曜日 14:49:54*
%MOMM*%
G01*
G04 APERTURE LIST*
%ADD10C,0.100000*%
%ADD11C,0.200000*%
%ADD12C,0.150000*%
%ADD13C,0.300000*%
%ADD14C,0.250000*%
%ADD15R,2.435200X2.435200*%
%ADD16R,0.997560X0.997560*%
%ADD17R,3.300000X0.504800*%
%ADD18R,1.700000X1.750000*%
%ADD19R,0.600000X1.550000*%
%ADD20O,1.090000X1.750000*%
%ADD21O,1.450000X1.150000*%
%ADD22R,0.600000X0.600000*%
%ADD23R,0.600000X0.950000*%
%ADD24R,0.600000X0.945000*%
%ADD25R,1.100000X0.710000*%
%ADD26R,0.600000X1.095000*%
%ADD27R,1.500000X2.100000*%
%ADD28R,1.020000X0.900000*%
%ADD29R,2.000000X0.760000*%
%ADD30R,0.630000X0.530000*%
%ADD31R,0.530000X0.630000*%
%ADD32O,0.850000X0.600000*%
%ADD33R,0.600000X0.750000*%
%ADD34O,0.600000X0.850000*%
%ADD35R,1.100000X0.600000*%
%ADD36R,0.750000X0.600000*%
%ADD37R,0.575000X0.550000*%
%ADD38R,0.550000X0.575000*%
%ADD39R,1.920000X0.700000*%
%ADD40R,0.640000X1.810000*%
%ADD41R,2.200000X0.500000*%
%ADD42R,2.300000X0.740000*%
%ADD43R,1.540000X3.800000*%
%ADD44R,0.810000X2.200000*%
%ADD45C,1.800000*%
%ADD46R,1.900000X1.400000*%
%ADD47R,1.000000X0.900000*%
%ADD48R,0.900000X1.000000*%
%ADD49R,1.000000X1.100000*%
%ADD50R,9.200000X9.200000*%
%ADD51R,2.900000X1.100000*%
%ADD52R,1.100000X2.900000*%
%ADD53R,1.900000X6.500000*%
%ADD54R,1.400000X1.100000*%
%ADD55R,1.810000X0.570000*%
%ADD56R,1.810000X0.560000*%
%ADD57R,0.550000X0.900000*%
%ADD58R,0.570000X1.810000*%
%ADD59R,0.560000X1.810000*%
%ADD60R,0.570000X2.200000*%
G04 APERTURE END LIST*
D10*
D11*
X83662000Y-4158000D02*
G75*
G03X83662000Y-4158000I-2500000J0D01*
G01*
X6662000Y-4158000D02*
G75*
G03X6662000Y-4158000I-2500000J0D01*
G01*
D12*
X58112000Y-6808000D02*
X58112000Y-8358000D01*
X55012000Y-8358000D02*
X55012000Y-6808000D01*
X55012000Y-6808000D02*
X58112000Y-6808000D01*
X55292000Y-9628000D02*
X57832000Y-9628000D01*
X54612000Y-6808000D02*
X54612000Y-8358000D01*
X51512000Y-8358000D02*
X51512000Y-6808000D01*
X51512000Y-6808000D02*
X54612000Y-6808000D01*
X51792000Y-9628000D02*
X54332000Y-9628000D01*
X51112000Y-6808000D02*
X51112000Y-8358000D01*
X48012000Y-8358000D02*
X48012000Y-6808000D01*
X48012000Y-6808000D02*
X51112000Y-6808000D01*
X48292000Y-9628000D02*
X50832000Y-9628000D01*
X77812000Y-2508000D02*
X77812000Y-4058000D01*
X74712000Y-4058000D02*
X74712000Y-2508000D01*
X74712000Y-2508000D02*
X77812000Y-2508000D01*
X74992000Y-5328000D02*
X77532000Y-5328000D01*
X3912000Y-50708000D02*
X3912000Y-52258000D01*
X812000Y-52258000D02*
X812000Y-50708000D01*
X812000Y-50708000D02*
X3912000Y-50708000D01*
X1092000Y-53528000D02*
X3632000Y-53528000D01*
X6212000Y-41408000D02*
X6212000Y-42958000D01*
X3112000Y-42958000D02*
X3112000Y-41408000D01*
X3112000Y-41408000D02*
X6212000Y-41408000D01*
X3392000Y-44228000D02*
X5932000Y-44228000D01*
X23662000Y-53308000D02*
X25562000Y-53308000D01*
X23662000Y-52208000D02*
X25562000Y-52208000D01*
X24562000Y-52758000D02*
X25012000Y-52758000D01*
X24512000Y-52508000D02*
X24512000Y-53008000D01*
X24512000Y-52758000D02*
X24762000Y-52508000D01*
X24762000Y-52508000D02*
X24762000Y-53008000D01*
X24762000Y-53008000D02*
X24512000Y-52758000D01*
X23662000Y-50008000D02*
X25562000Y-50008000D01*
X23662000Y-48908000D02*
X25562000Y-48908000D01*
X24562000Y-49458000D02*
X25012000Y-49458000D01*
X24512000Y-49208000D02*
X24512000Y-49708000D01*
X24512000Y-49458000D02*
X24762000Y-49208000D01*
X24762000Y-49208000D02*
X24762000Y-49708000D01*
X24762000Y-49708000D02*
X24512000Y-49458000D01*
X72612000Y-3558000D02*
X72612000Y-1658000D01*
X71512000Y-3558000D02*
X71512000Y-1658000D01*
X72062000Y-2658000D02*
X72062000Y-2208000D01*
X71812000Y-2708000D02*
X72312000Y-2708000D01*
X72062000Y-2708000D02*
X71812000Y-2458000D01*
X71812000Y-2458000D02*
X72312000Y-2458000D01*
X72312000Y-2458000D02*
X72062000Y-2708000D01*
X66812000Y-3458000D02*
X66812000Y-1558000D01*
X65712000Y-3458000D02*
X65712000Y-1558000D01*
X66262000Y-2558000D02*
X66262000Y-2108000D01*
X66012000Y-2608000D02*
X66512000Y-2608000D01*
X66262000Y-2608000D02*
X66012000Y-2358000D01*
X66012000Y-2358000D02*
X66512000Y-2358000D01*
X66512000Y-2358000D02*
X66262000Y-2608000D01*
X61812000Y-3458000D02*
X61812000Y-1558000D01*
X60712000Y-3458000D02*
X60712000Y-1558000D01*
X61262000Y-2558000D02*
X61262000Y-2108000D01*
X61012000Y-2608000D02*
X61512000Y-2608000D01*
X61262000Y-2608000D02*
X61012000Y-2358000D01*
X61012000Y-2358000D02*
X61512000Y-2358000D01*
X61512000Y-2358000D02*
X61262000Y-2608000D01*
X34112000Y-12758000D02*
X34112000Y-10858000D01*
X33012000Y-12758000D02*
X33012000Y-10858000D01*
X33562000Y-11858000D02*
X33562000Y-11408000D01*
X33312000Y-11908000D02*
X33812000Y-11908000D01*
X33562000Y-11908000D02*
X33312000Y-11658000D01*
X33312000Y-11658000D02*
X33812000Y-11658000D01*
X33812000Y-11658000D02*
X33562000Y-11908000D01*
D13*
X8668362Y-41650400D02*
G75*
G03X8668362Y-41650400I-183162J0D01*
G01*
X17162000Y-42158000D02*
X17162000Y-48158000D01*
X17162000Y-48158000D02*
X9162000Y-48158000D01*
X9162000Y-48158000D02*
X9162000Y-42158000D01*
X9162000Y-42158000D02*
X17162000Y-42158000D01*
X16862000Y-49858000D02*
X17212000Y-49858000D01*
X17262000Y-51258000D02*
X17262000Y-49858000D01*
X9262000Y-51258000D02*
X9262000Y-49858000D01*
X9312000Y-49858000D02*
X9662000Y-49858000D01*
X35128644Y-31204400D02*
G75*
G03X35128644Y-31204400I-160644J0D01*
G01*
X35462000Y-25808000D02*
X40062000Y-25808000D01*
X40062000Y-25808000D02*
X40062000Y-30708000D01*
X40062000Y-30708000D02*
X35462000Y-30708000D01*
X35462000Y-30708000D02*
X35462000Y-25808000D01*
X31112000Y-31058000D02*
X29012000Y-31058000D01*
X31112000Y-27658000D02*
X29012000Y-27658000D01*
X29012000Y-31058000D02*
X29012000Y-27658000D01*
X31112000Y-31058000D02*
X31112000Y-27658000D01*
X751844Y-11058000D02*
G75*
G03X751844Y-11058000I-160644J0D01*
G01*
X9462000Y-14058000D02*
X1562000Y-14058000D01*
X1562000Y-14058000D02*
X1562000Y-8058000D01*
X1562000Y-8058000D02*
X9462000Y-8058000D01*
X9462000Y-8058000D02*
X9462000Y-14058000D01*
X22859405Y-15375200D02*
G75*
G03X22859405Y-15375200I-179605J0D01*
G01*
X22227000Y-15883000D02*
X17697000Y-15883000D01*
X17697000Y-15883000D02*
X17697000Y-19033000D01*
X17697000Y-19033000D02*
X22227000Y-19033000D01*
X22227000Y-19033000D02*
X22227000Y-15883000D01*
X10412000Y-13608000D02*
X10412000Y-7708000D01*
X10412000Y-7708000D02*
X18512000Y-7708000D01*
X18512000Y-7708000D02*
X18512000Y-13608000D01*
X18512000Y-13608000D02*
X10412000Y-13608000D01*
X52773605Y-22217000D02*
G75*
G03X52773605Y-22217000I-179605J0D01*
G01*
X52007000Y-21503000D02*
X49117000Y-21503000D01*
X49117000Y-21503000D02*
X49117000Y-18613000D01*
X49117000Y-18613000D02*
X52007000Y-18613000D01*
X52007000Y-18613000D02*
X52007000Y-21503000D01*
X43527605Y-23871000D02*
G75*
G03X43527605Y-23871000I-179605J0D01*
G01*
X39312000Y-23208000D02*
X39312000Y-19708000D01*
X42812000Y-23208000D02*
X42812000Y-19708000D01*
X42812000Y-19708000D02*
X39312000Y-19708000D01*
X42812000Y-23208000D02*
X39312000Y-23208000D01*
X53819000Y-16701000D02*
G75*
G03X53819000Y-16701000I-127000J0D01*
G01*
X54374500Y-13470500D02*
X57049500Y-13470500D01*
X57049500Y-16145500D02*
X57049500Y-13470500D01*
X54374500Y-16145500D02*
X57049500Y-16145500D01*
X54374500Y-16145500D02*
X54374500Y-13470500D01*
X42147605Y-6473600D02*
G75*
G03X42147605Y-6473600I-179605J0D01*
G01*
X47072000Y-7008000D02*
X47072000Y-10308000D01*
X42452000Y-7008000D02*
X42452000Y-10308000D01*
X47072000Y-7008000D02*
X42452000Y-7008000D01*
X47072000Y-10308000D02*
X42452000Y-10308000D01*
X79202000Y-38828000D02*
X76302000Y-38828000D01*
X76302000Y-38828000D02*
X76302000Y-43728000D01*
X76302000Y-43728000D02*
X79202000Y-43728000D01*
X79202000Y-43728000D02*
X79202000Y-38828000D01*
X79916362Y-38179200D02*
G75*
G03X79916362Y-38179200I-183162J0D01*
G01*
X56281284Y-28337200D02*
G75*
G03X56281284Y-28337200I-143684J0D01*
G01*
X65012000Y-28883000D02*
X65012000Y-34983000D01*
X65012000Y-34983000D02*
X56712000Y-34983000D01*
X56712000Y-34983000D02*
X56712000Y-28883000D01*
X56712000Y-28883000D02*
X65012000Y-28883000D01*
X70112000Y-19983000D02*
X70112000Y-14733000D01*
X70112000Y-14733000D02*
X78012000Y-14733000D01*
X78012000Y-14723000D02*
X78012000Y-19983000D01*
X78012000Y-19983000D02*
X70112000Y-19983000D01*
X34662000Y-45708000D02*
X34662000Y-52158000D01*
X58662000Y-45708000D02*
X58662000Y-52158000D01*
X58662000Y-45708000D02*
X34662000Y-45708000D01*
X60462000Y-45708000D02*
X60462000Y-52158000D01*
X84462000Y-45708000D02*
X84462000Y-52158000D01*
X84462000Y-45708000D02*
X60462000Y-45708000D01*
X70012000Y-12483000D02*
X70012000Y-7233000D01*
X70012000Y-7233000D02*
X77912000Y-7233000D01*
X77912000Y-7223000D02*
X77912000Y-12483000D01*
X77912000Y-12483000D02*
X70012000Y-12483000D01*
X16362000Y-38408000D02*
X16762000Y-38408000D01*
X13362000Y-38408000D02*
X13762000Y-38408000D01*
X16362000Y-34508000D02*
X16762000Y-34508000D01*
X13362000Y-34508000D02*
X13762000Y-34508000D01*
X16762000Y-38408000D02*
X16762000Y-34508000D01*
X13362000Y-38408000D02*
X13362000Y-34508000D01*
X9912000Y-17458000D02*
X9912000Y-18458000D01*
X8412000Y-18458000D02*
X8412000Y-17458000D01*
X23012000Y-8258000D02*
X23012000Y-7258000D01*
X24512000Y-7258000D02*
X24512000Y-8258000D01*
X28162000Y-52008000D02*
X29162000Y-52008000D01*
X29162000Y-53508000D02*
X28162000Y-53508000D01*
X28162000Y-48708000D02*
X29162000Y-48708000D01*
X29162000Y-50208000D02*
X28162000Y-50208000D01*
X50582000Y-40518000D02*
X50582000Y-41518000D01*
X49082000Y-41518000D02*
X49082000Y-40518000D01*
X48532000Y-41628000D02*
X48532000Y-42628000D01*
X47032000Y-42628000D02*
X47032000Y-41628000D01*
X32812000Y-9158000D02*
X32812000Y-8158000D01*
X34312000Y-8158000D02*
X34312000Y-9158000D01*
X37662000Y-10158000D02*
X37862000Y-10158000D01*
X39612000Y-10158000D02*
X40862000Y-10158000D01*
X38612000Y-12558000D02*
X40862000Y-12558000D01*
X34662000Y-12558000D02*
X36912000Y-12558000D01*
X34662000Y-10158000D02*
X35912000Y-10158000D01*
X40862000Y-10158000D02*
X40862000Y-12558000D01*
X34662000Y-10158000D02*
X34662000Y-12558000D01*
X6912000Y-15758000D02*
X5912000Y-14758000D01*
X6912000Y-18358000D02*
X5912000Y-19358000D01*
X1612000Y-19358000D02*
X1612000Y-17858000D01*
X1612000Y-16258000D02*
X1612000Y-14758000D01*
X6912000Y-16258000D02*
X6912000Y-15758000D01*
X6912000Y-18358000D02*
X6912000Y-17858000D01*
X1612000Y-14758000D02*
X5912000Y-14758000D01*
X1612000Y-19358000D02*
X5912000Y-19358000D01*
X78512000Y-23058000D02*
X77512000Y-24058000D01*
X83412000Y-23058000D02*
X84412000Y-24058000D01*
X84412000Y-30658000D02*
X81762000Y-30658000D01*
X80162000Y-30658000D02*
X77512000Y-30658000D01*
X80162000Y-23058000D02*
X78512000Y-23058000D01*
X83412000Y-23058000D02*
X81762000Y-23058000D01*
X77512000Y-30658000D02*
X77512000Y-24058000D01*
X84412000Y-30658000D02*
X84412000Y-24058000D01*
X71012000Y-23058000D02*
X70012000Y-24058000D01*
X75912000Y-23058000D02*
X76912000Y-24058000D01*
X76912000Y-30658000D02*
X74262000Y-30658000D01*
X72662000Y-30658000D02*
X70012000Y-30658000D01*
X72662000Y-23058000D02*
X71012000Y-23058000D01*
X75912000Y-23058000D02*
X74262000Y-23058000D01*
X70012000Y-30658000D02*
X70012000Y-24058000D01*
X76912000Y-30658000D02*
X76912000Y-24058000D01*
X82262000Y-20308000D02*
X83262000Y-19308000D01*
X79662000Y-20308000D02*
X78662000Y-19308000D01*
X78662000Y-15008000D02*
X80162000Y-15008000D01*
X81762000Y-15008000D02*
X83262000Y-15008000D01*
X81762000Y-20308000D02*
X82262000Y-20308000D01*
X79662000Y-20308000D02*
X80162000Y-20308000D01*
X83262000Y-15008000D02*
X83262000Y-19308000D01*
X78662000Y-15008000D02*
X78662000Y-19308000D01*
X82062000Y-12808000D02*
X83062000Y-11808000D01*
X79462000Y-12808000D02*
X78462000Y-11808000D01*
X78462000Y-7508000D02*
X79962000Y-7508000D01*
X81562000Y-7508000D02*
X83062000Y-7508000D01*
X81562000Y-12808000D02*
X82062000Y-12808000D01*
X79462000Y-12808000D02*
X79962000Y-12808000D01*
X83062000Y-7508000D02*
X83062000Y-11808000D01*
X78462000Y-7508000D02*
X78462000Y-11808000D01*
X68462000Y-12808000D02*
X69462000Y-11808000D01*
X65862000Y-12808000D02*
X64862000Y-11808000D01*
X64862000Y-7508000D02*
X66362000Y-7508000D01*
X67962000Y-7508000D02*
X69462000Y-7508000D01*
X67962000Y-12808000D02*
X68462000Y-12808000D01*
X65862000Y-12808000D02*
X66362000Y-12808000D01*
X69462000Y-7508000D02*
X69462000Y-11808000D01*
X64862000Y-7508000D02*
X64862000Y-11808000D01*
X68462000Y-20208000D02*
X69462000Y-19208000D01*
X65862000Y-20208000D02*
X64862000Y-19208000D01*
X64862000Y-14908000D02*
X66362000Y-14908000D01*
X67962000Y-14908000D02*
X69462000Y-14908000D01*
X67962000Y-20208000D02*
X68462000Y-20208000D01*
X65862000Y-20208000D02*
X66362000Y-20208000D01*
X69462000Y-14908000D02*
X69462000Y-19208000D01*
X64862000Y-14908000D02*
X64862000Y-19208000D01*
X5162000Y-48008000D02*
X4162000Y-49008000D01*
X7762000Y-48008000D02*
X8762000Y-49008000D01*
X8762000Y-53308000D02*
X7262000Y-53308000D01*
X5662000Y-53308000D02*
X4162000Y-53308000D01*
X5662000Y-48008000D02*
X5162000Y-48008000D01*
X7762000Y-48008000D02*
X7262000Y-48008000D01*
X4162000Y-53308000D02*
X4162000Y-49008000D01*
X8762000Y-53308000D02*
X8762000Y-49008000D01*
X3262000Y-19808000D02*
X4262000Y-19808000D01*
X4262000Y-21308000D02*
X3262000Y-21308000D01*
X56512000Y-44218000D02*
X55512000Y-44218000D01*
X55512000Y-42718000D02*
X56512000Y-42718000D01*
X2212000Y-48258000D02*
X2212000Y-47258000D01*
X3712000Y-47258000D02*
X3712000Y-48258000D01*
X10362000Y-32408000D02*
X14712000Y-32408000D01*
X10362000Y-21308000D02*
X12662000Y-21308000D01*
X12662000Y-21308000D02*
X14712000Y-23358000D01*
X3612000Y-23358000D02*
X5662000Y-21308000D01*
X5662000Y-21308000D02*
X7962000Y-21308000D01*
X14712000Y-32408000D02*
X14712000Y-23358000D01*
X3612000Y-32408000D02*
X3612000Y-23358000D01*
X3612000Y-32408000D02*
X7962000Y-32408000D01*
X1112000Y-43358000D02*
X1112000Y-42358000D01*
X2612000Y-42358000D02*
X2612000Y-43358000D01*
X14312000Y-40958000D02*
X14312000Y-39958000D01*
X15812000Y-39958000D02*
X15812000Y-40958000D01*
X10112000Y-16033000D02*
X11812000Y-16033000D01*
X10112000Y-14483000D02*
X11812000Y-14483000D01*
X24912000Y-12608000D02*
X24912000Y-9708000D01*
X24912000Y-9708000D02*
X20012000Y-9708000D01*
X20012000Y-9708000D02*
X20012000Y-12608000D01*
X20012000Y-12608000D02*
X24912000Y-12608000D01*
X25743962Y-13139200D02*
G75*
G03X25743962Y-13139200I-183162J0D01*
G01*
X17862005Y-24417000D02*
G75*
G03X17862005Y-24417000I-179605J0D01*
G01*
X18212000Y-24008000D02*
X20912000Y-24008000D01*
X20912000Y-24008000D02*
X20912000Y-20508000D01*
X20912000Y-20508000D02*
X18212000Y-20508000D01*
X18212000Y-20508000D02*
X18212000Y-24008000D01*
X54212000Y-38708000D02*
X51312000Y-38708000D01*
X51312000Y-38708000D02*
X51312000Y-43608000D01*
X51312000Y-43608000D02*
X54212000Y-43608000D01*
X54212000Y-43608000D02*
X54212000Y-38708000D01*
X54926362Y-38059200D02*
G75*
G03X54926362Y-38059200I-183162J0D01*
G01*
X30442000Y-19108000D02*
X33682000Y-19108000D01*
X33682000Y-19108000D02*
X33682000Y-25808000D01*
X33682000Y-25808000D02*
X30442000Y-25808000D01*
X30442000Y-25808000D02*
X30442000Y-19108000D01*
D14*
X55302286Y-10036381D02*
X55873715Y-10036381D01*
X55588000Y-11036381D02*
X55588000Y-10036381D01*
X56207048Y-11036381D02*
X56207048Y-10036381D01*
X56207048Y-10512571D02*
X56778477Y-10512571D01*
X56778477Y-11036381D02*
X56778477Y-10036381D01*
X57683239Y-10036381D02*
X57492762Y-10036381D01*
X57397524Y-10084000D01*
X57349905Y-10131619D01*
X57254667Y-10274476D01*
X57207048Y-10464952D01*
X57207048Y-10845905D01*
X57254667Y-10941143D01*
X57302286Y-10988762D01*
X57397524Y-11036381D01*
X57588001Y-11036381D01*
X57683239Y-10988762D01*
X57730858Y-10941143D01*
X57778477Y-10845905D01*
X57778477Y-10607810D01*
X57730858Y-10512571D01*
X57683239Y-10464952D01*
X57588001Y-10417333D01*
X57397524Y-10417333D01*
X57302286Y-10464952D01*
X57254667Y-10512571D01*
X57207048Y-10607810D01*
X51826286Y-5460381D02*
X52397715Y-5460381D01*
X52112000Y-6460381D02*
X52112000Y-5460381D01*
X52731048Y-6460381D02*
X52731048Y-5460381D01*
X52731048Y-5936571D02*
X53302477Y-5936571D01*
X53302477Y-6460381D02*
X53302477Y-5460381D01*
X54254858Y-5460381D02*
X53778667Y-5460381D01*
X53731048Y-5936571D01*
X53778667Y-5888952D01*
X53873905Y-5841333D01*
X54112001Y-5841333D01*
X54207239Y-5888952D01*
X54254858Y-5936571D01*
X54302477Y-6031810D01*
X54302477Y-6269905D01*
X54254858Y-6365143D01*
X54207239Y-6412762D01*
X54112001Y-6460381D01*
X53873905Y-6460381D01*
X53778667Y-6412762D01*
X53731048Y-6365143D01*
X48190286Y-10036381D02*
X48761715Y-10036381D01*
X48476000Y-11036381D02*
X48476000Y-10036381D01*
X49095048Y-11036381D02*
X49095048Y-10036381D01*
X49095048Y-10512571D02*
X49666477Y-10512571D01*
X49666477Y-11036381D02*
X49666477Y-10036381D01*
X50571239Y-10369714D02*
X50571239Y-11036381D01*
X50333143Y-9988762D02*
X50095048Y-10703048D01*
X50714096Y-10703048D01*
X75026286Y-1160381D02*
X75597715Y-1160381D01*
X75312000Y-2160381D02*
X75312000Y-1160381D01*
X75931048Y-2160381D02*
X75931048Y-1160381D01*
X75931048Y-1636571D02*
X76502477Y-1636571D01*
X76502477Y-2160381D02*
X76502477Y-1160381D01*
X76883429Y-1160381D02*
X77502477Y-1160381D01*
X77169143Y-1541333D01*
X77312001Y-1541333D01*
X77407239Y-1588952D01*
X77454858Y-1636571D01*
X77502477Y-1731810D01*
X77502477Y-1969905D01*
X77454858Y-2065143D01*
X77407239Y-2112762D01*
X77312001Y-2160381D01*
X77026286Y-2160381D01*
X76931048Y-2112762D01*
X76883429Y-2065143D01*
X1126286Y-49360381D02*
X1697715Y-49360381D01*
X1412000Y-50360381D02*
X1412000Y-49360381D01*
X2031048Y-50360381D02*
X2031048Y-49360381D01*
X2031048Y-49836571D02*
X2602477Y-49836571D01*
X2602477Y-50360381D02*
X2602477Y-49360381D01*
X3031048Y-49455619D02*
X3078667Y-49408000D01*
X3173905Y-49360381D01*
X3412001Y-49360381D01*
X3507239Y-49408000D01*
X3554858Y-49455619D01*
X3602477Y-49550857D01*
X3602477Y-49646095D01*
X3554858Y-49788952D01*
X2983429Y-50360381D01*
X3602477Y-50360381D01*
X6764381Y-44127714D02*
X6764381Y-43556285D01*
X7764381Y-43842000D02*
X6764381Y-43842000D01*
X7764381Y-43222952D02*
X6764381Y-43222952D01*
X7240571Y-43222952D02*
X7240571Y-42651523D01*
X7764381Y-42651523D02*
X6764381Y-42651523D01*
X7764381Y-41651523D02*
X7764381Y-42222952D01*
X7764381Y-41937238D02*
X6764381Y-41937238D01*
X6907238Y-42032476D01*
X7002476Y-42127714D01*
X7050095Y-42222952D01*
X23814381Y-51810381D02*
X23338190Y-51810381D01*
X23338190Y-50810381D01*
X23909619Y-51905619D02*
X24671524Y-51905619D01*
X25481048Y-51810381D02*
X25147714Y-51334190D01*
X24909619Y-51810381D02*
X24909619Y-50810381D01*
X25290572Y-50810381D01*
X25385810Y-50858000D01*
X25433429Y-50905619D01*
X25481048Y-51000857D01*
X25481048Y-51143714D01*
X25433429Y-51238952D01*
X25385810Y-51286571D01*
X25290572Y-51334190D01*
X24909619Y-51334190D01*
X25814381Y-50810381D02*
X26481048Y-51810381D01*
X26481048Y-50810381D02*
X25814381Y-51810381D01*
X23833429Y-48410381D02*
X23357238Y-48410381D01*
X23357238Y-47410381D01*
X23928667Y-48505619D02*
X24690572Y-48505619D01*
X24785810Y-47410381D02*
X25357239Y-47410381D01*
X25071524Y-48410381D02*
X25071524Y-47410381D01*
X25595334Y-47410381D02*
X26262001Y-48410381D01*
X26262001Y-47410381D02*
X25595334Y-48410381D01*
X74058381Y-4416381D02*
X74058381Y-4892572D01*
X73058381Y-4892572D01*
X74153619Y-4321143D02*
X74153619Y-3559238D01*
X74058381Y-2797333D02*
X74058381Y-3368762D01*
X74058381Y-3083048D02*
X73058381Y-3083048D01*
X73201238Y-3178286D01*
X73296476Y-3273524D01*
X73344095Y-3368762D01*
X73058381Y-2511619D02*
X74058381Y-2178286D01*
X73058381Y-1844952D01*
X73486952Y-1368762D02*
X73439333Y-1464000D01*
X73391714Y-1511619D01*
X73296476Y-1559238D01*
X73248857Y-1559238D01*
X73153619Y-1511619D01*
X73106000Y-1464000D01*
X73058381Y-1368762D01*
X73058381Y-1178285D01*
X73106000Y-1083047D01*
X73153619Y-1035428D01*
X73248857Y-987809D01*
X73296476Y-987809D01*
X73391714Y-1035428D01*
X73439333Y-1083047D01*
X73486952Y-1178285D01*
X73486952Y-1368762D01*
X73534571Y-1464000D01*
X73582190Y-1511619D01*
X73677429Y-1559238D01*
X73867905Y-1559238D01*
X73963143Y-1511619D01*
X74010762Y-1464000D01*
X74058381Y-1368762D01*
X74058381Y-1178285D01*
X74010762Y-1083047D01*
X73963143Y-1035428D01*
X73867905Y-987809D01*
X73677429Y-987809D01*
X73582190Y-1035428D01*
X73534571Y-1083047D01*
X73486952Y-1178285D01*
X68216381Y-4416381D02*
X68216381Y-4892572D01*
X67216381Y-4892572D01*
X68311619Y-4321143D02*
X68311619Y-3559238D01*
X67216381Y-3416381D02*
X67216381Y-2797333D01*
X67597333Y-3130667D01*
X67597333Y-2987809D01*
X67644952Y-2892571D01*
X67692571Y-2844952D01*
X67787810Y-2797333D01*
X68025905Y-2797333D01*
X68121143Y-2844952D01*
X68168762Y-2892571D01*
X68216381Y-2987809D01*
X68216381Y-3273524D01*
X68168762Y-3368762D01*
X68121143Y-3416381D01*
X67216381Y-2511619D02*
X68216381Y-2178286D01*
X67216381Y-1844952D01*
X67216381Y-1606857D02*
X67216381Y-987809D01*
X67597333Y-1321143D01*
X67597333Y-1178285D01*
X67644952Y-1083047D01*
X67692571Y-1035428D01*
X67787810Y-987809D01*
X68025905Y-987809D01*
X68121143Y-1035428D01*
X68168762Y-1083047D01*
X68216381Y-1178285D01*
X68216381Y-1464000D01*
X68168762Y-1559238D01*
X68121143Y-1606857D01*
X63214381Y-3334190D02*
X63214381Y-3810381D01*
X62214381Y-3810381D01*
X63309619Y-3238952D02*
X63309619Y-2477047D01*
X62214381Y-1762761D02*
X62214381Y-2238952D01*
X62690571Y-2286571D01*
X62642952Y-2238952D01*
X62595333Y-2143714D01*
X62595333Y-1905618D01*
X62642952Y-1810380D01*
X62690571Y-1762761D01*
X62785810Y-1715142D01*
X63023905Y-1715142D01*
X63119143Y-1762761D01*
X63166762Y-1810380D01*
X63214381Y-1905618D01*
X63214381Y-2143714D01*
X63166762Y-2238952D01*
X63119143Y-2286571D01*
X62214381Y-1429428D02*
X63214381Y-1096095D01*
X62214381Y-762761D01*
X32402381Y-14266666D02*
X32402381Y-14742857D01*
X31402381Y-14742857D01*
X32497619Y-14171428D02*
X32497619Y-13409523D01*
X31450000Y-12647618D02*
X31402381Y-12742856D01*
X31402381Y-12885713D01*
X31450000Y-13028571D01*
X31545238Y-13123809D01*
X31640476Y-13171428D01*
X31830952Y-13219047D01*
X31973810Y-13219047D01*
X32164286Y-13171428D01*
X32259524Y-13123809D01*
X32354762Y-13028571D01*
X32402381Y-12885713D01*
X32402381Y-12790475D01*
X32354762Y-12647618D01*
X32307143Y-12599999D01*
X31973810Y-12599999D01*
X31973810Y-12790475D01*
X32402381Y-12171428D02*
X31402381Y-12171428D01*
X31402381Y-11790475D01*
X31450000Y-11695237D01*
X31497619Y-11647618D01*
X31592857Y-11599999D01*
X31735714Y-11599999D01*
X31830952Y-11647618D01*
X31878571Y-11695237D01*
X31926190Y-11790475D01*
X31926190Y-12171428D01*
X32402381Y-11171428D02*
X31402381Y-11171428D01*
X31402381Y-10504762D02*
X31402381Y-10314285D01*
X31450000Y-10219047D01*
X31545238Y-10123809D01*
X31735714Y-10076190D01*
X32069048Y-10076190D01*
X32259524Y-10123809D01*
X32354762Y-10219047D01*
X32402381Y-10314285D01*
X32402381Y-10504762D01*
X32354762Y-10600000D01*
X32259524Y-10695238D01*
X32069048Y-10742857D01*
X31735714Y-10742857D01*
X31545238Y-10695238D01*
X31450000Y-10600000D01*
X31402381Y-10504762D01*
X32497619Y-9885714D02*
X32497619Y-9123809D01*
X31878571Y-8885714D02*
X31878571Y-8552380D01*
X32402381Y-8409523D02*
X32402381Y-8885714D01*
X31402381Y-8885714D01*
X31402381Y-8409523D01*
X9300095Y-40710381D02*
X9300095Y-41519905D01*
X9347714Y-41615143D01*
X9395333Y-41662762D01*
X9490571Y-41710381D01*
X9681048Y-41710381D01*
X9776286Y-41662762D01*
X9823905Y-41615143D01*
X9871524Y-41519905D01*
X9871524Y-40710381D01*
X10871524Y-41710381D02*
X10300095Y-41710381D01*
X10585809Y-41710381D02*
X10585809Y-40710381D01*
X10490571Y-40853238D01*
X10395333Y-40948476D01*
X10300095Y-40996095D01*
X18347715Y-53415143D02*
X18300096Y-53462762D01*
X18157239Y-53510381D01*
X18062001Y-53510381D01*
X17919143Y-53462762D01*
X17823905Y-53367524D01*
X17776286Y-53272286D01*
X17728667Y-53081810D01*
X17728667Y-52938952D01*
X17776286Y-52748476D01*
X17823905Y-52653238D01*
X17919143Y-52558000D01*
X18062001Y-52510381D01*
X18157239Y-52510381D01*
X18300096Y-52558000D01*
X18347715Y-52605619D01*
X18966762Y-52510381D02*
X19157239Y-52510381D01*
X19252477Y-52558000D01*
X19347715Y-52653238D01*
X19395334Y-52843714D01*
X19395334Y-53177048D01*
X19347715Y-53367524D01*
X19252477Y-53462762D01*
X19157239Y-53510381D01*
X18966762Y-53510381D01*
X18871524Y-53462762D01*
X18776286Y-53367524D01*
X18728667Y-53177048D01*
X18728667Y-52843714D01*
X18776286Y-52653238D01*
X18871524Y-52558000D01*
X18966762Y-52510381D01*
X19823905Y-53510381D02*
X19823905Y-52510381D01*
X20395334Y-53510381D01*
X20395334Y-52510381D01*
X20776286Y-52510381D02*
X21395334Y-52510381D01*
X21062000Y-52891333D01*
X21204858Y-52891333D01*
X21300096Y-52938952D01*
X21347715Y-52986571D01*
X21395334Y-53081810D01*
X21395334Y-53319905D01*
X21347715Y-53415143D01*
X21300096Y-53462762D01*
X21204858Y-53510381D01*
X20919143Y-53510381D01*
X20823905Y-53462762D01*
X20776286Y-53415143D01*
X34014381Y-29396095D02*
X34823905Y-29396095D01*
X34919143Y-29348476D01*
X34966762Y-29300857D01*
X35014381Y-29205619D01*
X35014381Y-29015142D01*
X34966762Y-28919904D01*
X34919143Y-28872285D01*
X34823905Y-28824666D01*
X34014381Y-28824666D01*
X35014381Y-27824666D02*
X35014381Y-28396095D01*
X35014381Y-28110381D02*
X34014381Y-28110381D01*
X34157238Y-28205619D01*
X34252476Y-28300857D01*
X34300095Y-28396095D01*
X34442952Y-27253238D02*
X34395333Y-27348476D01*
X34347714Y-27396095D01*
X34252476Y-27443714D01*
X34204857Y-27443714D01*
X34109619Y-27396095D01*
X34062000Y-27348476D01*
X34014381Y-27253238D01*
X34014381Y-27062761D01*
X34062000Y-26967523D01*
X34109619Y-26919904D01*
X34204857Y-26872285D01*
X34252476Y-26872285D01*
X34347714Y-26919904D01*
X34395333Y-26967523D01*
X34442952Y-27062761D01*
X34442952Y-27253238D01*
X34490571Y-27348476D01*
X34538190Y-27396095D01*
X34633429Y-27443714D01*
X34823905Y-27443714D01*
X34919143Y-27396095D01*
X34966762Y-27348476D01*
X35014381Y-27253238D01*
X35014381Y-27062761D01*
X34966762Y-26967523D01*
X34919143Y-26919904D01*
X34823905Y-26872285D01*
X34633429Y-26872285D01*
X34538190Y-26919904D01*
X34490571Y-26967523D01*
X34442952Y-27062761D01*
X31614381Y-30596095D02*
X32423905Y-30596095D01*
X32519143Y-30548476D01*
X32566762Y-30500857D01*
X32614381Y-30405619D01*
X32614381Y-30215142D01*
X32566762Y-30119904D01*
X32519143Y-30072285D01*
X32423905Y-30024666D01*
X31614381Y-30024666D01*
X32614381Y-29024666D02*
X32614381Y-29596095D01*
X32614381Y-29310381D02*
X31614381Y-29310381D01*
X31757238Y-29405619D01*
X31852476Y-29500857D01*
X31900095Y-29596095D01*
X31614381Y-28691333D02*
X31614381Y-28024666D01*
X32614381Y-28453238D01*
X6723905Y-6610381D02*
X6723905Y-7419905D01*
X6771524Y-7515143D01*
X6819143Y-7562762D01*
X6914381Y-7610381D01*
X7104858Y-7610381D01*
X7200096Y-7562762D01*
X7247715Y-7515143D01*
X7295334Y-7419905D01*
X7295334Y-6610381D01*
X8295334Y-7610381D02*
X7723905Y-7610381D01*
X8009619Y-7610381D02*
X8009619Y-6610381D01*
X7914381Y-6753238D01*
X7819143Y-6848476D01*
X7723905Y-6896095D01*
X9152477Y-6610381D02*
X8962000Y-6610381D01*
X8866762Y-6658000D01*
X8819143Y-6705619D01*
X8723905Y-6848476D01*
X8676286Y-7038952D01*
X8676286Y-7419905D01*
X8723905Y-7515143D01*
X8771524Y-7562762D01*
X8866762Y-7610381D01*
X9057239Y-7610381D01*
X9152477Y-7562762D01*
X9200096Y-7515143D01*
X9247715Y-7419905D01*
X9247715Y-7181810D01*
X9200096Y-7086571D01*
X9152477Y-7038952D01*
X9057239Y-6991333D01*
X8866762Y-6991333D01*
X8771524Y-7038952D01*
X8723905Y-7086571D01*
X8676286Y-7181810D01*
X22514381Y-18796095D02*
X23323905Y-18796095D01*
X23419143Y-18748476D01*
X23466762Y-18700857D01*
X23514381Y-18605619D01*
X23514381Y-18415142D01*
X23466762Y-18319904D01*
X23419143Y-18272285D01*
X23323905Y-18224666D01*
X22514381Y-18224666D01*
X23514381Y-17224666D02*
X23514381Y-17796095D01*
X23514381Y-17510381D02*
X22514381Y-17510381D01*
X22657238Y-17605619D01*
X22752476Y-17700857D01*
X22800095Y-17796095D01*
X22514381Y-16891333D02*
X22514381Y-16272285D01*
X22895333Y-16605619D01*
X22895333Y-16462761D01*
X22942952Y-16367523D01*
X22990571Y-16319904D01*
X23085810Y-16272285D01*
X23323905Y-16272285D01*
X23419143Y-16319904D01*
X23466762Y-16367523D01*
X23514381Y-16462761D01*
X23514381Y-16748476D01*
X23466762Y-16843714D01*
X23419143Y-16891333D01*
X13223905Y-13910381D02*
X13223905Y-14719905D01*
X13271524Y-14815143D01*
X13319143Y-14862762D01*
X13414381Y-14910381D01*
X13604858Y-14910381D01*
X13700096Y-14862762D01*
X13747715Y-14815143D01*
X13795334Y-14719905D01*
X13795334Y-13910381D01*
X14795334Y-14910381D02*
X14223905Y-14910381D01*
X14509619Y-14910381D02*
X14509619Y-13910381D01*
X14414381Y-14053238D01*
X14319143Y-14148476D01*
X14223905Y-14196095D01*
X15176286Y-14005619D02*
X15223905Y-13958000D01*
X15319143Y-13910381D01*
X15557239Y-13910381D01*
X15652477Y-13958000D01*
X15700096Y-14005619D01*
X15747715Y-14100857D01*
X15747715Y-14196095D01*
X15700096Y-14338952D01*
X15128667Y-14910381D01*
X15747715Y-14910381D01*
X52364381Y-21246095D02*
X53173905Y-21246095D01*
X53269143Y-21198476D01*
X53316762Y-21150857D01*
X53364381Y-21055619D01*
X53364381Y-20865142D01*
X53316762Y-20769904D01*
X53269143Y-20722285D01*
X53173905Y-20674666D01*
X52364381Y-20674666D01*
X53364381Y-19674666D02*
X53364381Y-20246095D01*
X53364381Y-19960381D02*
X52364381Y-19960381D01*
X52507238Y-20055619D01*
X52602476Y-20150857D01*
X52650095Y-20246095D01*
X53364381Y-18722285D02*
X53364381Y-19293714D01*
X53364381Y-19008000D02*
X52364381Y-19008000D01*
X52507238Y-19103238D01*
X52602476Y-19198476D01*
X52650095Y-19293714D01*
X40300095Y-23510381D02*
X40300095Y-24319905D01*
X40347714Y-24415143D01*
X40395333Y-24462762D01*
X40490571Y-24510381D01*
X40681048Y-24510381D01*
X40776286Y-24462762D01*
X40823905Y-24415143D01*
X40871524Y-24319905D01*
X40871524Y-23510381D01*
X41395333Y-24510381D02*
X41585809Y-24510381D01*
X41681048Y-24462762D01*
X41728667Y-24415143D01*
X41823905Y-24272286D01*
X41871524Y-24081810D01*
X41871524Y-23700857D01*
X41823905Y-23605619D01*
X41776286Y-23558000D01*
X41681048Y-23510381D01*
X41490571Y-23510381D01*
X41395333Y-23558000D01*
X41347714Y-23605619D01*
X41300095Y-23700857D01*
X41300095Y-23938952D01*
X41347714Y-24034190D01*
X41395333Y-24081810D01*
X41490571Y-24129429D01*
X41681048Y-24129429D01*
X41776286Y-24081810D01*
X41823905Y-24034190D01*
X41871524Y-23938952D01*
X53014381Y-15469905D02*
X53823905Y-15469905D01*
X53919143Y-15422286D01*
X53966762Y-15374667D01*
X54014381Y-15279429D01*
X54014381Y-15088952D01*
X53966762Y-14993714D01*
X53919143Y-14946095D01*
X53823905Y-14898476D01*
X53014381Y-14898476D01*
X53442952Y-14279429D02*
X53395333Y-14374667D01*
X53347714Y-14422286D01*
X53252476Y-14469905D01*
X53204857Y-14469905D01*
X53109619Y-14422286D01*
X53062000Y-14374667D01*
X53014381Y-14279429D01*
X53014381Y-14088952D01*
X53062000Y-13993714D01*
X53109619Y-13946095D01*
X53204857Y-13898476D01*
X53252476Y-13898476D01*
X53347714Y-13946095D01*
X53395333Y-13993714D01*
X53442952Y-14088952D01*
X53442952Y-14279429D01*
X53490571Y-14374667D01*
X53538190Y-14422286D01*
X53633429Y-14469905D01*
X53823905Y-14469905D01*
X53919143Y-14422286D01*
X53966762Y-14374667D01*
X54014381Y-14279429D01*
X54014381Y-14088952D01*
X53966762Y-13993714D01*
X53919143Y-13946095D01*
X53823905Y-13898476D01*
X53633429Y-13898476D01*
X53538190Y-13946095D01*
X53490571Y-13993714D01*
X53442952Y-14088952D01*
X43888095Y-10798381D02*
X43888095Y-11607905D01*
X43935714Y-11703143D01*
X43983333Y-11750762D01*
X44078571Y-11798381D01*
X44269048Y-11798381D01*
X44364286Y-11750762D01*
X44411905Y-11703143D01*
X44459524Y-11607905D01*
X44459524Y-10798381D01*
X44840476Y-10798381D02*
X45507143Y-10798381D01*
X45078571Y-11798381D01*
X76990095Y-37180381D02*
X76990095Y-37989905D01*
X77037714Y-38085143D01*
X77085333Y-38132762D01*
X77180571Y-38180381D01*
X77371048Y-38180381D01*
X77466286Y-38132762D01*
X77513905Y-38085143D01*
X77561524Y-37989905D01*
X77561524Y-37180381D01*
X78466286Y-37180381D02*
X78275809Y-37180381D01*
X78180571Y-37228000D01*
X78132952Y-37275619D01*
X78037714Y-37418476D01*
X77990095Y-37608952D01*
X77990095Y-37989905D01*
X78037714Y-38085143D01*
X78085333Y-38132762D01*
X78180571Y-38180381D01*
X78371048Y-38180381D01*
X78466286Y-38132762D01*
X78513905Y-38085143D01*
X78561524Y-37989905D01*
X78561524Y-37751810D01*
X78513905Y-37656571D01*
X78466286Y-37608952D01*
X78371048Y-37561333D01*
X78180571Y-37561333D01*
X78085333Y-37608952D01*
X78037714Y-37656571D01*
X77990095Y-37751810D01*
X60100095Y-27460381D02*
X60100095Y-28269905D01*
X60147714Y-28365143D01*
X60195333Y-28412762D01*
X60290571Y-28460381D01*
X60481048Y-28460381D01*
X60576286Y-28412762D01*
X60623905Y-28365143D01*
X60671524Y-28269905D01*
X60671524Y-27460381D01*
X61576286Y-27793714D02*
X61576286Y-28460381D01*
X61338190Y-27412762D02*
X61100095Y-28127048D01*
X61719143Y-28127048D01*
X73350095Y-20410381D02*
X73350095Y-21219905D01*
X73397714Y-21315143D01*
X73445333Y-21362762D01*
X73540571Y-21410381D01*
X73731048Y-21410381D01*
X73826286Y-21362762D01*
X73873905Y-21315143D01*
X73921524Y-21219905D01*
X73921524Y-20410381D01*
X74302476Y-20410381D02*
X74921524Y-20410381D01*
X74588190Y-20791333D01*
X74731048Y-20791333D01*
X74826286Y-20838952D01*
X74873905Y-20886571D01*
X74921524Y-20981810D01*
X74921524Y-21219905D01*
X74873905Y-21315143D01*
X74826286Y-21362762D01*
X74731048Y-21410381D01*
X74445333Y-21410381D01*
X74350095Y-21362762D01*
X74302476Y-21315143D01*
X35247715Y-45215143D02*
X35200096Y-45262762D01*
X35057239Y-45310381D01*
X34962001Y-45310381D01*
X34819143Y-45262762D01*
X34723905Y-45167524D01*
X34676286Y-45072286D01*
X34628667Y-44881810D01*
X34628667Y-44738952D01*
X34676286Y-44548476D01*
X34723905Y-44453238D01*
X34819143Y-44358000D01*
X34962001Y-44310381D01*
X35057239Y-44310381D01*
X35200096Y-44358000D01*
X35247715Y-44405619D01*
X35866762Y-44310381D02*
X36057239Y-44310381D01*
X36152477Y-44358000D01*
X36247715Y-44453238D01*
X36295334Y-44643714D01*
X36295334Y-44977048D01*
X36247715Y-45167524D01*
X36152477Y-45262762D01*
X36057239Y-45310381D01*
X35866762Y-45310381D01*
X35771524Y-45262762D01*
X35676286Y-45167524D01*
X35628667Y-44977048D01*
X35628667Y-44643714D01*
X35676286Y-44453238D01*
X35771524Y-44358000D01*
X35866762Y-44310381D01*
X36723905Y-45310381D02*
X36723905Y-44310381D01*
X37295334Y-45310381D01*
X37295334Y-44310381D01*
X38247715Y-44310381D02*
X37771524Y-44310381D01*
X37723905Y-44786571D01*
X37771524Y-44738952D01*
X37866762Y-44691333D01*
X38104858Y-44691333D01*
X38200096Y-44738952D01*
X38247715Y-44786571D01*
X38295334Y-44881810D01*
X38295334Y-45119905D01*
X38247715Y-45215143D01*
X38200096Y-45262762D01*
X38104858Y-45310381D01*
X37866762Y-45310381D01*
X37771524Y-45262762D01*
X37723905Y-45215143D01*
X61147715Y-45215143D02*
X61100096Y-45262762D01*
X60957239Y-45310381D01*
X60862001Y-45310381D01*
X60719143Y-45262762D01*
X60623905Y-45167524D01*
X60576286Y-45072286D01*
X60528667Y-44881810D01*
X60528667Y-44738952D01*
X60576286Y-44548476D01*
X60623905Y-44453238D01*
X60719143Y-44358000D01*
X60862001Y-44310381D01*
X60957239Y-44310381D01*
X61100096Y-44358000D01*
X61147715Y-44405619D01*
X61766762Y-44310381D02*
X61957239Y-44310381D01*
X62052477Y-44358000D01*
X62147715Y-44453238D01*
X62195334Y-44643714D01*
X62195334Y-44977048D01*
X62147715Y-45167524D01*
X62052477Y-45262762D01*
X61957239Y-45310381D01*
X61766762Y-45310381D01*
X61671524Y-45262762D01*
X61576286Y-45167524D01*
X61528667Y-44977048D01*
X61528667Y-44643714D01*
X61576286Y-44453238D01*
X61671524Y-44358000D01*
X61766762Y-44310381D01*
X62623905Y-45310381D02*
X62623905Y-44310381D01*
X63195334Y-45310381D01*
X63195334Y-44310381D01*
X64100096Y-44643714D02*
X64100096Y-45310381D01*
X63862000Y-44262762D02*
X63623905Y-44977048D01*
X64242953Y-44977048D01*
X8719143Y-5472285D02*
X8766762Y-5519904D01*
X8814381Y-5662761D01*
X8814381Y-5757999D01*
X8766762Y-5900857D01*
X8671524Y-5996095D01*
X8576286Y-6043714D01*
X8385810Y-6091333D01*
X8242952Y-6091333D01*
X8052476Y-6043714D01*
X7957238Y-5996095D01*
X7862000Y-5900857D01*
X7814381Y-5757999D01*
X7814381Y-5662761D01*
X7862000Y-5519904D01*
X7909619Y-5472285D01*
X7814381Y-4853238D02*
X7814381Y-4662761D01*
X7862000Y-4567523D01*
X7957238Y-4472285D01*
X8147714Y-4424666D01*
X8481048Y-4424666D01*
X8671524Y-4472285D01*
X8766762Y-4567523D01*
X8814381Y-4662761D01*
X8814381Y-4853238D01*
X8766762Y-4948476D01*
X8671524Y-5043714D01*
X8481048Y-5091333D01*
X8147714Y-5091333D01*
X7957238Y-5043714D01*
X7862000Y-4948476D01*
X7814381Y-4853238D01*
X8814381Y-3996095D02*
X7814381Y-3996095D01*
X8814381Y-3424666D01*
X7814381Y-3424666D01*
X7909619Y-2996095D02*
X7862000Y-2948476D01*
X7814381Y-2853238D01*
X7814381Y-2615142D01*
X7862000Y-2519904D01*
X7909619Y-2472285D01*
X8004857Y-2424666D01*
X8100095Y-2424666D01*
X8242952Y-2472285D01*
X8814381Y-3043714D01*
X8814381Y-2424666D01*
X73250095Y-12910381D02*
X73250095Y-13719905D01*
X73297714Y-13815143D01*
X73345333Y-13862762D01*
X73440571Y-13910381D01*
X73631048Y-13910381D01*
X73726286Y-13862762D01*
X73773905Y-13815143D01*
X73821524Y-13719905D01*
X73821524Y-12910381D01*
X74250095Y-13005619D02*
X74297714Y-12958000D01*
X74392952Y-12910381D01*
X74631048Y-12910381D01*
X74726286Y-12958000D01*
X74773905Y-13005619D01*
X74821524Y-13100857D01*
X74821524Y-13196095D01*
X74773905Y-13338952D01*
X74202476Y-13910381D01*
X74821524Y-13910381D01*
X14828667Y-33762762D02*
X14971524Y-33810381D01*
X15209620Y-33810381D01*
X15304858Y-33762762D01*
X15352477Y-33715143D01*
X15400096Y-33619905D01*
X15400096Y-33524667D01*
X15352477Y-33429429D01*
X15304858Y-33381810D01*
X15209620Y-33334190D01*
X15019143Y-33286571D01*
X14923905Y-33238952D01*
X14876286Y-33191333D01*
X14828667Y-33096095D01*
X14828667Y-33000857D01*
X14876286Y-32905619D01*
X14923905Y-32858000D01*
X15019143Y-32810381D01*
X15257239Y-32810381D01*
X15400096Y-32858000D01*
X15733429Y-32810381D02*
X15971524Y-33810381D01*
X16162001Y-33096095D01*
X16352477Y-33810381D01*
X16590572Y-32810381D01*
X17495334Y-33810381D02*
X16923905Y-33810381D01*
X17209619Y-33810381D02*
X17209619Y-32810381D01*
X17114381Y-32953238D01*
X17019143Y-33048476D01*
X16923905Y-33096095D01*
X10919143Y-18410381D02*
X10585809Y-17934190D01*
X10347714Y-18410381D02*
X10347714Y-17410381D01*
X10728667Y-17410381D01*
X10823905Y-17458000D01*
X10871524Y-17505619D01*
X10919143Y-17600857D01*
X10919143Y-17743714D01*
X10871524Y-17838952D01*
X10823905Y-17886571D01*
X10728667Y-17934190D01*
X10347714Y-17934190D01*
X11252476Y-17410381D02*
X11871524Y-17410381D01*
X11538190Y-17791333D01*
X11681048Y-17791333D01*
X11776286Y-17838952D01*
X11823905Y-17886571D01*
X11871524Y-17981810D01*
X11871524Y-18219905D01*
X11823905Y-18315143D01*
X11776286Y-18362762D01*
X11681048Y-18410381D01*
X11395333Y-18410381D01*
X11300095Y-18362762D01*
X11252476Y-18315143D01*
X12252476Y-17505619D02*
X12300095Y-17458000D01*
X12395333Y-17410381D01*
X12633429Y-17410381D01*
X12728667Y-17458000D01*
X12776286Y-17505619D01*
X12823905Y-17600857D01*
X12823905Y-17696095D01*
X12776286Y-17838952D01*
X12204857Y-18410381D01*
X12823905Y-18410381D01*
X26520781Y-8604057D02*
X26044590Y-8937391D01*
X26520781Y-9175486D02*
X25520781Y-9175486D01*
X25520781Y-8794533D01*
X25568400Y-8699295D01*
X25616019Y-8651676D01*
X25711257Y-8604057D01*
X25854114Y-8604057D01*
X25949352Y-8651676D01*
X25996971Y-8699295D01*
X26044590Y-8794533D01*
X26044590Y-9175486D01*
X25520781Y-8270724D02*
X25520781Y-7651676D01*
X25901733Y-7985010D01*
X25901733Y-7842152D01*
X25949352Y-7746914D01*
X25996971Y-7699295D01*
X26092210Y-7651676D01*
X26330305Y-7651676D01*
X26425543Y-7699295D01*
X26473162Y-7746914D01*
X26520781Y-7842152D01*
X26520781Y-8127867D01*
X26473162Y-8223105D01*
X26425543Y-8270724D01*
X25520781Y-7032629D02*
X25520781Y-6937390D01*
X25568400Y-6842152D01*
X25616019Y-6794533D01*
X25711257Y-6746914D01*
X25901733Y-6699295D01*
X26139829Y-6699295D01*
X26330305Y-6746914D01*
X26425543Y-6794533D01*
X26473162Y-6842152D01*
X26520781Y-6937390D01*
X26520781Y-7032629D01*
X26473162Y-7127867D01*
X26425543Y-7175486D01*
X26330305Y-7223105D01*
X26139829Y-7270724D01*
X25901733Y-7270724D01*
X25711257Y-7223105D01*
X25616019Y-7175486D01*
X25568400Y-7127867D01*
X25520781Y-7032629D01*
X28119143Y-51610381D02*
X27785809Y-51134190D01*
X27547714Y-51610381D02*
X27547714Y-50610381D01*
X27928667Y-50610381D01*
X28023905Y-50658000D01*
X28071524Y-50705619D01*
X28119143Y-50800857D01*
X28119143Y-50943714D01*
X28071524Y-51038952D01*
X28023905Y-51086571D01*
X27928667Y-51134190D01*
X27547714Y-51134190D01*
X29071524Y-51610381D02*
X28500095Y-51610381D01*
X28785809Y-51610381D02*
X28785809Y-50610381D01*
X28690571Y-50753238D01*
X28595333Y-50848476D01*
X28500095Y-50896095D01*
X29404857Y-50610381D02*
X30071524Y-50610381D01*
X29642952Y-51610381D01*
X28119143Y-48210381D02*
X27785809Y-47734190D01*
X27547714Y-48210381D02*
X27547714Y-47210381D01*
X27928667Y-47210381D01*
X28023905Y-47258000D01*
X28071524Y-47305619D01*
X28119143Y-47400857D01*
X28119143Y-47543714D01*
X28071524Y-47638952D01*
X28023905Y-47686571D01*
X27928667Y-47734190D01*
X27547714Y-47734190D01*
X29071524Y-48210381D02*
X28500095Y-48210381D01*
X28785809Y-48210381D02*
X28785809Y-47210381D01*
X28690571Y-47353238D01*
X28595333Y-47448476D01*
X28500095Y-47496095D01*
X29928667Y-47210381D02*
X29738190Y-47210381D01*
X29642952Y-47258000D01*
X29595333Y-47305619D01*
X29500095Y-47448476D01*
X29452476Y-47638952D01*
X29452476Y-48019905D01*
X29500095Y-48115143D01*
X29547714Y-48162762D01*
X29642952Y-48210381D01*
X29833429Y-48210381D01*
X29928667Y-48162762D01*
X29976286Y-48115143D01*
X30023905Y-48019905D01*
X30023905Y-47781810D01*
X29976286Y-47686571D01*
X29928667Y-47638952D01*
X29833429Y-47591333D01*
X29642952Y-47591333D01*
X29547714Y-47638952D01*
X29500095Y-47686571D01*
X29452476Y-47781810D01*
X47977981Y-41457657D02*
X47501790Y-41790991D01*
X47977981Y-42029086D02*
X46977981Y-42029086D01*
X46977981Y-41648133D01*
X47025600Y-41552895D01*
X47073219Y-41505276D01*
X47168457Y-41457657D01*
X47311314Y-41457657D01*
X47406552Y-41505276D01*
X47454171Y-41552895D01*
X47501790Y-41648133D01*
X47501790Y-42029086D01*
X47977981Y-40505276D02*
X47977981Y-41076705D01*
X47977981Y-40790991D02*
X46977981Y-40790991D01*
X47120838Y-40886229D01*
X47216076Y-40981467D01*
X47263695Y-41076705D01*
X46977981Y-39886229D02*
X46977981Y-39790990D01*
X47025600Y-39695752D01*
X47073219Y-39648133D01*
X47168457Y-39600514D01*
X47358933Y-39552895D01*
X47597029Y-39552895D01*
X47787505Y-39600514D01*
X47882743Y-39648133D01*
X47930362Y-39695752D01*
X47977981Y-39790990D01*
X47977981Y-39886229D01*
X47930362Y-39981467D01*
X47882743Y-40029086D01*
X47787505Y-40076705D01*
X47597029Y-40124324D01*
X47358933Y-40124324D01*
X47168457Y-40076705D01*
X47073219Y-40029086D01*
X47025600Y-39981467D01*
X46977981Y-39886229D01*
X45927981Y-42091466D02*
X45451790Y-42424800D01*
X45927981Y-42662895D02*
X44927981Y-42662895D01*
X44927981Y-42281942D01*
X44975600Y-42186704D01*
X45023219Y-42139085D01*
X45118457Y-42091466D01*
X45261314Y-42091466D01*
X45356552Y-42139085D01*
X45404171Y-42186704D01*
X45451790Y-42281942D01*
X45451790Y-42662895D01*
X45927981Y-41615276D02*
X45927981Y-41424800D01*
X45880362Y-41329561D01*
X45832743Y-41281942D01*
X45689886Y-41186704D01*
X45499410Y-41139085D01*
X45118457Y-41139085D01*
X45023219Y-41186704D01*
X44975600Y-41234323D01*
X44927981Y-41329561D01*
X44927981Y-41520038D01*
X44975600Y-41615276D01*
X45023219Y-41662895D01*
X45118457Y-41710514D01*
X45356552Y-41710514D01*
X45451790Y-41662895D01*
X45499410Y-41615276D01*
X45547029Y-41520038D01*
X45547029Y-41329561D01*
X45499410Y-41234323D01*
X45451790Y-41186704D01*
X45356552Y-41139085D01*
X35704381Y-8718666D02*
X35228190Y-9052000D01*
X35704381Y-9290095D02*
X34704381Y-9290095D01*
X34704381Y-8909142D01*
X34752000Y-8813904D01*
X34799619Y-8766285D01*
X34894857Y-8718666D01*
X35037714Y-8718666D01*
X35132952Y-8766285D01*
X35180571Y-8813904D01*
X35228190Y-8909142D01*
X35228190Y-9290095D01*
X34704381Y-8385333D02*
X34704381Y-7766285D01*
X35085333Y-8099619D01*
X35085333Y-7956761D01*
X35132952Y-7861523D01*
X35180571Y-7813904D01*
X35275810Y-7766285D01*
X35513905Y-7766285D01*
X35609143Y-7813904D01*
X35656762Y-7861523D01*
X35704381Y-7956761D01*
X35704381Y-8242476D01*
X35656762Y-8337714D01*
X35609143Y-8385333D01*
X37666762Y-14205619D02*
X37571524Y-14158000D01*
X37476286Y-14062762D01*
X37333429Y-13919905D01*
X37238190Y-13872286D01*
X37142952Y-13872286D01*
X37190571Y-14110381D02*
X37095333Y-14062762D01*
X37000095Y-13967524D01*
X36952476Y-13777048D01*
X36952476Y-13443714D01*
X37000095Y-13253238D01*
X37095333Y-13158000D01*
X37190571Y-13110381D01*
X37381048Y-13110381D01*
X37476286Y-13158000D01*
X37571524Y-13253238D01*
X37619143Y-13443714D01*
X37619143Y-13777048D01*
X37571524Y-13967524D01*
X37476286Y-14062762D01*
X37381048Y-14110381D01*
X37190571Y-14110381D01*
X38571524Y-14110381D02*
X38000095Y-14110381D01*
X38285809Y-14110381D02*
X38285809Y-13110381D01*
X38190571Y-13253238D01*
X38095333Y-13348476D01*
X38000095Y-13396095D01*
X22195333Y-35160381D02*
X22195333Y-34160381D01*
X22576286Y-34160381D01*
X22671524Y-34208000D01*
X22719143Y-34255619D01*
X22766762Y-34350857D01*
X22766762Y-34493714D01*
X22719143Y-34588952D01*
X22671524Y-34636571D01*
X22576286Y-34684190D01*
X22195333Y-34684190D01*
X23147714Y-34874667D02*
X23623905Y-34874667D01*
X23052476Y-35160381D02*
X23385809Y-34160381D01*
X23719143Y-35160381D01*
X24052476Y-35160381D02*
X24052476Y-34160381D01*
X24290571Y-34160381D01*
X24433429Y-34208000D01*
X24528667Y-34303238D01*
X24576286Y-34398476D01*
X24623905Y-34588952D01*
X24623905Y-34731810D01*
X24576286Y-34922286D01*
X24528667Y-35017524D01*
X24433429Y-35112762D01*
X24290571Y-35160381D01*
X24052476Y-35160381D01*
X25576286Y-35160381D02*
X25004857Y-35160381D01*
X25290571Y-35160381D02*
X25290571Y-34160381D01*
X25195333Y-34303238D01*
X25100095Y-34398476D01*
X25004857Y-34446095D01*
X5942953Y-20715143D02*
X5895334Y-20762762D01*
X5752477Y-20810381D01*
X5657239Y-20810381D01*
X5514381Y-20762762D01*
X5419143Y-20667524D01*
X5371524Y-20572286D01*
X5323905Y-20381810D01*
X5323905Y-20238952D01*
X5371524Y-20048476D01*
X5419143Y-19953238D01*
X5514381Y-19858000D01*
X5657239Y-19810381D01*
X5752477Y-19810381D01*
X5895334Y-19858000D01*
X5942953Y-19905619D01*
X6371524Y-20286571D02*
X6704858Y-20286571D01*
X6847715Y-20810381D02*
X6371524Y-20810381D01*
X6371524Y-19810381D01*
X6847715Y-19810381D01*
X7419143Y-20238952D02*
X7323905Y-20191333D01*
X7276286Y-20143714D01*
X7228667Y-20048476D01*
X7228667Y-20000857D01*
X7276286Y-19905619D01*
X7323905Y-19858000D01*
X7419143Y-19810381D01*
X7609620Y-19810381D01*
X7704858Y-19858000D01*
X7752477Y-19905619D01*
X7800096Y-20000857D01*
X7800096Y-20048476D01*
X7752477Y-20143714D01*
X7704858Y-20191333D01*
X7609620Y-20238952D01*
X7419143Y-20238952D01*
X7323905Y-20286571D01*
X7276286Y-20334190D01*
X7228667Y-20429429D01*
X7228667Y-20619905D01*
X7276286Y-20715143D01*
X7323905Y-20762762D01*
X7419143Y-20810381D01*
X7609620Y-20810381D01*
X7704858Y-20762762D01*
X7752477Y-20715143D01*
X7800096Y-20619905D01*
X7800096Y-20429429D01*
X7752477Y-20334190D01*
X7704858Y-20286571D01*
X7609620Y-20238952D01*
X7493429Y-19165352D02*
X7493429Y-18403447D01*
X7874381Y-18784399D02*
X7112476Y-18784399D01*
X80352953Y-32785143D02*
X80305334Y-32832762D01*
X80162477Y-32880381D01*
X80067239Y-32880381D01*
X79924381Y-32832762D01*
X79829143Y-32737524D01*
X79781524Y-32642286D01*
X79733905Y-32451810D01*
X79733905Y-32308952D01*
X79781524Y-32118476D01*
X79829143Y-32023238D01*
X79924381Y-31928000D01*
X80067239Y-31880381D01*
X80162477Y-31880381D01*
X80305334Y-31928000D01*
X80352953Y-31975619D01*
X80781524Y-32356571D02*
X81114858Y-32356571D01*
X81257715Y-32880381D02*
X80781524Y-32880381D01*
X80781524Y-31880381D01*
X81257715Y-31880381D01*
X81591048Y-31880381D02*
X82257715Y-31880381D01*
X81829143Y-32880381D01*
X81881048Y-22279429D02*
X82642953Y-22279429D01*
X82262001Y-22660381D02*
X82262001Y-21898476D01*
X72986953Y-32785143D02*
X72939334Y-32832762D01*
X72796477Y-32880381D01*
X72701239Y-32880381D01*
X72558381Y-32832762D01*
X72463143Y-32737524D01*
X72415524Y-32642286D01*
X72367905Y-32451810D01*
X72367905Y-32308952D01*
X72415524Y-32118476D01*
X72463143Y-32023238D01*
X72558381Y-31928000D01*
X72701239Y-31880381D01*
X72796477Y-31880381D01*
X72939334Y-31928000D01*
X72986953Y-31975619D01*
X73415524Y-32356571D02*
X73748858Y-32356571D01*
X73891715Y-32880381D02*
X73415524Y-32880381D01*
X73415524Y-31880381D01*
X73891715Y-31880381D01*
X74748858Y-31880381D02*
X74558381Y-31880381D01*
X74463143Y-31928000D01*
X74415524Y-31975619D01*
X74320286Y-32118476D01*
X74272667Y-32308952D01*
X74272667Y-32689905D01*
X74320286Y-32785143D01*
X74367905Y-32832762D01*
X74463143Y-32880381D01*
X74653620Y-32880381D01*
X74748858Y-32832762D01*
X74796477Y-32785143D01*
X74844096Y-32689905D01*
X74844096Y-32451810D01*
X74796477Y-32356571D01*
X74748858Y-32308952D01*
X74653620Y-32261333D01*
X74463143Y-32261333D01*
X74367905Y-32308952D01*
X74320286Y-32356571D01*
X74272667Y-32451810D01*
X74381048Y-22279429D02*
X75142953Y-22279429D01*
X74762001Y-22660381D02*
X74762001Y-21898476D01*
X82638953Y-21609143D02*
X82591334Y-21656762D01*
X82448477Y-21704381D01*
X82353239Y-21704381D01*
X82210381Y-21656762D01*
X82115143Y-21561524D01*
X82067524Y-21466286D01*
X82019905Y-21275810D01*
X82019905Y-21132952D01*
X82067524Y-20942476D01*
X82115143Y-20847238D01*
X82210381Y-20752000D01*
X82353239Y-20704381D01*
X82448477Y-20704381D01*
X82591334Y-20752000D01*
X82638953Y-20799619D01*
X83067524Y-21180571D02*
X83400858Y-21180571D01*
X83543715Y-21704381D02*
X83067524Y-21704381D01*
X83067524Y-20704381D01*
X83543715Y-20704381D01*
X84448477Y-20704381D02*
X83972286Y-20704381D01*
X83924667Y-21180571D01*
X83972286Y-21132952D01*
X84067524Y-21085333D01*
X84305620Y-21085333D01*
X84400858Y-21132952D01*
X84448477Y-21180571D01*
X84496096Y-21275810D01*
X84496096Y-21513905D01*
X84448477Y-21609143D01*
X84400858Y-21656762D01*
X84305620Y-21704381D01*
X84067524Y-21704381D01*
X83972286Y-21656762D01*
X83924667Y-21609143D01*
X78854648Y-20889429D02*
X79616553Y-20889429D01*
X79235601Y-21270381D02*
X79235601Y-20508476D01*
X82192953Y-14315143D02*
X82145334Y-14362762D01*
X82002477Y-14410381D01*
X81907239Y-14410381D01*
X81764381Y-14362762D01*
X81669143Y-14267524D01*
X81621524Y-14172286D01*
X81573905Y-13981810D01*
X81573905Y-13838952D01*
X81621524Y-13648476D01*
X81669143Y-13553238D01*
X81764381Y-13458000D01*
X81907239Y-13410381D01*
X82002477Y-13410381D01*
X82145334Y-13458000D01*
X82192953Y-13505619D01*
X82621524Y-13886571D02*
X82954858Y-13886571D01*
X83097715Y-14410381D02*
X82621524Y-14410381D01*
X82621524Y-13410381D01*
X83097715Y-13410381D01*
X83954858Y-13743714D02*
X83954858Y-14410381D01*
X83716762Y-13362762D02*
X83478667Y-14077048D01*
X84097715Y-14077048D01*
X78654648Y-13389429D02*
X79416553Y-13389429D01*
X79035601Y-13770381D02*
X79035601Y-13008476D01*
X68592953Y-14315143D02*
X68545334Y-14362762D01*
X68402477Y-14410381D01*
X68307239Y-14410381D01*
X68164381Y-14362762D01*
X68069143Y-14267524D01*
X68021524Y-14172286D01*
X67973905Y-13981810D01*
X67973905Y-13838952D01*
X68021524Y-13648476D01*
X68069143Y-13553238D01*
X68164381Y-13458000D01*
X68307239Y-13410381D01*
X68402477Y-13410381D01*
X68545334Y-13458000D01*
X68592953Y-13505619D01*
X69021524Y-13886571D02*
X69354858Y-13886571D01*
X69497715Y-14410381D02*
X69021524Y-14410381D01*
X69021524Y-13410381D01*
X69497715Y-13410381D01*
X69831048Y-13410381D02*
X70450096Y-13410381D01*
X70116762Y-13791333D01*
X70259620Y-13791333D01*
X70354858Y-13838952D01*
X70402477Y-13886571D01*
X70450096Y-13981810D01*
X70450096Y-14219905D01*
X70402477Y-14315143D01*
X70354858Y-14362762D01*
X70259620Y-14410381D01*
X69973905Y-14410381D01*
X69878667Y-14362762D01*
X69831048Y-14315143D01*
X65054648Y-13389429D02*
X65816553Y-13389429D01*
X65435601Y-13770381D02*
X65435601Y-13008476D01*
X66636953Y-22371143D02*
X66589334Y-22418762D01*
X66446477Y-22466381D01*
X66351239Y-22466381D01*
X66208381Y-22418762D01*
X66113143Y-22323524D01*
X66065524Y-22228286D01*
X66017905Y-22037810D01*
X66017905Y-21894952D01*
X66065524Y-21704476D01*
X66113143Y-21609238D01*
X66208381Y-21514000D01*
X66351239Y-21466381D01*
X66446477Y-21466381D01*
X66589334Y-21514000D01*
X66636953Y-21561619D01*
X67065524Y-21942571D02*
X67398858Y-21942571D01*
X67541715Y-22466381D02*
X67065524Y-22466381D01*
X67065524Y-21466381D01*
X67541715Y-21466381D01*
X67922667Y-21561619D02*
X67970286Y-21514000D01*
X68065524Y-21466381D01*
X68303620Y-21466381D01*
X68398858Y-21514000D01*
X68446477Y-21561619D01*
X68494096Y-21656857D01*
X68494096Y-21752095D01*
X68446477Y-21894952D01*
X67875048Y-22466381D01*
X68494096Y-22466381D01*
X65054648Y-20789429D02*
X65816553Y-20789429D01*
X65435601Y-21170381D02*
X65435601Y-20408476D01*
X5642953Y-47115143D02*
X5595334Y-47162762D01*
X5452477Y-47210381D01*
X5357239Y-47210381D01*
X5214381Y-47162762D01*
X5119143Y-47067524D01*
X5071524Y-46972286D01*
X5023905Y-46781810D01*
X5023905Y-46638952D01*
X5071524Y-46448476D01*
X5119143Y-46353238D01*
X5214381Y-46258000D01*
X5357239Y-46210381D01*
X5452477Y-46210381D01*
X5595334Y-46258000D01*
X5642953Y-46305619D01*
X6071524Y-46686571D02*
X6404858Y-46686571D01*
X6547715Y-47210381D02*
X6071524Y-47210381D01*
X6071524Y-46210381D01*
X6547715Y-46210381D01*
X7500096Y-47210381D02*
X6928667Y-47210381D01*
X7214381Y-47210381D02*
X7214381Y-46210381D01*
X7119143Y-46353238D01*
X7023905Y-46448476D01*
X6928667Y-46496095D01*
X7807448Y-47569429D02*
X8569353Y-47569429D01*
X8188401Y-47950381D02*
X8188401Y-47188476D01*
X1419143Y-22315143D02*
X1371524Y-22362762D01*
X1228667Y-22410381D01*
X1133429Y-22410381D01*
X990571Y-22362762D01*
X895333Y-22267524D01*
X847714Y-22172286D01*
X800095Y-21981810D01*
X800095Y-21838952D01*
X847714Y-21648476D01*
X895333Y-21553238D01*
X990571Y-21458000D01*
X1133429Y-21410381D01*
X1228667Y-21410381D01*
X1371524Y-21458000D01*
X1419143Y-21505619D01*
X2181048Y-21886571D02*
X2323905Y-21934190D01*
X2371524Y-21981810D01*
X2419143Y-22077048D01*
X2419143Y-22219905D01*
X2371524Y-22315143D01*
X2323905Y-22362762D01*
X2228667Y-22410381D01*
X1847714Y-22410381D01*
X1847714Y-21410381D01*
X2181048Y-21410381D01*
X2276286Y-21458000D01*
X2323905Y-21505619D01*
X2371524Y-21600857D01*
X2371524Y-21696095D01*
X2323905Y-21791333D01*
X2276286Y-21838952D01*
X2181048Y-21886571D01*
X1847714Y-21886571D01*
X2800095Y-21505619D02*
X2847714Y-21458000D01*
X2942952Y-21410381D01*
X3181048Y-21410381D01*
X3276286Y-21458000D01*
X3323905Y-21505619D01*
X3371524Y-21600857D01*
X3371524Y-21696095D01*
X3323905Y-21838952D01*
X2752476Y-22410381D01*
X3371524Y-22410381D01*
X3942952Y-21838952D02*
X3847714Y-21791333D01*
X3800095Y-21743714D01*
X3752476Y-21648476D01*
X3752476Y-21600857D01*
X3800095Y-21505619D01*
X3847714Y-21458000D01*
X3942952Y-21410381D01*
X4133429Y-21410381D01*
X4228667Y-21458000D01*
X4276286Y-21505619D01*
X4323905Y-21600857D01*
X4323905Y-21648476D01*
X4276286Y-21743714D01*
X4228667Y-21791333D01*
X4133429Y-21838952D01*
X3942952Y-21838952D01*
X3847714Y-21886571D01*
X3800095Y-21934190D01*
X3752476Y-22029429D01*
X3752476Y-22219905D01*
X3800095Y-22315143D01*
X3847714Y-22362762D01*
X3942952Y-22410381D01*
X4133429Y-22410381D01*
X4228667Y-22362762D01*
X4276286Y-22315143D01*
X4323905Y-22219905D01*
X4323905Y-22029429D01*
X4276286Y-21934190D01*
X4228667Y-21886571D01*
X4133429Y-21838952D01*
X55245334Y-41925143D02*
X55197715Y-41972762D01*
X55054858Y-42020381D01*
X54959620Y-42020381D01*
X54816762Y-41972762D01*
X54721524Y-41877524D01*
X54673905Y-41782286D01*
X54626286Y-41591810D01*
X54626286Y-41448952D01*
X54673905Y-41258476D01*
X54721524Y-41163238D01*
X54816762Y-41068000D01*
X54959620Y-41020381D01*
X55054858Y-41020381D01*
X55197715Y-41068000D01*
X55245334Y-41115619D01*
X56007239Y-41496571D02*
X56150096Y-41544190D01*
X56197715Y-41591810D01*
X56245334Y-41687048D01*
X56245334Y-41829905D01*
X56197715Y-41925143D01*
X56150096Y-41972762D01*
X56054858Y-42020381D01*
X55673905Y-42020381D01*
X55673905Y-41020381D01*
X56007239Y-41020381D01*
X56102477Y-41068000D01*
X56150096Y-41115619D01*
X56197715Y-41210857D01*
X56197715Y-41306095D01*
X56150096Y-41401333D01*
X56102477Y-41448952D01*
X56007239Y-41496571D01*
X55673905Y-41496571D01*
X56578667Y-41020381D02*
X57245334Y-41020381D01*
X56816762Y-42020381D01*
X2195334Y-45715143D02*
X2147715Y-45762762D01*
X2004858Y-45810381D01*
X1909620Y-45810381D01*
X1766762Y-45762762D01*
X1671524Y-45667524D01*
X1623905Y-45572286D01*
X1576286Y-45381810D01*
X1576286Y-45238952D01*
X1623905Y-45048476D01*
X1671524Y-44953238D01*
X1766762Y-44858000D01*
X1909620Y-44810381D01*
X2004858Y-44810381D01*
X2147715Y-44858000D01*
X2195334Y-44905619D01*
X2957239Y-45286571D02*
X3100096Y-45334190D01*
X3147715Y-45381810D01*
X3195334Y-45477048D01*
X3195334Y-45619905D01*
X3147715Y-45715143D01*
X3100096Y-45762762D01*
X3004858Y-45810381D01*
X2623905Y-45810381D01*
X2623905Y-44810381D01*
X2957239Y-44810381D01*
X3052477Y-44858000D01*
X3100096Y-44905619D01*
X3147715Y-45000857D01*
X3147715Y-45096095D01*
X3100096Y-45191333D01*
X3052477Y-45238952D01*
X2957239Y-45286571D01*
X2623905Y-45286571D01*
X4147715Y-45810381D02*
X3576286Y-45810381D01*
X3862000Y-45810381D02*
X3862000Y-44810381D01*
X3766762Y-44953238D01*
X3671524Y-45048476D01*
X3576286Y-45096095D01*
X11095334Y-33815143D02*
X11047715Y-33862762D01*
X10904858Y-33910381D01*
X10809620Y-33910381D01*
X10666762Y-33862762D01*
X10571524Y-33767524D01*
X10523905Y-33672286D01*
X10476286Y-33481810D01*
X10476286Y-33338952D01*
X10523905Y-33148476D01*
X10571524Y-33053238D01*
X10666762Y-32958000D01*
X10809620Y-32910381D01*
X10904858Y-32910381D01*
X11047715Y-32958000D01*
X11095334Y-33005619D01*
X12047715Y-33910381D02*
X11476286Y-33910381D01*
X11762000Y-33910381D02*
X11762000Y-32910381D01*
X11666762Y-33053238D01*
X11571524Y-33148476D01*
X11476286Y-33196095D01*
X10983429Y-20788952D02*
X10983429Y-20027047D01*
X11364381Y-20407999D02*
X10602476Y-20407999D01*
X1335143Y-41008381D02*
X1001809Y-40532190D01*
X763714Y-41008381D02*
X763714Y-40008381D01*
X1144667Y-40008381D01*
X1239905Y-40056000D01*
X1287524Y-40103619D01*
X1335143Y-40198857D01*
X1335143Y-40341714D01*
X1287524Y-40436952D01*
X1239905Y-40484571D01*
X1144667Y-40532190D01*
X763714Y-40532190D01*
X2287524Y-41008381D02*
X1716095Y-41008381D01*
X2001809Y-41008381D02*
X2001809Y-40008381D01*
X1906571Y-40151238D01*
X1811333Y-40246476D01*
X1716095Y-40294095D01*
X2668476Y-40103619D02*
X2716095Y-40056000D01*
X2811333Y-40008381D01*
X3049429Y-40008381D01*
X3144667Y-40056000D01*
X3192286Y-40103619D01*
X3239905Y-40198857D01*
X3239905Y-40294095D01*
X3192286Y-40436952D01*
X2620857Y-41008381D01*
X3239905Y-41008381D01*
X16819143Y-41010381D02*
X16485809Y-40534190D01*
X16247714Y-41010381D02*
X16247714Y-40010381D01*
X16628667Y-40010381D01*
X16723905Y-40058000D01*
X16771524Y-40105619D01*
X16819143Y-40200857D01*
X16819143Y-40343714D01*
X16771524Y-40438952D01*
X16723905Y-40486571D01*
X16628667Y-40534190D01*
X16247714Y-40534190D01*
X17771524Y-41010381D02*
X17200095Y-41010381D01*
X17485809Y-41010381D02*
X17485809Y-40010381D01*
X17390571Y-40153238D01*
X17295333Y-40248476D01*
X17200095Y-40296095D01*
X18628667Y-40343714D02*
X18628667Y-41010381D01*
X18390571Y-39962762D02*
X18152476Y-40677048D01*
X18771524Y-40677048D01*
X7523905Y-15810381D02*
X7523905Y-14810381D01*
X7762000Y-14810381D01*
X7904858Y-14858000D01*
X8000096Y-14953238D01*
X8047715Y-15048476D01*
X8095334Y-15238952D01*
X8095334Y-15381810D01*
X8047715Y-15572286D01*
X8000096Y-15667524D01*
X7904858Y-15762762D01*
X7762000Y-15810381D01*
X7523905Y-15810381D01*
X9047715Y-15810381D02*
X8476286Y-15810381D01*
X8762000Y-15810381D02*
X8762000Y-14810381D01*
X8666762Y-14953238D01*
X8571524Y-15048476D01*
X8476286Y-15096095D01*
X25464381Y-12396095D02*
X26273905Y-12396095D01*
X26369143Y-12348476D01*
X26416762Y-12300857D01*
X26464381Y-12205619D01*
X26464381Y-12015142D01*
X26416762Y-11919904D01*
X26369143Y-11872285D01*
X26273905Y-11824666D01*
X25464381Y-11824666D01*
X26464381Y-10824666D02*
X26464381Y-11396095D01*
X26464381Y-11110381D02*
X25464381Y-11110381D01*
X25607238Y-11205619D01*
X25702476Y-11300857D01*
X25750095Y-11396095D01*
X25464381Y-10205619D02*
X25464381Y-10110380D01*
X25512000Y-10015142D01*
X25559619Y-9967523D01*
X25654857Y-9919904D01*
X25845333Y-9872285D01*
X26083429Y-9872285D01*
X26273905Y-9919904D01*
X26369143Y-9967523D01*
X26416762Y-10015142D01*
X26464381Y-10110380D01*
X26464381Y-10205619D01*
X26416762Y-10300857D01*
X26369143Y-10348476D01*
X26273905Y-10396095D01*
X26083429Y-10443714D01*
X25845333Y-10443714D01*
X25654857Y-10396095D01*
X25559619Y-10348476D01*
X25512000Y-10300857D01*
X25464381Y-10205619D01*
X16814381Y-23446095D02*
X17623905Y-23446095D01*
X17719143Y-23398476D01*
X17766762Y-23350857D01*
X17814381Y-23255619D01*
X17814381Y-23065142D01*
X17766762Y-22969904D01*
X17719143Y-22922285D01*
X17623905Y-22874666D01*
X16814381Y-22874666D01*
X17814381Y-21874666D02*
X17814381Y-22446095D01*
X17814381Y-22160381D02*
X16814381Y-22160381D01*
X16957238Y-22255619D01*
X17052476Y-22350857D01*
X17100095Y-22446095D01*
X17147714Y-21017523D02*
X17814381Y-21017523D01*
X16766762Y-21255619D02*
X17481048Y-21493714D01*
X17481048Y-20874666D01*
X52000095Y-37060381D02*
X52000095Y-37869905D01*
X52047714Y-37965143D01*
X52095333Y-38012762D01*
X52190571Y-38060381D01*
X52381048Y-38060381D01*
X52476286Y-38012762D01*
X52523905Y-37965143D01*
X52571524Y-37869905D01*
X52571524Y-37060381D01*
X53523905Y-37060381D02*
X53047714Y-37060381D01*
X53000095Y-37536571D01*
X53047714Y-37488952D01*
X53142952Y-37441333D01*
X53381048Y-37441333D01*
X53476286Y-37488952D01*
X53523905Y-37536571D01*
X53571524Y-37631810D01*
X53571524Y-37869905D01*
X53523905Y-37965143D01*
X53476286Y-38012762D01*
X53381048Y-38060381D01*
X53142952Y-38060381D01*
X53047714Y-38012762D01*
X53000095Y-37965143D01*
X30569905Y-26880781D02*
X30569905Y-27690305D01*
X30617524Y-27785543D01*
X30665143Y-27833162D01*
X30760381Y-27880781D01*
X30950858Y-27880781D01*
X31046096Y-27833162D01*
X31093715Y-27785543D01*
X31141334Y-27690305D01*
X31141334Y-26880781D01*
X32141334Y-27880781D02*
X31569905Y-27880781D01*
X31855619Y-27880781D02*
X31855619Y-26880781D01*
X31760381Y-27023638D01*
X31665143Y-27118876D01*
X31569905Y-27166495D01*
X33046096Y-26880781D02*
X32569905Y-26880781D01*
X32522286Y-27356971D01*
X32569905Y-27309352D01*
X32665143Y-27261733D01*
X32903239Y-27261733D01*
X32998477Y-27309352D01*
X33046096Y-27356971D01*
X33093715Y-27452210D01*
X33093715Y-27690305D01*
X33046096Y-27785543D01*
X32998477Y-27833162D01*
X32903239Y-27880781D01*
X32665143Y-27880781D01*
X32569905Y-27833162D01*
X32522286Y-27785543D01*
%LPC*%
D15*
X56562000Y-8358000D03*
X53062000Y-8358000D03*
X49562000Y-8358000D03*
X76262000Y-4058000D03*
X2362000Y-52258000D03*
X4662000Y-42958000D03*
D16*
X25511300Y-52758000D03*
X24012700Y-52758000D03*
X25511300Y-49458000D03*
X24012700Y-49458000D03*
X72062000Y-1708700D03*
X72062000Y-3207300D03*
X66262000Y-1608700D03*
X66262000Y-3107300D03*
X61262000Y-1608700D03*
X61262000Y-3107300D03*
X33562000Y-10908700D03*
X33562000Y-12407300D03*
D17*
X11212000Y-42935500D03*
X15112000Y-42935500D03*
X15112000Y-43570500D03*
X11212000Y-43570500D03*
X11212000Y-44205500D03*
X15112000Y-44205500D03*
X15112000Y-47380500D03*
X11212000Y-47380500D03*
X11212000Y-46745500D03*
X15112000Y-46745500D03*
X15112000Y-46110500D03*
X11212000Y-46110500D03*
X11212000Y-44840500D03*
X15112000Y-44840500D03*
X15112000Y-45475500D03*
X11212000Y-45475500D03*
D18*
X14262000Y-52708000D03*
D19*
X14562000Y-50008000D03*
X13262000Y-50008000D03*
X13912000Y-50008000D03*
X12612000Y-50008000D03*
D20*
X16762000Y-52708000D03*
X9762000Y-52708000D03*
D21*
X15762000Y-50008000D03*
X10762000Y-50008000D03*
D19*
X11962000Y-50008000D03*
D18*
X12262000Y-52708000D03*
D22*
X39262000Y-27758000D03*
X39262000Y-28758000D03*
X36262000Y-27758000D03*
X36262000Y-28758000D03*
X38262000Y-26758000D03*
X37262000Y-26758000D03*
X36262000Y-26758000D03*
X39262000Y-26758000D03*
X39262000Y-29758000D03*
X36262000Y-29758000D03*
X37262000Y-29758000D03*
X38262000Y-29758000D03*
D23*
X29562000Y-30283000D03*
X30562000Y-30283000D03*
X29562000Y-28433000D03*
D10*
G36*
X30612000Y-29413000D02*
X30412000Y-29963000D01*
X29712000Y-29963000D01*
X29512000Y-29413000D01*
X30612000Y-29413000D01*
X30612000Y-29413000D01*
G37*
D24*
X30062000Y-30135500D03*
D25*
X30062000Y-29358000D03*
D26*
X30062000Y-28505500D03*
D10*
G36*
X29512000Y-29303000D02*
X29712000Y-28753000D01*
X30412000Y-28753000D01*
X30612000Y-29303000D01*
X29512000Y-29303000D01*
X29512000Y-29303000D01*
G37*
D23*
X30562000Y-28433000D03*
D27*
X2762000Y-9458000D03*
X2762000Y-12658000D03*
X8262000Y-12658000D03*
X8262000Y-9458000D03*
D28*
X19477000Y-18183000D03*
X20447000Y-18183000D03*
X21417000Y-18183000D03*
X18507000Y-18183000D03*
X18507000Y-16733000D03*
X21417000Y-16733000D03*
X20447000Y-16733000D03*
X19477000Y-16733000D03*
D29*
X11762000Y-8753000D03*
X11762000Y-10023000D03*
X11762000Y-11293000D03*
X11762000Y-12563000D03*
X17162000Y-12563000D03*
X17162000Y-11293000D03*
X17162000Y-10023000D03*
X17162000Y-8753000D03*
D30*
X49772000Y-19608000D03*
X49772000Y-20058000D03*
X49772000Y-20508000D03*
D31*
X50787000Y-19268000D03*
X50337000Y-19268000D03*
X50337000Y-20848000D03*
X50787000Y-20848000D03*
D30*
X51352000Y-20508000D03*
X51352000Y-20058000D03*
X51352000Y-19608000D03*
D32*
X42072000Y-20908000D03*
D33*
X41062000Y-22383000D03*
X41062000Y-20533000D03*
D34*
X40512000Y-22468000D03*
X41612000Y-22468000D03*
X40512000Y-20448000D03*
X41612000Y-20448000D03*
D32*
X40052000Y-20908000D03*
X40052000Y-22008000D03*
X42072000Y-22008000D03*
D35*
X41812000Y-21458000D03*
D36*
X40137000Y-21458000D03*
D37*
X54962000Y-15045500D03*
X54962000Y-14545500D03*
D38*
X54962000Y-14033000D03*
X55462000Y-14033000D03*
X55962000Y-14033000D03*
X56462000Y-14033000D03*
D37*
X56462000Y-14545500D03*
X56462000Y-15045500D03*
D38*
X56462000Y-15558000D03*
X55962000Y-15558000D03*
X55462000Y-15558000D03*
X54962000Y-15558000D03*
D39*
X45762000Y-7708000D03*
X45762000Y-9608000D03*
X43762000Y-9608000D03*
X43762000Y-8658000D03*
X43762000Y-7708000D03*
D40*
X77002000Y-42523000D03*
X77502000Y-42523000D03*
X78502000Y-42523000D03*
X78002000Y-42523000D03*
X78002000Y-40033000D03*
X78502000Y-40033000D03*
X77502000Y-40033000D03*
X77002000Y-40033000D03*
D41*
X63562000Y-32258000D03*
X58162000Y-32258000D03*
X58162000Y-32908000D03*
X63562000Y-32908000D03*
X63562000Y-34208000D03*
X58162000Y-34208000D03*
X58162000Y-33558000D03*
X63562000Y-33558000D03*
X63562000Y-30958000D03*
X58162000Y-30958000D03*
X58162000Y-31608000D03*
X63562000Y-31608000D03*
X63562000Y-30308000D03*
X58162000Y-30308000D03*
X58162000Y-29658000D03*
X63562000Y-29658000D03*
D42*
X71612000Y-19263000D03*
X71612000Y-17993000D03*
X71612000Y-15453000D03*
X71612000Y-16723000D03*
X76512000Y-16723000D03*
X76512000Y-15453000D03*
X76512000Y-17993000D03*
X76512000Y-19263000D03*
D43*
X36672000Y-49958000D03*
D44*
X39662000Y-47158000D03*
X41662000Y-47158000D03*
X40662000Y-47158000D03*
X44662000Y-47158000D03*
X45662000Y-47158000D03*
X43662000Y-47158000D03*
X42662000Y-47158000D03*
X50662000Y-47158000D03*
X51662000Y-47158000D03*
X53662000Y-47158000D03*
X52662000Y-47158000D03*
X48662000Y-47158000D03*
X49662000Y-47158000D03*
X47662000Y-47158000D03*
X46662000Y-47158000D03*
D43*
X56652000Y-49958000D03*
X62472000Y-49958000D03*
D44*
X65462000Y-47158000D03*
X67462000Y-47158000D03*
X66462000Y-47158000D03*
X70462000Y-47158000D03*
X71462000Y-47158000D03*
X69462000Y-47158000D03*
X68462000Y-47158000D03*
X76462000Y-47158000D03*
X77462000Y-47158000D03*
X79462000Y-47158000D03*
X78462000Y-47158000D03*
X74462000Y-47158000D03*
X75462000Y-47158000D03*
X73462000Y-47158000D03*
X72462000Y-47158000D03*
D43*
X82452000Y-49958000D03*
D45*
X10162000Y-5158000D03*
X10162000Y-3158000D03*
X12162000Y-5158000D03*
X12162000Y-3158000D03*
X14162000Y-5158000D03*
X14162000Y-3158000D03*
X16162000Y-5158000D03*
X16162000Y-3158000D03*
X18162000Y-5158000D03*
X18162000Y-3158000D03*
X20162000Y-5158000D03*
X20162000Y-3158000D03*
X22162000Y-5158000D03*
X22162000Y-3158000D03*
X24162000Y-5158000D03*
X24162000Y-3158000D03*
X26162000Y-5158000D03*
X26162000Y-3158000D03*
X28162000Y-5158000D03*
X28162000Y-3158000D03*
X30162000Y-5158000D03*
X30162000Y-3158000D03*
X32162000Y-5158000D03*
X32162000Y-3158000D03*
X34162000Y-5158000D03*
X34162000Y-3158000D03*
X36162000Y-5158000D03*
X36162000Y-3158000D03*
X38162000Y-5158000D03*
X38162000Y-3158000D03*
X40162000Y-5158000D03*
X40162000Y-3158000D03*
X42162000Y-5158000D03*
X42162000Y-3158000D03*
X44162000Y-5158000D03*
X44162000Y-3158000D03*
X46162000Y-5158000D03*
X46162000Y-3158000D03*
X48162000Y-5158000D03*
X48162000Y-3158000D03*
D42*
X71512000Y-11763000D03*
X71512000Y-10493000D03*
X71512000Y-7953000D03*
X71512000Y-9223000D03*
X76412000Y-9223000D03*
X76412000Y-7953000D03*
X76412000Y-10493000D03*
X76412000Y-11763000D03*
D46*
X15062000Y-34758000D03*
X15062000Y-38158000D03*
D47*
X9162000Y-18808000D03*
X9162000Y-17108000D03*
X23762000Y-6908000D03*
X23762000Y-8608000D03*
D48*
X29512000Y-52758000D03*
X27812000Y-52758000D03*
X29512000Y-49458000D03*
X27812000Y-49458000D03*
D47*
X49832000Y-41868000D03*
X49832000Y-40168000D03*
X47782000Y-42978000D03*
X47782000Y-41278000D03*
X33562000Y-7808000D03*
X33562000Y-9508000D03*
D49*
X36812000Y-10358000D03*
X38712000Y-10358000D03*
X37762000Y-12358000D03*
D50*
X23862000Y-29258000D03*
D51*
X5912000Y-17058000D03*
X2612000Y-17058000D03*
D52*
X80962000Y-23226800D03*
X80962000Y-29879600D03*
X73462000Y-23226800D03*
X73462000Y-29879600D03*
X80962000Y-19308000D03*
X80962000Y-16008000D03*
X80762000Y-11808000D03*
X80762000Y-8508000D03*
X67162000Y-11808000D03*
X67162000Y-8508000D03*
X67162000Y-19208000D03*
X67162000Y-15908000D03*
X6462000Y-49008000D03*
X6462000Y-52308000D03*
D48*
X4612000Y-20558000D03*
X2912000Y-20558000D03*
X55162000Y-43468000D03*
X56862000Y-43468000D03*
D47*
X2962000Y-46908000D03*
X2962000Y-48608000D03*
D53*
X9162000Y-30708000D03*
X9162000Y-23008000D03*
D47*
X1862000Y-42008000D03*
X1862000Y-43708000D03*
X15062000Y-39608000D03*
X15062000Y-41308000D03*
D54*
X9887000Y-15258000D03*
X12037000Y-15258000D03*
D55*
X21217000Y-10408000D03*
X21217000Y-10908000D03*
X21217000Y-11908000D03*
X21217000Y-11408000D03*
X23707000Y-11408000D03*
X23707000Y-11908000D03*
X23707000Y-10908000D03*
D56*
X23707000Y-10408000D03*
D57*
X18812000Y-21258000D03*
X19320000Y-21258000D03*
X20312000Y-21258000D03*
X19812000Y-21258000D03*
X19812000Y-23258000D03*
X20312000Y-23258000D03*
X19320000Y-23258000D03*
X18812000Y-23258000D03*
D58*
X52012000Y-42403000D03*
X52512000Y-42403000D03*
X53512000Y-42403000D03*
X53012000Y-42403000D03*
X53012000Y-39913000D03*
X53512000Y-39913000D03*
X52512000Y-39913000D03*
D59*
X52012000Y-39913000D03*
D60*
X32062000Y-20508000D03*
X32562000Y-20508000D03*
X31062000Y-20508000D03*
X31562000Y-20508000D03*
X33062000Y-20508000D03*
X33062000Y-24408000D03*
X31562000Y-24408000D03*
X31062000Y-24408000D03*
X32562000Y-24408000D03*
X32062000Y-24408000D03*
M02*
