%TF.GenerationSoftware,KiCad,Pcbnew,4.0.2-stable*%
%TF.CreationDate,2016-08-10T14:49:54+09:00*%
%TF.ProjectId,Shimonso-IoT-Type-R,5368696D6F6E736F2D496F542D547970,rev?*%
%TF.FileFunction,Copper,L2,Inr,Plane*%
%FSLAX46Y46*%
G04 Gerber Fmt 4.6, Leading zero omitted, Abs format (unit mm)*
G04 Created by KiCad (PCBNEW 4.0.2-stable) date 2016年08月10日水曜日 14:49:54*
%MOMM*%
G01*
G04 APERTURE LIST*
%ADD10C,0.100000*%
%ADD11R,2.235200X2.235200*%
%ADD12O,0.890000X1.550000*%
%ADD13O,1.250000X0.950000*%
%ADD14C,1.600000*%
%ADD15C,0.600000*%
%ADD16C,0.350000*%
%ADD17C,0.150000*%
%ADD18C,0.250000*%
%ADD19C,0.254000*%
G04 APERTURE END LIST*
D10*
D11*
X56562000Y-8358000D03*
X53062000Y-8358000D03*
X49562000Y-8358000D03*
X76262000Y-4058000D03*
X2362000Y-52258000D03*
X4662000Y-42958000D03*
D12*
X16762000Y-52708000D03*
X9762000Y-52708000D03*
D13*
X15762000Y-50008000D03*
X10762000Y-50008000D03*
D14*
X10162000Y-5158000D03*
X10162000Y-3158000D03*
X12162000Y-5158000D03*
X12162000Y-3158000D03*
X14162000Y-5158000D03*
X14162000Y-3158000D03*
X16162000Y-5158000D03*
X16162000Y-3158000D03*
X18162000Y-5158000D03*
X18162000Y-3158000D03*
X20162000Y-5158000D03*
X20162000Y-3158000D03*
X22162000Y-5158000D03*
X22162000Y-3158000D03*
X24162000Y-5158000D03*
X24162000Y-3158000D03*
X26162000Y-5158000D03*
X26162000Y-3158000D03*
X28162000Y-5158000D03*
X28162000Y-3158000D03*
X30162000Y-5158000D03*
X30162000Y-3158000D03*
X32162000Y-5158000D03*
X32162000Y-3158000D03*
X34162000Y-5158000D03*
X34162000Y-3158000D03*
X36162000Y-5158000D03*
X36162000Y-3158000D03*
X38162000Y-5158000D03*
X38162000Y-3158000D03*
X40162000Y-5158000D03*
X40162000Y-3158000D03*
X42162000Y-5158000D03*
X42162000Y-3158000D03*
X44162000Y-5158000D03*
X44162000Y-3158000D03*
X46162000Y-5158000D03*
X46162000Y-3158000D03*
X48162000Y-5158000D03*
X48162000Y-3158000D03*
D15*
X59890000Y-15664000D03*
X84020000Y-40302000D03*
X17152000Y-8398000D03*
X55302000Y-13328000D03*
X51982000Y-20268000D03*
X50362000Y-21418000D03*
X78832000Y-40058000D03*
X57102000Y-16098000D03*
X54792000Y-16048000D03*
X45472000Y-21598000D03*
X39692000Y-22778000D03*
X23692000Y-12068000D03*
X19462000Y-16358000D03*
X18232000Y-25138000D03*
X30562000Y-31758000D03*
X33272000Y-22548000D03*
X29722000Y-11428000D03*
X80302000Y-29948000D03*
X74022000Y-29888000D03*
X74132000Y-21158000D03*
X73987300Y-13558000D03*
X36302000Y-10358000D03*
X41632000Y-11188000D03*
X41952000Y-8058000D03*
X42542000Y-8648000D03*
X72122000Y-40948000D03*
X63572000Y-34418000D03*
X63562000Y-30628000D03*
X54962000Y-40938000D03*
X57512000Y-45632700D03*
X43762000Y-37758000D03*
X41262000Y-37758000D03*
X20062000Y-23558000D03*
X3262000Y-20908000D03*
X2612000Y-17658000D03*
X7412000Y-30708000D03*
X4312000Y-11058000D03*
X40512000Y-42148000D03*
X38112000Y-42268000D03*
X35712000Y-42278000D03*
X33312000Y-42338000D03*
X30942000Y-42338000D03*
X25312000Y-38038000D03*
X38902000Y-37638000D03*
X36522000Y-37688000D03*
X32522000Y-37678000D03*
X28532000Y-39708000D03*
X25312000Y-35058000D03*
X22872000Y-37748000D03*
X48662000Y-48398000D03*
X45662000Y-48388000D03*
X74462000Y-48578000D03*
X71462000Y-48448000D03*
X68442000Y-48488000D03*
X65472000Y-45878000D03*
X65472000Y-45868000D03*
X42672000Y-48738000D03*
X38752000Y-46418000D03*
X73762000Y-8358000D03*
X79362000Y-16008000D03*
X79262000Y-8508000D03*
X68362000Y-8558000D03*
X15062000Y-36158000D03*
X6862000Y-45058000D03*
X2262000Y-40558000D03*
X18562000Y-44958000D03*
X37359000Y-27541800D03*
X12062000Y-48758000D03*
X17662000Y-45758000D03*
X29482000Y-32268000D03*
X18512000Y-16218000D03*
X32082000Y-21848000D03*
X30782000Y-25118000D03*
X40942000Y-26628000D03*
X31632000Y-22538000D03*
X29462000Y-33248000D03*
X21161200Y-15530600D03*
X23272000Y-16278000D03*
X17688400Y-23408000D03*
X16012000Y-17478000D03*
X12112000Y-15808000D03*
X79712000Y-45038000D03*
X79772000Y-50008000D03*
X80152000Y-47188000D03*
X63572000Y-29478000D03*
X58737300Y-45688000D03*
X55022000Y-48548000D03*
X29512000Y-51058000D03*
X77352800Y-13533300D03*
X73966800Y-11763000D03*
X40036900Y-26758000D03*
X54714500Y-46278900D03*
X72912000Y-44557800D03*
X18382200Y-24101800D03*
X62101300Y-27102700D03*
X21538300Y-6908000D03*
X34162000Y-7158000D03*
X58062000Y-4458000D03*
X65862000Y-19058000D03*
X65362000Y-11758000D03*
X71453300Y-12595500D03*
X56242000Y-13368000D03*
X55692000Y-14818000D03*
X57242000Y-14098000D03*
X51862000Y-22708000D03*
X80372000Y-38898000D03*
X25402000Y-11668000D03*
X43862000Y-17048000D03*
X42162000Y-24158000D03*
X43632000Y-23328000D03*
X23622000Y-19628000D03*
X27052000Y-11308000D03*
X27182000Y-14548000D03*
X54552000Y-41998000D03*
X52312000Y-30528000D03*
X57372000Y-28438000D03*
X76512000Y-18658000D03*
X75172000Y-35070600D03*
X49007000Y-42693000D03*
X7709500Y-44205500D03*
X79472200Y-19308000D03*
X42895800Y-22321300D03*
X56786700Y-29082100D03*
X78812000Y-43831700D03*
X54212000Y-20078000D03*
X8162000Y-51158000D03*
X17962000Y-50158000D03*
X34132000Y-38448000D03*
X77002000Y-38448000D03*
X58382000Y-36498000D03*
X47533600Y-34490200D03*
X74292000Y-37098000D03*
X57742000Y-37218000D03*
X36083500Y-34931100D03*
X40212000Y-38538000D03*
X39309600Y-34287700D03*
X37551500Y-38086100D03*
X62102000Y-44608000D03*
X46762000Y-36558000D03*
X73403800Y-48719100D03*
X43942000Y-39228000D03*
X48662000Y-37458000D03*
X27782000Y-39278000D03*
X33362000Y-38158000D03*
X24532000Y-38618000D03*
X30832000Y-38098000D03*
X26892000Y-38058000D03*
X41962000Y-44018000D03*
X43492000Y-45558000D03*
X26132000Y-38548000D03*
X23692000Y-38288000D03*
X22212000Y-38358000D03*
X21241800Y-38246900D03*
X1962000Y-7058000D03*
X13162000Y-38158000D03*
X14962000Y-9658000D03*
X50442000Y-19878000D03*
X40892000Y-21448000D03*
X28622000Y-18068000D03*
X23762000Y-10158000D03*
X20462000Y-18658000D03*
X47322000Y-18478000D03*
X30322000Y-13338000D03*
X8282000Y-1918000D03*
X47692000Y-19958000D03*
X19362000Y-22158000D03*
X50362000Y-16058000D03*
X42162000Y-19858000D03*
X60192000Y-9338000D03*
X59302000Y-8318000D03*
X50785300Y-3588500D03*
X49944600Y-4657900D03*
X46632000Y-8788000D03*
X52682000Y-10298000D03*
X51617600Y-27733300D03*
X46863200Y-6865100D03*
X54182000Y-4238000D03*
X56221000Y-31890000D03*
X59145500Y-1608700D03*
X65346400Y-2323600D03*
X69578800Y-1708700D03*
X77472000Y-48418000D03*
X78442000Y-45438000D03*
X76942000Y-44168000D03*
X71512000Y-37968000D03*
X80192000Y-43578000D03*
X62162000Y-32908000D03*
X50662000Y-45658000D03*
X51662000Y-48908000D03*
X51962000Y-43958000D03*
X52862000Y-45558000D03*
X62162000Y-31658000D03*
X49662000Y-45658000D03*
X39677200Y-10358000D03*
X19162000Y-10958000D03*
X55621400Y-30875600D03*
X46092000Y-10598000D03*
X53332000Y-43508000D03*
X21217000Y-12970000D03*
X43007700Y-21458000D03*
X7062000Y-9458000D03*
X6962000Y-12658000D03*
X40135100Y-29758000D03*
X18162000Y-47358000D03*
X8662000Y-47758000D03*
X55086200Y-30183800D03*
X7662000Y-46658000D03*
X38522000Y-27728000D03*
X36372000Y-25638000D03*
X17362000Y-46658000D03*
D16*
X27752000Y-37768000D02*
X27752000Y-37808000D01*
X27752000Y-37808000D02*
X27742000Y-37818000D01*
D17*
X55302000Y-13328000D02*
X55302000Y-13308000D01*
D16*
X73992000Y-13548000D02*
X73992000Y-13553300D01*
X73992000Y-13553300D02*
X73987300Y-13558000D01*
D18*
X41952000Y-8058000D02*
X41952000Y-8068000D01*
D16*
X57512000Y-45632700D02*
X57512000Y-45628000D01*
D18*
X19762000Y-23258000D02*
X20062000Y-23558000D01*
D16*
X3262000Y-20908000D02*
X3262000Y-20958000D01*
X2612000Y-17658000D02*
X2662000Y-17658000D01*
X2612000Y-17658000D02*
X2662000Y-17658000D01*
X7412000Y-30708000D02*
X7362000Y-30658000D01*
X4312000Y-11058000D02*
X4262000Y-11058000D01*
X33382000Y-42268000D02*
X33312000Y-42338000D01*
X22872000Y-37748000D02*
X22902000Y-37748000D01*
X74462000Y-48578000D02*
X74462000Y-48568000D01*
X65472000Y-45878000D02*
X65472000Y-45868000D01*
X38752000Y-46418000D02*
X38742000Y-46418000D01*
X79362000Y-16008000D02*
X79362000Y-16058000D01*
X79262000Y-8508000D02*
X79262000Y-8458000D01*
X10162000Y-5158000D02*
X10162000Y-3158000D01*
D19*
G36*
X58353308Y-1078373D02*
X58210662Y-1421901D01*
X58210338Y-1793867D01*
X58352383Y-2137643D01*
X58615173Y-2400892D01*
X58958701Y-2543538D01*
X59330667Y-2543862D01*
X59415603Y-2508767D01*
X64411238Y-2508767D01*
X64553283Y-2852543D01*
X64816073Y-3115792D01*
X65159601Y-3258438D01*
X65531567Y-3258762D01*
X65875343Y-3116717D01*
X66138592Y-2853927D01*
X66155133Y-2814090D01*
X74509400Y-2814090D01*
X74509400Y-3772250D01*
X74668150Y-3931000D01*
X76135000Y-3931000D01*
X76135000Y-2464150D01*
X76389000Y-2464150D01*
X76389000Y-3931000D01*
X77855850Y-3931000D01*
X78014600Y-3772250D01*
X78014600Y-2814090D01*
X77917927Y-2580701D01*
X77739298Y-2402073D01*
X77505909Y-2305400D01*
X76547750Y-2305400D01*
X76389000Y-2464150D01*
X76135000Y-2464150D01*
X75976250Y-2305400D01*
X75018091Y-2305400D01*
X74784702Y-2402073D01*
X74606073Y-2580701D01*
X74509400Y-2814090D01*
X66155133Y-2814090D01*
X66281238Y-2510399D01*
X66281562Y-2138433D01*
X66139517Y-1794657D01*
X65876727Y-1531408D01*
X65533199Y-1388762D01*
X65161233Y-1388438D01*
X64817457Y-1530483D01*
X64554208Y-1793273D01*
X64411562Y-2136801D01*
X64411238Y-2508767D01*
X59415603Y-2508767D01*
X59674443Y-2401817D01*
X59937692Y-2139027D01*
X60080338Y-1795499D01*
X60080662Y-1423533D01*
X59938617Y-1079757D01*
X59802098Y-943000D01*
X69022392Y-943000D01*
X68786608Y-1178373D01*
X68643962Y-1521901D01*
X68643638Y-1893867D01*
X68785683Y-2237643D01*
X69048473Y-2500892D01*
X69392001Y-2643538D01*
X69763967Y-2643862D01*
X70107743Y-2501817D01*
X70370992Y-2239027D01*
X70513638Y-1895499D01*
X70513962Y-1523533D01*
X70371917Y-1179757D01*
X70135573Y-943000D01*
X84377000Y-943000D01*
X84377000Y-53373000D01*
X17774590Y-53373000D01*
X17842000Y-53165000D01*
X17842000Y-52835000D01*
X16889000Y-52835000D01*
X16889000Y-52855000D01*
X16635000Y-52855000D01*
X16635000Y-52835000D01*
X15682000Y-52835000D01*
X15682000Y-53165000D01*
X15749410Y-53373000D01*
X10774590Y-53373000D01*
X10842000Y-53165000D01*
X10842000Y-52835000D01*
X9889000Y-52835000D01*
X9889000Y-52855000D01*
X9635000Y-52855000D01*
X9635000Y-52835000D01*
X8682000Y-52835000D01*
X8682000Y-53165000D01*
X8749410Y-53373000D01*
X4114600Y-53373000D01*
X4114600Y-52543750D01*
X3955850Y-52385000D01*
X2489000Y-52385000D01*
X2489000Y-52405000D01*
X2235000Y-52405000D01*
X2235000Y-52385000D01*
X2215000Y-52385000D01*
X2215000Y-52131000D01*
X2235000Y-52131000D01*
X2235000Y-50664150D01*
X2489000Y-50664150D01*
X2489000Y-52131000D01*
X3955850Y-52131000D01*
X4114600Y-51972250D01*
X4114600Y-51343167D01*
X7226838Y-51343167D01*
X7368883Y-51686943D01*
X7631673Y-51950192D01*
X7975201Y-52092838D01*
X8347167Y-52093162D01*
X8690943Y-51951117D01*
X8915500Y-51726951D01*
X8812811Y-51847369D01*
X8682000Y-52251000D01*
X8682000Y-52581000D01*
X9635000Y-52581000D01*
X9635000Y-51465546D01*
X9889000Y-51465546D01*
X9889000Y-52581000D01*
X10842000Y-52581000D01*
X10842000Y-52251000D01*
X15682000Y-52251000D01*
X15682000Y-52581000D01*
X16635000Y-52581000D01*
X16635000Y-51465546D01*
X16889000Y-51465546D01*
X16889000Y-52581000D01*
X17842000Y-52581000D01*
X17842000Y-52251000D01*
X17711189Y-51847369D01*
X17435873Y-51524522D01*
X17055213Y-51338565D01*
X16889000Y-51465546D01*
X16635000Y-51465546D01*
X16468787Y-51338565D01*
X16088127Y-51524522D01*
X15812811Y-51847369D01*
X15682000Y-52251000D01*
X10842000Y-52251000D01*
X10711189Y-51847369D01*
X10435873Y-51524522D01*
X10055213Y-51338565D01*
X9889000Y-51465546D01*
X9635000Y-51465546D01*
X9468787Y-51338565D01*
X9088127Y-51524522D01*
X8959653Y-51675176D01*
X9096838Y-51344799D01*
X9096926Y-51243167D01*
X28576838Y-51243167D01*
X28718883Y-51586943D01*
X28981673Y-51850192D01*
X29325201Y-51992838D01*
X29697167Y-51993162D01*
X30040943Y-51851117D01*
X30304192Y-51588327D01*
X30446838Y-51244799D01*
X30447162Y-50872833D01*
X30305117Y-50529057D01*
X30042327Y-50265808D01*
X29867389Y-50193167D01*
X78836838Y-50193167D01*
X78978883Y-50536943D01*
X79241673Y-50800192D01*
X79585201Y-50942838D01*
X79957167Y-50943162D01*
X80300943Y-50801117D01*
X80564192Y-50538327D01*
X80706838Y-50194799D01*
X80707162Y-49822833D01*
X80565117Y-49479057D01*
X80302327Y-49215808D01*
X79958799Y-49073162D01*
X79586833Y-49072838D01*
X79243057Y-49214883D01*
X78979808Y-49477673D01*
X78837162Y-49821201D01*
X78836838Y-50193167D01*
X29867389Y-50193167D01*
X29698799Y-50123162D01*
X29326833Y-50122838D01*
X28983057Y-50264883D01*
X28719808Y-50527673D01*
X28577162Y-50871201D01*
X28576838Y-51243167D01*
X9096926Y-51243167D01*
X9097162Y-50972833D01*
X8955117Y-50629057D01*
X8692327Y-50365808D01*
X8548145Y-50305938D01*
X9542732Y-50305938D01*
X9726448Y-50679821D01*
X10050951Y-50967568D01*
X10460869Y-51109229D01*
X10635000Y-50960563D01*
X10635000Y-50135000D01*
X10889000Y-50135000D01*
X10889000Y-50960563D01*
X11063131Y-51109229D01*
X11473049Y-50967568D01*
X11797552Y-50679821D01*
X11981268Y-50305938D01*
X14542732Y-50305938D01*
X14726448Y-50679821D01*
X15050951Y-50967568D01*
X15460869Y-51109229D01*
X15635000Y-50960563D01*
X15635000Y-50135000D01*
X15889000Y-50135000D01*
X15889000Y-50960563D01*
X16063131Y-51109229D01*
X16473049Y-50967568D01*
X16797552Y-50679821D01*
X16962974Y-50343167D01*
X17026838Y-50343167D01*
X17168883Y-50686943D01*
X17431673Y-50950192D01*
X17775201Y-51092838D01*
X18147167Y-51093162D01*
X18490943Y-50951117D01*
X18754192Y-50688327D01*
X18896838Y-50344799D01*
X18897162Y-49972833D01*
X18755117Y-49629057D01*
X18492327Y-49365808D01*
X18148799Y-49223162D01*
X17776833Y-49222838D01*
X17433057Y-49364883D01*
X17169808Y-49627673D01*
X17027162Y-49971201D01*
X17026838Y-50343167D01*
X16962974Y-50343167D01*
X16981268Y-50305938D01*
X16854734Y-50135000D01*
X15889000Y-50135000D01*
X15635000Y-50135000D01*
X14669266Y-50135000D01*
X14542732Y-50305938D01*
X11981268Y-50305938D01*
X11854734Y-50135000D01*
X10889000Y-50135000D01*
X10635000Y-50135000D01*
X9669266Y-50135000D01*
X9542732Y-50305938D01*
X8548145Y-50305938D01*
X8348799Y-50223162D01*
X7976833Y-50222838D01*
X7633057Y-50364883D01*
X7369808Y-50627673D01*
X7227162Y-50971201D01*
X7226838Y-51343167D01*
X4114600Y-51343167D01*
X4114600Y-51014090D01*
X4017927Y-50780701D01*
X3839298Y-50602073D01*
X3605909Y-50505400D01*
X2647750Y-50505400D01*
X2489000Y-50664150D01*
X2235000Y-50664150D01*
X2076250Y-50505400D01*
X1118091Y-50505400D01*
X947000Y-50576268D01*
X947000Y-49710062D01*
X9542732Y-49710062D01*
X9669266Y-49881000D01*
X10635000Y-49881000D01*
X10635000Y-49055437D01*
X10889000Y-49055437D01*
X10889000Y-49881000D01*
X11854734Y-49881000D01*
X11981268Y-49710062D01*
X14542732Y-49710062D01*
X14669266Y-49881000D01*
X15635000Y-49881000D01*
X15635000Y-49055437D01*
X15889000Y-49055437D01*
X15889000Y-49881000D01*
X16854734Y-49881000D01*
X16981268Y-49710062D01*
X16797552Y-49336179D01*
X16523499Y-49093167D01*
X50726838Y-49093167D01*
X50868883Y-49436943D01*
X51131673Y-49700192D01*
X51475201Y-49842838D01*
X51847167Y-49843162D01*
X52190943Y-49701117D01*
X52454192Y-49438327D01*
X52596838Y-49094799D01*
X52597152Y-48733167D01*
X54086838Y-48733167D01*
X54228883Y-49076943D01*
X54491673Y-49340192D01*
X54835201Y-49482838D01*
X55207167Y-49483162D01*
X55550943Y-49341117D01*
X55814192Y-49078327D01*
X55886468Y-48904267D01*
X72468638Y-48904267D01*
X72610683Y-49248043D01*
X72873473Y-49511292D01*
X73217001Y-49653938D01*
X73588967Y-49654262D01*
X73932743Y-49512217D01*
X74195992Y-49249427D01*
X74338638Y-48905899D01*
X74338901Y-48603167D01*
X76536838Y-48603167D01*
X76678883Y-48946943D01*
X76941673Y-49210192D01*
X77285201Y-49352838D01*
X77657167Y-49353162D01*
X78000943Y-49211117D01*
X78264192Y-48948327D01*
X78406838Y-48604799D01*
X78407162Y-48232833D01*
X78265117Y-47889057D01*
X78002327Y-47625808D01*
X77658799Y-47483162D01*
X77286833Y-47482838D01*
X76943057Y-47624883D01*
X76679808Y-47887673D01*
X76537162Y-48231201D01*
X76536838Y-48603167D01*
X74338901Y-48603167D01*
X74338962Y-48533933D01*
X74196917Y-48190157D01*
X73934127Y-47926908D01*
X73590599Y-47784262D01*
X73218633Y-47783938D01*
X72874857Y-47925983D01*
X72611608Y-48188773D01*
X72468962Y-48532301D01*
X72468638Y-48904267D01*
X55886468Y-48904267D01*
X55956838Y-48734799D01*
X55957162Y-48362833D01*
X55815117Y-48019057D01*
X55552327Y-47755808D01*
X55208799Y-47613162D01*
X54836833Y-47612838D01*
X54493057Y-47754883D01*
X54229808Y-48017673D01*
X54087162Y-48361201D01*
X54086838Y-48733167D01*
X52597152Y-48733167D01*
X52597162Y-48722833D01*
X52455117Y-48379057D01*
X52192327Y-48115808D01*
X51848799Y-47973162D01*
X51476833Y-47972838D01*
X51133057Y-48114883D01*
X50869808Y-48377673D01*
X50727162Y-48721201D01*
X50726838Y-49093167D01*
X16523499Y-49093167D01*
X16473049Y-49048432D01*
X16063131Y-48906771D01*
X15889000Y-49055437D01*
X15635000Y-49055437D01*
X15460869Y-48906771D01*
X15050951Y-49048432D01*
X14726448Y-49336179D01*
X14542732Y-49710062D01*
X11981268Y-49710062D01*
X11972846Y-49692923D01*
X12247167Y-49693162D01*
X12590943Y-49551117D01*
X12854192Y-49288327D01*
X12996838Y-48944799D01*
X12997162Y-48572833D01*
X12855117Y-48229057D01*
X12592327Y-47965808D01*
X12248799Y-47823162D01*
X11876833Y-47822838D01*
X11533057Y-47964883D01*
X11269808Y-48227673D01*
X11127162Y-48571201D01*
X11126851Y-48928791D01*
X11063131Y-48906771D01*
X10889000Y-49055437D01*
X10635000Y-49055437D01*
X10460869Y-48906771D01*
X10050951Y-49048432D01*
X9726448Y-49336179D01*
X9542732Y-49710062D01*
X947000Y-49710062D01*
X947000Y-46843167D01*
X6726838Y-46843167D01*
X6868883Y-47186943D01*
X7131673Y-47450192D01*
X7475201Y-47592838D01*
X7727143Y-47593057D01*
X7726838Y-47943167D01*
X7868883Y-48286943D01*
X8131673Y-48550192D01*
X8475201Y-48692838D01*
X8847167Y-48693162D01*
X9190943Y-48551117D01*
X9454192Y-48288327D01*
X9596838Y-47944799D01*
X9597162Y-47572833D01*
X9455117Y-47229057D01*
X9192327Y-46965808D01*
X8896977Y-46843167D01*
X16426838Y-46843167D01*
X16568883Y-47186943D01*
X16831673Y-47450192D01*
X17175201Y-47592838D01*
X17247388Y-47592901D01*
X17368883Y-47886943D01*
X17631673Y-48150192D01*
X17975201Y-48292838D01*
X18347167Y-48293162D01*
X18690943Y-48151117D01*
X18954192Y-47888327D01*
X19096838Y-47544799D01*
X19096987Y-47373167D01*
X79216838Y-47373167D01*
X79358883Y-47716943D01*
X79621673Y-47980192D01*
X79965201Y-48122838D01*
X80337167Y-48123162D01*
X80680943Y-47981117D01*
X80944192Y-47718327D01*
X81086838Y-47374799D01*
X81087162Y-47002833D01*
X80945117Y-46659057D01*
X80682327Y-46395808D01*
X80338799Y-46253162D01*
X79966833Y-46252838D01*
X79623057Y-46394883D01*
X79359808Y-46657673D01*
X79217162Y-47001201D01*
X79216838Y-47373167D01*
X19096987Y-47373167D01*
X19097162Y-47172833D01*
X18955117Y-46829057D01*
X18692327Y-46565808D01*
X18348799Y-46423162D01*
X18319147Y-46423136D01*
X18454192Y-46288327D01*
X18596838Y-45944799D01*
X18597013Y-45743167D01*
X42556838Y-45743167D01*
X42698883Y-46086943D01*
X42961673Y-46350192D01*
X43305201Y-46492838D01*
X43677167Y-46493162D01*
X44020943Y-46351117D01*
X44284192Y-46088327D01*
X44385991Y-45843167D01*
X48726838Y-45843167D01*
X48868883Y-46186943D01*
X49131673Y-46450192D01*
X49475201Y-46592838D01*
X49847167Y-46593162D01*
X50162351Y-46462931D01*
X50475201Y-46592838D01*
X50847167Y-46593162D01*
X51190943Y-46451117D01*
X51454192Y-46188327D01*
X51596838Y-45844799D01*
X51597162Y-45472833D01*
X51455117Y-45129057D01*
X51192327Y-44865808D01*
X50848799Y-44723162D01*
X50476833Y-44722838D01*
X50161649Y-44853069D01*
X49848799Y-44723162D01*
X49476833Y-44722838D01*
X49133057Y-44864883D01*
X48869808Y-45127673D01*
X48727162Y-45471201D01*
X48726838Y-45843167D01*
X44385991Y-45843167D01*
X44426838Y-45744799D01*
X44427162Y-45372833D01*
X44285117Y-45029057D01*
X44022327Y-44765808D01*
X43678799Y-44623162D01*
X43306833Y-44622838D01*
X42963057Y-44764883D01*
X42699808Y-45027673D01*
X42557162Y-45371201D01*
X42556838Y-45743167D01*
X18597013Y-45743167D01*
X18597162Y-45572833D01*
X18455117Y-45229057D01*
X18192327Y-44965808D01*
X17848799Y-44823162D01*
X17476833Y-44822838D01*
X17133057Y-44964883D01*
X16869808Y-45227673D01*
X16727162Y-45571201D01*
X16726838Y-45943167D01*
X16734956Y-45962813D01*
X16569808Y-46127673D01*
X16427162Y-46471201D01*
X16426838Y-46843167D01*
X8896977Y-46843167D01*
X8848799Y-46823162D01*
X8596857Y-46822943D01*
X8597162Y-46472833D01*
X8455117Y-46129057D01*
X8192327Y-45865808D01*
X7848799Y-45723162D01*
X7476833Y-45722838D01*
X7133057Y-45864883D01*
X6869808Y-46127673D01*
X6727162Y-46471201D01*
X6726838Y-46843167D01*
X947000Y-46843167D01*
X947000Y-41840400D01*
X2896960Y-41840400D01*
X2896960Y-44075600D01*
X2941238Y-44310917D01*
X3080310Y-44527041D01*
X3292510Y-44672031D01*
X3544400Y-44723040D01*
X5779600Y-44723040D01*
X6014917Y-44678762D01*
X6231041Y-44539690D01*
X6332864Y-44390667D01*
X6774338Y-44390667D01*
X6916383Y-44734443D01*
X7179173Y-44997692D01*
X7522701Y-45140338D01*
X7894667Y-45140662D01*
X8238443Y-44998617D01*
X8501692Y-44735827D01*
X8644338Y-44392299D01*
X8644502Y-44203167D01*
X41026838Y-44203167D01*
X41168883Y-44546943D01*
X41431673Y-44810192D01*
X41775201Y-44952838D01*
X42147167Y-44953162D01*
X42490943Y-44811117D01*
X42754192Y-44548327D01*
X42896838Y-44204799D01*
X42896891Y-44143167D01*
X51026838Y-44143167D01*
X51168883Y-44486943D01*
X51431673Y-44750192D01*
X51775201Y-44892838D01*
X52147167Y-44893162D01*
X52245082Y-44852704D01*
X52069808Y-45027673D01*
X51927162Y-45371201D01*
X51926838Y-45743167D01*
X52068883Y-46086943D01*
X52331673Y-46350192D01*
X52675201Y-46492838D01*
X53047167Y-46493162D01*
X53117582Y-46464067D01*
X53779338Y-46464067D01*
X53921383Y-46807843D01*
X54184173Y-47071092D01*
X54527701Y-47213738D01*
X54899667Y-47214062D01*
X55243443Y-47072017D01*
X55506692Y-46809227D01*
X55649338Y-46465699D01*
X55649662Y-46093733D01*
X55558527Y-45873167D01*
X57802138Y-45873167D01*
X57944183Y-46216943D01*
X58206973Y-46480192D01*
X58550501Y-46622838D01*
X58922467Y-46623162D01*
X59266243Y-46481117D01*
X59529492Y-46218327D01*
X59672138Y-45874799D01*
X59672462Y-45502833D01*
X59530417Y-45159057D01*
X59267627Y-44895808D01*
X59020442Y-44793167D01*
X61166838Y-44793167D01*
X61308883Y-45136943D01*
X61571673Y-45400192D01*
X61915201Y-45542838D01*
X62287167Y-45543162D01*
X62630943Y-45401117D01*
X62894192Y-45138327D01*
X63036838Y-44794799D01*
X63036883Y-44742967D01*
X71976838Y-44742967D01*
X72118883Y-45086743D01*
X72381673Y-45349992D01*
X72725201Y-45492638D01*
X73097167Y-45492962D01*
X73440943Y-45350917D01*
X73704192Y-45088127D01*
X73846838Y-44744599D01*
X73847162Y-44372633D01*
X73839119Y-44353167D01*
X76006838Y-44353167D01*
X76148883Y-44696943D01*
X76411673Y-44960192D01*
X76755201Y-45102838D01*
X77127167Y-45103162D01*
X77470943Y-44961117D01*
X77734192Y-44698327D01*
X77876838Y-44354799D01*
X77877132Y-44017578D01*
X78018883Y-44360643D01*
X78188865Y-44530922D01*
X77913057Y-44644883D01*
X77649808Y-44907673D01*
X77507162Y-45251201D01*
X77506838Y-45623167D01*
X77648883Y-45966943D01*
X77911673Y-46230192D01*
X78255201Y-46372838D01*
X78627167Y-46373162D01*
X78970943Y-46231117D01*
X79234192Y-45968327D01*
X79275392Y-45869108D01*
X79525201Y-45972838D01*
X79897167Y-45973162D01*
X80240943Y-45831117D01*
X80504192Y-45568327D01*
X80646838Y-45224799D01*
X80647162Y-44852833D01*
X80505117Y-44509057D01*
X80470654Y-44474534D01*
X80720943Y-44371117D01*
X80984192Y-44108327D01*
X81126838Y-43764799D01*
X81127162Y-43392833D01*
X80985117Y-43049057D01*
X80722327Y-42785808D01*
X80378799Y-42643162D01*
X80006833Y-42642838D01*
X79663057Y-42784883D01*
X79399808Y-43047673D01*
X79385316Y-43082572D01*
X79342327Y-43039508D01*
X78998799Y-42896862D01*
X78626833Y-42896538D01*
X78283057Y-43038583D01*
X78019808Y-43301373D01*
X77877162Y-43644901D01*
X77876868Y-43982122D01*
X77735117Y-43639057D01*
X77472327Y-43375808D01*
X77128799Y-43233162D01*
X76756833Y-43232838D01*
X76413057Y-43374883D01*
X76149808Y-43637673D01*
X76007162Y-43981201D01*
X76006838Y-44353167D01*
X73839119Y-44353167D01*
X73705117Y-44028857D01*
X73442327Y-43765608D01*
X73098799Y-43622962D01*
X72726833Y-43622638D01*
X72383057Y-43764683D01*
X72119808Y-44027473D01*
X71977162Y-44371001D01*
X71976838Y-44742967D01*
X63036883Y-44742967D01*
X63037162Y-44422833D01*
X62895117Y-44079057D01*
X62632327Y-43815808D01*
X62288799Y-43673162D01*
X61916833Y-43672838D01*
X61573057Y-43814883D01*
X61309808Y-44077673D01*
X61167162Y-44421201D01*
X61166838Y-44793167D01*
X59020442Y-44793167D01*
X58924099Y-44753162D01*
X58552133Y-44752838D01*
X58208357Y-44894883D01*
X57945108Y-45157673D01*
X57802462Y-45501201D01*
X57802138Y-45873167D01*
X55558527Y-45873167D01*
X55507617Y-45749957D01*
X55244827Y-45486708D01*
X54901299Y-45344062D01*
X54529333Y-45343738D01*
X54185557Y-45485783D01*
X53922308Y-45748573D01*
X53779662Y-46092101D01*
X53779338Y-46464067D01*
X53117582Y-46464067D01*
X53390943Y-46351117D01*
X53654192Y-46088327D01*
X53796838Y-45744799D01*
X53797162Y-45372833D01*
X53655117Y-45029057D01*
X53392327Y-44765808D01*
X53048799Y-44623162D01*
X52676833Y-44622838D01*
X52578918Y-44663296D01*
X52754192Y-44488327D01*
X52827807Y-44311044D01*
X53145201Y-44442838D01*
X53517167Y-44443162D01*
X53860943Y-44301117D01*
X54124192Y-44038327D01*
X54266838Y-43694799D01*
X54267162Y-43322833D01*
X54125117Y-42979057D01*
X53862327Y-42715808D01*
X53518799Y-42573162D01*
X53146833Y-42572838D01*
X52803057Y-42714883D01*
X52539808Y-42977673D01*
X52466193Y-43154956D01*
X52148799Y-43023162D01*
X51776833Y-43022838D01*
X51433057Y-43164883D01*
X51169808Y-43427673D01*
X51027162Y-43771201D01*
X51026838Y-44143167D01*
X42896891Y-44143167D01*
X42897162Y-43832833D01*
X42755117Y-43489057D01*
X42492327Y-43225808D01*
X42148799Y-43083162D01*
X41776833Y-43082838D01*
X41433057Y-43224883D01*
X41169808Y-43487673D01*
X41027162Y-43831201D01*
X41026838Y-44203167D01*
X8644502Y-44203167D01*
X8644662Y-44020333D01*
X8502617Y-43676557D01*
X8239827Y-43413308D01*
X7896299Y-43270662D01*
X7524333Y-43270338D01*
X7180557Y-43412383D01*
X6917308Y-43675173D01*
X6774662Y-44018701D01*
X6774338Y-44390667D01*
X6332864Y-44390667D01*
X6376031Y-44327490D01*
X6427040Y-44075600D01*
X6427040Y-42878167D01*
X48071838Y-42878167D01*
X48213883Y-43221943D01*
X48476673Y-43485192D01*
X48820201Y-43627838D01*
X49192167Y-43628162D01*
X49535943Y-43486117D01*
X49799192Y-43223327D01*
X49941838Y-42879799D01*
X49942162Y-42507833D01*
X49808014Y-42183167D01*
X53616838Y-42183167D01*
X53758883Y-42526943D01*
X54021673Y-42790192D01*
X54365201Y-42932838D01*
X54737167Y-42933162D01*
X55080943Y-42791117D01*
X55344192Y-42528327D01*
X55486838Y-42184799D01*
X55487162Y-41812833D01*
X55345117Y-41469057D01*
X55082327Y-41205808D01*
X54738799Y-41063162D01*
X54366833Y-41062838D01*
X54023057Y-41204883D01*
X53759808Y-41467673D01*
X53617162Y-41811201D01*
X53616838Y-42183167D01*
X49808014Y-42183167D01*
X49800117Y-42164057D01*
X49537327Y-41900808D01*
X49193799Y-41758162D01*
X48821833Y-41757838D01*
X48478057Y-41899883D01*
X48214808Y-42162673D01*
X48072162Y-42506201D01*
X48071838Y-42878167D01*
X6427040Y-42878167D01*
X6427040Y-41840400D01*
X6382762Y-41605083D01*
X6243690Y-41388959D01*
X6031490Y-41243969D01*
X5779600Y-41192960D01*
X3544400Y-41192960D01*
X3309083Y-41237238D01*
X3092959Y-41376310D01*
X2947969Y-41588510D01*
X2896960Y-41840400D01*
X947000Y-41840400D01*
X947000Y-38343167D01*
X12226838Y-38343167D01*
X12368883Y-38686943D01*
X12631673Y-38950192D01*
X12975201Y-39092838D01*
X13347167Y-39093162D01*
X13690943Y-38951117D01*
X13954192Y-38688327D01*
X14060600Y-38432067D01*
X20306638Y-38432067D01*
X20448683Y-38775843D01*
X20711473Y-39039092D01*
X21055001Y-39181738D01*
X21426967Y-39182062D01*
X21629818Y-39098246D01*
X21681673Y-39150192D01*
X22025201Y-39292838D01*
X22397167Y-39293162D01*
X22740943Y-39151117D01*
X22987138Y-38905352D01*
X23161673Y-39080192D01*
X23505201Y-39222838D01*
X23814915Y-39223108D01*
X24001673Y-39410192D01*
X24345201Y-39552838D01*
X24717167Y-39553162D01*
X25060943Y-39411117D01*
X25324192Y-39148327D01*
X25349441Y-39087520D01*
X25601673Y-39340192D01*
X25945201Y-39482838D01*
X26317167Y-39483162D01*
X26660943Y-39341117D01*
X26847106Y-39155278D01*
X26846838Y-39463167D01*
X26988883Y-39806943D01*
X27251673Y-40070192D01*
X27595201Y-40212838D01*
X27967167Y-40213162D01*
X28310943Y-40071117D01*
X28574192Y-39808327D01*
X28716838Y-39464799D01*
X28717162Y-39092833D01*
X28575117Y-38749057D01*
X28312327Y-38485808D01*
X28226092Y-38450000D01*
X28314756Y-38390756D01*
X28324756Y-38380757D01*
X28389963Y-38283167D01*
X29896838Y-38283167D01*
X30038883Y-38626943D01*
X30301673Y-38890192D01*
X30645201Y-39032838D01*
X31017167Y-39033162D01*
X31360943Y-38891117D01*
X31624192Y-38628327D01*
X31742601Y-38343167D01*
X32426838Y-38343167D01*
X32568883Y-38686943D01*
X32831673Y-38950192D01*
X33175201Y-39092838D01*
X33454819Y-39093082D01*
X33601673Y-39240192D01*
X33945201Y-39382838D01*
X34317167Y-39383162D01*
X34660943Y-39241117D01*
X34924192Y-38978327D01*
X35066838Y-38634799D01*
X35067154Y-38271267D01*
X36616338Y-38271267D01*
X36758383Y-38615043D01*
X37021173Y-38878292D01*
X37364701Y-39020938D01*
X37736667Y-39021262D01*
X38080443Y-38879217D01*
X38236765Y-38723167D01*
X39276838Y-38723167D01*
X39418883Y-39066943D01*
X39681673Y-39330192D01*
X40025201Y-39472838D01*
X40397167Y-39473162D01*
X40542366Y-39413167D01*
X43006838Y-39413167D01*
X43148883Y-39756943D01*
X43411673Y-40020192D01*
X43755201Y-40162838D01*
X44127167Y-40163162D01*
X44470943Y-40021117D01*
X44734192Y-39758327D01*
X44876838Y-39414799D01*
X44877162Y-39042833D01*
X44735117Y-38699057D01*
X44472327Y-38435808D01*
X44128799Y-38293162D01*
X43756833Y-38292838D01*
X43413057Y-38434883D01*
X43149808Y-38697673D01*
X43007162Y-39041201D01*
X43006838Y-39413167D01*
X40542366Y-39413167D01*
X40740943Y-39331117D01*
X41004192Y-39068327D01*
X41146838Y-38724799D01*
X41147162Y-38352833D01*
X41005117Y-38009057D01*
X40742327Y-37745808D01*
X40495142Y-37643167D01*
X47726838Y-37643167D01*
X47868883Y-37986943D01*
X48131673Y-38250192D01*
X48475201Y-38392838D01*
X48847167Y-38393162D01*
X49190943Y-38251117D01*
X49289064Y-38153167D01*
X70576838Y-38153167D01*
X70718883Y-38496943D01*
X70981673Y-38760192D01*
X71325201Y-38902838D01*
X71697167Y-38903162D01*
X72040943Y-38761117D01*
X72169116Y-38633167D01*
X76066838Y-38633167D01*
X76208883Y-38976943D01*
X76471673Y-39240192D01*
X76815201Y-39382838D01*
X77187167Y-39383162D01*
X77530943Y-39241117D01*
X77689168Y-39083167D01*
X79436838Y-39083167D01*
X79578883Y-39426943D01*
X79841673Y-39690192D01*
X80185201Y-39832838D01*
X80557167Y-39833162D01*
X80900943Y-39691117D01*
X81164192Y-39428327D01*
X81306838Y-39084799D01*
X81307162Y-38712833D01*
X81165117Y-38369057D01*
X80902327Y-38105808D01*
X80558799Y-37963162D01*
X80186833Y-37962838D01*
X79843057Y-38104883D01*
X79579808Y-38367673D01*
X79437162Y-38711201D01*
X79436838Y-39083167D01*
X77689168Y-39083167D01*
X77794192Y-38978327D01*
X77936838Y-38634799D01*
X77937162Y-38262833D01*
X77795117Y-37919057D01*
X77532327Y-37655808D01*
X77188799Y-37513162D01*
X76816833Y-37512838D01*
X76473057Y-37654883D01*
X76209808Y-37917673D01*
X76067162Y-38261201D01*
X76066838Y-38633167D01*
X72169116Y-38633167D01*
X72304192Y-38498327D01*
X72446838Y-38154799D01*
X72447162Y-37782833D01*
X72305117Y-37439057D01*
X72149499Y-37283167D01*
X73356838Y-37283167D01*
X73498883Y-37626943D01*
X73761673Y-37890192D01*
X74105201Y-38032838D01*
X74477167Y-38033162D01*
X74820943Y-37891117D01*
X75084192Y-37628327D01*
X75226838Y-37284799D01*
X75227162Y-36912833D01*
X75085117Y-36569057D01*
X74822327Y-36305808D01*
X74478799Y-36163162D01*
X74106833Y-36162838D01*
X73763057Y-36304883D01*
X73499808Y-36567673D01*
X73357162Y-36911201D01*
X73356838Y-37283167D01*
X72149499Y-37283167D01*
X72042327Y-37175808D01*
X71698799Y-37033162D01*
X71326833Y-37032838D01*
X70983057Y-37174883D01*
X70719808Y-37437673D01*
X70577162Y-37781201D01*
X70576838Y-38153167D01*
X49289064Y-38153167D01*
X49454192Y-37988327D01*
X49596838Y-37644799D01*
X49597048Y-37403167D01*
X56806838Y-37403167D01*
X56948883Y-37746943D01*
X57211673Y-38010192D01*
X57555201Y-38152838D01*
X57927167Y-38153162D01*
X58270943Y-38011117D01*
X58534192Y-37748327D01*
X58676838Y-37404799D01*
X58676853Y-37387841D01*
X58910943Y-37291117D01*
X59174192Y-37028327D01*
X59316838Y-36684799D01*
X59317162Y-36312833D01*
X59175117Y-35969057D01*
X58912327Y-35705808D01*
X58568799Y-35563162D01*
X58196833Y-35562838D01*
X57853057Y-35704883D01*
X57589808Y-35967673D01*
X57447162Y-36311201D01*
X57447147Y-36328159D01*
X57213057Y-36424883D01*
X56949808Y-36687673D01*
X56807162Y-37031201D01*
X56806838Y-37403167D01*
X49597048Y-37403167D01*
X49597162Y-37272833D01*
X49455117Y-36929057D01*
X49192327Y-36665808D01*
X48848799Y-36523162D01*
X48476833Y-36522838D01*
X48133057Y-36664883D01*
X47869808Y-36927673D01*
X47727162Y-37271201D01*
X47726838Y-37643167D01*
X40495142Y-37643167D01*
X40398799Y-37603162D01*
X40026833Y-37602838D01*
X39683057Y-37744883D01*
X39419808Y-38007673D01*
X39277162Y-38351201D01*
X39276838Y-38723167D01*
X38236765Y-38723167D01*
X38343692Y-38616427D01*
X38486338Y-38272899D01*
X38486662Y-37900933D01*
X38344617Y-37557157D01*
X38081827Y-37293908D01*
X37738299Y-37151262D01*
X37366333Y-37150938D01*
X37022557Y-37292983D01*
X36759308Y-37555773D01*
X36616662Y-37899301D01*
X36616338Y-38271267D01*
X35067154Y-38271267D01*
X35067162Y-38262833D01*
X34925117Y-37919057D01*
X34662327Y-37655808D01*
X34318799Y-37513162D01*
X34039181Y-37512918D01*
X33892327Y-37365808D01*
X33548799Y-37223162D01*
X33176833Y-37222838D01*
X32833057Y-37364883D01*
X32569808Y-37627673D01*
X32427162Y-37971201D01*
X32426838Y-38343167D01*
X31742601Y-38343167D01*
X31766838Y-38284799D01*
X31767162Y-37912833D01*
X31625117Y-37569057D01*
X31362327Y-37305808D01*
X31018799Y-37163162D01*
X30646833Y-37162838D01*
X30303057Y-37304883D01*
X30039808Y-37567673D01*
X29897162Y-37911201D01*
X29896838Y-38283167D01*
X28389963Y-38283167D01*
X28463686Y-38172833D01*
X28500342Y-38117974D01*
X28562000Y-37808000D01*
X28562000Y-37768000D01*
X28500342Y-37458026D01*
X28324756Y-37195244D01*
X28061974Y-37019658D01*
X27752000Y-36958000D01*
X27442026Y-37019658D01*
X27207279Y-37176512D01*
X27078799Y-37123162D01*
X26706833Y-37122838D01*
X26363057Y-37264883D01*
X26099808Y-37527673D01*
X26064402Y-37612940D01*
X25946833Y-37612838D01*
X25603057Y-37754883D01*
X25339808Y-38017673D01*
X25314559Y-38078480D01*
X25062327Y-37825808D01*
X24718799Y-37683162D01*
X24409085Y-37682892D01*
X24222327Y-37495808D01*
X23878799Y-37353162D01*
X23506833Y-37352838D01*
X23163057Y-37494883D01*
X22916862Y-37740648D01*
X22742327Y-37565808D01*
X22398799Y-37423162D01*
X22026833Y-37422838D01*
X21823982Y-37506654D01*
X21772127Y-37454708D01*
X21428599Y-37312062D01*
X21056633Y-37311738D01*
X20712857Y-37453783D01*
X20449608Y-37716573D01*
X20306962Y-38060101D01*
X20306638Y-38432067D01*
X14060600Y-38432067D01*
X14096838Y-38344799D01*
X14097162Y-37972833D01*
X13955117Y-37629057D01*
X13692327Y-37365808D01*
X13348799Y-37223162D01*
X12976833Y-37222838D01*
X12633057Y-37364883D01*
X12369808Y-37627673D01*
X12227162Y-37971201D01*
X12226838Y-38343167D01*
X947000Y-38343167D01*
X947000Y-35658000D01*
X2127000Y-35658000D01*
X2281905Y-36436761D01*
X2723038Y-37096962D01*
X3383239Y-37538095D01*
X4162000Y-37693000D01*
X4940761Y-37538095D01*
X5600962Y-37096962D01*
X5837360Y-36743167D01*
X45826838Y-36743167D01*
X45968883Y-37086943D01*
X46231673Y-37350192D01*
X46575201Y-37492838D01*
X46947167Y-37493162D01*
X47290943Y-37351117D01*
X47554192Y-37088327D01*
X47696838Y-36744799D01*
X47697162Y-36372833D01*
X47555117Y-36029057D01*
X47292327Y-35765808D01*
X46948799Y-35623162D01*
X46576833Y-35622838D01*
X46233057Y-35764883D01*
X45969808Y-36027673D01*
X45827162Y-36371201D01*
X45826838Y-36743167D01*
X5837360Y-36743167D01*
X6042095Y-36436761D01*
X6197000Y-35658000D01*
X6089243Y-35116267D01*
X35148338Y-35116267D01*
X35290383Y-35460043D01*
X35553173Y-35723292D01*
X35896701Y-35865938D01*
X36268667Y-35866262D01*
X36612443Y-35724217D01*
X36875692Y-35461427D01*
X37018338Y-35117899D01*
X37018662Y-34745933D01*
X36905834Y-34472867D01*
X38374438Y-34472867D01*
X38516483Y-34816643D01*
X38779273Y-35079892D01*
X39122801Y-35222538D01*
X39494767Y-35222862D01*
X39838543Y-35080817D01*
X40101792Y-34818027D01*
X40161029Y-34675367D01*
X46598438Y-34675367D01*
X46740483Y-35019143D01*
X47003273Y-35282392D01*
X47346801Y-35425038D01*
X47718767Y-35425362D01*
X48062543Y-35283317D01*
X48090141Y-35255767D01*
X74236838Y-35255767D01*
X74378883Y-35599543D01*
X74641673Y-35862792D01*
X74985201Y-36005438D01*
X75357167Y-36005762D01*
X75700943Y-35863717D01*
X75907019Y-35658000D01*
X79127000Y-35658000D01*
X79281905Y-36436761D01*
X79723038Y-37096962D01*
X80383239Y-37538095D01*
X81162000Y-37693000D01*
X81940761Y-37538095D01*
X82600962Y-37096962D01*
X83042095Y-36436761D01*
X83197000Y-35658000D01*
X83042095Y-34879239D01*
X82600962Y-34219038D01*
X81940761Y-33777905D01*
X81162000Y-33623000D01*
X80383239Y-33777905D01*
X79723038Y-34219038D01*
X79281905Y-34879239D01*
X79127000Y-35658000D01*
X75907019Y-35658000D01*
X75964192Y-35600927D01*
X76106838Y-35257399D01*
X76107162Y-34885433D01*
X75965117Y-34541657D01*
X75702327Y-34278408D01*
X75358799Y-34135762D01*
X74986833Y-34135438D01*
X74643057Y-34277483D01*
X74379808Y-34540273D01*
X74237162Y-34883801D01*
X74236838Y-35255767D01*
X48090141Y-35255767D01*
X48325792Y-35020527D01*
X48468438Y-34676999D01*
X48468762Y-34305033D01*
X48326717Y-33961257D01*
X48063927Y-33698008D01*
X47720399Y-33555362D01*
X47348433Y-33555038D01*
X47004657Y-33697083D01*
X46741408Y-33959873D01*
X46598762Y-34303401D01*
X46598438Y-34675367D01*
X40161029Y-34675367D01*
X40244438Y-34474499D01*
X40244762Y-34102533D01*
X40102717Y-33758757D01*
X39839927Y-33495508D01*
X39496399Y-33352862D01*
X39124433Y-33352538D01*
X38780657Y-33494583D01*
X38517408Y-33757373D01*
X38374762Y-34100901D01*
X38374438Y-34472867D01*
X36905834Y-34472867D01*
X36876617Y-34402157D01*
X36613827Y-34138908D01*
X36270299Y-33996262D01*
X35898333Y-33995938D01*
X35554557Y-34137983D01*
X35291308Y-34400773D01*
X35148662Y-34744301D01*
X35148338Y-35116267D01*
X6089243Y-35116267D01*
X6042095Y-34879239D01*
X5600962Y-34219038D01*
X4940761Y-33777905D01*
X4162000Y-33623000D01*
X3383239Y-33777905D01*
X2723038Y-34219038D01*
X2281905Y-34879239D01*
X2127000Y-35658000D01*
X947000Y-35658000D01*
X947000Y-33433167D01*
X28526838Y-33433167D01*
X28668883Y-33776943D01*
X28931673Y-34040192D01*
X29275201Y-34182838D01*
X29647167Y-34183162D01*
X29990943Y-34041117D01*
X30254192Y-33778327D01*
X30396838Y-33434799D01*
X30397162Y-33062833D01*
X30281048Y-32781815D01*
X30416838Y-32454799D01*
X30417162Y-32082833D01*
X30275117Y-31739057D01*
X30012327Y-31475808D01*
X29668799Y-31333162D01*
X29296833Y-31332838D01*
X28953057Y-31474883D01*
X28689808Y-31737673D01*
X28547162Y-32081201D01*
X28546838Y-32453167D01*
X28662952Y-32734185D01*
X28527162Y-33061201D01*
X28526838Y-33433167D01*
X947000Y-33433167D01*
X947000Y-30713167D01*
X51376838Y-30713167D01*
X51518883Y-31056943D01*
X51781673Y-31320192D01*
X52125201Y-31462838D01*
X52497167Y-31463162D01*
X52840943Y-31321117D01*
X53104192Y-31058327D01*
X53246838Y-30714799D01*
X53247139Y-30368967D01*
X54151038Y-30368967D01*
X54293083Y-30712743D01*
X54555873Y-30975992D01*
X54686265Y-31030136D01*
X54686238Y-31060767D01*
X54828283Y-31404543D01*
X55091073Y-31667792D01*
X55286122Y-31748784D01*
X55285838Y-32075167D01*
X55427883Y-32418943D01*
X55690673Y-32682192D01*
X56034201Y-32824838D01*
X56406167Y-32825162D01*
X56749943Y-32683117D01*
X57013192Y-32420327D01*
X57155838Y-32076799D01*
X57156041Y-31843167D01*
X61226838Y-31843167D01*
X61368883Y-32186943D01*
X61464710Y-32282937D01*
X61369808Y-32377673D01*
X61227162Y-32721201D01*
X61226838Y-33093167D01*
X61368883Y-33436943D01*
X61631673Y-33700192D01*
X61975201Y-33842838D01*
X62347167Y-33843162D01*
X62690943Y-33701117D01*
X62954192Y-33438327D01*
X63096838Y-33094799D01*
X63097162Y-32722833D01*
X62955117Y-32379057D01*
X62859290Y-32283063D01*
X62954192Y-32188327D01*
X63096838Y-31844799D01*
X63097162Y-31472833D01*
X62955117Y-31129057D01*
X62692327Y-30865808D01*
X62348799Y-30723162D01*
X61976833Y-30722838D01*
X61633057Y-30864883D01*
X61369808Y-31127673D01*
X61227162Y-31471201D01*
X61226838Y-31843167D01*
X57156041Y-31843167D01*
X57156162Y-31704833D01*
X57014117Y-31361057D01*
X56751327Y-31097808D01*
X56556278Y-31016816D01*
X56556562Y-30690433D01*
X56414517Y-30346657D01*
X56151727Y-30083408D01*
X56021335Y-30029264D01*
X56021362Y-29998633D01*
X55879317Y-29654857D01*
X55616527Y-29391608D01*
X55317083Y-29267267D01*
X55851538Y-29267267D01*
X55993583Y-29611043D01*
X56256373Y-29874292D01*
X56599901Y-30016938D01*
X56971867Y-30017262D01*
X57315643Y-29875217D01*
X57528063Y-29663167D01*
X62636838Y-29663167D01*
X62778883Y-30006943D01*
X63041673Y-30270192D01*
X63385201Y-30412838D01*
X63757167Y-30413162D01*
X64100943Y-30271117D01*
X64364192Y-30008327D01*
X64506838Y-29664799D01*
X64507162Y-29292833D01*
X64365117Y-28949057D01*
X64102327Y-28685808D01*
X63758799Y-28543162D01*
X63386833Y-28542838D01*
X63043057Y-28684883D01*
X62779808Y-28947673D01*
X62637162Y-29291201D01*
X62636838Y-29663167D01*
X57528063Y-29663167D01*
X57578892Y-29612427D01*
X57703320Y-29312773D01*
X57900943Y-29231117D01*
X58164192Y-28968327D01*
X58306838Y-28624799D01*
X58307162Y-28252833D01*
X58165117Y-27909057D01*
X57902327Y-27645808D01*
X57558799Y-27503162D01*
X57186833Y-27502838D01*
X56843057Y-27644883D01*
X56579808Y-27907673D01*
X56455380Y-28207327D01*
X56257757Y-28288983D01*
X55994508Y-28551773D01*
X55851862Y-28895301D01*
X55851538Y-29267267D01*
X55317083Y-29267267D01*
X55272999Y-29248962D01*
X54901033Y-29248638D01*
X54557257Y-29390683D01*
X54294008Y-29653473D01*
X54151362Y-29997001D01*
X54151038Y-30368967D01*
X53247139Y-30368967D01*
X53247162Y-30342833D01*
X53105117Y-29999057D01*
X52842327Y-29735808D01*
X52498799Y-29593162D01*
X52126833Y-29592838D01*
X51783057Y-29734883D01*
X51519808Y-29997673D01*
X51377162Y-30341201D01*
X51376838Y-30713167D01*
X947000Y-30713167D01*
X947000Y-29943167D01*
X39199938Y-29943167D01*
X39341983Y-30286943D01*
X39604773Y-30550192D01*
X39948301Y-30692838D01*
X40320267Y-30693162D01*
X40664043Y-30551117D01*
X40927292Y-30288327D01*
X41069938Y-29944799D01*
X41070262Y-29572833D01*
X40928217Y-29229057D01*
X40665427Y-28965808D01*
X40321899Y-28823162D01*
X39949933Y-28822838D01*
X39606157Y-28964883D01*
X39342908Y-29227673D01*
X39200262Y-29571201D01*
X39199938Y-29943167D01*
X947000Y-29943167D01*
X947000Y-27913167D01*
X37586838Y-27913167D01*
X37728883Y-28256943D01*
X37991673Y-28520192D01*
X38335201Y-28662838D01*
X38707167Y-28663162D01*
X39050943Y-28521117D01*
X39314192Y-28258327D01*
X39455314Y-27918467D01*
X50682438Y-27918467D01*
X50824483Y-28262243D01*
X51087273Y-28525492D01*
X51430801Y-28668138D01*
X51802767Y-28668462D01*
X52146543Y-28526417D01*
X52409792Y-28263627D01*
X52552438Y-27920099D01*
X52552762Y-27548133D01*
X52445223Y-27287867D01*
X61166138Y-27287867D01*
X61308183Y-27631643D01*
X61570973Y-27894892D01*
X61914501Y-28037538D01*
X62286467Y-28037862D01*
X62630243Y-27895817D01*
X62893492Y-27633027D01*
X63036138Y-27289499D01*
X63036462Y-26917533D01*
X62894417Y-26573757D01*
X62631627Y-26310508D01*
X62288099Y-26167862D01*
X61916133Y-26167538D01*
X61572357Y-26309583D01*
X61309108Y-26572373D01*
X61166462Y-26915901D01*
X61166138Y-27287867D01*
X52445223Y-27287867D01*
X52410717Y-27204357D01*
X52147927Y-26941108D01*
X51804399Y-26798462D01*
X51432433Y-26798138D01*
X51088657Y-26940183D01*
X50825408Y-27202973D01*
X50682762Y-27546501D01*
X50682438Y-27918467D01*
X39455314Y-27918467D01*
X39456838Y-27914799D01*
X39457162Y-27542833D01*
X39427455Y-27470935D01*
X39506573Y-27550192D01*
X39850101Y-27692838D01*
X40222067Y-27693162D01*
X40565843Y-27551117D01*
X40613178Y-27503865D01*
X40755201Y-27562838D01*
X41127167Y-27563162D01*
X41470943Y-27421117D01*
X41734192Y-27158327D01*
X41876838Y-26814799D01*
X41877162Y-26442833D01*
X41735117Y-26099057D01*
X41472327Y-25835808D01*
X41128799Y-25693162D01*
X40756833Y-25692838D01*
X40413057Y-25834883D01*
X40365722Y-25882135D01*
X40223699Y-25823162D01*
X39851733Y-25822838D01*
X39507957Y-25964883D01*
X39244708Y-26227673D01*
X39102062Y-26571201D01*
X39101738Y-26943167D01*
X39131445Y-27015065D01*
X39052327Y-26935808D01*
X38708799Y-26793162D01*
X38336833Y-26792838D01*
X37993057Y-26934883D01*
X37729808Y-27197673D01*
X37587162Y-27541201D01*
X37586838Y-27913167D01*
X947000Y-27913167D01*
X947000Y-25303167D01*
X29846838Y-25303167D01*
X29988883Y-25646943D01*
X30251673Y-25910192D01*
X30595201Y-26052838D01*
X30967167Y-26053162D01*
X31310943Y-25911117D01*
X31399046Y-25823167D01*
X35436838Y-25823167D01*
X35578883Y-26166943D01*
X35841673Y-26430192D01*
X36185201Y-26572838D01*
X36557167Y-26573162D01*
X36900943Y-26431117D01*
X37164192Y-26168327D01*
X37306838Y-25824799D01*
X37307162Y-25452833D01*
X37165117Y-25109057D01*
X36902327Y-24845808D01*
X36558799Y-24703162D01*
X36186833Y-24702838D01*
X35843057Y-24844883D01*
X35579808Y-25107673D01*
X35437162Y-25451201D01*
X35436838Y-25823167D01*
X31399046Y-25823167D01*
X31574192Y-25648327D01*
X31716838Y-25304799D01*
X31717162Y-24932833D01*
X31575117Y-24589057D01*
X31312327Y-24325808D01*
X30968799Y-24183162D01*
X30596833Y-24182838D01*
X30253057Y-24324883D01*
X29989808Y-24587673D01*
X29847162Y-24931201D01*
X29846838Y-25303167D01*
X947000Y-25303167D01*
X947000Y-23593167D01*
X16753238Y-23593167D01*
X16895283Y-23936943D01*
X17158073Y-24200192D01*
X17463604Y-24327060D01*
X17589083Y-24630743D01*
X17851873Y-24893992D01*
X18195401Y-25036638D01*
X18567367Y-25036962D01*
X18911143Y-24894917D01*
X19174392Y-24632127D01*
X19317038Y-24288599D01*
X19317362Y-23916633D01*
X19175317Y-23572857D01*
X18912527Y-23309608D01*
X18606996Y-23182740D01*
X18481517Y-22879057D01*
X18218727Y-22615808D01*
X17875199Y-22473162D01*
X17503233Y-22472838D01*
X17159457Y-22614883D01*
X16896208Y-22877673D01*
X16753562Y-23221201D01*
X16753238Y-23593167D01*
X947000Y-23593167D01*
X947000Y-22343167D01*
X18426838Y-22343167D01*
X18568883Y-22686943D01*
X18831673Y-22950192D01*
X19175201Y-23092838D01*
X19547167Y-23093162D01*
X19890943Y-22951117D01*
X20119291Y-22723167D01*
X30696838Y-22723167D01*
X30838883Y-23066943D01*
X31101673Y-23330192D01*
X31445201Y-23472838D01*
X31817167Y-23473162D01*
X32160943Y-23331117D01*
X32424192Y-23068327D01*
X32566838Y-22724799D01*
X32566895Y-22659317D01*
X32610943Y-22641117D01*
X32874192Y-22378327D01*
X33016838Y-22034799D01*
X33017162Y-21662833D01*
X33004905Y-21633167D01*
X39956838Y-21633167D01*
X40098883Y-21976943D01*
X40361673Y-22240192D01*
X40705201Y-22382838D01*
X41077167Y-22383162D01*
X41420943Y-22241117D01*
X41684192Y-21978327D01*
X41826838Y-21634799D01*
X41827162Y-21262833D01*
X41685117Y-20919057D01*
X41422327Y-20655808D01*
X41078799Y-20513162D01*
X40706833Y-20512838D01*
X40363057Y-20654883D01*
X40099808Y-20917673D01*
X39957162Y-21261201D01*
X39956838Y-21633167D01*
X33004905Y-21633167D01*
X32875117Y-21319057D01*
X32612327Y-21055808D01*
X32268799Y-20913162D01*
X31896833Y-20912838D01*
X31553057Y-21054883D01*
X31289808Y-21317673D01*
X31147162Y-21661201D01*
X31147105Y-21726683D01*
X31103057Y-21744883D01*
X30839808Y-22007673D01*
X30697162Y-22351201D01*
X30696838Y-22723167D01*
X20119291Y-22723167D01*
X20154192Y-22688327D01*
X20296838Y-22344799D01*
X20297162Y-21972833D01*
X20155117Y-21629057D01*
X19892327Y-21365808D01*
X19548799Y-21223162D01*
X19176833Y-21222838D01*
X18833057Y-21364883D01*
X18569808Y-21627673D01*
X18427162Y-21971201D01*
X18426838Y-22343167D01*
X947000Y-22343167D01*
X947000Y-19813167D01*
X22686838Y-19813167D01*
X22828883Y-20156943D01*
X23091673Y-20420192D01*
X23435201Y-20562838D01*
X23807167Y-20563162D01*
X24150943Y-20421117D01*
X24414192Y-20158327D01*
X24462010Y-20043167D01*
X41226838Y-20043167D01*
X41368883Y-20386943D01*
X41631673Y-20650192D01*
X41975201Y-20792838D01*
X42347167Y-20793162D01*
X42352434Y-20790986D01*
X42215508Y-20927673D01*
X42072862Y-21271201D01*
X42072538Y-21643167D01*
X42124849Y-21769769D01*
X42103608Y-21790973D01*
X41960962Y-22134501D01*
X41960638Y-22506467D01*
X42102683Y-22850243D01*
X42365473Y-23113492D01*
X42697066Y-23251182D01*
X42696962Y-23370451D01*
X42692327Y-23365808D01*
X42348799Y-23223162D01*
X41976833Y-23222838D01*
X41633057Y-23364883D01*
X41369808Y-23627673D01*
X41227162Y-23971201D01*
X41226838Y-24343167D01*
X41368883Y-24686943D01*
X41631673Y-24950192D01*
X41975201Y-25092838D01*
X42347167Y-25093162D01*
X42690943Y-24951117D01*
X42954192Y-24688327D01*
X43096838Y-24344799D01*
X43097038Y-24115549D01*
X43101673Y-24120192D01*
X43445201Y-24262838D01*
X43817167Y-24263162D01*
X44160943Y-24121117D01*
X44424192Y-23858327D01*
X44566838Y-23514799D01*
X44567162Y-23142833D01*
X44464003Y-22893167D01*
X50926838Y-22893167D01*
X51068883Y-23236943D01*
X51331673Y-23500192D01*
X51675201Y-23642838D01*
X52047167Y-23643162D01*
X52390943Y-23501117D01*
X52654192Y-23238327D01*
X52796838Y-22894799D01*
X52797162Y-22522833D01*
X52655117Y-22179057D01*
X52392327Y-21915808D01*
X52048799Y-21773162D01*
X51676833Y-21772838D01*
X51333057Y-21914883D01*
X51069808Y-22177673D01*
X50927162Y-22521201D01*
X50926838Y-22893167D01*
X44464003Y-22893167D01*
X44425117Y-22799057D01*
X44162327Y-22535808D01*
X43830734Y-22398118D01*
X43830962Y-22136133D01*
X43778651Y-22009531D01*
X43799892Y-21988327D01*
X43942538Y-21644799D01*
X43942862Y-21272833D01*
X43800817Y-20929057D01*
X43538027Y-20665808D01*
X43194499Y-20523162D01*
X42822533Y-20522838D01*
X42817266Y-20525014D01*
X42954192Y-20388327D01*
X43096838Y-20044799D01*
X43097162Y-19672833D01*
X42955117Y-19329057D01*
X42692327Y-19065808D01*
X42348799Y-18923162D01*
X41976833Y-18922838D01*
X41633057Y-19064883D01*
X41369808Y-19327673D01*
X41227162Y-19671201D01*
X41226838Y-20043167D01*
X24462010Y-20043167D01*
X24556838Y-19814799D01*
X24557162Y-19442833D01*
X24415117Y-19099057D01*
X24152327Y-18835808D01*
X23808799Y-18693162D01*
X23436833Y-18692838D01*
X23093057Y-18834883D01*
X22829808Y-19097673D01*
X22687162Y-19441201D01*
X22686838Y-19813167D01*
X947000Y-19813167D01*
X947000Y-18843167D01*
X19526838Y-18843167D01*
X19668883Y-19186943D01*
X19931673Y-19450192D01*
X20275201Y-19592838D01*
X20647167Y-19593162D01*
X20990943Y-19451117D01*
X21254192Y-19188327D01*
X21396838Y-18844799D01*
X21397162Y-18472833D01*
X21306399Y-18253167D01*
X27686838Y-18253167D01*
X27828883Y-18596943D01*
X28091673Y-18860192D01*
X28435201Y-19002838D01*
X28807167Y-19003162D01*
X29150943Y-18861117D01*
X29349238Y-18663167D01*
X46386838Y-18663167D01*
X46528883Y-19006943D01*
X46791673Y-19270192D01*
X46979454Y-19348166D01*
X46899808Y-19427673D01*
X46757162Y-19771201D01*
X46756838Y-20143167D01*
X46898883Y-20486943D01*
X47161673Y-20750192D01*
X47505201Y-20892838D01*
X47877167Y-20893162D01*
X48220943Y-20751117D01*
X48484192Y-20488327D01*
X48626838Y-20144799D01*
X48626909Y-20063167D01*
X49506838Y-20063167D01*
X49648883Y-20406943D01*
X49911673Y-20670192D01*
X50255201Y-20812838D01*
X50627167Y-20813162D01*
X50970943Y-20671117D01*
X51234192Y-20408327D01*
X51294467Y-20263167D01*
X53276838Y-20263167D01*
X53418883Y-20606943D01*
X53681673Y-20870192D01*
X54025201Y-21012838D01*
X54397167Y-21013162D01*
X54740943Y-20871117D01*
X55004192Y-20608327D01*
X55146838Y-20264799D01*
X55147162Y-19892833D01*
X55005117Y-19549057D01*
X54742327Y-19285808D01*
X54639637Y-19243167D01*
X64926838Y-19243167D01*
X65068883Y-19586943D01*
X65331673Y-19850192D01*
X65675201Y-19992838D01*
X66047167Y-19993162D01*
X66390943Y-19851117D01*
X66654192Y-19588327D01*
X66796838Y-19244799D01*
X66797162Y-18872833D01*
X66784905Y-18843167D01*
X75576838Y-18843167D01*
X75718883Y-19186943D01*
X75981673Y-19450192D01*
X76325201Y-19592838D01*
X76697167Y-19593162D01*
X76939173Y-19493167D01*
X78537038Y-19493167D01*
X78679083Y-19836943D01*
X78941873Y-20100192D01*
X79285401Y-20242838D01*
X79657367Y-20243162D01*
X80001143Y-20101117D01*
X80264392Y-19838327D01*
X80407038Y-19494799D01*
X80407362Y-19122833D01*
X80265317Y-18779057D01*
X80002527Y-18515808D01*
X79658999Y-18373162D01*
X79287033Y-18372838D01*
X78943257Y-18514883D01*
X78680008Y-18777673D01*
X78537362Y-19121201D01*
X78537038Y-19493167D01*
X76939173Y-19493167D01*
X77040943Y-19451117D01*
X77304192Y-19188327D01*
X77446838Y-18844799D01*
X77447162Y-18472833D01*
X77305117Y-18129057D01*
X77042327Y-17865808D01*
X76698799Y-17723162D01*
X76326833Y-17722838D01*
X75983057Y-17864883D01*
X75719808Y-18127673D01*
X75577162Y-18471201D01*
X75576838Y-18843167D01*
X66784905Y-18843167D01*
X66655117Y-18529057D01*
X66392327Y-18265808D01*
X66048799Y-18123162D01*
X65676833Y-18122838D01*
X65333057Y-18264883D01*
X65069808Y-18527673D01*
X64927162Y-18871201D01*
X64926838Y-19243167D01*
X54639637Y-19243167D01*
X54398799Y-19143162D01*
X54026833Y-19142838D01*
X53683057Y-19284883D01*
X53419808Y-19547673D01*
X53277162Y-19891201D01*
X53276838Y-20263167D01*
X51294467Y-20263167D01*
X51376838Y-20064799D01*
X51377162Y-19692833D01*
X51235117Y-19349057D01*
X50972327Y-19085808D01*
X50628799Y-18943162D01*
X50256833Y-18942838D01*
X49913057Y-19084883D01*
X49649808Y-19347673D01*
X49507162Y-19691201D01*
X49506838Y-20063167D01*
X48626909Y-20063167D01*
X48627162Y-19772833D01*
X48485117Y-19429057D01*
X48222327Y-19165808D01*
X48034546Y-19087834D01*
X48114192Y-19008327D01*
X48256838Y-18664799D01*
X48257162Y-18292833D01*
X48115117Y-17949057D01*
X47852327Y-17685808D01*
X47508799Y-17543162D01*
X47136833Y-17542838D01*
X46793057Y-17684883D01*
X46529808Y-17947673D01*
X46387162Y-18291201D01*
X46386838Y-18663167D01*
X29349238Y-18663167D01*
X29414192Y-18598327D01*
X29556838Y-18254799D01*
X29557162Y-17882833D01*
X29415117Y-17539057D01*
X29152327Y-17275808D01*
X29049637Y-17233167D01*
X42926838Y-17233167D01*
X43068883Y-17576943D01*
X43331673Y-17840192D01*
X43675201Y-17982838D01*
X44047167Y-17983162D01*
X44390943Y-17841117D01*
X44654192Y-17578327D01*
X44796838Y-17234799D01*
X44797162Y-16862833D01*
X44655117Y-16519057D01*
X44392327Y-16255808D01*
X44361885Y-16243167D01*
X49426838Y-16243167D01*
X49568883Y-16586943D01*
X49831673Y-16850192D01*
X50175201Y-16992838D01*
X50547167Y-16993162D01*
X50890943Y-16851117D01*
X51154192Y-16588327D01*
X51296838Y-16244799D01*
X51297162Y-15872833D01*
X51155117Y-15529057D01*
X50892327Y-15265808D01*
X50548799Y-15123162D01*
X50176833Y-15122838D01*
X49833057Y-15264883D01*
X49569808Y-15527673D01*
X49427162Y-15871201D01*
X49426838Y-16243167D01*
X44361885Y-16243167D01*
X44048799Y-16113162D01*
X43676833Y-16112838D01*
X43333057Y-16254883D01*
X43069808Y-16517673D01*
X42927162Y-16861201D01*
X42926838Y-17233167D01*
X29049637Y-17233167D01*
X28808799Y-17133162D01*
X28436833Y-17132838D01*
X28093057Y-17274883D01*
X27829808Y-17537673D01*
X27687162Y-17881201D01*
X27686838Y-18253167D01*
X21306399Y-18253167D01*
X21255117Y-18129057D01*
X20992327Y-17865808D01*
X20648799Y-17723162D01*
X20276833Y-17722838D01*
X19933057Y-17864883D01*
X19669808Y-18127673D01*
X19527162Y-18471201D01*
X19526838Y-18843167D01*
X947000Y-18843167D01*
X947000Y-17663167D01*
X15076838Y-17663167D01*
X15218883Y-18006943D01*
X15481673Y-18270192D01*
X15825201Y-18412838D01*
X16197167Y-18413162D01*
X16540943Y-18271117D01*
X16804192Y-18008327D01*
X16946838Y-17664799D01*
X16947162Y-17292833D01*
X16805117Y-16949057D01*
X16542327Y-16685808D01*
X16198799Y-16543162D01*
X15826833Y-16542838D01*
X15483057Y-16684883D01*
X15219808Y-16947673D01*
X15077162Y-17291201D01*
X15076838Y-17663167D01*
X947000Y-17663167D01*
X947000Y-15993167D01*
X11176838Y-15993167D01*
X11318883Y-16336943D01*
X11581673Y-16600192D01*
X11925201Y-16742838D01*
X12297167Y-16743162D01*
X12640943Y-16601117D01*
X12839238Y-16403167D01*
X17576838Y-16403167D01*
X17718883Y-16746943D01*
X17981673Y-17010192D01*
X18325201Y-17152838D01*
X18697167Y-17153162D01*
X19040943Y-17011117D01*
X19304192Y-16748327D01*
X19446838Y-16404799D01*
X19447162Y-16032833D01*
X19316154Y-15715767D01*
X20226038Y-15715767D01*
X20368083Y-16059543D01*
X20630873Y-16322792D01*
X20974401Y-16465438D01*
X21346367Y-16465762D01*
X21352647Y-16463167D01*
X22336838Y-16463167D01*
X22478883Y-16806943D01*
X22741673Y-17070192D01*
X23085201Y-17212838D01*
X23457167Y-17213162D01*
X23800943Y-17071117D01*
X24064192Y-16808327D01*
X24206838Y-16464799D01*
X24207162Y-16092833D01*
X24065117Y-15749057D01*
X23802327Y-15485808D01*
X23458799Y-15343162D01*
X23086833Y-15342838D01*
X22743057Y-15484883D01*
X22479808Y-15747673D01*
X22337162Y-16091201D01*
X22336838Y-16463167D01*
X21352647Y-16463167D01*
X21690143Y-16323717D01*
X21953392Y-16060927D01*
X22096038Y-15717399D01*
X22096362Y-15345433D01*
X21954317Y-15001657D01*
X21691527Y-14738408D01*
X21678906Y-14733167D01*
X26246838Y-14733167D01*
X26388883Y-15076943D01*
X26651673Y-15340192D01*
X26995201Y-15482838D01*
X27367167Y-15483162D01*
X27710943Y-15341117D01*
X27974192Y-15078327D01*
X28005401Y-15003167D01*
X54756838Y-15003167D01*
X54898883Y-15346943D01*
X55161673Y-15610192D01*
X55505201Y-15752838D01*
X55877167Y-15753162D01*
X56220943Y-15611117D01*
X56484192Y-15348327D01*
X56626838Y-15004799D01*
X56627012Y-14805383D01*
X56711673Y-14890192D01*
X57055201Y-15032838D01*
X57427167Y-15033162D01*
X57770943Y-14891117D01*
X58034192Y-14628327D01*
X58176838Y-14284799D01*
X58177162Y-13912833D01*
X58096852Y-13718467D01*
X76417638Y-13718467D01*
X76559683Y-14062243D01*
X76822473Y-14325492D01*
X77166001Y-14468138D01*
X77537967Y-14468462D01*
X77881743Y-14326417D01*
X78144992Y-14063627D01*
X78287638Y-13720099D01*
X78287962Y-13348133D01*
X78145917Y-13004357D01*
X77883127Y-12741108D01*
X77539599Y-12598462D01*
X77167633Y-12598138D01*
X76823857Y-12740183D01*
X76560608Y-13002973D01*
X76417962Y-13346501D01*
X76417638Y-13718467D01*
X58096852Y-13718467D01*
X58035117Y-13569057D01*
X57772327Y-13305808D01*
X57428799Y-13163162D01*
X57168941Y-13162936D01*
X57035117Y-12839057D01*
X56976829Y-12780667D01*
X70518138Y-12780667D01*
X70660183Y-13124443D01*
X70922973Y-13387692D01*
X71266501Y-13530338D01*
X71638467Y-13530662D01*
X71982243Y-13388617D01*
X72245492Y-13125827D01*
X72388138Y-12782299D01*
X72388462Y-12410333D01*
X72246417Y-12066557D01*
X72128234Y-11948167D01*
X73031638Y-11948167D01*
X73173683Y-12291943D01*
X73436473Y-12555192D01*
X73780001Y-12697838D01*
X74151967Y-12698162D01*
X74495743Y-12556117D01*
X74758992Y-12293327D01*
X74901638Y-11949799D01*
X74901962Y-11577833D01*
X74759917Y-11234057D01*
X74497127Y-10970808D01*
X74153599Y-10828162D01*
X73781633Y-10827838D01*
X73437857Y-10969883D01*
X73174608Y-11232673D01*
X73031962Y-11576201D01*
X73031638Y-11948167D01*
X72128234Y-11948167D01*
X71983627Y-11803308D01*
X71640099Y-11660662D01*
X71268133Y-11660338D01*
X70924357Y-11802383D01*
X70661108Y-12065173D01*
X70518462Y-12408701D01*
X70518138Y-12780667D01*
X56976829Y-12780667D01*
X56772327Y-12575808D01*
X56428799Y-12433162D01*
X56056833Y-12432838D01*
X55713057Y-12574883D01*
X55449808Y-12837673D01*
X55307162Y-13181201D01*
X55306838Y-13553167D01*
X55448883Y-13896943D01*
X55455837Y-13903909D01*
X55163057Y-14024883D01*
X54899808Y-14287673D01*
X54757162Y-14631201D01*
X54756838Y-15003167D01*
X28005401Y-15003167D01*
X28116838Y-14734799D01*
X28117162Y-14362833D01*
X27975117Y-14019057D01*
X27712327Y-13755808D01*
X27368799Y-13613162D01*
X26996833Y-13612838D01*
X26653057Y-13754883D01*
X26389808Y-14017673D01*
X26247162Y-14361201D01*
X26246838Y-14733167D01*
X21678906Y-14733167D01*
X21347999Y-14595762D01*
X20976033Y-14595438D01*
X20632257Y-14737483D01*
X20369008Y-15000273D01*
X20226362Y-15343801D01*
X20226038Y-15715767D01*
X19316154Y-15715767D01*
X19305117Y-15689057D01*
X19042327Y-15425808D01*
X18698799Y-15283162D01*
X18326833Y-15282838D01*
X17983057Y-15424883D01*
X17719808Y-15687673D01*
X17577162Y-16031201D01*
X17576838Y-16403167D01*
X12839238Y-16403167D01*
X12904192Y-16338327D01*
X13046838Y-15994799D01*
X13047162Y-15622833D01*
X12905117Y-15279057D01*
X12642327Y-15015808D01*
X12298799Y-14873162D01*
X11926833Y-14872838D01*
X11583057Y-15014883D01*
X11319808Y-15277673D01*
X11177162Y-15621201D01*
X11176838Y-15993167D01*
X947000Y-15993167D01*
X947000Y-12843167D01*
X6026838Y-12843167D01*
X6168883Y-13186943D01*
X6431673Y-13450192D01*
X6775201Y-13592838D01*
X7147167Y-13593162D01*
X7490943Y-13451117D01*
X7754192Y-13188327D01*
X7767961Y-13155167D01*
X20281838Y-13155167D01*
X20423883Y-13498943D01*
X20686673Y-13762192D01*
X21030201Y-13904838D01*
X21402167Y-13905162D01*
X21745943Y-13763117D01*
X21986312Y-13523167D01*
X29386838Y-13523167D01*
X29528883Y-13866943D01*
X29791673Y-14130192D01*
X30135201Y-14272838D01*
X30507167Y-14273162D01*
X30850943Y-14131117D01*
X31114192Y-13868327D01*
X31256838Y-13524799D01*
X31257162Y-13152833D01*
X31115117Y-12809057D01*
X30852327Y-12545808D01*
X30508799Y-12403162D01*
X30136833Y-12402838D01*
X29793057Y-12544883D01*
X29529808Y-12807673D01*
X29387162Y-13151201D01*
X29386838Y-13523167D01*
X21986312Y-13523167D01*
X22009192Y-13500327D01*
X22151838Y-13156799D01*
X22152162Y-12784833D01*
X22010117Y-12441057D01*
X21747327Y-12177808D01*
X21403799Y-12035162D01*
X21031833Y-12034838D01*
X20688057Y-12176883D01*
X20424808Y-12439673D01*
X20282162Y-12783201D01*
X20281838Y-13155167D01*
X7767961Y-13155167D01*
X7896838Y-12844799D01*
X7897162Y-12472833D01*
X7755117Y-12129057D01*
X7492327Y-11865808D01*
X7148799Y-11723162D01*
X6776833Y-11722838D01*
X6433057Y-11864883D01*
X6169808Y-12127673D01*
X6027162Y-12471201D01*
X6026838Y-12843167D01*
X947000Y-12843167D01*
X947000Y-11143167D01*
X18226838Y-11143167D01*
X18368883Y-11486943D01*
X18631673Y-11750192D01*
X18975201Y-11892838D01*
X19347167Y-11893162D01*
X19443962Y-11853167D01*
X24466838Y-11853167D01*
X24608883Y-12196943D01*
X24871673Y-12460192D01*
X25215201Y-12602838D01*
X25587167Y-12603162D01*
X25930943Y-12461117D01*
X26194192Y-12198327D01*
X26319174Y-11897339D01*
X26521673Y-12100192D01*
X26865201Y-12242838D01*
X27237167Y-12243162D01*
X27580943Y-12101117D01*
X27739168Y-11943167D01*
X64426838Y-11943167D01*
X64568883Y-12286943D01*
X64831673Y-12550192D01*
X65175201Y-12692838D01*
X65547167Y-12693162D01*
X65890943Y-12551117D01*
X66154192Y-12288327D01*
X66296838Y-11944799D01*
X66297162Y-11572833D01*
X66155117Y-11229057D01*
X65892327Y-10965808D01*
X65548799Y-10823162D01*
X65176833Y-10822838D01*
X64833057Y-10964883D01*
X64569808Y-11227673D01*
X64427162Y-11571201D01*
X64426838Y-11943167D01*
X27739168Y-11943167D01*
X27844192Y-11838327D01*
X27986838Y-11494799D01*
X27987162Y-11122833D01*
X27845117Y-10779057D01*
X27609639Y-10543167D01*
X38742038Y-10543167D01*
X38884083Y-10886943D01*
X39146873Y-11150192D01*
X39490401Y-11292838D01*
X39862367Y-11293162D01*
X40206143Y-11151117D01*
X40469392Y-10888327D01*
X40513058Y-10783167D01*
X45156838Y-10783167D01*
X45298883Y-11126943D01*
X45561673Y-11390192D01*
X45905201Y-11532838D01*
X46277167Y-11533162D01*
X46620943Y-11391117D01*
X46884192Y-11128327D01*
X47026838Y-10784799D01*
X47027162Y-10412833D01*
X46885117Y-10069057D01*
X46622327Y-9805808D01*
X46278799Y-9663162D01*
X45906833Y-9662838D01*
X45563057Y-9804883D01*
X45299808Y-10067673D01*
X45157162Y-10411201D01*
X45156838Y-10783167D01*
X40513058Y-10783167D01*
X40612038Y-10544799D01*
X40612362Y-10172833D01*
X40470317Y-9829057D01*
X40207527Y-9565808D01*
X39863999Y-9423162D01*
X39492033Y-9422838D01*
X39148257Y-9564883D01*
X38885008Y-9827673D01*
X38742362Y-10171201D01*
X38742038Y-10543167D01*
X27609639Y-10543167D01*
X27582327Y-10515808D01*
X27238799Y-10373162D01*
X26866833Y-10372838D01*
X26523057Y-10514883D01*
X26259808Y-10777673D01*
X26134826Y-11078661D01*
X25932327Y-10875808D01*
X25588799Y-10733162D01*
X25216833Y-10732838D01*
X24873057Y-10874883D01*
X24609808Y-11137673D01*
X24467162Y-11481201D01*
X24466838Y-11853167D01*
X19443962Y-11853167D01*
X19690943Y-11751117D01*
X19954192Y-11488327D01*
X20096838Y-11144799D01*
X20097162Y-10772833D01*
X19955117Y-10429057D01*
X19869377Y-10343167D01*
X22826838Y-10343167D01*
X22968883Y-10686943D01*
X23231673Y-10950192D01*
X23575201Y-11092838D01*
X23947167Y-11093162D01*
X24290943Y-10951117D01*
X24554192Y-10688327D01*
X24696838Y-10344799D01*
X24697162Y-9972833D01*
X24555117Y-9629057D01*
X24292327Y-9365808D01*
X23948799Y-9223162D01*
X23576833Y-9222838D01*
X23233057Y-9364883D01*
X22969808Y-9627673D01*
X22827162Y-9971201D01*
X22826838Y-10343167D01*
X19869377Y-10343167D01*
X19692327Y-10165808D01*
X19348799Y-10023162D01*
X18976833Y-10022838D01*
X18633057Y-10164883D01*
X18369808Y-10427673D01*
X18227162Y-10771201D01*
X18226838Y-11143167D01*
X947000Y-11143167D01*
X947000Y-9643167D01*
X6126838Y-9643167D01*
X6268883Y-9986943D01*
X6531673Y-10250192D01*
X6875201Y-10392838D01*
X7247167Y-10393162D01*
X7590943Y-10251117D01*
X7854192Y-9988327D01*
X7914467Y-9843167D01*
X14026838Y-9843167D01*
X14168883Y-10186943D01*
X14431673Y-10450192D01*
X14775201Y-10592838D01*
X15147167Y-10593162D01*
X15490943Y-10451117D01*
X15754192Y-10188327D01*
X15896838Y-9844799D01*
X15897162Y-9472833D01*
X15755117Y-9129057D01*
X15599499Y-8973167D01*
X45696838Y-8973167D01*
X45838883Y-9316943D01*
X46101673Y-9580192D01*
X46445201Y-9722838D01*
X46817167Y-9723162D01*
X47160943Y-9581117D01*
X47424192Y-9318327D01*
X47566838Y-8974799D01*
X47567162Y-8602833D01*
X47425117Y-8259057D01*
X47162327Y-7995808D01*
X46818799Y-7853162D01*
X46446833Y-7852838D01*
X46103057Y-7994883D01*
X45839808Y-8257673D01*
X45697162Y-8601201D01*
X45696838Y-8973167D01*
X15599499Y-8973167D01*
X15492327Y-8865808D01*
X15148799Y-8723162D01*
X14776833Y-8722838D01*
X14433057Y-8864883D01*
X14169808Y-9127673D01*
X14027162Y-9471201D01*
X14026838Y-9843167D01*
X7914467Y-9843167D01*
X7996838Y-9644799D01*
X7997162Y-9272833D01*
X7855117Y-8929057D01*
X7592327Y-8665808D01*
X7248799Y-8523162D01*
X6876833Y-8522838D01*
X6533057Y-8664883D01*
X6269808Y-8927673D01*
X6127162Y-9271201D01*
X6126838Y-9643167D01*
X947000Y-9643167D01*
X947000Y-7243167D01*
X1026838Y-7243167D01*
X1168883Y-7586943D01*
X1431673Y-7850192D01*
X1775201Y-7992838D01*
X2147167Y-7993162D01*
X2490943Y-7851117D01*
X2754192Y-7588327D01*
X2896838Y-7244799D01*
X2897162Y-6872833D01*
X2755117Y-6529057D01*
X2492327Y-6265808D01*
X2148799Y-6123162D01*
X1776833Y-6122838D01*
X1433057Y-6264883D01*
X1169808Y-6527673D01*
X1027162Y-6871201D01*
X1026838Y-7243167D01*
X947000Y-7243167D01*
X947000Y-4158000D01*
X2127000Y-4158000D01*
X2281905Y-4936761D01*
X2723038Y-5596962D01*
X3383239Y-6038095D01*
X4162000Y-6193000D01*
X4940761Y-6038095D01*
X5600962Y-5596962D01*
X6039113Y-4941223D01*
X8715035Y-4941223D01*
X8742222Y-5511454D01*
X8908136Y-5912005D01*
X9154255Y-5986139D01*
X9982395Y-5158000D01*
X9154255Y-4329861D01*
X8908136Y-4403995D01*
X8715035Y-4941223D01*
X6039113Y-4941223D01*
X6042095Y-4936761D01*
X6197000Y-4158000D01*
X6042095Y-3379239D01*
X5600962Y-2719038D01*
X4940761Y-2277905D01*
X4162000Y-2123000D01*
X3383239Y-2277905D01*
X2723038Y-2719038D01*
X2281905Y-3379239D01*
X2127000Y-4158000D01*
X947000Y-4158000D01*
X947000Y-2103167D01*
X7346838Y-2103167D01*
X7488883Y-2446943D01*
X7751673Y-2710192D01*
X8095201Y-2852838D01*
X8467167Y-2853162D01*
X8795442Y-2717522D01*
X8715035Y-2941223D01*
X8742222Y-3511454D01*
X8908136Y-3912005D01*
X9154255Y-3986139D01*
X9982395Y-3158000D01*
X9968252Y-3143858D01*
X10147858Y-2964252D01*
X10162000Y-2978395D01*
X10176142Y-2964252D01*
X10355748Y-3143858D01*
X10341605Y-3158000D01*
X10355748Y-3172142D01*
X10176142Y-3351748D01*
X10162000Y-3337605D01*
X9728034Y-3771571D01*
X9407995Y-3904136D01*
X9333861Y-4150255D01*
X9341606Y-4158000D01*
X9333861Y-4165745D01*
X9407995Y-4411864D01*
X9700668Y-4517062D01*
X10162000Y-4978395D01*
X10176143Y-4964253D01*
X10355748Y-5143858D01*
X10341605Y-5158000D01*
X10355748Y-5172142D01*
X10176142Y-5351748D01*
X10162000Y-5337605D01*
X9333861Y-6165745D01*
X9407995Y-6411864D01*
X9945223Y-6604965D01*
X10515454Y-6577778D01*
X10916005Y-6411864D01*
X10990139Y-6165747D01*
X11105014Y-6280622D01*
X11180091Y-6205545D01*
X11348077Y-6373824D01*
X11875309Y-6592750D01*
X12446187Y-6593248D01*
X12973800Y-6375243D01*
X13161974Y-6187397D01*
X13348077Y-6373824D01*
X13875309Y-6592750D01*
X14446187Y-6593248D01*
X14973800Y-6375243D01*
X15161974Y-6187397D01*
X15348077Y-6373824D01*
X15875309Y-6592750D01*
X16446187Y-6593248D01*
X16973800Y-6375243D01*
X17161974Y-6187397D01*
X17348077Y-6373824D01*
X17875309Y-6592750D01*
X18446187Y-6593248D01*
X18973800Y-6375243D01*
X19161974Y-6187397D01*
X19348077Y-6373824D01*
X19875309Y-6592750D01*
X20446187Y-6593248D01*
X20700169Y-6488305D01*
X20603462Y-6721201D01*
X20603138Y-7093167D01*
X20745183Y-7436943D01*
X21007973Y-7700192D01*
X21351501Y-7842838D01*
X21723467Y-7843162D01*
X22067243Y-7701117D01*
X22330492Y-7438327D01*
X22473138Y-7094799D01*
X22473462Y-6722833D01*
X22419909Y-6593225D01*
X22446187Y-6593248D01*
X22973800Y-6375243D01*
X23161974Y-6187397D01*
X23348077Y-6373824D01*
X23875309Y-6592750D01*
X24446187Y-6593248D01*
X24973800Y-6375243D01*
X25161974Y-6187397D01*
X25348077Y-6373824D01*
X25875309Y-6592750D01*
X26446187Y-6593248D01*
X26973800Y-6375243D01*
X27161974Y-6187397D01*
X27348077Y-6373824D01*
X27875309Y-6592750D01*
X28446187Y-6593248D01*
X28973800Y-6375243D01*
X29161974Y-6187397D01*
X29348077Y-6373824D01*
X29875309Y-6592750D01*
X30446187Y-6593248D01*
X30973800Y-6375243D01*
X31161974Y-6187397D01*
X31348077Y-6373824D01*
X31875309Y-6592750D01*
X32446187Y-6593248D01*
X32973800Y-6375243D01*
X33161974Y-6187397D01*
X33348077Y-6373824D01*
X33543014Y-6454769D01*
X33369808Y-6627673D01*
X33227162Y-6971201D01*
X33226838Y-7343167D01*
X33368883Y-7686943D01*
X33631673Y-7950192D01*
X33975201Y-8092838D01*
X34347167Y-8093162D01*
X34690943Y-7951117D01*
X34954192Y-7688327D01*
X35096838Y-7344799D01*
X35097162Y-6972833D01*
X34955117Y-6629057D01*
X34781191Y-6454827D01*
X34973800Y-6375243D01*
X35161974Y-6187397D01*
X35348077Y-6373824D01*
X35875309Y-6592750D01*
X36446187Y-6593248D01*
X36973800Y-6375243D01*
X37161974Y-6187397D01*
X37348077Y-6373824D01*
X37875309Y-6592750D01*
X38446187Y-6593248D01*
X38973800Y-6375243D01*
X39161974Y-6187397D01*
X39348077Y-6373824D01*
X39875309Y-6592750D01*
X40446187Y-6593248D01*
X40973800Y-6375243D01*
X41161974Y-6187397D01*
X41348077Y-6373824D01*
X41875309Y-6592750D01*
X42446187Y-6593248D01*
X42973800Y-6375243D01*
X43161974Y-6187397D01*
X43348077Y-6373824D01*
X43875309Y-6592750D01*
X44446187Y-6593248D01*
X44973800Y-6375243D01*
X45161974Y-6187397D01*
X45348077Y-6373824D01*
X45875309Y-6592750D01*
X45963854Y-6592827D01*
X45928362Y-6678301D01*
X45928038Y-7050267D01*
X46070083Y-7394043D01*
X46332873Y-7657292D01*
X46676401Y-7799938D01*
X47048367Y-7800262D01*
X47392143Y-7658217D01*
X47655392Y-7395427D01*
X47719765Y-7240400D01*
X47796960Y-7240400D01*
X47796960Y-9475600D01*
X47841238Y-9710917D01*
X47980310Y-9927041D01*
X48192510Y-10072031D01*
X48444400Y-10123040D01*
X50679600Y-10123040D01*
X50914917Y-10078762D01*
X51131041Y-9939690D01*
X51276031Y-9727490D01*
X51311448Y-9552596D01*
X51341238Y-9710917D01*
X51480310Y-9927041D01*
X51692510Y-10072031D01*
X51757926Y-10085278D01*
X51747162Y-10111201D01*
X51746838Y-10483167D01*
X51888883Y-10826943D01*
X52151673Y-11090192D01*
X52495201Y-11232838D01*
X52867167Y-11233162D01*
X53210943Y-11091117D01*
X53474192Y-10828327D01*
X53616838Y-10484799D01*
X53617153Y-10123040D01*
X54179600Y-10123040D01*
X54414917Y-10078762D01*
X54631041Y-9939690D01*
X54776031Y-9727490D01*
X54811448Y-9552596D01*
X54841238Y-9710917D01*
X54980310Y-9927041D01*
X55192510Y-10072031D01*
X55444400Y-10123040D01*
X57679600Y-10123040D01*
X57914917Y-10078762D01*
X58131041Y-9939690D01*
X58276031Y-9727490D01*
X58327040Y-9475600D01*
X58327040Y-8503167D01*
X58366838Y-8503167D01*
X58508883Y-8846943D01*
X58771673Y-9110192D01*
X59115201Y-9252838D01*
X59257073Y-9252962D01*
X59256838Y-9523167D01*
X59398883Y-9866943D01*
X59661673Y-10130192D01*
X60005201Y-10272838D01*
X60377167Y-10273162D01*
X60720943Y-10131117D01*
X60984192Y-9868327D01*
X61126838Y-9524799D01*
X61127162Y-9152833D01*
X60985117Y-8809057D01*
X60722327Y-8545808D01*
X60378799Y-8403162D01*
X60236927Y-8403038D01*
X60237162Y-8132833D01*
X60095117Y-7789057D01*
X59832327Y-7525808D01*
X59488799Y-7383162D01*
X59116833Y-7382838D01*
X58773057Y-7524883D01*
X58509808Y-7787673D01*
X58367162Y-8131201D01*
X58366838Y-8503167D01*
X58327040Y-8503167D01*
X58327040Y-7240400D01*
X58282762Y-7005083D01*
X58143690Y-6788959D01*
X57931490Y-6643969D01*
X57679600Y-6592960D01*
X55444400Y-6592960D01*
X55209083Y-6637238D01*
X54992959Y-6776310D01*
X54847969Y-6988510D01*
X54812552Y-7163404D01*
X54782762Y-7005083D01*
X54643690Y-6788959D01*
X54431490Y-6643969D01*
X54179600Y-6592960D01*
X51944400Y-6592960D01*
X51709083Y-6637238D01*
X51492959Y-6776310D01*
X51347969Y-6988510D01*
X51312552Y-7163404D01*
X51282762Y-7005083D01*
X51143690Y-6788959D01*
X50931490Y-6643969D01*
X50679600Y-6592960D01*
X48444400Y-6592960D01*
X48209083Y-6637238D01*
X47992959Y-6776310D01*
X47847969Y-6988510D01*
X47796960Y-7240400D01*
X47719765Y-7240400D01*
X47798038Y-7051899D01*
X47798362Y-6679933D01*
X47736367Y-6529894D01*
X47945223Y-6604965D01*
X48515454Y-6577778D01*
X48916005Y-6411864D01*
X48990139Y-6165745D01*
X48162000Y-5337605D01*
X48147858Y-5351748D01*
X47968253Y-5172143D01*
X47982395Y-5158000D01*
X47968252Y-5143858D01*
X48147858Y-4964252D01*
X48162000Y-4978395D01*
X48176143Y-4964253D01*
X48355748Y-5143858D01*
X48341605Y-5158000D01*
X49169745Y-5986139D01*
X49415864Y-5912005D01*
X49560125Y-5510655D01*
X49757801Y-5592738D01*
X50129767Y-5593062D01*
X50473543Y-5451017D01*
X50736792Y-5188227D01*
X50879438Y-4844699D01*
X50879718Y-4523583D01*
X50970467Y-4523662D01*
X51213684Y-4423167D01*
X53246838Y-4423167D01*
X53388883Y-4766943D01*
X53651673Y-5030192D01*
X53995201Y-5172838D01*
X54367167Y-5173162D01*
X54710943Y-5031117D01*
X54974192Y-4768327D01*
X55026163Y-4643167D01*
X57126838Y-4643167D01*
X57268883Y-4986943D01*
X57531673Y-5250192D01*
X57875201Y-5392838D01*
X58247167Y-5393162D01*
X58590943Y-5251117D01*
X58854192Y-4988327D01*
X58996838Y-4644799D01*
X58997100Y-4343750D01*
X74509400Y-4343750D01*
X74509400Y-5301910D01*
X74606073Y-5535299D01*
X74784702Y-5713927D01*
X75018091Y-5810600D01*
X75976250Y-5810600D01*
X76135000Y-5651850D01*
X76135000Y-4185000D01*
X76389000Y-4185000D01*
X76389000Y-5651850D01*
X76547750Y-5810600D01*
X77505909Y-5810600D01*
X77739298Y-5713927D01*
X77917927Y-5535299D01*
X78014600Y-5301910D01*
X78014600Y-4343750D01*
X77855850Y-4185000D01*
X76389000Y-4185000D01*
X76135000Y-4185000D01*
X74668150Y-4185000D01*
X74509400Y-4343750D01*
X58997100Y-4343750D01*
X58997162Y-4272833D01*
X58949715Y-4158000D01*
X79127000Y-4158000D01*
X79281905Y-4936761D01*
X79723038Y-5596962D01*
X80383239Y-6038095D01*
X81162000Y-6193000D01*
X81940761Y-6038095D01*
X82600962Y-5596962D01*
X83042095Y-4936761D01*
X83197000Y-4158000D01*
X83042095Y-3379239D01*
X82600962Y-2719038D01*
X81940761Y-2277905D01*
X81162000Y-2123000D01*
X80383239Y-2277905D01*
X79723038Y-2719038D01*
X79281905Y-3379239D01*
X79127000Y-4158000D01*
X58949715Y-4158000D01*
X58855117Y-3929057D01*
X58592327Y-3665808D01*
X58248799Y-3523162D01*
X57876833Y-3522838D01*
X57533057Y-3664883D01*
X57269808Y-3927673D01*
X57127162Y-4271201D01*
X57126838Y-4643167D01*
X55026163Y-4643167D01*
X55116838Y-4424799D01*
X55117162Y-4052833D01*
X54975117Y-3709057D01*
X54712327Y-3445808D01*
X54368799Y-3303162D01*
X53996833Y-3302838D01*
X53653057Y-3444883D01*
X53389808Y-3707673D01*
X53247162Y-4051201D01*
X53246838Y-4423167D01*
X51213684Y-4423167D01*
X51314243Y-4381617D01*
X51577492Y-4118827D01*
X51720138Y-3775299D01*
X51720462Y-3403333D01*
X51578417Y-3059557D01*
X51315627Y-2796308D01*
X50972099Y-2653662D01*
X50600133Y-2653338D01*
X50256357Y-2795383D01*
X49993108Y-3058173D01*
X49850462Y-3401701D01*
X49850182Y-3722817D01*
X49759433Y-3722738D01*
X49435834Y-3856446D01*
X49608965Y-3374777D01*
X49581778Y-2804546D01*
X49415864Y-2403995D01*
X49169745Y-2329861D01*
X48341605Y-3158000D01*
X48355748Y-3172142D01*
X48176142Y-3351748D01*
X48162000Y-3337605D01*
X48147858Y-3351748D01*
X47968253Y-3172143D01*
X47982395Y-3158000D01*
X47968252Y-3143858D01*
X48147858Y-2964252D01*
X48162000Y-2978395D01*
X48990139Y-2150255D01*
X48916005Y-1904136D01*
X48378777Y-1711035D01*
X47808546Y-1738222D01*
X47407995Y-1904136D01*
X47333861Y-2150253D01*
X47218986Y-2035378D01*
X47143909Y-2110455D01*
X46975923Y-1942176D01*
X46448691Y-1723250D01*
X45877813Y-1722752D01*
X45350200Y-1940757D01*
X45162026Y-2128603D01*
X44975923Y-1942176D01*
X44448691Y-1723250D01*
X43877813Y-1722752D01*
X43350200Y-1940757D01*
X43162026Y-2128603D01*
X42975923Y-1942176D01*
X42448691Y-1723250D01*
X41877813Y-1722752D01*
X41350200Y-1940757D01*
X41162026Y-2128603D01*
X40975923Y-1942176D01*
X40448691Y-1723250D01*
X39877813Y-1722752D01*
X39350200Y-1940757D01*
X39162026Y-2128603D01*
X38975923Y-1942176D01*
X38448691Y-1723250D01*
X37877813Y-1722752D01*
X37350200Y-1940757D01*
X37162026Y-2128603D01*
X36975923Y-1942176D01*
X36448691Y-1723250D01*
X35877813Y-1722752D01*
X35350200Y-1940757D01*
X35162026Y-2128603D01*
X34975923Y-1942176D01*
X34448691Y-1723250D01*
X33877813Y-1722752D01*
X33350200Y-1940757D01*
X33162026Y-2128603D01*
X32975923Y-1942176D01*
X32448691Y-1723250D01*
X31877813Y-1722752D01*
X31350200Y-1940757D01*
X31162026Y-2128603D01*
X30975923Y-1942176D01*
X30448691Y-1723250D01*
X29877813Y-1722752D01*
X29350200Y-1940757D01*
X29162026Y-2128603D01*
X28975923Y-1942176D01*
X28448691Y-1723250D01*
X27877813Y-1722752D01*
X27350200Y-1940757D01*
X27162026Y-2128603D01*
X26975923Y-1942176D01*
X26448691Y-1723250D01*
X25877813Y-1722752D01*
X25350200Y-1940757D01*
X25162026Y-2128603D01*
X24975923Y-1942176D01*
X24448691Y-1723250D01*
X23877813Y-1722752D01*
X23350200Y-1940757D01*
X23162026Y-2128603D01*
X22975923Y-1942176D01*
X22448691Y-1723250D01*
X21877813Y-1722752D01*
X21350200Y-1940757D01*
X21162026Y-2128603D01*
X20975923Y-1942176D01*
X20448691Y-1723250D01*
X19877813Y-1722752D01*
X19350200Y-1940757D01*
X19162026Y-2128603D01*
X18975923Y-1942176D01*
X18448691Y-1723250D01*
X17877813Y-1722752D01*
X17350200Y-1940757D01*
X17162026Y-2128603D01*
X16975923Y-1942176D01*
X16448691Y-1723250D01*
X15877813Y-1722752D01*
X15350200Y-1940757D01*
X15162026Y-2128603D01*
X14975923Y-1942176D01*
X14448691Y-1723250D01*
X13877813Y-1722752D01*
X13350200Y-1940757D01*
X13162026Y-2128603D01*
X12975923Y-1942176D01*
X12448691Y-1723250D01*
X11877813Y-1722752D01*
X11350200Y-1940757D01*
X11180148Y-2110512D01*
X11105014Y-2035378D01*
X10990139Y-2150253D01*
X10916005Y-1904136D01*
X10378777Y-1711035D01*
X9808546Y-1738222D01*
X9407995Y-1904136D01*
X9333861Y-2150253D01*
X9218986Y-2035378D01*
X9216897Y-2037467D01*
X9217162Y-1732833D01*
X9075117Y-1389057D01*
X8812327Y-1125808D01*
X8468799Y-983162D01*
X8096833Y-982838D01*
X7753057Y-1124883D01*
X7489808Y-1387673D01*
X7347162Y-1731201D01*
X7346838Y-2103167D01*
X947000Y-2103167D01*
X947000Y-943000D01*
X58488917Y-943000D01*
X58353308Y-1078373D01*
X58353308Y-1078373D01*
G37*
X58353308Y-1078373D02*
X58210662Y-1421901D01*
X58210338Y-1793867D01*
X58352383Y-2137643D01*
X58615173Y-2400892D01*
X58958701Y-2543538D01*
X59330667Y-2543862D01*
X59415603Y-2508767D01*
X64411238Y-2508767D01*
X64553283Y-2852543D01*
X64816073Y-3115792D01*
X65159601Y-3258438D01*
X65531567Y-3258762D01*
X65875343Y-3116717D01*
X66138592Y-2853927D01*
X66155133Y-2814090D01*
X74509400Y-2814090D01*
X74509400Y-3772250D01*
X74668150Y-3931000D01*
X76135000Y-3931000D01*
X76135000Y-2464150D01*
X76389000Y-2464150D01*
X76389000Y-3931000D01*
X77855850Y-3931000D01*
X78014600Y-3772250D01*
X78014600Y-2814090D01*
X77917927Y-2580701D01*
X77739298Y-2402073D01*
X77505909Y-2305400D01*
X76547750Y-2305400D01*
X76389000Y-2464150D01*
X76135000Y-2464150D01*
X75976250Y-2305400D01*
X75018091Y-2305400D01*
X74784702Y-2402073D01*
X74606073Y-2580701D01*
X74509400Y-2814090D01*
X66155133Y-2814090D01*
X66281238Y-2510399D01*
X66281562Y-2138433D01*
X66139517Y-1794657D01*
X65876727Y-1531408D01*
X65533199Y-1388762D01*
X65161233Y-1388438D01*
X64817457Y-1530483D01*
X64554208Y-1793273D01*
X64411562Y-2136801D01*
X64411238Y-2508767D01*
X59415603Y-2508767D01*
X59674443Y-2401817D01*
X59937692Y-2139027D01*
X60080338Y-1795499D01*
X60080662Y-1423533D01*
X59938617Y-1079757D01*
X59802098Y-943000D01*
X69022392Y-943000D01*
X68786608Y-1178373D01*
X68643962Y-1521901D01*
X68643638Y-1893867D01*
X68785683Y-2237643D01*
X69048473Y-2500892D01*
X69392001Y-2643538D01*
X69763967Y-2643862D01*
X70107743Y-2501817D01*
X70370992Y-2239027D01*
X70513638Y-1895499D01*
X70513962Y-1523533D01*
X70371917Y-1179757D01*
X70135573Y-943000D01*
X84377000Y-943000D01*
X84377000Y-53373000D01*
X17774590Y-53373000D01*
X17842000Y-53165000D01*
X17842000Y-52835000D01*
X16889000Y-52835000D01*
X16889000Y-52855000D01*
X16635000Y-52855000D01*
X16635000Y-52835000D01*
X15682000Y-52835000D01*
X15682000Y-53165000D01*
X15749410Y-53373000D01*
X10774590Y-53373000D01*
X10842000Y-53165000D01*
X10842000Y-52835000D01*
X9889000Y-52835000D01*
X9889000Y-52855000D01*
X9635000Y-52855000D01*
X9635000Y-52835000D01*
X8682000Y-52835000D01*
X8682000Y-53165000D01*
X8749410Y-53373000D01*
X4114600Y-53373000D01*
X4114600Y-52543750D01*
X3955850Y-52385000D01*
X2489000Y-52385000D01*
X2489000Y-52405000D01*
X2235000Y-52405000D01*
X2235000Y-52385000D01*
X2215000Y-52385000D01*
X2215000Y-52131000D01*
X2235000Y-52131000D01*
X2235000Y-50664150D01*
X2489000Y-50664150D01*
X2489000Y-52131000D01*
X3955850Y-52131000D01*
X4114600Y-51972250D01*
X4114600Y-51343167D01*
X7226838Y-51343167D01*
X7368883Y-51686943D01*
X7631673Y-51950192D01*
X7975201Y-52092838D01*
X8347167Y-52093162D01*
X8690943Y-51951117D01*
X8915500Y-51726951D01*
X8812811Y-51847369D01*
X8682000Y-52251000D01*
X8682000Y-52581000D01*
X9635000Y-52581000D01*
X9635000Y-51465546D01*
X9889000Y-51465546D01*
X9889000Y-52581000D01*
X10842000Y-52581000D01*
X10842000Y-52251000D01*
X15682000Y-52251000D01*
X15682000Y-52581000D01*
X16635000Y-52581000D01*
X16635000Y-51465546D01*
X16889000Y-51465546D01*
X16889000Y-52581000D01*
X17842000Y-52581000D01*
X17842000Y-52251000D01*
X17711189Y-51847369D01*
X17435873Y-51524522D01*
X17055213Y-51338565D01*
X16889000Y-51465546D01*
X16635000Y-51465546D01*
X16468787Y-51338565D01*
X16088127Y-51524522D01*
X15812811Y-51847369D01*
X15682000Y-52251000D01*
X10842000Y-52251000D01*
X10711189Y-51847369D01*
X10435873Y-51524522D01*
X10055213Y-51338565D01*
X9889000Y-51465546D01*
X9635000Y-51465546D01*
X9468787Y-51338565D01*
X9088127Y-51524522D01*
X8959653Y-51675176D01*
X9096838Y-51344799D01*
X9096926Y-51243167D01*
X28576838Y-51243167D01*
X28718883Y-51586943D01*
X28981673Y-51850192D01*
X29325201Y-51992838D01*
X29697167Y-51993162D01*
X30040943Y-51851117D01*
X30304192Y-51588327D01*
X30446838Y-51244799D01*
X30447162Y-50872833D01*
X30305117Y-50529057D01*
X30042327Y-50265808D01*
X29867389Y-50193167D01*
X78836838Y-50193167D01*
X78978883Y-50536943D01*
X79241673Y-50800192D01*
X79585201Y-50942838D01*
X79957167Y-50943162D01*
X80300943Y-50801117D01*
X80564192Y-50538327D01*
X80706838Y-50194799D01*
X80707162Y-49822833D01*
X80565117Y-49479057D01*
X80302327Y-49215808D01*
X79958799Y-49073162D01*
X79586833Y-49072838D01*
X79243057Y-49214883D01*
X78979808Y-49477673D01*
X78837162Y-49821201D01*
X78836838Y-50193167D01*
X29867389Y-50193167D01*
X29698799Y-50123162D01*
X29326833Y-50122838D01*
X28983057Y-50264883D01*
X28719808Y-50527673D01*
X28577162Y-50871201D01*
X28576838Y-51243167D01*
X9096926Y-51243167D01*
X9097162Y-50972833D01*
X8955117Y-50629057D01*
X8692327Y-50365808D01*
X8548145Y-50305938D01*
X9542732Y-50305938D01*
X9726448Y-50679821D01*
X10050951Y-50967568D01*
X10460869Y-51109229D01*
X10635000Y-50960563D01*
X10635000Y-50135000D01*
X10889000Y-50135000D01*
X10889000Y-50960563D01*
X11063131Y-51109229D01*
X11473049Y-50967568D01*
X11797552Y-50679821D01*
X11981268Y-50305938D01*
X14542732Y-50305938D01*
X14726448Y-50679821D01*
X15050951Y-50967568D01*
X15460869Y-51109229D01*
X15635000Y-50960563D01*
X15635000Y-50135000D01*
X15889000Y-50135000D01*
X15889000Y-50960563D01*
X16063131Y-51109229D01*
X16473049Y-50967568D01*
X16797552Y-50679821D01*
X16962974Y-50343167D01*
X17026838Y-50343167D01*
X17168883Y-50686943D01*
X17431673Y-50950192D01*
X17775201Y-51092838D01*
X18147167Y-51093162D01*
X18490943Y-50951117D01*
X18754192Y-50688327D01*
X18896838Y-50344799D01*
X18897162Y-49972833D01*
X18755117Y-49629057D01*
X18492327Y-49365808D01*
X18148799Y-49223162D01*
X17776833Y-49222838D01*
X17433057Y-49364883D01*
X17169808Y-49627673D01*
X17027162Y-49971201D01*
X17026838Y-50343167D01*
X16962974Y-50343167D01*
X16981268Y-50305938D01*
X16854734Y-50135000D01*
X15889000Y-50135000D01*
X15635000Y-50135000D01*
X14669266Y-50135000D01*
X14542732Y-50305938D01*
X11981268Y-50305938D01*
X11854734Y-50135000D01*
X10889000Y-50135000D01*
X10635000Y-50135000D01*
X9669266Y-50135000D01*
X9542732Y-50305938D01*
X8548145Y-50305938D01*
X8348799Y-50223162D01*
X7976833Y-50222838D01*
X7633057Y-50364883D01*
X7369808Y-50627673D01*
X7227162Y-50971201D01*
X7226838Y-51343167D01*
X4114600Y-51343167D01*
X4114600Y-51014090D01*
X4017927Y-50780701D01*
X3839298Y-50602073D01*
X3605909Y-50505400D01*
X2647750Y-50505400D01*
X2489000Y-50664150D01*
X2235000Y-50664150D01*
X2076250Y-50505400D01*
X1118091Y-50505400D01*
X947000Y-50576268D01*
X947000Y-49710062D01*
X9542732Y-49710062D01*
X9669266Y-49881000D01*
X10635000Y-49881000D01*
X10635000Y-49055437D01*
X10889000Y-49055437D01*
X10889000Y-49881000D01*
X11854734Y-49881000D01*
X11981268Y-49710062D01*
X14542732Y-49710062D01*
X14669266Y-49881000D01*
X15635000Y-49881000D01*
X15635000Y-49055437D01*
X15889000Y-49055437D01*
X15889000Y-49881000D01*
X16854734Y-49881000D01*
X16981268Y-49710062D01*
X16797552Y-49336179D01*
X16523499Y-49093167D01*
X50726838Y-49093167D01*
X50868883Y-49436943D01*
X51131673Y-49700192D01*
X51475201Y-49842838D01*
X51847167Y-49843162D01*
X52190943Y-49701117D01*
X52454192Y-49438327D01*
X52596838Y-49094799D01*
X52597152Y-48733167D01*
X54086838Y-48733167D01*
X54228883Y-49076943D01*
X54491673Y-49340192D01*
X54835201Y-49482838D01*
X55207167Y-49483162D01*
X55550943Y-49341117D01*
X55814192Y-49078327D01*
X55886468Y-48904267D01*
X72468638Y-48904267D01*
X72610683Y-49248043D01*
X72873473Y-49511292D01*
X73217001Y-49653938D01*
X73588967Y-49654262D01*
X73932743Y-49512217D01*
X74195992Y-49249427D01*
X74338638Y-48905899D01*
X74338901Y-48603167D01*
X76536838Y-48603167D01*
X76678883Y-48946943D01*
X76941673Y-49210192D01*
X77285201Y-49352838D01*
X77657167Y-49353162D01*
X78000943Y-49211117D01*
X78264192Y-48948327D01*
X78406838Y-48604799D01*
X78407162Y-48232833D01*
X78265117Y-47889057D01*
X78002327Y-47625808D01*
X77658799Y-47483162D01*
X77286833Y-47482838D01*
X76943057Y-47624883D01*
X76679808Y-47887673D01*
X76537162Y-48231201D01*
X76536838Y-48603167D01*
X74338901Y-48603167D01*
X74338962Y-48533933D01*
X74196917Y-48190157D01*
X73934127Y-47926908D01*
X73590599Y-47784262D01*
X73218633Y-47783938D01*
X72874857Y-47925983D01*
X72611608Y-48188773D01*
X72468962Y-48532301D01*
X72468638Y-48904267D01*
X55886468Y-48904267D01*
X55956838Y-48734799D01*
X55957162Y-48362833D01*
X55815117Y-48019057D01*
X55552327Y-47755808D01*
X55208799Y-47613162D01*
X54836833Y-47612838D01*
X54493057Y-47754883D01*
X54229808Y-48017673D01*
X54087162Y-48361201D01*
X54086838Y-48733167D01*
X52597152Y-48733167D01*
X52597162Y-48722833D01*
X52455117Y-48379057D01*
X52192327Y-48115808D01*
X51848799Y-47973162D01*
X51476833Y-47972838D01*
X51133057Y-48114883D01*
X50869808Y-48377673D01*
X50727162Y-48721201D01*
X50726838Y-49093167D01*
X16523499Y-49093167D01*
X16473049Y-49048432D01*
X16063131Y-48906771D01*
X15889000Y-49055437D01*
X15635000Y-49055437D01*
X15460869Y-48906771D01*
X15050951Y-49048432D01*
X14726448Y-49336179D01*
X14542732Y-49710062D01*
X11981268Y-49710062D01*
X11972846Y-49692923D01*
X12247167Y-49693162D01*
X12590943Y-49551117D01*
X12854192Y-49288327D01*
X12996838Y-48944799D01*
X12997162Y-48572833D01*
X12855117Y-48229057D01*
X12592327Y-47965808D01*
X12248799Y-47823162D01*
X11876833Y-47822838D01*
X11533057Y-47964883D01*
X11269808Y-48227673D01*
X11127162Y-48571201D01*
X11126851Y-48928791D01*
X11063131Y-48906771D01*
X10889000Y-49055437D01*
X10635000Y-49055437D01*
X10460869Y-48906771D01*
X10050951Y-49048432D01*
X9726448Y-49336179D01*
X9542732Y-49710062D01*
X947000Y-49710062D01*
X947000Y-46843167D01*
X6726838Y-46843167D01*
X6868883Y-47186943D01*
X7131673Y-47450192D01*
X7475201Y-47592838D01*
X7727143Y-47593057D01*
X7726838Y-47943167D01*
X7868883Y-48286943D01*
X8131673Y-48550192D01*
X8475201Y-48692838D01*
X8847167Y-48693162D01*
X9190943Y-48551117D01*
X9454192Y-48288327D01*
X9596838Y-47944799D01*
X9597162Y-47572833D01*
X9455117Y-47229057D01*
X9192327Y-46965808D01*
X8896977Y-46843167D01*
X16426838Y-46843167D01*
X16568883Y-47186943D01*
X16831673Y-47450192D01*
X17175201Y-47592838D01*
X17247388Y-47592901D01*
X17368883Y-47886943D01*
X17631673Y-48150192D01*
X17975201Y-48292838D01*
X18347167Y-48293162D01*
X18690943Y-48151117D01*
X18954192Y-47888327D01*
X19096838Y-47544799D01*
X19096987Y-47373167D01*
X79216838Y-47373167D01*
X79358883Y-47716943D01*
X79621673Y-47980192D01*
X79965201Y-48122838D01*
X80337167Y-48123162D01*
X80680943Y-47981117D01*
X80944192Y-47718327D01*
X81086838Y-47374799D01*
X81087162Y-47002833D01*
X80945117Y-46659057D01*
X80682327Y-46395808D01*
X80338799Y-46253162D01*
X79966833Y-46252838D01*
X79623057Y-46394883D01*
X79359808Y-46657673D01*
X79217162Y-47001201D01*
X79216838Y-47373167D01*
X19096987Y-47373167D01*
X19097162Y-47172833D01*
X18955117Y-46829057D01*
X18692327Y-46565808D01*
X18348799Y-46423162D01*
X18319147Y-46423136D01*
X18454192Y-46288327D01*
X18596838Y-45944799D01*
X18597013Y-45743167D01*
X42556838Y-45743167D01*
X42698883Y-46086943D01*
X42961673Y-46350192D01*
X43305201Y-46492838D01*
X43677167Y-46493162D01*
X44020943Y-46351117D01*
X44284192Y-46088327D01*
X44385991Y-45843167D01*
X48726838Y-45843167D01*
X48868883Y-46186943D01*
X49131673Y-46450192D01*
X49475201Y-46592838D01*
X49847167Y-46593162D01*
X50162351Y-46462931D01*
X50475201Y-46592838D01*
X50847167Y-46593162D01*
X51190943Y-46451117D01*
X51454192Y-46188327D01*
X51596838Y-45844799D01*
X51597162Y-45472833D01*
X51455117Y-45129057D01*
X51192327Y-44865808D01*
X50848799Y-44723162D01*
X50476833Y-44722838D01*
X50161649Y-44853069D01*
X49848799Y-44723162D01*
X49476833Y-44722838D01*
X49133057Y-44864883D01*
X48869808Y-45127673D01*
X48727162Y-45471201D01*
X48726838Y-45843167D01*
X44385991Y-45843167D01*
X44426838Y-45744799D01*
X44427162Y-45372833D01*
X44285117Y-45029057D01*
X44022327Y-44765808D01*
X43678799Y-44623162D01*
X43306833Y-44622838D01*
X42963057Y-44764883D01*
X42699808Y-45027673D01*
X42557162Y-45371201D01*
X42556838Y-45743167D01*
X18597013Y-45743167D01*
X18597162Y-45572833D01*
X18455117Y-45229057D01*
X18192327Y-44965808D01*
X17848799Y-44823162D01*
X17476833Y-44822838D01*
X17133057Y-44964883D01*
X16869808Y-45227673D01*
X16727162Y-45571201D01*
X16726838Y-45943167D01*
X16734956Y-45962813D01*
X16569808Y-46127673D01*
X16427162Y-46471201D01*
X16426838Y-46843167D01*
X8896977Y-46843167D01*
X8848799Y-46823162D01*
X8596857Y-46822943D01*
X8597162Y-46472833D01*
X8455117Y-46129057D01*
X8192327Y-45865808D01*
X7848799Y-45723162D01*
X7476833Y-45722838D01*
X7133057Y-45864883D01*
X6869808Y-46127673D01*
X6727162Y-46471201D01*
X6726838Y-46843167D01*
X947000Y-46843167D01*
X947000Y-41840400D01*
X2896960Y-41840400D01*
X2896960Y-44075600D01*
X2941238Y-44310917D01*
X3080310Y-44527041D01*
X3292510Y-44672031D01*
X3544400Y-44723040D01*
X5779600Y-44723040D01*
X6014917Y-44678762D01*
X6231041Y-44539690D01*
X6332864Y-44390667D01*
X6774338Y-44390667D01*
X6916383Y-44734443D01*
X7179173Y-44997692D01*
X7522701Y-45140338D01*
X7894667Y-45140662D01*
X8238443Y-44998617D01*
X8501692Y-44735827D01*
X8644338Y-44392299D01*
X8644502Y-44203167D01*
X41026838Y-44203167D01*
X41168883Y-44546943D01*
X41431673Y-44810192D01*
X41775201Y-44952838D01*
X42147167Y-44953162D01*
X42490943Y-44811117D01*
X42754192Y-44548327D01*
X42896838Y-44204799D01*
X42896891Y-44143167D01*
X51026838Y-44143167D01*
X51168883Y-44486943D01*
X51431673Y-44750192D01*
X51775201Y-44892838D01*
X52147167Y-44893162D01*
X52245082Y-44852704D01*
X52069808Y-45027673D01*
X51927162Y-45371201D01*
X51926838Y-45743167D01*
X52068883Y-46086943D01*
X52331673Y-46350192D01*
X52675201Y-46492838D01*
X53047167Y-46493162D01*
X53117582Y-46464067D01*
X53779338Y-46464067D01*
X53921383Y-46807843D01*
X54184173Y-47071092D01*
X54527701Y-47213738D01*
X54899667Y-47214062D01*
X55243443Y-47072017D01*
X55506692Y-46809227D01*
X55649338Y-46465699D01*
X55649662Y-46093733D01*
X55558527Y-45873167D01*
X57802138Y-45873167D01*
X57944183Y-46216943D01*
X58206973Y-46480192D01*
X58550501Y-46622838D01*
X58922467Y-46623162D01*
X59266243Y-46481117D01*
X59529492Y-46218327D01*
X59672138Y-45874799D01*
X59672462Y-45502833D01*
X59530417Y-45159057D01*
X59267627Y-44895808D01*
X59020442Y-44793167D01*
X61166838Y-44793167D01*
X61308883Y-45136943D01*
X61571673Y-45400192D01*
X61915201Y-45542838D01*
X62287167Y-45543162D01*
X62630943Y-45401117D01*
X62894192Y-45138327D01*
X63036838Y-44794799D01*
X63036883Y-44742967D01*
X71976838Y-44742967D01*
X72118883Y-45086743D01*
X72381673Y-45349992D01*
X72725201Y-45492638D01*
X73097167Y-45492962D01*
X73440943Y-45350917D01*
X73704192Y-45088127D01*
X73846838Y-44744599D01*
X73847162Y-44372633D01*
X73839119Y-44353167D01*
X76006838Y-44353167D01*
X76148883Y-44696943D01*
X76411673Y-44960192D01*
X76755201Y-45102838D01*
X77127167Y-45103162D01*
X77470943Y-44961117D01*
X77734192Y-44698327D01*
X77876838Y-44354799D01*
X77877132Y-44017578D01*
X78018883Y-44360643D01*
X78188865Y-44530922D01*
X77913057Y-44644883D01*
X77649808Y-44907673D01*
X77507162Y-45251201D01*
X77506838Y-45623167D01*
X77648883Y-45966943D01*
X77911673Y-46230192D01*
X78255201Y-46372838D01*
X78627167Y-46373162D01*
X78970943Y-46231117D01*
X79234192Y-45968327D01*
X79275392Y-45869108D01*
X79525201Y-45972838D01*
X79897167Y-45973162D01*
X80240943Y-45831117D01*
X80504192Y-45568327D01*
X80646838Y-45224799D01*
X80647162Y-44852833D01*
X80505117Y-44509057D01*
X80470654Y-44474534D01*
X80720943Y-44371117D01*
X80984192Y-44108327D01*
X81126838Y-43764799D01*
X81127162Y-43392833D01*
X80985117Y-43049057D01*
X80722327Y-42785808D01*
X80378799Y-42643162D01*
X80006833Y-42642838D01*
X79663057Y-42784883D01*
X79399808Y-43047673D01*
X79385316Y-43082572D01*
X79342327Y-43039508D01*
X78998799Y-42896862D01*
X78626833Y-42896538D01*
X78283057Y-43038583D01*
X78019808Y-43301373D01*
X77877162Y-43644901D01*
X77876868Y-43982122D01*
X77735117Y-43639057D01*
X77472327Y-43375808D01*
X77128799Y-43233162D01*
X76756833Y-43232838D01*
X76413057Y-43374883D01*
X76149808Y-43637673D01*
X76007162Y-43981201D01*
X76006838Y-44353167D01*
X73839119Y-44353167D01*
X73705117Y-44028857D01*
X73442327Y-43765608D01*
X73098799Y-43622962D01*
X72726833Y-43622638D01*
X72383057Y-43764683D01*
X72119808Y-44027473D01*
X71977162Y-44371001D01*
X71976838Y-44742967D01*
X63036883Y-44742967D01*
X63037162Y-44422833D01*
X62895117Y-44079057D01*
X62632327Y-43815808D01*
X62288799Y-43673162D01*
X61916833Y-43672838D01*
X61573057Y-43814883D01*
X61309808Y-44077673D01*
X61167162Y-44421201D01*
X61166838Y-44793167D01*
X59020442Y-44793167D01*
X58924099Y-44753162D01*
X58552133Y-44752838D01*
X58208357Y-44894883D01*
X57945108Y-45157673D01*
X57802462Y-45501201D01*
X57802138Y-45873167D01*
X55558527Y-45873167D01*
X55507617Y-45749957D01*
X55244827Y-45486708D01*
X54901299Y-45344062D01*
X54529333Y-45343738D01*
X54185557Y-45485783D01*
X53922308Y-45748573D01*
X53779662Y-46092101D01*
X53779338Y-46464067D01*
X53117582Y-46464067D01*
X53390943Y-46351117D01*
X53654192Y-46088327D01*
X53796838Y-45744799D01*
X53797162Y-45372833D01*
X53655117Y-45029057D01*
X53392327Y-44765808D01*
X53048799Y-44623162D01*
X52676833Y-44622838D01*
X52578918Y-44663296D01*
X52754192Y-44488327D01*
X52827807Y-44311044D01*
X53145201Y-44442838D01*
X53517167Y-44443162D01*
X53860943Y-44301117D01*
X54124192Y-44038327D01*
X54266838Y-43694799D01*
X54267162Y-43322833D01*
X54125117Y-42979057D01*
X53862327Y-42715808D01*
X53518799Y-42573162D01*
X53146833Y-42572838D01*
X52803057Y-42714883D01*
X52539808Y-42977673D01*
X52466193Y-43154956D01*
X52148799Y-43023162D01*
X51776833Y-43022838D01*
X51433057Y-43164883D01*
X51169808Y-43427673D01*
X51027162Y-43771201D01*
X51026838Y-44143167D01*
X42896891Y-44143167D01*
X42897162Y-43832833D01*
X42755117Y-43489057D01*
X42492327Y-43225808D01*
X42148799Y-43083162D01*
X41776833Y-43082838D01*
X41433057Y-43224883D01*
X41169808Y-43487673D01*
X41027162Y-43831201D01*
X41026838Y-44203167D01*
X8644502Y-44203167D01*
X8644662Y-44020333D01*
X8502617Y-43676557D01*
X8239827Y-43413308D01*
X7896299Y-43270662D01*
X7524333Y-43270338D01*
X7180557Y-43412383D01*
X6917308Y-43675173D01*
X6774662Y-44018701D01*
X6774338Y-44390667D01*
X6332864Y-44390667D01*
X6376031Y-44327490D01*
X6427040Y-44075600D01*
X6427040Y-42878167D01*
X48071838Y-42878167D01*
X48213883Y-43221943D01*
X48476673Y-43485192D01*
X48820201Y-43627838D01*
X49192167Y-43628162D01*
X49535943Y-43486117D01*
X49799192Y-43223327D01*
X49941838Y-42879799D01*
X49942162Y-42507833D01*
X49808014Y-42183167D01*
X53616838Y-42183167D01*
X53758883Y-42526943D01*
X54021673Y-42790192D01*
X54365201Y-42932838D01*
X54737167Y-42933162D01*
X55080943Y-42791117D01*
X55344192Y-42528327D01*
X55486838Y-42184799D01*
X55487162Y-41812833D01*
X55345117Y-41469057D01*
X55082327Y-41205808D01*
X54738799Y-41063162D01*
X54366833Y-41062838D01*
X54023057Y-41204883D01*
X53759808Y-41467673D01*
X53617162Y-41811201D01*
X53616838Y-42183167D01*
X49808014Y-42183167D01*
X49800117Y-42164057D01*
X49537327Y-41900808D01*
X49193799Y-41758162D01*
X48821833Y-41757838D01*
X48478057Y-41899883D01*
X48214808Y-42162673D01*
X48072162Y-42506201D01*
X48071838Y-42878167D01*
X6427040Y-42878167D01*
X6427040Y-41840400D01*
X6382762Y-41605083D01*
X6243690Y-41388959D01*
X6031490Y-41243969D01*
X5779600Y-41192960D01*
X3544400Y-41192960D01*
X3309083Y-41237238D01*
X3092959Y-41376310D01*
X2947969Y-41588510D01*
X2896960Y-41840400D01*
X947000Y-41840400D01*
X947000Y-38343167D01*
X12226838Y-38343167D01*
X12368883Y-38686943D01*
X12631673Y-38950192D01*
X12975201Y-39092838D01*
X13347167Y-39093162D01*
X13690943Y-38951117D01*
X13954192Y-38688327D01*
X14060600Y-38432067D01*
X20306638Y-38432067D01*
X20448683Y-38775843D01*
X20711473Y-39039092D01*
X21055001Y-39181738D01*
X21426967Y-39182062D01*
X21629818Y-39098246D01*
X21681673Y-39150192D01*
X22025201Y-39292838D01*
X22397167Y-39293162D01*
X22740943Y-39151117D01*
X22987138Y-38905352D01*
X23161673Y-39080192D01*
X23505201Y-39222838D01*
X23814915Y-39223108D01*
X24001673Y-39410192D01*
X24345201Y-39552838D01*
X24717167Y-39553162D01*
X25060943Y-39411117D01*
X25324192Y-39148327D01*
X25349441Y-39087520D01*
X25601673Y-39340192D01*
X25945201Y-39482838D01*
X26317167Y-39483162D01*
X26660943Y-39341117D01*
X26847106Y-39155278D01*
X26846838Y-39463167D01*
X26988883Y-39806943D01*
X27251673Y-40070192D01*
X27595201Y-40212838D01*
X27967167Y-40213162D01*
X28310943Y-40071117D01*
X28574192Y-39808327D01*
X28716838Y-39464799D01*
X28717162Y-39092833D01*
X28575117Y-38749057D01*
X28312327Y-38485808D01*
X28226092Y-38450000D01*
X28314756Y-38390756D01*
X28324756Y-38380757D01*
X28389963Y-38283167D01*
X29896838Y-38283167D01*
X30038883Y-38626943D01*
X30301673Y-38890192D01*
X30645201Y-39032838D01*
X31017167Y-39033162D01*
X31360943Y-38891117D01*
X31624192Y-38628327D01*
X31742601Y-38343167D01*
X32426838Y-38343167D01*
X32568883Y-38686943D01*
X32831673Y-38950192D01*
X33175201Y-39092838D01*
X33454819Y-39093082D01*
X33601673Y-39240192D01*
X33945201Y-39382838D01*
X34317167Y-39383162D01*
X34660943Y-39241117D01*
X34924192Y-38978327D01*
X35066838Y-38634799D01*
X35067154Y-38271267D01*
X36616338Y-38271267D01*
X36758383Y-38615043D01*
X37021173Y-38878292D01*
X37364701Y-39020938D01*
X37736667Y-39021262D01*
X38080443Y-38879217D01*
X38236765Y-38723167D01*
X39276838Y-38723167D01*
X39418883Y-39066943D01*
X39681673Y-39330192D01*
X40025201Y-39472838D01*
X40397167Y-39473162D01*
X40542366Y-39413167D01*
X43006838Y-39413167D01*
X43148883Y-39756943D01*
X43411673Y-40020192D01*
X43755201Y-40162838D01*
X44127167Y-40163162D01*
X44470943Y-40021117D01*
X44734192Y-39758327D01*
X44876838Y-39414799D01*
X44877162Y-39042833D01*
X44735117Y-38699057D01*
X44472327Y-38435808D01*
X44128799Y-38293162D01*
X43756833Y-38292838D01*
X43413057Y-38434883D01*
X43149808Y-38697673D01*
X43007162Y-39041201D01*
X43006838Y-39413167D01*
X40542366Y-39413167D01*
X40740943Y-39331117D01*
X41004192Y-39068327D01*
X41146838Y-38724799D01*
X41147162Y-38352833D01*
X41005117Y-38009057D01*
X40742327Y-37745808D01*
X40495142Y-37643167D01*
X47726838Y-37643167D01*
X47868883Y-37986943D01*
X48131673Y-38250192D01*
X48475201Y-38392838D01*
X48847167Y-38393162D01*
X49190943Y-38251117D01*
X49289064Y-38153167D01*
X70576838Y-38153167D01*
X70718883Y-38496943D01*
X70981673Y-38760192D01*
X71325201Y-38902838D01*
X71697167Y-38903162D01*
X72040943Y-38761117D01*
X72169116Y-38633167D01*
X76066838Y-38633167D01*
X76208883Y-38976943D01*
X76471673Y-39240192D01*
X76815201Y-39382838D01*
X77187167Y-39383162D01*
X77530943Y-39241117D01*
X77689168Y-39083167D01*
X79436838Y-39083167D01*
X79578883Y-39426943D01*
X79841673Y-39690192D01*
X80185201Y-39832838D01*
X80557167Y-39833162D01*
X80900943Y-39691117D01*
X81164192Y-39428327D01*
X81306838Y-39084799D01*
X81307162Y-38712833D01*
X81165117Y-38369057D01*
X80902327Y-38105808D01*
X80558799Y-37963162D01*
X80186833Y-37962838D01*
X79843057Y-38104883D01*
X79579808Y-38367673D01*
X79437162Y-38711201D01*
X79436838Y-39083167D01*
X77689168Y-39083167D01*
X77794192Y-38978327D01*
X77936838Y-38634799D01*
X77937162Y-38262833D01*
X77795117Y-37919057D01*
X77532327Y-37655808D01*
X77188799Y-37513162D01*
X76816833Y-37512838D01*
X76473057Y-37654883D01*
X76209808Y-37917673D01*
X76067162Y-38261201D01*
X76066838Y-38633167D01*
X72169116Y-38633167D01*
X72304192Y-38498327D01*
X72446838Y-38154799D01*
X72447162Y-37782833D01*
X72305117Y-37439057D01*
X72149499Y-37283167D01*
X73356838Y-37283167D01*
X73498883Y-37626943D01*
X73761673Y-37890192D01*
X74105201Y-38032838D01*
X74477167Y-38033162D01*
X74820943Y-37891117D01*
X75084192Y-37628327D01*
X75226838Y-37284799D01*
X75227162Y-36912833D01*
X75085117Y-36569057D01*
X74822327Y-36305808D01*
X74478799Y-36163162D01*
X74106833Y-36162838D01*
X73763057Y-36304883D01*
X73499808Y-36567673D01*
X73357162Y-36911201D01*
X73356838Y-37283167D01*
X72149499Y-37283167D01*
X72042327Y-37175808D01*
X71698799Y-37033162D01*
X71326833Y-37032838D01*
X70983057Y-37174883D01*
X70719808Y-37437673D01*
X70577162Y-37781201D01*
X70576838Y-38153167D01*
X49289064Y-38153167D01*
X49454192Y-37988327D01*
X49596838Y-37644799D01*
X49597048Y-37403167D01*
X56806838Y-37403167D01*
X56948883Y-37746943D01*
X57211673Y-38010192D01*
X57555201Y-38152838D01*
X57927167Y-38153162D01*
X58270943Y-38011117D01*
X58534192Y-37748327D01*
X58676838Y-37404799D01*
X58676853Y-37387841D01*
X58910943Y-37291117D01*
X59174192Y-37028327D01*
X59316838Y-36684799D01*
X59317162Y-36312833D01*
X59175117Y-35969057D01*
X58912327Y-35705808D01*
X58568799Y-35563162D01*
X58196833Y-35562838D01*
X57853057Y-35704883D01*
X57589808Y-35967673D01*
X57447162Y-36311201D01*
X57447147Y-36328159D01*
X57213057Y-36424883D01*
X56949808Y-36687673D01*
X56807162Y-37031201D01*
X56806838Y-37403167D01*
X49597048Y-37403167D01*
X49597162Y-37272833D01*
X49455117Y-36929057D01*
X49192327Y-36665808D01*
X48848799Y-36523162D01*
X48476833Y-36522838D01*
X48133057Y-36664883D01*
X47869808Y-36927673D01*
X47727162Y-37271201D01*
X47726838Y-37643167D01*
X40495142Y-37643167D01*
X40398799Y-37603162D01*
X40026833Y-37602838D01*
X39683057Y-37744883D01*
X39419808Y-38007673D01*
X39277162Y-38351201D01*
X39276838Y-38723167D01*
X38236765Y-38723167D01*
X38343692Y-38616427D01*
X38486338Y-38272899D01*
X38486662Y-37900933D01*
X38344617Y-37557157D01*
X38081827Y-37293908D01*
X37738299Y-37151262D01*
X37366333Y-37150938D01*
X37022557Y-37292983D01*
X36759308Y-37555773D01*
X36616662Y-37899301D01*
X36616338Y-38271267D01*
X35067154Y-38271267D01*
X35067162Y-38262833D01*
X34925117Y-37919057D01*
X34662327Y-37655808D01*
X34318799Y-37513162D01*
X34039181Y-37512918D01*
X33892327Y-37365808D01*
X33548799Y-37223162D01*
X33176833Y-37222838D01*
X32833057Y-37364883D01*
X32569808Y-37627673D01*
X32427162Y-37971201D01*
X32426838Y-38343167D01*
X31742601Y-38343167D01*
X31766838Y-38284799D01*
X31767162Y-37912833D01*
X31625117Y-37569057D01*
X31362327Y-37305808D01*
X31018799Y-37163162D01*
X30646833Y-37162838D01*
X30303057Y-37304883D01*
X30039808Y-37567673D01*
X29897162Y-37911201D01*
X29896838Y-38283167D01*
X28389963Y-38283167D01*
X28463686Y-38172833D01*
X28500342Y-38117974D01*
X28562000Y-37808000D01*
X28562000Y-37768000D01*
X28500342Y-37458026D01*
X28324756Y-37195244D01*
X28061974Y-37019658D01*
X27752000Y-36958000D01*
X27442026Y-37019658D01*
X27207279Y-37176512D01*
X27078799Y-37123162D01*
X26706833Y-37122838D01*
X26363057Y-37264883D01*
X26099808Y-37527673D01*
X26064402Y-37612940D01*
X25946833Y-37612838D01*
X25603057Y-37754883D01*
X25339808Y-38017673D01*
X25314559Y-38078480D01*
X25062327Y-37825808D01*
X24718799Y-37683162D01*
X24409085Y-37682892D01*
X24222327Y-37495808D01*
X23878799Y-37353162D01*
X23506833Y-37352838D01*
X23163057Y-37494883D01*
X22916862Y-37740648D01*
X22742327Y-37565808D01*
X22398799Y-37423162D01*
X22026833Y-37422838D01*
X21823982Y-37506654D01*
X21772127Y-37454708D01*
X21428599Y-37312062D01*
X21056633Y-37311738D01*
X20712857Y-37453783D01*
X20449608Y-37716573D01*
X20306962Y-38060101D01*
X20306638Y-38432067D01*
X14060600Y-38432067D01*
X14096838Y-38344799D01*
X14097162Y-37972833D01*
X13955117Y-37629057D01*
X13692327Y-37365808D01*
X13348799Y-37223162D01*
X12976833Y-37222838D01*
X12633057Y-37364883D01*
X12369808Y-37627673D01*
X12227162Y-37971201D01*
X12226838Y-38343167D01*
X947000Y-38343167D01*
X947000Y-35658000D01*
X2127000Y-35658000D01*
X2281905Y-36436761D01*
X2723038Y-37096962D01*
X3383239Y-37538095D01*
X4162000Y-37693000D01*
X4940761Y-37538095D01*
X5600962Y-37096962D01*
X5837360Y-36743167D01*
X45826838Y-36743167D01*
X45968883Y-37086943D01*
X46231673Y-37350192D01*
X46575201Y-37492838D01*
X46947167Y-37493162D01*
X47290943Y-37351117D01*
X47554192Y-37088327D01*
X47696838Y-36744799D01*
X47697162Y-36372833D01*
X47555117Y-36029057D01*
X47292327Y-35765808D01*
X46948799Y-35623162D01*
X46576833Y-35622838D01*
X46233057Y-35764883D01*
X45969808Y-36027673D01*
X45827162Y-36371201D01*
X45826838Y-36743167D01*
X5837360Y-36743167D01*
X6042095Y-36436761D01*
X6197000Y-35658000D01*
X6089243Y-35116267D01*
X35148338Y-35116267D01*
X35290383Y-35460043D01*
X35553173Y-35723292D01*
X35896701Y-35865938D01*
X36268667Y-35866262D01*
X36612443Y-35724217D01*
X36875692Y-35461427D01*
X37018338Y-35117899D01*
X37018662Y-34745933D01*
X36905834Y-34472867D01*
X38374438Y-34472867D01*
X38516483Y-34816643D01*
X38779273Y-35079892D01*
X39122801Y-35222538D01*
X39494767Y-35222862D01*
X39838543Y-35080817D01*
X40101792Y-34818027D01*
X40161029Y-34675367D01*
X46598438Y-34675367D01*
X46740483Y-35019143D01*
X47003273Y-35282392D01*
X47346801Y-35425038D01*
X47718767Y-35425362D01*
X48062543Y-35283317D01*
X48090141Y-35255767D01*
X74236838Y-35255767D01*
X74378883Y-35599543D01*
X74641673Y-35862792D01*
X74985201Y-36005438D01*
X75357167Y-36005762D01*
X75700943Y-35863717D01*
X75907019Y-35658000D01*
X79127000Y-35658000D01*
X79281905Y-36436761D01*
X79723038Y-37096962D01*
X80383239Y-37538095D01*
X81162000Y-37693000D01*
X81940761Y-37538095D01*
X82600962Y-37096962D01*
X83042095Y-36436761D01*
X83197000Y-35658000D01*
X83042095Y-34879239D01*
X82600962Y-34219038D01*
X81940761Y-33777905D01*
X81162000Y-33623000D01*
X80383239Y-33777905D01*
X79723038Y-34219038D01*
X79281905Y-34879239D01*
X79127000Y-35658000D01*
X75907019Y-35658000D01*
X75964192Y-35600927D01*
X76106838Y-35257399D01*
X76107162Y-34885433D01*
X75965117Y-34541657D01*
X75702327Y-34278408D01*
X75358799Y-34135762D01*
X74986833Y-34135438D01*
X74643057Y-34277483D01*
X74379808Y-34540273D01*
X74237162Y-34883801D01*
X74236838Y-35255767D01*
X48090141Y-35255767D01*
X48325792Y-35020527D01*
X48468438Y-34676999D01*
X48468762Y-34305033D01*
X48326717Y-33961257D01*
X48063927Y-33698008D01*
X47720399Y-33555362D01*
X47348433Y-33555038D01*
X47004657Y-33697083D01*
X46741408Y-33959873D01*
X46598762Y-34303401D01*
X46598438Y-34675367D01*
X40161029Y-34675367D01*
X40244438Y-34474499D01*
X40244762Y-34102533D01*
X40102717Y-33758757D01*
X39839927Y-33495508D01*
X39496399Y-33352862D01*
X39124433Y-33352538D01*
X38780657Y-33494583D01*
X38517408Y-33757373D01*
X38374762Y-34100901D01*
X38374438Y-34472867D01*
X36905834Y-34472867D01*
X36876617Y-34402157D01*
X36613827Y-34138908D01*
X36270299Y-33996262D01*
X35898333Y-33995938D01*
X35554557Y-34137983D01*
X35291308Y-34400773D01*
X35148662Y-34744301D01*
X35148338Y-35116267D01*
X6089243Y-35116267D01*
X6042095Y-34879239D01*
X5600962Y-34219038D01*
X4940761Y-33777905D01*
X4162000Y-33623000D01*
X3383239Y-33777905D01*
X2723038Y-34219038D01*
X2281905Y-34879239D01*
X2127000Y-35658000D01*
X947000Y-35658000D01*
X947000Y-33433167D01*
X28526838Y-33433167D01*
X28668883Y-33776943D01*
X28931673Y-34040192D01*
X29275201Y-34182838D01*
X29647167Y-34183162D01*
X29990943Y-34041117D01*
X30254192Y-33778327D01*
X30396838Y-33434799D01*
X30397162Y-33062833D01*
X30281048Y-32781815D01*
X30416838Y-32454799D01*
X30417162Y-32082833D01*
X30275117Y-31739057D01*
X30012327Y-31475808D01*
X29668799Y-31333162D01*
X29296833Y-31332838D01*
X28953057Y-31474883D01*
X28689808Y-31737673D01*
X28547162Y-32081201D01*
X28546838Y-32453167D01*
X28662952Y-32734185D01*
X28527162Y-33061201D01*
X28526838Y-33433167D01*
X947000Y-33433167D01*
X947000Y-30713167D01*
X51376838Y-30713167D01*
X51518883Y-31056943D01*
X51781673Y-31320192D01*
X52125201Y-31462838D01*
X52497167Y-31463162D01*
X52840943Y-31321117D01*
X53104192Y-31058327D01*
X53246838Y-30714799D01*
X53247139Y-30368967D01*
X54151038Y-30368967D01*
X54293083Y-30712743D01*
X54555873Y-30975992D01*
X54686265Y-31030136D01*
X54686238Y-31060767D01*
X54828283Y-31404543D01*
X55091073Y-31667792D01*
X55286122Y-31748784D01*
X55285838Y-32075167D01*
X55427883Y-32418943D01*
X55690673Y-32682192D01*
X56034201Y-32824838D01*
X56406167Y-32825162D01*
X56749943Y-32683117D01*
X57013192Y-32420327D01*
X57155838Y-32076799D01*
X57156041Y-31843167D01*
X61226838Y-31843167D01*
X61368883Y-32186943D01*
X61464710Y-32282937D01*
X61369808Y-32377673D01*
X61227162Y-32721201D01*
X61226838Y-33093167D01*
X61368883Y-33436943D01*
X61631673Y-33700192D01*
X61975201Y-33842838D01*
X62347167Y-33843162D01*
X62690943Y-33701117D01*
X62954192Y-33438327D01*
X63096838Y-33094799D01*
X63097162Y-32722833D01*
X62955117Y-32379057D01*
X62859290Y-32283063D01*
X62954192Y-32188327D01*
X63096838Y-31844799D01*
X63097162Y-31472833D01*
X62955117Y-31129057D01*
X62692327Y-30865808D01*
X62348799Y-30723162D01*
X61976833Y-30722838D01*
X61633057Y-30864883D01*
X61369808Y-31127673D01*
X61227162Y-31471201D01*
X61226838Y-31843167D01*
X57156041Y-31843167D01*
X57156162Y-31704833D01*
X57014117Y-31361057D01*
X56751327Y-31097808D01*
X56556278Y-31016816D01*
X56556562Y-30690433D01*
X56414517Y-30346657D01*
X56151727Y-30083408D01*
X56021335Y-30029264D01*
X56021362Y-29998633D01*
X55879317Y-29654857D01*
X55616527Y-29391608D01*
X55317083Y-29267267D01*
X55851538Y-29267267D01*
X55993583Y-29611043D01*
X56256373Y-29874292D01*
X56599901Y-30016938D01*
X56971867Y-30017262D01*
X57315643Y-29875217D01*
X57528063Y-29663167D01*
X62636838Y-29663167D01*
X62778883Y-30006943D01*
X63041673Y-30270192D01*
X63385201Y-30412838D01*
X63757167Y-30413162D01*
X64100943Y-30271117D01*
X64364192Y-30008327D01*
X64506838Y-29664799D01*
X64507162Y-29292833D01*
X64365117Y-28949057D01*
X64102327Y-28685808D01*
X63758799Y-28543162D01*
X63386833Y-28542838D01*
X63043057Y-28684883D01*
X62779808Y-28947673D01*
X62637162Y-29291201D01*
X62636838Y-29663167D01*
X57528063Y-29663167D01*
X57578892Y-29612427D01*
X57703320Y-29312773D01*
X57900943Y-29231117D01*
X58164192Y-28968327D01*
X58306838Y-28624799D01*
X58307162Y-28252833D01*
X58165117Y-27909057D01*
X57902327Y-27645808D01*
X57558799Y-27503162D01*
X57186833Y-27502838D01*
X56843057Y-27644883D01*
X56579808Y-27907673D01*
X56455380Y-28207327D01*
X56257757Y-28288983D01*
X55994508Y-28551773D01*
X55851862Y-28895301D01*
X55851538Y-29267267D01*
X55317083Y-29267267D01*
X55272999Y-29248962D01*
X54901033Y-29248638D01*
X54557257Y-29390683D01*
X54294008Y-29653473D01*
X54151362Y-29997001D01*
X54151038Y-30368967D01*
X53247139Y-30368967D01*
X53247162Y-30342833D01*
X53105117Y-29999057D01*
X52842327Y-29735808D01*
X52498799Y-29593162D01*
X52126833Y-29592838D01*
X51783057Y-29734883D01*
X51519808Y-29997673D01*
X51377162Y-30341201D01*
X51376838Y-30713167D01*
X947000Y-30713167D01*
X947000Y-29943167D01*
X39199938Y-29943167D01*
X39341983Y-30286943D01*
X39604773Y-30550192D01*
X39948301Y-30692838D01*
X40320267Y-30693162D01*
X40664043Y-30551117D01*
X40927292Y-30288327D01*
X41069938Y-29944799D01*
X41070262Y-29572833D01*
X40928217Y-29229057D01*
X40665427Y-28965808D01*
X40321899Y-28823162D01*
X39949933Y-28822838D01*
X39606157Y-28964883D01*
X39342908Y-29227673D01*
X39200262Y-29571201D01*
X39199938Y-29943167D01*
X947000Y-29943167D01*
X947000Y-27913167D01*
X37586838Y-27913167D01*
X37728883Y-28256943D01*
X37991673Y-28520192D01*
X38335201Y-28662838D01*
X38707167Y-28663162D01*
X39050943Y-28521117D01*
X39314192Y-28258327D01*
X39455314Y-27918467D01*
X50682438Y-27918467D01*
X50824483Y-28262243D01*
X51087273Y-28525492D01*
X51430801Y-28668138D01*
X51802767Y-28668462D01*
X52146543Y-28526417D01*
X52409792Y-28263627D01*
X52552438Y-27920099D01*
X52552762Y-27548133D01*
X52445223Y-27287867D01*
X61166138Y-27287867D01*
X61308183Y-27631643D01*
X61570973Y-27894892D01*
X61914501Y-28037538D01*
X62286467Y-28037862D01*
X62630243Y-27895817D01*
X62893492Y-27633027D01*
X63036138Y-27289499D01*
X63036462Y-26917533D01*
X62894417Y-26573757D01*
X62631627Y-26310508D01*
X62288099Y-26167862D01*
X61916133Y-26167538D01*
X61572357Y-26309583D01*
X61309108Y-26572373D01*
X61166462Y-26915901D01*
X61166138Y-27287867D01*
X52445223Y-27287867D01*
X52410717Y-27204357D01*
X52147927Y-26941108D01*
X51804399Y-26798462D01*
X51432433Y-26798138D01*
X51088657Y-26940183D01*
X50825408Y-27202973D01*
X50682762Y-27546501D01*
X50682438Y-27918467D01*
X39455314Y-27918467D01*
X39456838Y-27914799D01*
X39457162Y-27542833D01*
X39427455Y-27470935D01*
X39506573Y-27550192D01*
X39850101Y-27692838D01*
X40222067Y-27693162D01*
X40565843Y-27551117D01*
X40613178Y-27503865D01*
X40755201Y-27562838D01*
X41127167Y-27563162D01*
X41470943Y-27421117D01*
X41734192Y-27158327D01*
X41876838Y-26814799D01*
X41877162Y-26442833D01*
X41735117Y-26099057D01*
X41472327Y-25835808D01*
X41128799Y-25693162D01*
X40756833Y-25692838D01*
X40413057Y-25834883D01*
X40365722Y-25882135D01*
X40223699Y-25823162D01*
X39851733Y-25822838D01*
X39507957Y-25964883D01*
X39244708Y-26227673D01*
X39102062Y-26571201D01*
X39101738Y-26943167D01*
X39131445Y-27015065D01*
X39052327Y-26935808D01*
X38708799Y-26793162D01*
X38336833Y-26792838D01*
X37993057Y-26934883D01*
X37729808Y-27197673D01*
X37587162Y-27541201D01*
X37586838Y-27913167D01*
X947000Y-27913167D01*
X947000Y-25303167D01*
X29846838Y-25303167D01*
X29988883Y-25646943D01*
X30251673Y-25910192D01*
X30595201Y-26052838D01*
X30967167Y-26053162D01*
X31310943Y-25911117D01*
X31399046Y-25823167D01*
X35436838Y-25823167D01*
X35578883Y-26166943D01*
X35841673Y-26430192D01*
X36185201Y-26572838D01*
X36557167Y-26573162D01*
X36900943Y-26431117D01*
X37164192Y-26168327D01*
X37306838Y-25824799D01*
X37307162Y-25452833D01*
X37165117Y-25109057D01*
X36902327Y-24845808D01*
X36558799Y-24703162D01*
X36186833Y-24702838D01*
X35843057Y-24844883D01*
X35579808Y-25107673D01*
X35437162Y-25451201D01*
X35436838Y-25823167D01*
X31399046Y-25823167D01*
X31574192Y-25648327D01*
X31716838Y-25304799D01*
X31717162Y-24932833D01*
X31575117Y-24589057D01*
X31312327Y-24325808D01*
X30968799Y-24183162D01*
X30596833Y-24182838D01*
X30253057Y-24324883D01*
X29989808Y-24587673D01*
X29847162Y-24931201D01*
X29846838Y-25303167D01*
X947000Y-25303167D01*
X947000Y-23593167D01*
X16753238Y-23593167D01*
X16895283Y-23936943D01*
X17158073Y-24200192D01*
X17463604Y-24327060D01*
X17589083Y-24630743D01*
X17851873Y-24893992D01*
X18195401Y-25036638D01*
X18567367Y-25036962D01*
X18911143Y-24894917D01*
X19174392Y-24632127D01*
X19317038Y-24288599D01*
X19317362Y-23916633D01*
X19175317Y-23572857D01*
X18912527Y-23309608D01*
X18606996Y-23182740D01*
X18481517Y-22879057D01*
X18218727Y-22615808D01*
X17875199Y-22473162D01*
X17503233Y-22472838D01*
X17159457Y-22614883D01*
X16896208Y-22877673D01*
X16753562Y-23221201D01*
X16753238Y-23593167D01*
X947000Y-23593167D01*
X947000Y-22343167D01*
X18426838Y-22343167D01*
X18568883Y-22686943D01*
X18831673Y-22950192D01*
X19175201Y-23092838D01*
X19547167Y-23093162D01*
X19890943Y-22951117D01*
X20119291Y-22723167D01*
X30696838Y-22723167D01*
X30838883Y-23066943D01*
X31101673Y-23330192D01*
X31445201Y-23472838D01*
X31817167Y-23473162D01*
X32160943Y-23331117D01*
X32424192Y-23068327D01*
X32566838Y-22724799D01*
X32566895Y-22659317D01*
X32610943Y-22641117D01*
X32874192Y-22378327D01*
X33016838Y-22034799D01*
X33017162Y-21662833D01*
X33004905Y-21633167D01*
X39956838Y-21633167D01*
X40098883Y-21976943D01*
X40361673Y-22240192D01*
X40705201Y-22382838D01*
X41077167Y-22383162D01*
X41420943Y-22241117D01*
X41684192Y-21978327D01*
X41826838Y-21634799D01*
X41827162Y-21262833D01*
X41685117Y-20919057D01*
X41422327Y-20655808D01*
X41078799Y-20513162D01*
X40706833Y-20512838D01*
X40363057Y-20654883D01*
X40099808Y-20917673D01*
X39957162Y-21261201D01*
X39956838Y-21633167D01*
X33004905Y-21633167D01*
X32875117Y-21319057D01*
X32612327Y-21055808D01*
X32268799Y-20913162D01*
X31896833Y-20912838D01*
X31553057Y-21054883D01*
X31289808Y-21317673D01*
X31147162Y-21661201D01*
X31147105Y-21726683D01*
X31103057Y-21744883D01*
X30839808Y-22007673D01*
X30697162Y-22351201D01*
X30696838Y-22723167D01*
X20119291Y-22723167D01*
X20154192Y-22688327D01*
X20296838Y-22344799D01*
X20297162Y-21972833D01*
X20155117Y-21629057D01*
X19892327Y-21365808D01*
X19548799Y-21223162D01*
X19176833Y-21222838D01*
X18833057Y-21364883D01*
X18569808Y-21627673D01*
X18427162Y-21971201D01*
X18426838Y-22343167D01*
X947000Y-22343167D01*
X947000Y-19813167D01*
X22686838Y-19813167D01*
X22828883Y-20156943D01*
X23091673Y-20420192D01*
X23435201Y-20562838D01*
X23807167Y-20563162D01*
X24150943Y-20421117D01*
X24414192Y-20158327D01*
X24462010Y-20043167D01*
X41226838Y-20043167D01*
X41368883Y-20386943D01*
X41631673Y-20650192D01*
X41975201Y-20792838D01*
X42347167Y-20793162D01*
X42352434Y-20790986D01*
X42215508Y-20927673D01*
X42072862Y-21271201D01*
X42072538Y-21643167D01*
X42124849Y-21769769D01*
X42103608Y-21790973D01*
X41960962Y-22134501D01*
X41960638Y-22506467D01*
X42102683Y-22850243D01*
X42365473Y-23113492D01*
X42697066Y-23251182D01*
X42696962Y-23370451D01*
X42692327Y-23365808D01*
X42348799Y-23223162D01*
X41976833Y-23222838D01*
X41633057Y-23364883D01*
X41369808Y-23627673D01*
X41227162Y-23971201D01*
X41226838Y-24343167D01*
X41368883Y-24686943D01*
X41631673Y-24950192D01*
X41975201Y-25092838D01*
X42347167Y-25093162D01*
X42690943Y-24951117D01*
X42954192Y-24688327D01*
X43096838Y-24344799D01*
X43097038Y-24115549D01*
X43101673Y-24120192D01*
X43445201Y-24262838D01*
X43817167Y-24263162D01*
X44160943Y-24121117D01*
X44424192Y-23858327D01*
X44566838Y-23514799D01*
X44567162Y-23142833D01*
X44464003Y-22893167D01*
X50926838Y-22893167D01*
X51068883Y-23236943D01*
X51331673Y-23500192D01*
X51675201Y-23642838D01*
X52047167Y-23643162D01*
X52390943Y-23501117D01*
X52654192Y-23238327D01*
X52796838Y-22894799D01*
X52797162Y-22522833D01*
X52655117Y-22179057D01*
X52392327Y-21915808D01*
X52048799Y-21773162D01*
X51676833Y-21772838D01*
X51333057Y-21914883D01*
X51069808Y-22177673D01*
X50927162Y-22521201D01*
X50926838Y-22893167D01*
X44464003Y-22893167D01*
X44425117Y-22799057D01*
X44162327Y-22535808D01*
X43830734Y-22398118D01*
X43830962Y-22136133D01*
X43778651Y-22009531D01*
X43799892Y-21988327D01*
X43942538Y-21644799D01*
X43942862Y-21272833D01*
X43800817Y-20929057D01*
X43538027Y-20665808D01*
X43194499Y-20523162D01*
X42822533Y-20522838D01*
X42817266Y-20525014D01*
X42954192Y-20388327D01*
X43096838Y-20044799D01*
X43097162Y-19672833D01*
X42955117Y-19329057D01*
X42692327Y-19065808D01*
X42348799Y-18923162D01*
X41976833Y-18922838D01*
X41633057Y-19064883D01*
X41369808Y-19327673D01*
X41227162Y-19671201D01*
X41226838Y-20043167D01*
X24462010Y-20043167D01*
X24556838Y-19814799D01*
X24557162Y-19442833D01*
X24415117Y-19099057D01*
X24152327Y-18835808D01*
X23808799Y-18693162D01*
X23436833Y-18692838D01*
X23093057Y-18834883D01*
X22829808Y-19097673D01*
X22687162Y-19441201D01*
X22686838Y-19813167D01*
X947000Y-19813167D01*
X947000Y-18843167D01*
X19526838Y-18843167D01*
X19668883Y-19186943D01*
X19931673Y-19450192D01*
X20275201Y-19592838D01*
X20647167Y-19593162D01*
X20990943Y-19451117D01*
X21254192Y-19188327D01*
X21396838Y-18844799D01*
X21397162Y-18472833D01*
X21306399Y-18253167D01*
X27686838Y-18253167D01*
X27828883Y-18596943D01*
X28091673Y-18860192D01*
X28435201Y-19002838D01*
X28807167Y-19003162D01*
X29150943Y-18861117D01*
X29349238Y-18663167D01*
X46386838Y-18663167D01*
X46528883Y-19006943D01*
X46791673Y-19270192D01*
X46979454Y-19348166D01*
X46899808Y-19427673D01*
X46757162Y-19771201D01*
X46756838Y-20143167D01*
X46898883Y-20486943D01*
X47161673Y-20750192D01*
X47505201Y-20892838D01*
X47877167Y-20893162D01*
X48220943Y-20751117D01*
X48484192Y-20488327D01*
X48626838Y-20144799D01*
X48626909Y-20063167D01*
X49506838Y-20063167D01*
X49648883Y-20406943D01*
X49911673Y-20670192D01*
X50255201Y-20812838D01*
X50627167Y-20813162D01*
X50970943Y-20671117D01*
X51234192Y-20408327D01*
X51294467Y-20263167D01*
X53276838Y-20263167D01*
X53418883Y-20606943D01*
X53681673Y-20870192D01*
X54025201Y-21012838D01*
X54397167Y-21013162D01*
X54740943Y-20871117D01*
X55004192Y-20608327D01*
X55146838Y-20264799D01*
X55147162Y-19892833D01*
X55005117Y-19549057D01*
X54742327Y-19285808D01*
X54639637Y-19243167D01*
X64926838Y-19243167D01*
X65068883Y-19586943D01*
X65331673Y-19850192D01*
X65675201Y-19992838D01*
X66047167Y-19993162D01*
X66390943Y-19851117D01*
X66654192Y-19588327D01*
X66796838Y-19244799D01*
X66797162Y-18872833D01*
X66784905Y-18843167D01*
X75576838Y-18843167D01*
X75718883Y-19186943D01*
X75981673Y-19450192D01*
X76325201Y-19592838D01*
X76697167Y-19593162D01*
X76939173Y-19493167D01*
X78537038Y-19493167D01*
X78679083Y-19836943D01*
X78941873Y-20100192D01*
X79285401Y-20242838D01*
X79657367Y-20243162D01*
X80001143Y-20101117D01*
X80264392Y-19838327D01*
X80407038Y-19494799D01*
X80407362Y-19122833D01*
X80265317Y-18779057D01*
X80002527Y-18515808D01*
X79658999Y-18373162D01*
X79287033Y-18372838D01*
X78943257Y-18514883D01*
X78680008Y-18777673D01*
X78537362Y-19121201D01*
X78537038Y-19493167D01*
X76939173Y-19493167D01*
X77040943Y-19451117D01*
X77304192Y-19188327D01*
X77446838Y-18844799D01*
X77447162Y-18472833D01*
X77305117Y-18129057D01*
X77042327Y-17865808D01*
X76698799Y-17723162D01*
X76326833Y-17722838D01*
X75983057Y-17864883D01*
X75719808Y-18127673D01*
X75577162Y-18471201D01*
X75576838Y-18843167D01*
X66784905Y-18843167D01*
X66655117Y-18529057D01*
X66392327Y-18265808D01*
X66048799Y-18123162D01*
X65676833Y-18122838D01*
X65333057Y-18264883D01*
X65069808Y-18527673D01*
X64927162Y-18871201D01*
X64926838Y-19243167D01*
X54639637Y-19243167D01*
X54398799Y-19143162D01*
X54026833Y-19142838D01*
X53683057Y-19284883D01*
X53419808Y-19547673D01*
X53277162Y-19891201D01*
X53276838Y-20263167D01*
X51294467Y-20263167D01*
X51376838Y-20064799D01*
X51377162Y-19692833D01*
X51235117Y-19349057D01*
X50972327Y-19085808D01*
X50628799Y-18943162D01*
X50256833Y-18942838D01*
X49913057Y-19084883D01*
X49649808Y-19347673D01*
X49507162Y-19691201D01*
X49506838Y-20063167D01*
X48626909Y-20063167D01*
X48627162Y-19772833D01*
X48485117Y-19429057D01*
X48222327Y-19165808D01*
X48034546Y-19087834D01*
X48114192Y-19008327D01*
X48256838Y-18664799D01*
X48257162Y-18292833D01*
X48115117Y-17949057D01*
X47852327Y-17685808D01*
X47508799Y-17543162D01*
X47136833Y-17542838D01*
X46793057Y-17684883D01*
X46529808Y-17947673D01*
X46387162Y-18291201D01*
X46386838Y-18663167D01*
X29349238Y-18663167D01*
X29414192Y-18598327D01*
X29556838Y-18254799D01*
X29557162Y-17882833D01*
X29415117Y-17539057D01*
X29152327Y-17275808D01*
X29049637Y-17233167D01*
X42926838Y-17233167D01*
X43068883Y-17576943D01*
X43331673Y-17840192D01*
X43675201Y-17982838D01*
X44047167Y-17983162D01*
X44390943Y-17841117D01*
X44654192Y-17578327D01*
X44796838Y-17234799D01*
X44797162Y-16862833D01*
X44655117Y-16519057D01*
X44392327Y-16255808D01*
X44361885Y-16243167D01*
X49426838Y-16243167D01*
X49568883Y-16586943D01*
X49831673Y-16850192D01*
X50175201Y-16992838D01*
X50547167Y-16993162D01*
X50890943Y-16851117D01*
X51154192Y-16588327D01*
X51296838Y-16244799D01*
X51297162Y-15872833D01*
X51155117Y-15529057D01*
X50892327Y-15265808D01*
X50548799Y-15123162D01*
X50176833Y-15122838D01*
X49833057Y-15264883D01*
X49569808Y-15527673D01*
X49427162Y-15871201D01*
X49426838Y-16243167D01*
X44361885Y-16243167D01*
X44048799Y-16113162D01*
X43676833Y-16112838D01*
X43333057Y-16254883D01*
X43069808Y-16517673D01*
X42927162Y-16861201D01*
X42926838Y-17233167D01*
X29049637Y-17233167D01*
X28808799Y-17133162D01*
X28436833Y-17132838D01*
X28093057Y-17274883D01*
X27829808Y-17537673D01*
X27687162Y-17881201D01*
X27686838Y-18253167D01*
X21306399Y-18253167D01*
X21255117Y-18129057D01*
X20992327Y-17865808D01*
X20648799Y-17723162D01*
X20276833Y-17722838D01*
X19933057Y-17864883D01*
X19669808Y-18127673D01*
X19527162Y-18471201D01*
X19526838Y-18843167D01*
X947000Y-18843167D01*
X947000Y-17663167D01*
X15076838Y-17663167D01*
X15218883Y-18006943D01*
X15481673Y-18270192D01*
X15825201Y-18412838D01*
X16197167Y-18413162D01*
X16540943Y-18271117D01*
X16804192Y-18008327D01*
X16946838Y-17664799D01*
X16947162Y-17292833D01*
X16805117Y-16949057D01*
X16542327Y-16685808D01*
X16198799Y-16543162D01*
X15826833Y-16542838D01*
X15483057Y-16684883D01*
X15219808Y-16947673D01*
X15077162Y-17291201D01*
X15076838Y-17663167D01*
X947000Y-17663167D01*
X947000Y-15993167D01*
X11176838Y-15993167D01*
X11318883Y-16336943D01*
X11581673Y-16600192D01*
X11925201Y-16742838D01*
X12297167Y-16743162D01*
X12640943Y-16601117D01*
X12839238Y-16403167D01*
X17576838Y-16403167D01*
X17718883Y-16746943D01*
X17981673Y-17010192D01*
X18325201Y-17152838D01*
X18697167Y-17153162D01*
X19040943Y-17011117D01*
X19304192Y-16748327D01*
X19446838Y-16404799D01*
X19447162Y-16032833D01*
X19316154Y-15715767D01*
X20226038Y-15715767D01*
X20368083Y-16059543D01*
X20630873Y-16322792D01*
X20974401Y-16465438D01*
X21346367Y-16465762D01*
X21352647Y-16463167D01*
X22336838Y-16463167D01*
X22478883Y-16806943D01*
X22741673Y-17070192D01*
X23085201Y-17212838D01*
X23457167Y-17213162D01*
X23800943Y-17071117D01*
X24064192Y-16808327D01*
X24206838Y-16464799D01*
X24207162Y-16092833D01*
X24065117Y-15749057D01*
X23802327Y-15485808D01*
X23458799Y-15343162D01*
X23086833Y-15342838D01*
X22743057Y-15484883D01*
X22479808Y-15747673D01*
X22337162Y-16091201D01*
X22336838Y-16463167D01*
X21352647Y-16463167D01*
X21690143Y-16323717D01*
X21953392Y-16060927D01*
X22096038Y-15717399D01*
X22096362Y-15345433D01*
X21954317Y-15001657D01*
X21691527Y-14738408D01*
X21678906Y-14733167D01*
X26246838Y-14733167D01*
X26388883Y-15076943D01*
X26651673Y-15340192D01*
X26995201Y-15482838D01*
X27367167Y-15483162D01*
X27710943Y-15341117D01*
X27974192Y-15078327D01*
X28005401Y-15003167D01*
X54756838Y-15003167D01*
X54898883Y-15346943D01*
X55161673Y-15610192D01*
X55505201Y-15752838D01*
X55877167Y-15753162D01*
X56220943Y-15611117D01*
X56484192Y-15348327D01*
X56626838Y-15004799D01*
X56627012Y-14805383D01*
X56711673Y-14890192D01*
X57055201Y-15032838D01*
X57427167Y-15033162D01*
X57770943Y-14891117D01*
X58034192Y-14628327D01*
X58176838Y-14284799D01*
X58177162Y-13912833D01*
X58096852Y-13718467D01*
X76417638Y-13718467D01*
X76559683Y-14062243D01*
X76822473Y-14325492D01*
X77166001Y-14468138D01*
X77537967Y-14468462D01*
X77881743Y-14326417D01*
X78144992Y-14063627D01*
X78287638Y-13720099D01*
X78287962Y-13348133D01*
X78145917Y-13004357D01*
X77883127Y-12741108D01*
X77539599Y-12598462D01*
X77167633Y-12598138D01*
X76823857Y-12740183D01*
X76560608Y-13002973D01*
X76417962Y-13346501D01*
X76417638Y-13718467D01*
X58096852Y-13718467D01*
X58035117Y-13569057D01*
X57772327Y-13305808D01*
X57428799Y-13163162D01*
X57168941Y-13162936D01*
X57035117Y-12839057D01*
X56976829Y-12780667D01*
X70518138Y-12780667D01*
X70660183Y-13124443D01*
X70922973Y-13387692D01*
X71266501Y-13530338D01*
X71638467Y-13530662D01*
X71982243Y-13388617D01*
X72245492Y-13125827D01*
X72388138Y-12782299D01*
X72388462Y-12410333D01*
X72246417Y-12066557D01*
X72128234Y-11948167D01*
X73031638Y-11948167D01*
X73173683Y-12291943D01*
X73436473Y-12555192D01*
X73780001Y-12697838D01*
X74151967Y-12698162D01*
X74495743Y-12556117D01*
X74758992Y-12293327D01*
X74901638Y-11949799D01*
X74901962Y-11577833D01*
X74759917Y-11234057D01*
X74497127Y-10970808D01*
X74153599Y-10828162D01*
X73781633Y-10827838D01*
X73437857Y-10969883D01*
X73174608Y-11232673D01*
X73031962Y-11576201D01*
X73031638Y-11948167D01*
X72128234Y-11948167D01*
X71983627Y-11803308D01*
X71640099Y-11660662D01*
X71268133Y-11660338D01*
X70924357Y-11802383D01*
X70661108Y-12065173D01*
X70518462Y-12408701D01*
X70518138Y-12780667D01*
X56976829Y-12780667D01*
X56772327Y-12575808D01*
X56428799Y-12433162D01*
X56056833Y-12432838D01*
X55713057Y-12574883D01*
X55449808Y-12837673D01*
X55307162Y-13181201D01*
X55306838Y-13553167D01*
X55448883Y-13896943D01*
X55455837Y-13903909D01*
X55163057Y-14024883D01*
X54899808Y-14287673D01*
X54757162Y-14631201D01*
X54756838Y-15003167D01*
X28005401Y-15003167D01*
X28116838Y-14734799D01*
X28117162Y-14362833D01*
X27975117Y-14019057D01*
X27712327Y-13755808D01*
X27368799Y-13613162D01*
X26996833Y-13612838D01*
X26653057Y-13754883D01*
X26389808Y-14017673D01*
X26247162Y-14361201D01*
X26246838Y-14733167D01*
X21678906Y-14733167D01*
X21347999Y-14595762D01*
X20976033Y-14595438D01*
X20632257Y-14737483D01*
X20369008Y-15000273D01*
X20226362Y-15343801D01*
X20226038Y-15715767D01*
X19316154Y-15715767D01*
X19305117Y-15689057D01*
X19042327Y-15425808D01*
X18698799Y-15283162D01*
X18326833Y-15282838D01*
X17983057Y-15424883D01*
X17719808Y-15687673D01*
X17577162Y-16031201D01*
X17576838Y-16403167D01*
X12839238Y-16403167D01*
X12904192Y-16338327D01*
X13046838Y-15994799D01*
X13047162Y-15622833D01*
X12905117Y-15279057D01*
X12642327Y-15015808D01*
X12298799Y-14873162D01*
X11926833Y-14872838D01*
X11583057Y-15014883D01*
X11319808Y-15277673D01*
X11177162Y-15621201D01*
X11176838Y-15993167D01*
X947000Y-15993167D01*
X947000Y-12843167D01*
X6026838Y-12843167D01*
X6168883Y-13186943D01*
X6431673Y-13450192D01*
X6775201Y-13592838D01*
X7147167Y-13593162D01*
X7490943Y-13451117D01*
X7754192Y-13188327D01*
X7767961Y-13155167D01*
X20281838Y-13155167D01*
X20423883Y-13498943D01*
X20686673Y-13762192D01*
X21030201Y-13904838D01*
X21402167Y-13905162D01*
X21745943Y-13763117D01*
X21986312Y-13523167D01*
X29386838Y-13523167D01*
X29528883Y-13866943D01*
X29791673Y-14130192D01*
X30135201Y-14272838D01*
X30507167Y-14273162D01*
X30850943Y-14131117D01*
X31114192Y-13868327D01*
X31256838Y-13524799D01*
X31257162Y-13152833D01*
X31115117Y-12809057D01*
X30852327Y-12545808D01*
X30508799Y-12403162D01*
X30136833Y-12402838D01*
X29793057Y-12544883D01*
X29529808Y-12807673D01*
X29387162Y-13151201D01*
X29386838Y-13523167D01*
X21986312Y-13523167D01*
X22009192Y-13500327D01*
X22151838Y-13156799D01*
X22152162Y-12784833D01*
X22010117Y-12441057D01*
X21747327Y-12177808D01*
X21403799Y-12035162D01*
X21031833Y-12034838D01*
X20688057Y-12176883D01*
X20424808Y-12439673D01*
X20282162Y-12783201D01*
X20281838Y-13155167D01*
X7767961Y-13155167D01*
X7896838Y-12844799D01*
X7897162Y-12472833D01*
X7755117Y-12129057D01*
X7492327Y-11865808D01*
X7148799Y-11723162D01*
X6776833Y-11722838D01*
X6433057Y-11864883D01*
X6169808Y-12127673D01*
X6027162Y-12471201D01*
X6026838Y-12843167D01*
X947000Y-12843167D01*
X947000Y-11143167D01*
X18226838Y-11143167D01*
X18368883Y-11486943D01*
X18631673Y-11750192D01*
X18975201Y-11892838D01*
X19347167Y-11893162D01*
X19443962Y-11853167D01*
X24466838Y-11853167D01*
X24608883Y-12196943D01*
X24871673Y-12460192D01*
X25215201Y-12602838D01*
X25587167Y-12603162D01*
X25930943Y-12461117D01*
X26194192Y-12198327D01*
X26319174Y-11897339D01*
X26521673Y-12100192D01*
X26865201Y-12242838D01*
X27237167Y-12243162D01*
X27580943Y-12101117D01*
X27739168Y-11943167D01*
X64426838Y-11943167D01*
X64568883Y-12286943D01*
X64831673Y-12550192D01*
X65175201Y-12692838D01*
X65547167Y-12693162D01*
X65890943Y-12551117D01*
X66154192Y-12288327D01*
X66296838Y-11944799D01*
X66297162Y-11572833D01*
X66155117Y-11229057D01*
X65892327Y-10965808D01*
X65548799Y-10823162D01*
X65176833Y-10822838D01*
X64833057Y-10964883D01*
X64569808Y-11227673D01*
X64427162Y-11571201D01*
X64426838Y-11943167D01*
X27739168Y-11943167D01*
X27844192Y-11838327D01*
X27986838Y-11494799D01*
X27987162Y-11122833D01*
X27845117Y-10779057D01*
X27609639Y-10543167D01*
X38742038Y-10543167D01*
X38884083Y-10886943D01*
X39146873Y-11150192D01*
X39490401Y-11292838D01*
X39862367Y-11293162D01*
X40206143Y-11151117D01*
X40469392Y-10888327D01*
X40513058Y-10783167D01*
X45156838Y-10783167D01*
X45298883Y-11126943D01*
X45561673Y-11390192D01*
X45905201Y-11532838D01*
X46277167Y-11533162D01*
X46620943Y-11391117D01*
X46884192Y-11128327D01*
X47026838Y-10784799D01*
X47027162Y-10412833D01*
X46885117Y-10069057D01*
X46622327Y-9805808D01*
X46278799Y-9663162D01*
X45906833Y-9662838D01*
X45563057Y-9804883D01*
X45299808Y-10067673D01*
X45157162Y-10411201D01*
X45156838Y-10783167D01*
X40513058Y-10783167D01*
X40612038Y-10544799D01*
X40612362Y-10172833D01*
X40470317Y-9829057D01*
X40207527Y-9565808D01*
X39863999Y-9423162D01*
X39492033Y-9422838D01*
X39148257Y-9564883D01*
X38885008Y-9827673D01*
X38742362Y-10171201D01*
X38742038Y-10543167D01*
X27609639Y-10543167D01*
X27582327Y-10515808D01*
X27238799Y-10373162D01*
X26866833Y-10372838D01*
X26523057Y-10514883D01*
X26259808Y-10777673D01*
X26134826Y-11078661D01*
X25932327Y-10875808D01*
X25588799Y-10733162D01*
X25216833Y-10732838D01*
X24873057Y-10874883D01*
X24609808Y-11137673D01*
X24467162Y-11481201D01*
X24466838Y-11853167D01*
X19443962Y-11853167D01*
X19690943Y-11751117D01*
X19954192Y-11488327D01*
X20096838Y-11144799D01*
X20097162Y-10772833D01*
X19955117Y-10429057D01*
X19869377Y-10343167D01*
X22826838Y-10343167D01*
X22968883Y-10686943D01*
X23231673Y-10950192D01*
X23575201Y-11092838D01*
X23947167Y-11093162D01*
X24290943Y-10951117D01*
X24554192Y-10688327D01*
X24696838Y-10344799D01*
X24697162Y-9972833D01*
X24555117Y-9629057D01*
X24292327Y-9365808D01*
X23948799Y-9223162D01*
X23576833Y-9222838D01*
X23233057Y-9364883D01*
X22969808Y-9627673D01*
X22827162Y-9971201D01*
X22826838Y-10343167D01*
X19869377Y-10343167D01*
X19692327Y-10165808D01*
X19348799Y-10023162D01*
X18976833Y-10022838D01*
X18633057Y-10164883D01*
X18369808Y-10427673D01*
X18227162Y-10771201D01*
X18226838Y-11143167D01*
X947000Y-11143167D01*
X947000Y-9643167D01*
X6126838Y-9643167D01*
X6268883Y-9986943D01*
X6531673Y-10250192D01*
X6875201Y-10392838D01*
X7247167Y-10393162D01*
X7590943Y-10251117D01*
X7854192Y-9988327D01*
X7914467Y-9843167D01*
X14026838Y-9843167D01*
X14168883Y-10186943D01*
X14431673Y-10450192D01*
X14775201Y-10592838D01*
X15147167Y-10593162D01*
X15490943Y-10451117D01*
X15754192Y-10188327D01*
X15896838Y-9844799D01*
X15897162Y-9472833D01*
X15755117Y-9129057D01*
X15599499Y-8973167D01*
X45696838Y-8973167D01*
X45838883Y-9316943D01*
X46101673Y-9580192D01*
X46445201Y-9722838D01*
X46817167Y-9723162D01*
X47160943Y-9581117D01*
X47424192Y-9318327D01*
X47566838Y-8974799D01*
X47567162Y-8602833D01*
X47425117Y-8259057D01*
X47162327Y-7995808D01*
X46818799Y-7853162D01*
X46446833Y-7852838D01*
X46103057Y-7994883D01*
X45839808Y-8257673D01*
X45697162Y-8601201D01*
X45696838Y-8973167D01*
X15599499Y-8973167D01*
X15492327Y-8865808D01*
X15148799Y-8723162D01*
X14776833Y-8722838D01*
X14433057Y-8864883D01*
X14169808Y-9127673D01*
X14027162Y-9471201D01*
X14026838Y-9843167D01*
X7914467Y-9843167D01*
X7996838Y-9644799D01*
X7997162Y-9272833D01*
X7855117Y-8929057D01*
X7592327Y-8665808D01*
X7248799Y-8523162D01*
X6876833Y-8522838D01*
X6533057Y-8664883D01*
X6269808Y-8927673D01*
X6127162Y-9271201D01*
X6126838Y-9643167D01*
X947000Y-9643167D01*
X947000Y-7243167D01*
X1026838Y-7243167D01*
X1168883Y-7586943D01*
X1431673Y-7850192D01*
X1775201Y-7992838D01*
X2147167Y-7993162D01*
X2490943Y-7851117D01*
X2754192Y-7588327D01*
X2896838Y-7244799D01*
X2897162Y-6872833D01*
X2755117Y-6529057D01*
X2492327Y-6265808D01*
X2148799Y-6123162D01*
X1776833Y-6122838D01*
X1433057Y-6264883D01*
X1169808Y-6527673D01*
X1027162Y-6871201D01*
X1026838Y-7243167D01*
X947000Y-7243167D01*
X947000Y-4158000D01*
X2127000Y-4158000D01*
X2281905Y-4936761D01*
X2723038Y-5596962D01*
X3383239Y-6038095D01*
X4162000Y-6193000D01*
X4940761Y-6038095D01*
X5600962Y-5596962D01*
X6039113Y-4941223D01*
X8715035Y-4941223D01*
X8742222Y-5511454D01*
X8908136Y-5912005D01*
X9154255Y-5986139D01*
X9982395Y-5158000D01*
X9154255Y-4329861D01*
X8908136Y-4403995D01*
X8715035Y-4941223D01*
X6039113Y-4941223D01*
X6042095Y-4936761D01*
X6197000Y-4158000D01*
X6042095Y-3379239D01*
X5600962Y-2719038D01*
X4940761Y-2277905D01*
X4162000Y-2123000D01*
X3383239Y-2277905D01*
X2723038Y-2719038D01*
X2281905Y-3379239D01*
X2127000Y-4158000D01*
X947000Y-4158000D01*
X947000Y-2103167D01*
X7346838Y-2103167D01*
X7488883Y-2446943D01*
X7751673Y-2710192D01*
X8095201Y-2852838D01*
X8467167Y-2853162D01*
X8795442Y-2717522D01*
X8715035Y-2941223D01*
X8742222Y-3511454D01*
X8908136Y-3912005D01*
X9154255Y-3986139D01*
X9982395Y-3158000D01*
X9968252Y-3143858D01*
X10147858Y-2964252D01*
X10162000Y-2978395D01*
X10176142Y-2964252D01*
X10355748Y-3143858D01*
X10341605Y-3158000D01*
X10355748Y-3172142D01*
X10176142Y-3351748D01*
X10162000Y-3337605D01*
X9728034Y-3771571D01*
X9407995Y-3904136D01*
X9333861Y-4150255D01*
X9341606Y-4158000D01*
X9333861Y-4165745D01*
X9407995Y-4411864D01*
X9700668Y-4517062D01*
X10162000Y-4978395D01*
X10176143Y-4964253D01*
X10355748Y-5143858D01*
X10341605Y-5158000D01*
X10355748Y-5172142D01*
X10176142Y-5351748D01*
X10162000Y-5337605D01*
X9333861Y-6165745D01*
X9407995Y-6411864D01*
X9945223Y-6604965D01*
X10515454Y-6577778D01*
X10916005Y-6411864D01*
X10990139Y-6165747D01*
X11105014Y-6280622D01*
X11180091Y-6205545D01*
X11348077Y-6373824D01*
X11875309Y-6592750D01*
X12446187Y-6593248D01*
X12973800Y-6375243D01*
X13161974Y-6187397D01*
X13348077Y-6373824D01*
X13875309Y-6592750D01*
X14446187Y-6593248D01*
X14973800Y-6375243D01*
X15161974Y-6187397D01*
X15348077Y-6373824D01*
X15875309Y-6592750D01*
X16446187Y-6593248D01*
X16973800Y-6375243D01*
X17161974Y-6187397D01*
X17348077Y-6373824D01*
X17875309Y-6592750D01*
X18446187Y-6593248D01*
X18973800Y-6375243D01*
X19161974Y-6187397D01*
X19348077Y-6373824D01*
X19875309Y-6592750D01*
X20446187Y-6593248D01*
X20700169Y-6488305D01*
X20603462Y-6721201D01*
X20603138Y-7093167D01*
X20745183Y-7436943D01*
X21007973Y-7700192D01*
X21351501Y-7842838D01*
X21723467Y-7843162D01*
X22067243Y-7701117D01*
X22330492Y-7438327D01*
X22473138Y-7094799D01*
X22473462Y-6722833D01*
X22419909Y-6593225D01*
X22446187Y-6593248D01*
X22973800Y-6375243D01*
X23161974Y-6187397D01*
X23348077Y-6373824D01*
X23875309Y-6592750D01*
X24446187Y-6593248D01*
X24973800Y-6375243D01*
X25161974Y-6187397D01*
X25348077Y-6373824D01*
X25875309Y-6592750D01*
X26446187Y-6593248D01*
X26973800Y-6375243D01*
X27161974Y-6187397D01*
X27348077Y-6373824D01*
X27875309Y-6592750D01*
X28446187Y-6593248D01*
X28973800Y-6375243D01*
X29161974Y-6187397D01*
X29348077Y-6373824D01*
X29875309Y-6592750D01*
X30446187Y-6593248D01*
X30973800Y-6375243D01*
X31161974Y-6187397D01*
X31348077Y-6373824D01*
X31875309Y-6592750D01*
X32446187Y-6593248D01*
X32973800Y-6375243D01*
X33161974Y-6187397D01*
X33348077Y-6373824D01*
X33543014Y-6454769D01*
X33369808Y-6627673D01*
X33227162Y-6971201D01*
X33226838Y-7343167D01*
X33368883Y-7686943D01*
X33631673Y-7950192D01*
X33975201Y-8092838D01*
X34347167Y-8093162D01*
X34690943Y-7951117D01*
X34954192Y-7688327D01*
X35096838Y-7344799D01*
X35097162Y-6972833D01*
X34955117Y-6629057D01*
X34781191Y-6454827D01*
X34973800Y-6375243D01*
X35161974Y-6187397D01*
X35348077Y-6373824D01*
X35875309Y-6592750D01*
X36446187Y-6593248D01*
X36973800Y-6375243D01*
X37161974Y-6187397D01*
X37348077Y-6373824D01*
X37875309Y-6592750D01*
X38446187Y-6593248D01*
X38973800Y-6375243D01*
X39161974Y-6187397D01*
X39348077Y-6373824D01*
X39875309Y-6592750D01*
X40446187Y-6593248D01*
X40973800Y-6375243D01*
X41161974Y-6187397D01*
X41348077Y-6373824D01*
X41875309Y-6592750D01*
X42446187Y-6593248D01*
X42973800Y-6375243D01*
X43161974Y-6187397D01*
X43348077Y-6373824D01*
X43875309Y-6592750D01*
X44446187Y-6593248D01*
X44973800Y-6375243D01*
X45161974Y-6187397D01*
X45348077Y-6373824D01*
X45875309Y-6592750D01*
X45963854Y-6592827D01*
X45928362Y-6678301D01*
X45928038Y-7050267D01*
X46070083Y-7394043D01*
X46332873Y-7657292D01*
X46676401Y-7799938D01*
X47048367Y-7800262D01*
X47392143Y-7658217D01*
X47655392Y-7395427D01*
X47719765Y-7240400D01*
X47796960Y-7240400D01*
X47796960Y-9475600D01*
X47841238Y-9710917D01*
X47980310Y-9927041D01*
X48192510Y-10072031D01*
X48444400Y-10123040D01*
X50679600Y-10123040D01*
X50914917Y-10078762D01*
X51131041Y-9939690D01*
X51276031Y-9727490D01*
X51311448Y-9552596D01*
X51341238Y-9710917D01*
X51480310Y-9927041D01*
X51692510Y-10072031D01*
X51757926Y-10085278D01*
X51747162Y-10111201D01*
X51746838Y-10483167D01*
X51888883Y-10826943D01*
X52151673Y-11090192D01*
X52495201Y-11232838D01*
X52867167Y-11233162D01*
X53210943Y-11091117D01*
X53474192Y-10828327D01*
X53616838Y-10484799D01*
X53617153Y-10123040D01*
X54179600Y-10123040D01*
X54414917Y-10078762D01*
X54631041Y-9939690D01*
X54776031Y-9727490D01*
X54811448Y-9552596D01*
X54841238Y-9710917D01*
X54980310Y-9927041D01*
X55192510Y-10072031D01*
X55444400Y-10123040D01*
X57679600Y-10123040D01*
X57914917Y-10078762D01*
X58131041Y-9939690D01*
X58276031Y-9727490D01*
X58327040Y-9475600D01*
X58327040Y-8503167D01*
X58366838Y-8503167D01*
X58508883Y-8846943D01*
X58771673Y-9110192D01*
X59115201Y-9252838D01*
X59257073Y-9252962D01*
X59256838Y-9523167D01*
X59398883Y-9866943D01*
X59661673Y-10130192D01*
X60005201Y-10272838D01*
X60377167Y-10273162D01*
X60720943Y-10131117D01*
X60984192Y-9868327D01*
X61126838Y-9524799D01*
X61127162Y-9152833D01*
X60985117Y-8809057D01*
X60722327Y-8545808D01*
X60378799Y-8403162D01*
X60236927Y-8403038D01*
X60237162Y-8132833D01*
X60095117Y-7789057D01*
X59832327Y-7525808D01*
X59488799Y-7383162D01*
X59116833Y-7382838D01*
X58773057Y-7524883D01*
X58509808Y-7787673D01*
X58367162Y-8131201D01*
X58366838Y-8503167D01*
X58327040Y-8503167D01*
X58327040Y-7240400D01*
X58282762Y-7005083D01*
X58143690Y-6788959D01*
X57931490Y-6643969D01*
X57679600Y-6592960D01*
X55444400Y-6592960D01*
X55209083Y-6637238D01*
X54992959Y-6776310D01*
X54847969Y-6988510D01*
X54812552Y-7163404D01*
X54782762Y-7005083D01*
X54643690Y-6788959D01*
X54431490Y-6643969D01*
X54179600Y-6592960D01*
X51944400Y-6592960D01*
X51709083Y-6637238D01*
X51492959Y-6776310D01*
X51347969Y-6988510D01*
X51312552Y-7163404D01*
X51282762Y-7005083D01*
X51143690Y-6788959D01*
X50931490Y-6643969D01*
X50679600Y-6592960D01*
X48444400Y-6592960D01*
X48209083Y-6637238D01*
X47992959Y-6776310D01*
X47847969Y-6988510D01*
X47796960Y-7240400D01*
X47719765Y-7240400D01*
X47798038Y-7051899D01*
X47798362Y-6679933D01*
X47736367Y-6529894D01*
X47945223Y-6604965D01*
X48515454Y-6577778D01*
X48916005Y-6411864D01*
X48990139Y-6165745D01*
X48162000Y-5337605D01*
X48147858Y-5351748D01*
X47968253Y-5172143D01*
X47982395Y-5158000D01*
X47968252Y-5143858D01*
X48147858Y-4964252D01*
X48162000Y-4978395D01*
X48176143Y-4964253D01*
X48355748Y-5143858D01*
X48341605Y-5158000D01*
X49169745Y-5986139D01*
X49415864Y-5912005D01*
X49560125Y-5510655D01*
X49757801Y-5592738D01*
X50129767Y-5593062D01*
X50473543Y-5451017D01*
X50736792Y-5188227D01*
X50879438Y-4844699D01*
X50879718Y-4523583D01*
X50970467Y-4523662D01*
X51213684Y-4423167D01*
X53246838Y-4423167D01*
X53388883Y-4766943D01*
X53651673Y-5030192D01*
X53995201Y-5172838D01*
X54367167Y-5173162D01*
X54710943Y-5031117D01*
X54974192Y-4768327D01*
X55026163Y-4643167D01*
X57126838Y-4643167D01*
X57268883Y-4986943D01*
X57531673Y-5250192D01*
X57875201Y-5392838D01*
X58247167Y-5393162D01*
X58590943Y-5251117D01*
X58854192Y-4988327D01*
X58996838Y-4644799D01*
X58997100Y-4343750D01*
X74509400Y-4343750D01*
X74509400Y-5301910D01*
X74606073Y-5535299D01*
X74784702Y-5713927D01*
X75018091Y-5810600D01*
X75976250Y-5810600D01*
X76135000Y-5651850D01*
X76135000Y-4185000D01*
X76389000Y-4185000D01*
X76389000Y-5651850D01*
X76547750Y-5810600D01*
X77505909Y-5810600D01*
X77739298Y-5713927D01*
X77917927Y-5535299D01*
X78014600Y-5301910D01*
X78014600Y-4343750D01*
X77855850Y-4185000D01*
X76389000Y-4185000D01*
X76135000Y-4185000D01*
X74668150Y-4185000D01*
X74509400Y-4343750D01*
X58997100Y-4343750D01*
X58997162Y-4272833D01*
X58949715Y-4158000D01*
X79127000Y-4158000D01*
X79281905Y-4936761D01*
X79723038Y-5596962D01*
X80383239Y-6038095D01*
X81162000Y-6193000D01*
X81940761Y-6038095D01*
X82600962Y-5596962D01*
X83042095Y-4936761D01*
X83197000Y-4158000D01*
X83042095Y-3379239D01*
X82600962Y-2719038D01*
X81940761Y-2277905D01*
X81162000Y-2123000D01*
X80383239Y-2277905D01*
X79723038Y-2719038D01*
X79281905Y-3379239D01*
X79127000Y-4158000D01*
X58949715Y-4158000D01*
X58855117Y-3929057D01*
X58592327Y-3665808D01*
X58248799Y-3523162D01*
X57876833Y-3522838D01*
X57533057Y-3664883D01*
X57269808Y-3927673D01*
X57127162Y-4271201D01*
X57126838Y-4643167D01*
X55026163Y-4643167D01*
X55116838Y-4424799D01*
X55117162Y-4052833D01*
X54975117Y-3709057D01*
X54712327Y-3445808D01*
X54368799Y-3303162D01*
X53996833Y-3302838D01*
X53653057Y-3444883D01*
X53389808Y-3707673D01*
X53247162Y-4051201D01*
X53246838Y-4423167D01*
X51213684Y-4423167D01*
X51314243Y-4381617D01*
X51577492Y-4118827D01*
X51720138Y-3775299D01*
X51720462Y-3403333D01*
X51578417Y-3059557D01*
X51315627Y-2796308D01*
X50972099Y-2653662D01*
X50600133Y-2653338D01*
X50256357Y-2795383D01*
X49993108Y-3058173D01*
X49850462Y-3401701D01*
X49850182Y-3722817D01*
X49759433Y-3722738D01*
X49435834Y-3856446D01*
X49608965Y-3374777D01*
X49581778Y-2804546D01*
X49415864Y-2403995D01*
X49169745Y-2329861D01*
X48341605Y-3158000D01*
X48355748Y-3172142D01*
X48176142Y-3351748D01*
X48162000Y-3337605D01*
X48147858Y-3351748D01*
X47968253Y-3172143D01*
X47982395Y-3158000D01*
X47968252Y-3143858D01*
X48147858Y-2964252D01*
X48162000Y-2978395D01*
X48990139Y-2150255D01*
X48916005Y-1904136D01*
X48378777Y-1711035D01*
X47808546Y-1738222D01*
X47407995Y-1904136D01*
X47333861Y-2150253D01*
X47218986Y-2035378D01*
X47143909Y-2110455D01*
X46975923Y-1942176D01*
X46448691Y-1723250D01*
X45877813Y-1722752D01*
X45350200Y-1940757D01*
X45162026Y-2128603D01*
X44975923Y-1942176D01*
X44448691Y-1723250D01*
X43877813Y-1722752D01*
X43350200Y-1940757D01*
X43162026Y-2128603D01*
X42975923Y-1942176D01*
X42448691Y-1723250D01*
X41877813Y-1722752D01*
X41350200Y-1940757D01*
X41162026Y-2128603D01*
X40975923Y-1942176D01*
X40448691Y-1723250D01*
X39877813Y-1722752D01*
X39350200Y-1940757D01*
X39162026Y-2128603D01*
X38975923Y-1942176D01*
X38448691Y-1723250D01*
X37877813Y-1722752D01*
X37350200Y-1940757D01*
X37162026Y-2128603D01*
X36975923Y-1942176D01*
X36448691Y-1723250D01*
X35877813Y-1722752D01*
X35350200Y-1940757D01*
X35162026Y-2128603D01*
X34975923Y-1942176D01*
X34448691Y-1723250D01*
X33877813Y-1722752D01*
X33350200Y-1940757D01*
X33162026Y-2128603D01*
X32975923Y-1942176D01*
X32448691Y-1723250D01*
X31877813Y-1722752D01*
X31350200Y-1940757D01*
X31162026Y-2128603D01*
X30975923Y-1942176D01*
X30448691Y-1723250D01*
X29877813Y-1722752D01*
X29350200Y-1940757D01*
X29162026Y-2128603D01*
X28975923Y-1942176D01*
X28448691Y-1723250D01*
X27877813Y-1722752D01*
X27350200Y-1940757D01*
X27162026Y-2128603D01*
X26975923Y-1942176D01*
X26448691Y-1723250D01*
X25877813Y-1722752D01*
X25350200Y-1940757D01*
X25162026Y-2128603D01*
X24975923Y-1942176D01*
X24448691Y-1723250D01*
X23877813Y-1722752D01*
X23350200Y-1940757D01*
X23162026Y-2128603D01*
X22975923Y-1942176D01*
X22448691Y-1723250D01*
X21877813Y-1722752D01*
X21350200Y-1940757D01*
X21162026Y-2128603D01*
X20975923Y-1942176D01*
X20448691Y-1723250D01*
X19877813Y-1722752D01*
X19350200Y-1940757D01*
X19162026Y-2128603D01*
X18975923Y-1942176D01*
X18448691Y-1723250D01*
X17877813Y-1722752D01*
X17350200Y-1940757D01*
X17162026Y-2128603D01*
X16975923Y-1942176D01*
X16448691Y-1723250D01*
X15877813Y-1722752D01*
X15350200Y-1940757D01*
X15162026Y-2128603D01*
X14975923Y-1942176D01*
X14448691Y-1723250D01*
X13877813Y-1722752D01*
X13350200Y-1940757D01*
X13162026Y-2128603D01*
X12975923Y-1942176D01*
X12448691Y-1723250D01*
X11877813Y-1722752D01*
X11350200Y-1940757D01*
X11180148Y-2110512D01*
X11105014Y-2035378D01*
X10990139Y-2150253D01*
X10916005Y-1904136D01*
X10378777Y-1711035D01*
X9808546Y-1738222D01*
X9407995Y-1904136D01*
X9333861Y-2150253D01*
X9218986Y-2035378D01*
X9216897Y-2037467D01*
X9217162Y-1732833D01*
X9075117Y-1389057D01*
X8812327Y-1125808D01*
X8468799Y-983162D01*
X8096833Y-982838D01*
X7753057Y-1124883D01*
X7489808Y-1387673D01*
X7347162Y-1731201D01*
X7346838Y-2103167D01*
X947000Y-2103167D01*
X947000Y-943000D01*
X58488917Y-943000D01*
X58353308Y-1078373D01*
M02*
