%TF.GenerationSoftware,KiCad,Pcbnew,4.0.2-stable*%
%TF.CreationDate,2016-08-10T11:52:40+09:00*%
%TF.ProjectId,Shimonso-IoT-Type-R,5368696D6F6E736F2D496F542D547970,rev?*%
%TF.FileFunction,Copper,L2,Inr,Plane*%
%FSLAX46Y46*%
G04 Gerber Fmt 4.6, Leading zero omitted, Abs format (unit mm)*
G04 Created by KiCad (PCBNEW 4.0.2-stable) date 2016年08月10日水曜日 11:52:40*
%MOMM*%
G01*
G04 APERTURE LIST*
%ADD10C,0.100000*%
%ADD11R,2.235200X2.235200*%
%ADD12O,0.890000X1.550000*%
%ADD13O,1.250000X0.950000*%
%ADD14C,1.600000*%
%ADD15C,0.600000*%
%ADD16C,0.350000*%
%ADD17C,0.150000*%
%ADD18C,0.250000*%
%ADD19C,0.254000*%
G04 APERTURE END LIST*
D10*
D11*
X106400000Y-104200000D03*
X102900000Y-104200000D03*
X99400000Y-104200000D03*
X126100000Y-99900000D03*
X52200000Y-148100000D03*
X54500000Y-138800000D03*
D12*
X66600000Y-148550000D03*
X59600000Y-148550000D03*
D13*
X65600000Y-145850000D03*
X60600000Y-145850000D03*
D14*
X60000000Y-101000000D03*
X60000000Y-99000000D03*
X62000000Y-101000000D03*
X62000000Y-99000000D03*
X64000000Y-101000000D03*
X64000000Y-99000000D03*
X66000000Y-101000000D03*
X66000000Y-99000000D03*
X68000000Y-101000000D03*
X68000000Y-99000000D03*
X70000000Y-101000000D03*
X70000000Y-99000000D03*
X72000000Y-101000000D03*
X72000000Y-99000000D03*
X74000000Y-101000000D03*
X74000000Y-99000000D03*
X76000000Y-101000000D03*
X76000000Y-99000000D03*
X78000000Y-101000000D03*
X78000000Y-99000000D03*
X80000000Y-101000000D03*
X80000000Y-99000000D03*
X82000000Y-101000000D03*
X82000000Y-99000000D03*
X84000000Y-101000000D03*
X84000000Y-99000000D03*
X86000000Y-101000000D03*
X86000000Y-99000000D03*
X88000000Y-101000000D03*
X88000000Y-99000000D03*
X90000000Y-101000000D03*
X90000000Y-99000000D03*
X92000000Y-101000000D03*
X92000000Y-99000000D03*
X94000000Y-101000000D03*
X94000000Y-99000000D03*
X96000000Y-101000000D03*
X96000000Y-99000000D03*
X98000000Y-101000000D03*
X98000000Y-99000000D03*
D15*
X66990000Y-104240000D03*
X105140000Y-109170000D03*
X101820000Y-116110000D03*
X100200000Y-117260000D03*
X128670000Y-135900000D03*
X106940000Y-111940000D03*
X104630000Y-111890000D03*
X95310000Y-117440000D03*
X89530000Y-118620000D03*
X73530000Y-107910000D03*
X69300000Y-112200000D03*
X68070000Y-120980000D03*
X80400000Y-127600000D03*
X83110000Y-118390000D03*
X79560000Y-107270000D03*
X130140000Y-125790000D03*
X123860000Y-125730000D03*
X123970000Y-117000000D03*
X123825300Y-109400000D03*
X86140000Y-106200000D03*
X91470000Y-107030000D03*
X91790000Y-103900000D03*
X92380000Y-104490000D03*
X121960000Y-136790000D03*
X113410000Y-130260000D03*
X113400000Y-126470000D03*
X104800000Y-136780000D03*
X107350000Y-141474700D03*
X93600000Y-133600000D03*
X91100000Y-133600000D03*
X69900000Y-119400000D03*
X53100000Y-116750000D03*
X52450000Y-113500000D03*
X57250000Y-126550000D03*
X54150000Y-106900000D03*
X90350000Y-137990000D03*
X87950000Y-138110000D03*
X85550000Y-138120000D03*
X83150000Y-138180000D03*
X80780000Y-138180000D03*
X75150000Y-133880000D03*
X88740000Y-133480000D03*
X86360000Y-133530000D03*
X82360000Y-133520000D03*
X78370000Y-135550000D03*
X75150000Y-130900000D03*
X72710000Y-133590000D03*
X98500000Y-144240000D03*
X95500000Y-144230000D03*
X124300000Y-144420000D03*
X121300000Y-144290000D03*
X118280000Y-144330000D03*
X115310000Y-141720000D03*
X115310000Y-141710000D03*
X92510000Y-144580000D03*
X88590000Y-142260000D03*
X123600000Y-104200000D03*
X129200000Y-111850000D03*
X129100000Y-104350000D03*
X118200000Y-104400000D03*
X64900000Y-132000000D03*
X56700000Y-140900000D03*
X52100000Y-136400000D03*
X68400000Y-140800000D03*
X87197000Y-123383800D03*
X61900000Y-144600000D03*
X67500000Y-141600000D03*
X79320000Y-128110000D03*
X68350000Y-112060000D03*
X81920000Y-117690000D03*
X80620000Y-120960000D03*
X90780000Y-122470000D03*
X81470000Y-118380000D03*
X79300000Y-129090000D03*
X70999200Y-111372600D03*
X73110000Y-112120000D03*
X67526400Y-119250000D03*
X65850000Y-113320000D03*
X61950000Y-111650000D03*
X129550000Y-140880000D03*
X129610000Y-145850000D03*
X129990000Y-143030000D03*
X113410000Y-125320000D03*
X108575300Y-141530000D03*
X104860000Y-144390000D03*
X79350000Y-146900000D03*
X127190800Y-109375300D03*
X123804800Y-107605000D03*
X89874900Y-122600000D03*
X104552500Y-142120900D03*
X122750000Y-140399800D03*
X68220200Y-119943800D03*
X111939300Y-122944700D03*
X71376300Y-102750000D03*
X84000000Y-103000000D03*
X107900000Y-100300000D03*
X115700000Y-114900000D03*
X115200000Y-107600000D03*
X121291300Y-108437500D03*
X106080000Y-109210000D03*
X105530000Y-110660000D03*
X107080000Y-109940000D03*
X101700000Y-118550000D03*
X130210000Y-134740000D03*
X75240000Y-107510000D03*
X93700000Y-112890000D03*
X92000000Y-120000000D03*
X93470000Y-119170000D03*
X73460000Y-115470000D03*
X76890000Y-107150000D03*
X77020000Y-110390000D03*
X104390000Y-137840000D03*
X102150000Y-126370000D03*
X107210000Y-124280000D03*
X126350000Y-114500000D03*
X125010000Y-130912600D03*
X98845000Y-138535000D03*
X57547500Y-140047500D03*
X129310200Y-115150000D03*
X92733800Y-118163300D03*
X106624700Y-124924100D03*
X128650000Y-139673700D03*
X104050000Y-115920000D03*
X58000000Y-147000000D03*
X67800000Y-146000000D03*
X83970000Y-134290000D03*
X126840000Y-134290000D03*
X108220000Y-132340000D03*
X97371600Y-130332200D03*
X124130000Y-132940000D03*
X107580000Y-133060000D03*
X85921500Y-130773100D03*
X90050000Y-134380000D03*
X89147600Y-130129700D03*
X87389500Y-133928100D03*
X111940000Y-140450000D03*
X96600000Y-132400000D03*
X123241800Y-144561100D03*
X93780000Y-135070000D03*
X98500000Y-133300000D03*
X77620000Y-135120000D03*
X83200000Y-134000000D03*
X74370000Y-134460000D03*
X80670000Y-133940000D03*
X76730000Y-133900000D03*
X91800000Y-139860000D03*
X93330000Y-141400000D03*
X75970000Y-134390000D03*
X73530000Y-134130000D03*
X72050000Y-134200000D03*
X71079800Y-134088900D03*
X51800000Y-102900000D03*
X63000000Y-134000000D03*
X64800000Y-105500000D03*
X100280000Y-115720000D03*
X90730000Y-117290000D03*
X78460000Y-113910000D03*
X73600000Y-106000000D03*
X70300000Y-114500000D03*
X97160000Y-114320000D03*
X80160000Y-109180000D03*
X58120000Y-97760000D03*
X97530000Y-115800000D03*
X69200000Y-118000000D03*
X100200000Y-111900000D03*
X92000000Y-115700000D03*
X110030000Y-105180000D03*
X109140000Y-104160000D03*
X100623300Y-99430500D03*
X99782600Y-100499900D03*
X96470000Y-104630000D03*
X102520000Y-106140000D03*
X101455600Y-123575300D03*
X96701200Y-102707100D03*
X104020000Y-100080000D03*
X106059000Y-127732000D03*
X108983500Y-97450700D03*
X115184400Y-98165600D03*
X119416800Y-97550700D03*
X127310000Y-144260000D03*
X128280000Y-141280000D03*
X126780000Y-140010000D03*
X121350000Y-133810000D03*
X130030000Y-139420000D03*
X112000000Y-128750000D03*
X100500000Y-141500000D03*
X101500000Y-144750000D03*
X101800000Y-139800000D03*
X102700000Y-141400000D03*
X112000000Y-127500000D03*
X99500000Y-141500000D03*
X89515200Y-106200000D03*
X69000000Y-106800000D03*
X105459400Y-126717600D03*
X95930000Y-106440000D03*
X103170000Y-139350000D03*
X71055000Y-108812000D03*
X92845700Y-117300000D03*
X56900000Y-105300000D03*
X56800000Y-108500000D03*
X89973100Y-125600000D03*
X68000000Y-143200000D03*
X58500000Y-143600000D03*
X104924200Y-126025800D03*
X57500000Y-142500000D03*
X88360000Y-123570000D03*
X86210000Y-121480000D03*
X67200000Y-142500000D03*
D16*
X77590000Y-133610000D02*
X77590000Y-133650000D01*
X77590000Y-133650000D02*
X77580000Y-133660000D01*
D17*
X105140000Y-109170000D02*
X105140000Y-109150000D01*
D16*
X123830000Y-109390000D02*
X123830000Y-109395300D01*
X123830000Y-109395300D02*
X123825300Y-109400000D01*
D18*
X91790000Y-103900000D02*
X91790000Y-103910000D01*
D16*
X107350000Y-141474700D02*
X107350000Y-141470000D01*
D18*
X69600000Y-119100000D02*
X69900000Y-119400000D01*
D16*
X53100000Y-116750000D02*
X53100000Y-116800000D01*
X52450000Y-113500000D02*
X52500000Y-113500000D01*
X52450000Y-113500000D02*
X52500000Y-113500000D01*
X57250000Y-126550000D02*
X57200000Y-126500000D01*
X54150000Y-106900000D02*
X54100000Y-106900000D01*
X83220000Y-138110000D02*
X83150000Y-138180000D01*
X72710000Y-133590000D02*
X72740000Y-133590000D01*
X124300000Y-144420000D02*
X124300000Y-144410000D01*
X115310000Y-141720000D02*
X115310000Y-141710000D01*
X88590000Y-142260000D02*
X88580000Y-142260000D01*
X129200000Y-111850000D02*
X129200000Y-111900000D01*
X129100000Y-104350000D02*
X129100000Y-104300000D01*
X60000000Y-101000000D02*
X60000000Y-99000000D01*
D19*
G36*
X108191308Y-96920373D02*
X108048662Y-97263901D01*
X108048338Y-97635867D01*
X108190383Y-97979643D01*
X108453173Y-98242892D01*
X108796701Y-98385538D01*
X109168667Y-98385862D01*
X109253603Y-98350767D01*
X114249238Y-98350767D01*
X114391283Y-98694543D01*
X114654073Y-98957792D01*
X114997601Y-99100438D01*
X115369567Y-99100762D01*
X115713343Y-98958717D01*
X115976592Y-98695927D01*
X115993133Y-98656090D01*
X124347400Y-98656090D01*
X124347400Y-99614250D01*
X124506150Y-99773000D01*
X125973000Y-99773000D01*
X125973000Y-98306150D01*
X126227000Y-98306150D01*
X126227000Y-99773000D01*
X127693850Y-99773000D01*
X127852600Y-99614250D01*
X127852600Y-98656090D01*
X127755927Y-98422701D01*
X127577298Y-98244073D01*
X127343909Y-98147400D01*
X126385750Y-98147400D01*
X126227000Y-98306150D01*
X125973000Y-98306150D01*
X125814250Y-98147400D01*
X124856091Y-98147400D01*
X124622702Y-98244073D01*
X124444073Y-98422701D01*
X124347400Y-98656090D01*
X115993133Y-98656090D01*
X116119238Y-98352399D01*
X116119562Y-97980433D01*
X115977517Y-97636657D01*
X115714727Y-97373408D01*
X115371199Y-97230762D01*
X114999233Y-97230438D01*
X114655457Y-97372483D01*
X114392208Y-97635273D01*
X114249562Y-97978801D01*
X114249238Y-98350767D01*
X109253603Y-98350767D01*
X109512443Y-98243817D01*
X109775692Y-97981027D01*
X109918338Y-97637499D01*
X109918662Y-97265533D01*
X109776617Y-96921757D01*
X109640098Y-96785000D01*
X118860392Y-96785000D01*
X118624608Y-97020373D01*
X118481962Y-97363901D01*
X118481638Y-97735867D01*
X118623683Y-98079643D01*
X118886473Y-98342892D01*
X119230001Y-98485538D01*
X119601967Y-98485862D01*
X119945743Y-98343817D01*
X120208992Y-98081027D01*
X120351638Y-97737499D01*
X120351962Y-97365533D01*
X120209917Y-97021757D01*
X119973573Y-96785000D01*
X134215000Y-96785000D01*
X134215000Y-149215000D01*
X67612590Y-149215000D01*
X67680000Y-149007000D01*
X67680000Y-148677000D01*
X66727000Y-148677000D01*
X66727000Y-148697000D01*
X66473000Y-148697000D01*
X66473000Y-148677000D01*
X65520000Y-148677000D01*
X65520000Y-149007000D01*
X65587410Y-149215000D01*
X60612590Y-149215000D01*
X60680000Y-149007000D01*
X60680000Y-148677000D01*
X59727000Y-148677000D01*
X59727000Y-148697000D01*
X59473000Y-148697000D01*
X59473000Y-148677000D01*
X58520000Y-148677000D01*
X58520000Y-149007000D01*
X58587410Y-149215000D01*
X53952600Y-149215000D01*
X53952600Y-148385750D01*
X53793850Y-148227000D01*
X52327000Y-148227000D01*
X52327000Y-148247000D01*
X52073000Y-148247000D01*
X52073000Y-148227000D01*
X52053000Y-148227000D01*
X52053000Y-147973000D01*
X52073000Y-147973000D01*
X52073000Y-146506150D01*
X52327000Y-146506150D01*
X52327000Y-147973000D01*
X53793850Y-147973000D01*
X53952600Y-147814250D01*
X53952600Y-147185167D01*
X57064838Y-147185167D01*
X57206883Y-147528943D01*
X57469673Y-147792192D01*
X57813201Y-147934838D01*
X58185167Y-147935162D01*
X58528943Y-147793117D01*
X58753500Y-147568951D01*
X58650811Y-147689369D01*
X58520000Y-148093000D01*
X58520000Y-148423000D01*
X59473000Y-148423000D01*
X59473000Y-147307546D01*
X59727000Y-147307546D01*
X59727000Y-148423000D01*
X60680000Y-148423000D01*
X60680000Y-148093000D01*
X65520000Y-148093000D01*
X65520000Y-148423000D01*
X66473000Y-148423000D01*
X66473000Y-147307546D01*
X66727000Y-147307546D01*
X66727000Y-148423000D01*
X67680000Y-148423000D01*
X67680000Y-148093000D01*
X67549189Y-147689369D01*
X67273873Y-147366522D01*
X66893213Y-147180565D01*
X66727000Y-147307546D01*
X66473000Y-147307546D01*
X66306787Y-147180565D01*
X65926127Y-147366522D01*
X65650811Y-147689369D01*
X65520000Y-148093000D01*
X60680000Y-148093000D01*
X60549189Y-147689369D01*
X60273873Y-147366522D01*
X59893213Y-147180565D01*
X59727000Y-147307546D01*
X59473000Y-147307546D01*
X59306787Y-147180565D01*
X58926127Y-147366522D01*
X58797653Y-147517176D01*
X58934838Y-147186799D01*
X58934926Y-147085167D01*
X78414838Y-147085167D01*
X78556883Y-147428943D01*
X78819673Y-147692192D01*
X79163201Y-147834838D01*
X79535167Y-147835162D01*
X79878943Y-147693117D01*
X80142192Y-147430327D01*
X80284838Y-147086799D01*
X80285162Y-146714833D01*
X80143117Y-146371057D01*
X79880327Y-146107808D01*
X79705389Y-146035167D01*
X128674838Y-146035167D01*
X128816883Y-146378943D01*
X129079673Y-146642192D01*
X129423201Y-146784838D01*
X129795167Y-146785162D01*
X130138943Y-146643117D01*
X130402192Y-146380327D01*
X130544838Y-146036799D01*
X130545162Y-145664833D01*
X130403117Y-145321057D01*
X130140327Y-145057808D01*
X129796799Y-144915162D01*
X129424833Y-144914838D01*
X129081057Y-145056883D01*
X128817808Y-145319673D01*
X128675162Y-145663201D01*
X128674838Y-146035167D01*
X79705389Y-146035167D01*
X79536799Y-145965162D01*
X79164833Y-145964838D01*
X78821057Y-146106883D01*
X78557808Y-146369673D01*
X78415162Y-146713201D01*
X78414838Y-147085167D01*
X58934926Y-147085167D01*
X58935162Y-146814833D01*
X58793117Y-146471057D01*
X58530327Y-146207808D01*
X58386145Y-146147938D01*
X59380732Y-146147938D01*
X59564448Y-146521821D01*
X59888951Y-146809568D01*
X60298869Y-146951229D01*
X60473000Y-146802563D01*
X60473000Y-145977000D01*
X60727000Y-145977000D01*
X60727000Y-146802563D01*
X60901131Y-146951229D01*
X61311049Y-146809568D01*
X61635552Y-146521821D01*
X61819268Y-146147938D01*
X64380732Y-146147938D01*
X64564448Y-146521821D01*
X64888951Y-146809568D01*
X65298869Y-146951229D01*
X65473000Y-146802563D01*
X65473000Y-145977000D01*
X65727000Y-145977000D01*
X65727000Y-146802563D01*
X65901131Y-146951229D01*
X66311049Y-146809568D01*
X66635552Y-146521821D01*
X66800974Y-146185167D01*
X66864838Y-146185167D01*
X67006883Y-146528943D01*
X67269673Y-146792192D01*
X67613201Y-146934838D01*
X67985167Y-146935162D01*
X68328943Y-146793117D01*
X68592192Y-146530327D01*
X68734838Y-146186799D01*
X68735162Y-145814833D01*
X68593117Y-145471057D01*
X68330327Y-145207808D01*
X67986799Y-145065162D01*
X67614833Y-145064838D01*
X67271057Y-145206883D01*
X67007808Y-145469673D01*
X66865162Y-145813201D01*
X66864838Y-146185167D01*
X66800974Y-146185167D01*
X66819268Y-146147938D01*
X66692734Y-145977000D01*
X65727000Y-145977000D01*
X65473000Y-145977000D01*
X64507266Y-145977000D01*
X64380732Y-146147938D01*
X61819268Y-146147938D01*
X61692734Y-145977000D01*
X60727000Y-145977000D01*
X60473000Y-145977000D01*
X59507266Y-145977000D01*
X59380732Y-146147938D01*
X58386145Y-146147938D01*
X58186799Y-146065162D01*
X57814833Y-146064838D01*
X57471057Y-146206883D01*
X57207808Y-146469673D01*
X57065162Y-146813201D01*
X57064838Y-147185167D01*
X53952600Y-147185167D01*
X53952600Y-146856090D01*
X53855927Y-146622701D01*
X53677298Y-146444073D01*
X53443909Y-146347400D01*
X52485750Y-146347400D01*
X52327000Y-146506150D01*
X52073000Y-146506150D01*
X51914250Y-146347400D01*
X50956091Y-146347400D01*
X50785000Y-146418268D01*
X50785000Y-145552062D01*
X59380732Y-145552062D01*
X59507266Y-145723000D01*
X60473000Y-145723000D01*
X60473000Y-144897437D01*
X60727000Y-144897437D01*
X60727000Y-145723000D01*
X61692734Y-145723000D01*
X61819268Y-145552062D01*
X64380732Y-145552062D01*
X64507266Y-145723000D01*
X65473000Y-145723000D01*
X65473000Y-144897437D01*
X65727000Y-144897437D01*
X65727000Y-145723000D01*
X66692734Y-145723000D01*
X66819268Y-145552062D01*
X66635552Y-145178179D01*
X66361499Y-144935167D01*
X100564838Y-144935167D01*
X100706883Y-145278943D01*
X100969673Y-145542192D01*
X101313201Y-145684838D01*
X101685167Y-145685162D01*
X102028943Y-145543117D01*
X102292192Y-145280327D01*
X102434838Y-144936799D01*
X102435152Y-144575167D01*
X103924838Y-144575167D01*
X104066883Y-144918943D01*
X104329673Y-145182192D01*
X104673201Y-145324838D01*
X105045167Y-145325162D01*
X105388943Y-145183117D01*
X105652192Y-144920327D01*
X105724468Y-144746267D01*
X122306638Y-144746267D01*
X122448683Y-145090043D01*
X122711473Y-145353292D01*
X123055001Y-145495938D01*
X123426967Y-145496262D01*
X123770743Y-145354217D01*
X124033992Y-145091427D01*
X124176638Y-144747899D01*
X124176901Y-144445167D01*
X126374838Y-144445167D01*
X126516883Y-144788943D01*
X126779673Y-145052192D01*
X127123201Y-145194838D01*
X127495167Y-145195162D01*
X127838943Y-145053117D01*
X128102192Y-144790327D01*
X128244838Y-144446799D01*
X128245162Y-144074833D01*
X128103117Y-143731057D01*
X127840327Y-143467808D01*
X127496799Y-143325162D01*
X127124833Y-143324838D01*
X126781057Y-143466883D01*
X126517808Y-143729673D01*
X126375162Y-144073201D01*
X126374838Y-144445167D01*
X124176901Y-144445167D01*
X124176962Y-144375933D01*
X124034917Y-144032157D01*
X123772127Y-143768908D01*
X123428599Y-143626262D01*
X123056633Y-143625938D01*
X122712857Y-143767983D01*
X122449608Y-144030773D01*
X122306962Y-144374301D01*
X122306638Y-144746267D01*
X105724468Y-144746267D01*
X105794838Y-144576799D01*
X105795162Y-144204833D01*
X105653117Y-143861057D01*
X105390327Y-143597808D01*
X105046799Y-143455162D01*
X104674833Y-143454838D01*
X104331057Y-143596883D01*
X104067808Y-143859673D01*
X103925162Y-144203201D01*
X103924838Y-144575167D01*
X102435152Y-144575167D01*
X102435162Y-144564833D01*
X102293117Y-144221057D01*
X102030327Y-143957808D01*
X101686799Y-143815162D01*
X101314833Y-143814838D01*
X100971057Y-143956883D01*
X100707808Y-144219673D01*
X100565162Y-144563201D01*
X100564838Y-144935167D01*
X66361499Y-144935167D01*
X66311049Y-144890432D01*
X65901131Y-144748771D01*
X65727000Y-144897437D01*
X65473000Y-144897437D01*
X65298869Y-144748771D01*
X64888951Y-144890432D01*
X64564448Y-145178179D01*
X64380732Y-145552062D01*
X61819268Y-145552062D01*
X61810846Y-145534923D01*
X62085167Y-145535162D01*
X62428943Y-145393117D01*
X62692192Y-145130327D01*
X62834838Y-144786799D01*
X62835162Y-144414833D01*
X62693117Y-144071057D01*
X62430327Y-143807808D01*
X62086799Y-143665162D01*
X61714833Y-143664838D01*
X61371057Y-143806883D01*
X61107808Y-144069673D01*
X60965162Y-144413201D01*
X60964851Y-144770791D01*
X60901131Y-144748771D01*
X60727000Y-144897437D01*
X60473000Y-144897437D01*
X60298869Y-144748771D01*
X59888951Y-144890432D01*
X59564448Y-145178179D01*
X59380732Y-145552062D01*
X50785000Y-145552062D01*
X50785000Y-142685167D01*
X56564838Y-142685167D01*
X56706883Y-143028943D01*
X56969673Y-143292192D01*
X57313201Y-143434838D01*
X57565143Y-143435057D01*
X57564838Y-143785167D01*
X57706883Y-144128943D01*
X57969673Y-144392192D01*
X58313201Y-144534838D01*
X58685167Y-144535162D01*
X59028943Y-144393117D01*
X59292192Y-144130327D01*
X59434838Y-143786799D01*
X59435162Y-143414833D01*
X59293117Y-143071057D01*
X59030327Y-142807808D01*
X58734977Y-142685167D01*
X66264838Y-142685167D01*
X66406883Y-143028943D01*
X66669673Y-143292192D01*
X67013201Y-143434838D01*
X67085388Y-143434901D01*
X67206883Y-143728943D01*
X67469673Y-143992192D01*
X67813201Y-144134838D01*
X68185167Y-144135162D01*
X68528943Y-143993117D01*
X68792192Y-143730327D01*
X68934838Y-143386799D01*
X68934987Y-143215167D01*
X129054838Y-143215167D01*
X129196883Y-143558943D01*
X129459673Y-143822192D01*
X129803201Y-143964838D01*
X130175167Y-143965162D01*
X130518943Y-143823117D01*
X130782192Y-143560327D01*
X130924838Y-143216799D01*
X130925162Y-142844833D01*
X130783117Y-142501057D01*
X130520327Y-142237808D01*
X130176799Y-142095162D01*
X129804833Y-142094838D01*
X129461057Y-142236883D01*
X129197808Y-142499673D01*
X129055162Y-142843201D01*
X129054838Y-143215167D01*
X68934987Y-143215167D01*
X68935162Y-143014833D01*
X68793117Y-142671057D01*
X68530327Y-142407808D01*
X68186799Y-142265162D01*
X68157147Y-142265136D01*
X68292192Y-142130327D01*
X68434838Y-141786799D01*
X68435013Y-141585167D01*
X92394838Y-141585167D01*
X92536883Y-141928943D01*
X92799673Y-142192192D01*
X93143201Y-142334838D01*
X93515167Y-142335162D01*
X93858943Y-142193117D01*
X94122192Y-141930327D01*
X94223991Y-141685167D01*
X98564838Y-141685167D01*
X98706883Y-142028943D01*
X98969673Y-142292192D01*
X99313201Y-142434838D01*
X99685167Y-142435162D01*
X100000351Y-142304931D01*
X100313201Y-142434838D01*
X100685167Y-142435162D01*
X101028943Y-142293117D01*
X101292192Y-142030327D01*
X101434838Y-141686799D01*
X101435162Y-141314833D01*
X101293117Y-140971057D01*
X101030327Y-140707808D01*
X100686799Y-140565162D01*
X100314833Y-140564838D01*
X99999649Y-140695069D01*
X99686799Y-140565162D01*
X99314833Y-140564838D01*
X98971057Y-140706883D01*
X98707808Y-140969673D01*
X98565162Y-141313201D01*
X98564838Y-141685167D01*
X94223991Y-141685167D01*
X94264838Y-141586799D01*
X94265162Y-141214833D01*
X94123117Y-140871057D01*
X93860327Y-140607808D01*
X93516799Y-140465162D01*
X93144833Y-140464838D01*
X92801057Y-140606883D01*
X92537808Y-140869673D01*
X92395162Y-141213201D01*
X92394838Y-141585167D01*
X68435013Y-141585167D01*
X68435162Y-141414833D01*
X68293117Y-141071057D01*
X68030327Y-140807808D01*
X67686799Y-140665162D01*
X67314833Y-140664838D01*
X66971057Y-140806883D01*
X66707808Y-141069673D01*
X66565162Y-141413201D01*
X66564838Y-141785167D01*
X66572956Y-141804813D01*
X66407808Y-141969673D01*
X66265162Y-142313201D01*
X66264838Y-142685167D01*
X58734977Y-142685167D01*
X58686799Y-142665162D01*
X58434857Y-142664943D01*
X58435162Y-142314833D01*
X58293117Y-141971057D01*
X58030327Y-141707808D01*
X57686799Y-141565162D01*
X57314833Y-141564838D01*
X56971057Y-141706883D01*
X56707808Y-141969673D01*
X56565162Y-142313201D01*
X56564838Y-142685167D01*
X50785000Y-142685167D01*
X50785000Y-137682400D01*
X52734960Y-137682400D01*
X52734960Y-139917600D01*
X52779238Y-140152917D01*
X52918310Y-140369041D01*
X53130510Y-140514031D01*
X53382400Y-140565040D01*
X55617600Y-140565040D01*
X55852917Y-140520762D01*
X56069041Y-140381690D01*
X56170864Y-140232667D01*
X56612338Y-140232667D01*
X56754383Y-140576443D01*
X57017173Y-140839692D01*
X57360701Y-140982338D01*
X57732667Y-140982662D01*
X58076443Y-140840617D01*
X58339692Y-140577827D01*
X58482338Y-140234299D01*
X58482502Y-140045167D01*
X90864838Y-140045167D01*
X91006883Y-140388943D01*
X91269673Y-140652192D01*
X91613201Y-140794838D01*
X91985167Y-140795162D01*
X92328943Y-140653117D01*
X92592192Y-140390327D01*
X92734838Y-140046799D01*
X92734891Y-139985167D01*
X100864838Y-139985167D01*
X101006883Y-140328943D01*
X101269673Y-140592192D01*
X101613201Y-140734838D01*
X101985167Y-140735162D01*
X102083082Y-140694704D01*
X101907808Y-140869673D01*
X101765162Y-141213201D01*
X101764838Y-141585167D01*
X101906883Y-141928943D01*
X102169673Y-142192192D01*
X102513201Y-142334838D01*
X102885167Y-142335162D01*
X102955582Y-142306067D01*
X103617338Y-142306067D01*
X103759383Y-142649843D01*
X104022173Y-142913092D01*
X104365701Y-143055738D01*
X104737667Y-143056062D01*
X105081443Y-142914017D01*
X105344692Y-142651227D01*
X105487338Y-142307699D01*
X105487662Y-141935733D01*
X105396527Y-141715167D01*
X107640138Y-141715167D01*
X107782183Y-142058943D01*
X108044973Y-142322192D01*
X108388501Y-142464838D01*
X108760467Y-142465162D01*
X109104243Y-142323117D01*
X109367492Y-142060327D01*
X109510138Y-141716799D01*
X109510462Y-141344833D01*
X109368417Y-141001057D01*
X109105627Y-140737808D01*
X108858442Y-140635167D01*
X111004838Y-140635167D01*
X111146883Y-140978943D01*
X111409673Y-141242192D01*
X111753201Y-141384838D01*
X112125167Y-141385162D01*
X112468943Y-141243117D01*
X112732192Y-140980327D01*
X112874838Y-140636799D01*
X112874883Y-140584967D01*
X121814838Y-140584967D01*
X121956883Y-140928743D01*
X122219673Y-141191992D01*
X122563201Y-141334638D01*
X122935167Y-141334962D01*
X123278943Y-141192917D01*
X123542192Y-140930127D01*
X123684838Y-140586599D01*
X123685162Y-140214633D01*
X123677119Y-140195167D01*
X125844838Y-140195167D01*
X125986883Y-140538943D01*
X126249673Y-140802192D01*
X126593201Y-140944838D01*
X126965167Y-140945162D01*
X127308943Y-140803117D01*
X127572192Y-140540327D01*
X127714838Y-140196799D01*
X127715132Y-139859578D01*
X127856883Y-140202643D01*
X128026865Y-140372922D01*
X127751057Y-140486883D01*
X127487808Y-140749673D01*
X127345162Y-141093201D01*
X127344838Y-141465167D01*
X127486883Y-141808943D01*
X127749673Y-142072192D01*
X128093201Y-142214838D01*
X128465167Y-142215162D01*
X128808943Y-142073117D01*
X129072192Y-141810327D01*
X129113392Y-141711108D01*
X129363201Y-141814838D01*
X129735167Y-141815162D01*
X130078943Y-141673117D01*
X130342192Y-141410327D01*
X130484838Y-141066799D01*
X130485162Y-140694833D01*
X130343117Y-140351057D01*
X130308654Y-140316534D01*
X130558943Y-140213117D01*
X130822192Y-139950327D01*
X130964838Y-139606799D01*
X130965162Y-139234833D01*
X130823117Y-138891057D01*
X130560327Y-138627808D01*
X130216799Y-138485162D01*
X129844833Y-138484838D01*
X129501057Y-138626883D01*
X129237808Y-138889673D01*
X129223316Y-138924572D01*
X129180327Y-138881508D01*
X128836799Y-138738862D01*
X128464833Y-138738538D01*
X128121057Y-138880583D01*
X127857808Y-139143373D01*
X127715162Y-139486901D01*
X127714868Y-139824122D01*
X127573117Y-139481057D01*
X127310327Y-139217808D01*
X126966799Y-139075162D01*
X126594833Y-139074838D01*
X126251057Y-139216883D01*
X125987808Y-139479673D01*
X125845162Y-139823201D01*
X125844838Y-140195167D01*
X123677119Y-140195167D01*
X123543117Y-139870857D01*
X123280327Y-139607608D01*
X122936799Y-139464962D01*
X122564833Y-139464638D01*
X122221057Y-139606683D01*
X121957808Y-139869473D01*
X121815162Y-140213001D01*
X121814838Y-140584967D01*
X112874883Y-140584967D01*
X112875162Y-140264833D01*
X112733117Y-139921057D01*
X112470327Y-139657808D01*
X112126799Y-139515162D01*
X111754833Y-139514838D01*
X111411057Y-139656883D01*
X111147808Y-139919673D01*
X111005162Y-140263201D01*
X111004838Y-140635167D01*
X108858442Y-140635167D01*
X108762099Y-140595162D01*
X108390133Y-140594838D01*
X108046357Y-140736883D01*
X107783108Y-140999673D01*
X107640462Y-141343201D01*
X107640138Y-141715167D01*
X105396527Y-141715167D01*
X105345617Y-141591957D01*
X105082827Y-141328708D01*
X104739299Y-141186062D01*
X104367333Y-141185738D01*
X104023557Y-141327783D01*
X103760308Y-141590573D01*
X103617662Y-141934101D01*
X103617338Y-142306067D01*
X102955582Y-142306067D01*
X103228943Y-142193117D01*
X103492192Y-141930327D01*
X103634838Y-141586799D01*
X103635162Y-141214833D01*
X103493117Y-140871057D01*
X103230327Y-140607808D01*
X102886799Y-140465162D01*
X102514833Y-140464838D01*
X102416918Y-140505296D01*
X102592192Y-140330327D01*
X102665807Y-140153044D01*
X102983201Y-140284838D01*
X103355167Y-140285162D01*
X103698943Y-140143117D01*
X103962192Y-139880327D01*
X104104838Y-139536799D01*
X104105162Y-139164833D01*
X103963117Y-138821057D01*
X103700327Y-138557808D01*
X103356799Y-138415162D01*
X102984833Y-138414838D01*
X102641057Y-138556883D01*
X102377808Y-138819673D01*
X102304193Y-138996956D01*
X101986799Y-138865162D01*
X101614833Y-138864838D01*
X101271057Y-139006883D01*
X101007808Y-139269673D01*
X100865162Y-139613201D01*
X100864838Y-139985167D01*
X92734891Y-139985167D01*
X92735162Y-139674833D01*
X92593117Y-139331057D01*
X92330327Y-139067808D01*
X91986799Y-138925162D01*
X91614833Y-138924838D01*
X91271057Y-139066883D01*
X91007808Y-139329673D01*
X90865162Y-139673201D01*
X90864838Y-140045167D01*
X58482502Y-140045167D01*
X58482662Y-139862333D01*
X58340617Y-139518557D01*
X58077827Y-139255308D01*
X57734299Y-139112662D01*
X57362333Y-139112338D01*
X57018557Y-139254383D01*
X56755308Y-139517173D01*
X56612662Y-139860701D01*
X56612338Y-140232667D01*
X56170864Y-140232667D01*
X56214031Y-140169490D01*
X56265040Y-139917600D01*
X56265040Y-138720167D01*
X97909838Y-138720167D01*
X98051883Y-139063943D01*
X98314673Y-139327192D01*
X98658201Y-139469838D01*
X99030167Y-139470162D01*
X99373943Y-139328117D01*
X99637192Y-139065327D01*
X99779838Y-138721799D01*
X99780162Y-138349833D01*
X99646014Y-138025167D01*
X103454838Y-138025167D01*
X103596883Y-138368943D01*
X103859673Y-138632192D01*
X104203201Y-138774838D01*
X104575167Y-138775162D01*
X104918943Y-138633117D01*
X105182192Y-138370327D01*
X105324838Y-138026799D01*
X105325162Y-137654833D01*
X105183117Y-137311057D01*
X104920327Y-137047808D01*
X104576799Y-136905162D01*
X104204833Y-136904838D01*
X103861057Y-137046883D01*
X103597808Y-137309673D01*
X103455162Y-137653201D01*
X103454838Y-138025167D01*
X99646014Y-138025167D01*
X99638117Y-138006057D01*
X99375327Y-137742808D01*
X99031799Y-137600162D01*
X98659833Y-137599838D01*
X98316057Y-137741883D01*
X98052808Y-138004673D01*
X97910162Y-138348201D01*
X97909838Y-138720167D01*
X56265040Y-138720167D01*
X56265040Y-137682400D01*
X56220762Y-137447083D01*
X56081690Y-137230959D01*
X55869490Y-137085969D01*
X55617600Y-137034960D01*
X53382400Y-137034960D01*
X53147083Y-137079238D01*
X52930959Y-137218310D01*
X52785969Y-137430510D01*
X52734960Y-137682400D01*
X50785000Y-137682400D01*
X50785000Y-134185167D01*
X62064838Y-134185167D01*
X62206883Y-134528943D01*
X62469673Y-134792192D01*
X62813201Y-134934838D01*
X63185167Y-134935162D01*
X63528943Y-134793117D01*
X63792192Y-134530327D01*
X63898600Y-134274067D01*
X70144638Y-134274067D01*
X70286683Y-134617843D01*
X70549473Y-134881092D01*
X70893001Y-135023738D01*
X71264967Y-135024062D01*
X71467818Y-134940246D01*
X71519673Y-134992192D01*
X71863201Y-135134838D01*
X72235167Y-135135162D01*
X72578943Y-134993117D01*
X72825138Y-134747352D01*
X72999673Y-134922192D01*
X73343201Y-135064838D01*
X73652915Y-135065108D01*
X73839673Y-135252192D01*
X74183201Y-135394838D01*
X74555167Y-135395162D01*
X74898943Y-135253117D01*
X75162192Y-134990327D01*
X75187441Y-134929520D01*
X75439673Y-135182192D01*
X75783201Y-135324838D01*
X76155167Y-135325162D01*
X76498943Y-135183117D01*
X76685106Y-134997278D01*
X76684838Y-135305167D01*
X76826883Y-135648943D01*
X77089673Y-135912192D01*
X77433201Y-136054838D01*
X77805167Y-136055162D01*
X78148943Y-135913117D01*
X78412192Y-135650327D01*
X78554838Y-135306799D01*
X78555162Y-134934833D01*
X78413117Y-134591057D01*
X78150327Y-134327808D01*
X78064092Y-134292000D01*
X78152756Y-134232756D01*
X78162756Y-134222757D01*
X78227963Y-134125167D01*
X79734838Y-134125167D01*
X79876883Y-134468943D01*
X80139673Y-134732192D01*
X80483201Y-134874838D01*
X80855167Y-134875162D01*
X81198943Y-134733117D01*
X81462192Y-134470327D01*
X81580601Y-134185167D01*
X82264838Y-134185167D01*
X82406883Y-134528943D01*
X82669673Y-134792192D01*
X83013201Y-134934838D01*
X83292819Y-134935082D01*
X83439673Y-135082192D01*
X83783201Y-135224838D01*
X84155167Y-135225162D01*
X84498943Y-135083117D01*
X84762192Y-134820327D01*
X84904838Y-134476799D01*
X84905154Y-134113267D01*
X86454338Y-134113267D01*
X86596383Y-134457043D01*
X86859173Y-134720292D01*
X87202701Y-134862938D01*
X87574667Y-134863262D01*
X87918443Y-134721217D01*
X88074765Y-134565167D01*
X89114838Y-134565167D01*
X89256883Y-134908943D01*
X89519673Y-135172192D01*
X89863201Y-135314838D01*
X90235167Y-135315162D01*
X90380366Y-135255167D01*
X92844838Y-135255167D01*
X92986883Y-135598943D01*
X93249673Y-135862192D01*
X93593201Y-136004838D01*
X93965167Y-136005162D01*
X94308943Y-135863117D01*
X94572192Y-135600327D01*
X94714838Y-135256799D01*
X94715162Y-134884833D01*
X94573117Y-134541057D01*
X94310327Y-134277808D01*
X93966799Y-134135162D01*
X93594833Y-134134838D01*
X93251057Y-134276883D01*
X92987808Y-134539673D01*
X92845162Y-134883201D01*
X92844838Y-135255167D01*
X90380366Y-135255167D01*
X90578943Y-135173117D01*
X90842192Y-134910327D01*
X90984838Y-134566799D01*
X90985162Y-134194833D01*
X90843117Y-133851057D01*
X90580327Y-133587808D01*
X90333142Y-133485167D01*
X97564838Y-133485167D01*
X97706883Y-133828943D01*
X97969673Y-134092192D01*
X98313201Y-134234838D01*
X98685167Y-134235162D01*
X99028943Y-134093117D01*
X99127064Y-133995167D01*
X120414838Y-133995167D01*
X120556883Y-134338943D01*
X120819673Y-134602192D01*
X121163201Y-134744838D01*
X121535167Y-134745162D01*
X121878943Y-134603117D01*
X122007116Y-134475167D01*
X125904838Y-134475167D01*
X126046883Y-134818943D01*
X126309673Y-135082192D01*
X126653201Y-135224838D01*
X127025167Y-135225162D01*
X127368943Y-135083117D01*
X127527168Y-134925167D01*
X129274838Y-134925167D01*
X129416883Y-135268943D01*
X129679673Y-135532192D01*
X130023201Y-135674838D01*
X130395167Y-135675162D01*
X130738943Y-135533117D01*
X131002192Y-135270327D01*
X131144838Y-134926799D01*
X131145162Y-134554833D01*
X131003117Y-134211057D01*
X130740327Y-133947808D01*
X130396799Y-133805162D01*
X130024833Y-133804838D01*
X129681057Y-133946883D01*
X129417808Y-134209673D01*
X129275162Y-134553201D01*
X129274838Y-134925167D01*
X127527168Y-134925167D01*
X127632192Y-134820327D01*
X127774838Y-134476799D01*
X127775162Y-134104833D01*
X127633117Y-133761057D01*
X127370327Y-133497808D01*
X127026799Y-133355162D01*
X126654833Y-133354838D01*
X126311057Y-133496883D01*
X126047808Y-133759673D01*
X125905162Y-134103201D01*
X125904838Y-134475167D01*
X122007116Y-134475167D01*
X122142192Y-134340327D01*
X122284838Y-133996799D01*
X122285162Y-133624833D01*
X122143117Y-133281057D01*
X121987499Y-133125167D01*
X123194838Y-133125167D01*
X123336883Y-133468943D01*
X123599673Y-133732192D01*
X123943201Y-133874838D01*
X124315167Y-133875162D01*
X124658943Y-133733117D01*
X124922192Y-133470327D01*
X125064838Y-133126799D01*
X125065162Y-132754833D01*
X124923117Y-132411057D01*
X124660327Y-132147808D01*
X124316799Y-132005162D01*
X123944833Y-132004838D01*
X123601057Y-132146883D01*
X123337808Y-132409673D01*
X123195162Y-132753201D01*
X123194838Y-133125167D01*
X121987499Y-133125167D01*
X121880327Y-133017808D01*
X121536799Y-132875162D01*
X121164833Y-132874838D01*
X120821057Y-133016883D01*
X120557808Y-133279673D01*
X120415162Y-133623201D01*
X120414838Y-133995167D01*
X99127064Y-133995167D01*
X99292192Y-133830327D01*
X99434838Y-133486799D01*
X99435048Y-133245167D01*
X106644838Y-133245167D01*
X106786883Y-133588943D01*
X107049673Y-133852192D01*
X107393201Y-133994838D01*
X107765167Y-133995162D01*
X108108943Y-133853117D01*
X108372192Y-133590327D01*
X108514838Y-133246799D01*
X108514853Y-133229841D01*
X108748943Y-133133117D01*
X109012192Y-132870327D01*
X109154838Y-132526799D01*
X109155162Y-132154833D01*
X109013117Y-131811057D01*
X108750327Y-131547808D01*
X108406799Y-131405162D01*
X108034833Y-131404838D01*
X107691057Y-131546883D01*
X107427808Y-131809673D01*
X107285162Y-132153201D01*
X107285147Y-132170159D01*
X107051057Y-132266883D01*
X106787808Y-132529673D01*
X106645162Y-132873201D01*
X106644838Y-133245167D01*
X99435048Y-133245167D01*
X99435162Y-133114833D01*
X99293117Y-132771057D01*
X99030327Y-132507808D01*
X98686799Y-132365162D01*
X98314833Y-132364838D01*
X97971057Y-132506883D01*
X97707808Y-132769673D01*
X97565162Y-133113201D01*
X97564838Y-133485167D01*
X90333142Y-133485167D01*
X90236799Y-133445162D01*
X89864833Y-133444838D01*
X89521057Y-133586883D01*
X89257808Y-133849673D01*
X89115162Y-134193201D01*
X89114838Y-134565167D01*
X88074765Y-134565167D01*
X88181692Y-134458427D01*
X88324338Y-134114899D01*
X88324662Y-133742933D01*
X88182617Y-133399157D01*
X87919827Y-133135908D01*
X87576299Y-132993262D01*
X87204333Y-132992938D01*
X86860557Y-133134983D01*
X86597308Y-133397773D01*
X86454662Y-133741301D01*
X86454338Y-134113267D01*
X84905154Y-134113267D01*
X84905162Y-134104833D01*
X84763117Y-133761057D01*
X84500327Y-133497808D01*
X84156799Y-133355162D01*
X83877181Y-133354918D01*
X83730327Y-133207808D01*
X83386799Y-133065162D01*
X83014833Y-133064838D01*
X82671057Y-133206883D01*
X82407808Y-133469673D01*
X82265162Y-133813201D01*
X82264838Y-134185167D01*
X81580601Y-134185167D01*
X81604838Y-134126799D01*
X81605162Y-133754833D01*
X81463117Y-133411057D01*
X81200327Y-133147808D01*
X80856799Y-133005162D01*
X80484833Y-133004838D01*
X80141057Y-133146883D01*
X79877808Y-133409673D01*
X79735162Y-133753201D01*
X79734838Y-134125167D01*
X78227963Y-134125167D01*
X78301686Y-134014833D01*
X78338342Y-133959974D01*
X78400000Y-133650000D01*
X78400000Y-133610000D01*
X78338342Y-133300026D01*
X78162756Y-133037244D01*
X77899974Y-132861658D01*
X77590000Y-132800000D01*
X77280026Y-132861658D01*
X77045279Y-133018512D01*
X76916799Y-132965162D01*
X76544833Y-132964838D01*
X76201057Y-133106883D01*
X75937808Y-133369673D01*
X75902402Y-133454940D01*
X75784833Y-133454838D01*
X75441057Y-133596883D01*
X75177808Y-133859673D01*
X75152559Y-133920480D01*
X74900327Y-133667808D01*
X74556799Y-133525162D01*
X74247085Y-133524892D01*
X74060327Y-133337808D01*
X73716799Y-133195162D01*
X73344833Y-133194838D01*
X73001057Y-133336883D01*
X72754862Y-133582648D01*
X72580327Y-133407808D01*
X72236799Y-133265162D01*
X71864833Y-133264838D01*
X71661982Y-133348654D01*
X71610127Y-133296708D01*
X71266599Y-133154062D01*
X70894633Y-133153738D01*
X70550857Y-133295783D01*
X70287608Y-133558573D01*
X70144962Y-133902101D01*
X70144638Y-134274067D01*
X63898600Y-134274067D01*
X63934838Y-134186799D01*
X63935162Y-133814833D01*
X63793117Y-133471057D01*
X63530327Y-133207808D01*
X63186799Y-133065162D01*
X62814833Y-133064838D01*
X62471057Y-133206883D01*
X62207808Y-133469673D01*
X62065162Y-133813201D01*
X62064838Y-134185167D01*
X50785000Y-134185167D01*
X50785000Y-131500000D01*
X51965000Y-131500000D01*
X52119905Y-132278761D01*
X52561038Y-132938962D01*
X53221239Y-133380095D01*
X54000000Y-133535000D01*
X54778761Y-133380095D01*
X55438962Y-132938962D01*
X55675360Y-132585167D01*
X95664838Y-132585167D01*
X95806883Y-132928943D01*
X96069673Y-133192192D01*
X96413201Y-133334838D01*
X96785167Y-133335162D01*
X97128943Y-133193117D01*
X97392192Y-132930327D01*
X97534838Y-132586799D01*
X97535162Y-132214833D01*
X97393117Y-131871057D01*
X97130327Y-131607808D01*
X96786799Y-131465162D01*
X96414833Y-131464838D01*
X96071057Y-131606883D01*
X95807808Y-131869673D01*
X95665162Y-132213201D01*
X95664838Y-132585167D01*
X55675360Y-132585167D01*
X55880095Y-132278761D01*
X56035000Y-131500000D01*
X55927243Y-130958267D01*
X84986338Y-130958267D01*
X85128383Y-131302043D01*
X85391173Y-131565292D01*
X85734701Y-131707938D01*
X86106667Y-131708262D01*
X86450443Y-131566217D01*
X86713692Y-131303427D01*
X86856338Y-130959899D01*
X86856662Y-130587933D01*
X86743834Y-130314867D01*
X88212438Y-130314867D01*
X88354483Y-130658643D01*
X88617273Y-130921892D01*
X88960801Y-131064538D01*
X89332767Y-131064862D01*
X89676543Y-130922817D01*
X89939792Y-130660027D01*
X89999029Y-130517367D01*
X96436438Y-130517367D01*
X96578483Y-130861143D01*
X96841273Y-131124392D01*
X97184801Y-131267038D01*
X97556767Y-131267362D01*
X97900543Y-131125317D01*
X97928141Y-131097767D01*
X124074838Y-131097767D01*
X124216883Y-131441543D01*
X124479673Y-131704792D01*
X124823201Y-131847438D01*
X125195167Y-131847762D01*
X125538943Y-131705717D01*
X125745019Y-131500000D01*
X128965000Y-131500000D01*
X129119905Y-132278761D01*
X129561038Y-132938962D01*
X130221239Y-133380095D01*
X131000000Y-133535000D01*
X131778761Y-133380095D01*
X132438962Y-132938962D01*
X132880095Y-132278761D01*
X133035000Y-131500000D01*
X132880095Y-130721239D01*
X132438962Y-130061038D01*
X131778761Y-129619905D01*
X131000000Y-129465000D01*
X130221239Y-129619905D01*
X129561038Y-130061038D01*
X129119905Y-130721239D01*
X128965000Y-131500000D01*
X125745019Y-131500000D01*
X125802192Y-131442927D01*
X125944838Y-131099399D01*
X125945162Y-130727433D01*
X125803117Y-130383657D01*
X125540327Y-130120408D01*
X125196799Y-129977762D01*
X124824833Y-129977438D01*
X124481057Y-130119483D01*
X124217808Y-130382273D01*
X124075162Y-130725801D01*
X124074838Y-131097767D01*
X97928141Y-131097767D01*
X98163792Y-130862527D01*
X98306438Y-130518999D01*
X98306762Y-130147033D01*
X98164717Y-129803257D01*
X97901927Y-129540008D01*
X97558399Y-129397362D01*
X97186433Y-129397038D01*
X96842657Y-129539083D01*
X96579408Y-129801873D01*
X96436762Y-130145401D01*
X96436438Y-130517367D01*
X89999029Y-130517367D01*
X90082438Y-130316499D01*
X90082762Y-129944533D01*
X89940717Y-129600757D01*
X89677927Y-129337508D01*
X89334399Y-129194862D01*
X88962433Y-129194538D01*
X88618657Y-129336583D01*
X88355408Y-129599373D01*
X88212762Y-129942901D01*
X88212438Y-130314867D01*
X86743834Y-130314867D01*
X86714617Y-130244157D01*
X86451827Y-129980908D01*
X86108299Y-129838262D01*
X85736333Y-129837938D01*
X85392557Y-129979983D01*
X85129308Y-130242773D01*
X84986662Y-130586301D01*
X84986338Y-130958267D01*
X55927243Y-130958267D01*
X55880095Y-130721239D01*
X55438962Y-130061038D01*
X54778761Y-129619905D01*
X54000000Y-129465000D01*
X53221239Y-129619905D01*
X52561038Y-130061038D01*
X52119905Y-130721239D01*
X51965000Y-131500000D01*
X50785000Y-131500000D01*
X50785000Y-129275167D01*
X78364838Y-129275167D01*
X78506883Y-129618943D01*
X78769673Y-129882192D01*
X79113201Y-130024838D01*
X79485167Y-130025162D01*
X79828943Y-129883117D01*
X80092192Y-129620327D01*
X80234838Y-129276799D01*
X80235162Y-128904833D01*
X80119048Y-128623815D01*
X80254838Y-128296799D01*
X80255162Y-127924833D01*
X80113117Y-127581057D01*
X79850327Y-127317808D01*
X79506799Y-127175162D01*
X79134833Y-127174838D01*
X78791057Y-127316883D01*
X78527808Y-127579673D01*
X78385162Y-127923201D01*
X78384838Y-128295167D01*
X78500952Y-128576185D01*
X78365162Y-128903201D01*
X78364838Y-129275167D01*
X50785000Y-129275167D01*
X50785000Y-126555167D01*
X101214838Y-126555167D01*
X101356883Y-126898943D01*
X101619673Y-127162192D01*
X101963201Y-127304838D01*
X102335167Y-127305162D01*
X102678943Y-127163117D01*
X102942192Y-126900327D01*
X103084838Y-126556799D01*
X103085139Y-126210967D01*
X103989038Y-126210967D01*
X104131083Y-126554743D01*
X104393873Y-126817992D01*
X104524265Y-126872136D01*
X104524238Y-126902767D01*
X104666283Y-127246543D01*
X104929073Y-127509792D01*
X105124122Y-127590784D01*
X105123838Y-127917167D01*
X105265883Y-128260943D01*
X105528673Y-128524192D01*
X105872201Y-128666838D01*
X106244167Y-128667162D01*
X106587943Y-128525117D01*
X106851192Y-128262327D01*
X106993838Y-127918799D01*
X106994041Y-127685167D01*
X111064838Y-127685167D01*
X111206883Y-128028943D01*
X111302710Y-128124937D01*
X111207808Y-128219673D01*
X111065162Y-128563201D01*
X111064838Y-128935167D01*
X111206883Y-129278943D01*
X111469673Y-129542192D01*
X111813201Y-129684838D01*
X112185167Y-129685162D01*
X112528943Y-129543117D01*
X112792192Y-129280327D01*
X112934838Y-128936799D01*
X112935162Y-128564833D01*
X112793117Y-128221057D01*
X112697290Y-128125063D01*
X112792192Y-128030327D01*
X112934838Y-127686799D01*
X112935162Y-127314833D01*
X112793117Y-126971057D01*
X112530327Y-126707808D01*
X112186799Y-126565162D01*
X111814833Y-126564838D01*
X111471057Y-126706883D01*
X111207808Y-126969673D01*
X111065162Y-127313201D01*
X111064838Y-127685167D01*
X106994041Y-127685167D01*
X106994162Y-127546833D01*
X106852117Y-127203057D01*
X106589327Y-126939808D01*
X106394278Y-126858816D01*
X106394562Y-126532433D01*
X106252517Y-126188657D01*
X105989727Y-125925408D01*
X105859335Y-125871264D01*
X105859362Y-125840633D01*
X105717317Y-125496857D01*
X105454527Y-125233608D01*
X105155083Y-125109267D01*
X105689538Y-125109267D01*
X105831583Y-125453043D01*
X106094373Y-125716292D01*
X106437901Y-125858938D01*
X106809867Y-125859262D01*
X107153643Y-125717217D01*
X107366063Y-125505167D01*
X112474838Y-125505167D01*
X112616883Y-125848943D01*
X112879673Y-126112192D01*
X113223201Y-126254838D01*
X113595167Y-126255162D01*
X113938943Y-126113117D01*
X114202192Y-125850327D01*
X114344838Y-125506799D01*
X114345162Y-125134833D01*
X114203117Y-124791057D01*
X113940327Y-124527808D01*
X113596799Y-124385162D01*
X113224833Y-124384838D01*
X112881057Y-124526883D01*
X112617808Y-124789673D01*
X112475162Y-125133201D01*
X112474838Y-125505167D01*
X107366063Y-125505167D01*
X107416892Y-125454427D01*
X107541320Y-125154773D01*
X107738943Y-125073117D01*
X108002192Y-124810327D01*
X108144838Y-124466799D01*
X108145162Y-124094833D01*
X108003117Y-123751057D01*
X107740327Y-123487808D01*
X107396799Y-123345162D01*
X107024833Y-123344838D01*
X106681057Y-123486883D01*
X106417808Y-123749673D01*
X106293380Y-124049327D01*
X106095757Y-124130983D01*
X105832508Y-124393773D01*
X105689862Y-124737301D01*
X105689538Y-125109267D01*
X105155083Y-125109267D01*
X105110999Y-125090962D01*
X104739033Y-125090638D01*
X104395257Y-125232683D01*
X104132008Y-125495473D01*
X103989362Y-125839001D01*
X103989038Y-126210967D01*
X103085139Y-126210967D01*
X103085162Y-126184833D01*
X102943117Y-125841057D01*
X102680327Y-125577808D01*
X102336799Y-125435162D01*
X101964833Y-125434838D01*
X101621057Y-125576883D01*
X101357808Y-125839673D01*
X101215162Y-126183201D01*
X101214838Y-126555167D01*
X50785000Y-126555167D01*
X50785000Y-125785167D01*
X89037938Y-125785167D01*
X89179983Y-126128943D01*
X89442773Y-126392192D01*
X89786301Y-126534838D01*
X90158267Y-126535162D01*
X90502043Y-126393117D01*
X90765292Y-126130327D01*
X90907938Y-125786799D01*
X90908262Y-125414833D01*
X90766217Y-125071057D01*
X90503427Y-124807808D01*
X90159899Y-124665162D01*
X89787933Y-124664838D01*
X89444157Y-124806883D01*
X89180908Y-125069673D01*
X89038262Y-125413201D01*
X89037938Y-125785167D01*
X50785000Y-125785167D01*
X50785000Y-123755167D01*
X87424838Y-123755167D01*
X87566883Y-124098943D01*
X87829673Y-124362192D01*
X88173201Y-124504838D01*
X88545167Y-124505162D01*
X88888943Y-124363117D01*
X89152192Y-124100327D01*
X89293314Y-123760467D01*
X100520438Y-123760467D01*
X100662483Y-124104243D01*
X100925273Y-124367492D01*
X101268801Y-124510138D01*
X101640767Y-124510462D01*
X101984543Y-124368417D01*
X102247792Y-124105627D01*
X102390438Y-123762099D01*
X102390762Y-123390133D01*
X102283223Y-123129867D01*
X111004138Y-123129867D01*
X111146183Y-123473643D01*
X111408973Y-123736892D01*
X111752501Y-123879538D01*
X112124467Y-123879862D01*
X112468243Y-123737817D01*
X112731492Y-123475027D01*
X112874138Y-123131499D01*
X112874462Y-122759533D01*
X112732417Y-122415757D01*
X112469627Y-122152508D01*
X112126099Y-122009862D01*
X111754133Y-122009538D01*
X111410357Y-122151583D01*
X111147108Y-122414373D01*
X111004462Y-122757901D01*
X111004138Y-123129867D01*
X102283223Y-123129867D01*
X102248717Y-123046357D01*
X101985927Y-122783108D01*
X101642399Y-122640462D01*
X101270433Y-122640138D01*
X100926657Y-122782183D01*
X100663408Y-123044973D01*
X100520762Y-123388501D01*
X100520438Y-123760467D01*
X89293314Y-123760467D01*
X89294838Y-123756799D01*
X89295162Y-123384833D01*
X89265455Y-123312935D01*
X89344573Y-123392192D01*
X89688101Y-123534838D01*
X90060067Y-123535162D01*
X90403843Y-123393117D01*
X90451178Y-123345865D01*
X90593201Y-123404838D01*
X90965167Y-123405162D01*
X91308943Y-123263117D01*
X91572192Y-123000327D01*
X91714838Y-122656799D01*
X91715162Y-122284833D01*
X91573117Y-121941057D01*
X91310327Y-121677808D01*
X90966799Y-121535162D01*
X90594833Y-121534838D01*
X90251057Y-121676883D01*
X90203722Y-121724135D01*
X90061699Y-121665162D01*
X89689733Y-121664838D01*
X89345957Y-121806883D01*
X89082708Y-122069673D01*
X88940062Y-122413201D01*
X88939738Y-122785167D01*
X88969445Y-122857065D01*
X88890327Y-122777808D01*
X88546799Y-122635162D01*
X88174833Y-122634838D01*
X87831057Y-122776883D01*
X87567808Y-123039673D01*
X87425162Y-123383201D01*
X87424838Y-123755167D01*
X50785000Y-123755167D01*
X50785000Y-121145167D01*
X79684838Y-121145167D01*
X79826883Y-121488943D01*
X80089673Y-121752192D01*
X80433201Y-121894838D01*
X80805167Y-121895162D01*
X81148943Y-121753117D01*
X81237046Y-121665167D01*
X85274838Y-121665167D01*
X85416883Y-122008943D01*
X85679673Y-122272192D01*
X86023201Y-122414838D01*
X86395167Y-122415162D01*
X86738943Y-122273117D01*
X87002192Y-122010327D01*
X87144838Y-121666799D01*
X87145162Y-121294833D01*
X87003117Y-120951057D01*
X86740327Y-120687808D01*
X86396799Y-120545162D01*
X86024833Y-120544838D01*
X85681057Y-120686883D01*
X85417808Y-120949673D01*
X85275162Y-121293201D01*
X85274838Y-121665167D01*
X81237046Y-121665167D01*
X81412192Y-121490327D01*
X81554838Y-121146799D01*
X81555162Y-120774833D01*
X81413117Y-120431057D01*
X81150327Y-120167808D01*
X80806799Y-120025162D01*
X80434833Y-120024838D01*
X80091057Y-120166883D01*
X79827808Y-120429673D01*
X79685162Y-120773201D01*
X79684838Y-121145167D01*
X50785000Y-121145167D01*
X50785000Y-119435167D01*
X66591238Y-119435167D01*
X66733283Y-119778943D01*
X66996073Y-120042192D01*
X67301604Y-120169060D01*
X67427083Y-120472743D01*
X67689873Y-120735992D01*
X68033401Y-120878638D01*
X68405367Y-120878962D01*
X68749143Y-120736917D01*
X69012392Y-120474127D01*
X69155038Y-120130599D01*
X69155362Y-119758633D01*
X69013317Y-119414857D01*
X68750527Y-119151608D01*
X68444996Y-119024740D01*
X68319517Y-118721057D01*
X68056727Y-118457808D01*
X67713199Y-118315162D01*
X67341233Y-118314838D01*
X66997457Y-118456883D01*
X66734208Y-118719673D01*
X66591562Y-119063201D01*
X66591238Y-119435167D01*
X50785000Y-119435167D01*
X50785000Y-118185167D01*
X68264838Y-118185167D01*
X68406883Y-118528943D01*
X68669673Y-118792192D01*
X69013201Y-118934838D01*
X69385167Y-118935162D01*
X69728943Y-118793117D01*
X69957291Y-118565167D01*
X80534838Y-118565167D01*
X80676883Y-118908943D01*
X80939673Y-119172192D01*
X81283201Y-119314838D01*
X81655167Y-119315162D01*
X81998943Y-119173117D01*
X82262192Y-118910327D01*
X82404838Y-118566799D01*
X82404895Y-118501317D01*
X82448943Y-118483117D01*
X82712192Y-118220327D01*
X82854838Y-117876799D01*
X82855162Y-117504833D01*
X82842905Y-117475167D01*
X89794838Y-117475167D01*
X89936883Y-117818943D01*
X90199673Y-118082192D01*
X90543201Y-118224838D01*
X90915167Y-118225162D01*
X91258943Y-118083117D01*
X91522192Y-117820327D01*
X91664838Y-117476799D01*
X91665162Y-117104833D01*
X91523117Y-116761057D01*
X91260327Y-116497808D01*
X90916799Y-116355162D01*
X90544833Y-116354838D01*
X90201057Y-116496883D01*
X89937808Y-116759673D01*
X89795162Y-117103201D01*
X89794838Y-117475167D01*
X82842905Y-117475167D01*
X82713117Y-117161057D01*
X82450327Y-116897808D01*
X82106799Y-116755162D01*
X81734833Y-116754838D01*
X81391057Y-116896883D01*
X81127808Y-117159673D01*
X80985162Y-117503201D01*
X80985105Y-117568683D01*
X80941057Y-117586883D01*
X80677808Y-117849673D01*
X80535162Y-118193201D01*
X80534838Y-118565167D01*
X69957291Y-118565167D01*
X69992192Y-118530327D01*
X70134838Y-118186799D01*
X70135162Y-117814833D01*
X69993117Y-117471057D01*
X69730327Y-117207808D01*
X69386799Y-117065162D01*
X69014833Y-117064838D01*
X68671057Y-117206883D01*
X68407808Y-117469673D01*
X68265162Y-117813201D01*
X68264838Y-118185167D01*
X50785000Y-118185167D01*
X50785000Y-115655167D01*
X72524838Y-115655167D01*
X72666883Y-115998943D01*
X72929673Y-116262192D01*
X73273201Y-116404838D01*
X73645167Y-116405162D01*
X73988943Y-116263117D01*
X74252192Y-116000327D01*
X74300010Y-115885167D01*
X91064838Y-115885167D01*
X91206883Y-116228943D01*
X91469673Y-116492192D01*
X91813201Y-116634838D01*
X92185167Y-116635162D01*
X92190434Y-116632986D01*
X92053508Y-116769673D01*
X91910862Y-117113201D01*
X91910538Y-117485167D01*
X91962849Y-117611769D01*
X91941608Y-117632973D01*
X91798962Y-117976501D01*
X91798638Y-118348467D01*
X91940683Y-118692243D01*
X92203473Y-118955492D01*
X92535066Y-119093182D01*
X92534962Y-119212451D01*
X92530327Y-119207808D01*
X92186799Y-119065162D01*
X91814833Y-119064838D01*
X91471057Y-119206883D01*
X91207808Y-119469673D01*
X91065162Y-119813201D01*
X91064838Y-120185167D01*
X91206883Y-120528943D01*
X91469673Y-120792192D01*
X91813201Y-120934838D01*
X92185167Y-120935162D01*
X92528943Y-120793117D01*
X92792192Y-120530327D01*
X92934838Y-120186799D01*
X92935038Y-119957549D01*
X92939673Y-119962192D01*
X93283201Y-120104838D01*
X93655167Y-120105162D01*
X93998943Y-119963117D01*
X94262192Y-119700327D01*
X94404838Y-119356799D01*
X94405162Y-118984833D01*
X94302003Y-118735167D01*
X100764838Y-118735167D01*
X100906883Y-119078943D01*
X101169673Y-119342192D01*
X101513201Y-119484838D01*
X101885167Y-119485162D01*
X102228943Y-119343117D01*
X102492192Y-119080327D01*
X102634838Y-118736799D01*
X102635162Y-118364833D01*
X102493117Y-118021057D01*
X102230327Y-117757808D01*
X101886799Y-117615162D01*
X101514833Y-117614838D01*
X101171057Y-117756883D01*
X100907808Y-118019673D01*
X100765162Y-118363201D01*
X100764838Y-118735167D01*
X94302003Y-118735167D01*
X94263117Y-118641057D01*
X94000327Y-118377808D01*
X93668734Y-118240118D01*
X93668962Y-117978133D01*
X93616651Y-117851531D01*
X93637892Y-117830327D01*
X93780538Y-117486799D01*
X93780862Y-117114833D01*
X93638817Y-116771057D01*
X93376027Y-116507808D01*
X93032499Y-116365162D01*
X92660533Y-116364838D01*
X92655266Y-116367014D01*
X92792192Y-116230327D01*
X92934838Y-115886799D01*
X92935162Y-115514833D01*
X92793117Y-115171057D01*
X92530327Y-114907808D01*
X92186799Y-114765162D01*
X91814833Y-114764838D01*
X91471057Y-114906883D01*
X91207808Y-115169673D01*
X91065162Y-115513201D01*
X91064838Y-115885167D01*
X74300010Y-115885167D01*
X74394838Y-115656799D01*
X74395162Y-115284833D01*
X74253117Y-114941057D01*
X73990327Y-114677808D01*
X73646799Y-114535162D01*
X73274833Y-114534838D01*
X72931057Y-114676883D01*
X72667808Y-114939673D01*
X72525162Y-115283201D01*
X72524838Y-115655167D01*
X50785000Y-115655167D01*
X50785000Y-114685167D01*
X69364838Y-114685167D01*
X69506883Y-115028943D01*
X69769673Y-115292192D01*
X70113201Y-115434838D01*
X70485167Y-115435162D01*
X70828943Y-115293117D01*
X71092192Y-115030327D01*
X71234838Y-114686799D01*
X71235162Y-114314833D01*
X71144399Y-114095167D01*
X77524838Y-114095167D01*
X77666883Y-114438943D01*
X77929673Y-114702192D01*
X78273201Y-114844838D01*
X78645167Y-114845162D01*
X78988943Y-114703117D01*
X79187238Y-114505167D01*
X96224838Y-114505167D01*
X96366883Y-114848943D01*
X96629673Y-115112192D01*
X96817454Y-115190166D01*
X96737808Y-115269673D01*
X96595162Y-115613201D01*
X96594838Y-115985167D01*
X96736883Y-116328943D01*
X96999673Y-116592192D01*
X97343201Y-116734838D01*
X97715167Y-116735162D01*
X98058943Y-116593117D01*
X98322192Y-116330327D01*
X98464838Y-115986799D01*
X98464909Y-115905167D01*
X99344838Y-115905167D01*
X99486883Y-116248943D01*
X99749673Y-116512192D01*
X100093201Y-116654838D01*
X100465167Y-116655162D01*
X100808943Y-116513117D01*
X101072192Y-116250327D01*
X101132467Y-116105167D01*
X103114838Y-116105167D01*
X103256883Y-116448943D01*
X103519673Y-116712192D01*
X103863201Y-116854838D01*
X104235167Y-116855162D01*
X104578943Y-116713117D01*
X104842192Y-116450327D01*
X104984838Y-116106799D01*
X104985162Y-115734833D01*
X104843117Y-115391057D01*
X104580327Y-115127808D01*
X104477637Y-115085167D01*
X114764838Y-115085167D01*
X114906883Y-115428943D01*
X115169673Y-115692192D01*
X115513201Y-115834838D01*
X115885167Y-115835162D01*
X116228943Y-115693117D01*
X116492192Y-115430327D01*
X116634838Y-115086799D01*
X116635162Y-114714833D01*
X116622905Y-114685167D01*
X125414838Y-114685167D01*
X125556883Y-115028943D01*
X125819673Y-115292192D01*
X126163201Y-115434838D01*
X126535167Y-115435162D01*
X126777173Y-115335167D01*
X128375038Y-115335167D01*
X128517083Y-115678943D01*
X128779873Y-115942192D01*
X129123401Y-116084838D01*
X129495367Y-116085162D01*
X129839143Y-115943117D01*
X130102392Y-115680327D01*
X130245038Y-115336799D01*
X130245362Y-114964833D01*
X130103317Y-114621057D01*
X129840527Y-114357808D01*
X129496999Y-114215162D01*
X129125033Y-114214838D01*
X128781257Y-114356883D01*
X128518008Y-114619673D01*
X128375362Y-114963201D01*
X128375038Y-115335167D01*
X126777173Y-115335167D01*
X126878943Y-115293117D01*
X127142192Y-115030327D01*
X127284838Y-114686799D01*
X127285162Y-114314833D01*
X127143117Y-113971057D01*
X126880327Y-113707808D01*
X126536799Y-113565162D01*
X126164833Y-113564838D01*
X125821057Y-113706883D01*
X125557808Y-113969673D01*
X125415162Y-114313201D01*
X125414838Y-114685167D01*
X116622905Y-114685167D01*
X116493117Y-114371057D01*
X116230327Y-114107808D01*
X115886799Y-113965162D01*
X115514833Y-113964838D01*
X115171057Y-114106883D01*
X114907808Y-114369673D01*
X114765162Y-114713201D01*
X114764838Y-115085167D01*
X104477637Y-115085167D01*
X104236799Y-114985162D01*
X103864833Y-114984838D01*
X103521057Y-115126883D01*
X103257808Y-115389673D01*
X103115162Y-115733201D01*
X103114838Y-116105167D01*
X101132467Y-116105167D01*
X101214838Y-115906799D01*
X101215162Y-115534833D01*
X101073117Y-115191057D01*
X100810327Y-114927808D01*
X100466799Y-114785162D01*
X100094833Y-114784838D01*
X99751057Y-114926883D01*
X99487808Y-115189673D01*
X99345162Y-115533201D01*
X99344838Y-115905167D01*
X98464909Y-115905167D01*
X98465162Y-115614833D01*
X98323117Y-115271057D01*
X98060327Y-115007808D01*
X97872546Y-114929834D01*
X97952192Y-114850327D01*
X98094838Y-114506799D01*
X98095162Y-114134833D01*
X97953117Y-113791057D01*
X97690327Y-113527808D01*
X97346799Y-113385162D01*
X96974833Y-113384838D01*
X96631057Y-113526883D01*
X96367808Y-113789673D01*
X96225162Y-114133201D01*
X96224838Y-114505167D01*
X79187238Y-114505167D01*
X79252192Y-114440327D01*
X79394838Y-114096799D01*
X79395162Y-113724833D01*
X79253117Y-113381057D01*
X78990327Y-113117808D01*
X78887637Y-113075167D01*
X92764838Y-113075167D01*
X92906883Y-113418943D01*
X93169673Y-113682192D01*
X93513201Y-113824838D01*
X93885167Y-113825162D01*
X94228943Y-113683117D01*
X94492192Y-113420327D01*
X94634838Y-113076799D01*
X94635162Y-112704833D01*
X94493117Y-112361057D01*
X94230327Y-112097808D01*
X94199885Y-112085167D01*
X99264838Y-112085167D01*
X99406883Y-112428943D01*
X99669673Y-112692192D01*
X100013201Y-112834838D01*
X100385167Y-112835162D01*
X100728943Y-112693117D01*
X100992192Y-112430327D01*
X101134838Y-112086799D01*
X101135162Y-111714833D01*
X100993117Y-111371057D01*
X100730327Y-111107808D01*
X100386799Y-110965162D01*
X100014833Y-110964838D01*
X99671057Y-111106883D01*
X99407808Y-111369673D01*
X99265162Y-111713201D01*
X99264838Y-112085167D01*
X94199885Y-112085167D01*
X93886799Y-111955162D01*
X93514833Y-111954838D01*
X93171057Y-112096883D01*
X92907808Y-112359673D01*
X92765162Y-112703201D01*
X92764838Y-113075167D01*
X78887637Y-113075167D01*
X78646799Y-112975162D01*
X78274833Y-112974838D01*
X77931057Y-113116883D01*
X77667808Y-113379673D01*
X77525162Y-113723201D01*
X77524838Y-114095167D01*
X71144399Y-114095167D01*
X71093117Y-113971057D01*
X70830327Y-113707808D01*
X70486799Y-113565162D01*
X70114833Y-113564838D01*
X69771057Y-113706883D01*
X69507808Y-113969673D01*
X69365162Y-114313201D01*
X69364838Y-114685167D01*
X50785000Y-114685167D01*
X50785000Y-113505167D01*
X64914838Y-113505167D01*
X65056883Y-113848943D01*
X65319673Y-114112192D01*
X65663201Y-114254838D01*
X66035167Y-114255162D01*
X66378943Y-114113117D01*
X66642192Y-113850327D01*
X66784838Y-113506799D01*
X66785162Y-113134833D01*
X66643117Y-112791057D01*
X66380327Y-112527808D01*
X66036799Y-112385162D01*
X65664833Y-112384838D01*
X65321057Y-112526883D01*
X65057808Y-112789673D01*
X64915162Y-113133201D01*
X64914838Y-113505167D01*
X50785000Y-113505167D01*
X50785000Y-111835167D01*
X61014838Y-111835167D01*
X61156883Y-112178943D01*
X61419673Y-112442192D01*
X61763201Y-112584838D01*
X62135167Y-112585162D01*
X62478943Y-112443117D01*
X62677238Y-112245167D01*
X67414838Y-112245167D01*
X67556883Y-112588943D01*
X67819673Y-112852192D01*
X68163201Y-112994838D01*
X68535167Y-112995162D01*
X68878943Y-112853117D01*
X69142192Y-112590327D01*
X69284838Y-112246799D01*
X69285162Y-111874833D01*
X69154154Y-111557767D01*
X70064038Y-111557767D01*
X70206083Y-111901543D01*
X70468873Y-112164792D01*
X70812401Y-112307438D01*
X71184367Y-112307762D01*
X71190647Y-112305167D01*
X72174838Y-112305167D01*
X72316883Y-112648943D01*
X72579673Y-112912192D01*
X72923201Y-113054838D01*
X73295167Y-113055162D01*
X73638943Y-112913117D01*
X73902192Y-112650327D01*
X74044838Y-112306799D01*
X74045162Y-111934833D01*
X73903117Y-111591057D01*
X73640327Y-111327808D01*
X73296799Y-111185162D01*
X72924833Y-111184838D01*
X72581057Y-111326883D01*
X72317808Y-111589673D01*
X72175162Y-111933201D01*
X72174838Y-112305167D01*
X71190647Y-112305167D01*
X71528143Y-112165717D01*
X71791392Y-111902927D01*
X71934038Y-111559399D01*
X71934362Y-111187433D01*
X71792317Y-110843657D01*
X71529527Y-110580408D01*
X71516906Y-110575167D01*
X76084838Y-110575167D01*
X76226883Y-110918943D01*
X76489673Y-111182192D01*
X76833201Y-111324838D01*
X77205167Y-111325162D01*
X77548943Y-111183117D01*
X77812192Y-110920327D01*
X77843401Y-110845167D01*
X104594838Y-110845167D01*
X104736883Y-111188943D01*
X104999673Y-111452192D01*
X105343201Y-111594838D01*
X105715167Y-111595162D01*
X106058943Y-111453117D01*
X106322192Y-111190327D01*
X106464838Y-110846799D01*
X106465012Y-110647383D01*
X106549673Y-110732192D01*
X106893201Y-110874838D01*
X107265167Y-110875162D01*
X107608943Y-110733117D01*
X107872192Y-110470327D01*
X108014838Y-110126799D01*
X108015162Y-109754833D01*
X107934852Y-109560467D01*
X126255638Y-109560467D01*
X126397683Y-109904243D01*
X126660473Y-110167492D01*
X127004001Y-110310138D01*
X127375967Y-110310462D01*
X127719743Y-110168417D01*
X127982992Y-109905627D01*
X128125638Y-109562099D01*
X128125962Y-109190133D01*
X127983917Y-108846357D01*
X127721127Y-108583108D01*
X127377599Y-108440462D01*
X127005633Y-108440138D01*
X126661857Y-108582183D01*
X126398608Y-108844973D01*
X126255962Y-109188501D01*
X126255638Y-109560467D01*
X107934852Y-109560467D01*
X107873117Y-109411057D01*
X107610327Y-109147808D01*
X107266799Y-109005162D01*
X107006941Y-109004936D01*
X106873117Y-108681057D01*
X106814829Y-108622667D01*
X120356138Y-108622667D01*
X120498183Y-108966443D01*
X120760973Y-109229692D01*
X121104501Y-109372338D01*
X121476467Y-109372662D01*
X121820243Y-109230617D01*
X122083492Y-108967827D01*
X122226138Y-108624299D01*
X122226462Y-108252333D01*
X122084417Y-107908557D01*
X121966234Y-107790167D01*
X122869638Y-107790167D01*
X123011683Y-108133943D01*
X123274473Y-108397192D01*
X123618001Y-108539838D01*
X123989967Y-108540162D01*
X124333743Y-108398117D01*
X124596992Y-108135327D01*
X124739638Y-107791799D01*
X124739962Y-107419833D01*
X124597917Y-107076057D01*
X124335127Y-106812808D01*
X123991599Y-106670162D01*
X123619633Y-106669838D01*
X123275857Y-106811883D01*
X123012608Y-107074673D01*
X122869962Y-107418201D01*
X122869638Y-107790167D01*
X121966234Y-107790167D01*
X121821627Y-107645308D01*
X121478099Y-107502662D01*
X121106133Y-107502338D01*
X120762357Y-107644383D01*
X120499108Y-107907173D01*
X120356462Y-108250701D01*
X120356138Y-108622667D01*
X106814829Y-108622667D01*
X106610327Y-108417808D01*
X106266799Y-108275162D01*
X105894833Y-108274838D01*
X105551057Y-108416883D01*
X105287808Y-108679673D01*
X105145162Y-109023201D01*
X105144838Y-109395167D01*
X105286883Y-109738943D01*
X105293837Y-109745909D01*
X105001057Y-109866883D01*
X104737808Y-110129673D01*
X104595162Y-110473201D01*
X104594838Y-110845167D01*
X77843401Y-110845167D01*
X77954838Y-110576799D01*
X77955162Y-110204833D01*
X77813117Y-109861057D01*
X77550327Y-109597808D01*
X77206799Y-109455162D01*
X76834833Y-109454838D01*
X76491057Y-109596883D01*
X76227808Y-109859673D01*
X76085162Y-110203201D01*
X76084838Y-110575167D01*
X71516906Y-110575167D01*
X71185999Y-110437762D01*
X70814033Y-110437438D01*
X70470257Y-110579483D01*
X70207008Y-110842273D01*
X70064362Y-111185801D01*
X70064038Y-111557767D01*
X69154154Y-111557767D01*
X69143117Y-111531057D01*
X68880327Y-111267808D01*
X68536799Y-111125162D01*
X68164833Y-111124838D01*
X67821057Y-111266883D01*
X67557808Y-111529673D01*
X67415162Y-111873201D01*
X67414838Y-112245167D01*
X62677238Y-112245167D01*
X62742192Y-112180327D01*
X62884838Y-111836799D01*
X62885162Y-111464833D01*
X62743117Y-111121057D01*
X62480327Y-110857808D01*
X62136799Y-110715162D01*
X61764833Y-110714838D01*
X61421057Y-110856883D01*
X61157808Y-111119673D01*
X61015162Y-111463201D01*
X61014838Y-111835167D01*
X50785000Y-111835167D01*
X50785000Y-108685167D01*
X55864838Y-108685167D01*
X56006883Y-109028943D01*
X56269673Y-109292192D01*
X56613201Y-109434838D01*
X56985167Y-109435162D01*
X57328943Y-109293117D01*
X57592192Y-109030327D01*
X57605961Y-108997167D01*
X70119838Y-108997167D01*
X70261883Y-109340943D01*
X70524673Y-109604192D01*
X70868201Y-109746838D01*
X71240167Y-109747162D01*
X71583943Y-109605117D01*
X71824312Y-109365167D01*
X79224838Y-109365167D01*
X79366883Y-109708943D01*
X79629673Y-109972192D01*
X79973201Y-110114838D01*
X80345167Y-110115162D01*
X80688943Y-109973117D01*
X80952192Y-109710327D01*
X81094838Y-109366799D01*
X81095162Y-108994833D01*
X80953117Y-108651057D01*
X80690327Y-108387808D01*
X80346799Y-108245162D01*
X79974833Y-108244838D01*
X79631057Y-108386883D01*
X79367808Y-108649673D01*
X79225162Y-108993201D01*
X79224838Y-109365167D01*
X71824312Y-109365167D01*
X71847192Y-109342327D01*
X71989838Y-108998799D01*
X71990162Y-108626833D01*
X71848117Y-108283057D01*
X71585327Y-108019808D01*
X71241799Y-107877162D01*
X70869833Y-107876838D01*
X70526057Y-108018883D01*
X70262808Y-108281673D01*
X70120162Y-108625201D01*
X70119838Y-108997167D01*
X57605961Y-108997167D01*
X57734838Y-108686799D01*
X57735162Y-108314833D01*
X57593117Y-107971057D01*
X57330327Y-107707808D01*
X56986799Y-107565162D01*
X56614833Y-107564838D01*
X56271057Y-107706883D01*
X56007808Y-107969673D01*
X55865162Y-108313201D01*
X55864838Y-108685167D01*
X50785000Y-108685167D01*
X50785000Y-106985167D01*
X68064838Y-106985167D01*
X68206883Y-107328943D01*
X68469673Y-107592192D01*
X68813201Y-107734838D01*
X69185167Y-107735162D01*
X69281962Y-107695167D01*
X74304838Y-107695167D01*
X74446883Y-108038943D01*
X74709673Y-108302192D01*
X75053201Y-108444838D01*
X75425167Y-108445162D01*
X75768943Y-108303117D01*
X76032192Y-108040327D01*
X76157174Y-107739339D01*
X76359673Y-107942192D01*
X76703201Y-108084838D01*
X77075167Y-108085162D01*
X77418943Y-107943117D01*
X77577168Y-107785167D01*
X114264838Y-107785167D01*
X114406883Y-108128943D01*
X114669673Y-108392192D01*
X115013201Y-108534838D01*
X115385167Y-108535162D01*
X115728943Y-108393117D01*
X115992192Y-108130327D01*
X116134838Y-107786799D01*
X116135162Y-107414833D01*
X115993117Y-107071057D01*
X115730327Y-106807808D01*
X115386799Y-106665162D01*
X115014833Y-106664838D01*
X114671057Y-106806883D01*
X114407808Y-107069673D01*
X114265162Y-107413201D01*
X114264838Y-107785167D01*
X77577168Y-107785167D01*
X77682192Y-107680327D01*
X77824838Y-107336799D01*
X77825162Y-106964833D01*
X77683117Y-106621057D01*
X77447639Y-106385167D01*
X88580038Y-106385167D01*
X88722083Y-106728943D01*
X88984873Y-106992192D01*
X89328401Y-107134838D01*
X89700367Y-107135162D01*
X90044143Y-106993117D01*
X90307392Y-106730327D01*
X90351058Y-106625167D01*
X94994838Y-106625167D01*
X95136883Y-106968943D01*
X95399673Y-107232192D01*
X95743201Y-107374838D01*
X96115167Y-107375162D01*
X96458943Y-107233117D01*
X96722192Y-106970327D01*
X96864838Y-106626799D01*
X96865162Y-106254833D01*
X96723117Y-105911057D01*
X96460327Y-105647808D01*
X96116799Y-105505162D01*
X95744833Y-105504838D01*
X95401057Y-105646883D01*
X95137808Y-105909673D01*
X94995162Y-106253201D01*
X94994838Y-106625167D01*
X90351058Y-106625167D01*
X90450038Y-106386799D01*
X90450362Y-106014833D01*
X90308317Y-105671057D01*
X90045527Y-105407808D01*
X89701999Y-105265162D01*
X89330033Y-105264838D01*
X88986257Y-105406883D01*
X88723008Y-105669673D01*
X88580362Y-106013201D01*
X88580038Y-106385167D01*
X77447639Y-106385167D01*
X77420327Y-106357808D01*
X77076799Y-106215162D01*
X76704833Y-106214838D01*
X76361057Y-106356883D01*
X76097808Y-106619673D01*
X75972826Y-106920661D01*
X75770327Y-106717808D01*
X75426799Y-106575162D01*
X75054833Y-106574838D01*
X74711057Y-106716883D01*
X74447808Y-106979673D01*
X74305162Y-107323201D01*
X74304838Y-107695167D01*
X69281962Y-107695167D01*
X69528943Y-107593117D01*
X69792192Y-107330327D01*
X69934838Y-106986799D01*
X69935162Y-106614833D01*
X69793117Y-106271057D01*
X69707377Y-106185167D01*
X72664838Y-106185167D01*
X72806883Y-106528943D01*
X73069673Y-106792192D01*
X73413201Y-106934838D01*
X73785167Y-106935162D01*
X74128943Y-106793117D01*
X74392192Y-106530327D01*
X74534838Y-106186799D01*
X74535162Y-105814833D01*
X74393117Y-105471057D01*
X74130327Y-105207808D01*
X73786799Y-105065162D01*
X73414833Y-105064838D01*
X73071057Y-105206883D01*
X72807808Y-105469673D01*
X72665162Y-105813201D01*
X72664838Y-106185167D01*
X69707377Y-106185167D01*
X69530327Y-106007808D01*
X69186799Y-105865162D01*
X68814833Y-105864838D01*
X68471057Y-106006883D01*
X68207808Y-106269673D01*
X68065162Y-106613201D01*
X68064838Y-106985167D01*
X50785000Y-106985167D01*
X50785000Y-105485167D01*
X55964838Y-105485167D01*
X56106883Y-105828943D01*
X56369673Y-106092192D01*
X56713201Y-106234838D01*
X57085167Y-106235162D01*
X57428943Y-106093117D01*
X57692192Y-105830327D01*
X57752467Y-105685167D01*
X63864838Y-105685167D01*
X64006883Y-106028943D01*
X64269673Y-106292192D01*
X64613201Y-106434838D01*
X64985167Y-106435162D01*
X65328943Y-106293117D01*
X65592192Y-106030327D01*
X65734838Y-105686799D01*
X65735162Y-105314833D01*
X65593117Y-104971057D01*
X65437499Y-104815167D01*
X95534838Y-104815167D01*
X95676883Y-105158943D01*
X95939673Y-105422192D01*
X96283201Y-105564838D01*
X96655167Y-105565162D01*
X96998943Y-105423117D01*
X97262192Y-105160327D01*
X97404838Y-104816799D01*
X97405162Y-104444833D01*
X97263117Y-104101057D01*
X97000327Y-103837808D01*
X96656799Y-103695162D01*
X96284833Y-103694838D01*
X95941057Y-103836883D01*
X95677808Y-104099673D01*
X95535162Y-104443201D01*
X95534838Y-104815167D01*
X65437499Y-104815167D01*
X65330327Y-104707808D01*
X64986799Y-104565162D01*
X64614833Y-104564838D01*
X64271057Y-104706883D01*
X64007808Y-104969673D01*
X63865162Y-105313201D01*
X63864838Y-105685167D01*
X57752467Y-105685167D01*
X57834838Y-105486799D01*
X57835162Y-105114833D01*
X57693117Y-104771057D01*
X57430327Y-104507808D01*
X57086799Y-104365162D01*
X56714833Y-104364838D01*
X56371057Y-104506883D01*
X56107808Y-104769673D01*
X55965162Y-105113201D01*
X55964838Y-105485167D01*
X50785000Y-105485167D01*
X50785000Y-103085167D01*
X50864838Y-103085167D01*
X51006883Y-103428943D01*
X51269673Y-103692192D01*
X51613201Y-103834838D01*
X51985167Y-103835162D01*
X52328943Y-103693117D01*
X52592192Y-103430327D01*
X52734838Y-103086799D01*
X52735162Y-102714833D01*
X52593117Y-102371057D01*
X52330327Y-102107808D01*
X51986799Y-101965162D01*
X51614833Y-101964838D01*
X51271057Y-102106883D01*
X51007808Y-102369673D01*
X50865162Y-102713201D01*
X50864838Y-103085167D01*
X50785000Y-103085167D01*
X50785000Y-100000000D01*
X51965000Y-100000000D01*
X52119905Y-100778761D01*
X52561038Y-101438962D01*
X53221239Y-101880095D01*
X54000000Y-102035000D01*
X54778761Y-101880095D01*
X55438962Y-101438962D01*
X55877113Y-100783223D01*
X58553035Y-100783223D01*
X58580222Y-101353454D01*
X58746136Y-101754005D01*
X58992255Y-101828139D01*
X59820395Y-101000000D01*
X58992255Y-100171861D01*
X58746136Y-100245995D01*
X58553035Y-100783223D01*
X55877113Y-100783223D01*
X55880095Y-100778761D01*
X56035000Y-100000000D01*
X55880095Y-99221239D01*
X55438962Y-98561038D01*
X54778761Y-98119905D01*
X54000000Y-97965000D01*
X53221239Y-98119905D01*
X52561038Y-98561038D01*
X52119905Y-99221239D01*
X51965000Y-100000000D01*
X50785000Y-100000000D01*
X50785000Y-97945167D01*
X57184838Y-97945167D01*
X57326883Y-98288943D01*
X57589673Y-98552192D01*
X57933201Y-98694838D01*
X58305167Y-98695162D01*
X58633442Y-98559522D01*
X58553035Y-98783223D01*
X58580222Y-99353454D01*
X58746136Y-99754005D01*
X58992255Y-99828139D01*
X59820395Y-99000000D01*
X59806252Y-98985858D01*
X59985858Y-98806252D01*
X60000000Y-98820395D01*
X60014142Y-98806252D01*
X60193748Y-98985858D01*
X60179605Y-99000000D01*
X60193748Y-99014142D01*
X60014142Y-99193748D01*
X60000000Y-99179605D01*
X59566034Y-99613571D01*
X59245995Y-99746136D01*
X59171861Y-99992255D01*
X59179606Y-100000000D01*
X59171861Y-100007745D01*
X59245995Y-100253864D01*
X59538668Y-100359062D01*
X60000000Y-100820395D01*
X60014143Y-100806253D01*
X60193748Y-100985858D01*
X60179605Y-101000000D01*
X60193748Y-101014142D01*
X60014142Y-101193748D01*
X60000000Y-101179605D01*
X59171861Y-102007745D01*
X59245995Y-102253864D01*
X59783223Y-102446965D01*
X60353454Y-102419778D01*
X60754005Y-102253864D01*
X60828139Y-102007747D01*
X60943014Y-102122622D01*
X61018091Y-102047545D01*
X61186077Y-102215824D01*
X61713309Y-102434750D01*
X62284187Y-102435248D01*
X62811800Y-102217243D01*
X62999974Y-102029397D01*
X63186077Y-102215824D01*
X63713309Y-102434750D01*
X64284187Y-102435248D01*
X64811800Y-102217243D01*
X64999974Y-102029397D01*
X65186077Y-102215824D01*
X65713309Y-102434750D01*
X66284187Y-102435248D01*
X66811800Y-102217243D01*
X66999974Y-102029397D01*
X67186077Y-102215824D01*
X67713309Y-102434750D01*
X68284187Y-102435248D01*
X68811800Y-102217243D01*
X68999974Y-102029397D01*
X69186077Y-102215824D01*
X69713309Y-102434750D01*
X70284187Y-102435248D01*
X70538169Y-102330305D01*
X70441462Y-102563201D01*
X70441138Y-102935167D01*
X70583183Y-103278943D01*
X70845973Y-103542192D01*
X71189501Y-103684838D01*
X71561467Y-103685162D01*
X71905243Y-103543117D01*
X72168492Y-103280327D01*
X72311138Y-102936799D01*
X72311462Y-102564833D01*
X72257909Y-102435225D01*
X72284187Y-102435248D01*
X72811800Y-102217243D01*
X72999974Y-102029397D01*
X73186077Y-102215824D01*
X73713309Y-102434750D01*
X74284187Y-102435248D01*
X74811800Y-102217243D01*
X74999974Y-102029397D01*
X75186077Y-102215824D01*
X75713309Y-102434750D01*
X76284187Y-102435248D01*
X76811800Y-102217243D01*
X76999974Y-102029397D01*
X77186077Y-102215824D01*
X77713309Y-102434750D01*
X78284187Y-102435248D01*
X78811800Y-102217243D01*
X78999974Y-102029397D01*
X79186077Y-102215824D01*
X79713309Y-102434750D01*
X80284187Y-102435248D01*
X80811800Y-102217243D01*
X80999974Y-102029397D01*
X81186077Y-102215824D01*
X81713309Y-102434750D01*
X82284187Y-102435248D01*
X82811800Y-102217243D01*
X82999974Y-102029397D01*
X83186077Y-102215824D01*
X83381014Y-102296769D01*
X83207808Y-102469673D01*
X83065162Y-102813201D01*
X83064838Y-103185167D01*
X83206883Y-103528943D01*
X83469673Y-103792192D01*
X83813201Y-103934838D01*
X84185167Y-103935162D01*
X84528943Y-103793117D01*
X84792192Y-103530327D01*
X84934838Y-103186799D01*
X84935162Y-102814833D01*
X84793117Y-102471057D01*
X84619191Y-102296827D01*
X84811800Y-102217243D01*
X84999974Y-102029397D01*
X85186077Y-102215824D01*
X85713309Y-102434750D01*
X86284187Y-102435248D01*
X86811800Y-102217243D01*
X86999974Y-102029397D01*
X87186077Y-102215824D01*
X87713309Y-102434750D01*
X88284187Y-102435248D01*
X88811800Y-102217243D01*
X88999974Y-102029397D01*
X89186077Y-102215824D01*
X89713309Y-102434750D01*
X90284187Y-102435248D01*
X90811800Y-102217243D01*
X90999974Y-102029397D01*
X91186077Y-102215824D01*
X91713309Y-102434750D01*
X92284187Y-102435248D01*
X92811800Y-102217243D01*
X92999974Y-102029397D01*
X93186077Y-102215824D01*
X93713309Y-102434750D01*
X94284187Y-102435248D01*
X94811800Y-102217243D01*
X94999974Y-102029397D01*
X95186077Y-102215824D01*
X95713309Y-102434750D01*
X95801854Y-102434827D01*
X95766362Y-102520301D01*
X95766038Y-102892267D01*
X95908083Y-103236043D01*
X96170873Y-103499292D01*
X96514401Y-103641938D01*
X96886367Y-103642262D01*
X97230143Y-103500217D01*
X97493392Y-103237427D01*
X97557765Y-103082400D01*
X97634960Y-103082400D01*
X97634960Y-105317600D01*
X97679238Y-105552917D01*
X97818310Y-105769041D01*
X98030510Y-105914031D01*
X98282400Y-105965040D01*
X100517600Y-105965040D01*
X100752917Y-105920762D01*
X100969041Y-105781690D01*
X101114031Y-105569490D01*
X101149448Y-105394596D01*
X101179238Y-105552917D01*
X101318310Y-105769041D01*
X101530510Y-105914031D01*
X101595926Y-105927278D01*
X101585162Y-105953201D01*
X101584838Y-106325167D01*
X101726883Y-106668943D01*
X101989673Y-106932192D01*
X102333201Y-107074838D01*
X102705167Y-107075162D01*
X103048943Y-106933117D01*
X103312192Y-106670327D01*
X103454838Y-106326799D01*
X103455153Y-105965040D01*
X104017600Y-105965040D01*
X104252917Y-105920762D01*
X104469041Y-105781690D01*
X104614031Y-105569490D01*
X104649448Y-105394596D01*
X104679238Y-105552917D01*
X104818310Y-105769041D01*
X105030510Y-105914031D01*
X105282400Y-105965040D01*
X107517600Y-105965040D01*
X107752917Y-105920762D01*
X107969041Y-105781690D01*
X108114031Y-105569490D01*
X108165040Y-105317600D01*
X108165040Y-104345167D01*
X108204838Y-104345167D01*
X108346883Y-104688943D01*
X108609673Y-104952192D01*
X108953201Y-105094838D01*
X109095073Y-105094962D01*
X109094838Y-105365167D01*
X109236883Y-105708943D01*
X109499673Y-105972192D01*
X109843201Y-106114838D01*
X110215167Y-106115162D01*
X110558943Y-105973117D01*
X110822192Y-105710327D01*
X110964838Y-105366799D01*
X110965162Y-104994833D01*
X110823117Y-104651057D01*
X110560327Y-104387808D01*
X110216799Y-104245162D01*
X110074927Y-104245038D01*
X110075162Y-103974833D01*
X109933117Y-103631057D01*
X109670327Y-103367808D01*
X109326799Y-103225162D01*
X108954833Y-103224838D01*
X108611057Y-103366883D01*
X108347808Y-103629673D01*
X108205162Y-103973201D01*
X108204838Y-104345167D01*
X108165040Y-104345167D01*
X108165040Y-103082400D01*
X108120762Y-102847083D01*
X107981690Y-102630959D01*
X107769490Y-102485969D01*
X107517600Y-102434960D01*
X105282400Y-102434960D01*
X105047083Y-102479238D01*
X104830959Y-102618310D01*
X104685969Y-102830510D01*
X104650552Y-103005404D01*
X104620762Y-102847083D01*
X104481690Y-102630959D01*
X104269490Y-102485969D01*
X104017600Y-102434960D01*
X101782400Y-102434960D01*
X101547083Y-102479238D01*
X101330959Y-102618310D01*
X101185969Y-102830510D01*
X101150552Y-103005404D01*
X101120762Y-102847083D01*
X100981690Y-102630959D01*
X100769490Y-102485969D01*
X100517600Y-102434960D01*
X98282400Y-102434960D01*
X98047083Y-102479238D01*
X97830959Y-102618310D01*
X97685969Y-102830510D01*
X97634960Y-103082400D01*
X97557765Y-103082400D01*
X97636038Y-102893899D01*
X97636362Y-102521933D01*
X97574367Y-102371894D01*
X97783223Y-102446965D01*
X98353454Y-102419778D01*
X98754005Y-102253864D01*
X98828139Y-102007745D01*
X98000000Y-101179605D01*
X97985858Y-101193748D01*
X97806253Y-101014143D01*
X97820395Y-101000000D01*
X97806252Y-100985858D01*
X97985858Y-100806252D01*
X98000000Y-100820395D01*
X98014143Y-100806253D01*
X98193748Y-100985858D01*
X98179605Y-101000000D01*
X99007745Y-101828139D01*
X99253864Y-101754005D01*
X99398125Y-101352655D01*
X99595801Y-101434738D01*
X99967767Y-101435062D01*
X100311543Y-101293017D01*
X100574792Y-101030227D01*
X100717438Y-100686699D01*
X100717718Y-100365583D01*
X100808467Y-100365662D01*
X101051684Y-100265167D01*
X103084838Y-100265167D01*
X103226883Y-100608943D01*
X103489673Y-100872192D01*
X103833201Y-101014838D01*
X104205167Y-101015162D01*
X104548943Y-100873117D01*
X104812192Y-100610327D01*
X104864163Y-100485167D01*
X106964838Y-100485167D01*
X107106883Y-100828943D01*
X107369673Y-101092192D01*
X107713201Y-101234838D01*
X108085167Y-101235162D01*
X108428943Y-101093117D01*
X108692192Y-100830327D01*
X108834838Y-100486799D01*
X108835100Y-100185750D01*
X124347400Y-100185750D01*
X124347400Y-101143910D01*
X124444073Y-101377299D01*
X124622702Y-101555927D01*
X124856091Y-101652600D01*
X125814250Y-101652600D01*
X125973000Y-101493850D01*
X125973000Y-100027000D01*
X126227000Y-100027000D01*
X126227000Y-101493850D01*
X126385750Y-101652600D01*
X127343909Y-101652600D01*
X127577298Y-101555927D01*
X127755927Y-101377299D01*
X127852600Y-101143910D01*
X127852600Y-100185750D01*
X127693850Y-100027000D01*
X126227000Y-100027000D01*
X125973000Y-100027000D01*
X124506150Y-100027000D01*
X124347400Y-100185750D01*
X108835100Y-100185750D01*
X108835162Y-100114833D01*
X108787715Y-100000000D01*
X128965000Y-100000000D01*
X129119905Y-100778761D01*
X129561038Y-101438962D01*
X130221239Y-101880095D01*
X131000000Y-102035000D01*
X131778761Y-101880095D01*
X132438962Y-101438962D01*
X132880095Y-100778761D01*
X133035000Y-100000000D01*
X132880095Y-99221239D01*
X132438962Y-98561038D01*
X131778761Y-98119905D01*
X131000000Y-97965000D01*
X130221239Y-98119905D01*
X129561038Y-98561038D01*
X129119905Y-99221239D01*
X128965000Y-100000000D01*
X108787715Y-100000000D01*
X108693117Y-99771057D01*
X108430327Y-99507808D01*
X108086799Y-99365162D01*
X107714833Y-99364838D01*
X107371057Y-99506883D01*
X107107808Y-99769673D01*
X106965162Y-100113201D01*
X106964838Y-100485167D01*
X104864163Y-100485167D01*
X104954838Y-100266799D01*
X104955162Y-99894833D01*
X104813117Y-99551057D01*
X104550327Y-99287808D01*
X104206799Y-99145162D01*
X103834833Y-99144838D01*
X103491057Y-99286883D01*
X103227808Y-99549673D01*
X103085162Y-99893201D01*
X103084838Y-100265167D01*
X101051684Y-100265167D01*
X101152243Y-100223617D01*
X101415492Y-99960827D01*
X101558138Y-99617299D01*
X101558462Y-99245333D01*
X101416417Y-98901557D01*
X101153627Y-98638308D01*
X100810099Y-98495662D01*
X100438133Y-98495338D01*
X100094357Y-98637383D01*
X99831108Y-98900173D01*
X99688462Y-99243701D01*
X99688182Y-99564817D01*
X99597433Y-99564738D01*
X99273834Y-99698446D01*
X99446965Y-99216777D01*
X99419778Y-98646546D01*
X99253864Y-98245995D01*
X99007745Y-98171861D01*
X98179605Y-99000000D01*
X98193748Y-99014142D01*
X98014142Y-99193748D01*
X98000000Y-99179605D01*
X97985858Y-99193748D01*
X97806253Y-99014143D01*
X97820395Y-99000000D01*
X97806252Y-98985858D01*
X97985858Y-98806252D01*
X98000000Y-98820395D01*
X98828139Y-97992255D01*
X98754005Y-97746136D01*
X98216777Y-97553035D01*
X97646546Y-97580222D01*
X97245995Y-97746136D01*
X97171861Y-97992253D01*
X97056986Y-97877378D01*
X96981909Y-97952455D01*
X96813923Y-97784176D01*
X96286691Y-97565250D01*
X95715813Y-97564752D01*
X95188200Y-97782757D01*
X95000026Y-97970603D01*
X94813923Y-97784176D01*
X94286691Y-97565250D01*
X93715813Y-97564752D01*
X93188200Y-97782757D01*
X93000026Y-97970603D01*
X92813923Y-97784176D01*
X92286691Y-97565250D01*
X91715813Y-97564752D01*
X91188200Y-97782757D01*
X91000026Y-97970603D01*
X90813923Y-97784176D01*
X90286691Y-97565250D01*
X89715813Y-97564752D01*
X89188200Y-97782757D01*
X89000026Y-97970603D01*
X88813923Y-97784176D01*
X88286691Y-97565250D01*
X87715813Y-97564752D01*
X87188200Y-97782757D01*
X87000026Y-97970603D01*
X86813923Y-97784176D01*
X86286691Y-97565250D01*
X85715813Y-97564752D01*
X85188200Y-97782757D01*
X85000026Y-97970603D01*
X84813923Y-97784176D01*
X84286691Y-97565250D01*
X83715813Y-97564752D01*
X83188200Y-97782757D01*
X83000026Y-97970603D01*
X82813923Y-97784176D01*
X82286691Y-97565250D01*
X81715813Y-97564752D01*
X81188200Y-97782757D01*
X81000026Y-97970603D01*
X80813923Y-97784176D01*
X80286691Y-97565250D01*
X79715813Y-97564752D01*
X79188200Y-97782757D01*
X79000026Y-97970603D01*
X78813923Y-97784176D01*
X78286691Y-97565250D01*
X77715813Y-97564752D01*
X77188200Y-97782757D01*
X77000026Y-97970603D01*
X76813923Y-97784176D01*
X76286691Y-97565250D01*
X75715813Y-97564752D01*
X75188200Y-97782757D01*
X75000026Y-97970603D01*
X74813923Y-97784176D01*
X74286691Y-97565250D01*
X73715813Y-97564752D01*
X73188200Y-97782757D01*
X73000026Y-97970603D01*
X72813923Y-97784176D01*
X72286691Y-97565250D01*
X71715813Y-97564752D01*
X71188200Y-97782757D01*
X71000026Y-97970603D01*
X70813923Y-97784176D01*
X70286691Y-97565250D01*
X69715813Y-97564752D01*
X69188200Y-97782757D01*
X69000026Y-97970603D01*
X68813923Y-97784176D01*
X68286691Y-97565250D01*
X67715813Y-97564752D01*
X67188200Y-97782757D01*
X67000026Y-97970603D01*
X66813923Y-97784176D01*
X66286691Y-97565250D01*
X65715813Y-97564752D01*
X65188200Y-97782757D01*
X65000026Y-97970603D01*
X64813923Y-97784176D01*
X64286691Y-97565250D01*
X63715813Y-97564752D01*
X63188200Y-97782757D01*
X63000026Y-97970603D01*
X62813923Y-97784176D01*
X62286691Y-97565250D01*
X61715813Y-97564752D01*
X61188200Y-97782757D01*
X61018148Y-97952512D01*
X60943014Y-97877378D01*
X60828139Y-97992253D01*
X60754005Y-97746136D01*
X60216777Y-97553035D01*
X59646546Y-97580222D01*
X59245995Y-97746136D01*
X59171861Y-97992253D01*
X59056986Y-97877378D01*
X59054897Y-97879467D01*
X59055162Y-97574833D01*
X58913117Y-97231057D01*
X58650327Y-96967808D01*
X58306799Y-96825162D01*
X57934833Y-96824838D01*
X57591057Y-96966883D01*
X57327808Y-97229673D01*
X57185162Y-97573201D01*
X57184838Y-97945167D01*
X50785000Y-97945167D01*
X50785000Y-96785000D01*
X108326917Y-96785000D01*
X108191308Y-96920373D01*
X108191308Y-96920373D01*
G37*
X108191308Y-96920373D02*
X108048662Y-97263901D01*
X108048338Y-97635867D01*
X108190383Y-97979643D01*
X108453173Y-98242892D01*
X108796701Y-98385538D01*
X109168667Y-98385862D01*
X109253603Y-98350767D01*
X114249238Y-98350767D01*
X114391283Y-98694543D01*
X114654073Y-98957792D01*
X114997601Y-99100438D01*
X115369567Y-99100762D01*
X115713343Y-98958717D01*
X115976592Y-98695927D01*
X115993133Y-98656090D01*
X124347400Y-98656090D01*
X124347400Y-99614250D01*
X124506150Y-99773000D01*
X125973000Y-99773000D01*
X125973000Y-98306150D01*
X126227000Y-98306150D01*
X126227000Y-99773000D01*
X127693850Y-99773000D01*
X127852600Y-99614250D01*
X127852600Y-98656090D01*
X127755927Y-98422701D01*
X127577298Y-98244073D01*
X127343909Y-98147400D01*
X126385750Y-98147400D01*
X126227000Y-98306150D01*
X125973000Y-98306150D01*
X125814250Y-98147400D01*
X124856091Y-98147400D01*
X124622702Y-98244073D01*
X124444073Y-98422701D01*
X124347400Y-98656090D01*
X115993133Y-98656090D01*
X116119238Y-98352399D01*
X116119562Y-97980433D01*
X115977517Y-97636657D01*
X115714727Y-97373408D01*
X115371199Y-97230762D01*
X114999233Y-97230438D01*
X114655457Y-97372483D01*
X114392208Y-97635273D01*
X114249562Y-97978801D01*
X114249238Y-98350767D01*
X109253603Y-98350767D01*
X109512443Y-98243817D01*
X109775692Y-97981027D01*
X109918338Y-97637499D01*
X109918662Y-97265533D01*
X109776617Y-96921757D01*
X109640098Y-96785000D01*
X118860392Y-96785000D01*
X118624608Y-97020373D01*
X118481962Y-97363901D01*
X118481638Y-97735867D01*
X118623683Y-98079643D01*
X118886473Y-98342892D01*
X119230001Y-98485538D01*
X119601967Y-98485862D01*
X119945743Y-98343817D01*
X120208992Y-98081027D01*
X120351638Y-97737499D01*
X120351962Y-97365533D01*
X120209917Y-97021757D01*
X119973573Y-96785000D01*
X134215000Y-96785000D01*
X134215000Y-149215000D01*
X67612590Y-149215000D01*
X67680000Y-149007000D01*
X67680000Y-148677000D01*
X66727000Y-148677000D01*
X66727000Y-148697000D01*
X66473000Y-148697000D01*
X66473000Y-148677000D01*
X65520000Y-148677000D01*
X65520000Y-149007000D01*
X65587410Y-149215000D01*
X60612590Y-149215000D01*
X60680000Y-149007000D01*
X60680000Y-148677000D01*
X59727000Y-148677000D01*
X59727000Y-148697000D01*
X59473000Y-148697000D01*
X59473000Y-148677000D01*
X58520000Y-148677000D01*
X58520000Y-149007000D01*
X58587410Y-149215000D01*
X53952600Y-149215000D01*
X53952600Y-148385750D01*
X53793850Y-148227000D01*
X52327000Y-148227000D01*
X52327000Y-148247000D01*
X52073000Y-148247000D01*
X52073000Y-148227000D01*
X52053000Y-148227000D01*
X52053000Y-147973000D01*
X52073000Y-147973000D01*
X52073000Y-146506150D01*
X52327000Y-146506150D01*
X52327000Y-147973000D01*
X53793850Y-147973000D01*
X53952600Y-147814250D01*
X53952600Y-147185167D01*
X57064838Y-147185167D01*
X57206883Y-147528943D01*
X57469673Y-147792192D01*
X57813201Y-147934838D01*
X58185167Y-147935162D01*
X58528943Y-147793117D01*
X58753500Y-147568951D01*
X58650811Y-147689369D01*
X58520000Y-148093000D01*
X58520000Y-148423000D01*
X59473000Y-148423000D01*
X59473000Y-147307546D01*
X59727000Y-147307546D01*
X59727000Y-148423000D01*
X60680000Y-148423000D01*
X60680000Y-148093000D01*
X65520000Y-148093000D01*
X65520000Y-148423000D01*
X66473000Y-148423000D01*
X66473000Y-147307546D01*
X66727000Y-147307546D01*
X66727000Y-148423000D01*
X67680000Y-148423000D01*
X67680000Y-148093000D01*
X67549189Y-147689369D01*
X67273873Y-147366522D01*
X66893213Y-147180565D01*
X66727000Y-147307546D01*
X66473000Y-147307546D01*
X66306787Y-147180565D01*
X65926127Y-147366522D01*
X65650811Y-147689369D01*
X65520000Y-148093000D01*
X60680000Y-148093000D01*
X60549189Y-147689369D01*
X60273873Y-147366522D01*
X59893213Y-147180565D01*
X59727000Y-147307546D01*
X59473000Y-147307546D01*
X59306787Y-147180565D01*
X58926127Y-147366522D01*
X58797653Y-147517176D01*
X58934838Y-147186799D01*
X58934926Y-147085167D01*
X78414838Y-147085167D01*
X78556883Y-147428943D01*
X78819673Y-147692192D01*
X79163201Y-147834838D01*
X79535167Y-147835162D01*
X79878943Y-147693117D01*
X80142192Y-147430327D01*
X80284838Y-147086799D01*
X80285162Y-146714833D01*
X80143117Y-146371057D01*
X79880327Y-146107808D01*
X79705389Y-146035167D01*
X128674838Y-146035167D01*
X128816883Y-146378943D01*
X129079673Y-146642192D01*
X129423201Y-146784838D01*
X129795167Y-146785162D01*
X130138943Y-146643117D01*
X130402192Y-146380327D01*
X130544838Y-146036799D01*
X130545162Y-145664833D01*
X130403117Y-145321057D01*
X130140327Y-145057808D01*
X129796799Y-144915162D01*
X129424833Y-144914838D01*
X129081057Y-145056883D01*
X128817808Y-145319673D01*
X128675162Y-145663201D01*
X128674838Y-146035167D01*
X79705389Y-146035167D01*
X79536799Y-145965162D01*
X79164833Y-145964838D01*
X78821057Y-146106883D01*
X78557808Y-146369673D01*
X78415162Y-146713201D01*
X78414838Y-147085167D01*
X58934926Y-147085167D01*
X58935162Y-146814833D01*
X58793117Y-146471057D01*
X58530327Y-146207808D01*
X58386145Y-146147938D01*
X59380732Y-146147938D01*
X59564448Y-146521821D01*
X59888951Y-146809568D01*
X60298869Y-146951229D01*
X60473000Y-146802563D01*
X60473000Y-145977000D01*
X60727000Y-145977000D01*
X60727000Y-146802563D01*
X60901131Y-146951229D01*
X61311049Y-146809568D01*
X61635552Y-146521821D01*
X61819268Y-146147938D01*
X64380732Y-146147938D01*
X64564448Y-146521821D01*
X64888951Y-146809568D01*
X65298869Y-146951229D01*
X65473000Y-146802563D01*
X65473000Y-145977000D01*
X65727000Y-145977000D01*
X65727000Y-146802563D01*
X65901131Y-146951229D01*
X66311049Y-146809568D01*
X66635552Y-146521821D01*
X66800974Y-146185167D01*
X66864838Y-146185167D01*
X67006883Y-146528943D01*
X67269673Y-146792192D01*
X67613201Y-146934838D01*
X67985167Y-146935162D01*
X68328943Y-146793117D01*
X68592192Y-146530327D01*
X68734838Y-146186799D01*
X68735162Y-145814833D01*
X68593117Y-145471057D01*
X68330327Y-145207808D01*
X67986799Y-145065162D01*
X67614833Y-145064838D01*
X67271057Y-145206883D01*
X67007808Y-145469673D01*
X66865162Y-145813201D01*
X66864838Y-146185167D01*
X66800974Y-146185167D01*
X66819268Y-146147938D01*
X66692734Y-145977000D01*
X65727000Y-145977000D01*
X65473000Y-145977000D01*
X64507266Y-145977000D01*
X64380732Y-146147938D01*
X61819268Y-146147938D01*
X61692734Y-145977000D01*
X60727000Y-145977000D01*
X60473000Y-145977000D01*
X59507266Y-145977000D01*
X59380732Y-146147938D01*
X58386145Y-146147938D01*
X58186799Y-146065162D01*
X57814833Y-146064838D01*
X57471057Y-146206883D01*
X57207808Y-146469673D01*
X57065162Y-146813201D01*
X57064838Y-147185167D01*
X53952600Y-147185167D01*
X53952600Y-146856090D01*
X53855927Y-146622701D01*
X53677298Y-146444073D01*
X53443909Y-146347400D01*
X52485750Y-146347400D01*
X52327000Y-146506150D01*
X52073000Y-146506150D01*
X51914250Y-146347400D01*
X50956091Y-146347400D01*
X50785000Y-146418268D01*
X50785000Y-145552062D01*
X59380732Y-145552062D01*
X59507266Y-145723000D01*
X60473000Y-145723000D01*
X60473000Y-144897437D01*
X60727000Y-144897437D01*
X60727000Y-145723000D01*
X61692734Y-145723000D01*
X61819268Y-145552062D01*
X64380732Y-145552062D01*
X64507266Y-145723000D01*
X65473000Y-145723000D01*
X65473000Y-144897437D01*
X65727000Y-144897437D01*
X65727000Y-145723000D01*
X66692734Y-145723000D01*
X66819268Y-145552062D01*
X66635552Y-145178179D01*
X66361499Y-144935167D01*
X100564838Y-144935167D01*
X100706883Y-145278943D01*
X100969673Y-145542192D01*
X101313201Y-145684838D01*
X101685167Y-145685162D01*
X102028943Y-145543117D01*
X102292192Y-145280327D01*
X102434838Y-144936799D01*
X102435152Y-144575167D01*
X103924838Y-144575167D01*
X104066883Y-144918943D01*
X104329673Y-145182192D01*
X104673201Y-145324838D01*
X105045167Y-145325162D01*
X105388943Y-145183117D01*
X105652192Y-144920327D01*
X105724468Y-144746267D01*
X122306638Y-144746267D01*
X122448683Y-145090043D01*
X122711473Y-145353292D01*
X123055001Y-145495938D01*
X123426967Y-145496262D01*
X123770743Y-145354217D01*
X124033992Y-145091427D01*
X124176638Y-144747899D01*
X124176901Y-144445167D01*
X126374838Y-144445167D01*
X126516883Y-144788943D01*
X126779673Y-145052192D01*
X127123201Y-145194838D01*
X127495167Y-145195162D01*
X127838943Y-145053117D01*
X128102192Y-144790327D01*
X128244838Y-144446799D01*
X128245162Y-144074833D01*
X128103117Y-143731057D01*
X127840327Y-143467808D01*
X127496799Y-143325162D01*
X127124833Y-143324838D01*
X126781057Y-143466883D01*
X126517808Y-143729673D01*
X126375162Y-144073201D01*
X126374838Y-144445167D01*
X124176901Y-144445167D01*
X124176962Y-144375933D01*
X124034917Y-144032157D01*
X123772127Y-143768908D01*
X123428599Y-143626262D01*
X123056633Y-143625938D01*
X122712857Y-143767983D01*
X122449608Y-144030773D01*
X122306962Y-144374301D01*
X122306638Y-144746267D01*
X105724468Y-144746267D01*
X105794838Y-144576799D01*
X105795162Y-144204833D01*
X105653117Y-143861057D01*
X105390327Y-143597808D01*
X105046799Y-143455162D01*
X104674833Y-143454838D01*
X104331057Y-143596883D01*
X104067808Y-143859673D01*
X103925162Y-144203201D01*
X103924838Y-144575167D01*
X102435152Y-144575167D01*
X102435162Y-144564833D01*
X102293117Y-144221057D01*
X102030327Y-143957808D01*
X101686799Y-143815162D01*
X101314833Y-143814838D01*
X100971057Y-143956883D01*
X100707808Y-144219673D01*
X100565162Y-144563201D01*
X100564838Y-144935167D01*
X66361499Y-144935167D01*
X66311049Y-144890432D01*
X65901131Y-144748771D01*
X65727000Y-144897437D01*
X65473000Y-144897437D01*
X65298869Y-144748771D01*
X64888951Y-144890432D01*
X64564448Y-145178179D01*
X64380732Y-145552062D01*
X61819268Y-145552062D01*
X61810846Y-145534923D01*
X62085167Y-145535162D01*
X62428943Y-145393117D01*
X62692192Y-145130327D01*
X62834838Y-144786799D01*
X62835162Y-144414833D01*
X62693117Y-144071057D01*
X62430327Y-143807808D01*
X62086799Y-143665162D01*
X61714833Y-143664838D01*
X61371057Y-143806883D01*
X61107808Y-144069673D01*
X60965162Y-144413201D01*
X60964851Y-144770791D01*
X60901131Y-144748771D01*
X60727000Y-144897437D01*
X60473000Y-144897437D01*
X60298869Y-144748771D01*
X59888951Y-144890432D01*
X59564448Y-145178179D01*
X59380732Y-145552062D01*
X50785000Y-145552062D01*
X50785000Y-142685167D01*
X56564838Y-142685167D01*
X56706883Y-143028943D01*
X56969673Y-143292192D01*
X57313201Y-143434838D01*
X57565143Y-143435057D01*
X57564838Y-143785167D01*
X57706883Y-144128943D01*
X57969673Y-144392192D01*
X58313201Y-144534838D01*
X58685167Y-144535162D01*
X59028943Y-144393117D01*
X59292192Y-144130327D01*
X59434838Y-143786799D01*
X59435162Y-143414833D01*
X59293117Y-143071057D01*
X59030327Y-142807808D01*
X58734977Y-142685167D01*
X66264838Y-142685167D01*
X66406883Y-143028943D01*
X66669673Y-143292192D01*
X67013201Y-143434838D01*
X67085388Y-143434901D01*
X67206883Y-143728943D01*
X67469673Y-143992192D01*
X67813201Y-144134838D01*
X68185167Y-144135162D01*
X68528943Y-143993117D01*
X68792192Y-143730327D01*
X68934838Y-143386799D01*
X68934987Y-143215167D01*
X129054838Y-143215167D01*
X129196883Y-143558943D01*
X129459673Y-143822192D01*
X129803201Y-143964838D01*
X130175167Y-143965162D01*
X130518943Y-143823117D01*
X130782192Y-143560327D01*
X130924838Y-143216799D01*
X130925162Y-142844833D01*
X130783117Y-142501057D01*
X130520327Y-142237808D01*
X130176799Y-142095162D01*
X129804833Y-142094838D01*
X129461057Y-142236883D01*
X129197808Y-142499673D01*
X129055162Y-142843201D01*
X129054838Y-143215167D01*
X68934987Y-143215167D01*
X68935162Y-143014833D01*
X68793117Y-142671057D01*
X68530327Y-142407808D01*
X68186799Y-142265162D01*
X68157147Y-142265136D01*
X68292192Y-142130327D01*
X68434838Y-141786799D01*
X68435013Y-141585167D01*
X92394838Y-141585167D01*
X92536883Y-141928943D01*
X92799673Y-142192192D01*
X93143201Y-142334838D01*
X93515167Y-142335162D01*
X93858943Y-142193117D01*
X94122192Y-141930327D01*
X94223991Y-141685167D01*
X98564838Y-141685167D01*
X98706883Y-142028943D01*
X98969673Y-142292192D01*
X99313201Y-142434838D01*
X99685167Y-142435162D01*
X100000351Y-142304931D01*
X100313201Y-142434838D01*
X100685167Y-142435162D01*
X101028943Y-142293117D01*
X101292192Y-142030327D01*
X101434838Y-141686799D01*
X101435162Y-141314833D01*
X101293117Y-140971057D01*
X101030327Y-140707808D01*
X100686799Y-140565162D01*
X100314833Y-140564838D01*
X99999649Y-140695069D01*
X99686799Y-140565162D01*
X99314833Y-140564838D01*
X98971057Y-140706883D01*
X98707808Y-140969673D01*
X98565162Y-141313201D01*
X98564838Y-141685167D01*
X94223991Y-141685167D01*
X94264838Y-141586799D01*
X94265162Y-141214833D01*
X94123117Y-140871057D01*
X93860327Y-140607808D01*
X93516799Y-140465162D01*
X93144833Y-140464838D01*
X92801057Y-140606883D01*
X92537808Y-140869673D01*
X92395162Y-141213201D01*
X92394838Y-141585167D01*
X68435013Y-141585167D01*
X68435162Y-141414833D01*
X68293117Y-141071057D01*
X68030327Y-140807808D01*
X67686799Y-140665162D01*
X67314833Y-140664838D01*
X66971057Y-140806883D01*
X66707808Y-141069673D01*
X66565162Y-141413201D01*
X66564838Y-141785167D01*
X66572956Y-141804813D01*
X66407808Y-141969673D01*
X66265162Y-142313201D01*
X66264838Y-142685167D01*
X58734977Y-142685167D01*
X58686799Y-142665162D01*
X58434857Y-142664943D01*
X58435162Y-142314833D01*
X58293117Y-141971057D01*
X58030327Y-141707808D01*
X57686799Y-141565162D01*
X57314833Y-141564838D01*
X56971057Y-141706883D01*
X56707808Y-141969673D01*
X56565162Y-142313201D01*
X56564838Y-142685167D01*
X50785000Y-142685167D01*
X50785000Y-137682400D01*
X52734960Y-137682400D01*
X52734960Y-139917600D01*
X52779238Y-140152917D01*
X52918310Y-140369041D01*
X53130510Y-140514031D01*
X53382400Y-140565040D01*
X55617600Y-140565040D01*
X55852917Y-140520762D01*
X56069041Y-140381690D01*
X56170864Y-140232667D01*
X56612338Y-140232667D01*
X56754383Y-140576443D01*
X57017173Y-140839692D01*
X57360701Y-140982338D01*
X57732667Y-140982662D01*
X58076443Y-140840617D01*
X58339692Y-140577827D01*
X58482338Y-140234299D01*
X58482502Y-140045167D01*
X90864838Y-140045167D01*
X91006883Y-140388943D01*
X91269673Y-140652192D01*
X91613201Y-140794838D01*
X91985167Y-140795162D01*
X92328943Y-140653117D01*
X92592192Y-140390327D01*
X92734838Y-140046799D01*
X92734891Y-139985167D01*
X100864838Y-139985167D01*
X101006883Y-140328943D01*
X101269673Y-140592192D01*
X101613201Y-140734838D01*
X101985167Y-140735162D01*
X102083082Y-140694704D01*
X101907808Y-140869673D01*
X101765162Y-141213201D01*
X101764838Y-141585167D01*
X101906883Y-141928943D01*
X102169673Y-142192192D01*
X102513201Y-142334838D01*
X102885167Y-142335162D01*
X102955582Y-142306067D01*
X103617338Y-142306067D01*
X103759383Y-142649843D01*
X104022173Y-142913092D01*
X104365701Y-143055738D01*
X104737667Y-143056062D01*
X105081443Y-142914017D01*
X105344692Y-142651227D01*
X105487338Y-142307699D01*
X105487662Y-141935733D01*
X105396527Y-141715167D01*
X107640138Y-141715167D01*
X107782183Y-142058943D01*
X108044973Y-142322192D01*
X108388501Y-142464838D01*
X108760467Y-142465162D01*
X109104243Y-142323117D01*
X109367492Y-142060327D01*
X109510138Y-141716799D01*
X109510462Y-141344833D01*
X109368417Y-141001057D01*
X109105627Y-140737808D01*
X108858442Y-140635167D01*
X111004838Y-140635167D01*
X111146883Y-140978943D01*
X111409673Y-141242192D01*
X111753201Y-141384838D01*
X112125167Y-141385162D01*
X112468943Y-141243117D01*
X112732192Y-140980327D01*
X112874838Y-140636799D01*
X112874883Y-140584967D01*
X121814838Y-140584967D01*
X121956883Y-140928743D01*
X122219673Y-141191992D01*
X122563201Y-141334638D01*
X122935167Y-141334962D01*
X123278943Y-141192917D01*
X123542192Y-140930127D01*
X123684838Y-140586599D01*
X123685162Y-140214633D01*
X123677119Y-140195167D01*
X125844838Y-140195167D01*
X125986883Y-140538943D01*
X126249673Y-140802192D01*
X126593201Y-140944838D01*
X126965167Y-140945162D01*
X127308943Y-140803117D01*
X127572192Y-140540327D01*
X127714838Y-140196799D01*
X127715132Y-139859578D01*
X127856883Y-140202643D01*
X128026865Y-140372922D01*
X127751057Y-140486883D01*
X127487808Y-140749673D01*
X127345162Y-141093201D01*
X127344838Y-141465167D01*
X127486883Y-141808943D01*
X127749673Y-142072192D01*
X128093201Y-142214838D01*
X128465167Y-142215162D01*
X128808943Y-142073117D01*
X129072192Y-141810327D01*
X129113392Y-141711108D01*
X129363201Y-141814838D01*
X129735167Y-141815162D01*
X130078943Y-141673117D01*
X130342192Y-141410327D01*
X130484838Y-141066799D01*
X130485162Y-140694833D01*
X130343117Y-140351057D01*
X130308654Y-140316534D01*
X130558943Y-140213117D01*
X130822192Y-139950327D01*
X130964838Y-139606799D01*
X130965162Y-139234833D01*
X130823117Y-138891057D01*
X130560327Y-138627808D01*
X130216799Y-138485162D01*
X129844833Y-138484838D01*
X129501057Y-138626883D01*
X129237808Y-138889673D01*
X129223316Y-138924572D01*
X129180327Y-138881508D01*
X128836799Y-138738862D01*
X128464833Y-138738538D01*
X128121057Y-138880583D01*
X127857808Y-139143373D01*
X127715162Y-139486901D01*
X127714868Y-139824122D01*
X127573117Y-139481057D01*
X127310327Y-139217808D01*
X126966799Y-139075162D01*
X126594833Y-139074838D01*
X126251057Y-139216883D01*
X125987808Y-139479673D01*
X125845162Y-139823201D01*
X125844838Y-140195167D01*
X123677119Y-140195167D01*
X123543117Y-139870857D01*
X123280327Y-139607608D01*
X122936799Y-139464962D01*
X122564833Y-139464638D01*
X122221057Y-139606683D01*
X121957808Y-139869473D01*
X121815162Y-140213001D01*
X121814838Y-140584967D01*
X112874883Y-140584967D01*
X112875162Y-140264833D01*
X112733117Y-139921057D01*
X112470327Y-139657808D01*
X112126799Y-139515162D01*
X111754833Y-139514838D01*
X111411057Y-139656883D01*
X111147808Y-139919673D01*
X111005162Y-140263201D01*
X111004838Y-140635167D01*
X108858442Y-140635167D01*
X108762099Y-140595162D01*
X108390133Y-140594838D01*
X108046357Y-140736883D01*
X107783108Y-140999673D01*
X107640462Y-141343201D01*
X107640138Y-141715167D01*
X105396527Y-141715167D01*
X105345617Y-141591957D01*
X105082827Y-141328708D01*
X104739299Y-141186062D01*
X104367333Y-141185738D01*
X104023557Y-141327783D01*
X103760308Y-141590573D01*
X103617662Y-141934101D01*
X103617338Y-142306067D01*
X102955582Y-142306067D01*
X103228943Y-142193117D01*
X103492192Y-141930327D01*
X103634838Y-141586799D01*
X103635162Y-141214833D01*
X103493117Y-140871057D01*
X103230327Y-140607808D01*
X102886799Y-140465162D01*
X102514833Y-140464838D01*
X102416918Y-140505296D01*
X102592192Y-140330327D01*
X102665807Y-140153044D01*
X102983201Y-140284838D01*
X103355167Y-140285162D01*
X103698943Y-140143117D01*
X103962192Y-139880327D01*
X104104838Y-139536799D01*
X104105162Y-139164833D01*
X103963117Y-138821057D01*
X103700327Y-138557808D01*
X103356799Y-138415162D01*
X102984833Y-138414838D01*
X102641057Y-138556883D01*
X102377808Y-138819673D01*
X102304193Y-138996956D01*
X101986799Y-138865162D01*
X101614833Y-138864838D01*
X101271057Y-139006883D01*
X101007808Y-139269673D01*
X100865162Y-139613201D01*
X100864838Y-139985167D01*
X92734891Y-139985167D01*
X92735162Y-139674833D01*
X92593117Y-139331057D01*
X92330327Y-139067808D01*
X91986799Y-138925162D01*
X91614833Y-138924838D01*
X91271057Y-139066883D01*
X91007808Y-139329673D01*
X90865162Y-139673201D01*
X90864838Y-140045167D01*
X58482502Y-140045167D01*
X58482662Y-139862333D01*
X58340617Y-139518557D01*
X58077827Y-139255308D01*
X57734299Y-139112662D01*
X57362333Y-139112338D01*
X57018557Y-139254383D01*
X56755308Y-139517173D01*
X56612662Y-139860701D01*
X56612338Y-140232667D01*
X56170864Y-140232667D01*
X56214031Y-140169490D01*
X56265040Y-139917600D01*
X56265040Y-138720167D01*
X97909838Y-138720167D01*
X98051883Y-139063943D01*
X98314673Y-139327192D01*
X98658201Y-139469838D01*
X99030167Y-139470162D01*
X99373943Y-139328117D01*
X99637192Y-139065327D01*
X99779838Y-138721799D01*
X99780162Y-138349833D01*
X99646014Y-138025167D01*
X103454838Y-138025167D01*
X103596883Y-138368943D01*
X103859673Y-138632192D01*
X104203201Y-138774838D01*
X104575167Y-138775162D01*
X104918943Y-138633117D01*
X105182192Y-138370327D01*
X105324838Y-138026799D01*
X105325162Y-137654833D01*
X105183117Y-137311057D01*
X104920327Y-137047808D01*
X104576799Y-136905162D01*
X104204833Y-136904838D01*
X103861057Y-137046883D01*
X103597808Y-137309673D01*
X103455162Y-137653201D01*
X103454838Y-138025167D01*
X99646014Y-138025167D01*
X99638117Y-138006057D01*
X99375327Y-137742808D01*
X99031799Y-137600162D01*
X98659833Y-137599838D01*
X98316057Y-137741883D01*
X98052808Y-138004673D01*
X97910162Y-138348201D01*
X97909838Y-138720167D01*
X56265040Y-138720167D01*
X56265040Y-137682400D01*
X56220762Y-137447083D01*
X56081690Y-137230959D01*
X55869490Y-137085969D01*
X55617600Y-137034960D01*
X53382400Y-137034960D01*
X53147083Y-137079238D01*
X52930959Y-137218310D01*
X52785969Y-137430510D01*
X52734960Y-137682400D01*
X50785000Y-137682400D01*
X50785000Y-134185167D01*
X62064838Y-134185167D01*
X62206883Y-134528943D01*
X62469673Y-134792192D01*
X62813201Y-134934838D01*
X63185167Y-134935162D01*
X63528943Y-134793117D01*
X63792192Y-134530327D01*
X63898600Y-134274067D01*
X70144638Y-134274067D01*
X70286683Y-134617843D01*
X70549473Y-134881092D01*
X70893001Y-135023738D01*
X71264967Y-135024062D01*
X71467818Y-134940246D01*
X71519673Y-134992192D01*
X71863201Y-135134838D01*
X72235167Y-135135162D01*
X72578943Y-134993117D01*
X72825138Y-134747352D01*
X72999673Y-134922192D01*
X73343201Y-135064838D01*
X73652915Y-135065108D01*
X73839673Y-135252192D01*
X74183201Y-135394838D01*
X74555167Y-135395162D01*
X74898943Y-135253117D01*
X75162192Y-134990327D01*
X75187441Y-134929520D01*
X75439673Y-135182192D01*
X75783201Y-135324838D01*
X76155167Y-135325162D01*
X76498943Y-135183117D01*
X76685106Y-134997278D01*
X76684838Y-135305167D01*
X76826883Y-135648943D01*
X77089673Y-135912192D01*
X77433201Y-136054838D01*
X77805167Y-136055162D01*
X78148943Y-135913117D01*
X78412192Y-135650327D01*
X78554838Y-135306799D01*
X78555162Y-134934833D01*
X78413117Y-134591057D01*
X78150327Y-134327808D01*
X78064092Y-134292000D01*
X78152756Y-134232756D01*
X78162756Y-134222757D01*
X78227963Y-134125167D01*
X79734838Y-134125167D01*
X79876883Y-134468943D01*
X80139673Y-134732192D01*
X80483201Y-134874838D01*
X80855167Y-134875162D01*
X81198943Y-134733117D01*
X81462192Y-134470327D01*
X81580601Y-134185167D01*
X82264838Y-134185167D01*
X82406883Y-134528943D01*
X82669673Y-134792192D01*
X83013201Y-134934838D01*
X83292819Y-134935082D01*
X83439673Y-135082192D01*
X83783201Y-135224838D01*
X84155167Y-135225162D01*
X84498943Y-135083117D01*
X84762192Y-134820327D01*
X84904838Y-134476799D01*
X84905154Y-134113267D01*
X86454338Y-134113267D01*
X86596383Y-134457043D01*
X86859173Y-134720292D01*
X87202701Y-134862938D01*
X87574667Y-134863262D01*
X87918443Y-134721217D01*
X88074765Y-134565167D01*
X89114838Y-134565167D01*
X89256883Y-134908943D01*
X89519673Y-135172192D01*
X89863201Y-135314838D01*
X90235167Y-135315162D01*
X90380366Y-135255167D01*
X92844838Y-135255167D01*
X92986883Y-135598943D01*
X93249673Y-135862192D01*
X93593201Y-136004838D01*
X93965167Y-136005162D01*
X94308943Y-135863117D01*
X94572192Y-135600327D01*
X94714838Y-135256799D01*
X94715162Y-134884833D01*
X94573117Y-134541057D01*
X94310327Y-134277808D01*
X93966799Y-134135162D01*
X93594833Y-134134838D01*
X93251057Y-134276883D01*
X92987808Y-134539673D01*
X92845162Y-134883201D01*
X92844838Y-135255167D01*
X90380366Y-135255167D01*
X90578943Y-135173117D01*
X90842192Y-134910327D01*
X90984838Y-134566799D01*
X90985162Y-134194833D01*
X90843117Y-133851057D01*
X90580327Y-133587808D01*
X90333142Y-133485167D01*
X97564838Y-133485167D01*
X97706883Y-133828943D01*
X97969673Y-134092192D01*
X98313201Y-134234838D01*
X98685167Y-134235162D01*
X99028943Y-134093117D01*
X99127064Y-133995167D01*
X120414838Y-133995167D01*
X120556883Y-134338943D01*
X120819673Y-134602192D01*
X121163201Y-134744838D01*
X121535167Y-134745162D01*
X121878943Y-134603117D01*
X122007116Y-134475167D01*
X125904838Y-134475167D01*
X126046883Y-134818943D01*
X126309673Y-135082192D01*
X126653201Y-135224838D01*
X127025167Y-135225162D01*
X127368943Y-135083117D01*
X127527168Y-134925167D01*
X129274838Y-134925167D01*
X129416883Y-135268943D01*
X129679673Y-135532192D01*
X130023201Y-135674838D01*
X130395167Y-135675162D01*
X130738943Y-135533117D01*
X131002192Y-135270327D01*
X131144838Y-134926799D01*
X131145162Y-134554833D01*
X131003117Y-134211057D01*
X130740327Y-133947808D01*
X130396799Y-133805162D01*
X130024833Y-133804838D01*
X129681057Y-133946883D01*
X129417808Y-134209673D01*
X129275162Y-134553201D01*
X129274838Y-134925167D01*
X127527168Y-134925167D01*
X127632192Y-134820327D01*
X127774838Y-134476799D01*
X127775162Y-134104833D01*
X127633117Y-133761057D01*
X127370327Y-133497808D01*
X127026799Y-133355162D01*
X126654833Y-133354838D01*
X126311057Y-133496883D01*
X126047808Y-133759673D01*
X125905162Y-134103201D01*
X125904838Y-134475167D01*
X122007116Y-134475167D01*
X122142192Y-134340327D01*
X122284838Y-133996799D01*
X122285162Y-133624833D01*
X122143117Y-133281057D01*
X121987499Y-133125167D01*
X123194838Y-133125167D01*
X123336883Y-133468943D01*
X123599673Y-133732192D01*
X123943201Y-133874838D01*
X124315167Y-133875162D01*
X124658943Y-133733117D01*
X124922192Y-133470327D01*
X125064838Y-133126799D01*
X125065162Y-132754833D01*
X124923117Y-132411057D01*
X124660327Y-132147808D01*
X124316799Y-132005162D01*
X123944833Y-132004838D01*
X123601057Y-132146883D01*
X123337808Y-132409673D01*
X123195162Y-132753201D01*
X123194838Y-133125167D01*
X121987499Y-133125167D01*
X121880327Y-133017808D01*
X121536799Y-132875162D01*
X121164833Y-132874838D01*
X120821057Y-133016883D01*
X120557808Y-133279673D01*
X120415162Y-133623201D01*
X120414838Y-133995167D01*
X99127064Y-133995167D01*
X99292192Y-133830327D01*
X99434838Y-133486799D01*
X99435048Y-133245167D01*
X106644838Y-133245167D01*
X106786883Y-133588943D01*
X107049673Y-133852192D01*
X107393201Y-133994838D01*
X107765167Y-133995162D01*
X108108943Y-133853117D01*
X108372192Y-133590327D01*
X108514838Y-133246799D01*
X108514853Y-133229841D01*
X108748943Y-133133117D01*
X109012192Y-132870327D01*
X109154838Y-132526799D01*
X109155162Y-132154833D01*
X109013117Y-131811057D01*
X108750327Y-131547808D01*
X108406799Y-131405162D01*
X108034833Y-131404838D01*
X107691057Y-131546883D01*
X107427808Y-131809673D01*
X107285162Y-132153201D01*
X107285147Y-132170159D01*
X107051057Y-132266883D01*
X106787808Y-132529673D01*
X106645162Y-132873201D01*
X106644838Y-133245167D01*
X99435048Y-133245167D01*
X99435162Y-133114833D01*
X99293117Y-132771057D01*
X99030327Y-132507808D01*
X98686799Y-132365162D01*
X98314833Y-132364838D01*
X97971057Y-132506883D01*
X97707808Y-132769673D01*
X97565162Y-133113201D01*
X97564838Y-133485167D01*
X90333142Y-133485167D01*
X90236799Y-133445162D01*
X89864833Y-133444838D01*
X89521057Y-133586883D01*
X89257808Y-133849673D01*
X89115162Y-134193201D01*
X89114838Y-134565167D01*
X88074765Y-134565167D01*
X88181692Y-134458427D01*
X88324338Y-134114899D01*
X88324662Y-133742933D01*
X88182617Y-133399157D01*
X87919827Y-133135908D01*
X87576299Y-132993262D01*
X87204333Y-132992938D01*
X86860557Y-133134983D01*
X86597308Y-133397773D01*
X86454662Y-133741301D01*
X86454338Y-134113267D01*
X84905154Y-134113267D01*
X84905162Y-134104833D01*
X84763117Y-133761057D01*
X84500327Y-133497808D01*
X84156799Y-133355162D01*
X83877181Y-133354918D01*
X83730327Y-133207808D01*
X83386799Y-133065162D01*
X83014833Y-133064838D01*
X82671057Y-133206883D01*
X82407808Y-133469673D01*
X82265162Y-133813201D01*
X82264838Y-134185167D01*
X81580601Y-134185167D01*
X81604838Y-134126799D01*
X81605162Y-133754833D01*
X81463117Y-133411057D01*
X81200327Y-133147808D01*
X80856799Y-133005162D01*
X80484833Y-133004838D01*
X80141057Y-133146883D01*
X79877808Y-133409673D01*
X79735162Y-133753201D01*
X79734838Y-134125167D01*
X78227963Y-134125167D01*
X78301686Y-134014833D01*
X78338342Y-133959974D01*
X78400000Y-133650000D01*
X78400000Y-133610000D01*
X78338342Y-133300026D01*
X78162756Y-133037244D01*
X77899974Y-132861658D01*
X77590000Y-132800000D01*
X77280026Y-132861658D01*
X77045279Y-133018512D01*
X76916799Y-132965162D01*
X76544833Y-132964838D01*
X76201057Y-133106883D01*
X75937808Y-133369673D01*
X75902402Y-133454940D01*
X75784833Y-133454838D01*
X75441057Y-133596883D01*
X75177808Y-133859673D01*
X75152559Y-133920480D01*
X74900327Y-133667808D01*
X74556799Y-133525162D01*
X74247085Y-133524892D01*
X74060327Y-133337808D01*
X73716799Y-133195162D01*
X73344833Y-133194838D01*
X73001057Y-133336883D01*
X72754862Y-133582648D01*
X72580327Y-133407808D01*
X72236799Y-133265162D01*
X71864833Y-133264838D01*
X71661982Y-133348654D01*
X71610127Y-133296708D01*
X71266599Y-133154062D01*
X70894633Y-133153738D01*
X70550857Y-133295783D01*
X70287608Y-133558573D01*
X70144962Y-133902101D01*
X70144638Y-134274067D01*
X63898600Y-134274067D01*
X63934838Y-134186799D01*
X63935162Y-133814833D01*
X63793117Y-133471057D01*
X63530327Y-133207808D01*
X63186799Y-133065162D01*
X62814833Y-133064838D01*
X62471057Y-133206883D01*
X62207808Y-133469673D01*
X62065162Y-133813201D01*
X62064838Y-134185167D01*
X50785000Y-134185167D01*
X50785000Y-131500000D01*
X51965000Y-131500000D01*
X52119905Y-132278761D01*
X52561038Y-132938962D01*
X53221239Y-133380095D01*
X54000000Y-133535000D01*
X54778761Y-133380095D01*
X55438962Y-132938962D01*
X55675360Y-132585167D01*
X95664838Y-132585167D01*
X95806883Y-132928943D01*
X96069673Y-133192192D01*
X96413201Y-133334838D01*
X96785167Y-133335162D01*
X97128943Y-133193117D01*
X97392192Y-132930327D01*
X97534838Y-132586799D01*
X97535162Y-132214833D01*
X97393117Y-131871057D01*
X97130327Y-131607808D01*
X96786799Y-131465162D01*
X96414833Y-131464838D01*
X96071057Y-131606883D01*
X95807808Y-131869673D01*
X95665162Y-132213201D01*
X95664838Y-132585167D01*
X55675360Y-132585167D01*
X55880095Y-132278761D01*
X56035000Y-131500000D01*
X55927243Y-130958267D01*
X84986338Y-130958267D01*
X85128383Y-131302043D01*
X85391173Y-131565292D01*
X85734701Y-131707938D01*
X86106667Y-131708262D01*
X86450443Y-131566217D01*
X86713692Y-131303427D01*
X86856338Y-130959899D01*
X86856662Y-130587933D01*
X86743834Y-130314867D01*
X88212438Y-130314867D01*
X88354483Y-130658643D01*
X88617273Y-130921892D01*
X88960801Y-131064538D01*
X89332767Y-131064862D01*
X89676543Y-130922817D01*
X89939792Y-130660027D01*
X89999029Y-130517367D01*
X96436438Y-130517367D01*
X96578483Y-130861143D01*
X96841273Y-131124392D01*
X97184801Y-131267038D01*
X97556767Y-131267362D01*
X97900543Y-131125317D01*
X97928141Y-131097767D01*
X124074838Y-131097767D01*
X124216883Y-131441543D01*
X124479673Y-131704792D01*
X124823201Y-131847438D01*
X125195167Y-131847762D01*
X125538943Y-131705717D01*
X125745019Y-131500000D01*
X128965000Y-131500000D01*
X129119905Y-132278761D01*
X129561038Y-132938962D01*
X130221239Y-133380095D01*
X131000000Y-133535000D01*
X131778761Y-133380095D01*
X132438962Y-132938962D01*
X132880095Y-132278761D01*
X133035000Y-131500000D01*
X132880095Y-130721239D01*
X132438962Y-130061038D01*
X131778761Y-129619905D01*
X131000000Y-129465000D01*
X130221239Y-129619905D01*
X129561038Y-130061038D01*
X129119905Y-130721239D01*
X128965000Y-131500000D01*
X125745019Y-131500000D01*
X125802192Y-131442927D01*
X125944838Y-131099399D01*
X125945162Y-130727433D01*
X125803117Y-130383657D01*
X125540327Y-130120408D01*
X125196799Y-129977762D01*
X124824833Y-129977438D01*
X124481057Y-130119483D01*
X124217808Y-130382273D01*
X124075162Y-130725801D01*
X124074838Y-131097767D01*
X97928141Y-131097767D01*
X98163792Y-130862527D01*
X98306438Y-130518999D01*
X98306762Y-130147033D01*
X98164717Y-129803257D01*
X97901927Y-129540008D01*
X97558399Y-129397362D01*
X97186433Y-129397038D01*
X96842657Y-129539083D01*
X96579408Y-129801873D01*
X96436762Y-130145401D01*
X96436438Y-130517367D01*
X89999029Y-130517367D01*
X90082438Y-130316499D01*
X90082762Y-129944533D01*
X89940717Y-129600757D01*
X89677927Y-129337508D01*
X89334399Y-129194862D01*
X88962433Y-129194538D01*
X88618657Y-129336583D01*
X88355408Y-129599373D01*
X88212762Y-129942901D01*
X88212438Y-130314867D01*
X86743834Y-130314867D01*
X86714617Y-130244157D01*
X86451827Y-129980908D01*
X86108299Y-129838262D01*
X85736333Y-129837938D01*
X85392557Y-129979983D01*
X85129308Y-130242773D01*
X84986662Y-130586301D01*
X84986338Y-130958267D01*
X55927243Y-130958267D01*
X55880095Y-130721239D01*
X55438962Y-130061038D01*
X54778761Y-129619905D01*
X54000000Y-129465000D01*
X53221239Y-129619905D01*
X52561038Y-130061038D01*
X52119905Y-130721239D01*
X51965000Y-131500000D01*
X50785000Y-131500000D01*
X50785000Y-129275167D01*
X78364838Y-129275167D01*
X78506883Y-129618943D01*
X78769673Y-129882192D01*
X79113201Y-130024838D01*
X79485167Y-130025162D01*
X79828943Y-129883117D01*
X80092192Y-129620327D01*
X80234838Y-129276799D01*
X80235162Y-128904833D01*
X80119048Y-128623815D01*
X80254838Y-128296799D01*
X80255162Y-127924833D01*
X80113117Y-127581057D01*
X79850327Y-127317808D01*
X79506799Y-127175162D01*
X79134833Y-127174838D01*
X78791057Y-127316883D01*
X78527808Y-127579673D01*
X78385162Y-127923201D01*
X78384838Y-128295167D01*
X78500952Y-128576185D01*
X78365162Y-128903201D01*
X78364838Y-129275167D01*
X50785000Y-129275167D01*
X50785000Y-126555167D01*
X101214838Y-126555167D01*
X101356883Y-126898943D01*
X101619673Y-127162192D01*
X101963201Y-127304838D01*
X102335167Y-127305162D01*
X102678943Y-127163117D01*
X102942192Y-126900327D01*
X103084838Y-126556799D01*
X103085139Y-126210967D01*
X103989038Y-126210967D01*
X104131083Y-126554743D01*
X104393873Y-126817992D01*
X104524265Y-126872136D01*
X104524238Y-126902767D01*
X104666283Y-127246543D01*
X104929073Y-127509792D01*
X105124122Y-127590784D01*
X105123838Y-127917167D01*
X105265883Y-128260943D01*
X105528673Y-128524192D01*
X105872201Y-128666838D01*
X106244167Y-128667162D01*
X106587943Y-128525117D01*
X106851192Y-128262327D01*
X106993838Y-127918799D01*
X106994041Y-127685167D01*
X111064838Y-127685167D01*
X111206883Y-128028943D01*
X111302710Y-128124937D01*
X111207808Y-128219673D01*
X111065162Y-128563201D01*
X111064838Y-128935167D01*
X111206883Y-129278943D01*
X111469673Y-129542192D01*
X111813201Y-129684838D01*
X112185167Y-129685162D01*
X112528943Y-129543117D01*
X112792192Y-129280327D01*
X112934838Y-128936799D01*
X112935162Y-128564833D01*
X112793117Y-128221057D01*
X112697290Y-128125063D01*
X112792192Y-128030327D01*
X112934838Y-127686799D01*
X112935162Y-127314833D01*
X112793117Y-126971057D01*
X112530327Y-126707808D01*
X112186799Y-126565162D01*
X111814833Y-126564838D01*
X111471057Y-126706883D01*
X111207808Y-126969673D01*
X111065162Y-127313201D01*
X111064838Y-127685167D01*
X106994041Y-127685167D01*
X106994162Y-127546833D01*
X106852117Y-127203057D01*
X106589327Y-126939808D01*
X106394278Y-126858816D01*
X106394562Y-126532433D01*
X106252517Y-126188657D01*
X105989727Y-125925408D01*
X105859335Y-125871264D01*
X105859362Y-125840633D01*
X105717317Y-125496857D01*
X105454527Y-125233608D01*
X105155083Y-125109267D01*
X105689538Y-125109267D01*
X105831583Y-125453043D01*
X106094373Y-125716292D01*
X106437901Y-125858938D01*
X106809867Y-125859262D01*
X107153643Y-125717217D01*
X107366063Y-125505167D01*
X112474838Y-125505167D01*
X112616883Y-125848943D01*
X112879673Y-126112192D01*
X113223201Y-126254838D01*
X113595167Y-126255162D01*
X113938943Y-126113117D01*
X114202192Y-125850327D01*
X114344838Y-125506799D01*
X114345162Y-125134833D01*
X114203117Y-124791057D01*
X113940327Y-124527808D01*
X113596799Y-124385162D01*
X113224833Y-124384838D01*
X112881057Y-124526883D01*
X112617808Y-124789673D01*
X112475162Y-125133201D01*
X112474838Y-125505167D01*
X107366063Y-125505167D01*
X107416892Y-125454427D01*
X107541320Y-125154773D01*
X107738943Y-125073117D01*
X108002192Y-124810327D01*
X108144838Y-124466799D01*
X108145162Y-124094833D01*
X108003117Y-123751057D01*
X107740327Y-123487808D01*
X107396799Y-123345162D01*
X107024833Y-123344838D01*
X106681057Y-123486883D01*
X106417808Y-123749673D01*
X106293380Y-124049327D01*
X106095757Y-124130983D01*
X105832508Y-124393773D01*
X105689862Y-124737301D01*
X105689538Y-125109267D01*
X105155083Y-125109267D01*
X105110999Y-125090962D01*
X104739033Y-125090638D01*
X104395257Y-125232683D01*
X104132008Y-125495473D01*
X103989362Y-125839001D01*
X103989038Y-126210967D01*
X103085139Y-126210967D01*
X103085162Y-126184833D01*
X102943117Y-125841057D01*
X102680327Y-125577808D01*
X102336799Y-125435162D01*
X101964833Y-125434838D01*
X101621057Y-125576883D01*
X101357808Y-125839673D01*
X101215162Y-126183201D01*
X101214838Y-126555167D01*
X50785000Y-126555167D01*
X50785000Y-125785167D01*
X89037938Y-125785167D01*
X89179983Y-126128943D01*
X89442773Y-126392192D01*
X89786301Y-126534838D01*
X90158267Y-126535162D01*
X90502043Y-126393117D01*
X90765292Y-126130327D01*
X90907938Y-125786799D01*
X90908262Y-125414833D01*
X90766217Y-125071057D01*
X90503427Y-124807808D01*
X90159899Y-124665162D01*
X89787933Y-124664838D01*
X89444157Y-124806883D01*
X89180908Y-125069673D01*
X89038262Y-125413201D01*
X89037938Y-125785167D01*
X50785000Y-125785167D01*
X50785000Y-123755167D01*
X87424838Y-123755167D01*
X87566883Y-124098943D01*
X87829673Y-124362192D01*
X88173201Y-124504838D01*
X88545167Y-124505162D01*
X88888943Y-124363117D01*
X89152192Y-124100327D01*
X89293314Y-123760467D01*
X100520438Y-123760467D01*
X100662483Y-124104243D01*
X100925273Y-124367492D01*
X101268801Y-124510138D01*
X101640767Y-124510462D01*
X101984543Y-124368417D01*
X102247792Y-124105627D01*
X102390438Y-123762099D01*
X102390762Y-123390133D01*
X102283223Y-123129867D01*
X111004138Y-123129867D01*
X111146183Y-123473643D01*
X111408973Y-123736892D01*
X111752501Y-123879538D01*
X112124467Y-123879862D01*
X112468243Y-123737817D01*
X112731492Y-123475027D01*
X112874138Y-123131499D01*
X112874462Y-122759533D01*
X112732417Y-122415757D01*
X112469627Y-122152508D01*
X112126099Y-122009862D01*
X111754133Y-122009538D01*
X111410357Y-122151583D01*
X111147108Y-122414373D01*
X111004462Y-122757901D01*
X111004138Y-123129867D01*
X102283223Y-123129867D01*
X102248717Y-123046357D01*
X101985927Y-122783108D01*
X101642399Y-122640462D01*
X101270433Y-122640138D01*
X100926657Y-122782183D01*
X100663408Y-123044973D01*
X100520762Y-123388501D01*
X100520438Y-123760467D01*
X89293314Y-123760467D01*
X89294838Y-123756799D01*
X89295162Y-123384833D01*
X89265455Y-123312935D01*
X89344573Y-123392192D01*
X89688101Y-123534838D01*
X90060067Y-123535162D01*
X90403843Y-123393117D01*
X90451178Y-123345865D01*
X90593201Y-123404838D01*
X90965167Y-123405162D01*
X91308943Y-123263117D01*
X91572192Y-123000327D01*
X91714838Y-122656799D01*
X91715162Y-122284833D01*
X91573117Y-121941057D01*
X91310327Y-121677808D01*
X90966799Y-121535162D01*
X90594833Y-121534838D01*
X90251057Y-121676883D01*
X90203722Y-121724135D01*
X90061699Y-121665162D01*
X89689733Y-121664838D01*
X89345957Y-121806883D01*
X89082708Y-122069673D01*
X88940062Y-122413201D01*
X88939738Y-122785167D01*
X88969445Y-122857065D01*
X88890327Y-122777808D01*
X88546799Y-122635162D01*
X88174833Y-122634838D01*
X87831057Y-122776883D01*
X87567808Y-123039673D01*
X87425162Y-123383201D01*
X87424838Y-123755167D01*
X50785000Y-123755167D01*
X50785000Y-121145167D01*
X79684838Y-121145167D01*
X79826883Y-121488943D01*
X80089673Y-121752192D01*
X80433201Y-121894838D01*
X80805167Y-121895162D01*
X81148943Y-121753117D01*
X81237046Y-121665167D01*
X85274838Y-121665167D01*
X85416883Y-122008943D01*
X85679673Y-122272192D01*
X86023201Y-122414838D01*
X86395167Y-122415162D01*
X86738943Y-122273117D01*
X87002192Y-122010327D01*
X87144838Y-121666799D01*
X87145162Y-121294833D01*
X87003117Y-120951057D01*
X86740327Y-120687808D01*
X86396799Y-120545162D01*
X86024833Y-120544838D01*
X85681057Y-120686883D01*
X85417808Y-120949673D01*
X85275162Y-121293201D01*
X85274838Y-121665167D01*
X81237046Y-121665167D01*
X81412192Y-121490327D01*
X81554838Y-121146799D01*
X81555162Y-120774833D01*
X81413117Y-120431057D01*
X81150327Y-120167808D01*
X80806799Y-120025162D01*
X80434833Y-120024838D01*
X80091057Y-120166883D01*
X79827808Y-120429673D01*
X79685162Y-120773201D01*
X79684838Y-121145167D01*
X50785000Y-121145167D01*
X50785000Y-119435167D01*
X66591238Y-119435167D01*
X66733283Y-119778943D01*
X66996073Y-120042192D01*
X67301604Y-120169060D01*
X67427083Y-120472743D01*
X67689873Y-120735992D01*
X68033401Y-120878638D01*
X68405367Y-120878962D01*
X68749143Y-120736917D01*
X69012392Y-120474127D01*
X69155038Y-120130599D01*
X69155362Y-119758633D01*
X69013317Y-119414857D01*
X68750527Y-119151608D01*
X68444996Y-119024740D01*
X68319517Y-118721057D01*
X68056727Y-118457808D01*
X67713199Y-118315162D01*
X67341233Y-118314838D01*
X66997457Y-118456883D01*
X66734208Y-118719673D01*
X66591562Y-119063201D01*
X66591238Y-119435167D01*
X50785000Y-119435167D01*
X50785000Y-118185167D01*
X68264838Y-118185167D01*
X68406883Y-118528943D01*
X68669673Y-118792192D01*
X69013201Y-118934838D01*
X69385167Y-118935162D01*
X69728943Y-118793117D01*
X69957291Y-118565167D01*
X80534838Y-118565167D01*
X80676883Y-118908943D01*
X80939673Y-119172192D01*
X81283201Y-119314838D01*
X81655167Y-119315162D01*
X81998943Y-119173117D01*
X82262192Y-118910327D01*
X82404838Y-118566799D01*
X82404895Y-118501317D01*
X82448943Y-118483117D01*
X82712192Y-118220327D01*
X82854838Y-117876799D01*
X82855162Y-117504833D01*
X82842905Y-117475167D01*
X89794838Y-117475167D01*
X89936883Y-117818943D01*
X90199673Y-118082192D01*
X90543201Y-118224838D01*
X90915167Y-118225162D01*
X91258943Y-118083117D01*
X91522192Y-117820327D01*
X91664838Y-117476799D01*
X91665162Y-117104833D01*
X91523117Y-116761057D01*
X91260327Y-116497808D01*
X90916799Y-116355162D01*
X90544833Y-116354838D01*
X90201057Y-116496883D01*
X89937808Y-116759673D01*
X89795162Y-117103201D01*
X89794838Y-117475167D01*
X82842905Y-117475167D01*
X82713117Y-117161057D01*
X82450327Y-116897808D01*
X82106799Y-116755162D01*
X81734833Y-116754838D01*
X81391057Y-116896883D01*
X81127808Y-117159673D01*
X80985162Y-117503201D01*
X80985105Y-117568683D01*
X80941057Y-117586883D01*
X80677808Y-117849673D01*
X80535162Y-118193201D01*
X80534838Y-118565167D01*
X69957291Y-118565167D01*
X69992192Y-118530327D01*
X70134838Y-118186799D01*
X70135162Y-117814833D01*
X69993117Y-117471057D01*
X69730327Y-117207808D01*
X69386799Y-117065162D01*
X69014833Y-117064838D01*
X68671057Y-117206883D01*
X68407808Y-117469673D01*
X68265162Y-117813201D01*
X68264838Y-118185167D01*
X50785000Y-118185167D01*
X50785000Y-115655167D01*
X72524838Y-115655167D01*
X72666883Y-115998943D01*
X72929673Y-116262192D01*
X73273201Y-116404838D01*
X73645167Y-116405162D01*
X73988943Y-116263117D01*
X74252192Y-116000327D01*
X74300010Y-115885167D01*
X91064838Y-115885167D01*
X91206883Y-116228943D01*
X91469673Y-116492192D01*
X91813201Y-116634838D01*
X92185167Y-116635162D01*
X92190434Y-116632986D01*
X92053508Y-116769673D01*
X91910862Y-117113201D01*
X91910538Y-117485167D01*
X91962849Y-117611769D01*
X91941608Y-117632973D01*
X91798962Y-117976501D01*
X91798638Y-118348467D01*
X91940683Y-118692243D01*
X92203473Y-118955492D01*
X92535066Y-119093182D01*
X92534962Y-119212451D01*
X92530327Y-119207808D01*
X92186799Y-119065162D01*
X91814833Y-119064838D01*
X91471057Y-119206883D01*
X91207808Y-119469673D01*
X91065162Y-119813201D01*
X91064838Y-120185167D01*
X91206883Y-120528943D01*
X91469673Y-120792192D01*
X91813201Y-120934838D01*
X92185167Y-120935162D01*
X92528943Y-120793117D01*
X92792192Y-120530327D01*
X92934838Y-120186799D01*
X92935038Y-119957549D01*
X92939673Y-119962192D01*
X93283201Y-120104838D01*
X93655167Y-120105162D01*
X93998943Y-119963117D01*
X94262192Y-119700327D01*
X94404838Y-119356799D01*
X94405162Y-118984833D01*
X94302003Y-118735167D01*
X100764838Y-118735167D01*
X100906883Y-119078943D01*
X101169673Y-119342192D01*
X101513201Y-119484838D01*
X101885167Y-119485162D01*
X102228943Y-119343117D01*
X102492192Y-119080327D01*
X102634838Y-118736799D01*
X102635162Y-118364833D01*
X102493117Y-118021057D01*
X102230327Y-117757808D01*
X101886799Y-117615162D01*
X101514833Y-117614838D01*
X101171057Y-117756883D01*
X100907808Y-118019673D01*
X100765162Y-118363201D01*
X100764838Y-118735167D01*
X94302003Y-118735167D01*
X94263117Y-118641057D01*
X94000327Y-118377808D01*
X93668734Y-118240118D01*
X93668962Y-117978133D01*
X93616651Y-117851531D01*
X93637892Y-117830327D01*
X93780538Y-117486799D01*
X93780862Y-117114833D01*
X93638817Y-116771057D01*
X93376027Y-116507808D01*
X93032499Y-116365162D01*
X92660533Y-116364838D01*
X92655266Y-116367014D01*
X92792192Y-116230327D01*
X92934838Y-115886799D01*
X92935162Y-115514833D01*
X92793117Y-115171057D01*
X92530327Y-114907808D01*
X92186799Y-114765162D01*
X91814833Y-114764838D01*
X91471057Y-114906883D01*
X91207808Y-115169673D01*
X91065162Y-115513201D01*
X91064838Y-115885167D01*
X74300010Y-115885167D01*
X74394838Y-115656799D01*
X74395162Y-115284833D01*
X74253117Y-114941057D01*
X73990327Y-114677808D01*
X73646799Y-114535162D01*
X73274833Y-114534838D01*
X72931057Y-114676883D01*
X72667808Y-114939673D01*
X72525162Y-115283201D01*
X72524838Y-115655167D01*
X50785000Y-115655167D01*
X50785000Y-114685167D01*
X69364838Y-114685167D01*
X69506883Y-115028943D01*
X69769673Y-115292192D01*
X70113201Y-115434838D01*
X70485167Y-115435162D01*
X70828943Y-115293117D01*
X71092192Y-115030327D01*
X71234838Y-114686799D01*
X71235162Y-114314833D01*
X71144399Y-114095167D01*
X77524838Y-114095167D01*
X77666883Y-114438943D01*
X77929673Y-114702192D01*
X78273201Y-114844838D01*
X78645167Y-114845162D01*
X78988943Y-114703117D01*
X79187238Y-114505167D01*
X96224838Y-114505167D01*
X96366883Y-114848943D01*
X96629673Y-115112192D01*
X96817454Y-115190166D01*
X96737808Y-115269673D01*
X96595162Y-115613201D01*
X96594838Y-115985167D01*
X96736883Y-116328943D01*
X96999673Y-116592192D01*
X97343201Y-116734838D01*
X97715167Y-116735162D01*
X98058943Y-116593117D01*
X98322192Y-116330327D01*
X98464838Y-115986799D01*
X98464909Y-115905167D01*
X99344838Y-115905167D01*
X99486883Y-116248943D01*
X99749673Y-116512192D01*
X100093201Y-116654838D01*
X100465167Y-116655162D01*
X100808943Y-116513117D01*
X101072192Y-116250327D01*
X101132467Y-116105167D01*
X103114838Y-116105167D01*
X103256883Y-116448943D01*
X103519673Y-116712192D01*
X103863201Y-116854838D01*
X104235167Y-116855162D01*
X104578943Y-116713117D01*
X104842192Y-116450327D01*
X104984838Y-116106799D01*
X104985162Y-115734833D01*
X104843117Y-115391057D01*
X104580327Y-115127808D01*
X104477637Y-115085167D01*
X114764838Y-115085167D01*
X114906883Y-115428943D01*
X115169673Y-115692192D01*
X115513201Y-115834838D01*
X115885167Y-115835162D01*
X116228943Y-115693117D01*
X116492192Y-115430327D01*
X116634838Y-115086799D01*
X116635162Y-114714833D01*
X116622905Y-114685167D01*
X125414838Y-114685167D01*
X125556883Y-115028943D01*
X125819673Y-115292192D01*
X126163201Y-115434838D01*
X126535167Y-115435162D01*
X126777173Y-115335167D01*
X128375038Y-115335167D01*
X128517083Y-115678943D01*
X128779873Y-115942192D01*
X129123401Y-116084838D01*
X129495367Y-116085162D01*
X129839143Y-115943117D01*
X130102392Y-115680327D01*
X130245038Y-115336799D01*
X130245362Y-114964833D01*
X130103317Y-114621057D01*
X129840527Y-114357808D01*
X129496999Y-114215162D01*
X129125033Y-114214838D01*
X128781257Y-114356883D01*
X128518008Y-114619673D01*
X128375362Y-114963201D01*
X128375038Y-115335167D01*
X126777173Y-115335167D01*
X126878943Y-115293117D01*
X127142192Y-115030327D01*
X127284838Y-114686799D01*
X127285162Y-114314833D01*
X127143117Y-113971057D01*
X126880327Y-113707808D01*
X126536799Y-113565162D01*
X126164833Y-113564838D01*
X125821057Y-113706883D01*
X125557808Y-113969673D01*
X125415162Y-114313201D01*
X125414838Y-114685167D01*
X116622905Y-114685167D01*
X116493117Y-114371057D01*
X116230327Y-114107808D01*
X115886799Y-113965162D01*
X115514833Y-113964838D01*
X115171057Y-114106883D01*
X114907808Y-114369673D01*
X114765162Y-114713201D01*
X114764838Y-115085167D01*
X104477637Y-115085167D01*
X104236799Y-114985162D01*
X103864833Y-114984838D01*
X103521057Y-115126883D01*
X103257808Y-115389673D01*
X103115162Y-115733201D01*
X103114838Y-116105167D01*
X101132467Y-116105167D01*
X101214838Y-115906799D01*
X101215162Y-115534833D01*
X101073117Y-115191057D01*
X100810327Y-114927808D01*
X100466799Y-114785162D01*
X100094833Y-114784838D01*
X99751057Y-114926883D01*
X99487808Y-115189673D01*
X99345162Y-115533201D01*
X99344838Y-115905167D01*
X98464909Y-115905167D01*
X98465162Y-115614833D01*
X98323117Y-115271057D01*
X98060327Y-115007808D01*
X97872546Y-114929834D01*
X97952192Y-114850327D01*
X98094838Y-114506799D01*
X98095162Y-114134833D01*
X97953117Y-113791057D01*
X97690327Y-113527808D01*
X97346799Y-113385162D01*
X96974833Y-113384838D01*
X96631057Y-113526883D01*
X96367808Y-113789673D01*
X96225162Y-114133201D01*
X96224838Y-114505167D01*
X79187238Y-114505167D01*
X79252192Y-114440327D01*
X79394838Y-114096799D01*
X79395162Y-113724833D01*
X79253117Y-113381057D01*
X78990327Y-113117808D01*
X78887637Y-113075167D01*
X92764838Y-113075167D01*
X92906883Y-113418943D01*
X93169673Y-113682192D01*
X93513201Y-113824838D01*
X93885167Y-113825162D01*
X94228943Y-113683117D01*
X94492192Y-113420327D01*
X94634838Y-113076799D01*
X94635162Y-112704833D01*
X94493117Y-112361057D01*
X94230327Y-112097808D01*
X94199885Y-112085167D01*
X99264838Y-112085167D01*
X99406883Y-112428943D01*
X99669673Y-112692192D01*
X100013201Y-112834838D01*
X100385167Y-112835162D01*
X100728943Y-112693117D01*
X100992192Y-112430327D01*
X101134838Y-112086799D01*
X101135162Y-111714833D01*
X100993117Y-111371057D01*
X100730327Y-111107808D01*
X100386799Y-110965162D01*
X100014833Y-110964838D01*
X99671057Y-111106883D01*
X99407808Y-111369673D01*
X99265162Y-111713201D01*
X99264838Y-112085167D01*
X94199885Y-112085167D01*
X93886799Y-111955162D01*
X93514833Y-111954838D01*
X93171057Y-112096883D01*
X92907808Y-112359673D01*
X92765162Y-112703201D01*
X92764838Y-113075167D01*
X78887637Y-113075167D01*
X78646799Y-112975162D01*
X78274833Y-112974838D01*
X77931057Y-113116883D01*
X77667808Y-113379673D01*
X77525162Y-113723201D01*
X77524838Y-114095167D01*
X71144399Y-114095167D01*
X71093117Y-113971057D01*
X70830327Y-113707808D01*
X70486799Y-113565162D01*
X70114833Y-113564838D01*
X69771057Y-113706883D01*
X69507808Y-113969673D01*
X69365162Y-114313201D01*
X69364838Y-114685167D01*
X50785000Y-114685167D01*
X50785000Y-113505167D01*
X64914838Y-113505167D01*
X65056883Y-113848943D01*
X65319673Y-114112192D01*
X65663201Y-114254838D01*
X66035167Y-114255162D01*
X66378943Y-114113117D01*
X66642192Y-113850327D01*
X66784838Y-113506799D01*
X66785162Y-113134833D01*
X66643117Y-112791057D01*
X66380327Y-112527808D01*
X66036799Y-112385162D01*
X65664833Y-112384838D01*
X65321057Y-112526883D01*
X65057808Y-112789673D01*
X64915162Y-113133201D01*
X64914838Y-113505167D01*
X50785000Y-113505167D01*
X50785000Y-111835167D01*
X61014838Y-111835167D01*
X61156883Y-112178943D01*
X61419673Y-112442192D01*
X61763201Y-112584838D01*
X62135167Y-112585162D01*
X62478943Y-112443117D01*
X62677238Y-112245167D01*
X67414838Y-112245167D01*
X67556883Y-112588943D01*
X67819673Y-112852192D01*
X68163201Y-112994838D01*
X68535167Y-112995162D01*
X68878943Y-112853117D01*
X69142192Y-112590327D01*
X69284838Y-112246799D01*
X69285162Y-111874833D01*
X69154154Y-111557767D01*
X70064038Y-111557767D01*
X70206083Y-111901543D01*
X70468873Y-112164792D01*
X70812401Y-112307438D01*
X71184367Y-112307762D01*
X71190647Y-112305167D01*
X72174838Y-112305167D01*
X72316883Y-112648943D01*
X72579673Y-112912192D01*
X72923201Y-113054838D01*
X73295167Y-113055162D01*
X73638943Y-112913117D01*
X73902192Y-112650327D01*
X74044838Y-112306799D01*
X74045162Y-111934833D01*
X73903117Y-111591057D01*
X73640327Y-111327808D01*
X73296799Y-111185162D01*
X72924833Y-111184838D01*
X72581057Y-111326883D01*
X72317808Y-111589673D01*
X72175162Y-111933201D01*
X72174838Y-112305167D01*
X71190647Y-112305167D01*
X71528143Y-112165717D01*
X71791392Y-111902927D01*
X71934038Y-111559399D01*
X71934362Y-111187433D01*
X71792317Y-110843657D01*
X71529527Y-110580408D01*
X71516906Y-110575167D01*
X76084838Y-110575167D01*
X76226883Y-110918943D01*
X76489673Y-111182192D01*
X76833201Y-111324838D01*
X77205167Y-111325162D01*
X77548943Y-111183117D01*
X77812192Y-110920327D01*
X77843401Y-110845167D01*
X104594838Y-110845167D01*
X104736883Y-111188943D01*
X104999673Y-111452192D01*
X105343201Y-111594838D01*
X105715167Y-111595162D01*
X106058943Y-111453117D01*
X106322192Y-111190327D01*
X106464838Y-110846799D01*
X106465012Y-110647383D01*
X106549673Y-110732192D01*
X106893201Y-110874838D01*
X107265167Y-110875162D01*
X107608943Y-110733117D01*
X107872192Y-110470327D01*
X108014838Y-110126799D01*
X108015162Y-109754833D01*
X107934852Y-109560467D01*
X126255638Y-109560467D01*
X126397683Y-109904243D01*
X126660473Y-110167492D01*
X127004001Y-110310138D01*
X127375967Y-110310462D01*
X127719743Y-110168417D01*
X127982992Y-109905627D01*
X128125638Y-109562099D01*
X128125962Y-109190133D01*
X127983917Y-108846357D01*
X127721127Y-108583108D01*
X127377599Y-108440462D01*
X127005633Y-108440138D01*
X126661857Y-108582183D01*
X126398608Y-108844973D01*
X126255962Y-109188501D01*
X126255638Y-109560467D01*
X107934852Y-109560467D01*
X107873117Y-109411057D01*
X107610327Y-109147808D01*
X107266799Y-109005162D01*
X107006941Y-109004936D01*
X106873117Y-108681057D01*
X106814829Y-108622667D01*
X120356138Y-108622667D01*
X120498183Y-108966443D01*
X120760973Y-109229692D01*
X121104501Y-109372338D01*
X121476467Y-109372662D01*
X121820243Y-109230617D01*
X122083492Y-108967827D01*
X122226138Y-108624299D01*
X122226462Y-108252333D01*
X122084417Y-107908557D01*
X121966234Y-107790167D01*
X122869638Y-107790167D01*
X123011683Y-108133943D01*
X123274473Y-108397192D01*
X123618001Y-108539838D01*
X123989967Y-108540162D01*
X124333743Y-108398117D01*
X124596992Y-108135327D01*
X124739638Y-107791799D01*
X124739962Y-107419833D01*
X124597917Y-107076057D01*
X124335127Y-106812808D01*
X123991599Y-106670162D01*
X123619633Y-106669838D01*
X123275857Y-106811883D01*
X123012608Y-107074673D01*
X122869962Y-107418201D01*
X122869638Y-107790167D01*
X121966234Y-107790167D01*
X121821627Y-107645308D01*
X121478099Y-107502662D01*
X121106133Y-107502338D01*
X120762357Y-107644383D01*
X120499108Y-107907173D01*
X120356462Y-108250701D01*
X120356138Y-108622667D01*
X106814829Y-108622667D01*
X106610327Y-108417808D01*
X106266799Y-108275162D01*
X105894833Y-108274838D01*
X105551057Y-108416883D01*
X105287808Y-108679673D01*
X105145162Y-109023201D01*
X105144838Y-109395167D01*
X105286883Y-109738943D01*
X105293837Y-109745909D01*
X105001057Y-109866883D01*
X104737808Y-110129673D01*
X104595162Y-110473201D01*
X104594838Y-110845167D01*
X77843401Y-110845167D01*
X77954838Y-110576799D01*
X77955162Y-110204833D01*
X77813117Y-109861057D01*
X77550327Y-109597808D01*
X77206799Y-109455162D01*
X76834833Y-109454838D01*
X76491057Y-109596883D01*
X76227808Y-109859673D01*
X76085162Y-110203201D01*
X76084838Y-110575167D01*
X71516906Y-110575167D01*
X71185999Y-110437762D01*
X70814033Y-110437438D01*
X70470257Y-110579483D01*
X70207008Y-110842273D01*
X70064362Y-111185801D01*
X70064038Y-111557767D01*
X69154154Y-111557767D01*
X69143117Y-111531057D01*
X68880327Y-111267808D01*
X68536799Y-111125162D01*
X68164833Y-111124838D01*
X67821057Y-111266883D01*
X67557808Y-111529673D01*
X67415162Y-111873201D01*
X67414838Y-112245167D01*
X62677238Y-112245167D01*
X62742192Y-112180327D01*
X62884838Y-111836799D01*
X62885162Y-111464833D01*
X62743117Y-111121057D01*
X62480327Y-110857808D01*
X62136799Y-110715162D01*
X61764833Y-110714838D01*
X61421057Y-110856883D01*
X61157808Y-111119673D01*
X61015162Y-111463201D01*
X61014838Y-111835167D01*
X50785000Y-111835167D01*
X50785000Y-108685167D01*
X55864838Y-108685167D01*
X56006883Y-109028943D01*
X56269673Y-109292192D01*
X56613201Y-109434838D01*
X56985167Y-109435162D01*
X57328943Y-109293117D01*
X57592192Y-109030327D01*
X57605961Y-108997167D01*
X70119838Y-108997167D01*
X70261883Y-109340943D01*
X70524673Y-109604192D01*
X70868201Y-109746838D01*
X71240167Y-109747162D01*
X71583943Y-109605117D01*
X71824312Y-109365167D01*
X79224838Y-109365167D01*
X79366883Y-109708943D01*
X79629673Y-109972192D01*
X79973201Y-110114838D01*
X80345167Y-110115162D01*
X80688943Y-109973117D01*
X80952192Y-109710327D01*
X81094838Y-109366799D01*
X81095162Y-108994833D01*
X80953117Y-108651057D01*
X80690327Y-108387808D01*
X80346799Y-108245162D01*
X79974833Y-108244838D01*
X79631057Y-108386883D01*
X79367808Y-108649673D01*
X79225162Y-108993201D01*
X79224838Y-109365167D01*
X71824312Y-109365167D01*
X71847192Y-109342327D01*
X71989838Y-108998799D01*
X71990162Y-108626833D01*
X71848117Y-108283057D01*
X71585327Y-108019808D01*
X71241799Y-107877162D01*
X70869833Y-107876838D01*
X70526057Y-108018883D01*
X70262808Y-108281673D01*
X70120162Y-108625201D01*
X70119838Y-108997167D01*
X57605961Y-108997167D01*
X57734838Y-108686799D01*
X57735162Y-108314833D01*
X57593117Y-107971057D01*
X57330327Y-107707808D01*
X56986799Y-107565162D01*
X56614833Y-107564838D01*
X56271057Y-107706883D01*
X56007808Y-107969673D01*
X55865162Y-108313201D01*
X55864838Y-108685167D01*
X50785000Y-108685167D01*
X50785000Y-106985167D01*
X68064838Y-106985167D01*
X68206883Y-107328943D01*
X68469673Y-107592192D01*
X68813201Y-107734838D01*
X69185167Y-107735162D01*
X69281962Y-107695167D01*
X74304838Y-107695167D01*
X74446883Y-108038943D01*
X74709673Y-108302192D01*
X75053201Y-108444838D01*
X75425167Y-108445162D01*
X75768943Y-108303117D01*
X76032192Y-108040327D01*
X76157174Y-107739339D01*
X76359673Y-107942192D01*
X76703201Y-108084838D01*
X77075167Y-108085162D01*
X77418943Y-107943117D01*
X77577168Y-107785167D01*
X114264838Y-107785167D01*
X114406883Y-108128943D01*
X114669673Y-108392192D01*
X115013201Y-108534838D01*
X115385167Y-108535162D01*
X115728943Y-108393117D01*
X115992192Y-108130327D01*
X116134838Y-107786799D01*
X116135162Y-107414833D01*
X115993117Y-107071057D01*
X115730327Y-106807808D01*
X115386799Y-106665162D01*
X115014833Y-106664838D01*
X114671057Y-106806883D01*
X114407808Y-107069673D01*
X114265162Y-107413201D01*
X114264838Y-107785167D01*
X77577168Y-107785167D01*
X77682192Y-107680327D01*
X77824838Y-107336799D01*
X77825162Y-106964833D01*
X77683117Y-106621057D01*
X77447639Y-106385167D01*
X88580038Y-106385167D01*
X88722083Y-106728943D01*
X88984873Y-106992192D01*
X89328401Y-107134838D01*
X89700367Y-107135162D01*
X90044143Y-106993117D01*
X90307392Y-106730327D01*
X90351058Y-106625167D01*
X94994838Y-106625167D01*
X95136883Y-106968943D01*
X95399673Y-107232192D01*
X95743201Y-107374838D01*
X96115167Y-107375162D01*
X96458943Y-107233117D01*
X96722192Y-106970327D01*
X96864838Y-106626799D01*
X96865162Y-106254833D01*
X96723117Y-105911057D01*
X96460327Y-105647808D01*
X96116799Y-105505162D01*
X95744833Y-105504838D01*
X95401057Y-105646883D01*
X95137808Y-105909673D01*
X94995162Y-106253201D01*
X94994838Y-106625167D01*
X90351058Y-106625167D01*
X90450038Y-106386799D01*
X90450362Y-106014833D01*
X90308317Y-105671057D01*
X90045527Y-105407808D01*
X89701999Y-105265162D01*
X89330033Y-105264838D01*
X88986257Y-105406883D01*
X88723008Y-105669673D01*
X88580362Y-106013201D01*
X88580038Y-106385167D01*
X77447639Y-106385167D01*
X77420327Y-106357808D01*
X77076799Y-106215162D01*
X76704833Y-106214838D01*
X76361057Y-106356883D01*
X76097808Y-106619673D01*
X75972826Y-106920661D01*
X75770327Y-106717808D01*
X75426799Y-106575162D01*
X75054833Y-106574838D01*
X74711057Y-106716883D01*
X74447808Y-106979673D01*
X74305162Y-107323201D01*
X74304838Y-107695167D01*
X69281962Y-107695167D01*
X69528943Y-107593117D01*
X69792192Y-107330327D01*
X69934838Y-106986799D01*
X69935162Y-106614833D01*
X69793117Y-106271057D01*
X69707377Y-106185167D01*
X72664838Y-106185167D01*
X72806883Y-106528943D01*
X73069673Y-106792192D01*
X73413201Y-106934838D01*
X73785167Y-106935162D01*
X74128943Y-106793117D01*
X74392192Y-106530327D01*
X74534838Y-106186799D01*
X74535162Y-105814833D01*
X74393117Y-105471057D01*
X74130327Y-105207808D01*
X73786799Y-105065162D01*
X73414833Y-105064838D01*
X73071057Y-105206883D01*
X72807808Y-105469673D01*
X72665162Y-105813201D01*
X72664838Y-106185167D01*
X69707377Y-106185167D01*
X69530327Y-106007808D01*
X69186799Y-105865162D01*
X68814833Y-105864838D01*
X68471057Y-106006883D01*
X68207808Y-106269673D01*
X68065162Y-106613201D01*
X68064838Y-106985167D01*
X50785000Y-106985167D01*
X50785000Y-105485167D01*
X55964838Y-105485167D01*
X56106883Y-105828943D01*
X56369673Y-106092192D01*
X56713201Y-106234838D01*
X57085167Y-106235162D01*
X57428943Y-106093117D01*
X57692192Y-105830327D01*
X57752467Y-105685167D01*
X63864838Y-105685167D01*
X64006883Y-106028943D01*
X64269673Y-106292192D01*
X64613201Y-106434838D01*
X64985167Y-106435162D01*
X65328943Y-106293117D01*
X65592192Y-106030327D01*
X65734838Y-105686799D01*
X65735162Y-105314833D01*
X65593117Y-104971057D01*
X65437499Y-104815167D01*
X95534838Y-104815167D01*
X95676883Y-105158943D01*
X95939673Y-105422192D01*
X96283201Y-105564838D01*
X96655167Y-105565162D01*
X96998943Y-105423117D01*
X97262192Y-105160327D01*
X97404838Y-104816799D01*
X97405162Y-104444833D01*
X97263117Y-104101057D01*
X97000327Y-103837808D01*
X96656799Y-103695162D01*
X96284833Y-103694838D01*
X95941057Y-103836883D01*
X95677808Y-104099673D01*
X95535162Y-104443201D01*
X95534838Y-104815167D01*
X65437499Y-104815167D01*
X65330327Y-104707808D01*
X64986799Y-104565162D01*
X64614833Y-104564838D01*
X64271057Y-104706883D01*
X64007808Y-104969673D01*
X63865162Y-105313201D01*
X63864838Y-105685167D01*
X57752467Y-105685167D01*
X57834838Y-105486799D01*
X57835162Y-105114833D01*
X57693117Y-104771057D01*
X57430327Y-104507808D01*
X57086799Y-104365162D01*
X56714833Y-104364838D01*
X56371057Y-104506883D01*
X56107808Y-104769673D01*
X55965162Y-105113201D01*
X55964838Y-105485167D01*
X50785000Y-105485167D01*
X50785000Y-103085167D01*
X50864838Y-103085167D01*
X51006883Y-103428943D01*
X51269673Y-103692192D01*
X51613201Y-103834838D01*
X51985167Y-103835162D01*
X52328943Y-103693117D01*
X52592192Y-103430327D01*
X52734838Y-103086799D01*
X52735162Y-102714833D01*
X52593117Y-102371057D01*
X52330327Y-102107808D01*
X51986799Y-101965162D01*
X51614833Y-101964838D01*
X51271057Y-102106883D01*
X51007808Y-102369673D01*
X50865162Y-102713201D01*
X50864838Y-103085167D01*
X50785000Y-103085167D01*
X50785000Y-100000000D01*
X51965000Y-100000000D01*
X52119905Y-100778761D01*
X52561038Y-101438962D01*
X53221239Y-101880095D01*
X54000000Y-102035000D01*
X54778761Y-101880095D01*
X55438962Y-101438962D01*
X55877113Y-100783223D01*
X58553035Y-100783223D01*
X58580222Y-101353454D01*
X58746136Y-101754005D01*
X58992255Y-101828139D01*
X59820395Y-101000000D01*
X58992255Y-100171861D01*
X58746136Y-100245995D01*
X58553035Y-100783223D01*
X55877113Y-100783223D01*
X55880095Y-100778761D01*
X56035000Y-100000000D01*
X55880095Y-99221239D01*
X55438962Y-98561038D01*
X54778761Y-98119905D01*
X54000000Y-97965000D01*
X53221239Y-98119905D01*
X52561038Y-98561038D01*
X52119905Y-99221239D01*
X51965000Y-100000000D01*
X50785000Y-100000000D01*
X50785000Y-97945167D01*
X57184838Y-97945167D01*
X57326883Y-98288943D01*
X57589673Y-98552192D01*
X57933201Y-98694838D01*
X58305167Y-98695162D01*
X58633442Y-98559522D01*
X58553035Y-98783223D01*
X58580222Y-99353454D01*
X58746136Y-99754005D01*
X58992255Y-99828139D01*
X59820395Y-99000000D01*
X59806252Y-98985858D01*
X59985858Y-98806252D01*
X60000000Y-98820395D01*
X60014142Y-98806252D01*
X60193748Y-98985858D01*
X60179605Y-99000000D01*
X60193748Y-99014142D01*
X60014142Y-99193748D01*
X60000000Y-99179605D01*
X59566034Y-99613571D01*
X59245995Y-99746136D01*
X59171861Y-99992255D01*
X59179606Y-100000000D01*
X59171861Y-100007745D01*
X59245995Y-100253864D01*
X59538668Y-100359062D01*
X60000000Y-100820395D01*
X60014143Y-100806253D01*
X60193748Y-100985858D01*
X60179605Y-101000000D01*
X60193748Y-101014142D01*
X60014142Y-101193748D01*
X60000000Y-101179605D01*
X59171861Y-102007745D01*
X59245995Y-102253864D01*
X59783223Y-102446965D01*
X60353454Y-102419778D01*
X60754005Y-102253864D01*
X60828139Y-102007747D01*
X60943014Y-102122622D01*
X61018091Y-102047545D01*
X61186077Y-102215824D01*
X61713309Y-102434750D01*
X62284187Y-102435248D01*
X62811800Y-102217243D01*
X62999974Y-102029397D01*
X63186077Y-102215824D01*
X63713309Y-102434750D01*
X64284187Y-102435248D01*
X64811800Y-102217243D01*
X64999974Y-102029397D01*
X65186077Y-102215824D01*
X65713309Y-102434750D01*
X66284187Y-102435248D01*
X66811800Y-102217243D01*
X66999974Y-102029397D01*
X67186077Y-102215824D01*
X67713309Y-102434750D01*
X68284187Y-102435248D01*
X68811800Y-102217243D01*
X68999974Y-102029397D01*
X69186077Y-102215824D01*
X69713309Y-102434750D01*
X70284187Y-102435248D01*
X70538169Y-102330305D01*
X70441462Y-102563201D01*
X70441138Y-102935167D01*
X70583183Y-103278943D01*
X70845973Y-103542192D01*
X71189501Y-103684838D01*
X71561467Y-103685162D01*
X71905243Y-103543117D01*
X72168492Y-103280327D01*
X72311138Y-102936799D01*
X72311462Y-102564833D01*
X72257909Y-102435225D01*
X72284187Y-102435248D01*
X72811800Y-102217243D01*
X72999974Y-102029397D01*
X73186077Y-102215824D01*
X73713309Y-102434750D01*
X74284187Y-102435248D01*
X74811800Y-102217243D01*
X74999974Y-102029397D01*
X75186077Y-102215824D01*
X75713309Y-102434750D01*
X76284187Y-102435248D01*
X76811800Y-102217243D01*
X76999974Y-102029397D01*
X77186077Y-102215824D01*
X77713309Y-102434750D01*
X78284187Y-102435248D01*
X78811800Y-102217243D01*
X78999974Y-102029397D01*
X79186077Y-102215824D01*
X79713309Y-102434750D01*
X80284187Y-102435248D01*
X80811800Y-102217243D01*
X80999974Y-102029397D01*
X81186077Y-102215824D01*
X81713309Y-102434750D01*
X82284187Y-102435248D01*
X82811800Y-102217243D01*
X82999974Y-102029397D01*
X83186077Y-102215824D01*
X83381014Y-102296769D01*
X83207808Y-102469673D01*
X83065162Y-102813201D01*
X83064838Y-103185167D01*
X83206883Y-103528943D01*
X83469673Y-103792192D01*
X83813201Y-103934838D01*
X84185167Y-103935162D01*
X84528943Y-103793117D01*
X84792192Y-103530327D01*
X84934838Y-103186799D01*
X84935162Y-102814833D01*
X84793117Y-102471057D01*
X84619191Y-102296827D01*
X84811800Y-102217243D01*
X84999974Y-102029397D01*
X85186077Y-102215824D01*
X85713309Y-102434750D01*
X86284187Y-102435248D01*
X86811800Y-102217243D01*
X86999974Y-102029397D01*
X87186077Y-102215824D01*
X87713309Y-102434750D01*
X88284187Y-102435248D01*
X88811800Y-102217243D01*
X88999974Y-102029397D01*
X89186077Y-102215824D01*
X89713309Y-102434750D01*
X90284187Y-102435248D01*
X90811800Y-102217243D01*
X90999974Y-102029397D01*
X91186077Y-102215824D01*
X91713309Y-102434750D01*
X92284187Y-102435248D01*
X92811800Y-102217243D01*
X92999974Y-102029397D01*
X93186077Y-102215824D01*
X93713309Y-102434750D01*
X94284187Y-102435248D01*
X94811800Y-102217243D01*
X94999974Y-102029397D01*
X95186077Y-102215824D01*
X95713309Y-102434750D01*
X95801854Y-102434827D01*
X95766362Y-102520301D01*
X95766038Y-102892267D01*
X95908083Y-103236043D01*
X96170873Y-103499292D01*
X96514401Y-103641938D01*
X96886367Y-103642262D01*
X97230143Y-103500217D01*
X97493392Y-103237427D01*
X97557765Y-103082400D01*
X97634960Y-103082400D01*
X97634960Y-105317600D01*
X97679238Y-105552917D01*
X97818310Y-105769041D01*
X98030510Y-105914031D01*
X98282400Y-105965040D01*
X100517600Y-105965040D01*
X100752917Y-105920762D01*
X100969041Y-105781690D01*
X101114031Y-105569490D01*
X101149448Y-105394596D01*
X101179238Y-105552917D01*
X101318310Y-105769041D01*
X101530510Y-105914031D01*
X101595926Y-105927278D01*
X101585162Y-105953201D01*
X101584838Y-106325167D01*
X101726883Y-106668943D01*
X101989673Y-106932192D01*
X102333201Y-107074838D01*
X102705167Y-107075162D01*
X103048943Y-106933117D01*
X103312192Y-106670327D01*
X103454838Y-106326799D01*
X103455153Y-105965040D01*
X104017600Y-105965040D01*
X104252917Y-105920762D01*
X104469041Y-105781690D01*
X104614031Y-105569490D01*
X104649448Y-105394596D01*
X104679238Y-105552917D01*
X104818310Y-105769041D01*
X105030510Y-105914031D01*
X105282400Y-105965040D01*
X107517600Y-105965040D01*
X107752917Y-105920762D01*
X107969041Y-105781690D01*
X108114031Y-105569490D01*
X108165040Y-105317600D01*
X108165040Y-104345167D01*
X108204838Y-104345167D01*
X108346883Y-104688943D01*
X108609673Y-104952192D01*
X108953201Y-105094838D01*
X109095073Y-105094962D01*
X109094838Y-105365167D01*
X109236883Y-105708943D01*
X109499673Y-105972192D01*
X109843201Y-106114838D01*
X110215167Y-106115162D01*
X110558943Y-105973117D01*
X110822192Y-105710327D01*
X110964838Y-105366799D01*
X110965162Y-104994833D01*
X110823117Y-104651057D01*
X110560327Y-104387808D01*
X110216799Y-104245162D01*
X110074927Y-104245038D01*
X110075162Y-103974833D01*
X109933117Y-103631057D01*
X109670327Y-103367808D01*
X109326799Y-103225162D01*
X108954833Y-103224838D01*
X108611057Y-103366883D01*
X108347808Y-103629673D01*
X108205162Y-103973201D01*
X108204838Y-104345167D01*
X108165040Y-104345167D01*
X108165040Y-103082400D01*
X108120762Y-102847083D01*
X107981690Y-102630959D01*
X107769490Y-102485969D01*
X107517600Y-102434960D01*
X105282400Y-102434960D01*
X105047083Y-102479238D01*
X104830959Y-102618310D01*
X104685969Y-102830510D01*
X104650552Y-103005404D01*
X104620762Y-102847083D01*
X104481690Y-102630959D01*
X104269490Y-102485969D01*
X104017600Y-102434960D01*
X101782400Y-102434960D01*
X101547083Y-102479238D01*
X101330959Y-102618310D01*
X101185969Y-102830510D01*
X101150552Y-103005404D01*
X101120762Y-102847083D01*
X100981690Y-102630959D01*
X100769490Y-102485969D01*
X100517600Y-102434960D01*
X98282400Y-102434960D01*
X98047083Y-102479238D01*
X97830959Y-102618310D01*
X97685969Y-102830510D01*
X97634960Y-103082400D01*
X97557765Y-103082400D01*
X97636038Y-102893899D01*
X97636362Y-102521933D01*
X97574367Y-102371894D01*
X97783223Y-102446965D01*
X98353454Y-102419778D01*
X98754005Y-102253864D01*
X98828139Y-102007745D01*
X98000000Y-101179605D01*
X97985858Y-101193748D01*
X97806253Y-101014143D01*
X97820395Y-101000000D01*
X97806252Y-100985858D01*
X97985858Y-100806252D01*
X98000000Y-100820395D01*
X98014143Y-100806253D01*
X98193748Y-100985858D01*
X98179605Y-101000000D01*
X99007745Y-101828139D01*
X99253864Y-101754005D01*
X99398125Y-101352655D01*
X99595801Y-101434738D01*
X99967767Y-101435062D01*
X100311543Y-101293017D01*
X100574792Y-101030227D01*
X100717438Y-100686699D01*
X100717718Y-100365583D01*
X100808467Y-100365662D01*
X101051684Y-100265167D01*
X103084838Y-100265167D01*
X103226883Y-100608943D01*
X103489673Y-100872192D01*
X103833201Y-101014838D01*
X104205167Y-101015162D01*
X104548943Y-100873117D01*
X104812192Y-100610327D01*
X104864163Y-100485167D01*
X106964838Y-100485167D01*
X107106883Y-100828943D01*
X107369673Y-101092192D01*
X107713201Y-101234838D01*
X108085167Y-101235162D01*
X108428943Y-101093117D01*
X108692192Y-100830327D01*
X108834838Y-100486799D01*
X108835100Y-100185750D01*
X124347400Y-100185750D01*
X124347400Y-101143910D01*
X124444073Y-101377299D01*
X124622702Y-101555927D01*
X124856091Y-101652600D01*
X125814250Y-101652600D01*
X125973000Y-101493850D01*
X125973000Y-100027000D01*
X126227000Y-100027000D01*
X126227000Y-101493850D01*
X126385750Y-101652600D01*
X127343909Y-101652600D01*
X127577298Y-101555927D01*
X127755927Y-101377299D01*
X127852600Y-101143910D01*
X127852600Y-100185750D01*
X127693850Y-100027000D01*
X126227000Y-100027000D01*
X125973000Y-100027000D01*
X124506150Y-100027000D01*
X124347400Y-100185750D01*
X108835100Y-100185750D01*
X108835162Y-100114833D01*
X108787715Y-100000000D01*
X128965000Y-100000000D01*
X129119905Y-100778761D01*
X129561038Y-101438962D01*
X130221239Y-101880095D01*
X131000000Y-102035000D01*
X131778761Y-101880095D01*
X132438962Y-101438962D01*
X132880095Y-100778761D01*
X133035000Y-100000000D01*
X132880095Y-99221239D01*
X132438962Y-98561038D01*
X131778761Y-98119905D01*
X131000000Y-97965000D01*
X130221239Y-98119905D01*
X129561038Y-98561038D01*
X129119905Y-99221239D01*
X128965000Y-100000000D01*
X108787715Y-100000000D01*
X108693117Y-99771057D01*
X108430327Y-99507808D01*
X108086799Y-99365162D01*
X107714833Y-99364838D01*
X107371057Y-99506883D01*
X107107808Y-99769673D01*
X106965162Y-100113201D01*
X106964838Y-100485167D01*
X104864163Y-100485167D01*
X104954838Y-100266799D01*
X104955162Y-99894833D01*
X104813117Y-99551057D01*
X104550327Y-99287808D01*
X104206799Y-99145162D01*
X103834833Y-99144838D01*
X103491057Y-99286883D01*
X103227808Y-99549673D01*
X103085162Y-99893201D01*
X103084838Y-100265167D01*
X101051684Y-100265167D01*
X101152243Y-100223617D01*
X101415492Y-99960827D01*
X101558138Y-99617299D01*
X101558462Y-99245333D01*
X101416417Y-98901557D01*
X101153627Y-98638308D01*
X100810099Y-98495662D01*
X100438133Y-98495338D01*
X100094357Y-98637383D01*
X99831108Y-98900173D01*
X99688462Y-99243701D01*
X99688182Y-99564817D01*
X99597433Y-99564738D01*
X99273834Y-99698446D01*
X99446965Y-99216777D01*
X99419778Y-98646546D01*
X99253864Y-98245995D01*
X99007745Y-98171861D01*
X98179605Y-99000000D01*
X98193748Y-99014142D01*
X98014142Y-99193748D01*
X98000000Y-99179605D01*
X97985858Y-99193748D01*
X97806253Y-99014143D01*
X97820395Y-99000000D01*
X97806252Y-98985858D01*
X97985858Y-98806252D01*
X98000000Y-98820395D01*
X98828139Y-97992255D01*
X98754005Y-97746136D01*
X98216777Y-97553035D01*
X97646546Y-97580222D01*
X97245995Y-97746136D01*
X97171861Y-97992253D01*
X97056986Y-97877378D01*
X96981909Y-97952455D01*
X96813923Y-97784176D01*
X96286691Y-97565250D01*
X95715813Y-97564752D01*
X95188200Y-97782757D01*
X95000026Y-97970603D01*
X94813923Y-97784176D01*
X94286691Y-97565250D01*
X93715813Y-97564752D01*
X93188200Y-97782757D01*
X93000026Y-97970603D01*
X92813923Y-97784176D01*
X92286691Y-97565250D01*
X91715813Y-97564752D01*
X91188200Y-97782757D01*
X91000026Y-97970603D01*
X90813923Y-97784176D01*
X90286691Y-97565250D01*
X89715813Y-97564752D01*
X89188200Y-97782757D01*
X89000026Y-97970603D01*
X88813923Y-97784176D01*
X88286691Y-97565250D01*
X87715813Y-97564752D01*
X87188200Y-97782757D01*
X87000026Y-97970603D01*
X86813923Y-97784176D01*
X86286691Y-97565250D01*
X85715813Y-97564752D01*
X85188200Y-97782757D01*
X85000026Y-97970603D01*
X84813923Y-97784176D01*
X84286691Y-97565250D01*
X83715813Y-97564752D01*
X83188200Y-97782757D01*
X83000026Y-97970603D01*
X82813923Y-97784176D01*
X82286691Y-97565250D01*
X81715813Y-97564752D01*
X81188200Y-97782757D01*
X81000026Y-97970603D01*
X80813923Y-97784176D01*
X80286691Y-97565250D01*
X79715813Y-97564752D01*
X79188200Y-97782757D01*
X79000026Y-97970603D01*
X78813923Y-97784176D01*
X78286691Y-97565250D01*
X77715813Y-97564752D01*
X77188200Y-97782757D01*
X77000026Y-97970603D01*
X76813923Y-97784176D01*
X76286691Y-97565250D01*
X75715813Y-97564752D01*
X75188200Y-97782757D01*
X75000026Y-97970603D01*
X74813923Y-97784176D01*
X74286691Y-97565250D01*
X73715813Y-97564752D01*
X73188200Y-97782757D01*
X73000026Y-97970603D01*
X72813923Y-97784176D01*
X72286691Y-97565250D01*
X71715813Y-97564752D01*
X71188200Y-97782757D01*
X71000026Y-97970603D01*
X70813923Y-97784176D01*
X70286691Y-97565250D01*
X69715813Y-97564752D01*
X69188200Y-97782757D01*
X69000026Y-97970603D01*
X68813923Y-97784176D01*
X68286691Y-97565250D01*
X67715813Y-97564752D01*
X67188200Y-97782757D01*
X67000026Y-97970603D01*
X66813923Y-97784176D01*
X66286691Y-97565250D01*
X65715813Y-97564752D01*
X65188200Y-97782757D01*
X65000026Y-97970603D01*
X64813923Y-97784176D01*
X64286691Y-97565250D01*
X63715813Y-97564752D01*
X63188200Y-97782757D01*
X63000026Y-97970603D01*
X62813923Y-97784176D01*
X62286691Y-97565250D01*
X61715813Y-97564752D01*
X61188200Y-97782757D01*
X61018148Y-97952512D01*
X60943014Y-97877378D01*
X60828139Y-97992253D01*
X60754005Y-97746136D01*
X60216777Y-97553035D01*
X59646546Y-97580222D01*
X59245995Y-97746136D01*
X59171861Y-97992253D01*
X59056986Y-97877378D01*
X59054897Y-97879467D01*
X59055162Y-97574833D01*
X58913117Y-97231057D01*
X58650327Y-96967808D01*
X58306799Y-96825162D01*
X57934833Y-96824838D01*
X57591057Y-96966883D01*
X57327808Y-97229673D01*
X57185162Y-97573201D01*
X57184838Y-97945167D01*
X50785000Y-97945167D01*
X50785000Y-96785000D01*
X108326917Y-96785000D01*
X108191308Y-96920373D01*
M02*
