%TF.GenerationSoftware,KiCad,Pcbnew,4.0.2-stable*%
%TF.CreationDate,2016-08-10T11:52:40+09:00*%
%TF.ProjectId,Shimonso-IoT-Type-R,5368696D6F6E736F2D496F542D547970,rev?*%
%TF.FileFunction,Copper,L3,Inr,Plane*%
%FSLAX46Y46*%
G04 Gerber Fmt 4.6, Leading zero omitted, Abs format (unit mm)*
G04 Created by KiCad (PCBNEW 4.0.2-stable) date 2016年08月10日水曜日 11:52:40*
%MOMM*%
G01*
G04 APERTURE LIST*
%ADD10C,0.100000*%
%ADD11R,2.235200X2.235200*%
%ADD12O,0.890000X1.550000*%
%ADD13O,1.250000X0.950000*%
%ADD14C,1.600000*%
%ADD15C,0.600000*%
%ADD16C,0.250000*%
%ADD17C,0.350000*%
%ADD18C,0.400000*%
%ADD19C,0.254000*%
G04 APERTURE END LIST*
D10*
D11*
X106400000Y-104200000D03*
X102900000Y-104200000D03*
X99400000Y-104200000D03*
X126100000Y-99900000D03*
X52200000Y-148100000D03*
X54500000Y-138800000D03*
D12*
X66600000Y-148550000D03*
X59600000Y-148550000D03*
D13*
X65600000Y-145850000D03*
X60600000Y-145850000D03*
D14*
X60000000Y-101000000D03*
X60000000Y-99000000D03*
X62000000Y-101000000D03*
X62000000Y-99000000D03*
X64000000Y-101000000D03*
X64000000Y-99000000D03*
X66000000Y-101000000D03*
X66000000Y-99000000D03*
X68000000Y-101000000D03*
X68000000Y-99000000D03*
X70000000Y-101000000D03*
X70000000Y-99000000D03*
X72000000Y-101000000D03*
X72000000Y-99000000D03*
X74000000Y-101000000D03*
X74000000Y-99000000D03*
X76000000Y-101000000D03*
X76000000Y-99000000D03*
X78000000Y-101000000D03*
X78000000Y-99000000D03*
X80000000Y-101000000D03*
X80000000Y-99000000D03*
X82000000Y-101000000D03*
X82000000Y-99000000D03*
X84000000Y-101000000D03*
X84000000Y-99000000D03*
X86000000Y-101000000D03*
X86000000Y-99000000D03*
X88000000Y-101000000D03*
X88000000Y-99000000D03*
X90000000Y-101000000D03*
X90000000Y-99000000D03*
X92000000Y-101000000D03*
X92000000Y-99000000D03*
X94000000Y-101000000D03*
X94000000Y-99000000D03*
X96000000Y-101000000D03*
X96000000Y-99000000D03*
X98000000Y-101000000D03*
X98000000Y-99000000D03*
D15*
X66990000Y-104240000D03*
X105140000Y-109170000D03*
X101820000Y-116110000D03*
X100200000Y-117260000D03*
X128670000Y-135900000D03*
X106940000Y-111940000D03*
X104630000Y-111890000D03*
X95310000Y-117440000D03*
X89530000Y-118620000D03*
X73530000Y-107910000D03*
X69300000Y-112200000D03*
X68070000Y-120980000D03*
X80400000Y-127600000D03*
X83110000Y-118390000D03*
X79560000Y-107270000D03*
X130140000Y-125790000D03*
X123860000Y-125730000D03*
X123970000Y-117000000D03*
X123825300Y-109400000D03*
X86140000Y-106200000D03*
X91470000Y-107030000D03*
X91790000Y-103900000D03*
X92380000Y-104490000D03*
X121960000Y-136790000D03*
X113410000Y-130260000D03*
X113400000Y-126470000D03*
X104800000Y-136780000D03*
X107350000Y-141474700D03*
X93600000Y-133600000D03*
X91100000Y-133600000D03*
X69900000Y-119400000D03*
X53100000Y-116750000D03*
X52450000Y-113500000D03*
X57250000Y-126550000D03*
X54150000Y-106900000D03*
X90350000Y-137990000D03*
X87950000Y-138110000D03*
X85550000Y-138120000D03*
X83150000Y-138180000D03*
X80780000Y-138180000D03*
X75150000Y-133880000D03*
X88740000Y-133480000D03*
X86360000Y-133530000D03*
X82360000Y-133520000D03*
X78370000Y-135550000D03*
X75150000Y-130900000D03*
X72710000Y-133590000D03*
X98500000Y-144240000D03*
X95500000Y-144230000D03*
X124300000Y-144420000D03*
X121300000Y-144290000D03*
X118280000Y-144330000D03*
X115310000Y-141720000D03*
X115310000Y-141710000D03*
X92510000Y-144580000D03*
X88590000Y-142260000D03*
X123600000Y-104200000D03*
X129200000Y-111850000D03*
X129100000Y-104350000D03*
X118200000Y-104400000D03*
X64900000Y-132000000D03*
X56700000Y-140900000D03*
X52100000Y-136400000D03*
X68400000Y-140800000D03*
X87197000Y-123383800D03*
X61900000Y-144600000D03*
X67500000Y-141600000D03*
X79320000Y-128110000D03*
X68350000Y-112060000D03*
X81920000Y-117690000D03*
X80620000Y-120960000D03*
X90780000Y-122470000D03*
X81470000Y-118380000D03*
X79300000Y-129090000D03*
X70999200Y-111372600D03*
X73110000Y-112120000D03*
X67526400Y-119250000D03*
X65850000Y-113320000D03*
X61950000Y-111650000D03*
X129550000Y-140880000D03*
X129610000Y-145850000D03*
X129990000Y-143030000D03*
X113410000Y-125320000D03*
X108575300Y-141530000D03*
X104860000Y-144390000D03*
X79350000Y-146900000D03*
X127190800Y-109375300D03*
X123804800Y-107605000D03*
X89874900Y-122600000D03*
X104552500Y-142120900D03*
X122750000Y-140399800D03*
X68220200Y-119943800D03*
X111939300Y-122944700D03*
X71376300Y-102750000D03*
X84000000Y-103000000D03*
X107900000Y-100300000D03*
X115700000Y-114900000D03*
X115200000Y-107600000D03*
X121291300Y-108437500D03*
X106080000Y-109210000D03*
X105530000Y-110660000D03*
X107080000Y-109940000D03*
X101700000Y-118550000D03*
X130210000Y-134740000D03*
X75240000Y-107510000D03*
X93700000Y-112890000D03*
X92000000Y-120000000D03*
X93470000Y-119170000D03*
X73460000Y-115470000D03*
X76890000Y-107150000D03*
X77020000Y-110390000D03*
X104390000Y-137840000D03*
X102150000Y-126370000D03*
X107210000Y-124280000D03*
X126350000Y-114500000D03*
X125010000Y-130912600D03*
X98845000Y-138535000D03*
X57547500Y-140047500D03*
X129310200Y-115150000D03*
X92733800Y-118163300D03*
X106624700Y-124924100D03*
X128650000Y-139673700D03*
X104050000Y-115920000D03*
X58000000Y-147000000D03*
X67800000Y-146000000D03*
X83970000Y-134290000D03*
X126840000Y-134290000D03*
X108220000Y-132340000D03*
X97371600Y-130332200D03*
X124130000Y-132940000D03*
X107580000Y-133060000D03*
X85921500Y-130773100D03*
X90050000Y-134380000D03*
X89147600Y-130129700D03*
X87389500Y-133928100D03*
X111940000Y-140450000D03*
X96600000Y-132400000D03*
X123241800Y-144561100D03*
X93780000Y-135070000D03*
X98500000Y-133300000D03*
X77620000Y-135120000D03*
X83200000Y-134000000D03*
X74370000Y-134460000D03*
X80670000Y-133940000D03*
X76730000Y-133900000D03*
X91800000Y-139860000D03*
X93330000Y-141400000D03*
X75970000Y-134390000D03*
X73530000Y-134130000D03*
X72050000Y-134200000D03*
X71079800Y-134088900D03*
X51800000Y-102900000D03*
X63000000Y-134000000D03*
X64800000Y-105500000D03*
X100280000Y-115720000D03*
X90730000Y-117290000D03*
X78460000Y-113910000D03*
X73600000Y-106000000D03*
X70300000Y-114500000D03*
X97160000Y-114320000D03*
X80160000Y-109180000D03*
X58120000Y-97760000D03*
X97530000Y-115800000D03*
X69200000Y-118000000D03*
X100200000Y-111900000D03*
X92000000Y-115700000D03*
X110030000Y-105180000D03*
X109140000Y-104160000D03*
X100623300Y-99430500D03*
X99782600Y-100499900D03*
X96470000Y-104630000D03*
X102520000Y-106140000D03*
X101455600Y-123575300D03*
X96701200Y-102707100D03*
X104020000Y-100080000D03*
X106059000Y-127732000D03*
X108983500Y-97450700D03*
X115184400Y-98165600D03*
X119416800Y-97550700D03*
X127310000Y-144260000D03*
X128280000Y-141280000D03*
X126780000Y-140010000D03*
X121350000Y-133810000D03*
X130030000Y-139420000D03*
X112000000Y-128750000D03*
X100500000Y-141500000D03*
X101500000Y-144750000D03*
X101800000Y-139800000D03*
X102700000Y-141400000D03*
X112000000Y-127500000D03*
X99500000Y-141500000D03*
X89515200Y-106200000D03*
X69000000Y-106800000D03*
X105459400Y-126717600D03*
X95930000Y-106440000D03*
X103170000Y-139350000D03*
X71055000Y-108812000D03*
X92845700Y-117300000D03*
X56900000Y-105300000D03*
X56800000Y-108500000D03*
X89973100Y-125600000D03*
X68000000Y-143200000D03*
X58500000Y-143600000D03*
X104924200Y-126025800D03*
X57500000Y-142500000D03*
X88360000Y-123570000D03*
X86210000Y-121480000D03*
X67200000Y-142500000D03*
D16*
X68400000Y-144000000D02*
X62500000Y-144000000D01*
X68800000Y-143600000D02*
X68400000Y-144000000D01*
X62500000Y-144000000D02*
X61900000Y-144600000D01*
X68800000Y-142900000D02*
X68800000Y-143600000D01*
X67500000Y-141600000D02*
X68800000Y-142900000D01*
X80620000Y-120960000D02*
X80630000Y-120950000D01*
X80630000Y-120950000D02*
X80630000Y-120920000D01*
X67530000Y-119260000D02*
X67530000Y-119253600D01*
X67530000Y-119253600D02*
X67526400Y-119250000D01*
X65850000Y-113320000D02*
X65860000Y-113320000D01*
X129550000Y-140880000D02*
X129550000Y-140870000D01*
X108575300Y-141530000D02*
X108570000Y-141530000D01*
X79350000Y-146900000D02*
X79300000Y-146900000D01*
X107900000Y-100780000D02*
X101270000Y-100780000D01*
X97430000Y-102430000D02*
X96000000Y-101000000D01*
X98750000Y-102430000D02*
X97430000Y-102430000D01*
X99000000Y-102180000D02*
X98750000Y-102430000D01*
X99870000Y-102180000D02*
X99000000Y-102180000D01*
X101270000Y-100780000D02*
X99870000Y-102180000D01*
X96000000Y-101000000D02*
X96000000Y-101500000D01*
X96000000Y-101500000D02*
X95125000Y-102375000D01*
X95125000Y-102375000D02*
X94500000Y-103000000D01*
X94500000Y-103000000D02*
X84000000Y-103000000D01*
D17*
X107900000Y-100800000D02*
X107900000Y-100780000D01*
X107900000Y-100780000D02*
X107900000Y-100300000D01*
X115200000Y-107600000D02*
X115200000Y-114300000D01*
X115700000Y-114800000D02*
X115700000Y-114900000D01*
X115200000Y-114300000D02*
X115700000Y-114800000D01*
X107900000Y-100800000D02*
X108400000Y-100800000D01*
X108400000Y-100800000D02*
X115200000Y-107600000D01*
D16*
X105530000Y-110660000D02*
X105530000Y-109760000D01*
X105530000Y-109760000D02*
X106080000Y-109210000D01*
X101700000Y-118550000D02*
X103450000Y-118550000D01*
X105530000Y-116470000D02*
X105530000Y-110660000D01*
X103450000Y-118550000D02*
X105530000Y-116470000D01*
X104260000Y-121110000D02*
X104260000Y-124280000D01*
X101700000Y-118550000D02*
X104260000Y-121110000D01*
D18*
X93470000Y-119170000D02*
X93470000Y-118980000D01*
X94040000Y-113230000D02*
X93700000Y-112890000D01*
X94040000Y-118410000D02*
X94040000Y-113230000D01*
X93470000Y-118980000D02*
X94040000Y-118410000D01*
X92000000Y-120000000D02*
X92640000Y-120000000D01*
X92640000Y-120000000D02*
X93470000Y-119170000D01*
X80000000Y-115420000D02*
X73510000Y-115420000D01*
X73510000Y-115420000D02*
X73460000Y-115470000D01*
X80000000Y-120000000D02*
X80000000Y-115420000D01*
X80000000Y-115420000D02*
X80000000Y-113370000D01*
X80000000Y-113370000D02*
X80000000Y-113500000D01*
X80000000Y-113500000D02*
X80000000Y-113370000D01*
X86630000Y-120000000D02*
X80000000Y-120000000D01*
X80000000Y-120000000D02*
X79750000Y-120000000D01*
X79750000Y-120000000D02*
X77020000Y-122730000D01*
X59702500Y-140047500D02*
X57547500Y-140047500D01*
X77020000Y-122730000D02*
X59702500Y-140047500D01*
X77020000Y-110390000D02*
X77020000Y-107280000D01*
X77020000Y-107280000D02*
X76890000Y-107150000D01*
X92000000Y-120000000D02*
X86630000Y-120000000D01*
X98370000Y-126370000D02*
X92000000Y-120000000D01*
X98370000Y-126370000D02*
X102150000Y-126370000D01*
X80000000Y-113370000D02*
X77020000Y-110390000D01*
X98845000Y-138535000D02*
X99215000Y-138535000D01*
X99215000Y-138535000D02*
X102150000Y-135600000D01*
X102150000Y-126370000D02*
X102150000Y-135600000D01*
X102150000Y-135600000D02*
X104390000Y-137840000D01*
X107210000Y-124280000D02*
X104260000Y-124280000D01*
X104260000Y-124280000D02*
X104240000Y-124280000D01*
X104240000Y-124280000D02*
X102150000Y-126370000D01*
X125000000Y-121750000D02*
X109740000Y-121750000D01*
X109740000Y-121750000D02*
X107210000Y-124280000D01*
X125010000Y-130912600D02*
X125000000Y-130902600D01*
X125000000Y-115850000D02*
X125000000Y-121750000D01*
X125000000Y-121750000D02*
X125000000Y-130902600D01*
X125000000Y-115850000D02*
X126350000Y-114500000D01*
D16*
X125010000Y-130912600D02*
X125010000Y-130910000D01*
X98845000Y-138535000D02*
X98850000Y-138540000D01*
X57547500Y-140047500D02*
X57500000Y-140000000D01*
D19*
G36*
X108191308Y-96920373D02*
X108048662Y-97263901D01*
X108048338Y-97635867D01*
X108190383Y-97979643D01*
X108453173Y-98242892D01*
X108796701Y-98385538D01*
X109168667Y-98385862D01*
X109253603Y-98350767D01*
X114249238Y-98350767D01*
X114391283Y-98694543D01*
X114654073Y-98957792D01*
X114997601Y-99100438D01*
X115369567Y-99100762D01*
X115713343Y-98958717D01*
X115889967Y-98782400D01*
X124334960Y-98782400D01*
X124334960Y-101017600D01*
X124379238Y-101252917D01*
X124518310Y-101469041D01*
X124730510Y-101614031D01*
X124982400Y-101665040D01*
X127217600Y-101665040D01*
X127452917Y-101620762D01*
X127669041Y-101481690D01*
X127814031Y-101269490D01*
X127865040Y-101017600D01*
X127865040Y-100000000D01*
X128965000Y-100000000D01*
X129119905Y-100778761D01*
X129561038Y-101438962D01*
X130221239Y-101880095D01*
X131000000Y-102035000D01*
X131778761Y-101880095D01*
X132438962Y-101438962D01*
X132880095Y-100778761D01*
X133035000Y-100000000D01*
X132880095Y-99221239D01*
X132438962Y-98561038D01*
X131778761Y-98119905D01*
X131000000Y-97965000D01*
X130221239Y-98119905D01*
X129561038Y-98561038D01*
X129119905Y-99221239D01*
X128965000Y-100000000D01*
X127865040Y-100000000D01*
X127865040Y-98782400D01*
X127820762Y-98547083D01*
X127681690Y-98330959D01*
X127469490Y-98185969D01*
X127217600Y-98134960D01*
X124982400Y-98134960D01*
X124747083Y-98179238D01*
X124530959Y-98318310D01*
X124385969Y-98530510D01*
X124334960Y-98782400D01*
X115889967Y-98782400D01*
X115976592Y-98695927D01*
X116119238Y-98352399D01*
X116119562Y-97980433D01*
X115977517Y-97636657D01*
X115714727Y-97373408D01*
X115371199Y-97230762D01*
X114999233Y-97230438D01*
X114655457Y-97372483D01*
X114392208Y-97635273D01*
X114249562Y-97978801D01*
X114249238Y-98350767D01*
X109253603Y-98350767D01*
X109512443Y-98243817D01*
X109775692Y-97981027D01*
X109918338Y-97637499D01*
X109918662Y-97265533D01*
X109776617Y-96921757D01*
X109640098Y-96785000D01*
X118860392Y-96785000D01*
X118624608Y-97020373D01*
X118481962Y-97363901D01*
X118481638Y-97735867D01*
X118623683Y-98079643D01*
X118886473Y-98342892D01*
X119230001Y-98485538D01*
X119601967Y-98485862D01*
X119945743Y-98343817D01*
X120208992Y-98081027D01*
X120351638Y-97737499D01*
X120351962Y-97365533D01*
X120209917Y-97021757D01*
X119973573Y-96785000D01*
X134215000Y-96785000D01*
X134215000Y-149215000D01*
X67618859Y-149215000D01*
X67680000Y-148907624D01*
X67680000Y-148192376D01*
X67597790Y-147779078D01*
X67363675Y-147428701D01*
X67013298Y-147194586D01*
X66600000Y-147112376D01*
X66186702Y-147194586D01*
X65836325Y-147428701D01*
X65602210Y-147779078D01*
X65520000Y-148192376D01*
X65520000Y-148907624D01*
X65581141Y-149215000D01*
X60618859Y-149215000D01*
X60680000Y-148907624D01*
X60680000Y-148192376D01*
X60597790Y-147779078D01*
X60363675Y-147428701D01*
X60013298Y-147194586D01*
X59600000Y-147112376D01*
X59186702Y-147194586D01*
X58836325Y-147428701D01*
X58831216Y-147436347D01*
X58934838Y-147186799D01*
X58935162Y-146814833D01*
X58793117Y-146471057D01*
X58530327Y-146207808D01*
X58186799Y-146065162D01*
X57814833Y-146064838D01*
X57471057Y-146206883D01*
X57207808Y-146469673D01*
X57065162Y-146813201D01*
X57064838Y-147185167D01*
X57206883Y-147528943D01*
X57469673Y-147792192D01*
X57813201Y-147934838D01*
X58185167Y-147935162D01*
X58528943Y-147793117D01*
X58720803Y-147601592D01*
X58602210Y-147779078D01*
X58520000Y-148192376D01*
X58520000Y-148907624D01*
X58581141Y-149215000D01*
X53965040Y-149215000D01*
X53965040Y-146982400D01*
X53920762Y-146747083D01*
X53781690Y-146530959D01*
X53569490Y-146385969D01*
X53317600Y-146334960D01*
X51082400Y-146334960D01*
X50847083Y-146379238D01*
X50785000Y-146419187D01*
X50785000Y-145850000D01*
X59315315Y-145850000D01*
X59399809Y-146274779D01*
X59640426Y-146634889D01*
X60000536Y-146875506D01*
X60425315Y-146960000D01*
X60774685Y-146960000D01*
X61199464Y-146875506D01*
X61559574Y-146634889D01*
X61800191Y-146274779D01*
X61884685Y-145850000D01*
X61822014Y-145534933D01*
X62085167Y-145535162D01*
X62428943Y-145393117D01*
X62692192Y-145130327D01*
X62834838Y-144786799D01*
X62834861Y-144760000D01*
X65324768Y-144760000D01*
X65000536Y-144824494D01*
X64640426Y-145065111D01*
X64399809Y-145425221D01*
X64315315Y-145850000D01*
X64399809Y-146274779D01*
X64640426Y-146634889D01*
X65000536Y-146875506D01*
X65425315Y-146960000D01*
X65774685Y-146960000D01*
X66199464Y-146875506D01*
X66559574Y-146634889D01*
X66800191Y-146274779D01*
X66865044Y-145948742D01*
X66864838Y-146185167D01*
X67006883Y-146528943D01*
X67269673Y-146792192D01*
X67613201Y-146934838D01*
X67985167Y-146935162D01*
X68328943Y-146793117D01*
X68592192Y-146530327D01*
X68734838Y-146186799D01*
X68735162Y-145814833D01*
X68593117Y-145471057D01*
X68330327Y-145207808D01*
X67986799Y-145065162D01*
X67614833Y-145064838D01*
X67271057Y-145206883D01*
X67007808Y-145469673D01*
X66873413Y-145793331D01*
X66800191Y-145425221D01*
X66559574Y-145065111D01*
X66199464Y-144824494D01*
X65901209Y-144765167D01*
X91574838Y-144765167D01*
X91716883Y-145108943D01*
X91979673Y-145372192D01*
X92323201Y-145514838D01*
X92695167Y-145515162D01*
X93038943Y-145373117D01*
X93302192Y-145110327D01*
X93444838Y-144766799D01*
X93445144Y-144415167D01*
X94564838Y-144415167D01*
X94706883Y-144758943D01*
X94969673Y-145022192D01*
X95313201Y-145164838D01*
X95685167Y-145165162D01*
X96028943Y-145023117D01*
X96292192Y-144760327D01*
X96431363Y-144425167D01*
X97564838Y-144425167D01*
X97706883Y-144768943D01*
X97969673Y-145032192D01*
X98313201Y-145174838D01*
X98685167Y-145175162D01*
X99028943Y-145033117D01*
X99127064Y-144935167D01*
X100564838Y-144935167D01*
X100706883Y-145278943D01*
X100969673Y-145542192D01*
X101313201Y-145684838D01*
X101685167Y-145685162D01*
X102028943Y-145543117D01*
X102292192Y-145280327D01*
X102434838Y-144936799D01*
X102435162Y-144564833D01*
X102414641Y-144515167D01*
X117344838Y-144515167D01*
X117486883Y-144858943D01*
X117749673Y-145122192D01*
X118093201Y-145264838D01*
X118465167Y-145265162D01*
X118808943Y-145123117D01*
X119072192Y-144860327D01*
X119214838Y-144516799D01*
X119214874Y-144475167D01*
X120364838Y-144475167D01*
X120506883Y-144818943D01*
X120769673Y-145082192D01*
X121113201Y-145224838D01*
X121485167Y-145225162D01*
X121828943Y-145083117D01*
X122092192Y-144820327D01*
X122122944Y-144746267D01*
X122306638Y-144746267D01*
X122448683Y-145090043D01*
X122711473Y-145353292D01*
X123055001Y-145495938D01*
X123426967Y-145496262D01*
X123770743Y-145354217D01*
X123870907Y-145254228D01*
X124113201Y-145354838D01*
X124485167Y-145355162D01*
X124828943Y-145213117D01*
X125092192Y-144950327D01*
X125234838Y-144606799D01*
X125234978Y-144445167D01*
X126374838Y-144445167D01*
X126516883Y-144788943D01*
X126779673Y-145052192D01*
X127123201Y-145194838D01*
X127495167Y-145195162D01*
X127838943Y-145053117D01*
X128102192Y-144790327D01*
X128244838Y-144446799D01*
X128245162Y-144074833D01*
X128103117Y-143731057D01*
X127840327Y-143467808D01*
X127496799Y-143325162D01*
X127124833Y-143324838D01*
X126781057Y-143466883D01*
X126517808Y-143729673D01*
X126375162Y-144073201D01*
X126374838Y-144445167D01*
X125234978Y-144445167D01*
X125235162Y-144234833D01*
X125093117Y-143891057D01*
X124830327Y-143627808D01*
X124486799Y-143485162D01*
X124114833Y-143484838D01*
X123771057Y-143626883D01*
X123670893Y-143726872D01*
X123428599Y-143626262D01*
X123056633Y-143625938D01*
X122712857Y-143767983D01*
X122449608Y-144030773D01*
X122306962Y-144374301D01*
X122306638Y-144746267D01*
X122122944Y-144746267D01*
X122234838Y-144476799D01*
X122235162Y-144104833D01*
X122093117Y-143761057D01*
X121830327Y-143497808D01*
X121486799Y-143355162D01*
X121114833Y-143354838D01*
X120771057Y-143496883D01*
X120507808Y-143759673D01*
X120365162Y-144103201D01*
X120364838Y-144475167D01*
X119214874Y-144475167D01*
X119215162Y-144144833D01*
X119073117Y-143801057D01*
X118810327Y-143537808D01*
X118466799Y-143395162D01*
X118094833Y-143394838D01*
X117751057Y-143536883D01*
X117487808Y-143799673D01*
X117345162Y-144143201D01*
X117344838Y-144515167D01*
X102414641Y-144515167D01*
X102293117Y-144221057D01*
X102030327Y-143957808D01*
X101686799Y-143815162D01*
X101314833Y-143814838D01*
X100971057Y-143956883D01*
X100707808Y-144219673D01*
X100565162Y-144563201D01*
X100564838Y-144935167D01*
X99127064Y-144935167D01*
X99292192Y-144770327D01*
X99434838Y-144426799D01*
X99435162Y-144054833D01*
X99293117Y-143711057D01*
X99030327Y-143447808D01*
X98686799Y-143305162D01*
X98314833Y-143304838D01*
X97971057Y-143446883D01*
X97707808Y-143709673D01*
X97565162Y-144053201D01*
X97564838Y-144425167D01*
X96431363Y-144425167D01*
X96434838Y-144416799D01*
X96435162Y-144044833D01*
X96293117Y-143701057D01*
X96030327Y-143437808D01*
X95686799Y-143295162D01*
X95314833Y-143294838D01*
X94971057Y-143436883D01*
X94707808Y-143699673D01*
X94565162Y-144043201D01*
X94564838Y-144415167D01*
X93445144Y-144415167D01*
X93445162Y-144394833D01*
X93303117Y-144051057D01*
X93040327Y-143787808D01*
X92696799Y-143645162D01*
X92324833Y-143644838D01*
X91981057Y-143786883D01*
X91717808Y-144049673D01*
X91575162Y-144393201D01*
X91574838Y-144765167D01*
X65901209Y-144765167D01*
X65875232Y-144760000D01*
X68400000Y-144760000D01*
X68690839Y-144702148D01*
X68937401Y-144537401D01*
X69337401Y-144137401D01*
X69502148Y-143890840D01*
X69522843Y-143786799D01*
X69560000Y-143600000D01*
X69560000Y-142900000D01*
X69502148Y-142609161D01*
X69392572Y-142445167D01*
X87654838Y-142445167D01*
X87796883Y-142788943D01*
X88059673Y-143052192D01*
X88403201Y-143194838D01*
X88775167Y-143195162D01*
X89118943Y-143053117D01*
X89382192Y-142790327D01*
X89524838Y-142446799D01*
X89525162Y-142074833D01*
X89383117Y-141731057D01*
X89237482Y-141585167D01*
X92394838Y-141585167D01*
X92536883Y-141928943D01*
X92799673Y-142192192D01*
X93143201Y-142334838D01*
X93515167Y-142335162D01*
X93858943Y-142193117D01*
X94122192Y-141930327D01*
X94223991Y-141685167D01*
X98564838Y-141685167D01*
X98706883Y-142028943D01*
X98969673Y-142292192D01*
X99313201Y-142434838D01*
X99685167Y-142435162D01*
X100000351Y-142304931D01*
X100313201Y-142434838D01*
X100685167Y-142435162D01*
X101028943Y-142293117D01*
X101292192Y-142030327D01*
X101434838Y-141686799D01*
X101435162Y-141314833D01*
X101293117Y-140971057D01*
X101030327Y-140707808D01*
X100686799Y-140565162D01*
X100314833Y-140564838D01*
X99999649Y-140695069D01*
X99686799Y-140565162D01*
X99314833Y-140564838D01*
X98971057Y-140706883D01*
X98707808Y-140969673D01*
X98565162Y-141313201D01*
X98564838Y-141685167D01*
X94223991Y-141685167D01*
X94264838Y-141586799D01*
X94265162Y-141214833D01*
X94123117Y-140871057D01*
X93860327Y-140607808D01*
X93516799Y-140465162D01*
X93144833Y-140464838D01*
X92801057Y-140606883D01*
X92537808Y-140869673D01*
X92395162Y-141213201D01*
X92394838Y-141585167D01*
X89237482Y-141585167D01*
X89120327Y-141467808D01*
X88776799Y-141325162D01*
X88404833Y-141324838D01*
X88061057Y-141466883D01*
X87797808Y-141729673D01*
X87655162Y-142073201D01*
X87654838Y-142445167D01*
X69392572Y-142445167D01*
X69337401Y-142362599D01*
X68673476Y-141698674D01*
X68928943Y-141593117D01*
X69192192Y-141330327D01*
X69334838Y-140986799D01*
X69335162Y-140614833D01*
X69193117Y-140271057D01*
X68967621Y-140045167D01*
X90864838Y-140045167D01*
X91006883Y-140388943D01*
X91269673Y-140652192D01*
X91613201Y-140794838D01*
X91985167Y-140795162D01*
X92328943Y-140653117D01*
X92592192Y-140390327D01*
X92734838Y-140046799D01*
X92734891Y-139985167D01*
X100864838Y-139985167D01*
X101006883Y-140328943D01*
X101269673Y-140592192D01*
X101613201Y-140734838D01*
X101985167Y-140735162D01*
X102083082Y-140694704D01*
X101907808Y-140869673D01*
X101765162Y-141213201D01*
X101764838Y-141585167D01*
X101906883Y-141928943D01*
X102169673Y-142192192D01*
X102513201Y-142334838D01*
X102885167Y-142335162D01*
X103228943Y-142193117D01*
X103492192Y-141930327D01*
X103604497Y-141659867D01*
X106414838Y-141659867D01*
X106556883Y-142003643D01*
X106819673Y-142266892D01*
X107163201Y-142409538D01*
X107535167Y-142409862D01*
X107878943Y-142267817D01*
X108142192Y-142005027D01*
X108187810Y-141895167D01*
X114374838Y-141895167D01*
X114374847Y-141895188D01*
X114374838Y-141905167D01*
X114516883Y-142248943D01*
X114779673Y-142512192D01*
X115123201Y-142654838D01*
X115495167Y-142655162D01*
X115838943Y-142513117D01*
X116102192Y-142250327D01*
X116244838Y-141906799D01*
X116245162Y-141534833D01*
X116245153Y-141534812D01*
X116245162Y-141524833D01*
X116103117Y-141181057D01*
X115840327Y-140917808D01*
X115496799Y-140775162D01*
X115124833Y-140774838D01*
X114781057Y-140916883D01*
X114517808Y-141179673D01*
X114375162Y-141523201D01*
X114374838Y-141895167D01*
X108187810Y-141895167D01*
X108284838Y-141661499D01*
X108285162Y-141289533D01*
X108143117Y-140945757D01*
X107880327Y-140682508D01*
X107766318Y-140635167D01*
X111004838Y-140635167D01*
X111146883Y-140978943D01*
X111409673Y-141242192D01*
X111753201Y-141384838D01*
X112125167Y-141385162D01*
X112468943Y-141243117D01*
X112732192Y-140980327D01*
X112874838Y-140636799D01*
X112875162Y-140264833D01*
X112846377Y-140195167D01*
X125844838Y-140195167D01*
X125986883Y-140538943D01*
X126249673Y-140802192D01*
X126593201Y-140944838D01*
X126965167Y-140945162D01*
X127308943Y-140803117D01*
X127572192Y-140540327D01*
X127714838Y-140196799D01*
X127715132Y-139859578D01*
X127856883Y-140202643D01*
X128026865Y-140372922D01*
X127751057Y-140486883D01*
X127487808Y-140749673D01*
X127345162Y-141093201D01*
X127344838Y-141465167D01*
X127486883Y-141808943D01*
X127749673Y-142072192D01*
X128093201Y-142214838D01*
X128465167Y-142215162D01*
X128808943Y-142073117D01*
X129072192Y-141810327D01*
X129214838Y-141466799D01*
X129215162Y-141094833D01*
X129073117Y-140751057D01*
X128903135Y-140580778D01*
X129178943Y-140466817D01*
X129442192Y-140204027D01*
X129456684Y-140169128D01*
X129499673Y-140212192D01*
X129843201Y-140354838D01*
X130215167Y-140355162D01*
X130558943Y-140213117D01*
X130822192Y-139950327D01*
X130964838Y-139606799D01*
X130965162Y-139234833D01*
X130823117Y-138891057D01*
X130560327Y-138627808D01*
X130216799Y-138485162D01*
X129844833Y-138484838D01*
X129501057Y-138626883D01*
X129237808Y-138889673D01*
X129223316Y-138924572D01*
X129180327Y-138881508D01*
X128836799Y-138738862D01*
X128464833Y-138738538D01*
X128121057Y-138880583D01*
X127857808Y-139143373D01*
X127715162Y-139486901D01*
X127714868Y-139824122D01*
X127573117Y-139481057D01*
X127310327Y-139217808D01*
X126966799Y-139075162D01*
X126594833Y-139074838D01*
X126251057Y-139216883D01*
X125987808Y-139479673D01*
X125845162Y-139823201D01*
X125844838Y-140195167D01*
X112846377Y-140195167D01*
X112733117Y-139921057D01*
X112470327Y-139657808D01*
X112126799Y-139515162D01*
X111754833Y-139514838D01*
X111411057Y-139656883D01*
X111147808Y-139919673D01*
X111005162Y-140263201D01*
X111004838Y-140635167D01*
X107766318Y-140635167D01*
X107536799Y-140539862D01*
X107164833Y-140539538D01*
X106821057Y-140681583D01*
X106557808Y-140944373D01*
X106415162Y-141287901D01*
X106414838Y-141659867D01*
X103604497Y-141659867D01*
X103634838Y-141586799D01*
X103635162Y-141214833D01*
X103493117Y-140871057D01*
X103230327Y-140607808D01*
X102886799Y-140465162D01*
X102514833Y-140464838D01*
X102416918Y-140505296D01*
X102592192Y-140330327D01*
X102665807Y-140153044D01*
X102983201Y-140284838D01*
X103355167Y-140285162D01*
X103698943Y-140143117D01*
X103962192Y-139880327D01*
X104104838Y-139536799D01*
X104105162Y-139164833D01*
X103963117Y-138821057D01*
X103700327Y-138557808D01*
X103356799Y-138415162D01*
X102984833Y-138414838D01*
X102641057Y-138556883D01*
X102377808Y-138819673D01*
X102304193Y-138996956D01*
X101986799Y-138865162D01*
X101614833Y-138864838D01*
X101271057Y-139006883D01*
X101007808Y-139269673D01*
X100865162Y-139613201D01*
X100864838Y-139985167D01*
X92734891Y-139985167D01*
X92735162Y-139674833D01*
X92593117Y-139331057D01*
X92330327Y-139067808D01*
X91986799Y-138925162D01*
X91614833Y-138924838D01*
X91271057Y-139066883D01*
X91007808Y-139329673D01*
X90865162Y-139673201D01*
X90864838Y-140045167D01*
X68967621Y-140045167D01*
X68930327Y-140007808D01*
X68586799Y-139865162D01*
X68214833Y-139864838D01*
X67871057Y-140006883D01*
X67607808Y-140269673D01*
X67465162Y-140613201D01*
X67465117Y-140664969D01*
X67314833Y-140664838D01*
X66971057Y-140806883D01*
X66707808Y-141069673D01*
X66565162Y-141413201D01*
X66564838Y-141785167D01*
X66572956Y-141804813D01*
X66407808Y-141969673D01*
X66265162Y-142313201D01*
X66264838Y-142685167D01*
X66406883Y-143028943D01*
X66617572Y-143240000D01*
X62500000Y-143240000D01*
X62209161Y-143297852D01*
X61962599Y-143462599D01*
X61760320Y-143664878D01*
X61714833Y-143664838D01*
X61371057Y-143806883D01*
X61107808Y-144069673D01*
X60965162Y-144413201D01*
X60964844Y-144777825D01*
X60774685Y-144740000D01*
X60425315Y-144740000D01*
X60000536Y-144824494D01*
X59640426Y-145065111D01*
X59399809Y-145425221D01*
X59315315Y-145850000D01*
X50785000Y-145850000D01*
X50785000Y-137682400D01*
X52734960Y-137682400D01*
X52734960Y-139917600D01*
X52779238Y-140152917D01*
X52918310Y-140369041D01*
X53130510Y-140514031D01*
X53382400Y-140565040D01*
X55617600Y-140565040D01*
X55844405Y-140522364D01*
X55765162Y-140713201D01*
X55764838Y-141085167D01*
X55906883Y-141428943D01*
X56169673Y-141692192D01*
X56513201Y-141834838D01*
X56842591Y-141835125D01*
X56707808Y-141969673D01*
X56565162Y-142313201D01*
X56564838Y-142685167D01*
X56706883Y-143028943D01*
X56969673Y-143292192D01*
X57313201Y-143434838D01*
X57565143Y-143435057D01*
X57564838Y-143785167D01*
X57706883Y-144128943D01*
X57969673Y-144392192D01*
X58313201Y-144534838D01*
X58685167Y-144535162D01*
X59028943Y-144393117D01*
X59292192Y-144130327D01*
X59434838Y-143786799D01*
X59435162Y-143414833D01*
X59293117Y-143071057D01*
X59030327Y-142807808D01*
X58686799Y-142665162D01*
X58434857Y-142664943D01*
X58435162Y-142314833D01*
X58293117Y-141971057D01*
X58030327Y-141707808D01*
X57686799Y-141565162D01*
X57357409Y-141564875D01*
X57492192Y-141430327D01*
X57634838Y-141086799D01*
X57634929Y-140982577D01*
X57732667Y-140982662D01*
X57975078Y-140882500D01*
X59702500Y-140882500D01*
X60022041Y-140818939D01*
X60292934Y-140637934D01*
X62565701Y-138365167D01*
X79844838Y-138365167D01*
X79986883Y-138708943D01*
X80249673Y-138972192D01*
X80593201Y-139114838D01*
X80965167Y-139115162D01*
X81308943Y-138973117D01*
X81572192Y-138710327D01*
X81714838Y-138366799D01*
X81714839Y-138365167D01*
X82214838Y-138365167D01*
X82356883Y-138708943D01*
X82619673Y-138972192D01*
X82963201Y-139114838D01*
X83335167Y-139115162D01*
X83678943Y-138973117D01*
X83942192Y-138710327D01*
X84084838Y-138366799D01*
X84084891Y-138305167D01*
X84614838Y-138305167D01*
X84756883Y-138648943D01*
X85019673Y-138912192D01*
X85363201Y-139054838D01*
X85735167Y-139055162D01*
X86078943Y-138913117D01*
X86342192Y-138650327D01*
X86484838Y-138306799D01*
X86484848Y-138295167D01*
X87014838Y-138295167D01*
X87156883Y-138638943D01*
X87419673Y-138902192D01*
X87763201Y-139044838D01*
X88135167Y-139045162D01*
X88478943Y-138903117D01*
X88742192Y-138640327D01*
X88884838Y-138296799D01*
X88884943Y-138175167D01*
X89414838Y-138175167D01*
X89556883Y-138518943D01*
X89819673Y-138782192D01*
X90163201Y-138924838D01*
X90535167Y-138925162D01*
X90878943Y-138783117D01*
X91142192Y-138520327D01*
X91284838Y-138176799D01*
X91285162Y-137804833D01*
X91143117Y-137461057D01*
X90880327Y-137197808D01*
X90536799Y-137055162D01*
X90164833Y-137054838D01*
X89821057Y-137196883D01*
X89557808Y-137459673D01*
X89415162Y-137803201D01*
X89414838Y-138175167D01*
X88884943Y-138175167D01*
X88885162Y-137924833D01*
X88743117Y-137581057D01*
X88480327Y-137317808D01*
X88136799Y-137175162D01*
X87764833Y-137174838D01*
X87421057Y-137316883D01*
X87157808Y-137579673D01*
X87015162Y-137923201D01*
X87014838Y-138295167D01*
X86484848Y-138295167D01*
X86485162Y-137934833D01*
X86343117Y-137591057D01*
X86080327Y-137327808D01*
X85736799Y-137185162D01*
X85364833Y-137184838D01*
X85021057Y-137326883D01*
X84757808Y-137589673D01*
X84615162Y-137933201D01*
X84614838Y-138305167D01*
X84084891Y-138305167D01*
X84085162Y-137994833D01*
X83943117Y-137651057D01*
X83680327Y-137387808D01*
X83336799Y-137245162D01*
X82964833Y-137244838D01*
X82621057Y-137386883D01*
X82357808Y-137649673D01*
X82215162Y-137993201D01*
X82214838Y-138365167D01*
X81714839Y-138365167D01*
X81715162Y-137994833D01*
X81573117Y-137651057D01*
X81310327Y-137387808D01*
X80966799Y-137245162D01*
X80594833Y-137244838D01*
X80251057Y-137386883D01*
X79987808Y-137649673D01*
X79845162Y-137993201D01*
X79844838Y-138365167D01*
X62565701Y-138365167D01*
X66656801Y-134274067D01*
X70144638Y-134274067D01*
X70286683Y-134617843D01*
X70549473Y-134881092D01*
X70893001Y-135023738D01*
X71264967Y-135024062D01*
X71467818Y-134940246D01*
X71519673Y-134992192D01*
X71863201Y-135134838D01*
X72235167Y-135135162D01*
X72578943Y-134993117D01*
X72825138Y-134747352D01*
X72999673Y-134922192D01*
X73343201Y-135064838D01*
X73652915Y-135065108D01*
X73839673Y-135252192D01*
X74183201Y-135394838D01*
X74555167Y-135395162D01*
X74898943Y-135253117D01*
X75162192Y-134990327D01*
X75187441Y-134929520D01*
X75439673Y-135182192D01*
X75783201Y-135324838D01*
X76155167Y-135325162D01*
X76498943Y-135183117D01*
X76685106Y-134997278D01*
X76684838Y-135305167D01*
X76826883Y-135648943D01*
X77089673Y-135912192D01*
X77433201Y-136054838D01*
X77566971Y-136054955D01*
X77576883Y-136078943D01*
X77839673Y-136342192D01*
X78183201Y-136484838D01*
X78555167Y-136485162D01*
X78898943Y-136343117D01*
X79162192Y-136080327D01*
X79304838Y-135736799D01*
X79305162Y-135364833D01*
X79163117Y-135021057D01*
X78900327Y-134757808D01*
X78556799Y-134615162D01*
X78423029Y-134615045D01*
X78413117Y-134591057D01*
X78150327Y-134327808D01*
X77806799Y-134185162D01*
X77624060Y-134185003D01*
X77648906Y-134125167D01*
X79734838Y-134125167D01*
X79876883Y-134468943D01*
X80139673Y-134732192D01*
X80483201Y-134874838D01*
X80855167Y-134875162D01*
X81198943Y-134733117D01*
X81462192Y-134470327D01*
X81604838Y-134126799D01*
X81604873Y-134086999D01*
X81829673Y-134312192D01*
X82173201Y-134454838D01*
X82376337Y-134455015D01*
X82406883Y-134528943D01*
X82669673Y-134792192D01*
X83013201Y-134934838D01*
X83292819Y-134935082D01*
X83439673Y-135082192D01*
X83783201Y-135224838D01*
X84155167Y-135225162D01*
X84498943Y-135083117D01*
X84762192Y-134820327D01*
X84904838Y-134476799D01*
X84905162Y-134104833D01*
X84763117Y-133761057D01*
X84717308Y-133715167D01*
X85424838Y-133715167D01*
X85566883Y-134058943D01*
X85829673Y-134322192D01*
X86173201Y-134464838D01*
X86545167Y-134465162D01*
X86591780Y-134445902D01*
X86596383Y-134457043D01*
X86859173Y-134720292D01*
X87202701Y-134862938D01*
X87574667Y-134863262D01*
X87918443Y-134721217D01*
X88181692Y-134458427D01*
X88251766Y-134289671D01*
X88553201Y-134414838D01*
X88925167Y-134415162D01*
X89115037Y-134336710D01*
X89114838Y-134565167D01*
X89256883Y-134908943D01*
X89519673Y-135172192D01*
X89863201Y-135314838D01*
X90235167Y-135315162D01*
X90578943Y-135173117D01*
X90842192Y-134910327D01*
X90984838Y-134566799D01*
X90984866Y-134534900D01*
X91285167Y-134535162D01*
X91628943Y-134393117D01*
X91892192Y-134130327D01*
X92034838Y-133786799D01*
X92034839Y-133785167D01*
X92664838Y-133785167D01*
X92806883Y-134128943D01*
X93069673Y-134392192D01*
X93116195Y-134411510D01*
X92987808Y-134539673D01*
X92845162Y-134883201D01*
X92844838Y-135255167D01*
X92986883Y-135598943D01*
X93249673Y-135862192D01*
X93593201Y-136004838D01*
X93965167Y-136005162D01*
X94308943Y-135863117D01*
X94572192Y-135600327D01*
X94714838Y-135256799D01*
X94715162Y-134884833D01*
X94573117Y-134541057D01*
X94310327Y-134277808D01*
X94263805Y-134258490D01*
X94392192Y-134130327D01*
X94534838Y-133786799D01*
X94535100Y-133485167D01*
X97564838Y-133485167D01*
X97706883Y-133828943D01*
X97969673Y-134092192D01*
X98313201Y-134234838D01*
X98685167Y-134235162D01*
X99028943Y-134093117D01*
X99292192Y-133830327D01*
X99434838Y-133486799D01*
X99435162Y-133114833D01*
X99293117Y-132771057D01*
X99030327Y-132507808D01*
X98686799Y-132365162D01*
X98314833Y-132364838D01*
X97971057Y-132506883D01*
X97707808Y-132769673D01*
X97565162Y-133113201D01*
X97564838Y-133485167D01*
X94535100Y-133485167D01*
X94535162Y-133414833D01*
X94393117Y-133071057D01*
X94130327Y-132807808D01*
X93786799Y-132665162D01*
X93414833Y-132664838D01*
X93071057Y-132806883D01*
X92807808Y-133069673D01*
X92665162Y-133413201D01*
X92664838Y-133785167D01*
X92034839Y-133785167D01*
X92035162Y-133414833D01*
X91893117Y-133071057D01*
X91630327Y-132807808D01*
X91286799Y-132665162D01*
X90914833Y-132664838D01*
X90571057Y-132806883D01*
X90307808Y-133069673D01*
X90165162Y-133413201D01*
X90165134Y-133445100D01*
X89864833Y-133444838D01*
X89674963Y-133523290D01*
X89675162Y-133294833D01*
X89533117Y-132951057D01*
X89270327Y-132687808D01*
X89023142Y-132585167D01*
X95664838Y-132585167D01*
X95806883Y-132928943D01*
X96069673Y-133192192D01*
X96413201Y-133334838D01*
X96785167Y-133335162D01*
X97128943Y-133193117D01*
X97392192Y-132930327D01*
X97534838Y-132586799D01*
X97535162Y-132214833D01*
X97393117Y-131871057D01*
X97130327Y-131607808D01*
X96786799Y-131465162D01*
X96414833Y-131464838D01*
X96071057Y-131606883D01*
X95807808Y-131869673D01*
X95665162Y-132213201D01*
X95664838Y-132585167D01*
X89023142Y-132585167D01*
X88926799Y-132545162D01*
X88554833Y-132544838D01*
X88211057Y-132686883D01*
X87947808Y-132949673D01*
X87877734Y-133118429D01*
X87576299Y-132993262D01*
X87204333Y-132992938D01*
X87157720Y-133012198D01*
X87153117Y-133001057D01*
X86890327Y-132737808D01*
X86546799Y-132595162D01*
X86174833Y-132594838D01*
X85831057Y-132736883D01*
X85567808Y-132999673D01*
X85425162Y-133343201D01*
X85424838Y-133715167D01*
X84717308Y-133715167D01*
X84500327Y-133497808D01*
X84156799Y-133355162D01*
X83877181Y-133354918D01*
X83730327Y-133207808D01*
X83386799Y-133065162D01*
X83183663Y-133064985D01*
X83153117Y-132991057D01*
X82890327Y-132727808D01*
X82546799Y-132585162D01*
X82174833Y-132584838D01*
X81831057Y-132726883D01*
X81567808Y-132989673D01*
X81425162Y-133333201D01*
X81425127Y-133373001D01*
X81200327Y-133147808D01*
X80856799Y-133005162D01*
X80484833Y-133004838D01*
X80141057Y-133146883D01*
X79877808Y-133409673D01*
X79735162Y-133753201D01*
X79734838Y-134125167D01*
X77648906Y-134125167D01*
X77664838Y-134086799D01*
X77665162Y-133714833D01*
X77523117Y-133371057D01*
X77260327Y-133107808D01*
X76916799Y-132965162D01*
X76544833Y-132964838D01*
X76201057Y-133106883D01*
X75947012Y-133360485D01*
X75943117Y-133351057D01*
X75680327Y-133087808D01*
X75336799Y-132945162D01*
X74964833Y-132944838D01*
X74621057Y-133086883D01*
X74357808Y-133349673D01*
X74285037Y-133524925D01*
X74247085Y-133524892D01*
X74060327Y-133337808D01*
X73716799Y-133195162D01*
X73558471Y-133195024D01*
X73503117Y-133061057D01*
X73240327Y-132797808D01*
X72896799Y-132655162D01*
X72524833Y-132654838D01*
X72181057Y-132796883D01*
X71917808Y-133059673D01*
X71825943Y-133280907D01*
X71661982Y-133348654D01*
X71610127Y-133296708D01*
X71266599Y-133154062D01*
X70894633Y-133153738D01*
X70550857Y-133295783D01*
X70287608Y-133558573D01*
X70144962Y-133902101D01*
X70144638Y-134274067D01*
X66656801Y-134274067D01*
X69845701Y-131085167D01*
X74214838Y-131085167D01*
X74356883Y-131428943D01*
X74619673Y-131692192D01*
X74963201Y-131834838D01*
X75335167Y-131835162D01*
X75678943Y-131693117D01*
X75942192Y-131430327D01*
X76084838Y-131086799D01*
X76084949Y-130958267D01*
X84986338Y-130958267D01*
X85128383Y-131302043D01*
X85391173Y-131565292D01*
X85734701Y-131707938D01*
X86106667Y-131708262D01*
X86450443Y-131566217D01*
X86713692Y-131303427D01*
X86856338Y-130959899D01*
X86856662Y-130587933D01*
X86743834Y-130314867D01*
X88212438Y-130314867D01*
X88354483Y-130658643D01*
X88617273Y-130921892D01*
X88960801Y-131064538D01*
X89332767Y-131064862D01*
X89676543Y-130922817D01*
X89939792Y-130660027D01*
X89999029Y-130517367D01*
X96436438Y-130517367D01*
X96578483Y-130861143D01*
X96841273Y-131124392D01*
X97184801Y-131267038D01*
X97556767Y-131267362D01*
X97900543Y-131125317D01*
X98163792Y-130862527D01*
X98306438Y-130518999D01*
X98306762Y-130147033D01*
X98164717Y-129803257D01*
X97901927Y-129540008D01*
X97558399Y-129397362D01*
X97186433Y-129397038D01*
X96842657Y-129539083D01*
X96579408Y-129801873D01*
X96436762Y-130145401D01*
X96436438Y-130517367D01*
X89999029Y-130517367D01*
X90082438Y-130316499D01*
X90082762Y-129944533D01*
X89940717Y-129600757D01*
X89677927Y-129337508D01*
X89334399Y-129194862D01*
X88962433Y-129194538D01*
X88618657Y-129336583D01*
X88355408Y-129599373D01*
X88212762Y-129942901D01*
X88212438Y-130314867D01*
X86743834Y-130314867D01*
X86714617Y-130244157D01*
X86451827Y-129980908D01*
X86108299Y-129838262D01*
X85736333Y-129837938D01*
X85392557Y-129979983D01*
X85129308Y-130242773D01*
X84986662Y-130586301D01*
X84986338Y-130958267D01*
X76084949Y-130958267D01*
X76085162Y-130714833D01*
X75943117Y-130371057D01*
X75680327Y-130107808D01*
X75336799Y-129965162D01*
X74964833Y-129964838D01*
X74621057Y-130106883D01*
X74357808Y-130369673D01*
X74215162Y-130713201D01*
X74214838Y-131085167D01*
X69845701Y-131085167D01*
X73145701Y-127785167D01*
X79464838Y-127785167D01*
X79606883Y-128128943D01*
X79869673Y-128392192D01*
X80213201Y-128534838D01*
X80585167Y-128535162D01*
X80928943Y-128393117D01*
X81192192Y-128130327D01*
X81334838Y-127786799D01*
X81335162Y-127414833D01*
X81193117Y-127071057D01*
X80930327Y-126807808D01*
X80586799Y-126665162D01*
X80214833Y-126664838D01*
X79871057Y-126806883D01*
X79607808Y-127069673D01*
X79465162Y-127413201D01*
X79464838Y-127785167D01*
X73145701Y-127785167D01*
X75145701Y-125785167D01*
X89037938Y-125785167D01*
X89179983Y-126128943D01*
X89442773Y-126392192D01*
X89786301Y-126534838D01*
X90158267Y-126535162D01*
X90502043Y-126393117D01*
X90765292Y-126130327D01*
X90907938Y-125786799D01*
X90908262Y-125414833D01*
X90766217Y-125071057D01*
X90503427Y-124807808D01*
X90159899Y-124665162D01*
X89787933Y-124664838D01*
X89444157Y-124806883D01*
X89180908Y-125069673D01*
X89038262Y-125413201D01*
X89037938Y-125785167D01*
X75145701Y-125785167D01*
X77361901Y-123568967D01*
X86261838Y-123568967D01*
X86403883Y-123912743D01*
X86666673Y-124175992D01*
X87010201Y-124318638D01*
X87382167Y-124318962D01*
X87668440Y-124200677D01*
X87829673Y-124362192D01*
X88173201Y-124504838D01*
X88545167Y-124505162D01*
X88888943Y-124363117D01*
X89152192Y-124100327D01*
X89294838Y-123756799D01*
X89295162Y-123384833D01*
X89153117Y-123041057D01*
X88890327Y-122777808D01*
X88546799Y-122635162D01*
X88174833Y-122634838D01*
X87888560Y-122753123D01*
X87727327Y-122591608D01*
X87383799Y-122448962D01*
X87011833Y-122448638D01*
X86668057Y-122590683D01*
X86404808Y-122853473D01*
X86262162Y-123197001D01*
X86261838Y-123568967D01*
X77361901Y-123568967D01*
X80095868Y-120835000D01*
X85532681Y-120835000D01*
X85417808Y-120949673D01*
X85275162Y-121293201D01*
X85274838Y-121665167D01*
X85416883Y-122008943D01*
X85679673Y-122272192D01*
X86023201Y-122414838D01*
X86395167Y-122415162D01*
X86738943Y-122273117D01*
X87002192Y-122010327D01*
X87144838Y-121666799D01*
X87145162Y-121294833D01*
X87003117Y-120951057D01*
X86887262Y-120835000D01*
X91572766Y-120835000D01*
X91711910Y-120892778D01*
X97779566Y-126960434D01*
X98050459Y-127141439D01*
X98370000Y-127205000D01*
X101315000Y-127205000D01*
X101315000Y-135254132D01*
X98969025Y-137600107D01*
X98659833Y-137599838D01*
X98316057Y-137741883D01*
X98052808Y-138004673D01*
X97910162Y-138348201D01*
X97909838Y-138720167D01*
X98051883Y-139063943D01*
X98314673Y-139327192D01*
X98658201Y-139469838D01*
X99030167Y-139470162D01*
X99326028Y-139347915D01*
X99534541Y-139306439D01*
X99805434Y-139125434D01*
X102150000Y-136780868D01*
X103497465Y-138128333D01*
X103596883Y-138368943D01*
X103859673Y-138632192D01*
X104203201Y-138774838D01*
X104575167Y-138775162D01*
X104918943Y-138633117D01*
X105182192Y-138370327D01*
X105324838Y-138026799D01*
X105325162Y-137654833D01*
X105296873Y-137586368D01*
X105328943Y-137573117D01*
X105592192Y-137310327D01*
X105731363Y-136975167D01*
X121024838Y-136975167D01*
X121166883Y-137318943D01*
X121429673Y-137582192D01*
X121773201Y-137724838D01*
X122145167Y-137725162D01*
X122488943Y-137583117D01*
X122752192Y-137320327D01*
X122894838Y-136976799D01*
X122895162Y-136604833D01*
X122753117Y-136261057D01*
X122577534Y-136085167D01*
X127734838Y-136085167D01*
X127876883Y-136428943D01*
X128139673Y-136692192D01*
X128483201Y-136834838D01*
X128855167Y-136835162D01*
X129198943Y-136693117D01*
X129462192Y-136430327D01*
X129604838Y-136086799D01*
X129605162Y-135714833D01*
X129463117Y-135371057D01*
X129200327Y-135107808D01*
X128856799Y-134965162D01*
X128484833Y-134964838D01*
X128141057Y-135106883D01*
X127877808Y-135369673D01*
X127735162Y-135713201D01*
X127734838Y-136085167D01*
X122577534Y-136085167D01*
X122490327Y-135997808D01*
X122146799Y-135855162D01*
X121774833Y-135854838D01*
X121431057Y-135996883D01*
X121167808Y-136259673D01*
X121025162Y-136603201D01*
X121024838Y-136975167D01*
X105731363Y-136975167D01*
X105734838Y-136966799D01*
X105735162Y-136594833D01*
X105593117Y-136251057D01*
X105330327Y-135987808D01*
X104986799Y-135845162D01*
X104614833Y-135844838D01*
X104271057Y-135986883D01*
X104007808Y-136249673D01*
X103999808Y-136268940D01*
X102985000Y-135254132D01*
X102985000Y-133995167D01*
X120414838Y-133995167D01*
X120556883Y-134338943D01*
X120819673Y-134602192D01*
X121163201Y-134744838D01*
X121535167Y-134745162D01*
X121878943Y-134603117D01*
X122007116Y-134475167D01*
X125904838Y-134475167D01*
X126046883Y-134818943D01*
X126309673Y-135082192D01*
X126653201Y-135224838D01*
X127025167Y-135225162D01*
X127368943Y-135083117D01*
X127527168Y-134925167D01*
X129274838Y-134925167D01*
X129416883Y-135268943D01*
X129679673Y-135532192D01*
X130023201Y-135674838D01*
X130395167Y-135675162D01*
X130738943Y-135533117D01*
X131002192Y-135270327D01*
X131144838Y-134926799D01*
X131145162Y-134554833D01*
X131003117Y-134211057D01*
X130740327Y-133947808D01*
X130396799Y-133805162D01*
X130024833Y-133804838D01*
X129681057Y-133946883D01*
X129417808Y-134209673D01*
X129275162Y-134553201D01*
X129274838Y-134925167D01*
X127527168Y-134925167D01*
X127632192Y-134820327D01*
X127774838Y-134476799D01*
X127775162Y-134104833D01*
X127633117Y-133761057D01*
X127370327Y-133497808D01*
X127026799Y-133355162D01*
X126654833Y-133354838D01*
X126311057Y-133496883D01*
X126047808Y-133759673D01*
X125905162Y-134103201D01*
X125904838Y-134475167D01*
X122007116Y-134475167D01*
X122142192Y-134340327D01*
X122284838Y-133996799D01*
X122285162Y-133624833D01*
X122143117Y-133281057D01*
X121987499Y-133125167D01*
X123194838Y-133125167D01*
X123336883Y-133468943D01*
X123599673Y-133732192D01*
X123943201Y-133874838D01*
X124315167Y-133875162D01*
X124658943Y-133733117D01*
X124922192Y-133470327D01*
X125064838Y-133126799D01*
X125065162Y-132754833D01*
X124923117Y-132411057D01*
X124660327Y-132147808D01*
X124316799Y-132005162D01*
X123944833Y-132004838D01*
X123601057Y-132146883D01*
X123337808Y-132409673D01*
X123195162Y-132753201D01*
X123194838Y-133125167D01*
X121987499Y-133125167D01*
X121880327Y-133017808D01*
X121536799Y-132875162D01*
X121164833Y-132874838D01*
X120821057Y-133016883D01*
X120557808Y-133279673D01*
X120415162Y-133623201D01*
X120414838Y-133995167D01*
X102985000Y-133995167D01*
X102985000Y-133245167D01*
X106644838Y-133245167D01*
X106786883Y-133588943D01*
X107049673Y-133852192D01*
X107393201Y-133994838D01*
X107765167Y-133995162D01*
X108108943Y-133853117D01*
X108372192Y-133590327D01*
X108514838Y-133246799D01*
X108514853Y-133229841D01*
X108748943Y-133133117D01*
X109012192Y-132870327D01*
X109154838Y-132526799D01*
X109155162Y-132154833D01*
X109013117Y-131811057D01*
X108750327Y-131547808D01*
X108406799Y-131405162D01*
X108034833Y-131404838D01*
X107691057Y-131546883D01*
X107427808Y-131809673D01*
X107285162Y-132153201D01*
X107285147Y-132170159D01*
X107051057Y-132266883D01*
X106787808Y-132529673D01*
X106645162Y-132873201D01*
X106644838Y-133245167D01*
X102985000Y-133245167D01*
X102985000Y-130445167D01*
X112474838Y-130445167D01*
X112616883Y-130788943D01*
X112879673Y-131052192D01*
X113223201Y-131194838D01*
X113595167Y-131195162D01*
X113938943Y-131053117D01*
X114202192Y-130790327D01*
X114344838Y-130446799D01*
X114345162Y-130074833D01*
X114203117Y-129731057D01*
X113940327Y-129467808D01*
X113596799Y-129325162D01*
X113224833Y-129324838D01*
X112881057Y-129466883D01*
X112617808Y-129729673D01*
X112475162Y-130073201D01*
X112474838Y-130445167D01*
X102985000Y-130445167D01*
X102985000Y-126797234D01*
X103042778Y-126658090D01*
X104079896Y-125620972D01*
X103989362Y-125839001D01*
X103989038Y-126210967D01*
X104131083Y-126554743D01*
X104393873Y-126817992D01*
X104524265Y-126872136D01*
X104524238Y-126902767D01*
X104666283Y-127246543D01*
X104929073Y-127509792D01*
X105124122Y-127590784D01*
X105123838Y-127917167D01*
X105265883Y-128260943D01*
X105528673Y-128524192D01*
X105872201Y-128666838D01*
X106244167Y-128667162D01*
X106587943Y-128525117D01*
X106851192Y-128262327D01*
X106993838Y-127918799D01*
X106994041Y-127685167D01*
X111064838Y-127685167D01*
X111206883Y-128028943D01*
X111302710Y-128124937D01*
X111207808Y-128219673D01*
X111065162Y-128563201D01*
X111064838Y-128935167D01*
X111206883Y-129278943D01*
X111469673Y-129542192D01*
X111813201Y-129684838D01*
X112185167Y-129685162D01*
X112528943Y-129543117D01*
X112792192Y-129280327D01*
X112934838Y-128936799D01*
X112935162Y-128564833D01*
X112793117Y-128221057D01*
X112697290Y-128125063D01*
X112792192Y-128030327D01*
X112934838Y-127686799D01*
X112935162Y-127314833D01*
X112922470Y-127284115D01*
X113213201Y-127404838D01*
X113585167Y-127405162D01*
X113928943Y-127263117D01*
X114192192Y-127000327D01*
X114334838Y-126656799D01*
X114335162Y-126284833D01*
X114193117Y-125941057D01*
X113930327Y-125677808D01*
X113586799Y-125535162D01*
X113214833Y-125534838D01*
X112871057Y-125676883D01*
X112607808Y-125939673D01*
X112465162Y-126283201D01*
X112464838Y-126655167D01*
X112477530Y-126685885D01*
X112186799Y-126565162D01*
X111814833Y-126564838D01*
X111471057Y-126706883D01*
X111207808Y-126969673D01*
X111065162Y-127313201D01*
X111064838Y-127685167D01*
X106994041Y-127685167D01*
X106994162Y-127546833D01*
X106852117Y-127203057D01*
X106589327Y-126939808D01*
X106394278Y-126858816D01*
X106394562Y-126532433D01*
X106252517Y-126188657D01*
X105989727Y-125925408D01*
X105859335Y-125871264D01*
X105859362Y-125840633D01*
X105717317Y-125496857D01*
X105454527Y-125233608D01*
X105168889Y-125115000D01*
X105691907Y-125115000D01*
X105831583Y-125453043D01*
X106094373Y-125716292D01*
X106437901Y-125858938D01*
X106809867Y-125859262D01*
X107153643Y-125717217D01*
X107416892Y-125454427D01*
X107541320Y-125154773D01*
X107738943Y-125073117D01*
X108002192Y-124810327D01*
X108102778Y-124568090D01*
X110085868Y-122585000D01*
X124165000Y-122585000D01*
X124165000Y-124844244D01*
X124046799Y-124795162D01*
X123674833Y-124794838D01*
X123331057Y-124936883D01*
X123067808Y-125199673D01*
X122925162Y-125543201D01*
X122924838Y-125915167D01*
X123066883Y-126258943D01*
X123329673Y-126522192D01*
X123673201Y-126664838D01*
X124045167Y-126665162D01*
X124165000Y-126615648D01*
X124165000Y-130509448D01*
X124075162Y-130725801D01*
X124074838Y-131097767D01*
X124216883Y-131441543D01*
X124479673Y-131704792D01*
X124823201Y-131847438D01*
X125195167Y-131847762D01*
X125538943Y-131705717D01*
X125745019Y-131500000D01*
X128965000Y-131500000D01*
X129119905Y-132278761D01*
X129561038Y-132938962D01*
X130221239Y-133380095D01*
X131000000Y-133535000D01*
X131778761Y-133380095D01*
X132438962Y-132938962D01*
X132880095Y-132278761D01*
X133035000Y-131500000D01*
X132880095Y-130721239D01*
X132438962Y-130061038D01*
X131778761Y-129619905D01*
X131000000Y-129465000D01*
X130221239Y-129619905D01*
X129561038Y-130061038D01*
X129119905Y-130721239D01*
X128965000Y-131500000D01*
X125745019Y-131500000D01*
X125802192Y-131442927D01*
X125944838Y-131099399D01*
X125945162Y-130727433D01*
X125835000Y-130460820D01*
X125835000Y-125975167D01*
X129204838Y-125975167D01*
X129346883Y-126318943D01*
X129609673Y-126582192D01*
X129953201Y-126724838D01*
X130325167Y-126725162D01*
X130668943Y-126583117D01*
X130932192Y-126320327D01*
X131074838Y-125976799D01*
X131075162Y-125604833D01*
X130933117Y-125261057D01*
X130670327Y-124997808D01*
X130326799Y-124855162D01*
X129954833Y-124854838D01*
X129611057Y-124996883D01*
X129347808Y-125259673D01*
X129205162Y-125603201D01*
X129204838Y-125975167D01*
X125835000Y-125975167D01*
X125835000Y-116195868D01*
X126638333Y-115392535D01*
X126777174Y-115335167D01*
X128375038Y-115335167D01*
X128517083Y-115678943D01*
X128779873Y-115942192D01*
X129123401Y-116084838D01*
X129495367Y-116085162D01*
X129839143Y-115943117D01*
X130102392Y-115680327D01*
X130245038Y-115336799D01*
X130245362Y-114964833D01*
X130103317Y-114621057D01*
X129840527Y-114357808D01*
X129496999Y-114215162D01*
X129125033Y-114214838D01*
X128781257Y-114356883D01*
X128518008Y-114619673D01*
X128375362Y-114963201D01*
X128375038Y-115335167D01*
X126777174Y-115335167D01*
X126878943Y-115293117D01*
X127142192Y-115030327D01*
X127284838Y-114686799D01*
X127285162Y-114314833D01*
X127143117Y-113971057D01*
X126880327Y-113707808D01*
X126536799Y-113565162D01*
X126164833Y-113564838D01*
X125821057Y-113706883D01*
X125557808Y-113969673D01*
X125457222Y-114211910D01*
X124409566Y-115259566D01*
X124228561Y-115530459D01*
X124165000Y-115850000D01*
X124165000Y-116068567D01*
X124156799Y-116065162D01*
X123784833Y-116064838D01*
X123441057Y-116206883D01*
X123177808Y-116469673D01*
X123035162Y-116813201D01*
X123034838Y-117185167D01*
X123176883Y-117528943D01*
X123439673Y-117792192D01*
X123783201Y-117934838D01*
X124155167Y-117935162D01*
X124165000Y-117931099D01*
X124165000Y-120915000D01*
X109740000Y-120915000D01*
X109420459Y-120978561D01*
X109223747Y-121110000D01*
X109149566Y-121159566D01*
X106921667Y-123387465D01*
X106782422Y-123445000D01*
X105020000Y-123445000D01*
X105020000Y-121110000D01*
X104962148Y-120819161D01*
X104797401Y-120572599D01*
X103520732Y-119295930D01*
X103740839Y-119252148D01*
X103987401Y-119087401D01*
X106067401Y-117007401D01*
X106232148Y-116760840D01*
X106290000Y-116470000D01*
X106290000Y-112612310D01*
X106409673Y-112732192D01*
X106753201Y-112874838D01*
X107125167Y-112875162D01*
X107468943Y-112733117D01*
X107732192Y-112470327D01*
X107874838Y-112126799D01*
X107875162Y-111754833D01*
X107733117Y-111411057D01*
X107470327Y-111147808D01*
X107126799Y-111005162D01*
X106754833Y-111004838D01*
X106411057Y-111146883D01*
X106290000Y-111267729D01*
X106290000Y-111222463D01*
X106322192Y-111190327D01*
X106464838Y-110846799D01*
X106465012Y-110647383D01*
X106549673Y-110732192D01*
X106893201Y-110874838D01*
X107265167Y-110875162D01*
X107608943Y-110733117D01*
X107872192Y-110470327D01*
X108014838Y-110126799D01*
X108015162Y-109754833D01*
X107873117Y-109411057D01*
X107610327Y-109147808D01*
X107266799Y-109005162D01*
X107006941Y-109004936D01*
X106873117Y-108681057D01*
X106610327Y-108417808D01*
X106266799Y-108275162D01*
X105894833Y-108274838D01*
X105658007Y-108372692D01*
X105326799Y-108235162D01*
X104954833Y-108234838D01*
X104611057Y-108376883D01*
X104347808Y-108639673D01*
X104205162Y-108983201D01*
X104204838Y-109355167D01*
X104346883Y-109698943D01*
X104609673Y-109962192D01*
X104770000Y-110028766D01*
X104770000Y-110097537D01*
X104737808Y-110129673D01*
X104595162Y-110473201D01*
X104594838Y-110845167D01*
X104640223Y-110955008D01*
X104444833Y-110954838D01*
X104101057Y-111096883D01*
X103837808Y-111359673D01*
X103695162Y-111703201D01*
X103694838Y-112075167D01*
X103836883Y-112418943D01*
X104099673Y-112682192D01*
X104443201Y-112824838D01*
X104770000Y-112825123D01*
X104770000Y-115317812D01*
X104580327Y-115127808D01*
X104236799Y-114985162D01*
X103864833Y-114984838D01*
X103521057Y-115126883D01*
X103257808Y-115389673D01*
X103115162Y-115733201D01*
X103114838Y-116105167D01*
X103256883Y-116448943D01*
X103519673Y-116712192D01*
X103863201Y-116854838D01*
X104070180Y-116855018D01*
X103135198Y-117790000D01*
X102262463Y-117790000D01*
X102230327Y-117757808D01*
X101886799Y-117615162D01*
X101514833Y-117614838D01*
X101171057Y-117756883D01*
X100907808Y-118019673D01*
X100765162Y-118363201D01*
X100764838Y-118735167D01*
X100906883Y-119078943D01*
X101169673Y-119342192D01*
X101513201Y-119484838D01*
X101560077Y-119484879D01*
X103500000Y-121424802D01*
X103500000Y-123839132D01*
X101861667Y-125477465D01*
X101722422Y-125535000D01*
X98715868Y-125535000D01*
X96941335Y-123760467D01*
X100520438Y-123760467D01*
X100662483Y-124104243D01*
X100925273Y-124367492D01*
X101268801Y-124510138D01*
X101640767Y-124510462D01*
X101984543Y-124368417D01*
X102247792Y-124105627D01*
X102390438Y-123762099D01*
X102390762Y-123390133D01*
X102248717Y-123046357D01*
X101985927Y-122783108D01*
X101642399Y-122640462D01*
X101270433Y-122640138D01*
X100926657Y-122782183D01*
X100663408Y-123044973D01*
X100520762Y-123388501D01*
X100520438Y-123760467D01*
X96941335Y-123760467D01*
X93500868Y-120320000D01*
X93758333Y-120062535D01*
X93998943Y-119963117D01*
X94262192Y-119700327D01*
X94404838Y-119356799D01*
X94404952Y-119225916D01*
X94630434Y-119000434D01*
X94811440Y-118729540D01*
X94875000Y-118410000D01*
X94875000Y-118271775D01*
X95123201Y-118374838D01*
X95495167Y-118375162D01*
X95838943Y-118233117D01*
X96102192Y-117970327D01*
X96244838Y-117626799D01*
X96244996Y-117445167D01*
X99264838Y-117445167D01*
X99406883Y-117788943D01*
X99669673Y-118052192D01*
X100013201Y-118194838D01*
X100385167Y-118195162D01*
X100728943Y-118053117D01*
X100992192Y-117790327D01*
X101134838Y-117446799D01*
X101135162Y-117074833D01*
X100993117Y-116731057D01*
X100785306Y-116522883D01*
X100808943Y-116513117D01*
X100926432Y-116395833D01*
X101026883Y-116638943D01*
X101289673Y-116902192D01*
X101633201Y-117044838D01*
X102005167Y-117045162D01*
X102348943Y-116903117D01*
X102612192Y-116640327D01*
X102754838Y-116296799D01*
X102755162Y-115924833D01*
X102613117Y-115581057D01*
X102350327Y-115317808D01*
X102006799Y-115175162D01*
X101634833Y-115174838D01*
X101291057Y-115316883D01*
X101173568Y-115434167D01*
X101073117Y-115191057D01*
X100810327Y-114927808D01*
X100466799Y-114785162D01*
X100094833Y-114784838D01*
X99751057Y-114926883D01*
X99487808Y-115189673D01*
X99345162Y-115533201D01*
X99344838Y-115905167D01*
X99486883Y-116248943D01*
X99694694Y-116457117D01*
X99671057Y-116466883D01*
X99407808Y-116729673D01*
X99265162Y-117073201D01*
X99264838Y-117445167D01*
X96244996Y-117445167D01*
X96245162Y-117254833D01*
X96103117Y-116911057D01*
X95840327Y-116647808D01*
X95496799Y-116505162D01*
X95124833Y-116504838D01*
X94875000Y-116608067D01*
X94875000Y-114505167D01*
X96224838Y-114505167D01*
X96366883Y-114848943D01*
X96629673Y-115112192D01*
X96817454Y-115190166D01*
X96737808Y-115269673D01*
X96595162Y-115613201D01*
X96594838Y-115985167D01*
X96736883Y-116328943D01*
X96999673Y-116592192D01*
X97343201Y-116734838D01*
X97715167Y-116735162D01*
X98058943Y-116593117D01*
X98322192Y-116330327D01*
X98464838Y-115986799D01*
X98465162Y-115614833D01*
X98323117Y-115271057D01*
X98060327Y-115007808D01*
X97872546Y-114929834D01*
X97952192Y-114850327D01*
X98094838Y-114506799D01*
X98095162Y-114134833D01*
X97953117Y-113791057D01*
X97690327Y-113527808D01*
X97346799Y-113385162D01*
X96974833Y-113384838D01*
X96631057Y-113526883D01*
X96367808Y-113789673D01*
X96225162Y-114133201D01*
X96224838Y-114505167D01*
X94875000Y-114505167D01*
X94875000Y-113230000D01*
X94870930Y-113209540D01*
X94811440Y-112910460D01*
X94630434Y-112639566D01*
X94592535Y-112601667D01*
X94493117Y-112361057D01*
X94230327Y-112097808D01*
X94199885Y-112085167D01*
X99264838Y-112085167D01*
X99406883Y-112428943D01*
X99669673Y-112692192D01*
X100013201Y-112834838D01*
X100385167Y-112835162D01*
X100728943Y-112693117D01*
X100992192Y-112430327D01*
X101134838Y-112086799D01*
X101135162Y-111714833D01*
X100993117Y-111371057D01*
X100730327Y-111107808D01*
X100386799Y-110965162D01*
X100014833Y-110964838D01*
X99671057Y-111106883D01*
X99407808Y-111369673D01*
X99265162Y-111713201D01*
X99264838Y-112085167D01*
X94199885Y-112085167D01*
X93886799Y-111955162D01*
X93514833Y-111954838D01*
X93171057Y-112096883D01*
X92907808Y-112359673D01*
X92765162Y-112703201D01*
X92764838Y-113075167D01*
X92906883Y-113418943D01*
X93169673Y-113682192D01*
X93205000Y-113696861D01*
X93205000Y-116436791D01*
X93032499Y-116365162D01*
X92660533Y-116364838D01*
X92655266Y-116367014D01*
X92792192Y-116230327D01*
X92934838Y-115886799D01*
X92935162Y-115514833D01*
X92793117Y-115171057D01*
X92530327Y-114907808D01*
X92186799Y-114765162D01*
X91814833Y-114764838D01*
X91471057Y-114906883D01*
X91207808Y-115169673D01*
X91065162Y-115513201D01*
X91064838Y-115885167D01*
X91206883Y-116228943D01*
X91469673Y-116492192D01*
X91813201Y-116634838D01*
X92185167Y-116635162D01*
X92190434Y-116632986D01*
X92053508Y-116769673D01*
X91910862Y-117113201D01*
X91910538Y-117485167D01*
X91962849Y-117611769D01*
X91941608Y-117632973D01*
X91798962Y-117976501D01*
X91798638Y-118348467D01*
X91940683Y-118692243D01*
X92203473Y-118955492D01*
X92415569Y-119043563D01*
X92333185Y-119125947D01*
X92186799Y-119065162D01*
X91814833Y-119064838D01*
X91572422Y-119165000D01*
X90307493Y-119165000D01*
X90322192Y-119150327D01*
X90464838Y-118806799D01*
X90465162Y-118434833D01*
X90344261Y-118142231D01*
X90543201Y-118224838D01*
X90915167Y-118225162D01*
X91258943Y-118083117D01*
X91522192Y-117820327D01*
X91664838Y-117476799D01*
X91665162Y-117104833D01*
X91523117Y-116761057D01*
X91260327Y-116497808D01*
X90916799Y-116355162D01*
X90544833Y-116354838D01*
X90201057Y-116496883D01*
X89937808Y-116759673D01*
X89795162Y-117103201D01*
X89794838Y-117475167D01*
X89915739Y-117767769D01*
X89716799Y-117685162D01*
X89344833Y-117684838D01*
X89001057Y-117826883D01*
X88737808Y-118089673D01*
X88595162Y-118433201D01*
X88594838Y-118805167D01*
X88736883Y-119148943D01*
X88752912Y-119165000D01*
X83657092Y-119165000D01*
X83902192Y-118920327D01*
X84044838Y-118576799D01*
X84045162Y-118204833D01*
X83903117Y-117861057D01*
X83640327Y-117597808D01*
X83296799Y-117455162D01*
X82924833Y-117454838D01*
X82581057Y-117596883D01*
X82317808Y-117859673D01*
X82175162Y-118203201D01*
X82174838Y-118575167D01*
X82316883Y-118918943D01*
X82562511Y-119165000D01*
X80835000Y-119165000D01*
X80835000Y-113370000D01*
X80771439Y-113050459D01*
X80590434Y-112779566D01*
X77912535Y-110101667D01*
X77855000Y-109962422D01*
X77855000Y-109365167D01*
X79224838Y-109365167D01*
X79366883Y-109708943D01*
X79629673Y-109972192D01*
X79973201Y-110114838D01*
X80345167Y-110115162D01*
X80688943Y-109973117D01*
X80952192Y-109710327D01*
X81094838Y-109366799D01*
X81095162Y-108994833D01*
X80953117Y-108651057D01*
X80690327Y-108387808D01*
X80346799Y-108245162D01*
X79974833Y-108244838D01*
X79631057Y-108386883D01*
X79367808Y-108649673D01*
X79225162Y-108993201D01*
X79224838Y-109365167D01*
X77855000Y-109365167D01*
X77855000Y-107455167D01*
X78624838Y-107455167D01*
X78766883Y-107798943D01*
X79029673Y-108062192D01*
X79373201Y-108204838D01*
X79745167Y-108205162D01*
X80088943Y-108063117D01*
X80352192Y-107800327D01*
X80494838Y-107456799D01*
X80495048Y-107215167D01*
X90534838Y-107215167D01*
X90676883Y-107558943D01*
X90939673Y-107822192D01*
X91283201Y-107964838D01*
X91655167Y-107965162D01*
X91998943Y-107823117D01*
X92262192Y-107560327D01*
X92404838Y-107216799D01*
X92405162Y-106844833D01*
X92314399Y-106625167D01*
X94994838Y-106625167D01*
X95136883Y-106968943D01*
X95399673Y-107232192D01*
X95743201Y-107374838D01*
X96115167Y-107375162D01*
X96458943Y-107233117D01*
X96722192Y-106970327D01*
X96864838Y-106626799D01*
X96865162Y-106254833D01*
X96723117Y-105911057D01*
X96460327Y-105647808D01*
X96116799Y-105505162D01*
X95744833Y-105504838D01*
X95401057Y-105646883D01*
X95137808Y-105909673D01*
X94995162Y-106253201D01*
X94994838Y-106625167D01*
X92314399Y-106625167D01*
X92263117Y-106501057D01*
X92000327Y-106237808D01*
X91656799Y-106095162D01*
X91284833Y-106094838D01*
X90941057Y-106236883D01*
X90677808Y-106499673D01*
X90535162Y-106843201D01*
X90534838Y-107215167D01*
X80495048Y-107215167D01*
X80495162Y-107084833D01*
X80353117Y-106741057D01*
X80090327Y-106477808D01*
X79867224Y-106385167D01*
X85204838Y-106385167D01*
X85346883Y-106728943D01*
X85609673Y-106992192D01*
X85953201Y-107134838D01*
X86325167Y-107135162D01*
X86668943Y-106993117D01*
X86932192Y-106730327D01*
X87074838Y-106386799D01*
X87074839Y-106385167D01*
X88580038Y-106385167D01*
X88722083Y-106728943D01*
X88984873Y-106992192D01*
X89328401Y-107134838D01*
X89700367Y-107135162D01*
X90044143Y-106993117D01*
X90307392Y-106730327D01*
X90450038Y-106386799D01*
X90450362Y-106014833D01*
X90308317Y-105671057D01*
X90045527Y-105407808D01*
X89701999Y-105265162D01*
X89330033Y-105264838D01*
X88986257Y-105406883D01*
X88723008Y-105669673D01*
X88580362Y-106013201D01*
X88580038Y-106385167D01*
X87074839Y-106385167D01*
X87075162Y-106014833D01*
X86933117Y-105671057D01*
X86670327Y-105407808D01*
X86326799Y-105265162D01*
X85954833Y-105264838D01*
X85611057Y-105406883D01*
X85347808Y-105669673D01*
X85205162Y-106013201D01*
X85204838Y-106385167D01*
X79867224Y-106385167D01*
X79746799Y-106335162D01*
X79374833Y-106334838D01*
X79031057Y-106476883D01*
X78767808Y-106739673D01*
X78625162Y-107083201D01*
X78624838Y-107455167D01*
X77855000Y-107455167D01*
X77855000Y-107280000D01*
X77845490Y-107232192D01*
X77825019Y-107129273D01*
X77825162Y-106964833D01*
X77683117Y-106621057D01*
X77420327Y-106357808D01*
X77076799Y-106215162D01*
X76704833Y-106214838D01*
X76361057Y-106356883D01*
X76097808Y-106619673D01*
X75972826Y-106920661D01*
X75770327Y-106717808D01*
X75426799Y-106575162D01*
X75054833Y-106574838D01*
X74711057Y-106716883D01*
X74447808Y-106979673D01*
X74305162Y-107323201D01*
X74305127Y-107363036D01*
X74060327Y-107117808D01*
X73716799Y-106975162D01*
X73344833Y-106974838D01*
X73001057Y-107116883D01*
X72737808Y-107379673D01*
X72595162Y-107723201D01*
X72594838Y-108095167D01*
X72736883Y-108438943D01*
X72999673Y-108702192D01*
X73343201Y-108844838D01*
X73715167Y-108845162D01*
X74058943Y-108703117D01*
X74322192Y-108440327D01*
X74464838Y-108096799D01*
X74464873Y-108056964D01*
X74709673Y-108302192D01*
X75053201Y-108444838D01*
X75425167Y-108445162D01*
X75768943Y-108303117D01*
X76032192Y-108040327D01*
X76157174Y-107739339D01*
X76185000Y-107767214D01*
X76185000Y-109962766D01*
X76085162Y-110203201D01*
X76084838Y-110575167D01*
X76226883Y-110918943D01*
X76489673Y-111182192D01*
X76731910Y-111282778D01*
X78424100Y-112974968D01*
X78274833Y-112974838D01*
X77931057Y-113116883D01*
X77667808Y-113379673D01*
X77525162Y-113723201D01*
X77524838Y-114095167D01*
X77666883Y-114438943D01*
X77812685Y-114585000D01*
X73766822Y-114585000D01*
X73646799Y-114535162D01*
X73274833Y-114534838D01*
X72931057Y-114676883D01*
X72667808Y-114939673D01*
X72525162Y-115283201D01*
X72524838Y-115655167D01*
X72666883Y-115998943D01*
X72929673Y-116262192D01*
X73273201Y-116404838D01*
X73645167Y-116405162D01*
X73988943Y-116263117D01*
X73997074Y-116255000D01*
X79165000Y-116255000D01*
X79165000Y-119405935D01*
X79159566Y-119409566D01*
X59356632Y-139212500D01*
X57974734Y-139212500D01*
X57734299Y-139112662D01*
X57362333Y-139112338D01*
X57018557Y-139254383D01*
X56755308Y-139517173D01*
X56612662Y-139860701D01*
X56612571Y-139964923D01*
X56514833Y-139964838D01*
X56231791Y-140081788D01*
X56265040Y-139917600D01*
X56265040Y-137682400D01*
X56220762Y-137447083D01*
X56081690Y-137230959D01*
X55869490Y-137085969D01*
X55617600Y-137034960D01*
X53382400Y-137034960D01*
X53147083Y-137079238D01*
X52930959Y-137218310D01*
X52785969Y-137430510D01*
X52734960Y-137682400D01*
X50785000Y-137682400D01*
X50785000Y-136585167D01*
X51164838Y-136585167D01*
X51306883Y-136928943D01*
X51569673Y-137192192D01*
X51913201Y-137334838D01*
X52285167Y-137335162D01*
X52628943Y-137193117D01*
X52892192Y-136930327D01*
X53034838Y-136586799D01*
X53035162Y-136214833D01*
X52893117Y-135871057D01*
X52630327Y-135607808D01*
X52286799Y-135465162D01*
X51914833Y-135464838D01*
X51571057Y-135606883D01*
X51307808Y-135869673D01*
X51165162Y-136213201D01*
X51164838Y-136585167D01*
X50785000Y-136585167D01*
X50785000Y-134185167D01*
X62064838Y-134185167D01*
X62206883Y-134528943D01*
X62469673Y-134792192D01*
X62813201Y-134934838D01*
X63185167Y-134935162D01*
X63528943Y-134793117D01*
X63792192Y-134530327D01*
X63934838Y-134186799D01*
X63935162Y-133814833D01*
X63793117Y-133471057D01*
X63530327Y-133207808D01*
X63186799Y-133065162D01*
X62814833Y-133064838D01*
X62471057Y-133206883D01*
X62207808Y-133469673D01*
X62065162Y-133813201D01*
X62064838Y-134185167D01*
X50785000Y-134185167D01*
X50785000Y-131500000D01*
X51965000Y-131500000D01*
X52119905Y-132278761D01*
X52561038Y-132938962D01*
X53221239Y-133380095D01*
X54000000Y-133535000D01*
X54778761Y-133380095D01*
X55438962Y-132938962D01*
X55880095Y-132278761D01*
X55898711Y-132185167D01*
X63964838Y-132185167D01*
X64106883Y-132528943D01*
X64369673Y-132792192D01*
X64713201Y-132934838D01*
X65085167Y-132935162D01*
X65428943Y-132793117D01*
X65692192Y-132530327D01*
X65834838Y-132186799D01*
X65835162Y-131814833D01*
X65693117Y-131471057D01*
X65430327Y-131207808D01*
X65086799Y-131065162D01*
X64714833Y-131064838D01*
X64371057Y-131206883D01*
X64107808Y-131469673D01*
X63965162Y-131813201D01*
X63964838Y-132185167D01*
X55898711Y-132185167D01*
X56035000Y-131500000D01*
X55880095Y-130721239D01*
X55438962Y-130061038D01*
X54778761Y-129619905D01*
X54000000Y-129465000D01*
X53221239Y-129619905D01*
X52561038Y-130061038D01*
X52119905Y-130721239D01*
X51965000Y-131500000D01*
X50785000Y-131500000D01*
X50785000Y-126735167D01*
X56314838Y-126735167D01*
X56456883Y-127078943D01*
X56719673Y-127342192D01*
X57063201Y-127484838D01*
X57435167Y-127485162D01*
X57778943Y-127343117D01*
X58042192Y-127080327D01*
X58184838Y-126736799D01*
X58185162Y-126364833D01*
X58043117Y-126021057D01*
X57780327Y-125757808D01*
X57436799Y-125615162D01*
X57064833Y-125614838D01*
X56721057Y-125756883D01*
X56457808Y-126019673D01*
X56315162Y-126363201D01*
X56314838Y-126735167D01*
X50785000Y-126735167D01*
X50785000Y-121165167D01*
X67134838Y-121165167D01*
X67276883Y-121508943D01*
X67539673Y-121772192D01*
X67883201Y-121914838D01*
X68255167Y-121915162D01*
X68598943Y-121773117D01*
X68862192Y-121510327D01*
X69004838Y-121166799D01*
X69005162Y-120794833D01*
X68863117Y-120451057D01*
X68600327Y-120187808D01*
X68256799Y-120045162D01*
X67884833Y-120044838D01*
X67541057Y-120186883D01*
X67277808Y-120449673D01*
X67135162Y-120793201D01*
X67134838Y-121165167D01*
X50785000Y-121165167D01*
X50785000Y-118185167D01*
X68264838Y-118185167D01*
X68406883Y-118528943D01*
X68669673Y-118792192D01*
X69013201Y-118934838D01*
X69080725Y-118934897D01*
X68965162Y-119213201D01*
X68964838Y-119585167D01*
X69106883Y-119928943D01*
X69369673Y-120192192D01*
X69713201Y-120334838D01*
X70085167Y-120335162D01*
X70428943Y-120193117D01*
X70692192Y-119930327D01*
X70834838Y-119586799D01*
X70835162Y-119214833D01*
X70693117Y-118871057D01*
X70430327Y-118607808D01*
X70086799Y-118465162D01*
X70019275Y-118465103D01*
X70134838Y-118186799D01*
X70135162Y-117814833D01*
X69993117Y-117471057D01*
X69730327Y-117207808D01*
X69386799Y-117065162D01*
X69014833Y-117064838D01*
X68671057Y-117206883D01*
X68407808Y-117469673D01*
X68265162Y-117813201D01*
X68264838Y-118185167D01*
X50785000Y-118185167D01*
X50785000Y-116935167D01*
X52164838Y-116935167D01*
X52306883Y-117278943D01*
X52569673Y-117542192D01*
X52913201Y-117684838D01*
X53285167Y-117685162D01*
X53628943Y-117543117D01*
X53892192Y-117280327D01*
X54034838Y-116936799D01*
X54035162Y-116564833D01*
X53893117Y-116221057D01*
X53630327Y-115957808D01*
X53286799Y-115815162D01*
X52914833Y-115814838D01*
X52571057Y-115956883D01*
X52307808Y-116219673D01*
X52165162Y-116563201D01*
X52164838Y-116935167D01*
X50785000Y-116935167D01*
X50785000Y-114685167D01*
X69364838Y-114685167D01*
X69506883Y-115028943D01*
X69769673Y-115292192D01*
X70113201Y-115434838D01*
X70485167Y-115435162D01*
X70828943Y-115293117D01*
X71092192Y-115030327D01*
X71234838Y-114686799D01*
X71235162Y-114314833D01*
X71093117Y-113971057D01*
X70830327Y-113707808D01*
X70486799Y-113565162D01*
X70114833Y-113564838D01*
X69771057Y-113706883D01*
X69507808Y-113969673D01*
X69365162Y-114313201D01*
X69364838Y-114685167D01*
X50785000Y-114685167D01*
X50785000Y-113685167D01*
X51514838Y-113685167D01*
X51656883Y-114028943D01*
X51919673Y-114292192D01*
X52263201Y-114434838D01*
X52635167Y-114435162D01*
X52978943Y-114293117D01*
X53242192Y-114030327D01*
X53384838Y-113686799D01*
X53385162Y-113314833D01*
X53243117Y-112971057D01*
X52980327Y-112707808D01*
X52636799Y-112565162D01*
X52264833Y-112564838D01*
X51921057Y-112706883D01*
X51657808Y-112969673D01*
X51515162Y-113313201D01*
X51514838Y-113685167D01*
X50785000Y-113685167D01*
X50785000Y-112385167D01*
X68364838Y-112385167D01*
X68506883Y-112728943D01*
X68769673Y-112992192D01*
X69113201Y-113134838D01*
X69485167Y-113135162D01*
X69828943Y-112993117D01*
X70092192Y-112730327D01*
X70234838Y-112386799D01*
X70235162Y-112014833D01*
X70093117Y-111671057D01*
X69830327Y-111407808D01*
X69486799Y-111265162D01*
X69114833Y-111264838D01*
X68771057Y-111406883D01*
X68507808Y-111669673D01*
X68365162Y-112013201D01*
X68364838Y-112385167D01*
X50785000Y-112385167D01*
X50785000Y-108685167D01*
X55864838Y-108685167D01*
X56006883Y-109028943D01*
X56269673Y-109292192D01*
X56613201Y-109434838D01*
X56985167Y-109435162D01*
X57328943Y-109293117D01*
X57592192Y-109030327D01*
X57605961Y-108997167D01*
X70119838Y-108997167D01*
X70261883Y-109340943D01*
X70524673Y-109604192D01*
X70868201Y-109746838D01*
X71240167Y-109747162D01*
X71583943Y-109605117D01*
X71847192Y-109342327D01*
X71989838Y-108998799D01*
X71990162Y-108626833D01*
X71848117Y-108283057D01*
X71585327Y-108019808D01*
X71241799Y-107877162D01*
X70869833Y-107876838D01*
X70526057Y-108018883D01*
X70262808Y-108281673D01*
X70120162Y-108625201D01*
X70119838Y-108997167D01*
X57605961Y-108997167D01*
X57734838Y-108686799D01*
X57735162Y-108314833D01*
X57593117Y-107971057D01*
X57330327Y-107707808D01*
X56986799Y-107565162D01*
X56614833Y-107564838D01*
X56271057Y-107706883D01*
X56007808Y-107969673D01*
X55865162Y-108313201D01*
X55864838Y-108685167D01*
X50785000Y-108685167D01*
X50785000Y-107085167D01*
X53214838Y-107085167D01*
X53356883Y-107428943D01*
X53619673Y-107692192D01*
X53963201Y-107834838D01*
X54335167Y-107835162D01*
X54678943Y-107693117D01*
X54942192Y-107430327D01*
X55084838Y-107086799D01*
X55084926Y-106985167D01*
X68064838Y-106985167D01*
X68206883Y-107328943D01*
X68469673Y-107592192D01*
X68813201Y-107734838D01*
X69185167Y-107735162D01*
X69528943Y-107593117D01*
X69792192Y-107330327D01*
X69934838Y-106986799D01*
X69935162Y-106614833D01*
X69793117Y-106271057D01*
X69707377Y-106185167D01*
X72664838Y-106185167D01*
X72806883Y-106528943D01*
X73069673Y-106792192D01*
X73413201Y-106934838D01*
X73785167Y-106935162D01*
X74128943Y-106793117D01*
X74392192Y-106530327D01*
X74534838Y-106186799D01*
X74535162Y-105814833D01*
X74393117Y-105471057D01*
X74130327Y-105207808D01*
X73786799Y-105065162D01*
X73414833Y-105064838D01*
X73071057Y-105206883D01*
X72807808Y-105469673D01*
X72665162Y-105813201D01*
X72664838Y-106185167D01*
X69707377Y-106185167D01*
X69530327Y-106007808D01*
X69186799Y-105865162D01*
X68814833Y-105864838D01*
X68471057Y-106006883D01*
X68207808Y-106269673D01*
X68065162Y-106613201D01*
X68064838Y-106985167D01*
X55084926Y-106985167D01*
X55085162Y-106714833D01*
X54943117Y-106371057D01*
X54680327Y-106107808D01*
X54336799Y-105965162D01*
X53964833Y-105964838D01*
X53621057Y-106106883D01*
X53357808Y-106369673D01*
X53215162Y-106713201D01*
X53214838Y-107085167D01*
X50785000Y-107085167D01*
X50785000Y-105485167D01*
X55964838Y-105485167D01*
X56106883Y-105828943D01*
X56369673Y-106092192D01*
X56713201Y-106234838D01*
X57085167Y-106235162D01*
X57428943Y-106093117D01*
X57692192Y-105830327D01*
X57752467Y-105685167D01*
X63864838Y-105685167D01*
X64006883Y-106028943D01*
X64269673Y-106292192D01*
X64613201Y-106434838D01*
X64985167Y-106435162D01*
X65328943Y-106293117D01*
X65592192Y-106030327D01*
X65734838Y-105686799D01*
X65735162Y-105314833D01*
X65593117Y-104971057D01*
X65330327Y-104707808D01*
X64986799Y-104565162D01*
X64614833Y-104564838D01*
X64271057Y-104706883D01*
X64007808Y-104969673D01*
X63865162Y-105313201D01*
X63864838Y-105685167D01*
X57752467Y-105685167D01*
X57834838Y-105486799D01*
X57835162Y-105114833D01*
X57693117Y-104771057D01*
X57430327Y-104507808D01*
X57231307Y-104425167D01*
X66054838Y-104425167D01*
X66196883Y-104768943D01*
X66459673Y-105032192D01*
X66803201Y-105174838D01*
X67175167Y-105175162D01*
X67518943Y-105033117D01*
X67782192Y-104770327D01*
X67924838Y-104426799D01*
X67925162Y-104054833D01*
X67783117Y-103711057D01*
X67520327Y-103447808D01*
X67176799Y-103305162D01*
X66804833Y-103304838D01*
X66461057Y-103446883D01*
X66197808Y-103709673D01*
X66055162Y-104053201D01*
X66054838Y-104425167D01*
X57231307Y-104425167D01*
X57086799Y-104365162D01*
X56714833Y-104364838D01*
X56371057Y-104506883D01*
X56107808Y-104769673D01*
X55965162Y-105113201D01*
X55964838Y-105485167D01*
X50785000Y-105485167D01*
X50785000Y-103085167D01*
X50864838Y-103085167D01*
X51006883Y-103428943D01*
X51269673Y-103692192D01*
X51613201Y-103834838D01*
X51985167Y-103835162D01*
X52328943Y-103693117D01*
X52592192Y-103430327D01*
X52734838Y-103086799D01*
X52735162Y-102714833D01*
X52593117Y-102371057D01*
X52330327Y-102107808D01*
X51986799Y-101965162D01*
X51614833Y-101964838D01*
X51271057Y-102106883D01*
X51007808Y-102369673D01*
X50865162Y-102713201D01*
X50864838Y-103085167D01*
X50785000Y-103085167D01*
X50785000Y-100000000D01*
X51965000Y-100000000D01*
X52119905Y-100778761D01*
X52561038Y-101438962D01*
X53221239Y-101880095D01*
X54000000Y-102035000D01*
X54778761Y-101880095D01*
X55438962Y-101438962D01*
X55880095Y-100778761D01*
X56035000Y-100000000D01*
X55880095Y-99221239D01*
X55438962Y-98561038D01*
X54778761Y-98119905D01*
X54000000Y-97965000D01*
X53221239Y-98119905D01*
X52561038Y-98561038D01*
X52119905Y-99221239D01*
X51965000Y-100000000D01*
X50785000Y-100000000D01*
X50785000Y-97945167D01*
X57184838Y-97945167D01*
X57326883Y-98288943D01*
X57589673Y-98552192D01*
X57933201Y-98694838D01*
X58305167Y-98695162D01*
X58628210Y-98561683D01*
X58565250Y-98713309D01*
X58564752Y-99284187D01*
X58782757Y-99811800D01*
X58970603Y-99999974D01*
X58784176Y-100186077D01*
X58565250Y-100713309D01*
X58564752Y-101284187D01*
X58782757Y-101811800D01*
X59186077Y-102215824D01*
X59713309Y-102434750D01*
X60284187Y-102435248D01*
X60811800Y-102217243D01*
X60999974Y-102029397D01*
X61186077Y-102215824D01*
X61713309Y-102434750D01*
X62284187Y-102435248D01*
X62811800Y-102217243D01*
X62999974Y-102029397D01*
X63186077Y-102215824D01*
X63713309Y-102434750D01*
X64284187Y-102435248D01*
X64811800Y-102217243D01*
X64999974Y-102029397D01*
X65186077Y-102215824D01*
X65713309Y-102434750D01*
X66284187Y-102435248D01*
X66811800Y-102217243D01*
X66999974Y-102029397D01*
X67186077Y-102215824D01*
X67713309Y-102434750D01*
X68284187Y-102435248D01*
X68811800Y-102217243D01*
X68999974Y-102029397D01*
X69186077Y-102215824D01*
X69713309Y-102434750D01*
X70284187Y-102435248D01*
X70811800Y-102217243D01*
X70999974Y-102029397D01*
X71186077Y-102215824D01*
X71713309Y-102434750D01*
X72284187Y-102435248D01*
X72811800Y-102217243D01*
X72999974Y-102029397D01*
X73186077Y-102215824D01*
X73713309Y-102434750D01*
X74284187Y-102435248D01*
X74811800Y-102217243D01*
X74999974Y-102029397D01*
X75186077Y-102215824D01*
X75713309Y-102434750D01*
X76284187Y-102435248D01*
X76811800Y-102217243D01*
X76999974Y-102029397D01*
X77186077Y-102215824D01*
X77713309Y-102434750D01*
X78284187Y-102435248D01*
X78811800Y-102217243D01*
X78999974Y-102029397D01*
X79186077Y-102215824D01*
X79713309Y-102434750D01*
X80284187Y-102435248D01*
X80811800Y-102217243D01*
X80999974Y-102029397D01*
X81186077Y-102215824D01*
X81713309Y-102434750D01*
X82284187Y-102435248D01*
X82811800Y-102217243D01*
X82999974Y-102029397D01*
X83186077Y-102215824D01*
X83381014Y-102296769D01*
X83207808Y-102469673D01*
X83065162Y-102813201D01*
X83064838Y-103185167D01*
X83206883Y-103528943D01*
X83469673Y-103792192D01*
X83813201Y-103934838D01*
X84185167Y-103935162D01*
X84528943Y-103793117D01*
X84562118Y-103760000D01*
X90855121Y-103760000D01*
X90854838Y-104085167D01*
X90996883Y-104428943D01*
X91259673Y-104692192D01*
X91491678Y-104788530D01*
X91586883Y-105018943D01*
X91849673Y-105282192D01*
X92193201Y-105424838D01*
X92565167Y-105425162D01*
X92908943Y-105283117D01*
X93172192Y-105020327D01*
X93257382Y-104815167D01*
X95534838Y-104815167D01*
X95676883Y-105158943D01*
X95939673Y-105422192D01*
X96283201Y-105564838D01*
X96655167Y-105565162D01*
X96998943Y-105423117D01*
X97262192Y-105160327D01*
X97404838Y-104816799D01*
X97405162Y-104444833D01*
X97263117Y-104101057D01*
X97000327Y-103837808D01*
X96656799Y-103695162D01*
X96284833Y-103694838D01*
X95941057Y-103836883D01*
X95677808Y-104099673D01*
X95535162Y-104443201D01*
X95534838Y-104815167D01*
X93257382Y-104815167D01*
X93314838Y-104676799D01*
X93315162Y-104304833D01*
X93173117Y-103961057D01*
X92972411Y-103760000D01*
X94500000Y-103760000D01*
X94790839Y-103702148D01*
X95037401Y-103537401D01*
X95766111Y-102808691D01*
X95766038Y-102892267D01*
X95908083Y-103236043D01*
X96170873Y-103499292D01*
X96514401Y-103641938D01*
X96886367Y-103642262D01*
X97230143Y-103500217D01*
X97493392Y-103237427D01*
X97513086Y-103190000D01*
X97634960Y-103190000D01*
X97634960Y-105317600D01*
X97679238Y-105552917D01*
X97818310Y-105769041D01*
X98030510Y-105914031D01*
X98282400Y-105965040D01*
X100517600Y-105965040D01*
X100752917Y-105920762D01*
X100969041Y-105781690D01*
X101114031Y-105569490D01*
X101149448Y-105394596D01*
X101179238Y-105552917D01*
X101318310Y-105769041D01*
X101530510Y-105914031D01*
X101595926Y-105927278D01*
X101585162Y-105953201D01*
X101584838Y-106325167D01*
X101726883Y-106668943D01*
X101989673Y-106932192D01*
X102333201Y-107074838D01*
X102705167Y-107075162D01*
X103048943Y-106933117D01*
X103312192Y-106670327D01*
X103454838Y-106326799D01*
X103455153Y-105965040D01*
X104017600Y-105965040D01*
X104252917Y-105920762D01*
X104469041Y-105781690D01*
X104614031Y-105569490D01*
X104649448Y-105394596D01*
X104679238Y-105552917D01*
X104818310Y-105769041D01*
X105030510Y-105914031D01*
X105282400Y-105965040D01*
X107517600Y-105965040D01*
X107752917Y-105920762D01*
X107969041Y-105781690D01*
X108114031Y-105569490D01*
X108165040Y-105317600D01*
X108165040Y-104345167D01*
X108204838Y-104345167D01*
X108346883Y-104688943D01*
X108609673Y-104952192D01*
X108953201Y-105094838D01*
X109095073Y-105094962D01*
X109094838Y-105365167D01*
X109236883Y-105708943D01*
X109499673Y-105972192D01*
X109843201Y-106114838D01*
X110215167Y-106115162D01*
X110558943Y-105973117D01*
X110822192Y-105710327D01*
X110964838Y-105366799D01*
X110965162Y-104994833D01*
X110823117Y-104651057D01*
X110560327Y-104387808D01*
X110216799Y-104245162D01*
X110074927Y-104245038D01*
X110075162Y-103974833D01*
X109933117Y-103631057D01*
X109670327Y-103367808D01*
X109326799Y-103225162D01*
X108954833Y-103224838D01*
X108611057Y-103366883D01*
X108347808Y-103629673D01*
X108205162Y-103973201D01*
X108204838Y-104345167D01*
X108165040Y-104345167D01*
X108165040Y-103082400D01*
X108120762Y-102847083D01*
X107981690Y-102630959D01*
X107769490Y-102485969D01*
X107517600Y-102434960D01*
X105282400Y-102434960D01*
X105047083Y-102479238D01*
X104830959Y-102618310D01*
X104685969Y-102830510D01*
X104650552Y-103005404D01*
X104620762Y-102847083D01*
X104481690Y-102630959D01*
X104269490Y-102485969D01*
X104017600Y-102434960D01*
X101782400Y-102434960D01*
X101547083Y-102479238D01*
X101330959Y-102618310D01*
X101185969Y-102830510D01*
X101150552Y-103005404D01*
X101120762Y-102847083D01*
X100981690Y-102630959D01*
X100769490Y-102485969D01*
X100660836Y-102463966D01*
X101584802Y-101540000D01*
X107577541Y-101540000D01*
X107590026Y-101548342D01*
X107900000Y-101610000D01*
X108064488Y-101610000D01*
X114282571Y-107828084D01*
X114390000Y-108088083D01*
X114390000Y-114300000D01*
X114451658Y-114609974D01*
X114578630Y-114800000D01*
X114627244Y-114872756D01*
X114764903Y-115010415D01*
X114764838Y-115085167D01*
X114906883Y-115428943D01*
X115169673Y-115692192D01*
X115513201Y-115834838D01*
X115885167Y-115835162D01*
X116228943Y-115693117D01*
X116492192Y-115430327D01*
X116634838Y-115086799D01*
X116635162Y-114714833D01*
X116493117Y-114371057D01*
X116230327Y-114107808D01*
X116098639Y-114053126D01*
X116010000Y-113964488D01*
X116010000Y-112035167D01*
X128264838Y-112035167D01*
X128406883Y-112378943D01*
X128669673Y-112642192D01*
X129013201Y-112784838D01*
X129385167Y-112785162D01*
X129728943Y-112643117D01*
X129992192Y-112380327D01*
X130134838Y-112036799D01*
X130135162Y-111664833D01*
X129993117Y-111321057D01*
X129730327Y-111057808D01*
X129386799Y-110915162D01*
X129014833Y-110914838D01*
X128671057Y-111056883D01*
X128407808Y-111319673D01*
X128265162Y-111663201D01*
X128264838Y-112035167D01*
X116010000Y-112035167D01*
X116010000Y-109585167D01*
X122890138Y-109585167D01*
X123032183Y-109928943D01*
X123294973Y-110192192D01*
X123638501Y-110334838D01*
X124010467Y-110335162D01*
X124354243Y-110193117D01*
X124617492Y-109930327D01*
X124760138Y-109586799D01*
X124760462Y-109214833D01*
X124618417Y-108871057D01*
X124355627Y-108607808D01*
X124012099Y-108465162D01*
X123640133Y-108464838D01*
X123296357Y-108606883D01*
X123033108Y-108869673D01*
X122890462Y-109213201D01*
X122890138Y-109585167D01*
X116010000Y-109585167D01*
X116010000Y-108622667D01*
X120356138Y-108622667D01*
X120498183Y-108966443D01*
X120760973Y-109229692D01*
X121104501Y-109372338D01*
X121476467Y-109372662D01*
X121820243Y-109230617D01*
X122083492Y-108967827D01*
X122226138Y-108624299D01*
X122226462Y-108252333D01*
X122084417Y-107908557D01*
X121821627Y-107645308D01*
X121478099Y-107502662D01*
X121106133Y-107502338D01*
X120762357Y-107644383D01*
X120499108Y-107907173D01*
X120356462Y-108250701D01*
X120356138Y-108622667D01*
X116010000Y-108622667D01*
X116010000Y-108087441D01*
X116134838Y-107786799D01*
X116135162Y-107414833D01*
X115993117Y-107071057D01*
X115730327Y-106807808D01*
X115427629Y-106682116D01*
X113330680Y-104585167D01*
X117264838Y-104585167D01*
X117406883Y-104928943D01*
X117669673Y-105192192D01*
X118013201Y-105334838D01*
X118385167Y-105335162D01*
X118728943Y-105193117D01*
X118992192Y-104930327D01*
X119134838Y-104586799D01*
X119135013Y-104385167D01*
X122664838Y-104385167D01*
X122806883Y-104728943D01*
X123069673Y-104992192D01*
X123413201Y-105134838D01*
X123785167Y-105135162D01*
X124128943Y-104993117D01*
X124392192Y-104730327D01*
X124473229Y-104535167D01*
X128164838Y-104535167D01*
X128306883Y-104878943D01*
X128569673Y-105142192D01*
X128913201Y-105284838D01*
X129285167Y-105285162D01*
X129628943Y-105143117D01*
X129892192Y-104880327D01*
X130034838Y-104536799D01*
X130035162Y-104164833D01*
X129893117Y-103821057D01*
X129630327Y-103557808D01*
X129286799Y-103415162D01*
X128914833Y-103414838D01*
X128571057Y-103556883D01*
X128307808Y-103819673D01*
X128165162Y-104163201D01*
X128164838Y-104535167D01*
X124473229Y-104535167D01*
X124534838Y-104386799D01*
X124535162Y-104014833D01*
X124393117Y-103671057D01*
X124130327Y-103407808D01*
X123786799Y-103265162D01*
X123414833Y-103264838D01*
X123071057Y-103406883D01*
X122807808Y-103669673D01*
X122665162Y-104013201D01*
X122664838Y-104385167D01*
X119135013Y-104385167D01*
X119135162Y-104214833D01*
X118993117Y-103871057D01*
X118730327Y-103607808D01*
X118386799Y-103465162D01*
X118014833Y-103464838D01*
X117671057Y-103606883D01*
X117407808Y-103869673D01*
X117265162Y-104213201D01*
X117264838Y-104585167D01*
X113330680Y-104585167D01*
X108972756Y-100227244D01*
X108965943Y-100222692D01*
X108835144Y-100135294D01*
X108835162Y-100114833D01*
X108693117Y-99771057D01*
X108430327Y-99507808D01*
X108086799Y-99365162D01*
X107714833Y-99364838D01*
X107371057Y-99506883D01*
X107107808Y-99769673D01*
X107003863Y-100020000D01*
X104955053Y-100020000D01*
X104955162Y-99894833D01*
X104813117Y-99551057D01*
X104550327Y-99287808D01*
X104206799Y-99145162D01*
X103834833Y-99144838D01*
X103491057Y-99286883D01*
X103227808Y-99549673D01*
X103085162Y-99893201D01*
X103085052Y-100020000D01*
X101356216Y-100020000D01*
X101415492Y-99960827D01*
X101558138Y-99617299D01*
X101558462Y-99245333D01*
X101416417Y-98901557D01*
X101153627Y-98638308D01*
X100810099Y-98495662D01*
X100438133Y-98495338D01*
X100094357Y-98637383D01*
X99831108Y-98900173D01*
X99688462Y-99243701D01*
X99688182Y-99564817D01*
X99597433Y-99564738D01*
X99261691Y-99703464D01*
X99434750Y-99286691D01*
X99435248Y-98715813D01*
X99217243Y-98188200D01*
X98813923Y-97784176D01*
X98286691Y-97565250D01*
X97715813Y-97564752D01*
X97188200Y-97782757D01*
X97000026Y-97970603D01*
X96813923Y-97784176D01*
X96286691Y-97565250D01*
X95715813Y-97564752D01*
X95188200Y-97782757D01*
X95000026Y-97970603D01*
X94813923Y-97784176D01*
X94286691Y-97565250D01*
X93715813Y-97564752D01*
X93188200Y-97782757D01*
X93000026Y-97970603D01*
X92813923Y-97784176D01*
X92286691Y-97565250D01*
X91715813Y-97564752D01*
X91188200Y-97782757D01*
X91000026Y-97970603D01*
X90813923Y-97784176D01*
X90286691Y-97565250D01*
X89715813Y-97564752D01*
X89188200Y-97782757D01*
X89000026Y-97970603D01*
X88813923Y-97784176D01*
X88286691Y-97565250D01*
X87715813Y-97564752D01*
X87188200Y-97782757D01*
X87000026Y-97970603D01*
X86813923Y-97784176D01*
X86286691Y-97565250D01*
X85715813Y-97564752D01*
X85188200Y-97782757D01*
X85000026Y-97970603D01*
X84813923Y-97784176D01*
X84286691Y-97565250D01*
X83715813Y-97564752D01*
X83188200Y-97782757D01*
X83000026Y-97970603D01*
X82813923Y-97784176D01*
X82286691Y-97565250D01*
X81715813Y-97564752D01*
X81188200Y-97782757D01*
X81000026Y-97970603D01*
X80813923Y-97784176D01*
X80286691Y-97565250D01*
X79715813Y-97564752D01*
X79188200Y-97782757D01*
X79000026Y-97970603D01*
X78813923Y-97784176D01*
X78286691Y-97565250D01*
X77715813Y-97564752D01*
X77188200Y-97782757D01*
X77000026Y-97970603D01*
X76813923Y-97784176D01*
X76286691Y-97565250D01*
X75715813Y-97564752D01*
X75188200Y-97782757D01*
X75000026Y-97970603D01*
X74813923Y-97784176D01*
X74286691Y-97565250D01*
X73715813Y-97564752D01*
X73188200Y-97782757D01*
X73000026Y-97970603D01*
X72813923Y-97784176D01*
X72286691Y-97565250D01*
X71715813Y-97564752D01*
X71188200Y-97782757D01*
X71000026Y-97970603D01*
X70813923Y-97784176D01*
X70286691Y-97565250D01*
X69715813Y-97564752D01*
X69188200Y-97782757D01*
X69000026Y-97970603D01*
X68813923Y-97784176D01*
X68286691Y-97565250D01*
X67715813Y-97564752D01*
X67188200Y-97782757D01*
X67000026Y-97970603D01*
X66813923Y-97784176D01*
X66286691Y-97565250D01*
X65715813Y-97564752D01*
X65188200Y-97782757D01*
X65000026Y-97970603D01*
X64813923Y-97784176D01*
X64286691Y-97565250D01*
X63715813Y-97564752D01*
X63188200Y-97782757D01*
X63000026Y-97970603D01*
X62813923Y-97784176D01*
X62286691Y-97565250D01*
X61715813Y-97564752D01*
X61188200Y-97782757D01*
X61000026Y-97970603D01*
X60813923Y-97784176D01*
X60286691Y-97565250D01*
X59715813Y-97564752D01*
X59188200Y-97782757D01*
X59054865Y-97915860D01*
X59055162Y-97574833D01*
X58913117Y-97231057D01*
X58650327Y-96967808D01*
X58306799Y-96825162D01*
X57934833Y-96824838D01*
X57591057Y-96966883D01*
X57327808Y-97229673D01*
X57185162Y-97573201D01*
X57184838Y-97945167D01*
X50785000Y-97945167D01*
X50785000Y-96785000D01*
X108326917Y-96785000D01*
X108191308Y-96920373D01*
X108191308Y-96920373D01*
G37*
X108191308Y-96920373D02*
X108048662Y-97263901D01*
X108048338Y-97635867D01*
X108190383Y-97979643D01*
X108453173Y-98242892D01*
X108796701Y-98385538D01*
X109168667Y-98385862D01*
X109253603Y-98350767D01*
X114249238Y-98350767D01*
X114391283Y-98694543D01*
X114654073Y-98957792D01*
X114997601Y-99100438D01*
X115369567Y-99100762D01*
X115713343Y-98958717D01*
X115889967Y-98782400D01*
X124334960Y-98782400D01*
X124334960Y-101017600D01*
X124379238Y-101252917D01*
X124518310Y-101469041D01*
X124730510Y-101614031D01*
X124982400Y-101665040D01*
X127217600Y-101665040D01*
X127452917Y-101620762D01*
X127669041Y-101481690D01*
X127814031Y-101269490D01*
X127865040Y-101017600D01*
X127865040Y-100000000D01*
X128965000Y-100000000D01*
X129119905Y-100778761D01*
X129561038Y-101438962D01*
X130221239Y-101880095D01*
X131000000Y-102035000D01*
X131778761Y-101880095D01*
X132438962Y-101438962D01*
X132880095Y-100778761D01*
X133035000Y-100000000D01*
X132880095Y-99221239D01*
X132438962Y-98561038D01*
X131778761Y-98119905D01*
X131000000Y-97965000D01*
X130221239Y-98119905D01*
X129561038Y-98561038D01*
X129119905Y-99221239D01*
X128965000Y-100000000D01*
X127865040Y-100000000D01*
X127865040Y-98782400D01*
X127820762Y-98547083D01*
X127681690Y-98330959D01*
X127469490Y-98185969D01*
X127217600Y-98134960D01*
X124982400Y-98134960D01*
X124747083Y-98179238D01*
X124530959Y-98318310D01*
X124385969Y-98530510D01*
X124334960Y-98782400D01*
X115889967Y-98782400D01*
X115976592Y-98695927D01*
X116119238Y-98352399D01*
X116119562Y-97980433D01*
X115977517Y-97636657D01*
X115714727Y-97373408D01*
X115371199Y-97230762D01*
X114999233Y-97230438D01*
X114655457Y-97372483D01*
X114392208Y-97635273D01*
X114249562Y-97978801D01*
X114249238Y-98350767D01*
X109253603Y-98350767D01*
X109512443Y-98243817D01*
X109775692Y-97981027D01*
X109918338Y-97637499D01*
X109918662Y-97265533D01*
X109776617Y-96921757D01*
X109640098Y-96785000D01*
X118860392Y-96785000D01*
X118624608Y-97020373D01*
X118481962Y-97363901D01*
X118481638Y-97735867D01*
X118623683Y-98079643D01*
X118886473Y-98342892D01*
X119230001Y-98485538D01*
X119601967Y-98485862D01*
X119945743Y-98343817D01*
X120208992Y-98081027D01*
X120351638Y-97737499D01*
X120351962Y-97365533D01*
X120209917Y-97021757D01*
X119973573Y-96785000D01*
X134215000Y-96785000D01*
X134215000Y-149215000D01*
X67618859Y-149215000D01*
X67680000Y-148907624D01*
X67680000Y-148192376D01*
X67597790Y-147779078D01*
X67363675Y-147428701D01*
X67013298Y-147194586D01*
X66600000Y-147112376D01*
X66186702Y-147194586D01*
X65836325Y-147428701D01*
X65602210Y-147779078D01*
X65520000Y-148192376D01*
X65520000Y-148907624D01*
X65581141Y-149215000D01*
X60618859Y-149215000D01*
X60680000Y-148907624D01*
X60680000Y-148192376D01*
X60597790Y-147779078D01*
X60363675Y-147428701D01*
X60013298Y-147194586D01*
X59600000Y-147112376D01*
X59186702Y-147194586D01*
X58836325Y-147428701D01*
X58831216Y-147436347D01*
X58934838Y-147186799D01*
X58935162Y-146814833D01*
X58793117Y-146471057D01*
X58530327Y-146207808D01*
X58186799Y-146065162D01*
X57814833Y-146064838D01*
X57471057Y-146206883D01*
X57207808Y-146469673D01*
X57065162Y-146813201D01*
X57064838Y-147185167D01*
X57206883Y-147528943D01*
X57469673Y-147792192D01*
X57813201Y-147934838D01*
X58185167Y-147935162D01*
X58528943Y-147793117D01*
X58720803Y-147601592D01*
X58602210Y-147779078D01*
X58520000Y-148192376D01*
X58520000Y-148907624D01*
X58581141Y-149215000D01*
X53965040Y-149215000D01*
X53965040Y-146982400D01*
X53920762Y-146747083D01*
X53781690Y-146530959D01*
X53569490Y-146385969D01*
X53317600Y-146334960D01*
X51082400Y-146334960D01*
X50847083Y-146379238D01*
X50785000Y-146419187D01*
X50785000Y-145850000D01*
X59315315Y-145850000D01*
X59399809Y-146274779D01*
X59640426Y-146634889D01*
X60000536Y-146875506D01*
X60425315Y-146960000D01*
X60774685Y-146960000D01*
X61199464Y-146875506D01*
X61559574Y-146634889D01*
X61800191Y-146274779D01*
X61884685Y-145850000D01*
X61822014Y-145534933D01*
X62085167Y-145535162D01*
X62428943Y-145393117D01*
X62692192Y-145130327D01*
X62834838Y-144786799D01*
X62834861Y-144760000D01*
X65324768Y-144760000D01*
X65000536Y-144824494D01*
X64640426Y-145065111D01*
X64399809Y-145425221D01*
X64315315Y-145850000D01*
X64399809Y-146274779D01*
X64640426Y-146634889D01*
X65000536Y-146875506D01*
X65425315Y-146960000D01*
X65774685Y-146960000D01*
X66199464Y-146875506D01*
X66559574Y-146634889D01*
X66800191Y-146274779D01*
X66865044Y-145948742D01*
X66864838Y-146185167D01*
X67006883Y-146528943D01*
X67269673Y-146792192D01*
X67613201Y-146934838D01*
X67985167Y-146935162D01*
X68328943Y-146793117D01*
X68592192Y-146530327D01*
X68734838Y-146186799D01*
X68735162Y-145814833D01*
X68593117Y-145471057D01*
X68330327Y-145207808D01*
X67986799Y-145065162D01*
X67614833Y-145064838D01*
X67271057Y-145206883D01*
X67007808Y-145469673D01*
X66873413Y-145793331D01*
X66800191Y-145425221D01*
X66559574Y-145065111D01*
X66199464Y-144824494D01*
X65901209Y-144765167D01*
X91574838Y-144765167D01*
X91716883Y-145108943D01*
X91979673Y-145372192D01*
X92323201Y-145514838D01*
X92695167Y-145515162D01*
X93038943Y-145373117D01*
X93302192Y-145110327D01*
X93444838Y-144766799D01*
X93445144Y-144415167D01*
X94564838Y-144415167D01*
X94706883Y-144758943D01*
X94969673Y-145022192D01*
X95313201Y-145164838D01*
X95685167Y-145165162D01*
X96028943Y-145023117D01*
X96292192Y-144760327D01*
X96431363Y-144425167D01*
X97564838Y-144425167D01*
X97706883Y-144768943D01*
X97969673Y-145032192D01*
X98313201Y-145174838D01*
X98685167Y-145175162D01*
X99028943Y-145033117D01*
X99127064Y-144935167D01*
X100564838Y-144935167D01*
X100706883Y-145278943D01*
X100969673Y-145542192D01*
X101313201Y-145684838D01*
X101685167Y-145685162D01*
X102028943Y-145543117D01*
X102292192Y-145280327D01*
X102434838Y-144936799D01*
X102435162Y-144564833D01*
X102414641Y-144515167D01*
X117344838Y-144515167D01*
X117486883Y-144858943D01*
X117749673Y-145122192D01*
X118093201Y-145264838D01*
X118465167Y-145265162D01*
X118808943Y-145123117D01*
X119072192Y-144860327D01*
X119214838Y-144516799D01*
X119214874Y-144475167D01*
X120364838Y-144475167D01*
X120506883Y-144818943D01*
X120769673Y-145082192D01*
X121113201Y-145224838D01*
X121485167Y-145225162D01*
X121828943Y-145083117D01*
X122092192Y-144820327D01*
X122122944Y-144746267D01*
X122306638Y-144746267D01*
X122448683Y-145090043D01*
X122711473Y-145353292D01*
X123055001Y-145495938D01*
X123426967Y-145496262D01*
X123770743Y-145354217D01*
X123870907Y-145254228D01*
X124113201Y-145354838D01*
X124485167Y-145355162D01*
X124828943Y-145213117D01*
X125092192Y-144950327D01*
X125234838Y-144606799D01*
X125234978Y-144445167D01*
X126374838Y-144445167D01*
X126516883Y-144788943D01*
X126779673Y-145052192D01*
X127123201Y-145194838D01*
X127495167Y-145195162D01*
X127838943Y-145053117D01*
X128102192Y-144790327D01*
X128244838Y-144446799D01*
X128245162Y-144074833D01*
X128103117Y-143731057D01*
X127840327Y-143467808D01*
X127496799Y-143325162D01*
X127124833Y-143324838D01*
X126781057Y-143466883D01*
X126517808Y-143729673D01*
X126375162Y-144073201D01*
X126374838Y-144445167D01*
X125234978Y-144445167D01*
X125235162Y-144234833D01*
X125093117Y-143891057D01*
X124830327Y-143627808D01*
X124486799Y-143485162D01*
X124114833Y-143484838D01*
X123771057Y-143626883D01*
X123670893Y-143726872D01*
X123428599Y-143626262D01*
X123056633Y-143625938D01*
X122712857Y-143767983D01*
X122449608Y-144030773D01*
X122306962Y-144374301D01*
X122306638Y-144746267D01*
X122122944Y-144746267D01*
X122234838Y-144476799D01*
X122235162Y-144104833D01*
X122093117Y-143761057D01*
X121830327Y-143497808D01*
X121486799Y-143355162D01*
X121114833Y-143354838D01*
X120771057Y-143496883D01*
X120507808Y-143759673D01*
X120365162Y-144103201D01*
X120364838Y-144475167D01*
X119214874Y-144475167D01*
X119215162Y-144144833D01*
X119073117Y-143801057D01*
X118810327Y-143537808D01*
X118466799Y-143395162D01*
X118094833Y-143394838D01*
X117751057Y-143536883D01*
X117487808Y-143799673D01*
X117345162Y-144143201D01*
X117344838Y-144515167D01*
X102414641Y-144515167D01*
X102293117Y-144221057D01*
X102030327Y-143957808D01*
X101686799Y-143815162D01*
X101314833Y-143814838D01*
X100971057Y-143956883D01*
X100707808Y-144219673D01*
X100565162Y-144563201D01*
X100564838Y-144935167D01*
X99127064Y-144935167D01*
X99292192Y-144770327D01*
X99434838Y-144426799D01*
X99435162Y-144054833D01*
X99293117Y-143711057D01*
X99030327Y-143447808D01*
X98686799Y-143305162D01*
X98314833Y-143304838D01*
X97971057Y-143446883D01*
X97707808Y-143709673D01*
X97565162Y-144053201D01*
X97564838Y-144425167D01*
X96431363Y-144425167D01*
X96434838Y-144416799D01*
X96435162Y-144044833D01*
X96293117Y-143701057D01*
X96030327Y-143437808D01*
X95686799Y-143295162D01*
X95314833Y-143294838D01*
X94971057Y-143436883D01*
X94707808Y-143699673D01*
X94565162Y-144043201D01*
X94564838Y-144415167D01*
X93445144Y-144415167D01*
X93445162Y-144394833D01*
X93303117Y-144051057D01*
X93040327Y-143787808D01*
X92696799Y-143645162D01*
X92324833Y-143644838D01*
X91981057Y-143786883D01*
X91717808Y-144049673D01*
X91575162Y-144393201D01*
X91574838Y-144765167D01*
X65901209Y-144765167D01*
X65875232Y-144760000D01*
X68400000Y-144760000D01*
X68690839Y-144702148D01*
X68937401Y-144537401D01*
X69337401Y-144137401D01*
X69502148Y-143890840D01*
X69522843Y-143786799D01*
X69560000Y-143600000D01*
X69560000Y-142900000D01*
X69502148Y-142609161D01*
X69392572Y-142445167D01*
X87654838Y-142445167D01*
X87796883Y-142788943D01*
X88059673Y-143052192D01*
X88403201Y-143194838D01*
X88775167Y-143195162D01*
X89118943Y-143053117D01*
X89382192Y-142790327D01*
X89524838Y-142446799D01*
X89525162Y-142074833D01*
X89383117Y-141731057D01*
X89237482Y-141585167D01*
X92394838Y-141585167D01*
X92536883Y-141928943D01*
X92799673Y-142192192D01*
X93143201Y-142334838D01*
X93515167Y-142335162D01*
X93858943Y-142193117D01*
X94122192Y-141930327D01*
X94223991Y-141685167D01*
X98564838Y-141685167D01*
X98706883Y-142028943D01*
X98969673Y-142292192D01*
X99313201Y-142434838D01*
X99685167Y-142435162D01*
X100000351Y-142304931D01*
X100313201Y-142434838D01*
X100685167Y-142435162D01*
X101028943Y-142293117D01*
X101292192Y-142030327D01*
X101434838Y-141686799D01*
X101435162Y-141314833D01*
X101293117Y-140971057D01*
X101030327Y-140707808D01*
X100686799Y-140565162D01*
X100314833Y-140564838D01*
X99999649Y-140695069D01*
X99686799Y-140565162D01*
X99314833Y-140564838D01*
X98971057Y-140706883D01*
X98707808Y-140969673D01*
X98565162Y-141313201D01*
X98564838Y-141685167D01*
X94223991Y-141685167D01*
X94264838Y-141586799D01*
X94265162Y-141214833D01*
X94123117Y-140871057D01*
X93860327Y-140607808D01*
X93516799Y-140465162D01*
X93144833Y-140464838D01*
X92801057Y-140606883D01*
X92537808Y-140869673D01*
X92395162Y-141213201D01*
X92394838Y-141585167D01*
X89237482Y-141585167D01*
X89120327Y-141467808D01*
X88776799Y-141325162D01*
X88404833Y-141324838D01*
X88061057Y-141466883D01*
X87797808Y-141729673D01*
X87655162Y-142073201D01*
X87654838Y-142445167D01*
X69392572Y-142445167D01*
X69337401Y-142362599D01*
X68673476Y-141698674D01*
X68928943Y-141593117D01*
X69192192Y-141330327D01*
X69334838Y-140986799D01*
X69335162Y-140614833D01*
X69193117Y-140271057D01*
X68967621Y-140045167D01*
X90864838Y-140045167D01*
X91006883Y-140388943D01*
X91269673Y-140652192D01*
X91613201Y-140794838D01*
X91985167Y-140795162D01*
X92328943Y-140653117D01*
X92592192Y-140390327D01*
X92734838Y-140046799D01*
X92734891Y-139985167D01*
X100864838Y-139985167D01*
X101006883Y-140328943D01*
X101269673Y-140592192D01*
X101613201Y-140734838D01*
X101985167Y-140735162D01*
X102083082Y-140694704D01*
X101907808Y-140869673D01*
X101765162Y-141213201D01*
X101764838Y-141585167D01*
X101906883Y-141928943D01*
X102169673Y-142192192D01*
X102513201Y-142334838D01*
X102885167Y-142335162D01*
X103228943Y-142193117D01*
X103492192Y-141930327D01*
X103604497Y-141659867D01*
X106414838Y-141659867D01*
X106556883Y-142003643D01*
X106819673Y-142266892D01*
X107163201Y-142409538D01*
X107535167Y-142409862D01*
X107878943Y-142267817D01*
X108142192Y-142005027D01*
X108187810Y-141895167D01*
X114374838Y-141895167D01*
X114374847Y-141895188D01*
X114374838Y-141905167D01*
X114516883Y-142248943D01*
X114779673Y-142512192D01*
X115123201Y-142654838D01*
X115495167Y-142655162D01*
X115838943Y-142513117D01*
X116102192Y-142250327D01*
X116244838Y-141906799D01*
X116245162Y-141534833D01*
X116245153Y-141534812D01*
X116245162Y-141524833D01*
X116103117Y-141181057D01*
X115840327Y-140917808D01*
X115496799Y-140775162D01*
X115124833Y-140774838D01*
X114781057Y-140916883D01*
X114517808Y-141179673D01*
X114375162Y-141523201D01*
X114374838Y-141895167D01*
X108187810Y-141895167D01*
X108284838Y-141661499D01*
X108285162Y-141289533D01*
X108143117Y-140945757D01*
X107880327Y-140682508D01*
X107766318Y-140635167D01*
X111004838Y-140635167D01*
X111146883Y-140978943D01*
X111409673Y-141242192D01*
X111753201Y-141384838D01*
X112125167Y-141385162D01*
X112468943Y-141243117D01*
X112732192Y-140980327D01*
X112874838Y-140636799D01*
X112875162Y-140264833D01*
X112846377Y-140195167D01*
X125844838Y-140195167D01*
X125986883Y-140538943D01*
X126249673Y-140802192D01*
X126593201Y-140944838D01*
X126965167Y-140945162D01*
X127308943Y-140803117D01*
X127572192Y-140540327D01*
X127714838Y-140196799D01*
X127715132Y-139859578D01*
X127856883Y-140202643D01*
X128026865Y-140372922D01*
X127751057Y-140486883D01*
X127487808Y-140749673D01*
X127345162Y-141093201D01*
X127344838Y-141465167D01*
X127486883Y-141808943D01*
X127749673Y-142072192D01*
X128093201Y-142214838D01*
X128465167Y-142215162D01*
X128808943Y-142073117D01*
X129072192Y-141810327D01*
X129214838Y-141466799D01*
X129215162Y-141094833D01*
X129073117Y-140751057D01*
X128903135Y-140580778D01*
X129178943Y-140466817D01*
X129442192Y-140204027D01*
X129456684Y-140169128D01*
X129499673Y-140212192D01*
X129843201Y-140354838D01*
X130215167Y-140355162D01*
X130558943Y-140213117D01*
X130822192Y-139950327D01*
X130964838Y-139606799D01*
X130965162Y-139234833D01*
X130823117Y-138891057D01*
X130560327Y-138627808D01*
X130216799Y-138485162D01*
X129844833Y-138484838D01*
X129501057Y-138626883D01*
X129237808Y-138889673D01*
X129223316Y-138924572D01*
X129180327Y-138881508D01*
X128836799Y-138738862D01*
X128464833Y-138738538D01*
X128121057Y-138880583D01*
X127857808Y-139143373D01*
X127715162Y-139486901D01*
X127714868Y-139824122D01*
X127573117Y-139481057D01*
X127310327Y-139217808D01*
X126966799Y-139075162D01*
X126594833Y-139074838D01*
X126251057Y-139216883D01*
X125987808Y-139479673D01*
X125845162Y-139823201D01*
X125844838Y-140195167D01*
X112846377Y-140195167D01*
X112733117Y-139921057D01*
X112470327Y-139657808D01*
X112126799Y-139515162D01*
X111754833Y-139514838D01*
X111411057Y-139656883D01*
X111147808Y-139919673D01*
X111005162Y-140263201D01*
X111004838Y-140635167D01*
X107766318Y-140635167D01*
X107536799Y-140539862D01*
X107164833Y-140539538D01*
X106821057Y-140681583D01*
X106557808Y-140944373D01*
X106415162Y-141287901D01*
X106414838Y-141659867D01*
X103604497Y-141659867D01*
X103634838Y-141586799D01*
X103635162Y-141214833D01*
X103493117Y-140871057D01*
X103230327Y-140607808D01*
X102886799Y-140465162D01*
X102514833Y-140464838D01*
X102416918Y-140505296D01*
X102592192Y-140330327D01*
X102665807Y-140153044D01*
X102983201Y-140284838D01*
X103355167Y-140285162D01*
X103698943Y-140143117D01*
X103962192Y-139880327D01*
X104104838Y-139536799D01*
X104105162Y-139164833D01*
X103963117Y-138821057D01*
X103700327Y-138557808D01*
X103356799Y-138415162D01*
X102984833Y-138414838D01*
X102641057Y-138556883D01*
X102377808Y-138819673D01*
X102304193Y-138996956D01*
X101986799Y-138865162D01*
X101614833Y-138864838D01*
X101271057Y-139006883D01*
X101007808Y-139269673D01*
X100865162Y-139613201D01*
X100864838Y-139985167D01*
X92734891Y-139985167D01*
X92735162Y-139674833D01*
X92593117Y-139331057D01*
X92330327Y-139067808D01*
X91986799Y-138925162D01*
X91614833Y-138924838D01*
X91271057Y-139066883D01*
X91007808Y-139329673D01*
X90865162Y-139673201D01*
X90864838Y-140045167D01*
X68967621Y-140045167D01*
X68930327Y-140007808D01*
X68586799Y-139865162D01*
X68214833Y-139864838D01*
X67871057Y-140006883D01*
X67607808Y-140269673D01*
X67465162Y-140613201D01*
X67465117Y-140664969D01*
X67314833Y-140664838D01*
X66971057Y-140806883D01*
X66707808Y-141069673D01*
X66565162Y-141413201D01*
X66564838Y-141785167D01*
X66572956Y-141804813D01*
X66407808Y-141969673D01*
X66265162Y-142313201D01*
X66264838Y-142685167D01*
X66406883Y-143028943D01*
X66617572Y-143240000D01*
X62500000Y-143240000D01*
X62209161Y-143297852D01*
X61962599Y-143462599D01*
X61760320Y-143664878D01*
X61714833Y-143664838D01*
X61371057Y-143806883D01*
X61107808Y-144069673D01*
X60965162Y-144413201D01*
X60964844Y-144777825D01*
X60774685Y-144740000D01*
X60425315Y-144740000D01*
X60000536Y-144824494D01*
X59640426Y-145065111D01*
X59399809Y-145425221D01*
X59315315Y-145850000D01*
X50785000Y-145850000D01*
X50785000Y-137682400D01*
X52734960Y-137682400D01*
X52734960Y-139917600D01*
X52779238Y-140152917D01*
X52918310Y-140369041D01*
X53130510Y-140514031D01*
X53382400Y-140565040D01*
X55617600Y-140565040D01*
X55844405Y-140522364D01*
X55765162Y-140713201D01*
X55764838Y-141085167D01*
X55906883Y-141428943D01*
X56169673Y-141692192D01*
X56513201Y-141834838D01*
X56842591Y-141835125D01*
X56707808Y-141969673D01*
X56565162Y-142313201D01*
X56564838Y-142685167D01*
X56706883Y-143028943D01*
X56969673Y-143292192D01*
X57313201Y-143434838D01*
X57565143Y-143435057D01*
X57564838Y-143785167D01*
X57706883Y-144128943D01*
X57969673Y-144392192D01*
X58313201Y-144534838D01*
X58685167Y-144535162D01*
X59028943Y-144393117D01*
X59292192Y-144130327D01*
X59434838Y-143786799D01*
X59435162Y-143414833D01*
X59293117Y-143071057D01*
X59030327Y-142807808D01*
X58686799Y-142665162D01*
X58434857Y-142664943D01*
X58435162Y-142314833D01*
X58293117Y-141971057D01*
X58030327Y-141707808D01*
X57686799Y-141565162D01*
X57357409Y-141564875D01*
X57492192Y-141430327D01*
X57634838Y-141086799D01*
X57634929Y-140982577D01*
X57732667Y-140982662D01*
X57975078Y-140882500D01*
X59702500Y-140882500D01*
X60022041Y-140818939D01*
X60292934Y-140637934D01*
X62565701Y-138365167D01*
X79844838Y-138365167D01*
X79986883Y-138708943D01*
X80249673Y-138972192D01*
X80593201Y-139114838D01*
X80965167Y-139115162D01*
X81308943Y-138973117D01*
X81572192Y-138710327D01*
X81714838Y-138366799D01*
X81714839Y-138365167D01*
X82214838Y-138365167D01*
X82356883Y-138708943D01*
X82619673Y-138972192D01*
X82963201Y-139114838D01*
X83335167Y-139115162D01*
X83678943Y-138973117D01*
X83942192Y-138710327D01*
X84084838Y-138366799D01*
X84084891Y-138305167D01*
X84614838Y-138305167D01*
X84756883Y-138648943D01*
X85019673Y-138912192D01*
X85363201Y-139054838D01*
X85735167Y-139055162D01*
X86078943Y-138913117D01*
X86342192Y-138650327D01*
X86484838Y-138306799D01*
X86484848Y-138295167D01*
X87014838Y-138295167D01*
X87156883Y-138638943D01*
X87419673Y-138902192D01*
X87763201Y-139044838D01*
X88135167Y-139045162D01*
X88478943Y-138903117D01*
X88742192Y-138640327D01*
X88884838Y-138296799D01*
X88884943Y-138175167D01*
X89414838Y-138175167D01*
X89556883Y-138518943D01*
X89819673Y-138782192D01*
X90163201Y-138924838D01*
X90535167Y-138925162D01*
X90878943Y-138783117D01*
X91142192Y-138520327D01*
X91284838Y-138176799D01*
X91285162Y-137804833D01*
X91143117Y-137461057D01*
X90880327Y-137197808D01*
X90536799Y-137055162D01*
X90164833Y-137054838D01*
X89821057Y-137196883D01*
X89557808Y-137459673D01*
X89415162Y-137803201D01*
X89414838Y-138175167D01*
X88884943Y-138175167D01*
X88885162Y-137924833D01*
X88743117Y-137581057D01*
X88480327Y-137317808D01*
X88136799Y-137175162D01*
X87764833Y-137174838D01*
X87421057Y-137316883D01*
X87157808Y-137579673D01*
X87015162Y-137923201D01*
X87014838Y-138295167D01*
X86484848Y-138295167D01*
X86485162Y-137934833D01*
X86343117Y-137591057D01*
X86080327Y-137327808D01*
X85736799Y-137185162D01*
X85364833Y-137184838D01*
X85021057Y-137326883D01*
X84757808Y-137589673D01*
X84615162Y-137933201D01*
X84614838Y-138305167D01*
X84084891Y-138305167D01*
X84085162Y-137994833D01*
X83943117Y-137651057D01*
X83680327Y-137387808D01*
X83336799Y-137245162D01*
X82964833Y-137244838D01*
X82621057Y-137386883D01*
X82357808Y-137649673D01*
X82215162Y-137993201D01*
X82214838Y-138365167D01*
X81714839Y-138365167D01*
X81715162Y-137994833D01*
X81573117Y-137651057D01*
X81310327Y-137387808D01*
X80966799Y-137245162D01*
X80594833Y-137244838D01*
X80251057Y-137386883D01*
X79987808Y-137649673D01*
X79845162Y-137993201D01*
X79844838Y-138365167D01*
X62565701Y-138365167D01*
X66656801Y-134274067D01*
X70144638Y-134274067D01*
X70286683Y-134617843D01*
X70549473Y-134881092D01*
X70893001Y-135023738D01*
X71264967Y-135024062D01*
X71467818Y-134940246D01*
X71519673Y-134992192D01*
X71863201Y-135134838D01*
X72235167Y-135135162D01*
X72578943Y-134993117D01*
X72825138Y-134747352D01*
X72999673Y-134922192D01*
X73343201Y-135064838D01*
X73652915Y-135065108D01*
X73839673Y-135252192D01*
X74183201Y-135394838D01*
X74555167Y-135395162D01*
X74898943Y-135253117D01*
X75162192Y-134990327D01*
X75187441Y-134929520D01*
X75439673Y-135182192D01*
X75783201Y-135324838D01*
X76155167Y-135325162D01*
X76498943Y-135183117D01*
X76685106Y-134997278D01*
X76684838Y-135305167D01*
X76826883Y-135648943D01*
X77089673Y-135912192D01*
X77433201Y-136054838D01*
X77566971Y-136054955D01*
X77576883Y-136078943D01*
X77839673Y-136342192D01*
X78183201Y-136484838D01*
X78555167Y-136485162D01*
X78898943Y-136343117D01*
X79162192Y-136080327D01*
X79304838Y-135736799D01*
X79305162Y-135364833D01*
X79163117Y-135021057D01*
X78900327Y-134757808D01*
X78556799Y-134615162D01*
X78423029Y-134615045D01*
X78413117Y-134591057D01*
X78150327Y-134327808D01*
X77806799Y-134185162D01*
X77624060Y-134185003D01*
X77648906Y-134125167D01*
X79734838Y-134125167D01*
X79876883Y-134468943D01*
X80139673Y-134732192D01*
X80483201Y-134874838D01*
X80855167Y-134875162D01*
X81198943Y-134733117D01*
X81462192Y-134470327D01*
X81604838Y-134126799D01*
X81604873Y-134086999D01*
X81829673Y-134312192D01*
X82173201Y-134454838D01*
X82376337Y-134455015D01*
X82406883Y-134528943D01*
X82669673Y-134792192D01*
X83013201Y-134934838D01*
X83292819Y-134935082D01*
X83439673Y-135082192D01*
X83783201Y-135224838D01*
X84155167Y-135225162D01*
X84498943Y-135083117D01*
X84762192Y-134820327D01*
X84904838Y-134476799D01*
X84905162Y-134104833D01*
X84763117Y-133761057D01*
X84717308Y-133715167D01*
X85424838Y-133715167D01*
X85566883Y-134058943D01*
X85829673Y-134322192D01*
X86173201Y-134464838D01*
X86545167Y-134465162D01*
X86591780Y-134445902D01*
X86596383Y-134457043D01*
X86859173Y-134720292D01*
X87202701Y-134862938D01*
X87574667Y-134863262D01*
X87918443Y-134721217D01*
X88181692Y-134458427D01*
X88251766Y-134289671D01*
X88553201Y-134414838D01*
X88925167Y-134415162D01*
X89115037Y-134336710D01*
X89114838Y-134565167D01*
X89256883Y-134908943D01*
X89519673Y-135172192D01*
X89863201Y-135314838D01*
X90235167Y-135315162D01*
X90578943Y-135173117D01*
X90842192Y-134910327D01*
X90984838Y-134566799D01*
X90984866Y-134534900D01*
X91285167Y-134535162D01*
X91628943Y-134393117D01*
X91892192Y-134130327D01*
X92034838Y-133786799D01*
X92034839Y-133785167D01*
X92664838Y-133785167D01*
X92806883Y-134128943D01*
X93069673Y-134392192D01*
X93116195Y-134411510D01*
X92987808Y-134539673D01*
X92845162Y-134883201D01*
X92844838Y-135255167D01*
X92986883Y-135598943D01*
X93249673Y-135862192D01*
X93593201Y-136004838D01*
X93965167Y-136005162D01*
X94308943Y-135863117D01*
X94572192Y-135600327D01*
X94714838Y-135256799D01*
X94715162Y-134884833D01*
X94573117Y-134541057D01*
X94310327Y-134277808D01*
X94263805Y-134258490D01*
X94392192Y-134130327D01*
X94534838Y-133786799D01*
X94535100Y-133485167D01*
X97564838Y-133485167D01*
X97706883Y-133828943D01*
X97969673Y-134092192D01*
X98313201Y-134234838D01*
X98685167Y-134235162D01*
X99028943Y-134093117D01*
X99292192Y-133830327D01*
X99434838Y-133486799D01*
X99435162Y-133114833D01*
X99293117Y-132771057D01*
X99030327Y-132507808D01*
X98686799Y-132365162D01*
X98314833Y-132364838D01*
X97971057Y-132506883D01*
X97707808Y-132769673D01*
X97565162Y-133113201D01*
X97564838Y-133485167D01*
X94535100Y-133485167D01*
X94535162Y-133414833D01*
X94393117Y-133071057D01*
X94130327Y-132807808D01*
X93786799Y-132665162D01*
X93414833Y-132664838D01*
X93071057Y-132806883D01*
X92807808Y-133069673D01*
X92665162Y-133413201D01*
X92664838Y-133785167D01*
X92034839Y-133785167D01*
X92035162Y-133414833D01*
X91893117Y-133071057D01*
X91630327Y-132807808D01*
X91286799Y-132665162D01*
X90914833Y-132664838D01*
X90571057Y-132806883D01*
X90307808Y-133069673D01*
X90165162Y-133413201D01*
X90165134Y-133445100D01*
X89864833Y-133444838D01*
X89674963Y-133523290D01*
X89675162Y-133294833D01*
X89533117Y-132951057D01*
X89270327Y-132687808D01*
X89023142Y-132585167D01*
X95664838Y-132585167D01*
X95806883Y-132928943D01*
X96069673Y-133192192D01*
X96413201Y-133334838D01*
X96785167Y-133335162D01*
X97128943Y-133193117D01*
X97392192Y-132930327D01*
X97534838Y-132586799D01*
X97535162Y-132214833D01*
X97393117Y-131871057D01*
X97130327Y-131607808D01*
X96786799Y-131465162D01*
X96414833Y-131464838D01*
X96071057Y-131606883D01*
X95807808Y-131869673D01*
X95665162Y-132213201D01*
X95664838Y-132585167D01*
X89023142Y-132585167D01*
X88926799Y-132545162D01*
X88554833Y-132544838D01*
X88211057Y-132686883D01*
X87947808Y-132949673D01*
X87877734Y-133118429D01*
X87576299Y-132993262D01*
X87204333Y-132992938D01*
X87157720Y-133012198D01*
X87153117Y-133001057D01*
X86890327Y-132737808D01*
X86546799Y-132595162D01*
X86174833Y-132594838D01*
X85831057Y-132736883D01*
X85567808Y-132999673D01*
X85425162Y-133343201D01*
X85424838Y-133715167D01*
X84717308Y-133715167D01*
X84500327Y-133497808D01*
X84156799Y-133355162D01*
X83877181Y-133354918D01*
X83730327Y-133207808D01*
X83386799Y-133065162D01*
X83183663Y-133064985D01*
X83153117Y-132991057D01*
X82890327Y-132727808D01*
X82546799Y-132585162D01*
X82174833Y-132584838D01*
X81831057Y-132726883D01*
X81567808Y-132989673D01*
X81425162Y-133333201D01*
X81425127Y-133373001D01*
X81200327Y-133147808D01*
X80856799Y-133005162D01*
X80484833Y-133004838D01*
X80141057Y-133146883D01*
X79877808Y-133409673D01*
X79735162Y-133753201D01*
X79734838Y-134125167D01*
X77648906Y-134125167D01*
X77664838Y-134086799D01*
X77665162Y-133714833D01*
X77523117Y-133371057D01*
X77260327Y-133107808D01*
X76916799Y-132965162D01*
X76544833Y-132964838D01*
X76201057Y-133106883D01*
X75947012Y-133360485D01*
X75943117Y-133351057D01*
X75680327Y-133087808D01*
X75336799Y-132945162D01*
X74964833Y-132944838D01*
X74621057Y-133086883D01*
X74357808Y-133349673D01*
X74285037Y-133524925D01*
X74247085Y-133524892D01*
X74060327Y-133337808D01*
X73716799Y-133195162D01*
X73558471Y-133195024D01*
X73503117Y-133061057D01*
X73240327Y-132797808D01*
X72896799Y-132655162D01*
X72524833Y-132654838D01*
X72181057Y-132796883D01*
X71917808Y-133059673D01*
X71825943Y-133280907D01*
X71661982Y-133348654D01*
X71610127Y-133296708D01*
X71266599Y-133154062D01*
X70894633Y-133153738D01*
X70550857Y-133295783D01*
X70287608Y-133558573D01*
X70144962Y-133902101D01*
X70144638Y-134274067D01*
X66656801Y-134274067D01*
X69845701Y-131085167D01*
X74214838Y-131085167D01*
X74356883Y-131428943D01*
X74619673Y-131692192D01*
X74963201Y-131834838D01*
X75335167Y-131835162D01*
X75678943Y-131693117D01*
X75942192Y-131430327D01*
X76084838Y-131086799D01*
X76084949Y-130958267D01*
X84986338Y-130958267D01*
X85128383Y-131302043D01*
X85391173Y-131565292D01*
X85734701Y-131707938D01*
X86106667Y-131708262D01*
X86450443Y-131566217D01*
X86713692Y-131303427D01*
X86856338Y-130959899D01*
X86856662Y-130587933D01*
X86743834Y-130314867D01*
X88212438Y-130314867D01*
X88354483Y-130658643D01*
X88617273Y-130921892D01*
X88960801Y-131064538D01*
X89332767Y-131064862D01*
X89676543Y-130922817D01*
X89939792Y-130660027D01*
X89999029Y-130517367D01*
X96436438Y-130517367D01*
X96578483Y-130861143D01*
X96841273Y-131124392D01*
X97184801Y-131267038D01*
X97556767Y-131267362D01*
X97900543Y-131125317D01*
X98163792Y-130862527D01*
X98306438Y-130518999D01*
X98306762Y-130147033D01*
X98164717Y-129803257D01*
X97901927Y-129540008D01*
X97558399Y-129397362D01*
X97186433Y-129397038D01*
X96842657Y-129539083D01*
X96579408Y-129801873D01*
X96436762Y-130145401D01*
X96436438Y-130517367D01*
X89999029Y-130517367D01*
X90082438Y-130316499D01*
X90082762Y-129944533D01*
X89940717Y-129600757D01*
X89677927Y-129337508D01*
X89334399Y-129194862D01*
X88962433Y-129194538D01*
X88618657Y-129336583D01*
X88355408Y-129599373D01*
X88212762Y-129942901D01*
X88212438Y-130314867D01*
X86743834Y-130314867D01*
X86714617Y-130244157D01*
X86451827Y-129980908D01*
X86108299Y-129838262D01*
X85736333Y-129837938D01*
X85392557Y-129979983D01*
X85129308Y-130242773D01*
X84986662Y-130586301D01*
X84986338Y-130958267D01*
X76084949Y-130958267D01*
X76085162Y-130714833D01*
X75943117Y-130371057D01*
X75680327Y-130107808D01*
X75336799Y-129965162D01*
X74964833Y-129964838D01*
X74621057Y-130106883D01*
X74357808Y-130369673D01*
X74215162Y-130713201D01*
X74214838Y-131085167D01*
X69845701Y-131085167D01*
X73145701Y-127785167D01*
X79464838Y-127785167D01*
X79606883Y-128128943D01*
X79869673Y-128392192D01*
X80213201Y-128534838D01*
X80585167Y-128535162D01*
X80928943Y-128393117D01*
X81192192Y-128130327D01*
X81334838Y-127786799D01*
X81335162Y-127414833D01*
X81193117Y-127071057D01*
X80930327Y-126807808D01*
X80586799Y-126665162D01*
X80214833Y-126664838D01*
X79871057Y-126806883D01*
X79607808Y-127069673D01*
X79465162Y-127413201D01*
X79464838Y-127785167D01*
X73145701Y-127785167D01*
X75145701Y-125785167D01*
X89037938Y-125785167D01*
X89179983Y-126128943D01*
X89442773Y-126392192D01*
X89786301Y-126534838D01*
X90158267Y-126535162D01*
X90502043Y-126393117D01*
X90765292Y-126130327D01*
X90907938Y-125786799D01*
X90908262Y-125414833D01*
X90766217Y-125071057D01*
X90503427Y-124807808D01*
X90159899Y-124665162D01*
X89787933Y-124664838D01*
X89444157Y-124806883D01*
X89180908Y-125069673D01*
X89038262Y-125413201D01*
X89037938Y-125785167D01*
X75145701Y-125785167D01*
X77361901Y-123568967D01*
X86261838Y-123568967D01*
X86403883Y-123912743D01*
X86666673Y-124175992D01*
X87010201Y-124318638D01*
X87382167Y-124318962D01*
X87668440Y-124200677D01*
X87829673Y-124362192D01*
X88173201Y-124504838D01*
X88545167Y-124505162D01*
X88888943Y-124363117D01*
X89152192Y-124100327D01*
X89294838Y-123756799D01*
X89295162Y-123384833D01*
X89153117Y-123041057D01*
X88890327Y-122777808D01*
X88546799Y-122635162D01*
X88174833Y-122634838D01*
X87888560Y-122753123D01*
X87727327Y-122591608D01*
X87383799Y-122448962D01*
X87011833Y-122448638D01*
X86668057Y-122590683D01*
X86404808Y-122853473D01*
X86262162Y-123197001D01*
X86261838Y-123568967D01*
X77361901Y-123568967D01*
X80095868Y-120835000D01*
X85532681Y-120835000D01*
X85417808Y-120949673D01*
X85275162Y-121293201D01*
X85274838Y-121665167D01*
X85416883Y-122008943D01*
X85679673Y-122272192D01*
X86023201Y-122414838D01*
X86395167Y-122415162D01*
X86738943Y-122273117D01*
X87002192Y-122010327D01*
X87144838Y-121666799D01*
X87145162Y-121294833D01*
X87003117Y-120951057D01*
X86887262Y-120835000D01*
X91572766Y-120835000D01*
X91711910Y-120892778D01*
X97779566Y-126960434D01*
X98050459Y-127141439D01*
X98370000Y-127205000D01*
X101315000Y-127205000D01*
X101315000Y-135254132D01*
X98969025Y-137600107D01*
X98659833Y-137599838D01*
X98316057Y-137741883D01*
X98052808Y-138004673D01*
X97910162Y-138348201D01*
X97909838Y-138720167D01*
X98051883Y-139063943D01*
X98314673Y-139327192D01*
X98658201Y-139469838D01*
X99030167Y-139470162D01*
X99326028Y-139347915D01*
X99534541Y-139306439D01*
X99805434Y-139125434D01*
X102150000Y-136780868D01*
X103497465Y-138128333D01*
X103596883Y-138368943D01*
X103859673Y-138632192D01*
X104203201Y-138774838D01*
X104575167Y-138775162D01*
X104918943Y-138633117D01*
X105182192Y-138370327D01*
X105324838Y-138026799D01*
X105325162Y-137654833D01*
X105296873Y-137586368D01*
X105328943Y-137573117D01*
X105592192Y-137310327D01*
X105731363Y-136975167D01*
X121024838Y-136975167D01*
X121166883Y-137318943D01*
X121429673Y-137582192D01*
X121773201Y-137724838D01*
X122145167Y-137725162D01*
X122488943Y-137583117D01*
X122752192Y-137320327D01*
X122894838Y-136976799D01*
X122895162Y-136604833D01*
X122753117Y-136261057D01*
X122577534Y-136085167D01*
X127734838Y-136085167D01*
X127876883Y-136428943D01*
X128139673Y-136692192D01*
X128483201Y-136834838D01*
X128855167Y-136835162D01*
X129198943Y-136693117D01*
X129462192Y-136430327D01*
X129604838Y-136086799D01*
X129605162Y-135714833D01*
X129463117Y-135371057D01*
X129200327Y-135107808D01*
X128856799Y-134965162D01*
X128484833Y-134964838D01*
X128141057Y-135106883D01*
X127877808Y-135369673D01*
X127735162Y-135713201D01*
X127734838Y-136085167D01*
X122577534Y-136085167D01*
X122490327Y-135997808D01*
X122146799Y-135855162D01*
X121774833Y-135854838D01*
X121431057Y-135996883D01*
X121167808Y-136259673D01*
X121025162Y-136603201D01*
X121024838Y-136975167D01*
X105731363Y-136975167D01*
X105734838Y-136966799D01*
X105735162Y-136594833D01*
X105593117Y-136251057D01*
X105330327Y-135987808D01*
X104986799Y-135845162D01*
X104614833Y-135844838D01*
X104271057Y-135986883D01*
X104007808Y-136249673D01*
X103999808Y-136268940D01*
X102985000Y-135254132D01*
X102985000Y-133995167D01*
X120414838Y-133995167D01*
X120556883Y-134338943D01*
X120819673Y-134602192D01*
X121163201Y-134744838D01*
X121535167Y-134745162D01*
X121878943Y-134603117D01*
X122007116Y-134475167D01*
X125904838Y-134475167D01*
X126046883Y-134818943D01*
X126309673Y-135082192D01*
X126653201Y-135224838D01*
X127025167Y-135225162D01*
X127368943Y-135083117D01*
X127527168Y-134925167D01*
X129274838Y-134925167D01*
X129416883Y-135268943D01*
X129679673Y-135532192D01*
X130023201Y-135674838D01*
X130395167Y-135675162D01*
X130738943Y-135533117D01*
X131002192Y-135270327D01*
X131144838Y-134926799D01*
X131145162Y-134554833D01*
X131003117Y-134211057D01*
X130740327Y-133947808D01*
X130396799Y-133805162D01*
X130024833Y-133804838D01*
X129681057Y-133946883D01*
X129417808Y-134209673D01*
X129275162Y-134553201D01*
X129274838Y-134925167D01*
X127527168Y-134925167D01*
X127632192Y-134820327D01*
X127774838Y-134476799D01*
X127775162Y-134104833D01*
X127633117Y-133761057D01*
X127370327Y-133497808D01*
X127026799Y-133355162D01*
X126654833Y-133354838D01*
X126311057Y-133496883D01*
X126047808Y-133759673D01*
X125905162Y-134103201D01*
X125904838Y-134475167D01*
X122007116Y-134475167D01*
X122142192Y-134340327D01*
X122284838Y-133996799D01*
X122285162Y-133624833D01*
X122143117Y-133281057D01*
X121987499Y-133125167D01*
X123194838Y-133125167D01*
X123336883Y-133468943D01*
X123599673Y-133732192D01*
X123943201Y-133874838D01*
X124315167Y-133875162D01*
X124658943Y-133733117D01*
X124922192Y-133470327D01*
X125064838Y-133126799D01*
X125065162Y-132754833D01*
X124923117Y-132411057D01*
X124660327Y-132147808D01*
X124316799Y-132005162D01*
X123944833Y-132004838D01*
X123601057Y-132146883D01*
X123337808Y-132409673D01*
X123195162Y-132753201D01*
X123194838Y-133125167D01*
X121987499Y-133125167D01*
X121880327Y-133017808D01*
X121536799Y-132875162D01*
X121164833Y-132874838D01*
X120821057Y-133016883D01*
X120557808Y-133279673D01*
X120415162Y-133623201D01*
X120414838Y-133995167D01*
X102985000Y-133995167D01*
X102985000Y-133245167D01*
X106644838Y-133245167D01*
X106786883Y-133588943D01*
X107049673Y-133852192D01*
X107393201Y-133994838D01*
X107765167Y-133995162D01*
X108108943Y-133853117D01*
X108372192Y-133590327D01*
X108514838Y-133246799D01*
X108514853Y-133229841D01*
X108748943Y-133133117D01*
X109012192Y-132870327D01*
X109154838Y-132526799D01*
X109155162Y-132154833D01*
X109013117Y-131811057D01*
X108750327Y-131547808D01*
X108406799Y-131405162D01*
X108034833Y-131404838D01*
X107691057Y-131546883D01*
X107427808Y-131809673D01*
X107285162Y-132153201D01*
X107285147Y-132170159D01*
X107051057Y-132266883D01*
X106787808Y-132529673D01*
X106645162Y-132873201D01*
X106644838Y-133245167D01*
X102985000Y-133245167D01*
X102985000Y-130445167D01*
X112474838Y-130445167D01*
X112616883Y-130788943D01*
X112879673Y-131052192D01*
X113223201Y-131194838D01*
X113595167Y-131195162D01*
X113938943Y-131053117D01*
X114202192Y-130790327D01*
X114344838Y-130446799D01*
X114345162Y-130074833D01*
X114203117Y-129731057D01*
X113940327Y-129467808D01*
X113596799Y-129325162D01*
X113224833Y-129324838D01*
X112881057Y-129466883D01*
X112617808Y-129729673D01*
X112475162Y-130073201D01*
X112474838Y-130445167D01*
X102985000Y-130445167D01*
X102985000Y-126797234D01*
X103042778Y-126658090D01*
X104079896Y-125620972D01*
X103989362Y-125839001D01*
X103989038Y-126210967D01*
X104131083Y-126554743D01*
X104393873Y-126817992D01*
X104524265Y-126872136D01*
X104524238Y-126902767D01*
X104666283Y-127246543D01*
X104929073Y-127509792D01*
X105124122Y-127590784D01*
X105123838Y-127917167D01*
X105265883Y-128260943D01*
X105528673Y-128524192D01*
X105872201Y-128666838D01*
X106244167Y-128667162D01*
X106587943Y-128525117D01*
X106851192Y-128262327D01*
X106993838Y-127918799D01*
X106994041Y-127685167D01*
X111064838Y-127685167D01*
X111206883Y-128028943D01*
X111302710Y-128124937D01*
X111207808Y-128219673D01*
X111065162Y-128563201D01*
X111064838Y-128935167D01*
X111206883Y-129278943D01*
X111469673Y-129542192D01*
X111813201Y-129684838D01*
X112185167Y-129685162D01*
X112528943Y-129543117D01*
X112792192Y-129280327D01*
X112934838Y-128936799D01*
X112935162Y-128564833D01*
X112793117Y-128221057D01*
X112697290Y-128125063D01*
X112792192Y-128030327D01*
X112934838Y-127686799D01*
X112935162Y-127314833D01*
X112922470Y-127284115D01*
X113213201Y-127404838D01*
X113585167Y-127405162D01*
X113928943Y-127263117D01*
X114192192Y-127000327D01*
X114334838Y-126656799D01*
X114335162Y-126284833D01*
X114193117Y-125941057D01*
X113930327Y-125677808D01*
X113586799Y-125535162D01*
X113214833Y-125534838D01*
X112871057Y-125676883D01*
X112607808Y-125939673D01*
X112465162Y-126283201D01*
X112464838Y-126655167D01*
X112477530Y-126685885D01*
X112186799Y-126565162D01*
X111814833Y-126564838D01*
X111471057Y-126706883D01*
X111207808Y-126969673D01*
X111065162Y-127313201D01*
X111064838Y-127685167D01*
X106994041Y-127685167D01*
X106994162Y-127546833D01*
X106852117Y-127203057D01*
X106589327Y-126939808D01*
X106394278Y-126858816D01*
X106394562Y-126532433D01*
X106252517Y-126188657D01*
X105989727Y-125925408D01*
X105859335Y-125871264D01*
X105859362Y-125840633D01*
X105717317Y-125496857D01*
X105454527Y-125233608D01*
X105168889Y-125115000D01*
X105691907Y-125115000D01*
X105831583Y-125453043D01*
X106094373Y-125716292D01*
X106437901Y-125858938D01*
X106809867Y-125859262D01*
X107153643Y-125717217D01*
X107416892Y-125454427D01*
X107541320Y-125154773D01*
X107738943Y-125073117D01*
X108002192Y-124810327D01*
X108102778Y-124568090D01*
X110085868Y-122585000D01*
X124165000Y-122585000D01*
X124165000Y-124844244D01*
X124046799Y-124795162D01*
X123674833Y-124794838D01*
X123331057Y-124936883D01*
X123067808Y-125199673D01*
X122925162Y-125543201D01*
X122924838Y-125915167D01*
X123066883Y-126258943D01*
X123329673Y-126522192D01*
X123673201Y-126664838D01*
X124045167Y-126665162D01*
X124165000Y-126615648D01*
X124165000Y-130509448D01*
X124075162Y-130725801D01*
X124074838Y-131097767D01*
X124216883Y-131441543D01*
X124479673Y-131704792D01*
X124823201Y-131847438D01*
X125195167Y-131847762D01*
X125538943Y-131705717D01*
X125745019Y-131500000D01*
X128965000Y-131500000D01*
X129119905Y-132278761D01*
X129561038Y-132938962D01*
X130221239Y-133380095D01*
X131000000Y-133535000D01*
X131778761Y-133380095D01*
X132438962Y-132938962D01*
X132880095Y-132278761D01*
X133035000Y-131500000D01*
X132880095Y-130721239D01*
X132438962Y-130061038D01*
X131778761Y-129619905D01*
X131000000Y-129465000D01*
X130221239Y-129619905D01*
X129561038Y-130061038D01*
X129119905Y-130721239D01*
X128965000Y-131500000D01*
X125745019Y-131500000D01*
X125802192Y-131442927D01*
X125944838Y-131099399D01*
X125945162Y-130727433D01*
X125835000Y-130460820D01*
X125835000Y-125975167D01*
X129204838Y-125975167D01*
X129346883Y-126318943D01*
X129609673Y-126582192D01*
X129953201Y-126724838D01*
X130325167Y-126725162D01*
X130668943Y-126583117D01*
X130932192Y-126320327D01*
X131074838Y-125976799D01*
X131075162Y-125604833D01*
X130933117Y-125261057D01*
X130670327Y-124997808D01*
X130326799Y-124855162D01*
X129954833Y-124854838D01*
X129611057Y-124996883D01*
X129347808Y-125259673D01*
X129205162Y-125603201D01*
X129204838Y-125975167D01*
X125835000Y-125975167D01*
X125835000Y-116195868D01*
X126638333Y-115392535D01*
X126777174Y-115335167D01*
X128375038Y-115335167D01*
X128517083Y-115678943D01*
X128779873Y-115942192D01*
X129123401Y-116084838D01*
X129495367Y-116085162D01*
X129839143Y-115943117D01*
X130102392Y-115680327D01*
X130245038Y-115336799D01*
X130245362Y-114964833D01*
X130103317Y-114621057D01*
X129840527Y-114357808D01*
X129496999Y-114215162D01*
X129125033Y-114214838D01*
X128781257Y-114356883D01*
X128518008Y-114619673D01*
X128375362Y-114963201D01*
X128375038Y-115335167D01*
X126777174Y-115335167D01*
X126878943Y-115293117D01*
X127142192Y-115030327D01*
X127284838Y-114686799D01*
X127285162Y-114314833D01*
X127143117Y-113971057D01*
X126880327Y-113707808D01*
X126536799Y-113565162D01*
X126164833Y-113564838D01*
X125821057Y-113706883D01*
X125557808Y-113969673D01*
X125457222Y-114211910D01*
X124409566Y-115259566D01*
X124228561Y-115530459D01*
X124165000Y-115850000D01*
X124165000Y-116068567D01*
X124156799Y-116065162D01*
X123784833Y-116064838D01*
X123441057Y-116206883D01*
X123177808Y-116469673D01*
X123035162Y-116813201D01*
X123034838Y-117185167D01*
X123176883Y-117528943D01*
X123439673Y-117792192D01*
X123783201Y-117934838D01*
X124155167Y-117935162D01*
X124165000Y-117931099D01*
X124165000Y-120915000D01*
X109740000Y-120915000D01*
X109420459Y-120978561D01*
X109223747Y-121110000D01*
X109149566Y-121159566D01*
X106921667Y-123387465D01*
X106782422Y-123445000D01*
X105020000Y-123445000D01*
X105020000Y-121110000D01*
X104962148Y-120819161D01*
X104797401Y-120572599D01*
X103520732Y-119295930D01*
X103740839Y-119252148D01*
X103987401Y-119087401D01*
X106067401Y-117007401D01*
X106232148Y-116760840D01*
X106290000Y-116470000D01*
X106290000Y-112612310D01*
X106409673Y-112732192D01*
X106753201Y-112874838D01*
X107125167Y-112875162D01*
X107468943Y-112733117D01*
X107732192Y-112470327D01*
X107874838Y-112126799D01*
X107875162Y-111754833D01*
X107733117Y-111411057D01*
X107470327Y-111147808D01*
X107126799Y-111005162D01*
X106754833Y-111004838D01*
X106411057Y-111146883D01*
X106290000Y-111267729D01*
X106290000Y-111222463D01*
X106322192Y-111190327D01*
X106464838Y-110846799D01*
X106465012Y-110647383D01*
X106549673Y-110732192D01*
X106893201Y-110874838D01*
X107265167Y-110875162D01*
X107608943Y-110733117D01*
X107872192Y-110470327D01*
X108014838Y-110126799D01*
X108015162Y-109754833D01*
X107873117Y-109411057D01*
X107610327Y-109147808D01*
X107266799Y-109005162D01*
X107006941Y-109004936D01*
X106873117Y-108681057D01*
X106610327Y-108417808D01*
X106266799Y-108275162D01*
X105894833Y-108274838D01*
X105658007Y-108372692D01*
X105326799Y-108235162D01*
X104954833Y-108234838D01*
X104611057Y-108376883D01*
X104347808Y-108639673D01*
X104205162Y-108983201D01*
X104204838Y-109355167D01*
X104346883Y-109698943D01*
X104609673Y-109962192D01*
X104770000Y-110028766D01*
X104770000Y-110097537D01*
X104737808Y-110129673D01*
X104595162Y-110473201D01*
X104594838Y-110845167D01*
X104640223Y-110955008D01*
X104444833Y-110954838D01*
X104101057Y-111096883D01*
X103837808Y-111359673D01*
X103695162Y-111703201D01*
X103694838Y-112075167D01*
X103836883Y-112418943D01*
X104099673Y-112682192D01*
X104443201Y-112824838D01*
X104770000Y-112825123D01*
X104770000Y-115317812D01*
X104580327Y-115127808D01*
X104236799Y-114985162D01*
X103864833Y-114984838D01*
X103521057Y-115126883D01*
X103257808Y-115389673D01*
X103115162Y-115733201D01*
X103114838Y-116105167D01*
X103256883Y-116448943D01*
X103519673Y-116712192D01*
X103863201Y-116854838D01*
X104070180Y-116855018D01*
X103135198Y-117790000D01*
X102262463Y-117790000D01*
X102230327Y-117757808D01*
X101886799Y-117615162D01*
X101514833Y-117614838D01*
X101171057Y-117756883D01*
X100907808Y-118019673D01*
X100765162Y-118363201D01*
X100764838Y-118735167D01*
X100906883Y-119078943D01*
X101169673Y-119342192D01*
X101513201Y-119484838D01*
X101560077Y-119484879D01*
X103500000Y-121424802D01*
X103500000Y-123839132D01*
X101861667Y-125477465D01*
X101722422Y-125535000D01*
X98715868Y-125535000D01*
X96941335Y-123760467D01*
X100520438Y-123760467D01*
X100662483Y-124104243D01*
X100925273Y-124367492D01*
X101268801Y-124510138D01*
X101640767Y-124510462D01*
X101984543Y-124368417D01*
X102247792Y-124105627D01*
X102390438Y-123762099D01*
X102390762Y-123390133D01*
X102248717Y-123046357D01*
X101985927Y-122783108D01*
X101642399Y-122640462D01*
X101270433Y-122640138D01*
X100926657Y-122782183D01*
X100663408Y-123044973D01*
X100520762Y-123388501D01*
X100520438Y-123760467D01*
X96941335Y-123760467D01*
X93500868Y-120320000D01*
X93758333Y-120062535D01*
X93998943Y-119963117D01*
X94262192Y-119700327D01*
X94404838Y-119356799D01*
X94404952Y-119225916D01*
X94630434Y-119000434D01*
X94811440Y-118729540D01*
X94875000Y-118410000D01*
X94875000Y-118271775D01*
X95123201Y-118374838D01*
X95495167Y-118375162D01*
X95838943Y-118233117D01*
X96102192Y-117970327D01*
X96244838Y-117626799D01*
X96244996Y-117445167D01*
X99264838Y-117445167D01*
X99406883Y-117788943D01*
X99669673Y-118052192D01*
X100013201Y-118194838D01*
X100385167Y-118195162D01*
X100728943Y-118053117D01*
X100992192Y-117790327D01*
X101134838Y-117446799D01*
X101135162Y-117074833D01*
X100993117Y-116731057D01*
X100785306Y-116522883D01*
X100808943Y-116513117D01*
X100926432Y-116395833D01*
X101026883Y-116638943D01*
X101289673Y-116902192D01*
X101633201Y-117044838D01*
X102005167Y-117045162D01*
X102348943Y-116903117D01*
X102612192Y-116640327D01*
X102754838Y-116296799D01*
X102755162Y-115924833D01*
X102613117Y-115581057D01*
X102350327Y-115317808D01*
X102006799Y-115175162D01*
X101634833Y-115174838D01*
X101291057Y-115316883D01*
X101173568Y-115434167D01*
X101073117Y-115191057D01*
X100810327Y-114927808D01*
X100466799Y-114785162D01*
X100094833Y-114784838D01*
X99751057Y-114926883D01*
X99487808Y-115189673D01*
X99345162Y-115533201D01*
X99344838Y-115905167D01*
X99486883Y-116248943D01*
X99694694Y-116457117D01*
X99671057Y-116466883D01*
X99407808Y-116729673D01*
X99265162Y-117073201D01*
X99264838Y-117445167D01*
X96244996Y-117445167D01*
X96245162Y-117254833D01*
X96103117Y-116911057D01*
X95840327Y-116647808D01*
X95496799Y-116505162D01*
X95124833Y-116504838D01*
X94875000Y-116608067D01*
X94875000Y-114505167D01*
X96224838Y-114505167D01*
X96366883Y-114848943D01*
X96629673Y-115112192D01*
X96817454Y-115190166D01*
X96737808Y-115269673D01*
X96595162Y-115613201D01*
X96594838Y-115985167D01*
X96736883Y-116328943D01*
X96999673Y-116592192D01*
X97343201Y-116734838D01*
X97715167Y-116735162D01*
X98058943Y-116593117D01*
X98322192Y-116330327D01*
X98464838Y-115986799D01*
X98465162Y-115614833D01*
X98323117Y-115271057D01*
X98060327Y-115007808D01*
X97872546Y-114929834D01*
X97952192Y-114850327D01*
X98094838Y-114506799D01*
X98095162Y-114134833D01*
X97953117Y-113791057D01*
X97690327Y-113527808D01*
X97346799Y-113385162D01*
X96974833Y-113384838D01*
X96631057Y-113526883D01*
X96367808Y-113789673D01*
X96225162Y-114133201D01*
X96224838Y-114505167D01*
X94875000Y-114505167D01*
X94875000Y-113230000D01*
X94870930Y-113209540D01*
X94811440Y-112910460D01*
X94630434Y-112639566D01*
X94592535Y-112601667D01*
X94493117Y-112361057D01*
X94230327Y-112097808D01*
X94199885Y-112085167D01*
X99264838Y-112085167D01*
X99406883Y-112428943D01*
X99669673Y-112692192D01*
X100013201Y-112834838D01*
X100385167Y-112835162D01*
X100728943Y-112693117D01*
X100992192Y-112430327D01*
X101134838Y-112086799D01*
X101135162Y-111714833D01*
X100993117Y-111371057D01*
X100730327Y-111107808D01*
X100386799Y-110965162D01*
X100014833Y-110964838D01*
X99671057Y-111106883D01*
X99407808Y-111369673D01*
X99265162Y-111713201D01*
X99264838Y-112085167D01*
X94199885Y-112085167D01*
X93886799Y-111955162D01*
X93514833Y-111954838D01*
X93171057Y-112096883D01*
X92907808Y-112359673D01*
X92765162Y-112703201D01*
X92764838Y-113075167D01*
X92906883Y-113418943D01*
X93169673Y-113682192D01*
X93205000Y-113696861D01*
X93205000Y-116436791D01*
X93032499Y-116365162D01*
X92660533Y-116364838D01*
X92655266Y-116367014D01*
X92792192Y-116230327D01*
X92934838Y-115886799D01*
X92935162Y-115514833D01*
X92793117Y-115171057D01*
X92530327Y-114907808D01*
X92186799Y-114765162D01*
X91814833Y-114764838D01*
X91471057Y-114906883D01*
X91207808Y-115169673D01*
X91065162Y-115513201D01*
X91064838Y-115885167D01*
X91206883Y-116228943D01*
X91469673Y-116492192D01*
X91813201Y-116634838D01*
X92185167Y-116635162D01*
X92190434Y-116632986D01*
X92053508Y-116769673D01*
X91910862Y-117113201D01*
X91910538Y-117485167D01*
X91962849Y-117611769D01*
X91941608Y-117632973D01*
X91798962Y-117976501D01*
X91798638Y-118348467D01*
X91940683Y-118692243D01*
X92203473Y-118955492D01*
X92415569Y-119043563D01*
X92333185Y-119125947D01*
X92186799Y-119065162D01*
X91814833Y-119064838D01*
X91572422Y-119165000D01*
X90307493Y-119165000D01*
X90322192Y-119150327D01*
X90464838Y-118806799D01*
X90465162Y-118434833D01*
X90344261Y-118142231D01*
X90543201Y-118224838D01*
X90915167Y-118225162D01*
X91258943Y-118083117D01*
X91522192Y-117820327D01*
X91664838Y-117476799D01*
X91665162Y-117104833D01*
X91523117Y-116761057D01*
X91260327Y-116497808D01*
X90916799Y-116355162D01*
X90544833Y-116354838D01*
X90201057Y-116496883D01*
X89937808Y-116759673D01*
X89795162Y-117103201D01*
X89794838Y-117475167D01*
X89915739Y-117767769D01*
X89716799Y-117685162D01*
X89344833Y-117684838D01*
X89001057Y-117826883D01*
X88737808Y-118089673D01*
X88595162Y-118433201D01*
X88594838Y-118805167D01*
X88736883Y-119148943D01*
X88752912Y-119165000D01*
X83657092Y-119165000D01*
X83902192Y-118920327D01*
X84044838Y-118576799D01*
X84045162Y-118204833D01*
X83903117Y-117861057D01*
X83640327Y-117597808D01*
X83296799Y-117455162D01*
X82924833Y-117454838D01*
X82581057Y-117596883D01*
X82317808Y-117859673D01*
X82175162Y-118203201D01*
X82174838Y-118575167D01*
X82316883Y-118918943D01*
X82562511Y-119165000D01*
X80835000Y-119165000D01*
X80835000Y-113370000D01*
X80771439Y-113050459D01*
X80590434Y-112779566D01*
X77912535Y-110101667D01*
X77855000Y-109962422D01*
X77855000Y-109365167D01*
X79224838Y-109365167D01*
X79366883Y-109708943D01*
X79629673Y-109972192D01*
X79973201Y-110114838D01*
X80345167Y-110115162D01*
X80688943Y-109973117D01*
X80952192Y-109710327D01*
X81094838Y-109366799D01*
X81095162Y-108994833D01*
X80953117Y-108651057D01*
X80690327Y-108387808D01*
X80346799Y-108245162D01*
X79974833Y-108244838D01*
X79631057Y-108386883D01*
X79367808Y-108649673D01*
X79225162Y-108993201D01*
X79224838Y-109365167D01*
X77855000Y-109365167D01*
X77855000Y-107455167D01*
X78624838Y-107455167D01*
X78766883Y-107798943D01*
X79029673Y-108062192D01*
X79373201Y-108204838D01*
X79745167Y-108205162D01*
X80088943Y-108063117D01*
X80352192Y-107800327D01*
X80494838Y-107456799D01*
X80495048Y-107215167D01*
X90534838Y-107215167D01*
X90676883Y-107558943D01*
X90939673Y-107822192D01*
X91283201Y-107964838D01*
X91655167Y-107965162D01*
X91998943Y-107823117D01*
X92262192Y-107560327D01*
X92404838Y-107216799D01*
X92405162Y-106844833D01*
X92314399Y-106625167D01*
X94994838Y-106625167D01*
X95136883Y-106968943D01*
X95399673Y-107232192D01*
X95743201Y-107374838D01*
X96115167Y-107375162D01*
X96458943Y-107233117D01*
X96722192Y-106970327D01*
X96864838Y-106626799D01*
X96865162Y-106254833D01*
X96723117Y-105911057D01*
X96460327Y-105647808D01*
X96116799Y-105505162D01*
X95744833Y-105504838D01*
X95401057Y-105646883D01*
X95137808Y-105909673D01*
X94995162Y-106253201D01*
X94994838Y-106625167D01*
X92314399Y-106625167D01*
X92263117Y-106501057D01*
X92000327Y-106237808D01*
X91656799Y-106095162D01*
X91284833Y-106094838D01*
X90941057Y-106236883D01*
X90677808Y-106499673D01*
X90535162Y-106843201D01*
X90534838Y-107215167D01*
X80495048Y-107215167D01*
X80495162Y-107084833D01*
X80353117Y-106741057D01*
X80090327Y-106477808D01*
X79867224Y-106385167D01*
X85204838Y-106385167D01*
X85346883Y-106728943D01*
X85609673Y-106992192D01*
X85953201Y-107134838D01*
X86325167Y-107135162D01*
X86668943Y-106993117D01*
X86932192Y-106730327D01*
X87074838Y-106386799D01*
X87074839Y-106385167D01*
X88580038Y-106385167D01*
X88722083Y-106728943D01*
X88984873Y-106992192D01*
X89328401Y-107134838D01*
X89700367Y-107135162D01*
X90044143Y-106993117D01*
X90307392Y-106730327D01*
X90450038Y-106386799D01*
X90450362Y-106014833D01*
X90308317Y-105671057D01*
X90045527Y-105407808D01*
X89701999Y-105265162D01*
X89330033Y-105264838D01*
X88986257Y-105406883D01*
X88723008Y-105669673D01*
X88580362Y-106013201D01*
X88580038Y-106385167D01*
X87074839Y-106385167D01*
X87075162Y-106014833D01*
X86933117Y-105671057D01*
X86670327Y-105407808D01*
X86326799Y-105265162D01*
X85954833Y-105264838D01*
X85611057Y-105406883D01*
X85347808Y-105669673D01*
X85205162Y-106013201D01*
X85204838Y-106385167D01*
X79867224Y-106385167D01*
X79746799Y-106335162D01*
X79374833Y-106334838D01*
X79031057Y-106476883D01*
X78767808Y-106739673D01*
X78625162Y-107083201D01*
X78624838Y-107455167D01*
X77855000Y-107455167D01*
X77855000Y-107280000D01*
X77845490Y-107232192D01*
X77825019Y-107129273D01*
X77825162Y-106964833D01*
X77683117Y-106621057D01*
X77420327Y-106357808D01*
X77076799Y-106215162D01*
X76704833Y-106214838D01*
X76361057Y-106356883D01*
X76097808Y-106619673D01*
X75972826Y-106920661D01*
X75770327Y-106717808D01*
X75426799Y-106575162D01*
X75054833Y-106574838D01*
X74711057Y-106716883D01*
X74447808Y-106979673D01*
X74305162Y-107323201D01*
X74305127Y-107363036D01*
X74060327Y-107117808D01*
X73716799Y-106975162D01*
X73344833Y-106974838D01*
X73001057Y-107116883D01*
X72737808Y-107379673D01*
X72595162Y-107723201D01*
X72594838Y-108095167D01*
X72736883Y-108438943D01*
X72999673Y-108702192D01*
X73343201Y-108844838D01*
X73715167Y-108845162D01*
X74058943Y-108703117D01*
X74322192Y-108440327D01*
X74464838Y-108096799D01*
X74464873Y-108056964D01*
X74709673Y-108302192D01*
X75053201Y-108444838D01*
X75425167Y-108445162D01*
X75768943Y-108303117D01*
X76032192Y-108040327D01*
X76157174Y-107739339D01*
X76185000Y-107767214D01*
X76185000Y-109962766D01*
X76085162Y-110203201D01*
X76084838Y-110575167D01*
X76226883Y-110918943D01*
X76489673Y-111182192D01*
X76731910Y-111282778D01*
X78424100Y-112974968D01*
X78274833Y-112974838D01*
X77931057Y-113116883D01*
X77667808Y-113379673D01*
X77525162Y-113723201D01*
X77524838Y-114095167D01*
X77666883Y-114438943D01*
X77812685Y-114585000D01*
X73766822Y-114585000D01*
X73646799Y-114535162D01*
X73274833Y-114534838D01*
X72931057Y-114676883D01*
X72667808Y-114939673D01*
X72525162Y-115283201D01*
X72524838Y-115655167D01*
X72666883Y-115998943D01*
X72929673Y-116262192D01*
X73273201Y-116404838D01*
X73645167Y-116405162D01*
X73988943Y-116263117D01*
X73997074Y-116255000D01*
X79165000Y-116255000D01*
X79165000Y-119405935D01*
X79159566Y-119409566D01*
X59356632Y-139212500D01*
X57974734Y-139212500D01*
X57734299Y-139112662D01*
X57362333Y-139112338D01*
X57018557Y-139254383D01*
X56755308Y-139517173D01*
X56612662Y-139860701D01*
X56612571Y-139964923D01*
X56514833Y-139964838D01*
X56231791Y-140081788D01*
X56265040Y-139917600D01*
X56265040Y-137682400D01*
X56220762Y-137447083D01*
X56081690Y-137230959D01*
X55869490Y-137085969D01*
X55617600Y-137034960D01*
X53382400Y-137034960D01*
X53147083Y-137079238D01*
X52930959Y-137218310D01*
X52785969Y-137430510D01*
X52734960Y-137682400D01*
X50785000Y-137682400D01*
X50785000Y-136585167D01*
X51164838Y-136585167D01*
X51306883Y-136928943D01*
X51569673Y-137192192D01*
X51913201Y-137334838D01*
X52285167Y-137335162D01*
X52628943Y-137193117D01*
X52892192Y-136930327D01*
X53034838Y-136586799D01*
X53035162Y-136214833D01*
X52893117Y-135871057D01*
X52630327Y-135607808D01*
X52286799Y-135465162D01*
X51914833Y-135464838D01*
X51571057Y-135606883D01*
X51307808Y-135869673D01*
X51165162Y-136213201D01*
X51164838Y-136585167D01*
X50785000Y-136585167D01*
X50785000Y-134185167D01*
X62064838Y-134185167D01*
X62206883Y-134528943D01*
X62469673Y-134792192D01*
X62813201Y-134934838D01*
X63185167Y-134935162D01*
X63528943Y-134793117D01*
X63792192Y-134530327D01*
X63934838Y-134186799D01*
X63935162Y-133814833D01*
X63793117Y-133471057D01*
X63530327Y-133207808D01*
X63186799Y-133065162D01*
X62814833Y-133064838D01*
X62471057Y-133206883D01*
X62207808Y-133469673D01*
X62065162Y-133813201D01*
X62064838Y-134185167D01*
X50785000Y-134185167D01*
X50785000Y-131500000D01*
X51965000Y-131500000D01*
X52119905Y-132278761D01*
X52561038Y-132938962D01*
X53221239Y-133380095D01*
X54000000Y-133535000D01*
X54778761Y-133380095D01*
X55438962Y-132938962D01*
X55880095Y-132278761D01*
X55898711Y-132185167D01*
X63964838Y-132185167D01*
X64106883Y-132528943D01*
X64369673Y-132792192D01*
X64713201Y-132934838D01*
X65085167Y-132935162D01*
X65428943Y-132793117D01*
X65692192Y-132530327D01*
X65834838Y-132186799D01*
X65835162Y-131814833D01*
X65693117Y-131471057D01*
X65430327Y-131207808D01*
X65086799Y-131065162D01*
X64714833Y-131064838D01*
X64371057Y-131206883D01*
X64107808Y-131469673D01*
X63965162Y-131813201D01*
X63964838Y-132185167D01*
X55898711Y-132185167D01*
X56035000Y-131500000D01*
X55880095Y-130721239D01*
X55438962Y-130061038D01*
X54778761Y-129619905D01*
X54000000Y-129465000D01*
X53221239Y-129619905D01*
X52561038Y-130061038D01*
X52119905Y-130721239D01*
X51965000Y-131500000D01*
X50785000Y-131500000D01*
X50785000Y-126735167D01*
X56314838Y-126735167D01*
X56456883Y-127078943D01*
X56719673Y-127342192D01*
X57063201Y-127484838D01*
X57435167Y-127485162D01*
X57778943Y-127343117D01*
X58042192Y-127080327D01*
X58184838Y-126736799D01*
X58185162Y-126364833D01*
X58043117Y-126021057D01*
X57780327Y-125757808D01*
X57436799Y-125615162D01*
X57064833Y-125614838D01*
X56721057Y-125756883D01*
X56457808Y-126019673D01*
X56315162Y-126363201D01*
X56314838Y-126735167D01*
X50785000Y-126735167D01*
X50785000Y-121165167D01*
X67134838Y-121165167D01*
X67276883Y-121508943D01*
X67539673Y-121772192D01*
X67883201Y-121914838D01*
X68255167Y-121915162D01*
X68598943Y-121773117D01*
X68862192Y-121510327D01*
X69004838Y-121166799D01*
X69005162Y-120794833D01*
X68863117Y-120451057D01*
X68600327Y-120187808D01*
X68256799Y-120045162D01*
X67884833Y-120044838D01*
X67541057Y-120186883D01*
X67277808Y-120449673D01*
X67135162Y-120793201D01*
X67134838Y-121165167D01*
X50785000Y-121165167D01*
X50785000Y-118185167D01*
X68264838Y-118185167D01*
X68406883Y-118528943D01*
X68669673Y-118792192D01*
X69013201Y-118934838D01*
X69080725Y-118934897D01*
X68965162Y-119213201D01*
X68964838Y-119585167D01*
X69106883Y-119928943D01*
X69369673Y-120192192D01*
X69713201Y-120334838D01*
X70085167Y-120335162D01*
X70428943Y-120193117D01*
X70692192Y-119930327D01*
X70834838Y-119586799D01*
X70835162Y-119214833D01*
X70693117Y-118871057D01*
X70430327Y-118607808D01*
X70086799Y-118465162D01*
X70019275Y-118465103D01*
X70134838Y-118186799D01*
X70135162Y-117814833D01*
X69993117Y-117471057D01*
X69730327Y-117207808D01*
X69386799Y-117065162D01*
X69014833Y-117064838D01*
X68671057Y-117206883D01*
X68407808Y-117469673D01*
X68265162Y-117813201D01*
X68264838Y-118185167D01*
X50785000Y-118185167D01*
X50785000Y-116935167D01*
X52164838Y-116935167D01*
X52306883Y-117278943D01*
X52569673Y-117542192D01*
X52913201Y-117684838D01*
X53285167Y-117685162D01*
X53628943Y-117543117D01*
X53892192Y-117280327D01*
X54034838Y-116936799D01*
X54035162Y-116564833D01*
X53893117Y-116221057D01*
X53630327Y-115957808D01*
X53286799Y-115815162D01*
X52914833Y-115814838D01*
X52571057Y-115956883D01*
X52307808Y-116219673D01*
X52165162Y-116563201D01*
X52164838Y-116935167D01*
X50785000Y-116935167D01*
X50785000Y-114685167D01*
X69364838Y-114685167D01*
X69506883Y-115028943D01*
X69769673Y-115292192D01*
X70113201Y-115434838D01*
X70485167Y-115435162D01*
X70828943Y-115293117D01*
X71092192Y-115030327D01*
X71234838Y-114686799D01*
X71235162Y-114314833D01*
X71093117Y-113971057D01*
X70830327Y-113707808D01*
X70486799Y-113565162D01*
X70114833Y-113564838D01*
X69771057Y-113706883D01*
X69507808Y-113969673D01*
X69365162Y-114313201D01*
X69364838Y-114685167D01*
X50785000Y-114685167D01*
X50785000Y-113685167D01*
X51514838Y-113685167D01*
X51656883Y-114028943D01*
X51919673Y-114292192D01*
X52263201Y-114434838D01*
X52635167Y-114435162D01*
X52978943Y-114293117D01*
X53242192Y-114030327D01*
X53384838Y-113686799D01*
X53385162Y-113314833D01*
X53243117Y-112971057D01*
X52980327Y-112707808D01*
X52636799Y-112565162D01*
X52264833Y-112564838D01*
X51921057Y-112706883D01*
X51657808Y-112969673D01*
X51515162Y-113313201D01*
X51514838Y-113685167D01*
X50785000Y-113685167D01*
X50785000Y-112385167D01*
X68364838Y-112385167D01*
X68506883Y-112728943D01*
X68769673Y-112992192D01*
X69113201Y-113134838D01*
X69485167Y-113135162D01*
X69828943Y-112993117D01*
X70092192Y-112730327D01*
X70234838Y-112386799D01*
X70235162Y-112014833D01*
X70093117Y-111671057D01*
X69830327Y-111407808D01*
X69486799Y-111265162D01*
X69114833Y-111264838D01*
X68771057Y-111406883D01*
X68507808Y-111669673D01*
X68365162Y-112013201D01*
X68364838Y-112385167D01*
X50785000Y-112385167D01*
X50785000Y-108685167D01*
X55864838Y-108685167D01*
X56006883Y-109028943D01*
X56269673Y-109292192D01*
X56613201Y-109434838D01*
X56985167Y-109435162D01*
X57328943Y-109293117D01*
X57592192Y-109030327D01*
X57605961Y-108997167D01*
X70119838Y-108997167D01*
X70261883Y-109340943D01*
X70524673Y-109604192D01*
X70868201Y-109746838D01*
X71240167Y-109747162D01*
X71583943Y-109605117D01*
X71847192Y-109342327D01*
X71989838Y-108998799D01*
X71990162Y-108626833D01*
X71848117Y-108283057D01*
X71585327Y-108019808D01*
X71241799Y-107877162D01*
X70869833Y-107876838D01*
X70526057Y-108018883D01*
X70262808Y-108281673D01*
X70120162Y-108625201D01*
X70119838Y-108997167D01*
X57605961Y-108997167D01*
X57734838Y-108686799D01*
X57735162Y-108314833D01*
X57593117Y-107971057D01*
X57330327Y-107707808D01*
X56986799Y-107565162D01*
X56614833Y-107564838D01*
X56271057Y-107706883D01*
X56007808Y-107969673D01*
X55865162Y-108313201D01*
X55864838Y-108685167D01*
X50785000Y-108685167D01*
X50785000Y-107085167D01*
X53214838Y-107085167D01*
X53356883Y-107428943D01*
X53619673Y-107692192D01*
X53963201Y-107834838D01*
X54335167Y-107835162D01*
X54678943Y-107693117D01*
X54942192Y-107430327D01*
X55084838Y-107086799D01*
X55084926Y-106985167D01*
X68064838Y-106985167D01*
X68206883Y-107328943D01*
X68469673Y-107592192D01*
X68813201Y-107734838D01*
X69185167Y-107735162D01*
X69528943Y-107593117D01*
X69792192Y-107330327D01*
X69934838Y-106986799D01*
X69935162Y-106614833D01*
X69793117Y-106271057D01*
X69707377Y-106185167D01*
X72664838Y-106185167D01*
X72806883Y-106528943D01*
X73069673Y-106792192D01*
X73413201Y-106934838D01*
X73785167Y-106935162D01*
X74128943Y-106793117D01*
X74392192Y-106530327D01*
X74534838Y-106186799D01*
X74535162Y-105814833D01*
X74393117Y-105471057D01*
X74130327Y-105207808D01*
X73786799Y-105065162D01*
X73414833Y-105064838D01*
X73071057Y-105206883D01*
X72807808Y-105469673D01*
X72665162Y-105813201D01*
X72664838Y-106185167D01*
X69707377Y-106185167D01*
X69530327Y-106007808D01*
X69186799Y-105865162D01*
X68814833Y-105864838D01*
X68471057Y-106006883D01*
X68207808Y-106269673D01*
X68065162Y-106613201D01*
X68064838Y-106985167D01*
X55084926Y-106985167D01*
X55085162Y-106714833D01*
X54943117Y-106371057D01*
X54680327Y-106107808D01*
X54336799Y-105965162D01*
X53964833Y-105964838D01*
X53621057Y-106106883D01*
X53357808Y-106369673D01*
X53215162Y-106713201D01*
X53214838Y-107085167D01*
X50785000Y-107085167D01*
X50785000Y-105485167D01*
X55964838Y-105485167D01*
X56106883Y-105828943D01*
X56369673Y-106092192D01*
X56713201Y-106234838D01*
X57085167Y-106235162D01*
X57428943Y-106093117D01*
X57692192Y-105830327D01*
X57752467Y-105685167D01*
X63864838Y-105685167D01*
X64006883Y-106028943D01*
X64269673Y-106292192D01*
X64613201Y-106434838D01*
X64985167Y-106435162D01*
X65328943Y-106293117D01*
X65592192Y-106030327D01*
X65734838Y-105686799D01*
X65735162Y-105314833D01*
X65593117Y-104971057D01*
X65330327Y-104707808D01*
X64986799Y-104565162D01*
X64614833Y-104564838D01*
X64271057Y-104706883D01*
X64007808Y-104969673D01*
X63865162Y-105313201D01*
X63864838Y-105685167D01*
X57752467Y-105685167D01*
X57834838Y-105486799D01*
X57835162Y-105114833D01*
X57693117Y-104771057D01*
X57430327Y-104507808D01*
X57231307Y-104425167D01*
X66054838Y-104425167D01*
X66196883Y-104768943D01*
X66459673Y-105032192D01*
X66803201Y-105174838D01*
X67175167Y-105175162D01*
X67518943Y-105033117D01*
X67782192Y-104770327D01*
X67924838Y-104426799D01*
X67925162Y-104054833D01*
X67783117Y-103711057D01*
X67520327Y-103447808D01*
X67176799Y-103305162D01*
X66804833Y-103304838D01*
X66461057Y-103446883D01*
X66197808Y-103709673D01*
X66055162Y-104053201D01*
X66054838Y-104425167D01*
X57231307Y-104425167D01*
X57086799Y-104365162D01*
X56714833Y-104364838D01*
X56371057Y-104506883D01*
X56107808Y-104769673D01*
X55965162Y-105113201D01*
X55964838Y-105485167D01*
X50785000Y-105485167D01*
X50785000Y-103085167D01*
X50864838Y-103085167D01*
X51006883Y-103428943D01*
X51269673Y-103692192D01*
X51613201Y-103834838D01*
X51985167Y-103835162D01*
X52328943Y-103693117D01*
X52592192Y-103430327D01*
X52734838Y-103086799D01*
X52735162Y-102714833D01*
X52593117Y-102371057D01*
X52330327Y-102107808D01*
X51986799Y-101965162D01*
X51614833Y-101964838D01*
X51271057Y-102106883D01*
X51007808Y-102369673D01*
X50865162Y-102713201D01*
X50864838Y-103085167D01*
X50785000Y-103085167D01*
X50785000Y-100000000D01*
X51965000Y-100000000D01*
X52119905Y-100778761D01*
X52561038Y-101438962D01*
X53221239Y-101880095D01*
X54000000Y-102035000D01*
X54778761Y-101880095D01*
X55438962Y-101438962D01*
X55880095Y-100778761D01*
X56035000Y-100000000D01*
X55880095Y-99221239D01*
X55438962Y-98561038D01*
X54778761Y-98119905D01*
X54000000Y-97965000D01*
X53221239Y-98119905D01*
X52561038Y-98561038D01*
X52119905Y-99221239D01*
X51965000Y-100000000D01*
X50785000Y-100000000D01*
X50785000Y-97945167D01*
X57184838Y-97945167D01*
X57326883Y-98288943D01*
X57589673Y-98552192D01*
X57933201Y-98694838D01*
X58305167Y-98695162D01*
X58628210Y-98561683D01*
X58565250Y-98713309D01*
X58564752Y-99284187D01*
X58782757Y-99811800D01*
X58970603Y-99999974D01*
X58784176Y-100186077D01*
X58565250Y-100713309D01*
X58564752Y-101284187D01*
X58782757Y-101811800D01*
X59186077Y-102215824D01*
X59713309Y-102434750D01*
X60284187Y-102435248D01*
X60811800Y-102217243D01*
X60999974Y-102029397D01*
X61186077Y-102215824D01*
X61713309Y-102434750D01*
X62284187Y-102435248D01*
X62811800Y-102217243D01*
X62999974Y-102029397D01*
X63186077Y-102215824D01*
X63713309Y-102434750D01*
X64284187Y-102435248D01*
X64811800Y-102217243D01*
X64999974Y-102029397D01*
X65186077Y-102215824D01*
X65713309Y-102434750D01*
X66284187Y-102435248D01*
X66811800Y-102217243D01*
X66999974Y-102029397D01*
X67186077Y-102215824D01*
X67713309Y-102434750D01*
X68284187Y-102435248D01*
X68811800Y-102217243D01*
X68999974Y-102029397D01*
X69186077Y-102215824D01*
X69713309Y-102434750D01*
X70284187Y-102435248D01*
X70811800Y-102217243D01*
X70999974Y-102029397D01*
X71186077Y-102215824D01*
X71713309Y-102434750D01*
X72284187Y-102435248D01*
X72811800Y-102217243D01*
X72999974Y-102029397D01*
X73186077Y-102215824D01*
X73713309Y-102434750D01*
X74284187Y-102435248D01*
X74811800Y-102217243D01*
X74999974Y-102029397D01*
X75186077Y-102215824D01*
X75713309Y-102434750D01*
X76284187Y-102435248D01*
X76811800Y-102217243D01*
X76999974Y-102029397D01*
X77186077Y-102215824D01*
X77713309Y-102434750D01*
X78284187Y-102435248D01*
X78811800Y-102217243D01*
X78999974Y-102029397D01*
X79186077Y-102215824D01*
X79713309Y-102434750D01*
X80284187Y-102435248D01*
X80811800Y-102217243D01*
X80999974Y-102029397D01*
X81186077Y-102215824D01*
X81713309Y-102434750D01*
X82284187Y-102435248D01*
X82811800Y-102217243D01*
X82999974Y-102029397D01*
X83186077Y-102215824D01*
X83381014Y-102296769D01*
X83207808Y-102469673D01*
X83065162Y-102813201D01*
X83064838Y-103185167D01*
X83206883Y-103528943D01*
X83469673Y-103792192D01*
X83813201Y-103934838D01*
X84185167Y-103935162D01*
X84528943Y-103793117D01*
X84562118Y-103760000D01*
X90855121Y-103760000D01*
X90854838Y-104085167D01*
X90996883Y-104428943D01*
X91259673Y-104692192D01*
X91491678Y-104788530D01*
X91586883Y-105018943D01*
X91849673Y-105282192D01*
X92193201Y-105424838D01*
X92565167Y-105425162D01*
X92908943Y-105283117D01*
X93172192Y-105020327D01*
X93257382Y-104815167D01*
X95534838Y-104815167D01*
X95676883Y-105158943D01*
X95939673Y-105422192D01*
X96283201Y-105564838D01*
X96655167Y-105565162D01*
X96998943Y-105423117D01*
X97262192Y-105160327D01*
X97404838Y-104816799D01*
X97405162Y-104444833D01*
X97263117Y-104101057D01*
X97000327Y-103837808D01*
X96656799Y-103695162D01*
X96284833Y-103694838D01*
X95941057Y-103836883D01*
X95677808Y-104099673D01*
X95535162Y-104443201D01*
X95534838Y-104815167D01*
X93257382Y-104815167D01*
X93314838Y-104676799D01*
X93315162Y-104304833D01*
X93173117Y-103961057D01*
X92972411Y-103760000D01*
X94500000Y-103760000D01*
X94790839Y-103702148D01*
X95037401Y-103537401D01*
X95766111Y-102808691D01*
X95766038Y-102892267D01*
X95908083Y-103236043D01*
X96170873Y-103499292D01*
X96514401Y-103641938D01*
X96886367Y-103642262D01*
X97230143Y-103500217D01*
X97493392Y-103237427D01*
X97513086Y-103190000D01*
X97634960Y-103190000D01*
X97634960Y-105317600D01*
X97679238Y-105552917D01*
X97818310Y-105769041D01*
X98030510Y-105914031D01*
X98282400Y-105965040D01*
X100517600Y-105965040D01*
X100752917Y-105920762D01*
X100969041Y-105781690D01*
X101114031Y-105569490D01*
X101149448Y-105394596D01*
X101179238Y-105552917D01*
X101318310Y-105769041D01*
X101530510Y-105914031D01*
X101595926Y-105927278D01*
X101585162Y-105953201D01*
X101584838Y-106325167D01*
X101726883Y-106668943D01*
X101989673Y-106932192D01*
X102333201Y-107074838D01*
X102705167Y-107075162D01*
X103048943Y-106933117D01*
X103312192Y-106670327D01*
X103454838Y-106326799D01*
X103455153Y-105965040D01*
X104017600Y-105965040D01*
X104252917Y-105920762D01*
X104469041Y-105781690D01*
X104614031Y-105569490D01*
X104649448Y-105394596D01*
X104679238Y-105552917D01*
X104818310Y-105769041D01*
X105030510Y-105914031D01*
X105282400Y-105965040D01*
X107517600Y-105965040D01*
X107752917Y-105920762D01*
X107969041Y-105781690D01*
X108114031Y-105569490D01*
X108165040Y-105317600D01*
X108165040Y-104345167D01*
X108204838Y-104345167D01*
X108346883Y-104688943D01*
X108609673Y-104952192D01*
X108953201Y-105094838D01*
X109095073Y-105094962D01*
X109094838Y-105365167D01*
X109236883Y-105708943D01*
X109499673Y-105972192D01*
X109843201Y-106114838D01*
X110215167Y-106115162D01*
X110558943Y-105973117D01*
X110822192Y-105710327D01*
X110964838Y-105366799D01*
X110965162Y-104994833D01*
X110823117Y-104651057D01*
X110560327Y-104387808D01*
X110216799Y-104245162D01*
X110074927Y-104245038D01*
X110075162Y-103974833D01*
X109933117Y-103631057D01*
X109670327Y-103367808D01*
X109326799Y-103225162D01*
X108954833Y-103224838D01*
X108611057Y-103366883D01*
X108347808Y-103629673D01*
X108205162Y-103973201D01*
X108204838Y-104345167D01*
X108165040Y-104345167D01*
X108165040Y-103082400D01*
X108120762Y-102847083D01*
X107981690Y-102630959D01*
X107769490Y-102485969D01*
X107517600Y-102434960D01*
X105282400Y-102434960D01*
X105047083Y-102479238D01*
X104830959Y-102618310D01*
X104685969Y-102830510D01*
X104650552Y-103005404D01*
X104620762Y-102847083D01*
X104481690Y-102630959D01*
X104269490Y-102485969D01*
X104017600Y-102434960D01*
X101782400Y-102434960D01*
X101547083Y-102479238D01*
X101330959Y-102618310D01*
X101185969Y-102830510D01*
X101150552Y-103005404D01*
X101120762Y-102847083D01*
X100981690Y-102630959D01*
X100769490Y-102485969D01*
X100660836Y-102463966D01*
X101584802Y-101540000D01*
X107577541Y-101540000D01*
X107590026Y-101548342D01*
X107900000Y-101610000D01*
X108064488Y-101610000D01*
X114282571Y-107828084D01*
X114390000Y-108088083D01*
X114390000Y-114300000D01*
X114451658Y-114609974D01*
X114578630Y-114800000D01*
X114627244Y-114872756D01*
X114764903Y-115010415D01*
X114764838Y-115085167D01*
X114906883Y-115428943D01*
X115169673Y-115692192D01*
X115513201Y-115834838D01*
X115885167Y-115835162D01*
X116228943Y-115693117D01*
X116492192Y-115430327D01*
X116634838Y-115086799D01*
X116635162Y-114714833D01*
X116493117Y-114371057D01*
X116230327Y-114107808D01*
X116098639Y-114053126D01*
X116010000Y-113964488D01*
X116010000Y-112035167D01*
X128264838Y-112035167D01*
X128406883Y-112378943D01*
X128669673Y-112642192D01*
X129013201Y-112784838D01*
X129385167Y-112785162D01*
X129728943Y-112643117D01*
X129992192Y-112380327D01*
X130134838Y-112036799D01*
X130135162Y-111664833D01*
X129993117Y-111321057D01*
X129730327Y-111057808D01*
X129386799Y-110915162D01*
X129014833Y-110914838D01*
X128671057Y-111056883D01*
X128407808Y-111319673D01*
X128265162Y-111663201D01*
X128264838Y-112035167D01*
X116010000Y-112035167D01*
X116010000Y-109585167D01*
X122890138Y-109585167D01*
X123032183Y-109928943D01*
X123294973Y-110192192D01*
X123638501Y-110334838D01*
X124010467Y-110335162D01*
X124354243Y-110193117D01*
X124617492Y-109930327D01*
X124760138Y-109586799D01*
X124760462Y-109214833D01*
X124618417Y-108871057D01*
X124355627Y-108607808D01*
X124012099Y-108465162D01*
X123640133Y-108464838D01*
X123296357Y-108606883D01*
X123033108Y-108869673D01*
X122890462Y-109213201D01*
X122890138Y-109585167D01*
X116010000Y-109585167D01*
X116010000Y-108622667D01*
X120356138Y-108622667D01*
X120498183Y-108966443D01*
X120760973Y-109229692D01*
X121104501Y-109372338D01*
X121476467Y-109372662D01*
X121820243Y-109230617D01*
X122083492Y-108967827D01*
X122226138Y-108624299D01*
X122226462Y-108252333D01*
X122084417Y-107908557D01*
X121821627Y-107645308D01*
X121478099Y-107502662D01*
X121106133Y-107502338D01*
X120762357Y-107644383D01*
X120499108Y-107907173D01*
X120356462Y-108250701D01*
X120356138Y-108622667D01*
X116010000Y-108622667D01*
X116010000Y-108087441D01*
X116134838Y-107786799D01*
X116135162Y-107414833D01*
X115993117Y-107071057D01*
X115730327Y-106807808D01*
X115427629Y-106682116D01*
X113330680Y-104585167D01*
X117264838Y-104585167D01*
X117406883Y-104928943D01*
X117669673Y-105192192D01*
X118013201Y-105334838D01*
X118385167Y-105335162D01*
X118728943Y-105193117D01*
X118992192Y-104930327D01*
X119134838Y-104586799D01*
X119135013Y-104385167D01*
X122664838Y-104385167D01*
X122806883Y-104728943D01*
X123069673Y-104992192D01*
X123413201Y-105134838D01*
X123785167Y-105135162D01*
X124128943Y-104993117D01*
X124392192Y-104730327D01*
X124473229Y-104535167D01*
X128164838Y-104535167D01*
X128306883Y-104878943D01*
X128569673Y-105142192D01*
X128913201Y-105284838D01*
X129285167Y-105285162D01*
X129628943Y-105143117D01*
X129892192Y-104880327D01*
X130034838Y-104536799D01*
X130035162Y-104164833D01*
X129893117Y-103821057D01*
X129630327Y-103557808D01*
X129286799Y-103415162D01*
X128914833Y-103414838D01*
X128571057Y-103556883D01*
X128307808Y-103819673D01*
X128165162Y-104163201D01*
X128164838Y-104535167D01*
X124473229Y-104535167D01*
X124534838Y-104386799D01*
X124535162Y-104014833D01*
X124393117Y-103671057D01*
X124130327Y-103407808D01*
X123786799Y-103265162D01*
X123414833Y-103264838D01*
X123071057Y-103406883D01*
X122807808Y-103669673D01*
X122665162Y-104013201D01*
X122664838Y-104385167D01*
X119135013Y-104385167D01*
X119135162Y-104214833D01*
X118993117Y-103871057D01*
X118730327Y-103607808D01*
X118386799Y-103465162D01*
X118014833Y-103464838D01*
X117671057Y-103606883D01*
X117407808Y-103869673D01*
X117265162Y-104213201D01*
X117264838Y-104585167D01*
X113330680Y-104585167D01*
X108972756Y-100227244D01*
X108965943Y-100222692D01*
X108835144Y-100135294D01*
X108835162Y-100114833D01*
X108693117Y-99771057D01*
X108430327Y-99507808D01*
X108086799Y-99365162D01*
X107714833Y-99364838D01*
X107371057Y-99506883D01*
X107107808Y-99769673D01*
X107003863Y-100020000D01*
X104955053Y-100020000D01*
X104955162Y-99894833D01*
X104813117Y-99551057D01*
X104550327Y-99287808D01*
X104206799Y-99145162D01*
X103834833Y-99144838D01*
X103491057Y-99286883D01*
X103227808Y-99549673D01*
X103085162Y-99893201D01*
X103085052Y-100020000D01*
X101356216Y-100020000D01*
X101415492Y-99960827D01*
X101558138Y-99617299D01*
X101558462Y-99245333D01*
X101416417Y-98901557D01*
X101153627Y-98638308D01*
X100810099Y-98495662D01*
X100438133Y-98495338D01*
X100094357Y-98637383D01*
X99831108Y-98900173D01*
X99688462Y-99243701D01*
X99688182Y-99564817D01*
X99597433Y-99564738D01*
X99261691Y-99703464D01*
X99434750Y-99286691D01*
X99435248Y-98715813D01*
X99217243Y-98188200D01*
X98813923Y-97784176D01*
X98286691Y-97565250D01*
X97715813Y-97564752D01*
X97188200Y-97782757D01*
X97000026Y-97970603D01*
X96813923Y-97784176D01*
X96286691Y-97565250D01*
X95715813Y-97564752D01*
X95188200Y-97782757D01*
X95000026Y-97970603D01*
X94813923Y-97784176D01*
X94286691Y-97565250D01*
X93715813Y-97564752D01*
X93188200Y-97782757D01*
X93000026Y-97970603D01*
X92813923Y-97784176D01*
X92286691Y-97565250D01*
X91715813Y-97564752D01*
X91188200Y-97782757D01*
X91000026Y-97970603D01*
X90813923Y-97784176D01*
X90286691Y-97565250D01*
X89715813Y-97564752D01*
X89188200Y-97782757D01*
X89000026Y-97970603D01*
X88813923Y-97784176D01*
X88286691Y-97565250D01*
X87715813Y-97564752D01*
X87188200Y-97782757D01*
X87000026Y-97970603D01*
X86813923Y-97784176D01*
X86286691Y-97565250D01*
X85715813Y-97564752D01*
X85188200Y-97782757D01*
X85000026Y-97970603D01*
X84813923Y-97784176D01*
X84286691Y-97565250D01*
X83715813Y-97564752D01*
X83188200Y-97782757D01*
X83000026Y-97970603D01*
X82813923Y-97784176D01*
X82286691Y-97565250D01*
X81715813Y-97564752D01*
X81188200Y-97782757D01*
X81000026Y-97970603D01*
X80813923Y-97784176D01*
X80286691Y-97565250D01*
X79715813Y-97564752D01*
X79188200Y-97782757D01*
X79000026Y-97970603D01*
X78813923Y-97784176D01*
X78286691Y-97565250D01*
X77715813Y-97564752D01*
X77188200Y-97782757D01*
X77000026Y-97970603D01*
X76813923Y-97784176D01*
X76286691Y-97565250D01*
X75715813Y-97564752D01*
X75188200Y-97782757D01*
X75000026Y-97970603D01*
X74813923Y-97784176D01*
X74286691Y-97565250D01*
X73715813Y-97564752D01*
X73188200Y-97782757D01*
X73000026Y-97970603D01*
X72813923Y-97784176D01*
X72286691Y-97565250D01*
X71715813Y-97564752D01*
X71188200Y-97782757D01*
X71000026Y-97970603D01*
X70813923Y-97784176D01*
X70286691Y-97565250D01*
X69715813Y-97564752D01*
X69188200Y-97782757D01*
X69000026Y-97970603D01*
X68813923Y-97784176D01*
X68286691Y-97565250D01*
X67715813Y-97564752D01*
X67188200Y-97782757D01*
X67000026Y-97970603D01*
X66813923Y-97784176D01*
X66286691Y-97565250D01*
X65715813Y-97564752D01*
X65188200Y-97782757D01*
X65000026Y-97970603D01*
X64813923Y-97784176D01*
X64286691Y-97565250D01*
X63715813Y-97564752D01*
X63188200Y-97782757D01*
X63000026Y-97970603D01*
X62813923Y-97784176D01*
X62286691Y-97565250D01*
X61715813Y-97564752D01*
X61188200Y-97782757D01*
X61000026Y-97970603D01*
X60813923Y-97784176D01*
X60286691Y-97565250D01*
X59715813Y-97564752D01*
X59188200Y-97782757D01*
X59054865Y-97915860D01*
X59055162Y-97574833D01*
X58913117Y-97231057D01*
X58650327Y-96967808D01*
X58306799Y-96825162D01*
X57934833Y-96824838D01*
X57591057Y-96966883D01*
X57327808Y-97229673D01*
X57185162Y-97573201D01*
X57184838Y-97945167D01*
X50785000Y-97945167D01*
X50785000Y-96785000D01*
X108326917Y-96785000D01*
X108191308Y-96920373D01*
M02*
