%TF.GenerationSoftware,KiCad,Pcbnew,4.0.1-stable*%
%TF.CreationDate,2016-08-15T16:12:19+09:00*%
%TF.ProjectId,Shimonso-IoT-Type-R,5368696D6F6E736F2D496F542D547970,rev?*%
%TF.FileFunction,Copper,L1,Top,Signal*%
%FSLAX46Y46*%
G04 Gerber Fmt 4.6, Leading zero omitted, Abs format (unit mm)*
G04 Created by KiCad (PCBNEW 4.0.1-stable) date 2016/08/15 16:12:19*
%MOMM*%
G01*
G04 APERTURE LIST*
%ADD10C,0.100000*%
%ADD11R,2.235200X2.235200*%
%ADD12R,3.100000X0.304800*%
%ADD13R,1.500000X1.550000*%
%ADD14R,0.400000X1.350000*%
%ADD15O,0.890000X1.550000*%
%ADD16O,1.250000X0.950000*%
%ADD17R,0.400000X0.400000*%
%ADD18R,1.300000X1.900000*%
%ADD19R,0.720000X0.600000*%
%ADD20R,1.800000X0.560000*%
%ADD21R,0.330000X0.230000*%
%ADD22R,0.230000X0.330000*%
%ADD23O,0.550000X0.300000*%
%ADD24R,0.300000X0.450000*%
%ADD25O,0.300000X0.550000*%
%ADD26R,0.800000X0.300000*%
%ADD27R,0.450000X0.300000*%
%ADD28R,0.275000X0.250000*%
%ADD29R,0.250000X0.275000*%
%ADD30R,1.720000X0.500000*%
%ADD31R,0.340000X1.510000*%
%ADD32R,2.000000X0.300000*%
%ADD33R,2.100000X0.540000*%
%ADD34R,1.340000X3.600000*%
%ADD35R,0.610000X2.000000*%
%ADD36C,1.600000*%
%ADD37R,1.700000X1.200000*%
%ADD38R,0.800000X0.700000*%
%ADD39R,0.700000X0.800000*%
%ADD40R,0.800000X0.900000*%
%ADD41R,9.000000X9.000000*%
%ADD42R,2.700000X0.900000*%
%ADD43R,0.900000X2.700000*%
%ADD44R,1.700000X6.300000*%
%ADD45R,1.200000X0.900000*%
%ADD46R,1.510000X0.270000*%
%ADD47R,1.510000X0.260000*%
%ADD48R,0.250000X0.600000*%
%ADD49R,0.270000X1.510000*%
%ADD50R,0.260000X1.510000*%
%ADD51R,0.270000X1.900000*%
%ADD52R,0.300000X0.650000*%
%ADD53R,0.300000X2.300000*%
%ADD54R,0.797560X0.797560*%
%ADD55C,0.600000*%
%ADD56C,0.200000*%
%ADD57C,0.350000*%
%ADD58C,0.250000*%
G04 APERTURE END LIST*
D10*
D11*
X56562000Y-8358000D03*
X53062000Y-8358000D03*
X49562000Y-8358000D03*
X76262000Y-4058000D03*
X2362000Y-52258000D03*
X4662000Y-42958000D03*
D12*
X11212000Y-42935500D03*
X15112000Y-42935500D03*
X15112000Y-43570500D03*
X11212000Y-43570500D03*
X11212000Y-44205500D03*
X15112000Y-44205500D03*
X15112000Y-47380500D03*
X11212000Y-47380500D03*
X11212000Y-46745500D03*
X15112000Y-46745500D03*
X15112000Y-46110500D03*
X11212000Y-46110500D03*
X11212000Y-44840500D03*
X15112000Y-44840500D03*
X15112000Y-45475500D03*
X11212000Y-45475500D03*
D13*
X14262000Y-52708000D03*
D14*
X14562000Y-50008000D03*
X13262000Y-50008000D03*
X13912000Y-50008000D03*
X12612000Y-50008000D03*
D15*
X16762000Y-52708000D03*
X9762000Y-52708000D03*
D16*
X15762000Y-50008000D03*
X10762000Y-50008000D03*
D14*
X11962000Y-50008000D03*
D13*
X12262000Y-52708000D03*
D17*
X39262000Y-27758000D03*
X39262000Y-28758000D03*
X36262000Y-27758000D03*
X36262000Y-28758000D03*
X38262000Y-26758000D03*
X37262000Y-26758000D03*
X36262000Y-26758000D03*
X39262000Y-26758000D03*
X39262000Y-29758000D03*
X36262000Y-29758000D03*
X37262000Y-29758000D03*
X38262000Y-29758000D03*
D18*
X2762000Y-9458000D03*
X2762000Y-12658000D03*
X8262000Y-12658000D03*
X8262000Y-9458000D03*
D19*
X19477000Y-18183000D03*
X20447000Y-18183000D03*
X21417000Y-18183000D03*
X18507000Y-18183000D03*
X18507000Y-16733000D03*
X21417000Y-16733000D03*
X20447000Y-16733000D03*
X19477000Y-16733000D03*
D20*
X11762000Y-8753000D03*
X11762000Y-10023000D03*
X11762000Y-11293000D03*
X11762000Y-12563000D03*
X17162000Y-12563000D03*
X17162000Y-11293000D03*
X17162000Y-10023000D03*
X17162000Y-8753000D03*
D21*
X49772000Y-19608000D03*
X49772000Y-20058000D03*
X49772000Y-20508000D03*
D22*
X50787000Y-19268000D03*
X50337000Y-19268000D03*
X50337000Y-20848000D03*
X50787000Y-20848000D03*
D21*
X51352000Y-20508000D03*
X51352000Y-20058000D03*
X51352000Y-19608000D03*
D23*
X42072000Y-20908000D03*
D24*
X41062000Y-22383000D03*
X41062000Y-20533000D03*
D25*
X40512000Y-22468000D03*
X41612000Y-22468000D03*
X40512000Y-20448000D03*
X41612000Y-20448000D03*
D23*
X40052000Y-20908000D03*
X40052000Y-22008000D03*
X42072000Y-22008000D03*
D26*
X41812000Y-21458000D03*
D27*
X40137000Y-21458000D03*
D28*
X54962000Y-15045500D03*
X54962000Y-14545500D03*
D29*
X54962000Y-14033000D03*
X55462000Y-14033000D03*
X55962000Y-14033000D03*
X56462000Y-14033000D03*
D28*
X56462000Y-14545500D03*
X56462000Y-15045500D03*
D29*
X56462000Y-15558000D03*
X55962000Y-15558000D03*
X55462000Y-15558000D03*
X54962000Y-15558000D03*
D30*
X45762000Y-7708000D03*
X45762000Y-9608000D03*
X43762000Y-9608000D03*
X43762000Y-8658000D03*
X43762000Y-7708000D03*
D31*
X77002000Y-42523000D03*
X77502000Y-42523000D03*
X78502000Y-42523000D03*
X78002000Y-42523000D03*
X78002000Y-40033000D03*
X78502000Y-40033000D03*
X77502000Y-40033000D03*
X77002000Y-40033000D03*
D32*
X63562000Y-32258000D03*
X58162000Y-32258000D03*
X58162000Y-32908000D03*
X63562000Y-32908000D03*
X63562000Y-34208000D03*
X58162000Y-34208000D03*
X58162000Y-33558000D03*
X63562000Y-33558000D03*
X63562000Y-30958000D03*
X58162000Y-30958000D03*
X58162000Y-31608000D03*
X63562000Y-31608000D03*
X63562000Y-30308000D03*
X58162000Y-30308000D03*
X58162000Y-29658000D03*
X63562000Y-29658000D03*
D33*
X71612000Y-19263000D03*
X71612000Y-17993000D03*
X71612000Y-15453000D03*
X71612000Y-16723000D03*
X76512000Y-16723000D03*
X76512000Y-15453000D03*
X76512000Y-17993000D03*
X76512000Y-19263000D03*
D34*
X36672000Y-49958000D03*
D35*
X39662000Y-47158000D03*
X41662000Y-47158000D03*
X40662000Y-47158000D03*
X44662000Y-47158000D03*
X45662000Y-47158000D03*
X43662000Y-47158000D03*
X42662000Y-47158000D03*
X50662000Y-47158000D03*
X51662000Y-47158000D03*
X53662000Y-47158000D03*
X52662000Y-47158000D03*
X48662000Y-47158000D03*
X49662000Y-47158000D03*
X47662000Y-47158000D03*
X46662000Y-47158000D03*
D34*
X56652000Y-49958000D03*
X62472000Y-49958000D03*
D35*
X65462000Y-47158000D03*
X67462000Y-47158000D03*
X66462000Y-47158000D03*
X70462000Y-47158000D03*
X71462000Y-47158000D03*
X69462000Y-47158000D03*
X68462000Y-47158000D03*
X76462000Y-47158000D03*
X77462000Y-47158000D03*
X79462000Y-47158000D03*
X78462000Y-47158000D03*
X74462000Y-47158000D03*
X75462000Y-47158000D03*
X73462000Y-47158000D03*
X72462000Y-47158000D03*
D34*
X82452000Y-49958000D03*
D36*
X10162000Y-5158000D03*
X10162000Y-3158000D03*
X12162000Y-5158000D03*
X12162000Y-3158000D03*
X14162000Y-5158000D03*
X14162000Y-3158000D03*
X16162000Y-5158000D03*
X16162000Y-3158000D03*
X18162000Y-5158000D03*
X18162000Y-3158000D03*
X20162000Y-5158000D03*
X20162000Y-3158000D03*
X22162000Y-5158000D03*
X22162000Y-3158000D03*
X24162000Y-5158000D03*
X24162000Y-3158000D03*
X26162000Y-5158000D03*
X26162000Y-3158000D03*
X28162000Y-5158000D03*
X28162000Y-3158000D03*
X30162000Y-5158000D03*
X30162000Y-3158000D03*
X32162000Y-5158000D03*
X32162000Y-3158000D03*
X34162000Y-5158000D03*
X34162000Y-3158000D03*
X36162000Y-5158000D03*
X36162000Y-3158000D03*
X38162000Y-5158000D03*
X38162000Y-3158000D03*
X40162000Y-5158000D03*
X40162000Y-3158000D03*
X42162000Y-5158000D03*
X42162000Y-3158000D03*
X44162000Y-5158000D03*
X44162000Y-3158000D03*
X46162000Y-5158000D03*
X46162000Y-3158000D03*
X48162000Y-5158000D03*
X48162000Y-3158000D03*
D33*
X71512000Y-11763000D03*
X71512000Y-10493000D03*
X71512000Y-7953000D03*
X71512000Y-9223000D03*
X76412000Y-9223000D03*
X76412000Y-7953000D03*
X76412000Y-10493000D03*
X76412000Y-11763000D03*
D37*
X15062000Y-34758000D03*
X15062000Y-38158000D03*
D38*
X9162000Y-18808000D03*
X9162000Y-17108000D03*
X23762000Y-6908000D03*
X23762000Y-8608000D03*
D39*
X29512000Y-52758000D03*
X27812000Y-52758000D03*
X29512000Y-49458000D03*
X27812000Y-49458000D03*
D38*
X49832000Y-41868000D03*
X49832000Y-40168000D03*
X47782000Y-42978000D03*
X47782000Y-41278000D03*
X33562000Y-7808000D03*
X33562000Y-9508000D03*
D40*
X36812000Y-10358000D03*
X38712000Y-10358000D03*
X37762000Y-12358000D03*
D41*
X23862000Y-29258000D03*
D42*
X5912000Y-17058000D03*
X2612000Y-17058000D03*
D43*
X80962000Y-23226800D03*
X80962000Y-29879600D03*
X73462000Y-23226800D03*
X73462000Y-29879600D03*
X80962000Y-19308000D03*
X80962000Y-16008000D03*
X80762000Y-11808000D03*
X80762000Y-8508000D03*
X67162000Y-11808000D03*
X67162000Y-8508000D03*
X67162000Y-19208000D03*
X67162000Y-15908000D03*
X6462000Y-49008000D03*
X6462000Y-52308000D03*
D39*
X4612000Y-20558000D03*
X2912000Y-20558000D03*
X55162000Y-43468000D03*
X56862000Y-43468000D03*
D38*
X2962000Y-46908000D03*
X2962000Y-48608000D03*
D44*
X9162000Y-30708000D03*
X9162000Y-23008000D03*
D38*
X1862000Y-42008000D03*
X1862000Y-43708000D03*
X15062000Y-39608000D03*
X15062000Y-41308000D03*
D45*
X9887000Y-15258000D03*
X12037000Y-15258000D03*
D46*
X21217000Y-10408000D03*
X21217000Y-10908000D03*
X21217000Y-11908000D03*
X21217000Y-11408000D03*
X23707000Y-11408000D03*
X23707000Y-11908000D03*
X23707000Y-10908000D03*
D47*
X23707000Y-10408000D03*
D48*
X18812000Y-21258000D03*
X19320000Y-21258000D03*
X20312000Y-21258000D03*
X19812000Y-21258000D03*
X19812000Y-23258000D03*
X20312000Y-23258000D03*
X19320000Y-23258000D03*
X18812000Y-23258000D03*
D49*
X52012000Y-42403000D03*
X52512000Y-42403000D03*
X53512000Y-42403000D03*
X53012000Y-42403000D03*
X53012000Y-39913000D03*
X53512000Y-39913000D03*
X52512000Y-39913000D03*
D50*
X52012000Y-39913000D03*
D51*
X32062000Y-20508000D03*
X32562000Y-20508000D03*
X31062000Y-20508000D03*
X31562000Y-20508000D03*
X33062000Y-20508000D03*
X33062000Y-24408000D03*
X31562000Y-24408000D03*
X31062000Y-24408000D03*
X32562000Y-24408000D03*
X32062000Y-24408000D03*
D52*
X30942000Y-30013000D03*
X31942000Y-30013000D03*
X30942000Y-28163000D03*
X31942000Y-28163000D03*
D53*
X31442000Y-29088000D03*
D54*
X33562000Y-10908700D03*
X33562000Y-12407300D03*
X61262000Y-1608700D03*
X61262000Y-3107300D03*
X66262000Y-1608700D03*
X66262000Y-3107300D03*
X72062000Y-1708700D03*
X72062000Y-3207300D03*
X25511300Y-49458000D03*
X24012700Y-49458000D03*
X25511300Y-52758000D03*
X24012700Y-52758000D03*
D55*
X31662000Y-31598000D03*
X19437000Y-15633000D03*
X33012000Y-42633000D03*
X30112000Y-42483000D03*
X41312000Y-38156000D03*
X43562000Y-38058000D03*
X19687000Y-24183000D03*
X80162000Y-29758000D03*
X72562000Y-29558000D03*
X53962000Y-39958000D03*
X37262000Y-27358000D03*
X55762000Y-12858000D03*
X54362000Y-15758000D03*
X43462000Y-20558000D03*
X41862000Y-23058000D03*
X23662000Y-12558000D03*
X39462000Y-22558000D03*
X14762000Y-33558000D03*
X16662000Y-25758000D03*
X56562000Y-20558000D03*
X60562000Y-14158000D03*
X73962000Y-13658000D03*
X74162000Y-20758000D03*
X60262000Y-27358000D03*
X34462000Y-22658000D03*
X42062000Y-31658000D03*
X43462000Y-27258000D03*
X58162000Y-46458000D03*
X58862000Y-41258000D03*
X19062000Y-52058000D03*
X22762000Y-44758000D03*
X4662000Y-8658000D03*
X13662000Y-18758000D03*
X23562000Y-18558000D03*
X23962000Y-13758000D03*
X29862000Y-10858000D03*
X41962000Y-12458000D03*
X46362000Y-24658000D03*
X46362000Y-21658000D03*
X72262000Y-40358000D03*
X83562000Y-45658000D03*
X83562000Y-39858000D03*
X66062000Y-24758000D03*
X65862000Y-26858000D03*
X38862000Y-47058000D03*
X1862000Y-41058000D03*
X17362000Y-44758000D03*
X9162000Y-45458000D03*
X10662000Y-30658000D03*
X17162000Y-8058000D03*
X36062000Y-10358000D03*
X42262000Y-8658000D03*
X56862000Y-16058000D03*
X78837000Y-40033000D03*
X64862000Y-46958000D03*
X63662000Y-34558000D03*
X58162000Y-34558000D03*
X63562000Y-30558000D03*
X74962000Y-8658000D03*
X75162000Y-16358000D03*
X67962000Y-15858000D03*
X66062000Y-8658000D03*
X2662000Y-16058000D03*
X62062000Y-3458000D03*
X67162000Y-3258000D03*
X22607500Y-34942000D03*
X26112000Y-42460000D03*
X24962000Y-34948000D03*
X32512000Y-34910000D03*
X30571600Y-34944000D03*
X28062000Y-34948000D03*
X40512000Y-42499000D03*
X42912000Y-42477000D03*
X37631000Y-42493000D03*
X38831600Y-38080000D03*
X36069600Y-42470000D03*
X36512000Y-34293000D03*
X74462000Y-48715000D03*
X68462000Y-48722000D03*
X71626000Y-48710000D03*
X48662000Y-48760000D03*
X42662000Y-48744000D03*
X45662000Y-48710000D03*
X7912300Y-52073000D03*
X9453900Y-48908000D03*
X18137900Y-45533000D03*
X30322000Y-31648000D03*
X39762000Y-26258000D03*
X79537000Y-48583000D03*
X53562000Y-49358000D03*
X30462000Y-24458000D03*
X32062000Y-21958000D03*
X23262000Y-7058000D03*
X21062000Y-7058000D03*
X17662000Y-23258000D03*
X13262000Y-15358000D03*
X17462000Y-16358000D03*
X22862000Y-16558000D03*
X29662000Y-48458000D03*
X35762000Y-26258000D03*
X58862000Y-43858000D03*
X63662000Y-29158000D03*
X63562000Y-25558000D03*
X80162000Y-44558000D03*
X72162000Y-43058000D03*
X65400000Y-5200000D03*
X76400000Y-12600000D03*
X45900000Y-7200000D03*
X34300000Y-7800000D03*
X58200000Y-4200000D03*
X66200000Y-19200000D03*
X66100000Y-11900000D03*
X71600000Y-20100000D03*
X71500000Y-12600000D03*
X75287000Y-23833000D03*
X27512000Y-23158000D03*
X28712000Y-18358000D03*
X57062000Y-13858000D03*
X54562000Y-13658000D03*
X51200000Y-24158000D03*
X51162000Y-27958000D03*
X55962000Y-16658000D03*
X55162000Y-42758000D03*
X49062000Y-42558000D03*
X52962000Y-38658000D03*
X8962000Y-44206000D03*
X23562000Y-20658000D03*
X26562000Y-11458000D03*
X28362000Y-14958000D03*
X51562000Y-29458000D03*
X57862000Y-28458000D03*
X42862000Y-17458000D03*
X42662000Y-22658000D03*
X70562000Y-5358000D03*
X81400000Y-38900000D03*
X75300000Y-34700000D03*
X76500000Y-20100000D03*
X76374000Y-41258000D03*
X53287000Y-20458000D03*
X11630400Y-51270000D03*
X17831800Y-49053000D03*
X35334700Y-38073000D03*
X50902000Y-36418000D03*
X52012000Y-38048000D03*
X45704000Y-43047000D03*
X68680000Y-44782000D03*
X78037000Y-38183000D03*
X37460300Y-33802000D03*
X71215000Y-28061000D03*
X74358000Y-38321000D03*
X36604400Y-38203000D03*
X39132300Y-33793000D03*
X50389000Y-33183000D03*
X66462000Y-48737000D03*
X37858700Y-38086000D03*
X49198800Y-37974000D03*
X57750000Y-47800000D03*
X52604000Y-49094000D03*
X48910800Y-39086000D03*
X42234000Y-38091000D03*
X40387000Y-38758000D03*
X39973200Y-34284000D03*
X56208000Y-28711000D03*
X69510000Y-45600000D03*
X31796000Y-42472000D03*
X47374000Y-40083000D03*
X26378500Y-45783000D03*
X52316000Y-33558000D03*
X26038800Y-34847000D03*
X36391100Y-46772000D03*
X34340300Y-42480000D03*
X26042400Y-38114000D03*
X41818400Y-45583000D03*
X22256500Y-43653000D03*
X22593500Y-38846000D03*
X8224200Y-7252000D03*
X6803300Y-7603000D03*
X7491500Y-1724300D03*
X9310000Y-38158000D03*
X20463800Y-48172000D03*
X14889400Y-8786000D03*
X13137300Y-42348000D03*
X26176700Y-14090000D03*
X51787000Y-17733000D03*
X47112000Y-19208000D03*
X29706900Y-14585000D03*
X26152400Y-16556000D03*
X41342000Y-24458000D03*
X16747500Y-17676000D03*
X25477300Y-13564000D03*
X24290800Y-22117000D03*
X41893800Y-19609000D03*
X50365000Y-3936200D03*
X58762000Y-11908000D03*
X52750000Y-4706000D03*
X45709500Y-12898000D03*
X48879800Y-12910000D03*
X55062000Y-31733000D03*
X49952100Y-12948000D03*
X56284000Y-4015100D03*
X60294000Y-32258000D03*
X59843000Y-1683200D03*
X65281000Y-1683200D03*
X69105000Y-1783700D03*
X76962000Y-49183000D03*
X76833000Y-44525000D03*
X65824000Y-32258000D03*
X71680000Y-44012000D03*
X66208000Y-52958000D03*
X60041000Y-35302000D03*
X50472000Y-44128000D03*
X51662000Y-50917000D03*
X49922000Y-43338000D03*
X55112000Y-48860000D03*
X59217000Y-45478000D03*
X55960000Y-36600000D03*
X39677200Y-10358000D03*
X20942000Y-15568000D03*
X21362000Y-21018000D03*
X18821800Y-11750000D03*
X18542000Y-20078000D03*
X18251700Y-15448000D03*
X56523000Y-30935000D03*
X47685100Y-9124000D03*
X48771000Y-10802000D03*
X47550600Y-12272000D03*
X6727500Y-43531000D03*
X54237000Y-43533000D03*
X19881500Y-11908000D03*
X42849000Y-23950000D03*
X6012000Y-10440000D03*
X6308200Y-13689000D03*
X40135100Y-29758000D03*
X18473400Y-47570000D03*
X9052400Y-47424000D03*
X54220000Y-30310000D03*
X8292600Y-46133000D03*
X6610300Y-44451000D03*
X8080900Y-47012000D03*
X20455300Y-46428000D03*
D56*
X31942000Y-30013000D02*
X31942000Y-31318000D01*
X31942000Y-31318000D02*
X31662000Y-31598000D01*
X50337000Y-20848000D02*
X50337000Y-20383000D01*
X50662000Y-20058000D02*
X51352000Y-20058000D01*
X50337000Y-20383000D02*
X50662000Y-20058000D01*
X50337000Y-20848000D02*
X50322000Y-20848000D01*
X50337000Y-20848000D02*
X50337000Y-20908000D01*
X51352000Y-20058000D02*
X51862000Y-20058000D01*
X51862000Y-20058000D02*
X53437000Y-21633000D01*
X53437000Y-21633000D02*
X55487000Y-21633000D01*
X55487000Y-21633000D02*
X56562000Y-20558000D01*
D57*
X19477000Y-15673000D02*
X19437000Y-15633000D01*
X19477000Y-16733000D02*
X19477000Y-15673000D01*
D56*
X53917000Y-39913000D02*
X53962000Y-39958000D01*
X53512000Y-39913000D02*
X53917000Y-39913000D01*
D57*
X56862000Y-43258000D02*
X58862000Y-41258000D01*
X56862000Y-43468000D02*
X56862000Y-43258000D01*
D56*
X37262000Y-27358000D02*
X37262000Y-26758000D01*
X55662000Y-12958000D02*
X55762000Y-12858000D01*
X55662000Y-13558000D02*
X55662000Y-12958000D01*
X55762000Y-13658000D02*
X55662000Y-13558000D01*
X55762000Y-14033000D02*
X55762000Y-13658000D01*
X54562000Y-15558000D02*
X54362000Y-15758000D01*
X54962000Y-15558000D02*
X54562000Y-15558000D01*
X43112000Y-20908000D02*
X42072000Y-20908000D01*
X43462000Y-20558000D02*
X43112000Y-20908000D01*
X41612000Y-22808000D02*
X41862000Y-23058000D01*
X41612000Y-22468000D02*
X41612000Y-22808000D01*
X23707000Y-12513000D02*
X23662000Y-12558000D01*
X23707000Y-11908000D02*
X23707000Y-12513000D01*
X40012000Y-22008000D02*
X39462000Y-22558000D01*
X40052000Y-22008000D02*
X40012000Y-22008000D01*
X32462000Y-22658000D02*
X34462000Y-22658000D01*
X32062000Y-23058000D02*
X32462000Y-22658000D01*
X32062000Y-24408000D02*
X32062000Y-23058000D01*
D57*
X15062000Y-33858000D02*
X15062000Y-34758000D01*
X14762000Y-33558000D02*
X15062000Y-33858000D01*
X38962000Y-47158000D02*
X39662000Y-47158000D01*
X38862000Y-47058000D02*
X38962000Y-47158000D01*
X1862000Y-42008000D02*
X1862000Y-41058000D01*
X14262000Y-52708000D02*
X12262000Y-52708000D01*
X15762000Y-50008000D02*
X14562000Y-50008000D01*
X10612000Y-30708000D02*
X10662000Y-30658000D01*
X9162000Y-30708000D02*
X10612000Y-30708000D01*
X17162000Y-8058000D02*
X17162000Y-8753000D01*
X36062000Y-10358000D02*
X36812000Y-10358000D01*
X42262000Y-8658000D02*
X43762000Y-8658000D01*
X65062000Y-47158000D02*
X65462000Y-47158000D01*
X64862000Y-46958000D02*
X65062000Y-47158000D01*
X58162000Y-34208000D02*
X58162000Y-34558000D01*
X63562000Y-34458000D02*
X63562000Y-34208000D01*
X63662000Y-34558000D02*
X63562000Y-34458000D01*
X75527000Y-9223000D02*
X76412000Y-9223000D01*
X74962000Y-8658000D02*
X75527000Y-9223000D01*
X75527000Y-16723000D02*
X76512000Y-16723000D01*
X75162000Y-16358000D02*
X75527000Y-16723000D01*
X67912000Y-15908000D02*
X67962000Y-15858000D01*
X67162000Y-15908000D02*
X67912000Y-15908000D01*
X66212000Y-8508000D02*
X67162000Y-8508000D01*
X66062000Y-8658000D02*
X66212000Y-8508000D01*
X2412000Y-52308000D02*
X2362000Y-52258000D01*
X6462000Y-52308000D02*
X2412000Y-52308000D01*
X2962000Y-51658000D02*
X2362000Y-52258000D01*
X2962000Y-48608000D02*
X2962000Y-51658000D01*
X2612000Y-20258000D02*
X2912000Y-20558000D01*
X2612000Y-17058000D02*
X2612000Y-20258000D01*
X2612000Y-16108000D02*
X2612000Y-17058000D01*
X2662000Y-16058000D02*
X2612000Y-16108000D01*
X61711000Y-3107300D02*
X61262000Y-3107300D01*
X62062000Y-3458000D02*
X61711000Y-3107300D01*
X67011000Y-3107300D02*
X67162000Y-3258000D01*
X66262000Y-3107300D02*
X67011000Y-3107300D01*
X75411000Y-3207300D02*
X76262000Y-4058000D01*
X72062000Y-3207300D02*
X75411000Y-3207300D01*
D56*
X56462000Y-15658000D02*
X56862000Y-16058000D01*
X56462000Y-15558000D02*
X56462000Y-15658000D01*
D57*
X81700000Y-9446000D02*
X80762000Y-8508000D01*
X81700000Y-15000000D02*
X81700000Y-9446000D01*
X80962000Y-15738000D02*
X81700000Y-15000000D01*
X80962000Y-16008000D02*
X80962000Y-15738000D01*
X80712000Y-8508000D02*
X76262000Y-4058000D01*
X80762000Y-8508000D02*
X80712000Y-8508000D01*
X80247000Y-16723000D02*
X80962000Y-16008000D01*
X76512000Y-16723000D02*
X80247000Y-16723000D01*
X14262000Y-51508000D02*
X14562000Y-51208000D01*
X14262000Y-52708000D02*
X14262000Y-51508000D01*
X14562000Y-51208000D02*
X15762000Y-50008000D01*
X14562000Y-50008000D02*
X14562000Y-51208000D01*
X14562000Y-52408000D02*
X14262000Y-52708000D01*
X14562000Y-51208000D02*
X14562000Y-52408000D01*
X14262000Y-52708000D02*
X16762000Y-52708000D01*
X10762000Y-50008000D02*
X10762000Y-51458000D01*
X10762000Y-51708000D02*
X9762000Y-52708000D01*
X10762000Y-51458000D02*
X10762000Y-51708000D01*
X12012000Y-52708000D02*
X10762000Y-51458000D01*
X12262000Y-52708000D02*
X12012000Y-52708000D01*
X10762000Y-51458000D02*
X10762000Y-50008000D01*
X74462000Y-48715000D02*
X74462000Y-47158000D01*
X68462000Y-48722000D02*
X68462000Y-47158000D01*
X71462000Y-48583000D02*
X71462000Y-47158000D01*
X71500000Y-48583000D02*
X71462000Y-48583000D01*
X71626000Y-48710000D02*
X71500000Y-48583000D01*
X48662000Y-48760000D02*
X48662000Y-47158000D01*
X42662000Y-48744000D02*
X42662000Y-47158000D01*
X45662000Y-48710000D02*
X45662000Y-47158000D01*
D56*
X54962000Y-15558000D02*
X54562000Y-15558000D01*
X54562000Y-15558000D02*
X54462000Y-15558000D01*
X78502000Y-40033000D02*
X78837000Y-40033000D01*
X78837000Y-40033000D02*
X78862000Y-40058000D01*
D57*
X63562000Y-30308000D02*
X63562000Y-30558000D01*
X63562000Y-30558000D02*
X63562000Y-30958000D01*
X12262000Y-52708000D02*
X12012000Y-52708000D01*
X12012000Y-52708000D02*
X9762000Y-52708000D01*
D56*
X55462000Y-14033000D02*
X55762000Y-14033000D01*
X55762000Y-14033000D02*
X55962000Y-14033000D01*
D57*
X80762000Y-8508000D02*
X80712000Y-8508000D01*
X78177000Y-9223000D02*
X76412000Y-9223000D01*
X78892000Y-8508000D02*
X78177000Y-9223000D01*
X80712000Y-8508000D02*
X78892000Y-8508000D01*
D56*
X20312000Y-23258000D02*
X19812000Y-23258000D01*
X19812000Y-24058000D02*
X19687000Y-24183000D01*
X19812000Y-23258000D02*
X19812000Y-24058000D01*
D57*
X73462000Y-29880000D02*
X73461600Y-29880000D01*
X72884000Y-29880000D02*
X72562000Y-29558000D01*
X73461600Y-29880000D02*
X72884000Y-29880000D01*
X73461600Y-29880000D02*
X73462000Y-29879600D01*
X80962000Y-29880000D02*
X80961600Y-29880000D01*
X80284000Y-29880000D02*
X80162000Y-29758000D01*
X80961600Y-29880000D02*
X80284000Y-29880000D01*
X80961600Y-29880000D02*
X80962000Y-29879600D01*
X9179500Y-45476000D02*
X11211500Y-45476000D01*
X9162000Y-45458000D02*
X9179500Y-45476000D01*
X11211500Y-45476000D02*
X11212000Y-45475500D01*
X17279500Y-44840000D02*
X15112500Y-44840000D01*
X17362000Y-44758000D02*
X17279500Y-44840000D01*
X15112500Y-44840000D02*
X15112000Y-44840500D01*
D58*
X9162000Y-23008000D02*
X9162000Y-18808000D01*
D57*
X6462000Y-49008000D02*
X6462000Y-47233000D01*
X4112000Y-47233000D02*
X6462000Y-47233000D01*
X3787300Y-46908000D02*
X4112000Y-47233000D01*
X2962000Y-46908000D02*
X3787300Y-46908000D01*
X11962000Y-48908000D02*
X9453900Y-48908000D01*
X11962000Y-50008000D02*
X11962000Y-48908000D01*
X7220800Y-47233000D02*
X6462000Y-47233000D01*
X8895800Y-48908000D02*
X7220800Y-47233000D01*
X9453900Y-48908000D02*
X8895800Y-48908000D01*
X15112000Y-45476000D02*
X15140600Y-45504500D01*
X15169200Y-45533000D02*
X18137900Y-45533000D01*
X15140600Y-45504500D02*
X15169200Y-45533000D01*
X15112000Y-45475900D02*
X15112000Y-45475500D01*
X15140600Y-45504500D02*
X15112000Y-45475900D01*
D56*
X30942000Y-30013000D02*
X30942000Y-31028000D01*
X30942000Y-31028000D02*
X30322000Y-31648000D01*
D57*
X39262000Y-26758000D02*
X39762000Y-26258000D01*
X79462000Y-48508000D02*
X79537000Y-48583000D01*
X79462000Y-47858000D02*
X79462000Y-48508000D01*
D56*
X19320000Y-23258000D02*
X18812000Y-23258000D01*
D57*
X79462000Y-47858000D02*
X79462000Y-47158000D01*
X53662000Y-49258000D02*
X53562000Y-49358000D01*
X53662000Y-47158000D02*
X53662000Y-49258000D01*
D56*
X30512000Y-24408000D02*
X30462000Y-24458000D01*
X31062000Y-24408000D02*
X30512000Y-24408000D01*
X32062000Y-21958000D02*
X32062000Y-20508000D01*
D57*
X23412000Y-6908000D02*
X23762000Y-6908000D01*
X23262000Y-7058000D02*
X23412000Y-6908000D01*
X13162000Y-15258000D02*
X12037000Y-15258000D01*
X13262000Y-15358000D02*
X13162000Y-15258000D01*
X17837000Y-16733000D02*
X18507000Y-16733000D01*
X17462000Y-16358000D02*
X17837000Y-16733000D01*
X22687000Y-16733000D02*
X21417000Y-16733000D01*
X22862000Y-16558000D02*
X22687000Y-16733000D01*
X29512000Y-48608000D02*
X29662000Y-48458000D01*
X29512000Y-49458000D02*
X29512000Y-48608000D01*
X35762000Y-26258000D02*
X36262000Y-26758000D01*
X63562000Y-29258000D02*
X63662000Y-29158000D01*
X63562000Y-29658000D02*
X63562000Y-29258000D01*
X29512000Y-49458000D02*
X29512000Y-52758000D01*
X76412000Y-12588000D02*
X76412000Y-11763000D01*
X76400000Y-12600000D02*
X76412000Y-12588000D01*
X80717000Y-11763000D02*
X80762000Y-11808000D01*
X76412000Y-11763000D02*
X80717000Y-11763000D01*
X76412000Y-11763000D02*
X76412000Y-10493000D01*
X18812000Y-23258000D02*
X17662000Y-23258000D01*
X79462000Y-47158000D02*
X79462000Y-47858000D01*
X45762000Y-7338000D02*
X45762000Y-7708000D01*
X45900000Y-7200000D02*
X45762000Y-7338000D01*
X34292000Y-7808000D02*
X34300000Y-7800000D01*
X33562000Y-7808000D02*
X34292000Y-7808000D01*
X66208000Y-19208000D02*
X67162000Y-19208000D01*
X66200000Y-19200000D02*
X66208000Y-19208000D01*
X66192000Y-11808000D02*
X67162000Y-11808000D01*
X66100000Y-11900000D02*
X66192000Y-11808000D01*
X71612000Y-20088000D02*
X71600000Y-20100000D01*
X71612000Y-19263000D02*
X71612000Y-20088000D01*
X69400000Y-17000000D02*
X69400000Y-19263000D01*
X70947000Y-15453000D02*
X69400000Y-17000000D01*
X71612000Y-15453000D02*
X70947000Y-15453000D01*
X71512000Y-12588000D02*
X71500000Y-12600000D01*
X71512000Y-11763000D02*
X71512000Y-12588000D01*
X69600000Y-9200000D02*
X69600000Y-11763000D01*
X70847000Y-7953000D02*
X69600000Y-9200000D01*
X71512000Y-7953000D02*
X70847000Y-7953000D01*
X71512000Y-11763000D02*
X69600000Y-11763000D01*
X67207000Y-11763000D02*
X67162000Y-11808000D01*
X69600000Y-11763000D02*
X67207000Y-11763000D01*
X71612000Y-19263000D02*
X69400000Y-19263000D01*
X67217000Y-19263000D02*
X67162000Y-19208000D01*
X69400000Y-19263000D02*
X67217000Y-19263000D01*
D56*
X51352000Y-20508000D02*
X51352000Y-20898000D01*
X53787000Y-22333000D02*
X68737000Y-22333000D01*
X68737000Y-22333000D02*
X71637000Y-25233000D01*
X71637000Y-25233000D02*
X78955800Y-25233000D01*
X78955800Y-25233000D02*
X80962000Y-23226800D01*
X51352000Y-20898000D02*
X52787000Y-22333000D01*
X52787000Y-22333000D02*
X53787000Y-22333000D01*
X50787000Y-20848000D02*
X50787000Y-23745000D01*
X50787000Y-23745000D02*
X51200000Y-24158000D01*
D57*
X73462000Y-23226800D02*
X72380800Y-23226800D01*
X60712000Y-21408000D02*
X55962000Y-16658000D01*
X70562000Y-21408000D02*
X60712000Y-21408000D01*
X72380800Y-23226800D02*
X70562000Y-21408000D01*
X73462000Y-23226800D02*
X74680800Y-23226800D01*
X74680800Y-23226800D02*
X75287000Y-23833000D01*
D56*
X78002000Y-39093000D02*
X78002000Y-40033000D01*
X78195000Y-38900000D02*
X78002000Y-39093000D01*
X81400000Y-38900000D02*
X78195000Y-38900000D01*
D57*
X56862000Y-13658000D02*
X56762000Y-13658000D01*
X57062000Y-13858000D02*
X56862000Y-13658000D01*
X51162000Y-24196000D02*
X51200000Y-24158000D01*
X51162000Y-27958000D02*
X51162000Y-24196000D01*
D56*
X55962000Y-15558000D02*
X55962000Y-16658000D01*
X56462000Y-13958000D02*
X56762000Y-13658000D01*
X56462000Y-14033000D02*
X56462000Y-13958000D01*
X54937000Y-14033000D02*
X54562000Y-13658000D01*
X54962000Y-14033000D02*
X54937000Y-14033000D01*
D57*
X55162000Y-42758000D02*
X55162000Y-43468000D01*
X49062000Y-42558000D02*
X49062000Y-42638000D01*
X53012000Y-38708000D02*
X53012000Y-38808000D01*
X52962000Y-38658000D02*
X53012000Y-38708000D01*
D56*
X26512000Y-11408000D02*
X26562000Y-11458000D01*
X23707000Y-11408000D02*
X26512000Y-11408000D01*
D57*
X58162000Y-28758000D02*
X58162000Y-29658000D01*
X57862000Y-28458000D02*
X58162000Y-28758000D01*
D56*
X42072000Y-22068000D02*
X42662000Y-22658000D01*
X42072000Y-22008000D02*
X42072000Y-22068000D01*
D58*
X80917000Y-19263000D02*
X80962000Y-19308000D01*
X76512000Y-19263000D02*
X80917000Y-19263000D01*
X76512000Y-17993000D02*
X76512000Y-19263000D01*
X76512000Y-20088000D02*
X76512000Y-19263000D01*
X76500000Y-20100000D02*
X76512000Y-20088000D01*
D57*
X48722000Y-42978000D02*
X49062000Y-42638000D01*
X47782000Y-42978000D02*
X48722000Y-42978000D01*
X49062000Y-42638000D02*
X49832000Y-41868000D01*
D56*
X8914500Y-44206000D02*
X8862000Y-44258000D01*
X8962000Y-44206000D02*
X8914500Y-44206000D01*
D58*
X76500000Y-20189000D02*
X74484000Y-22205000D01*
X76500000Y-20100000D02*
X76500000Y-20189000D01*
D56*
X11211500Y-44206000D02*
X8962000Y-44206000D01*
D57*
X80962000Y-23227000D02*
X80873000Y-23227000D01*
D56*
X53012000Y-39913000D02*
X53012000Y-38808000D01*
X53012000Y-38808000D02*
X52962000Y-38758000D01*
D58*
X80962000Y-19308000D02*
X80962000Y-23226800D01*
X80962000Y-23226800D02*
X80962000Y-23227000D01*
D57*
X74484000Y-22205000D02*
X73973000Y-22716000D01*
X73973000Y-22716000D02*
X73462000Y-23227000D01*
D58*
X74484000Y-22205000D02*
X73973000Y-22716000D01*
X73973000Y-22716000D02*
X73462000Y-23227000D01*
D57*
X73972800Y-22716000D02*
X73462000Y-23226800D01*
X73973000Y-22716000D02*
X73972800Y-22716000D01*
D56*
X11212000Y-44206000D02*
X11211800Y-44206000D01*
X11211800Y-44206000D02*
X11211500Y-44206000D01*
D57*
X11211500Y-44206000D02*
X11211800Y-44206000D01*
X11211800Y-44206000D02*
X11212000Y-44206000D01*
X11212000Y-44205800D02*
X11212000Y-44205500D01*
X11211800Y-44206000D02*
X11212000Y-44205800D01*
D56*
X78502000Y-42523000D02*
X78002000Y-42523000D01*
X76562000Y-41258000D02*
X75262000Y-42558000D01*
X78262000Y-41258000D02*
X76562000Y-41258000D01*
X78502000Y-41498000D02*
X78262000Y-41258000D01*
X78502000Y-42523000D02*
X78502000Y-41498000D01*
D58*
X76562000Y-41258000D02*
X76374000Y-41258000D01*
D56*
X52437000Y-19608000D02*
X53287000Y-20458000D01*
X51412000Y-19608000D02*
X52437000Y-19608000D01*
X51352000Y-19608000D02*
X51412000Y-19608000D01*
X51352000Y-19608000D02*
X51412000Y-19608000D01*
D58*
X9887000Y-16083000D02*
X9887000Y-15258000D01*
X9587600Y-16383000D02*
X9887000Y-16083000D01*
X9162000Y-16383000D02*
X9587600Y-16383000D01*
X9162000Y-17108000D02*
X9162000Y-16383000D01*
X8336700Y-17058000D02*
X5912000Y-17058000D01*
X8386700Y-17108000D02*
X8336700Y-17058000D01*
X9162000Y-17108000D02*
X8386700Y-17108000D01*
X10486700Y-12563000D02*
X11762000Y-12563000D01*
X10486700Y-13833000D02*
X10486700Y-12563000D01*
X9887000Y-14433000D02*
X10486700Y-13833000D01*
X9887000Y-15258000D02*
X9887000Y-14433000D01*
X4612000Y-18358000D02*
X5912000Y-17058000D01*
X4612000Y-20558000D02*
X4612000Y-18358000D01*
X11842500Y-51058000D02*
X11630400Y-51270000D01*
X13262000Y-51058000D02*
X11842500Y-51058000D01*
X13262000Y-50008000D02*
X13262000Y-51058000D01*
X17736500Y-48958000D02*
X17831800Y-49053000D01*
X12612000Y-48958000D02*
X17736500Y-48958000D01*
X12612000Y-50008000D02*
X12612000Y-48958000D01*
D56*
X52012000Y-38048000D02*
X52012000Y-39913000D01*
X49832000Y-40168000D02*
X49892000Y-40168000D01*
X49892000Y-40168000D02*
X52012000Y-38048000D01*
X37020700Y-36387000D02*
X35334700Y-38073000D01*
X41617500Y-36387000D02*
X37020700Y-36387000D01*
X50902000Y-36418000D02*
X50330000Y-35846000D01*
X50330000Y-35846000D02*
X42158500Y-35846000D01*
X42158500Y-35846000D02*
X41617500Y-36387000D01*
X50087000Y-39913000D02*
X49832000Y-40168000D01*
X52012000Y-39913000D02*
X52012000Y-39757000D01*
X50087000Y-39913000D02*
X49832000Y-40168000D01*
X50087000Y-39913000D02*
X49832000Y-40168000D01*
X77502000Y-38718000D02*
X77502000Y-40033000D01*
X78037000Y-38183000D02*
X77502000Y-38718000D01*
D58*
X47438700Y-44782000D02*
X68680000Y-44782000D01*
X45704000Y-43047000D02*
X47438700Y-44782000D01*
D56*
X76346000Y-38321000D02*
X74358000Y-38321000D01*
X77002000Y-38978000D02*
X76346000Y-38321000D01*
X77002000Y-40033000D02*
X77002000Y-38978000D01*
D58*
X40777900Y-30485000D02*
X37460300Y-33802000D01*
X52240000Y-30485000D02*
X40777900Y-30485000D01*
X54980000Y-27746000D02*
X52240000Y-30485000D01*
X58813000Y-27746000D02*
X54980000Y-27746000D01*
X59129000Y-28061000D02*
X58813000Y-27746000D01*
X71215000Y-28061000D02*
X59129000Y-28061000D01*
X70462000Y-45565000D02*
X70462000Y-47158000D01*
X62696000Y-37799000D02*
X70462000Y-45565000D01*
X53734000Y-37799000D02*
X62696000Y-37799000D01*
X53234000Y-37299000D02*
X53734000Y-37799000D01*
X47938200Y-37299000D02*
X53234000Y-37299000D01*
X46985600Y-36346000D02*
X47938200Y-37299000D01*
X42366000Y-36346000D02*
X46985600Y-36346000D01*
X41824800Y-36887000D02*
X42366000Y-36346000D01*
X37920000Y-36887000D02*
X41824800Y-36887000D01*
X36604400Y-38203000D02*
X37920000Y-36887000D01*
X66462000Y-47158000D02*
X66462000Y-48737000D01*
X39742100Y-33183000D02*
X39132300Y-33793000D01*
X50389000Y-33183000D02*
X39742100Y-33183000D01*
X67462000Y-45783000D02*
X67462000Y-47158000D01*
X61273000Y-45783000D02*
X67462000Y-45783000D01*
X59256000Y-47800000D02*
X61273000Y-45783000D01*
X57750000Y-47800000D02*
X59256000Y-47800000D01*
X38540800Y-37404000D02*
X37858700Y-38086000D01*
X42015400Y-37404000D02*
X38540800Y-37404000D01*
X42573300Y-36846000D02*
X42015400Y-37404000D01*
X46778300Y-36846000D02*
X42573300Y-36846000D01*
X47906000Y-37974000D02*
X46778300Y-36846000D01*
X49198800Y-37974000D02*
X47906000Y-37974000D01*
X42234000Y-38018000D02*
X42234000Y-38091000D01*
X42905700Y-37347000D02*
X42234000Y-38018000D01*
X46571000Y-37347000D02*
X42905700Y-37347000D01*
X48310200Y-39086000D02*
X46571000Y-37347000D01*
X48910800Y-39086000D02*
X48310200Y-39086000D01*
X52604000Y-49361000D02*
X52604000Y-49094000D01*
X55376000Y-52133000D02*
X52604000Y-49361000D01*
X69862000Y-52133000D02*
X55376000Y-52133000D01*
X73462000Y-48533000D02*
X69862000Y-52133000D01*
X73462000Y-47158000D02*
X73462000Y-48533000D01*
X39764700Y-38887000D02*
X40387000Y-38758000D01*
X35159400Y-38887000D02*
X39764700Y-38887000D01*
X34651500Y-38379000D02*
X35159400Y-38887000D01*
X34651500Y-37740000D02*
X34651500Y-38379000D01*
X36922200Y-35469000D02*
X34651500Y-37740000D01*
X40450800Y-35469000D02*
X36922200Y-35469000D01*
X40771500Y-35148000D02*
X40450800Y-35469000D01*
X52909000Y-35148000D02*
X40771500Y-35148000D01*
X55059000Y-37298000D02*
X52909000Y-35148000D01*
X63978000Y-37298000D02*
X55059000Y-37298000D01*
X72462000Y-45783000D02*
X63978000Y-37298000D01*
X72462000Y-47158000D02*
X72462000Y-45783000D01*
X69462000Y-45648000D02*
X69462000Y-47158000D01*
X69510000Y-45600000D02*
X69462000Y-45648000D01*
X39788600Y-34468000D02*
X39973200Y-34284000D01*
X38847900Y-34468000D02*
X39788600Y-34468000D01*
X38457000Y-34077000D02*
X38847900Y-34468000D01*
X38457000Y-33513000D02*
X38457000Y-34077000D01*
X39587100Y-32383000D02*
X38457000Y-33513000D01*
X51175000Y-32383000D02*
X39587100Y-32383000D01*
X54847000Y-28711000D02*
X51175000Y-32383000D01*
X56208000Y-28711000D02*
X54847000Y-28711000D01*
X31796000Y-42390000D02*
X31796000Y-42472000D01*
X30778800Y-41373000D02*
X31796000Y-42390000D01*
X23409300Y-41373000D02*
X30778800Y-41373000D01*
X21398300Y-39362000D02*
X23409300Y-41373000D01*
X21398300Y-38312000D02*
X21398300Y-39362000D01*
X22830700Y-36880000D02*
X21398300Y-38312000D01*
X34044900Y-36880000D02*
X22830700Y-36880000D01*
X35955800Y-34969000D02*
X34044900Y-36880000D01*
X40243500Y-34969000D02*
X35955800Y-34969000D01*
X40867300Y-34345000D02*
X40243500Y-34969000D01*
X50183000Y-34345000D02*
X40867300Y-34345000D01*
X51682000Y-32846000D02*
X50183000Y-34345000D01*
X56724000Y-32846000D02*
X51682000Y-32846000D01*
X56787000Y-32908000D02*
X56724000Y-32846000D01*
X58162000Y-32908000D02*
X56787000Y-32908000D01*
D56*
X52512000Y-39913000D02*
X52512000Y-40828000D01*
X52262000Y-41078000D02*
X47982000Y-41078000D01*
X52512000Y-40828000D02*
X52262000Y-41078000D01*
X47982000Y-41078000D02*
X47782000Y-41278000D01*
D58*
X47782000Y-40491000D02*
X47578000Y-40287000D01*
X47782000Y-41278000D02*
X47782000Y-40491000D01*
D56*
X47578000Y-40287000D02*
X47374000Y-40083000D01*
D58*
X40662000Y-45783000D02*
X40662000Y-47158000D01*
X26378500Y-45783000D02*
X40662000Y-45783000D01*
X58162000Y-33558000D02*
X52316000Y-33558000D01*
X43662000Y-45783000D02*
X43662000Y-47158000D01*
X42787000Y-44908000D02*
X43662000Y-45783000D01*
X24520400Y-44908000D02*
X42787000Y-44908000D01*
X23987200Y-45441000D02*
X24520400Y-44908000D01*
X22443500Y-45441000D02*
X23987200Y-45441000D01*
X20898000Y-43895000D02*
X22443500Y-45441000D01*
X20898000Y-38105000D02*
X20898000Y-43895000D01*
X22623400Y-36379000D02*
X20898000Y-38105000D01*
X24506600Y-36379000D02*
X22623400Y-36379000D01*
X26038800Y-34847000D02*
X24506600Y-36379000D01*
X22303300Y-38114000D02*
X26042400Y-38114000D01*
X21898600Y-38519000D02*
X22303300Y-38114000D01*
X21898600Y-39154000D02*
X21898600Y-38519000D01*
X22265600Y-39521000D02*
X21898600Y-39154000D01*
X31381500Y-39521000D02*
X22265600Y-39521000D01*
X34340300Y-42480000D02*
X31381500Y-39521000D01*
X36925400Y-46772000D02*
X36391100Y-46772000D01*
X39580100Y-49426000D02*
X36925400Y-46772000D01*
X43769000Y-49426000D02*
X39580100Y-49426000D01*
X44662000Y-48533000D02*
X43769000Y-49426000D01*
X44662000Y-47158000D02*
X44662000Y-48533000D01*
X41662000Y-45740000D02*
X41662000Y-47158000D01*
X41818400Y-45583000D02*
X41662000Y-45740000D01*
X46662000Y-45783000D02*
X46662000Y-47158000D01*
X44531900Y-43653000D02*
X46662000Y-45783000D01*
X22256500Y-43653000D02*
X44531900Y-43653000D01*
X47662000Y-45783000D02*
X47662000Y-47158000D01*
X47484300Y-45783000D02*
X47662000Y-45783000D01*
X41645200Y-39944000D02*
X47484300Y-45783000D01*
X33166200Y-39944000D02*
X41645200Y-39944000D01*
X32068700Y-38846000D02*
X33166200Y-39944000D01*
X22593500Y-38846000D02*
X32068700Y-38846000D01*
X7154800Y-7252000D02*
X6803300Y-7603000D01*
X8224200Y-7252000D02*
X7154800Y-7252000D01*
X15062000Y-38158000D02*
X15062000Y-39608000D01*
X15062000Y-38158000D02*
X9310000Y-38158000D01*
X12728300Y-1724300D02*
X7491500Y-1724300D01*
X14162000Y-3158000D02*
X12728300Y-1724300D01*
X11212500Y-44840000D02*
X11212000Y-44840000D01*
X13137300Y-44840000D02*
X11212500Y-44840000D01*
X13137300Y-47714000D02*
X13137300Y-44840000D01*
X13675000Y-48252000D02*
X13137300Y-47714000D01*
X20384400Y-48252000D02*
X13675000Y-48252000D01*
X20463800Y-48172000D02*
X20384400Y-48252000D01*
X11212500Y-44840000D02*
X11212000Y-44840500D01*
X21915600Y-5158000D02*
X22162000Y-5158000D01*
X20115100Y-6958000D02*
X21915600Y-5158000D01*
X16716500Y-6958000D02*
X20115100Y-6958000D01*
X14889400Y-8786000D02*
X16716500Y-6958000D01*
X11212500Y-42936000D02*
X11212000Y-42936000D01*
X13137300Y-42936000D02*
X11212500Y-42936000D01*
X13137300Y-42348000D02*
X13137300Y-42936000D01*
X11212500Y-42936000D02*
X11212000Y-42935500D01*
D56*
X54962000Y-15045500D02*
X52549500Y-15045500D01*
X48787000Y-18808000D02*
X48787000Y-19623000D01*
X52549500Y-15045500D02*
X48787000Y-18808000D01*
X26176700Y-14090000D02*
X26176700Y-14068300D01*
X26176700Y-14068300D02*
X26687000Y-13558000D01*
X26687000Y-13558000D02*
X42722000Y-13558000D01*
X42722000Y-13558000D02*
X48787000Y-19623000D01*
X48787000Y-19623000D02*
X49222000Y-20058000D01*
X49772000Y-20058000D02*
X49222000Y-20058000D01*
X22601700Y-10908000D02*
X23707000Y-10908000D01*
X22601700Y-13323000D02*
X22601700Y-10908000D01*
X23737400Y-14458000D02*
X22601700Y-13323000D01*
X25808000Y-14458000D02*
X23737400Y-14458000D01*
X26176700Y-14090000D02*
X25808000Y-14458000D01*
X34711000Y-20448000D02*
X40512000Y-20448000D01*
X29087400Y-14824000D02*
X34711000Y-20448000D01*
X29087400Y-14090000D02*
X29087400Y-14824000D01*
D58*
X29087400Y-14090000D02*
X26176700Y-14090000D01*
D56*
X54961500Y-15046000D02*
X54962000Y-15046000D01*
X54961500Y-15046000D02*
X54962000Y-15045500D01*
X55462000Y-15558000D02*
X55462000Y-15908000D01*
X53637000Y-17733000D02*
X51787000Y-17733000D01*
X55462000Y-15908000D02*
X53637000Y-17733000D01*
X41062000Y-20533000D02*
X41062000Y-19464600D01*
X50337000Y-18833000D02*
X50337000Y-19268000D01*
X50637000Y-18533000D02*
X50337000Y-18833000D01*
X50987000Y-18533000D02*
X50637000Y-18533000D01*
X51787000Y-17733000D02*
X50987000Y-18533000D01*
X46762000Y-18858000D02*
X47112000Y-19208000D01*
X41668600Y-18858000D02*
X46762000Y-18858000D01*
X41062000Y-19464600D02*
X41668600Y-18858000D01*
X26162000Y-9058000D02*
X26162000Y-5158000D01*
X24812300Y-10408000D02*
X26162000Y-9058000D01*
X23707000Y-10408000D02*
X24812300Y-10408000D01*
D58*
X41062000Y-20533000D02*
X41062000Y-19465000D01*
D56*
X34586700Y-19465000D02*
X29706900Y-14585000D01*
X41062000Y-19465000D02*
X34586700Y-19465000D01*
D58*
X25201000Y-17508000D02*
X26152400Y-16556000D01*
X20447000Y-17508000D02*
X25201000Y-17508000D01*
X20447000Y-18183000D02*
X20447000Y-17508000D01*
D56*
X42617000Y-25673000D02*
X42557000Y-25673000D01*
X42557000Y-25673000D02*
X41342000Y-24458000D01*
X49772000Y-20508000D02*
X49772000Y-22968000D01*
X42632000Y-25688000D02*
X42617000Y-25673000D01*
X42617000Y-25673000D02*
X42592000Y-25648000D01*
X47052000Y-25688000D02*
X42632000Y-25688000D01*
X49772000Y-22968000D02*
X47052000Y-25688000D01*
D58*
X13045800Y-13974000D02*
X16747500Y-17676000D01*
X32162000Y-3158000D02*
X30037400Y-1033400D01*
X30037400Y-1033400D02*
X7227200Y-1033400D01*
X7227200Y-1033400D02*
X6801000Y-1459600D01*
X6801000Y-1459600D02*
X6801000Y-2752000D01*
X6801000Y-2752000D02*
X8632900Y-4584000D01*
X8632900Y-4584000D02*
X8632900Y-5335000D01*
X8632900Y-5335000D02*
X10963100Y-7665000D01*
X10963100Y-7665000D02*
X12428300Y-7665000D01*
X12428300Y-7665000D02*
X13045800Y-8282000D01*
X13045800Y-8282000D02*
X13045800Y-13974000D01*
D56*
X49772000Y-20508000D02*
X49612000Y-20508000D01*
D58*
X33883500Y-5158000D02*
X25477300Y-13564000D01*
X34162000Y-5158000D02*
X33883500Y-5158000D01*
D56*
X23643100Y-22765000D02*
X24290800Y-22117000D01*
X21231500Y-22765000D02*
X23643100Y-22765000D01*
X21079600Y-22613000D02*
X21231500Y-22765000D01*
X20074600Y-22613000D02*
X21079600Y-22613000D01*
X19320000Y-21858000D02*
X20074600Y-22613000D01*
X19320000Y-21258000D02*
X19320000Y-21858000D01*
D58*
X41704700Y-19798000D02*
X41893800Y-19609000D01*
X41612000Y-19798000D02*
X41704700Y-19798000D01*
X41612000Y-20448000D02*
X41612000Y-19798000D01*
X35855300Y-1464700D02*
X34162000Y-3158000D01*
X48854200Y-1464700D02*
X35855300Y-1464700D01*
X50365000Y-2975700D02*
X48854200Y-1464700D01*
X50365000Y-3936200D02*
X50365000Y-2975700D01*
D56*
X57499000Y-15046000D02*
X56950000Y-15046000D01*
X58312000Y-14233000D02*
X57499000Y-15046000D01*
X58312000Y-12358000D02*
X58312000Y-14233000D01*
X58762000Y-11908000D02*
X58312000Y-12358000D01*
X56950000Y-15046000D02*
X56962000Y-15058000D01*
X56462000Y-15046000D02*
X56462500Y-15046000D01*
X56462500Y-15046000D02*
X56950000Y-15046000D01*
X56462500Y-15046000D02*
X56462000Y-15045500D01*
D58*
X48069100Y-8358000D02*
X49562000Y-8358000D01*
X48069100Y-8553000D02*
X48069100Y-8358000D01*
X48360400Y-8844000D02*
X48069100Y-8553000D01*
X48360400Y-9404000D02*
X48360400Y-8844000D01*
X47516200Y-10248000D02*
X48360400Y-9404000D01*
X42706200Y-10248000D02*
X47516200Y-10248000D01*
X38162000Y-5704000D02*
X42706200Y-10248000D01*
X38162000Y-5158000D02*
X38162000Y-5704000D01*
X48756200Y-9851000D02*
X45709500Y-12898000D01*
X50836000Y-9851000D02*
X48756200Y-9851000D01*
X51094000Y-9593000D02*
X50836000Y-9851000D01*
X51094000Y-6361000D02*
X51094000Y-9593000D01*
X52750000Y-4706000D02*
X51094000Y-6361000D01*
X53062000Y-9851000D02*
X53062000Y-8358000D01*
X51939000Y-9851000D02*
X53062000Y-9851000D01*
X48879800Y-12910000D02*
X51939000Y-9851000D01*
X58037000Y-31733000D02*
X58162000Y-31608000D01*
X55062000Y-31733000D02*
X58037000Y-31733000D01*
X51278000Y-12948000D02*
X49952100Y-12948000D01*
X55069000Y-9157000D02*
X51278000Y-12948000D01*
X55069000Y-8358000D02*
X55069000Y-9157000D01*
X56562000Y-8358000D02*
X55069000Y-8358000D01*
X60294000Y-32258000D02*
X58162000Y-32258000D01*
X43355000Y-1965000D02*
X42162000Y-3158000D01*
X48646900Y-1965000D02*
X43355000Y-1965000D01*
X49513600Y-2831700D02*
X48646900Y-1965000D01*
X49513600Y-4110600D02*
X49513600Y-2831700D01*
X50069500Y-4666000D02*
X49513600Y-4110600D01*
X51822000Y-4666000D02*
X50069500Y-4666000D01*
X52474000Y-4015100D02*
X51822000Y-4666000D01*
X56284000Y-4015100D02*
X52474000Y-4015100D01*
X33562000Y-9508000D02*
X33562000Y-10908700D01*
X33562000Y-10908700D02*
X33562000Y-10909000D01*
X33562000Y-12407000D02*
X33562300Y-12407000D01*
X34385400Y-12358000D02*
X37762000Y-12358000D01*
X34336100Y-12407000D02*
X34385400Y-12358000D01*
X33562300Y-12407000D02*
X34336100Y-12407000D01*
X33562300Y-12407000D02*
X33562000Y-12407300D01*
X60413000Y-1683200D02*
X59843000Y-1683200D01*
X60488000Y-1608700D02*
X60413000Y-1683200D01*
X61262000Y-1608700D02*
X60488000Y-1608700D01*
X65413000Y-1683200D02*
X65281000Y-1683200D01*
X65488000Y-1608700D02*
X65413000Y-1683200D01*
X66262000Y-1608700D02*
X65488000Y-1608700D01*
X71213000Y-1783700D02*
X69105000Y-1783700D01*
X71288000Y-1708700D02*
X71213000Y-1783700D01*
X72062000Y-1708700D02*
X71288000Y-1708700D01*
X27812000Y-49458000D02*
X25511300Y-49458000D01*
X15219200Y-43463000D02*
X15165600Y-43516500D01*
X19153500Y-43463000D02*
X15219200Y-43463000D01*
X24012700Y-48322000D02*
X19153500Y-43463000D01*
X24012700Y-49458000D02*
X24012700Y-48322000D01*
X15165600Y-43516500D02*
X15112000Y-43570000D01*
X15112000Y-43570100D02*
X15112000Y-43570500D01*
X15165600Y-43516500D02*
X15112000Y-43570100D01*
X27812000Y-52758000D02*
X25511300Y-52758000D01*
X15112000Y-44206000D02*
X15112500Y-44206000D01*
X24012700Y-51984000D02*
X24012700Y-52758000D01*
X23031300Y-51002000D02*
X24012700Y-51984000D01*
X23031300Y-48049000D02*
X23031300Y-51002000D01*
X18991700Y-44009000D02*
X23031300Y-48049000D01*
X17103100Y-44009000D02*
X18991700Y-44009000D01*
X16906700Y-44206000D02*
X17103100Y-44009000D01*
X15112500Y-44206000D02*
X16906700Y-44206000D01*
X15112500Y-44206000D02*
X15112000Y-44205500D01*
X76462000Y-45547000D02*
X76462000Y-47158000D01*
X64937000Y-34022000D02*
X76462000Y-45547000D01*
X64937000Y-33558000D02*
X64937000Y-34022000D01*
X63562000Y-33558000D02*
X64937000Y-33558000D01*
D56*
X77462000Y-48683000D02*
X77462000Y-48658000D01*
X76962000Y-49183000D02*
X77462000Y-48683000D01*
X77462000Y-48658000D02*
X77462000Y-47158000D01*
X79037000Y-50233000D02*
X77462000Y-48658000D01*
X79912000Y-50233000D02*
X79037000Y-50233000D01*
X80612000Y-49533000D02*
X79912000Y-50233000D01*
X80612000Y-46508000D02*
X80612000Y-49533000D01*
X77502000Y-43398000D02*
X80612000Y-46508000D01*
X77502000Y-42523000D02*
X77502000Y-43398000D01*
X77462000Y-48658000D02*
X77462000Y-47158000D01*
X77002000Y-44525000D02*
X77002000Y-42523000D01*
X77129000Y-44525000D02*
X77002000Y-44525000D01*
X78462000Y-45858000D02*
X77129000Y-44525000D01*
X78462000Y-47158000D02*
X78462000Y-45858000D01*
X77002000Y-44525000D02*
X76833000Y-44525000D01*
D58*
X73691000Y-44012000D02*
X71680000Y-44012000D01*
X75462000Y-45783000D02*
X73691000Y-44012000D01*
X75462000Y-47158000D02*
X75462000Y-45783000D01*
X63562000Y-32258000D02*
X65824000Y-32258000D01*
X52707000Y-52958000D02*
X66208000Y-52958000D01*
X50662000Y-50913000D02*
X52707000Y-52958000D01*
X50662000Y-47158000D02*
X50662000Y-50913000D01*
X62187000Y-33156000D02*
X60041000Y-35302000D01*
X62187000Y-32908000D02*
X62187000Y-33156000D01*
X63562000Y-32908000D02*
X62187000Y-32908000D01*
D56*
X52512000Y-42403000D02*
X52512000Y-43458000D01*
X52512000Y-43458000D02*
X52152000Y-43818000D01*
X50782000Y-43818000D02*
X50472000Y-44128000D01*
X52152000Y-43818000D02*
X50782000Y-43818000D01*
D58*
X51662000Y-47158000D02*
X51662000Y-50917000D01*
D56*
X52512000Y-42403000D02*
X52512000Y-43458000D01*
X52012000Y-42403000D02*
X50897000Y-42403000D01*
X50897000Y-42403000D02*
X49922000Y-43338000D01*
D58*
X55112000Y-46773000D02*
X55112000Y-48860000D01*
X54122000Y-45783000D02*
X55112000Y-46773000D01*
X52662000Y-45783000D02*
X54122000Y-45783000D01*
X52662000Y-47158000D02*
X52662000Y-45783000D01*
X59217000Y-45478000D02*
X59022000Y-45282000D01*
X59022000Y-45282000D02*
X50162000Y-45282000D01*
X50162000Y-45282000D02*
X49662000Y-45783000D01*
X49662000Y-45783000D02*
X49662000Y-47158000D01*
X57458000Y-36600000D02*
X55960000Y-36600000D01*
X62187000Y-31871000D02*
X57458000Y-36600000D01*
X62187000Y-31608000D02*
X62187000Y-31871000D01*
X63562000Y-31608000D02*
X62187000Y-31608000D01*
D56*
X31442000Y-29088000D02*
X24032000Y-29088000D01*
X24032000Y-29088000D02*
X23862000Y-29258000D01*
X23962000Y-29358000D02*
X23862000Y-29258000D01*
D58*
X38712000Y-10358000D02*
X39677200Y-10358000D01*
D56*
X20312000Y-21258000D02*
X23552000Y-21258000D01*
X30172000Y-21398000D02*
X31062000Y-20508000D01*
X23692000Y-21398000D02*
X30172000Y-21398000D01*
X23552000Y-21258000D02*
X23692000Y-21398000D01*
X31062000Y-20508000D02*
X31062000Y-21228000D01*
X20447000Y-15458000D02*
X20832000Y-15458000D01*
X20832000Y-15458000D02*
X20942000Y-15568000D01*
X21122000Y-21258000D02*
X20312000Y-21258000D01*
X21362000Y-21018000D02*
X21122000Y-21258000D01*
X18821800Y-11750000D02*
X18821800Y-13887800D01*
X20447000Y-15513000D02*
X20447000Y-15458000D01*
X20447000Y-15458000D02*
X20447000Y-16733000D01*
X18821800Y-13887800D02*
X20447000Y-15513000D01*
D58*
X17162000Y-11293000D02*
X18437300Y-11293000D01*
X18437300Y-11366000D02*
X18437300Y-11293000D01*
X18821800Y-11750000D02*
X18437300Y-11366000D01*
D56*
X18822300Y-10908000D02*
X21217000Y-10908000D01*
X18437300Y-11293000D02*
X18822300Y-10908000D01*
X21417000Y-18183000D02*
X21417000Y-19823000D01*
X21417000Y-19823000D02*
X21182000Y-20058000D01*
X31562000Y-20508000D02*
X31562000Y-19448000D01*
X19812000Y-20168000D02*
X19812000Y-21258000D01*
X19922000Y-20058000D02*
X19812000Y-20168000D01*
X22822000Y-20058000D02*
X21182000Y-20058000D01*
X21182000Y-20058000D02*
X19922000Y-20058000D01*
X23752000Y-19128000D02*
X22822000Y-20058000D01*
X31242000Y-19128000D02*
X23752000Y-19128000D01*
X31562000Y-19448000D02*
X31242000Y-19128000D01*
X19812000Y-20698000D02*
X19552000Y-20438000D01*
X18902000Y-20438000D02*
X19552000Y-20438000D01*
X18902000Y-20438000D02*
X18542000Y-20078000D01*
X15961700Y-10023000D02*
X17162000Y-10023000D01*
X18251700Y-15448000D02*
X15961700Y-13158000D01*
X15961700Y-13158000D02*
X15961700Y-10023000D01*
X19726700Y-10023000D02*
X17162000Y-10023000D01*
X20111700Y-10408000D02*
X19726700Y-10023000D01*
X21217000Y-10408000D02*
X20111700Y-10408000D01*
X23011700Y-8608000D02*
X23762000Y-8608000D01*
X23011700Y-9719000D02*
X23011700Y-8608000D01*
X22322300Y-10408000D02*
X23011700Y-9719000D01*
X21217000Y-10408000D02*
X22322300Y-10408000D01*
X19812000Y-20698000D02*
X19812000Y-21258000D01*
D58*
X56763000Y-30935000D02*
X56523000Y-30935000D01*
X56787000Y-30958000D02*
X56763000Y-30935000D01*
X58162000Y-30958000D02*
X56787000Y-30958000D01*
X47550600Y-12022000D02*
X47550600Y-12272000D01*
X48771000Y-10802000D02*
X47550600Y-12022000D01*
X47481600Y-9124000D02*
X47685100Y-9124000D01*
X46997300Y-9608000D02*
X47481600Y-9124000D01*
X45762000Y-9608000D02*
X46997300Y-9608000D01*
X11212000Y-43570000D02*
X11211500Y-43570000D01*
X9246800Y-43531000D02*
X6727500Y-43531000D01*
X9286700Y-43570000D02*
X9246800Y-43531000D01*
X11211500Y-43570000D02*
X9286700Y-43570000D01*
X11211500Y-43570000D02*
X11212000Y-43570500D01*
D56*
X53012000Y-42403000D02*
X53512000Y-42403000D01*
D58*
X53512000Y-43533000D02*
X54237000Y-43533000D01*
X53512000Y-42403000D02*
X53512000Y-43533000D01*
D56*
X21217000Y-11408000D02*
X21217000Y-11908000D01*
D58*
X19881500Y-11908000D02*
X21217000Y-11908000D01*
X42587300Y-21458000D02*
X41812000Y-21458000D01*
X43379000Y-22250000D02*
X42587300Y-21458000D01*
X43379000Y-23420000D02*
X43379000Y-22250000D01*
X42849000Y-23950000D02*
X43379000Y-23420000D01*
X6254200Y-10440000D02*
X6012000Y-10440000D01*
X7236700Y-9458000D02*
X6254200Y-10440000D01*
X8262000Y-9458000D02*
X7236700Y-9458000D01*
X9852300Y-10023000D02*
X11762000Y-10023000D01*
X9287300Y-9458000D02*
X9852300Y-10023000D01*
X8262000Y-9458000D02*
X9287300Y-9458000D01*
X9287300Y-12658000D02*
X8262000Y-12658000D01*
X10486700Y-11459000D02*
X9287300Y-12658000D01*
X10486700Y-11293000D02*
X10486700Y-11459000D01*
X11762000Y-11293000D02*
X10486700Y-11293000D01*
X7236700Y-12761000D02*
X6308200Y-13689000D01*
X7236700Y-12658000D02*
X7236700Y-12761000D01*
X8262000Y-12658000D02*
X7236700Y-12658000D01*
X39262000Y-29758000D02*
X40135100Y-29758000D01*
X15112000Y-47380000D02*
X15112500Y-47380000D01*
X17227000Y-47570000D02*
X18473400Y-47570000D01*
X17037300Y-47380000D02*
X17227000Y-47570000D01*
X15112500Y-47380000D02*
X17037300Y-47380000D01*
X15112500Y-47380000D02*
X15112000Y-47380500D01*
X11212000Y-47380000D02*
X11211500Y-47380000D01*
X9095400Y-47380000D02*
X9052400Y-47424000D01*
X11211500Y-47380000D02*
X9095400Y-47380000D01*
X11211500Y-47380000D02*
X11212000Y-47380500D01*
X54271000Y-30259000D02*
X54220000Y-30310000D01*
X58113000Y-30259000D02*
X54271000Y-30259000D01*
X58162000Y-30308000D02*
X58113000Y-30259000D01*
X1879700Y-44451000D02*
X6610300Y-44451000D01*
X1862000Y-44433000D02*
X1879700Y-44451000D01*
X1862000Y-43708000D02*
X1862000Y-44433000D01*
X11212000Y-46110000D02*
X11200600Y-46121500D01*
X11189200Y-46133000D02*
X8292600Y-46133000D01*
X11200600Y-46121500D02*
X11189200Y-46133000D01*
X11201000Y-46121500D02*
X11212000Y-46110500D01*
X11200600Y-46121500D02*
X11201000Y-46121500D01*
X11212000Y-46746000D02*
X11211500Y-46746000D01*
X8495300Y-47012000D02*
X8080900Y-47012000D01*
X8761800Y-46746000D02*
X8495300Y-47012000D01*
X11211500Y-46746000D02*
X8761800Y-46746000D01*
X11211500Y-46746000D02*
X11212000Y-46745500D01*
X15112000Y-42936000D02*
X15087000Y-42911000D01*
X15062000Y-42886000D02*
X15062000Y-41308000D01*
X15087000Y-42911000D02*
X15062000Y-42886000D01*
X15087500Y-42911000D02*
X15112000Y-42935500D01*
X15087000Y-42911000D02*
X15087500Y-42911000D01*
X41062000Y-22983000D02*
X41062000Y-22383000D01*
X40927000Y-23118000D02*
X41062000Y-22983000D01*
X40512000Y-23118000D02*
X40927000Y-23118000D01*
X40512000Y-22468000D02*
X40512000Y-23118000D01*
X18507000Y-18183000D02*
X19477000Y-18183000D01*
D56*
X39762000Y-27758000D02*
X39262000Y-27758000D01*
X40862000Y-26658000D02*
X39762000Y-27758000D01*
X40862000Y-25933000D02*
X40862000Y-26658000D01*
X39337000Y-24408000D02*
X40862000Y-25933000D01*
X33062000Y-24408000D02*
X39337000Y-24408000D01*
X32562000Y-24408000D02*
X32562000Y-26048000D01*
X30942000Y-27668000D02*
X30942000Y-28163000D01*
X32562000Y-26048000D02*
X30942000Y-27668000D01*
D58*
X17037300Y-46428000D02*
X20455300Y-46428000D01*
X15112000Y-46110000D02*
X15112500Y-46110000D01*
X17037300Y-46110000D02*
X17037300Y-46428000D01*
X15112500Y-46110000D02*
X17037300Y-46110000D01*
X15112500Y-46110000D02*
X15112000Y-46110500D01*
X15112500Y-46746000D02*
X15112000Y-46746000D01*
X17037300Y-46746000D02*
X15112500Y-46746000D01*
X17037300Y-46428000D02*
X17037300Y-46746000D01*
X15112500Y-46746000D02*
X15112000Y-46745500D01*
M02*
