%TF.GenerationSoftware,KiCad,Pcbnew,4.0.2-stable*%
%TF.CreationDate,2016-08-10T14:49:54+09:00*%
%TF.ProjectId,Shimonso-IoT-Type-R,5368696D6F6E736F2D496F542D547970,rev?*%
%TF.FileFunction,Soldermask,Bot*%
%FSLAX46Y46*%
G04 Gerber Fmt 4.6, Leading zero omitted, Abs format (unit mm)*
G04 Created by KiCad (PCBNEW 4.0.2-stable) date 2016年08月10日水曜日 14:49:54*
%MOMM*%
G01*
G04 APERTURE LIST*
%ADD10C,0.100000*%
G04 APERTURE END LIST*
D10*
G36*
X9871539Y-51839891D02*
X9871544Y-51839892D01*
X9871587Y-51839897D01*
X9973196Y-51871351D01*
X10066760Y-51921941D01*
X10148716Y-51989740D01*
X10215942Y-52072168D01*
X10265878Y-52166083D01*
X10296621Y-52267908D01*
X10307000Y-52373766D01*
X10307000Y-53042234D01*
X10306947Y-53049843D01*
X10295090Y-53155546D01*
X10262929Y-53256932D01*
X10211687Y-53350141D01*
X10143317Y-53431622D01*
X10060422Y-53498271D01*
X9966161Y-53547549D01*
X9864123Y-53577581D01*
X9864089Y-53577584D01*
X9864076Y-53577588D01*
X9758198Y-53587224D01*
X9652461Y-53576109D01*
X9652456Y-53576108D01*
X9652413Y-53576103D01*
X9550804Y-53544649D01*
X9457240Y-53494059D01*
X9375284Y-53426260D01*
X9308058Y-53343832D01*
X9258122Y-53249917D01*
X9227379Y-53148092D01*
X9217000Y-53042234D01*
X9217000Y-52373766D01*
X9217053Y-52366157D01*
X9228910Y-52260454D01*
X9261071Y-52159068D01*
X9312313Y-52065859D01*
X9380683Y-51984378D01*
X9463578Y-51917729D01*
X9557839Y-51868451D01*
X9659877Y-51838419D01*
X9659911Y-51838416D01*
X9659924Y-51838412D01*
X9765802Y-51828776D01*
X9871539Y-51839891D01*
X9871539Y-51839891D01*
G37*
G36*
X16871539Y-51839891D02*
X16871544Y-51839892D01*
X16871587Y-51839897D01*
X16973196Y-51871351D01*
X17066760Y-51921941D01*
X17148716Y-51989740D01*
X17215942Y-52072168D01*
X17265878Y-52166083D01*
X17296621Y-52267908D01*
X17307000Y-52373766D01*
X17307000Y-53042234D01*
X17306947Y-53049843D01*
X17295090Y-53155546D01*
X17262929Y-53256932D01*
X17211687Y-53350141D01*
X17143317Y-53431622D01*
X17060422Y-53498271D01*
X16966161Y-53547549D01*
X16864123Y-53577581D01*
X16864089Y-53577584D01*
X16864076Y-53577588D01*
X16758198Y-53587224D01*
X16652461Y-53576109D01*
X16652456Y-53576108D01*
X16652413Y-53576103D01*
X16550804Y-53544649D01*
X16457240Y-53494059D01*
X16375284Y-53426260D01*
X16308058Y-53343832D01*
X16258122Y-53249917D01*
X16227379Y-53148092D01*
X16217000Y-53042234D01*
X16217000Y-52373766D01*
X16217053Y-52366157D01*
X16228910Y-52260454D01*
X16261071Y-52159068D01*
X16312313Y-52065859D01*
X16380683Y-51984378D01*
X16463578Y-51917729D01*
X16557839Y-51868451D01*
X16659877Y-51838419D01*
X16659911Y-51838416D01*
X16659924Y-51838412D01*
X16765802Y-51828776D01*
X16871539Y-51839891D01*
X16871539Y-51839891D01*
G37*
G36*
X3579600Y-53475600D02*
X1144400Y-53475600D01*
X1144400Y-51040400D01*
X3579600Y-51040400D01*
X3579600Y-53475600D01*
X3579600Y-53475600D01*
G37*
G36*
X7462000Y-52758000D02*
X6462000Y-52758000D01*
X6462000Y-51858000D01*
X7462000Y-51858000D01*
X7462000Y-52758000D01*
X7462000Y-52758000D01*
G37*
G36*
X20262000Y-52358000D02*
X19262000Y-52358000D01*
X19262000Y-51458000D01*
X20262000Y-51458000D01*
X20262000Y-52358000D01*
X20262000Y-52358000D01*
G37*
G36*
X7462000Y-51058000D02*
X6462000Y-51058000D01*
X6462000Y-50158000D01*
X7462000Y-50158000D01*
X7462000Y-51058000D01*
X7462000Y-51058000D01*
G37*
G36*
X20262000Y-50658000D02*
X19262000Y-50658000D01*
X19262000Y-49758000D01*
X20262000Y-49758000D01*
X20262000Y-50658000D01*
X20262000Y-50658000D01*
G37*
G36*
X15919640Y-49433029D02*
X15923536Y-49433056D01*
X16035057Y-49445565D01*
X16142025Y-49479497D01*
X16240364Y-49533560D01*
X16326330Y-49605694D01*
X16396647Y-49693151D01*
X16448639Y-49792601D01*
X16480323Y-49900256D01*
X16480326Y-49900285D01*
X16480331Y-49900303D01*
X16490497Y-50012012D01*
X16478772Y-50123570D01*
X16478768Y-50123583D01*
X16478764Y-50123620D01*
X16445579Y-50230821D01*
X16392205Y-50329536D01*
X16320673Y-50416003D01*
X16233708Y-50486930D01*
X16134623Y-50539614D01*
X16027193Y-50572049D01*
X15915508Y-50583000D01*
X15608457Y-50583000D01*
X15604360Y-50582971D01*
X15600464Y-50582944D01*
X15488943Y-50570435D01*
X15381975Y-50536503D01*
X15283636Y-50482440D01*
X15197670Y-50410306D01*
X15127353Y-50322849D01*
X15075361Y-50223399D01*
X15043677Y-50115744D01*
X15043674Y-50115715D01*
X15043669Y-50115697D01*
X15033503Y-50003988D01*
X15045228Y-49892430D01*
X15045232Y-49892417D01*
X15045236Y-49892380D01*
X15078421Y-49785179D01*
X15131795Y-49686464D01*
X15203327Y-49599997D01*
X15290292Y-49529070D01*
X15389377Y-49476386D01*
X15496807Y-49443951D01*
X15608492Y-49433000D01*
X15915543Y-49433000D01*
X15919640Y-49433029D01*
X15919640Y-49433029D01*
G37*
G36*
X10919640Y-49433029D02*
X10923536Y-49433056D01*
X11035057Y-49445565D01*
X11142025Y-49479497D01*
X11240364Y-49533560D01*
X11326330Y-49605694D01*
X11396647Y-49693151D01*
X11448639Y-49792601D01*
X11480323Y-49900256D01*
X11480326Y-49900285D01*
X11480331Y-49900303D01*
X11490497Y-50012012D01*
X11478772Y-50123570D01*
X11478768Y-50123583D01*
X11478764Y-50123620D01*
X11445579Y-50230821D01*
X11392205Y-50329536D01*
X11320673Y-50416003D01*
X11233708Y-50486930D01*
X11134623Y-50539614D01*
X11027193Y-50572049D01*
X10915508Y-50583000D01*
X10608457Y-50583000D01*
X10604360Y-50582971D01*
X10600464Y-50582944D01*
X10488943Y-50570435D01*
X10381975Y-50536503D01*
X10283636Y-50482440D01*
X10197670Y-50410306D01*
X10127353Y-50322849D01*
X10075361Y-50223399D01*
X10043677Y-50115744D01*
X10043674Y-50115715D01*
X10043669Y-50115697D01*
X10033503Y-50003988D01*
X10045228Y-49892430D01*
X10045232Y-49892417D01*
X10045236Y-49892380D01*
X10078421Y-49785179D01*
X10131795Y-49686464D01*
X10203327Y-49599997D01*
X10290292Y-49529070D01*
X10389377Y-49476386D01*
X10496807Y-49443951D01*
X10608492Y-49433000D01*
X10915543Y-49433000D01*
X10919640Y-49433029D01*
X10919640Y-49433029D01*
G37*
G36*
X54062000Y-50458000D02*
X53162000Y-50458000D01*
X53162000Y-49458000D01*
X54062000Y-49458000D01*
X54062000Y-50458000D01*
X54062000Y-50458000D01*
G37*
G36*
X52362000Y-50458000D02*
X51462000Y-50458000D01*
X51462000Y-49458000D01*
X52362000Y-49458000D01*
X52362000Y-50458000D01*
X52362000Y-50458000D01*
G37*
G36*
X78322000Y-49988000D02*
X77422000Y-49988000D01*
X77422000Y-48988000D01*
X78322000Y-48988000D01*
X78322000Y-49988000D01*
X78322000Y-49988000D01*
G37*
G36*
X80022000Y-49988000D02*
X79122000Y-49988000D01*
X79122000Y-48988000D01*
X80022000Y-48988000D01*
X80022000Y-49988000D01*
X80022000Y-49988000D01*
G37*
G36*
X7462000Y-49858000D02*
X6462000Y-49858000D01*
X6462000Y-48958000D01*
X7462000Y-48958000D01*
X7462000Y-49858000D01*
X7462000Y-49858000D01*
G37*
G36*
X20262000Y-49458000D02*
X19262000Y-49458000D01*
X19262000Y-48558000D01*
X20262000Y-48558000D01*
X20262000Y-49458000D01*
X20262000Y-49458000D01*
G37*
G36*
X7462000Y-48158000D02*
X6462000Y-48158000D01*
X6462000Y-47258000D01*
X7462000Y-47258000D01*
X7462000Y-48158000D01*
X7462000Y-48158000D01*
G37*
G36*
X20262000Y-47758000D02*
X19262000Y-47758000D01*
X19262000Y-46858000D01*
X20262000Y-46858000D01*
X20262000Y-47758000D01*
X20262000Y-47758000D01*
G37*
G36*
X83962000Y-46958000D02*
X83062000Y-46958000D01*
X83062000Y-45958000D01*
X83962000Y-45958000D01*
X83962000Y-46958000D01*
X83962000Y-46958000D01*
G37*
G36*
X82262000Y-46958000D02*
X81362000Y-46958000D01*
X81362000Y-45958000D01*
X82262000Y-45958000D01*
X82262000Y-46958000D01*
X82262000Y-46958000D01*
G37*
G36*
X56262000Y-46958000D02*
X55362000Y-46958000D01*
X55362000Y-45958000D01*
X56262000Y-45958000D01*
X56262000Y-46958000D01*
X56262000Y-46958000D01*
G37*
G36*
X57962000Y-46958000D02*
X57062000Y-46958000D01*
X57062000Y-45958000D01*
X57962000Y-45958000D01*
X57962000Y-46958000D01*
X57962000Y-46958000D01*
G37*
G36*
X22562000Y-46858000D02*
X21562000Y-46858000D01*
X21562000Y-45958000D01*
X22562000Y-45958000D01*
X22562000Y-46858000D01*
X22562000Y-46858000D01*
G37*
G36*
X4862000Y-46458000D02*
X3962000Y-46458000D01*
X3962000Y-45458000D01*
X4862000Y-45458000D01*
X4862000Y-46458000D01*
X4862000Y-46458000D01*
G37*
G36*
X3162000Y-46458000D02*
X2262000Y-46458000D01*
X2262000Y-45458000D01*
X3162000Y-45458000D01*
X3162000Y-46458000D01*
X3162000Y-46458000D01*
G37*
G36*
X22562000Y-45158000D02*
X21562000Y-45158000D01*
X21562000Y-44258000D01*
X22562000Y-44258000D01*
X22562000Y-45158000D01*
X22562000Y-45158000D01*
G37*
G36*
X53262000Y-45158000D02*
X52362000Y-45158000D01*
X52362000Y-44158000D01*
X53262000Y-44158000D01*
X53262000Y-45158000D01*
X53262000Y-45158000D01*
G37*
G36*
X54962000Y-45158000D02*
X54062000Y-45158000D01*
X54062000Y-44158000D01*
X54962000Y-44158000D01*
X54962000Y-45158000D01*
X54962000Y-45158000D01*
G37*
G36*
X79902000Y-45098000D02*
X79002000Y-45098000D01*
X79002000Y-44098000D01*
X79902000Y-44098000D01*
X79902000Y-45098000D01*
X79902000Y-45098000D01*
G37*
G36*
X78202000Y-45098000D02*
X77302000Y-45098000D01*
X77302000Y-44098000D01*
X78202000Y-44098000D01*
X78202000Y-45098000D01*
X78202000Y-45098000D01*
G37*
G36*
X56762000Y-44258000D02*
X55862000Y-44258000D01*
X55862000Y-43258000D01*
X56762000Y-43258000D01*
X56762000Y-44258000D01*
X56762000Y-44258000D01*
G37*
G36*
X58462000Y-44258000D02*
X57562000Y-44258000D01*
X57562000Y-43258000D01*
X58462000Y-43258000D01*
X58462000Y-44258000D01*
X58462000Y-44258000D01*
G37*
G36*
X5879600Y-44175600D02*
X3444400Y-44175600D01*
X3444400Y-41740400D01*
X5879600Y-41740400D01*
X5879600Y-44175600D01*
X5879600Y-44175600D01*
G37*
G36*
X75062000Y-43658000D02*
X74162000Y-43658000D01*
X74162000Y-42658000D01*
X75062000Y-42658000D01*
X75062000Y-43658000D01*
X75062000Y-43658000D01*
G37*
G36*
X73362000Y-43658000D02*
X72462000Y-43658000D01*
X72462000Y-42658000D01*
X73362000Y-42658000D01*
X73362000Y-43658000D01*
X73362000Y-43658000D01*
G37*
G36*
X44862000Y-42008000D02*
X20962000Y-42008000D01*
X20962000Y-39808000D01*
X44862000Y-39808000D01*
X44862000Y-42008000D01*
X44862000Y-42008000D01*
G37*
G36*
X58462000Y-41858000D02*
X57562000Y-41858000D01*
X57562000Y-40858000D01*
X58462000Y-40858000D01*
X58462000Y-41858000D01*
X58462000Y-41858000D01*
G37*
G36*
X56762000Y-41858000D02*
X55862000Y-41858000D01*
X55862000Y-40858000D01*
X56762000Y-40858000D01*
X56762000Y-41858000D01*
X56762000Y-41858000D01*
G37*
G36*
X73462000Y-41158000D02*
X72562000Y-41158000D01*
X72562000Y-40158000D01*
X73462000Y-40158000D01*
X73462000Y-41158000D01*
X73462000Y-41158000D01*
G37*
G36*
X75162000Y-41158000D02*
X74262000Y-41158000D01*
X74262000Y-40158000D01*
X75162000Y-40158000D01*
X75162000Y-41158000D01*
X75162000Y-41158000D01*
G37*
G36*
X84362000Y-39458000D02*
X83462000Y-39458000D01*
X83462000Y-38458000D01*
X84362000Y-38458000D01*
X84362000Y-39458000D01*
X84362000Y-39458000D01*
G37*
G36*
X82662000Y-39458000D02*
X81762000Y-39458000D01*
X81762000Y-38458000D01*
X82662000Y-38458000D01*
X82662000Y-39458000D01*
X82662000Y-39458000D01*
G37*
G36*
X44862000Y-37608000D02*
X20962000Y-37608000D01*
X20962000Y-35408000D01*
X44862000Y-35408000D01*
X44862000Y-37608000D01*
X44862000Y-37608000D01*
G37*
G36*
X74362000Y-36958000D02*
X73362000Y-36958000D01*
X73362000Y-36058000D01*
X74362000Y-36058000D01*
X74362000Y-36958000D01*
X74362000Y-36958000D01*
G37*
G36*
X77262000Y-36858000D02*
X76262000Y-36858000D01*
X76262000Y-35958000D01*
X77262000Y-35958000D01*
X77262000Y-36858000D01*
X77262000Y-36858000D01*
G37*
G36*
X74362000Y-35258000D02*
X73362000Y-35258000D01*
X73362000Y-34358000D01*
X74362000Y-34358000D01*
X74362000Y-35258000D01*
X74362000Y-35258000D01*
G37*
G36*
X77262000Y-35158000D02*
X76262000Y-35158000D01*
X76262000Y-34258000D01*
X77262000Y-34258000D01*
X77262000Y-35158000D01*
X77262000Y-35158000D01*
G37*
G36*
X31662000Y-33258000D02*
X30762000Y-33258000D01*
X30762000Y-32258000D01*
X31662000Y-32258000D01*
X31662000Y-33258000D01*
X31662000Y-33258000D01*
G37*
G36*
X29962000Y-33258000D02*
X29062000Y-33258000D01*
X29062000Y-32258000D01*
X29962000Y-32258000D01*
X29962000Y-33258000D01*
X29962000Y-33258000D01*
G37*
G36*
X52762000Y-32258000D02*
X51862000Y-32258000D01*
X51862000Y-31258000D01*
X52762000Y-31258000D01*
X52762000Y-32258000D01*
X52762000Y-32258000D01*
G37*
G36*
X54462000Y-32258000D02*
X53562000Y-32258000D01*
X53562000Y-31258000D01*
X54462000Y-31258000D01*
X54462000Y-32258000D01*
X54462000Y-32258000D01*
G37*
G36*
X41762000Y-32058000D02*
X40762000Y-32058000D01*
X40762000Y-31158000D01*
X41762000Y-31158000D01*
X41762000Y-32058000D01*
X41762000Y-32058000D01*
G37*
G36*
X41762000Y-30358000D02*
X40762000Y-30358000D01*
X40762000Y-29458000D01*
X41762000Y-29458000D01*
X41762000Y-30358000D01*
X41762000Y-30358000D01*
G37*
G36*
X52762000Y-29858000D02*
X51862000Y-29858000D01*
X51862000Y-28858000D01*
X52762000Y-28858000D01*
X52762000Y-29858000D01*
X52762000Y-29858000D01*
G37*
G36*
X54462000Y-29858000D02*
X53562000Y-29858000D01*
X53562000Y-28858000D01*
X54462000Y-28858000D01*
X54462000Y-29858000D01*
X54462000Y-29858000D01*
G37*
G36*
X58262000Y-27858000D02*
X57362000Y-27858000D01*
X57362000Y-26858000D01*
X58262000Y-26858000D01*
X58262000Y-27858000D01*
X58262000Y-27858000D01*
G37*
G36*
X59962000Y-27858000D02*
X59062000Y-27858000D01*
X59062000Y-26858000D01*
X59962000Y-26858000D01*
X59962000Y-27858000D01*
X59962000Y-27858000D01*
G37*
G36*
X41562000Y-27658000D02*
X40662000Y-27658000D01*
X40662000Y-26658000D01*
X41562000Y-26658000D01*
X41562000Y-27658000D01*
X41562000Y-27658000D01*
G37*
G36*
X43262000Y-27658000D02*
X42362000Y-27658000D01*
X42362000Y-26658000D01*
X43262000Y-26658000D01*
X43262000Y-27658000D01*
X43262000Y-27658000D01*
G37*
G36*
X65762000Y-27458000D02*
X64862000Y-27458000D01*
X64862000Y-26458000D01*
X65762000Y-26458000D01*
X65762000Y-27458000D01*
X65762000Y-27458000D01*
G37*
G36*
X64062000Y-27458000D02*
X63162000Y-27458000D01*
X63162000Y-26458000D01*
X64062000Y-26458000D01*
X64062000Y-27458000D01*
X64062000Y-27458000D01*
G37*
G36*
X17362000Y-25558000D02*
X16362000Y-25558000D01*
X16362000Y-24658000D01*
X17362000Y-24658000D01*
X17362000Y-25558000D01*
X17362000Y-25558000D01*
G37*
G36*
X65762000Y-24558000D02*
X64862000Y-24558000D01*
X64862000Y-23558000D01*
X65762000Y-23558000D01*
X65762000Y-24558000D01*
X65762000Y-24558000D01*
G37*
G36*
X64062000Y-24558000D02*
X63162000Y-24558000D01*
X63162000Y-23558000D01*
X64062000Y-23558000D01*
X64062000Y-24558000D01*
X64062000Y-24558000D01*
G37*
G36*
X44462000Y-24458000D02*
X43562000Y-24458000D01*
X43562000Y-23458000D01*
X44462000Y-23458000D01*
X44462000Y-24458000D01*
X44462000Y-24458000D01*
G37*
G36*
X46162000Y-24458000D02*
X45262000Y-24458000D01*
X45262000Y-23458000D01*
X46162000Y-23458000D01*
X46162000Y-24458000D01*
X46162000Y-24458000D01*
G37*
G36*
X17362000Y-23858000D02*
X16362000Y-23858000D01*
X16362000Y-22958000D01*
X17362000Y-22958000D01*
X17362000Y-23858000D01*
X17362000Y-23858000D01*
G37*
G36*
X32462000Y-23058000D02*
X31562000Y-23058000D01*
X31562000Y-22058000D01*
X32462000Y-22058000D01*
X32462000Y-23058000D01*
X32462000Y-23058000D01*
G37*
G36*
X34162000Y-23058000D02*
X33262000Y-23058000D01*
X33262000Y-22058000D01*
X34162000Y-22058000D01*
X34162000Y-23058000D01*
X34162000Y-23058000D01*
G37*
G36*
X23362000Y-22758000D02*
X22362000Y-22758000D01*
X22362000Y-21858000D01*
X23362000Y-21858000D01*
X23362000Y-22758000D01*
X23362000Y-22758000D01*
G37*
G36*
X46062000Y-22158000D02*
X45162000Y-22158000D01*
X45162000Y-21158000D01*
X46062000Y-21158000D01*
X46062000Y-22158000D01*
X46062000Y-22158000D01*
G37*
G36*
X44362000Y-22158000D02*
X43462000Y-22158000D01*
X43462000Y-21158000D01*
X44362000Y-21158000D01*
X44362000Y-22158000D01*
X44362000Y-22158000D01*
G37*
G36*
X73862000Y-21658000D02*
X72962000Y-21658000D01*
X72962000Y-20658000D01*
X73862000Y-20658000D01*
X73862000Y-21658000D01*
X73862000Y-21658000D01*
G37*
G36*
X75262000Y-21658000D02*
X74362000Y-21658000D01*
X74362000Y-20658000D01*
X75262000Y-20658000D01*
X75262000Y-21658000D01*
X75262000Y-21658000D01*
G37*
G36*
X76962000Y-21658000D02*
X76062000Y-21658000D01*
X76062000Y-20658000D01*
X76962000Y-20658000D01*
X76962000Y-21658000D01*
X76962000Y-21658000D01*
G37*
G36*
X72162000Y-21658000D02*
X71262000Y-21658000D01*
X71262000Y-20658000D01*
X72162000Y-20658000D01*
X72162000Y-21658000D01*
X72162000Y-21658000D01*
G37*
G36*
X54662000Y-21158000D02*
X53762000Y-21158000D01*
X53762000Y-20158000D01*
X54662000Y-20158000D01*
X54662000Y-21158000D01*
X54662000Y-21158000D01*
G37*
G36*
X56362000Y-21158000D02*
X55462000Y-21158000D01*
X55462000Y-20158000D01*
X56362000Y-20158000D01*
X56362000Y-21158000D01*
X56362000Y-21158000D01*
G37*
G36*
X23362000Y-21058000D02*
X22362000Y-21058000D01*
X22362000Y-20158000D01*
X23362000Y-20158000D01*
X23362000Y-21058000D01*
X23362000Y-21058000D01*
G37*
G36*
X44362000Y-19658000D02*
X43362000Y-19658000D01*
X43362000Y-18758000D01*
X44362000Y-18758000D01*
X44362000Y-19658000D01*
X44362000Y-19658000D01*
G37*
G36*
X14762000Y-19258000D02*
X13862000Y-19258000D01*
X13862000Y-18258000D01*
X14762000Y-18258000D01*
X14762000Y-19258000D01*
X14762000Y-19258000D01*
G37*
G36*
X16462000Y-19258000D02*
X15562000Y-19258000D01*
X15562000Y-18258000D01*
X16462000Y-18258000D01*
X16462000Y-19258000D01*
X16462000Y-19258000D01*
G37*
G36*
X24562000Y-18358000D02*
X23562000Y-18358000D01*
X23562000Y-17458000D01*
X24562000Y-17458000D01*
X24562000Y-18358000D01*
X24562000Y-18358000D01*
G37*
G36*
X44362000Y-17958000D02*
X43362000Y-17958000D01*
X43362000Y-17058000D01*
X44362000Y-17058000D01*
X44362000Y-17958000D01*
X44362000Y-17958000D01*
G37*
G36*
X27662000Y-17158000D02*
X26662000Y-17158000D01*
X26662000Y-16258000D01*
X27662000Y-16258000D01*
X27662000Y-17158000D01*
X27662000Y-17158000D01*
G37*
G36*
X14762000Y-16858000D02*
X13862000Y-16858000D01*
X13862000Y-15858000D01*
X14762000Y-15858000D01*
X14762000Y-16858000D01*
X14762000Y-16858000D01*
G37*
G36*
X16462000Y-16858000D02*
X15562000Y-16858000D01*
X15562000Y-15858000D01*
X16462000Y-15858000D01*
X16462000Y-16858000D01*
X16462000Y-16858000D01*
G37*
G36*
X24562000Y-16658000D02*
X23562000Y-16658000D01*
X23562000Y-15758000D01*
X24562000Y-15758000D01*
X24562000Y-16658000D01*
X24562000Y-16658000D01*
G37*
G36*
X27662000Y-15458000D02*
X26662000Y-15458000D01*
X26662000Y-14558000D01*
X27662000Y-14558000D01*
X27662000Y-15458000D01*
X27662000Y-15458000D01*
G37*
G36*
X24162000Y-14858000D02*
X23262000Y-14858000D01*
X23262000Y-13858000D01*
X24162000Y-13858000D01*
X24162000Y-14858000D01*
X24162000Y-14858000D01*
G37*
G36*
X22462000Y-14858000D02*
X21562000Y-14858000D01*
X21562000Y-13858000D01*
X22462000Y-13858000D01*
X22462000Y-14858000D01*
X22462000Y-14858000D01*
G37*
G36*
X20562000Y-14758000D02*
X19662000Y-14758000D01*
X19662000Y-13758000D01*
X20562000Y-13758000D01*
X20562000Y-14758000D01*
X20562000Y-14758000D01*
G37*
G36*
X18862000Y-14758000D02*
X17962000Y-14758000D01*
X17962000Y-13758000D01*
X18862000Y-13758000D01*
X18862000Y-14758000D01*
X18862000Y-14758000D01*
G37*
G36*
X58562000Y-14758000D02*
X57662000Y-14758000D01*
X57662000Y-13758000D01*
X58562000Y-13758000D01*
X58562000Y-14758000D01*
X58562000Y-14758000D01*
G37*
G36*
X60262000Y-14758000D02*
X59362000Y-14758000D01*
X59362000Y-13758000D01*
X60262000Y-13758000D01*
X60262000Y-14758000D01*
X60262000Y-14758000D01*
G37*
G36*
X71962000Y-14058000D02*
X71062000Y-14058000D01*
X71062000Y-13058000D01*
X71962000Y-13058000D01*
X71962000Y-14058000D01*
X71962000Y-14058000D01*
G37*
G36*
X73662000Y-14058000D02*
X72762000Y-14058000D01*
X72762000Y-13058000D01*
X73662000Y-13058000D01*
X73662000Y-14058000D01*
X73662000Y-14058000D01*
G37*
G36*
X76862000Y-14058000D02*
X75962000Y-14058000D01*
X75962000Y-13058000D01*
X76862000Y-13058000D01*
X76862000Y-14058000D01*
X76862000Y-14058000D01*
G37*
G36*
X75162000Y-14058000D02*
X74262000Y-14058000D01*
X74262000Y-13058000D01*
X75162000Y-13058000D01*
X75162000Y-14058000D01*
X75162000Y-14058000D01*
G37*
G36*
X4762000Y-13158000D02*
X3862000Y-13158000D01*
X3862000Y-12158000D01*
X4762000Y-12158000D01*
X4762000Y-13158000D01*
X4762000Y-13158000D01*
G37*
G36*
X6462000Y-13158000D02*
X5562000Y-13158000D01*
X5562000Y-12158000D01*
X6462000Y-12158000D01*
X6462000Y-13158000D01*
X6462000Y-13158000D01*
G37*
G36*
X47142000Y-12098000D02*
X46242000Y-12098000D01*
X46242000Y-11098000D01*
X47142000Y-11098000D01*
X47142000Y-12098000D01*
X47142000Y-12098000D01*
G37*
G36*
X45442000Y-12098000D02*
X44542000Y-12098000D01*
X44542000Y-11098000D01*
X45442000Y-11098000D01*
X45442000Y-12098000D01*
X45442000Y-12098000D01*
G37*
G36*
X42452000Y-12098000D02*
X41552000Y-12098000D01*
X41552000Y-11098000D01*
X42452000Y-11098000D01*
X42452000Y-12098000D01*
X42452000Y-12098000D01*
G37*
G36*
X44152000Y-12098000D02*
X43252000Y-12098000D01*
X43252000Y-11098000D01*
X44152000Y-11098000D01*
X44152000Y-12098000D01*
X44152000Y-12098000D01*
G37*
G36*
X27962000Y-11958000D02*
X27062000Y-11958000D01*
X27062000Y-10958000D01*
X27962000Y-10958000D01*
X27962000Y-11958000D01*
X27962000Y-11958000D01*
G37*
G36*
X29662000Y-11958000D02*
X28762000Y-11958000D01*
X28762000Y-10958000D01*
X29662000Y-10958000D01*
X29662000Y-11958000D01*
X29662000Y-11958000D01*
G37*
G36*
X6462000Y-9958000D02*
X5562000Y-9958000D01*
X5562000Y-8958000D01*
X6462000Y-8958000D01*
X6462000Y-9958000D01*
X6462000Y-9958000D01*
G37*
G36*
X4762000Y-9958000D02*
X3862000Y-9958000D01*
X3862000Y-8958000D01*
X4762000Y-8958000D01*
X4762000Y-9958000D01*
X4762000Y-9958000D01*
G37*
G36*
X57779600Y-9575600D02*
X55344400Y-9575600D01*
X55344400Y-7140400D01*
X57779600Y-7140400D01*
X57779600Y-9575600D01*
X57779600Y-9575600D01*
G37*
G36*
X50779600Y-9575600D02*
X48344400Y-9575600D01*
X48344400Y-7140400D01*
X50779600Y-7140400D01*
X50779600Y-9575600D01*
X50779600Y-9575600D01*
G37*
G36*
X54279600Y-9575600D02*
X51844400Y-9575600D01*
X51844400Y-7140400D01*
X54279600Y-7140400D01*
X54279600Y-9575600D01*
X54279600Y-9575600D01*
G37*
G36*
X21062000Y-9058000D02*
X20062000Y-9058000D01*
X20062000Y-8158000D01*
X21062000Y-8158000D01*
X21062000Y-9058000D01*
X21062000Y-9058000D01*
G37*
G36*
X41662000Y-8558000D02*
X40762000Y-8558000D01*
X40762000Y-7558000D01*
X41662000Y-7558000D01*
X41662000Y-8558000D01*
X41662000Y-8558000D01*
G37*
G36*
X39962000Y-8558000D02*
X39062000Y-8558000D01*
X39062000Y-7558000D01*
X39962000Y-7558000D01*
X39962000Y-8558000D01*
X39962000Y-8558000D01*
G37*
G36*
X38362000Y-8558000D02*
X37462000Y-8558000D01*
X37462000Y-7558000D01*
X38362000Y-7558000D01*
X38362000Y-8558000D01*
X38362000Y-8558000D01*
G37*
G36*
X36662000Y-8558000D02*
X35762000Y-8558000D01*
X35762000Y-7558000D01*
X36662000Y-7558000D01*
X36662000Y-8558000D01*
X36662000Y-8558000D01*
G37*
G36*
X21062000Y-7358000D02*
X20062000Y-7358000D01*
X20062000Y-6458000D01*
X21062000Y-6458000D01*
X21062000Y-7358000D01*
X21062000Y-7358000D01*
G37*
G36*
X24256531Y-4258597D02*
X24429427Y-4294088D01*
X24592132Y-4362483D01*
X24738458Y-4461180D01*
X24862828Y-4586422D01*
X24960502Y-4733433D01*
X25027757Y-4896608D01*
X25061973Y-5069407D01*
X25061973Y-5069416D01*
X25062039Y-5069750D01*
X25059224Y-5271346D01*
X25059148Y-5271680D01*
X25059148Y-5271691D01*
X25020123Y-5443459D01*
X24948334Y-5604699D01*
X24846592Y-5748927D01*
X24718778Y-5870644D01*
X24569755Y-5965216D01*
X24405199Y-6029043D01*
X24231383Y-6059692D01*
X24054923Y-6055996D01*
X23882536Y-6018094D01*
X23720800Y-5947433D01*
X23575869Y-5846703D01*
X23453260Y-5719738D01*
X23357651Y-5571382D01*
X23292676Y-5407277D01*
X23260814Y-5233672D01*
X23263279Y-5057191D01*
X23299974Y-4884552D01*
X23369506Y-4722322D01*
X23469222Y-4576691D01*
X23595328Y-4453198D01*
X23743015Y-4356555D01*
X23906663Y-4290437D01*
X24080032Y-4257365D01*
X24256531Y-4258597D01*
X24256531Y-4258597D01*
G37*
G36*
X26256531Y-4258597D02*
X26429427Y-4294088D01*
X26592132Y-4362483D01*
X26738458Y-4461180D01*
X26862828Y-4586422D01*
X26960502Y-4733433D01*
X27027757Y-4896608D01*
X27061973Y-5069407D01*
X27061973Y-5069416D01*
X27062039Y-5069750D01*
X27059224Y-5271346D01*
X27059148Y-5271680D01*
X27059148Y-5271691D01*
X27020123Y-5443459D01*
X26948334Y-5604699D01*
X26846592Y-5748927D01*
X26718778Y-5870644D01*
X26569755Y-5965216D01*
X26405199Y-6029043D01*
X26231383Y-6059692D01*
X26054923Y-6055996D01*
X25882536Y-6018094D01*
X25720800Y-5947433D01*
X25575869Y-5846703D01*
X25453260Y-5719738D01*
X25357651Y-5571382D01*
X25292676Y-5407277D01*
X25260814Y-5233672D01*
X25263279Y-5057191D01*
X25299974Y-4884552D01*
X25369506Y-4722322D01*
X25469222Y-4576691D01*
X25595328Y-4453198D01*
X25743015Y-4356555D01*
X25906663Y-4290437D01*
X26080032Y-4257365D01*
X26256531Y-4258597D01*
X26256531Y-4258597D01*
G37*
G36*
X22256531Y-4258597D02*
X22429427Y-4294088D01*
X22592132Y-4362483D01*
X22738458Y-4461180D01*
X22862828Y-4586422D01*
X22960502Y-4733433D01*
X23027757Y-4896608D01*
X23061973Y-5069407D01*
X23061973Y-5069416D01*
X23062039Y-5069750D01*
X23059224Y-5271346D01*
X23059148Y-5271680D01*
X23059148Y-5271691D01*
X23020123Y-5443459D01*
X22948334Y-5604699D01*
X22846592Y-5748927D01*
X22718778Y-5870644D01*
X22569755Y-5965216D01*
X22405199Y-6029043D01*
X22231383Y-6059692D01*
X22054923Y-6055996D01*
X21882536Y-6018094D01*
X21720800Y-5947433D01*
X21575869Y-5846703D01*
X21453260Y-5719738D01*
X21357651Y-5571382D01*
X21292676Y-5407277D01*
X21260814Y-5233672D01*
X21263279Y-5057191D01*
X21299974Y-4884552D01*
X21369506Y-4722322D01*
X21469222Y-4576691D01*
X21595328Y-4453198D01*
X21743015Y-4356555D01*
X21906663Y-4290437D01*
X22080032Y-4257365D01*
X22256531Y-4258597D01*
X22256531Y-4258597D01*
G37*
G36*
X28256531Y-4258597D02*
X28429427Y-4294088D01*
X28592132Y-4362483D01*
X28738458Y-4461180D01*
X28862828Y-4586422D01*
X28960502Y-4733433D01*
X29027757Y-4896608D01*
X29061973Y-5069407D01*
X29061973Y-5069416D01*
X29062039Y-5069750D01*
X29059224Y-5271346D01*
X29059148Y-5271680D01*
X29059148Y-5271691D01*
X29020123Y-5443459D01*
X28948334Y-5604699D01*
X28846592Y-5748927D01*
X28718778Y-5870644D01*
X28569755Y-5965216D01*
X28405199Y-6029043D01*
X28231383Y-6059692D01*
X28054923Y-6055996D01*
X27882536Y-6018094D01*
X27720800Y-5947433D01*
X27575869Y-5846703D01*
X27453260Y-5719738D01*
X27357651Y-5571382D01*
X27292676Y-5407277D01*
X27260814Y-5233672D01*
X27263279Y-5057191D01*
X27299974Y-4884552D01*
X27369506Y-4722322D01*
X27469222Y-4576691D01*
X27595328Y-4453198D01*
X27743015Y-4356555D01*
X27906663Y-4290437D01*
X28080032Y-4257365D01*
X28256531Y-4258597D01*
X28256531Y-4258597D01*
G37*
G36*
X30256531Y-4258597D02*
X30429427Y-4294088D01*
X30592132Y-4362483D01*
X30738458Y-4461180D01*
X30862828Y-4586422D01*
X30960502Y-4733433D01*
X31027757Y-4896608D01*
X31061973Y-5069407D01*
X31061973Y-5069416D01*
X31062039Y-5069750D01*
X31059224Y-5271346D01*
X31059148Y-5271680D01*
X31059148Y-5271691D01*
X31020123Y-5443459D01*
X30948334Y-5604699D01*
X30846592Y-5748927D01*
X30718778Y-5870644D01*
X30569755Y-5965216D01*
X30405199Y-6029043D01*
X30231383Y-6059692D01*
X30054923Y-6055996D01*
X29882536Y-6018094D01*
X29720800Y-5947433D01*
X29575869Y-5846703D01*
X29453260Y-5719738D01*
X29357651Y-5571382D01*
X29292676Y-5407277D01*
X29260814Y-5233672D01*
X29263279Y-5057191D01*
X29299974Y-4884552D01*
X29369506Y-4722322D01*
X29469222Y-4576691D01*
X29595328Y-4453198D01*
X29743015Y-4356555D01*
X29906663Y-4290437D01*
X30080032Y-4257365D01*
X30256531Y-4258597D01*
X30256531Y-4258597D01*
G37*
G36*
X32256531Y-4258597D02*
X32429427Y-4294088D01*
X32592132Y-4362483D01*
X32738458Y-4461180D01*
X32862828Y-4586422D01*
X32960502Y-4733433D01*
X33027757Y-4896608D01*
X33061973Y-5069407D01*
X33061973Y-5069416D01*
X33062039Y-5069750D01*
X33059224Y-5271346D01*
X33059148Y-5271680D01*
X33059148Y-5271691D01*
X33020123Y-5443459D01*
X32948334Y-5604699D01*
X32846592Y-5748927D01*
X32718778Y-5870644D01*
X32569755Y-5965216D01*
X32405199Y-6029043D01*
X32231383Y-6059692D01*
X32054923Y-6055996D01*
X31882536Y-6018094D01*
X31720800Y-5947433D01*
X31575869Y-5846703D01*
X31453260Y-5719738D01*
X31357651Y-5571382D01*
X31292676Y-5407277D01*
X31260814Y-5233672D01*
X31263279Y-5057191D01*
X31299974Y-4884552D01*
X31369506Y-4722322D01*
X31469222Y-4576691D01*
X31595328Y-4453198D01*
X31743015Y-4356555D01*
X31906663Y-4290437D01*
X32080032Y-4257365D01*
X32256531Y-4258597D01*
X32256531Y-4258597D01*
G37*
G36*
X34256531Y-4258597D02*
X34429427Y-4294088D01*
X34592132Y-4362483D01*
X34738458Y-4461180D01*
X34862828Y-4586422D01*
X34960502Y-4733433D01*
X35027757Y-4896608D01*
X35061973Y-5069407D01*
X35061973Y-5069416D01*
X35062039Y-5069750D01*
X35059224Y-5271346D01*
X35059148Y-5271680D01*
X35059148Y-5271691D01*
X35020123Y-5443459D01*
X34948334Y-5604699D01*
X34846592Y-5748927D01*
X34718778Y-5870644D01*
X34569755Y-5965216D01*
X34405199Y-6029043D01*
X34231383Y-6059692D01*
X34054923Y-6055996D01*
X33882536Y-6018094D01*
X33720800Y-5947433D01*
X33575869Y-5846703D01*
X33453260Y-5719738D01*
X33357651Y-5571382D01*
X33292676Y-5407277D01*
X33260814Y-5233672D01*
X33263279Y-5057191D01*
X33299974Y-4884552D01*
X33369506Y-4722322D01*
X33469222Y-4576691D01*
X33595328Y-4453198D01*
X33743015Y-4356555D01*
X33906663Y-4290437D01*
X34080032Y-4257365D01*
X34256531Y-4258597D01*
X34256531Y-4258597D01*
G37*
G36*
X44256531Y-4258597D02*
X44429427Y-4294088D01*
X44592132Y-4362483D01*
X44738458Y-4461180D01*
X44862828Y-4586422D01*
X44960502Y-4733433D01*
X45027757Y-4896608D01*
X45061973Y-5069407D01*
X45061973Y-5069416D01*
X45062039Y-5069750D01*
X45059224Y-5271346D01*
X45059148Y-5271680D01*
X45059148Y-5271691D01*
X45020123Y-5443459D01*
X44948334Y-5604699D01*
X44846592Y-5748927D01*
X44718778Y-5870644D01*
X44569755Y-5965216D01*
X44405199Y-6029043D01*
X44231383Y-6059692D01*
X44054923Y-6055996D01*
X43882536Y-6018094D01*
X43720800Y-5947433D01*
X43575869Y-5846703D01*
X43453260Y-5719738D01*
X43357651Y-5571382D01*
X43292676Y-5407277D01*
X43260814Y-5233672D01*
X43263279Y-5057191D01*
X43299974Y-4884552D01*
X43369506Y-4722322D01*
X43469222Y-4576691D01*
X43595328Y-4453198D01*
X43743015Y-4356555D01*
X43906663Y-4290437D01*
X44080032Y-4257365D01*
X44256531Y-4258597D01*
X44256531Y-4258597D01*
G37*
G36*
X42256531Y-4258597D02*
X42429427Y-4294088D01*
X42592132Y-4362483D01*
X42738458Y-4461180D01*
X42862828Y-4586422D01*
X42960502Y-4733433D01*
X43027757Y-4896608D01*
X43061973Y-5069407D01*
X43061973Y-5069416D01*
X43062039Y-5069750D01*
X43059224Y-5271346D01*
X43059148Y-5271680D01*
X43059148Y-5271691D01*
X43020123Y-5443459D01*
X42948334Y-5604699D01*
X42846592Y-5748927D01*
X42718778Y-5870644D01*
X42569755Y-5965216D01*
X42405199Y-6029043D01*
X42231383Y-6059692D01*
X42054923Y-6055996D01*
X41882536Y-6018094D01*
X41720800Y-5947433D01*
X41575869Y-5846703D01*
X41453260Y-5719738D01*
X41357651Y-5571382D01*
X41292676Y-5407277D01*
X41260814Y-5233672D01*
X41263279Y-5057191D01*
X41299974Y-4884552D01*
X41369506Y-4722322D01*
X41469222Y-4576691D01*
X41595328Y-4453198D01*
X41743015Y-4356555D01*
X41906663Y-4290437D01*
X42080032Y-4257365D01*
X42256531Y-4258597D01*
X42256531Y-4258597D01*
G37*
G36*
X40256531Y-4258597D02*
X40429427Y-4294088D01*
X40592132Y-4362483D01*
X40738458Y-4461180D01*
X40862828Y-4586422D01*
X40960502Y-4733433D01*
X41027757Y-4896608D01*
X41061973Y-5069407D01*
X41061973Y-5069416D01*
X41062039Y-5069750D01*
X41059224Y-5271346D01*
X41059148Y-5271680D01*
X41059148Y-5271691D01*
X41020123Y-5443459D01*
X40948334Y-5604699D01*
X40846592Y-5748927D01*
X40718778Y-5870644D01*
X40569755Y-5965216D01*
X40405199Y-6029043D01*
X40231383Y-6059692D01*
X40054923Y-6055996D01*
X39882536Y-6018094D01*
X39720800Y-5947433D01*
X39575869Y-5846703D01*
X39453260Y-5719738D01*
X39357651Y-5571382D01*
X39292676Y-5407277D01*
X39260814Y-5233672D01*
X39263279Y-5057191D01*
X39299974Y-4884552D01*
X39369506Y-4722322D01*
X39469222Y-4576691D01*
X39595328Y-4453198D01*
X39743015Y-4356555D01*
X39906663Y-4290437D01*
X40080032Y-4257365D01*
X40256531Y-4258597D01*
X40256531Y-4258597D01*
G37*
G36*
X36256531Y-4258597D02*
X36429427Y-4294088D01*
X36592132Y-4362483D01*
X36738458Y-4461180D01*
X36862828Y-4586422D01*
X36960502Y-4733433D01*
X37027757Y-4896608D01*
X37061973Y-5069407D01*
X37061973Y-5069416D01*
X37062039Y-5069750D01*
X37059224Y-5271346D01*
X37059148Y-5271680D01*
X37059148Y-5271691D01*
X37020123Y-5443459D01*
X36948334Y-5604699D01*
X36846592Y-5748927D01*
X36718778Y-5870644D01*
X36569755Y-5965216D01*
X36405199Y-6029043D01*
X36231383Y-6059692D01*
X36054923Y-6055996D01*
X35882536Y-6018094D01*
X35720800Y-5947433D01*
X35575869Y-5846703D01*
X35453260Y-5719738D01*
X35357651Y-5571382D01*
X35292676Y-5407277D01*
X35260814Y-5233672D01*
X35263279Y-5057191D01*
X35299974Y-4884552D01*
X35369506Y-4722322D01*
X35469222Y-4576691D01*
X35595328Y-4453198D01*
X35743015Y-4356555D01*
X35906663Y-4290437D01*
X36080032Y-4257365D01*
X36256531Y-4258597D01*
X36256531Y-4258597D01*
G37*
G36*
X38256531Y-4258597D02*
X38429427Y-4294088D01*
X38592132Y-4362483D01*
X38738458Y-4461180D01*
X38862828Y-4586422D01*
X38960502Y-4733433D01*
X39027757Y-4896608D01*
X39061973Y-5069407D01*
X39061973Y-5069416D01*
X39062039Y-5069750D01*
X39059224Y-5271346D01*
X39059148Y-5271680D01*
X39059148Y-5271691D01*
X39020123Y-5443459D01*
X38948334Y-5604699D01*
X38846592Y-5748927D01*
X38718778Y-5870644D01*
X38569755Y-5965216D01*
X38405199Y-6029043D01*
X38231383Y-6059692D01*
X38054923Y-6055996D01*
X37882536Y-6018094D01*
X37720800Y-5947433D01*
X37575869Y-5846703D01*
X37453260Y-5719738D01*
X37357651Y-5571382D01*
X37292676Y-5407277D01*
X37260814Y-5233672D01*
X37263279Y-5057191D01*
X37299974Y-4884552D01*
X37369506Y-4722322D01*
X37469222Y-4576691D01*
X37595328Y-4453198D01*
X37743015Y-4356555D01*
X37906663Y-4290437D01*
X38080032Y-4257365D01*
X38256531Y-4258597D01*
X38256531Y-4258597D01*
G37*
G36*
X20256531Y-4258597D02*
X20429427Y-4294088D01*
X20592132Y-4362483D01*
X20738458Y-4461180D01*
X20862828Y-4586422D01*
X20960502Y-4733433D01*
X21027757Y-4896608D01*
X21061973Y-5069407D01*
X21061973Y-5069416D01*
X21062039Y-5069750D01*
X21059224Y-5271346D01*
X21059148Y-5271680D01*
X21059148Y-5271691D01*
X21020123Y-5443459D01*
X20948334Y-5604699D01*
X20846592Y-5748927D01*
X20718778Y-5870644D01*
X20569755Y-5965216D01*
X20405199Y-6029043D01*
X20231383Y-6059692D01*
X20054923Y-6055996D01*
X19882536Y-6018094D01*
X19720800Y-5947433D01*
X19575869Y-5846703D01*
X19453260Y-5719738D01*
X19357651Y-5571382D01*
X19292676Y-5407277D01*
X19260814Y-5233672D01*
X19263279Y-5057191D01*
X19299974Y-4884552D01*
X19369506Y-4722322D01*
X19469222Y-4576691D01*
X19595328Y-4453198D01*
X19743015Y-4356555D01*
X19906663Y-4290437D01*
X20080032Y-4257365D01*
X20256531Y-4258597D01*
X20256531Y-4258597D01*
G37*
G36*
X18256531Y-4258597D02*
X18429427Y-4294088D01*
X18592132Y-4362483D01*
X18738458Y-4461180D01*
X18862828Y-4586422D01*
X18960502Y-4733433D01*
X19027757Y-4896608D01*
X19061973Y-5069407D01*
X19061973Y-5069416D01*
X19062039Y-5069750D01*
X19059224Y-5271346D01*
X19059148Y-5271680D01*
X19059148Y-5271691D01*
X19020123Y-5443459D01*
X18948334Y-5604699D01*
X18846592Y-5748927D01*
X18718778Y-5870644D01*
X18569755Y-5965216D01*
X18405199Y-6029043D01*
X18231383Y-6059692D01*
X18054923Y-6055996D01*
X17882536Y-6018094D01*
X17720800Y-5947433D01*
X17575869Y-5846703D01*
X17453260Y-5719738D01*
X17357651Y-5571382D01*
X17292676Y-5407277D01*
X17260814Y-5233672D01*
X17263279Y-5057191D01*
X17299974Y-4884552D01*
X17369506Y-4722322D01*
X17469222Y-4576691D01*
X17595328Y-4453198D01*
X17743015Y-4356555D01*
X17906663Y-4290437D01*
X18080032Y-4257365D01*
X18256531Y-4258597D01*
X18256531Y-4258597D01*
G37*
G36*
X16256531Y-4258597D02*
X16429427Y-4294088D01*
X16592132Y-4362483D01*
X16738458Y-4461180D01*
X16862828Y-4586422D01*
X16960502Y-4733433D01*
X17027757Y-4896608D01*
X17061973Y-5069407D01*
X17061973Y-5069416D01*
X17062039Y-5069750D01*
X17059224Y-5271346D01*
X17059148Y-5271680D01*
X17059148Y-5271691D01*
X17020123Y-5443459D01*
X16948334Y-5604699D01*
X16846592Y-5748927D01*
X16718778Y-5870644D01*
X16569755Y-5965216D01*
X16405199Y-6029043D01*
X16231383Y-6059692D01*
X16054923Y-6055996D01*
X15882536Y-6018094D01*
X15720800Y-5947433D01*
X15575869Y-5846703D01*
X15453260Y-5719738D01*
X15357651Y-5571382D01*
X15292676Y-5407277D01*
X15260814Y-5233672D01*
X15263279Y-5057191D01*
X15299974Y-4884552D01*
X15369506Y-4722322D01*
X15469222Y-4576691D01*
X15595328Y-4453198D01*
X15743015Y-4356555D01*
X15906663Y-4290437D01*
X16080032Y-4257365D01*
X16256531Y-4258597D01*
X16256531Y-4258597D01*
G37*
G36*
X14256531Y-4258597D02*
X14429427Y-4294088D01*
X14592132Y-4362483D01*
X14738458Y-4461180D01*
X14862828Y-4586422D01*
X14960502Y-4733433D01*
X15027757Y-4896608D01*
X15061973Y-5069407D01*
X15061973Y-5069416D01*
X15062039Y-5069750D01*
X15059224Y-5271346D01*
X15059148Y-5271680D01*
X15059148Y-5271691D01*
X15020123Y-5443459D01*
X14948334Y-5604699D01*
X14846592Y-5748927D01*
X14718778Y-5870644D01*
X14569755Y-5965216D01*
X14405199Y-6029043D01*
X14231383Y-6059692D01*
X14054923Y-6055996D01*
X13882536Y-6018094D01*
X13720800Y-5947433D01*
X13575869Y-5846703D01*
X13453260Y-5719738D01*
X13357651Y-5571382D01*
X13292676Y-5407277D01*
X13260814Y-5233672D01*
X13263279Y-5057191D01*
X13299974Y-4884552D01*
X13369506Y-4722322D01*
X13469222Y-4576691D01*
X13595328Y-4453198D01*
X13743015Y-4356555D01*
X13906663Y-4290437D01*
X14080032Y-4257365D01*
X14256531Y-4258597D01*
X14256531Y-4258597D01*
G37*
G36*
X12256531Y-4258597D02*
X12429427Y-4294088D01*
X12592132Y-4362483D01*
X12738458Y-4461180D01*
X12862828Y-4586422D01*
X12960502Y-4733433D01*
X13027757Y-4896608D01*
X13061973Y-5069407D01*
X13061973Y-5069416D01*
X13062039Y-5069750D01*
X13059224Y-5271346D01*
X13059148Y-5271680D01*
X13059148Y-5271691D01*
X13020123Y-5443459D01*
X12948334Y-5604699D01*
X12846592Y-5748927D01*
X12718778Y-5870644D01*
X12569755Y-5965216D01*
X12405199Y-6029043D01*
X12231383Y-6059692D01*
X12054923Y-6055996D01*
X11882536Y-6018094D01*
X11720800Y-5947433D01*
X11575869Y-5846703D01*
X11453260Y-5719738D01*
X11357651Y-5571382D01*
X11292676Y-5407277D01*
X11260814Y-5233672D01*
X11263279Y-5057191D01*
X11299974Y-4884552D01*
X11369506Y-4722322D01*
X11469222Y-4576691D01*
X11595328Y-4453198D01*
X11743015Y-4356555D01*
X11906663Y-4290437D01*
X12080032Y-4257365D01*
X12256531Y-4258597D01*
X12256531Y-4258597D01*
G37*
G36*
X10256531Y-4258597D02*
X10429427Y-4294088D01*
X10592132Y-4362483D01*
X10738458Y-4461180D01*
X10862828Y-4586422D01*
X10960502Y-4733433D01*
X11027757Y-4896608D01*
X11061973Y-5069407D01*
X11061973Y-5069416D01*
X11062039Y-5069750D01*
X11059224Y-5271346D01*
X11059148Y-5271680D01*
X11059148Y-5271691D01*
X11020123Y-5443459D01*
X10948334Y-5604699D01*
X10846592Y-5748927D01*
X10718778Y-5870644D01*
X10569755Y-5965216D01*
X10405199Y-6029043D01*
X10231383Y-6059692D01*
X10054923Y-6055996D01*
X9882536Y-6018094D01*
X9720800Y-5947433D01*
X9575869Y-5846703D01*
X9453260Y-5719738D01*
X9357651Y-5571382D01*
X9292676Y-5407277D01*
X9260814Y-5233672D01*
X9263279Y-5057191D01*
X9299974Y-4884552D01*
X9369506Y-4722322D01*
X9469222Y-4576691D01*
X9595328Y-4453198D01*
X9743015Y-4356555D01*
X9906663Y-4290437D01*
X10080032Y-4257365D01*
X10256531Y-4258597D01*
X10256531Y-4258597D01*
G37*
G36*
X46256531Y-4258597D02*
X46429427Y-4294088D01*
X46592132Y-4362483D01*
X46738458Y-4461180D01*
X46862828Y-4586422D01*
X46960502Y-4733433D01*
X47027757Y-4896608D01*
X47061973Y-5069407D01*
X47061973Y-5069416D01*
X47062039Y-5069750D01*
X47059224Y-5271346D01*
X47059148Y-5271680D01*
X47059148Y-5271691D01*
X47020123Y-5443459D01*
X46948334Y-5604699D01*
X46846592Y-5748927D01*
X46718778Y-5870644D01*
X46569755Y-5965216D01*
X46405199Y-6029043D01*
X46231383Y-6059692D01*
X46054923Y-6055996D01*
X45882536Y-6018094D01*
X45720800Y-5947433D01*
X45575869Y-5846703D01*
X45453260Y-5719738D01*
X45357651Y-5571382D01*
X45292676Y-5407277D01*
X45260814Y-5233672D01*
X45263279Y-5057191D01*
X45299974Y-4884552D01*
X45369506Y-4722322D01*
X45469222Y-4576691D01*
X45595328Y-4453198D01*
X45743015Y-4356555D01*
X45906663Y-4290437D01*
X46080032Y-4257365D01*
X46256531Y-4258597D01*
X46256531Y-4258597D01*
G37*
G36*
X48256531Y-4258597D02*
X48429427Y-4294088D01*
X48592132Y-4362483D01*
X48738458Y-4461180D01*
X48862828Y-4586422D01*
X48960502Y-4733433D01*
X49027757Y-4896608D01*
X49061973Y-5069407D01*
X49061973Y-5069416D01*
X49062039Y-5069750D01*
X49059224Y-5271346D01*
X49059148Y-5271680D01*
X49059148Y-5271691D01*
X49020123Y-5443459D01*
X48948334Y-5604699D01*
X48846592Y-5748927D01*
X48718778Y-5870644D01*
X48569755Y-5965216D01*
X48405199Y-6029043D01*
X48231383Y-6059692D01*
X48054923Y-6055996D01*
X47882536Y-6018094D01*
X47720800Y-5947433D01*
X47575869Y-5846703D01*
X47453260Y-5719738D01*
X47357651Y-5571382D01*
X47292676Y-5407277D01*
X47260814Y-5233672D01*
X47263279Y-5057191D01*
X47299974Y-4884552D01*
X47369506Y-4722322D01*
X47469222Y-4576691D01*
X47595328Y-4453198D01*
X47743015Y-4356555D01*
X47906663Y-4290437D01*
X48080032Y-4257365D01*
X48256531Y-4258597D01*
X48256531Y-4258597D01*
G37*
G36*
X69962000Y-5658000D02*
X68962000Y-5658000D01*
X68962000Y-4758000D01*
X69962000Y-4758000D01*
X69962000Y-5658000D01*
X69962000Y-5658000D01*
G37*
G36*
X64762000Y-5558000D02*
X63762000Y-5558000D01*
X63762000Y-4658000D01*
X64762000Y-4658000D01*
X64762000Y-5558000D01*
X64762000Y-5558000D01*
G37*
G36*
X77479600Y-5275600D02*
X75044400Y-5275600D01*
X75044400Y-2840400D01*
X77479600Y-2840400D01*
X77479600Y-5275600D01*
X77479600Y-5275600D01*
G37*
G36*
X46256531Y-2258597D02*
X46429427Y-2294088D01*
X46592132Y-2362483D01*
X46738458Y-2461180D01*
X46862828Y-2586422D01*
X46960502Y-2733433D01*
X47027757Y-2896608D01*
X47061973Y-3069407D01*
X47061973Y-3069416D01*
X47062039Y-3069750D01*
X47059224Y-3271346D01*
X47059148Y-3271680D01*
X47059148Y-3271691D01*
X47020123Y-3443459D01*
X46948334Y-3604699D01*
X46846592Y-3748927D01*
X46718778Y-3870644D01*
X46569755Y-3965216D01*
X46405199Y-4029043D01*
X46231383Y-4059692D01*
X46054923Y-4055996D01*
X45882536Y-4018094D01*
X45720800Y-3947433D01*
X45575869Y-3846703D01*
X45453260Y-3719738D01*
X45357651Y-3571382D01*
X45292676Y-3407277D01*
X45260814Y-3233672D01*
X45263279Y-3057191D01*
X45299974Y-2884552D01*
X45369506Y-2722322D01*
X45469222Y-2576691D01*
X45595328Y-2453198D01*
X45743015Y-2356555D01*
X45906663Y-2290437D01*
X46080032Y-2257365D01*
X46256531Y-2258597D01*
X46256531Y-2258597D01*
G37*
G36*
X44256531Y-2258597D02*
X44429427Y-2294088D01*
X44592132Y-2362483D01*
X44738458Y-2461180D01*
X44862828Y-2586422D01*
X44960502Y-2733433D01*
X45027757Y-2896608D01*
X45061973Y-3069407D01*
X45061973Y-3069416D01*
X45062039Y-3069750D01*
X45059224Y-3271346D01*
X45059148Y-3271680D01*
X45059148Y-3271691D01*
X45020123Y-3443459D01*
X44948334Y-3604699D01*
X44846592Y-3748927D01*
X44718778Y-3870644D01*
X44569755Y-3965216D01*
X44405199Y-4029043D01*
X44231383Y-4059692D01*
X44054923Y-4055996D01*
X43882536Y-4018094D01*
X43720800Y-3947433D01*
X43575869Y-3846703D01*
X43453260Y-3719738D01*
X43357651Y-3571382D01*
X43292676Y-3407277D01*
X43260814Y-3233672D01*
X43263279Y-3057191D01*
X43299974Y-2884552D01*
X43369506Y-2722322D01*
X43469222Y-2576691D01*
X43595328Y-2453198D01*
X43743015Y-2356555D01*
X43906663Y-2290437D01*
X44080032Y-2257365D01*
X44256531Y-2258597D01*
X44256531Y-2258597D01*
G37*
G36*
X42256531Y-2258597D02*
X42429427Y-2294088D01*
X42592132Y-2362483D01*
X42738458Y-2461180D01*
X42862828Y-2586422D01*
X42960502Y-2733433D01*
X43027757Y-2896608D01*
X43061973Y-3069407D01*
X43061973Y-3069416D01*
X43062039Y-3069750D01*
X43059224Y-3271346D01*
X43059148Y-3271680D01*
X43059148Y-3271691D01*
X43020123Y-3443459D01*
X42948334Y-3604699D01*
X42846592Y-3748927D01*
X42718778Y-3870644D01*
X42569755Y-3965216D01*
X42405199Y-4029043D01*
X42231383Y-4059692D01*
X42054923Y-4055996D01*
X41882536Y-4018094D01*
X41720800Y-3947433D01*
X41575869Y-3846703D01*
X41453260Y-3719738D01*
X41357651Y-3571382D01*
X41292676Y-3407277D01*
X41260814Y-3233672D01*
X41263279Y-3057191D01*
X41299974Y-2884552D01*
X41369506Y-2722322D01*
X41469222Y-2576691D01*
X41595328Y-2453198D01*
X41743015Y-2356555D01*
X41906663Y-2290437D01*
X42080032Y-2257365D01*
X42256531Y-2258597D01*
X42256531Y-2258597D01*
G37*
G36*
X40256531Y-2258597D02*
X40429427Y-2294088D01*
X40592132Y-2362483D01*
X40738458Y-2461180D01*
X40862828Y-2586422D01*
X40960502Y-2733433D01*
X41027757Y-2896608D01*
X41061973Y-3069407D01*
X41061973Y-3069416D01*
X41062039Y-3069750D01*
X41059224Y-3271346D01*
X41059148Y-3271680D01*
X41059148Y-3271691D01*
X41020123Y-3443459D01*
X40948334Y-3604699D01*
X40846592Y-3748927D01*
X40718778Y-3870644D01*
X40569755Y-3965216D01*
X40405199Y-4029043D01*
X40231383Y-4059692D01*
X40054923Y-4055996D01*
X39882536Y-4018094D01*
X39720800Y-3947433D01*
X39575869Y-3846703D01*
X39453260Y-3719738D01*
X39357651Y-3571382D01*
X39292676Y-3407277D01*
X39260814Y-3233672D01*
X39263279Y-3057191D01*
X39299974Y-2884552D01*
X39369506Y-2722322D01*
X39469222Y-2576691D01*
X39595328Y-2453198D01*
X39743015Y-2356555D01*
X39906663Y-2290437D01*
X40080032Y-2257365D01*
X40256531Y-2258597D01*
X40256531Y-2258597D01*
G37*
G36*
X38256531Y-2258597D02*
X38429427Y-2294088D01*
X38592132Y-2362483D01*
X38738458Y-2461180D01*
X38862828Y-2586422D01*
X38960502Y-2733433D01*
X39027757Y-2896608D01*
X39061973Y-3069407D01*
X39061973Y-3069416D01*
X39062039Y-3069750D01*
X39059224Y-3271346D01*
X39059148Y-3271680D01*
X39059148Y-3271691D01*
X39020123Y-3443459D01*
X38948334Y-3604699D01*
X38846592Y-3748927D01*
X38718778Y-3870644D01*
X38569755Y-3965216D01*
X38405199Y-4029043D01*
X38231383Y-4059692D01*
X38054923Y-4055996D01*
X37882536Y-4018094D01*
X37720800Y-3947433D01*
X37575869Y-3846703D01*
X37453260Y-3719738D01*
X37357651Y-3571382D01*
X37292676Y-3407277D01*
X37260814Y-3233672D01*
X37263279Y-3057191D01*
X37299974Y-2884552D01*
X37369506Y-2722322D01*
X37469222Y-2576691D01*
X37595328Y-2453198D01*
X37743015Y-2356555D01*
X37906663Y-2290437D01*
X38080032Y-2257365D01*
X38256531Y-2258597D01*
X38256531Y-2258597D01*
G37*
G36*
X36256531Y-2258597D02*
X36429427Y-2294088D01*
X36592132Y-2362483D01*
X36738458Y-2461180D01*
X36862828Y-2586422D01*
X36960502Y-2733433D01*
X37027757Y-2896608D01*
X37061973Y-3069407D01*
X37061973Y-3069416D01*
X37062039Y-3069750D01*
X37059224Y-3271346D01*
X37059148Y-3271680D01*
X37059148Y-3271691D01*
X37020123Y-3443459D01*
X36948334Y-3604699D01*
X36846592Y-3748927D01*
X36718778Y-3870644D01*
X36569755Y-3965216D01*
X36405199Y-4029043D01*
X36231383Y-4059692D01*
X36054923Y-4055996D01*
X35882536Y-4018094D01*
X35720800Y-3947433D01*
X35575869Y-3846703D01*
X35453260Y-3719738D01*
X35357651Y-3571382D01*
X35292676Y-3407277D01*
X35260814Y-3233672D01*
X35263279Y-3057191D01*
X35299974Y-2884552D01*
X35369506Y-2722322D01*
X35469222Y-2576691D01*
X35595328Y-2453198D01*
X35743015Y-2356555D01*
X35906663Y-2290437D01*
X36080032Y-2257365D01*
X36256531Y-2258597D01*
X36256531Y-2258597D01*
G37*
G36*
X34256531Y-2258597D02*
X34429427Y-2294088D01*
X34592132Y-2362483D01*
X34738458Y-2461180D01*
X34862828Y-2586422D01*
X34960502Y-2733433D01*
X35027757Y-2896608D01*
X35061973Y-3069407D01*
X35061973Y-3069416D01*
X35062039Y-3069750D01*
X35059224Y-3271346D01*
X35059148Y-3271680D01*
X35059148Y-3271691D01*
X35020123Y-3443459D01*
X34948334Y-3604699D01*
X34846592Y-3748927D01*
X34718778Y-3870644D01*
X34569755Y-3965216D01*
X34405199Y-4029043D01*
X34231383Y-4059692D01*
X34054923Y-4055996D01*
X33882536Y-4018094D01*
X33720800Y-3947433D01*
X33575869Y-3846703D01*
X33453260Y-3719738D01*
X33357651Y-3571382D01*
X33292676Y-3407277D01*
X33260814Y-3233672D01*
X33263279Y-3057191D01*
X33299974Y-2884552D01*
X33369506Y-2722322D01*
X33469222Y-2576691D01*
X33595328Y-2453198D01*
X33743015Y-2356555D01*
X33906663Y-2290437D01*
X34080032Y-2257365D01*
X34256531Y-2258597D01*
X34256531Y-2258597D01*
G37*
G36*
X32256531Y-2258597D02*
X32429427Y-2294088D01*
X32592132Y-2362483D01*
X32738458Y-2461180D01*
X32862828Y-2586422D01*
X32960502Y-2733433D01*
X33027757Y-2896608D01*
X33061973Y-3069407D01*
X33061973Y-3069416D01*
X33062039Y-3069750D01*
X33059224Y-3271346D01*
X33059148Y-3271680D01*
X33059148Y-3271691D01*
X33020123Y-3443459D01*
X32948334Y-3604699D01*
X32846592Y-3748927D01*
X32718778Y-3870644D01*
X32569755Y-3965216D01*
X32405199Y-4029043D01*
X32231383Y-4059692D01*
X32054923Y-4055996D01*
X31882536Y-4018094D01*
X31720800Y-3947433D01*
X31575869Y-3846703D01*
X31453260Y-3719738D01*
X31357651Y-3571382D01*
X31292676Y-3407277D01*
X31260814Y-3233672D01*
X31263279Y-3057191D01*
X31299974Y-2884552D01*
X31369506Y-2722322D01*
X31469222Y-2576691D01*
X31595328Y-2453198D01*
X31743015Y-2356555D01*
X31906663Y-2290437D01*
X32080032Y-2257365D01*
X32256531Y-2258597D01*
X32256531Y-2258597D01*
G37*
G36*
X30256531Y-2258597D02*
X30429427Y-2294088D01*
X30592132Y-2362483D01*
X30738458Y-2461180D01*
X30862828Y-2586422D01*
X30960502Y-2733433D01*
X31027757Y-2896608D01*
X31061973Y-3069407D01*
X31061973Y-3069416D01*
X31062039Y-3069750D01*
X31059224Y-3271346D01*
X31059148Y-3271680D01*
X31059148Y-3271691D01*
X31020123Y-3443459D01*
X30948334Y-3604699D01*
X30846592Y-3748927D01*
X30718778Y-3870644D01*
X30569755Y-3965216D01*
X30405199Y-4029043D01*
X30231383Y-4059692D01*
X30054923Y-4055996D01*
X29882536Y-4018094D01*
X29720800Y-3947433D01*
X29575869Y-3846703D01*
X29453260Y-3719738D01*
X29357651Y-3571382D01*
X29292676Y-3407277D01*
X29260814Y-3233672D01*
X29263279Y-3057191D01*
X29299974Y-2884552D01*
X29369506Y-2722322D01*
X29469222Y-2576691D01*
X29595328Y-2453198D01*
X29743015Y-2356555D01*
X29906663Y-2290437D01*
X30080032Y-2257365D01*
X30256531Y-2258597D01*
X30256531Y-2258597D01*
G37*
G36*
X28256531Y-2258597D02*
X28429427Y-2294088D01*
X28592132Y-2362483D01*
X28738458Y-2461180D01*
X28862828Y-2586422D01*
X28960502Y-2733433D01*
X29027757Y-2896608D01*
X29061973Y-3069407D01*
X29061973Y-3069416D01*
X29062039Y-3069750D01*
X29059224Y-3271346D01*
X29059148Y-3271680D01*
X29059148Y-3271691D01*
X29020123Y-3443459D01*
X28948334Y-3604699D01*
X28846592Y-3748927D01*
X28718778Y-3870644D01*
X28569755Y-3965216D01*
X28405199Y-4029043D01*
X28231383Y-4059692D01*
X28054923Y-4055996D01*
X27882536Y-4018094D01*
X27720800Y-3947433D01*
X27575869Y-3846703D01*
X27453260Y-3719738D01*
X27357651Y-3571382D01*
X27292676Y-3407277D01*
X27260814Y-3233672D01*
X27263279Y-3057191D01*
X27299974Y-2884552D01*
X27369506Y-2722322D01*
X27469222Y-2576691D01*
X27595328Y-2453198D01*
X27743015Y-2356555D01*
X27906663Y-2290437D01*
X28080032Y-2257365D01*
X28256531Y-2258597D01*
X28256531Y-2258597D01*
G37*
G36*
X26256531Y-2258597D02*
X26429427Y-2294088D01*
X26592132Y-2362483D01*
X26738458Y-2461180D01*
X26862828Y-2586422D01*
X26960502Y-2733433D01*
X27027757Y-2896608D01*
X27061973Y-3069407D01*
X27061973Y-3069416D01*
X27062039Y-3069750D01*
X27059224Y-3271346D01*
X27059148Y-3271680D01*
X27059148Y-3271691D01*
X27020123Y-3443459D01*
X26948334Y-3604699D01*
X26846592Y-3748927D01*
X26718778Y-3870644D01*
X26569755Y-3965216D01*
X26405199Y-4029043D01*
X26231383Y-4059692D01*
X26054923Y-4055996D01*
X25882536Y-4018094D01*
X25720800Y-3947433D01*
X25575869Y-3846703D01*
X25453260Y-3719738D01*
X25357651Y-3571382D01*
X25292676Y-3407277D01*
X25260814Y-3233672D01*
X25263279Y-3057191D01*
X25299974Y-2884552D01*
X25369506Y-2722322D01*
X25469222Y-2576691D01*
X25595328Y-2453198D01*
X25743015Y-2356555D01*
X25906663Y-2290437D01*
X26080032Y-2257365D01*
X26256531Y-2258597D01*
X26256531Y-2258597D01*
G37*
G36*
X24256531Y-2258597D02*
X24429427Y-2294088D01*
X24592132Y-2362483D01*
X24738458Y-2461180D01*
X24862828Y-2586422D01*
X24960502Y-2733433D01*
X25027757Y-2896608D01*
X25061973Y-3069407D01*
X25061973Y-3069416D01*
X25062039Y-3069750D01*
X25059224Y-3271346D01*
X25059148Y-3271680D01*
X25059148Y-3271691D01*
X25020123Y-3443459D01*
X24948334Y-3604699D01*
X24846592Y-3748927D01*
X24718778Y-3870644D01*
X24569755Y-3965216D01*
X24405199Y-4029043D01*
X24231383Y-4059692D01*
X24054923Y-4055996D01*
X23882536Y-4018094D01*
X23720800Y-3947433D01*
X23575869Y-3846703D01*
X23453260Y-3719738D01*
X23357651Y-3571382D01*
X23292676Y-3407277D01*
X23260814Y-3233672D01*
X23263279Y-3057191D01*
X23299974Y-2884552D01*
X23369506Y-2722322D01*
X23469222Y-2576691D01*
X23595328Y-2453198D01*
X23743015Y-2356555D01*
X23906663Y-2290437D01*
X24080032Y-2257365D01*
X24256531Y-2258597D01*
X24256531Y-2258597D01*
G37*
G36*
X22256531Y-2258597D02*
X22429427Y-2294088D01*
X22592132Y-2362483D01*
X22738458Y-2461180D01*
X22862828Y-2586422D01*
X22960502Y-2733433D01*
X23027757Y-2896608D01*
X23061973Y-3069407D01*
X23061973Y-3069416D01*
X23062039Y-3069750D01*
X23059224Y-3271346D01*
X23059148Y-3271680D01*
X23059148Y-3271691D01*
X23020123Y-3443459D01*
X22948334Y-3604699D01*
X22846592Y-3748927D01*
X22718778Y-3870644D01*
X22569755Y-3965216D01*
X22405199Y-4029043D01*
X22231383Y-4059692D01*
X22054923Y-4055996D01*
X21882536Y-4018094D01*
X21720800Y-3947433D01*
X21575869Y-3846703D01*
X21453260Y-3719738D01*
X21357651Y-3571382D01*
X21292676Y-3407277D01*
X21260814Y-3233672D01*
X21263279Y-3057191D01*
X21299974Y-2884552D01*
X21369506Y-2722322D01*
X21469222Y-2576691D01*
X21595328Y-2453198D01*
X21743015Y-2356555D01*
X21906663Y-2290437D01*
X22080032Y-2257365D01*
X22256531Y-2258597D01*
X22256531Y-2258597D01*
G37*
G36*
X20256531Y-2258597D02*
X20429427Y-2294088D01*
X20592132Y-2362483D01*
X20738458Y-2461180D01*
X20862828Y-2586422D01*
X20960502Y-2733433D01*
X21027757Y-2896608D01*
X21061973Y-3069407D01*
X21061973Y-3069416D01*
X21062039Y-3069750D01*
X21059224Y-3271346D01*
X21059148Y-3271680D01*
X21059148Y-3271691D01*
X21020123Y-3443459D01*
X20948334Y-3604699D01*
X20846592Y-3748927D01*
X20718778Y-3870644D01*
X20569755Y-3965216D01*
X20405199Y-4029043D01*
X20231383Y-4059692D01*
X20054923Y-4055996D01*
X19882536Y-4018094D01*
X19720800Y-3947433D01*
X19575869Y-3846703D01*
X19453260Y-3719738D01*
X19357651Y-3571382D01*
X19292676Y-3407277D01*
X19260814Y-3233672D01*
X19263279Y-3057191D01*
X19299974Y-2884552D01*
X19369506Y-2722322D01*
X19469222Y-2576691D01*
X19595328Y-2453198D01*
X19743015Y-2356555D01*
X19906663Y-2290437D01*
X20080032Y-2257365D01*
X20256531Y-2258597D01*
X20256531Y-2258597D01*
G37*
G36*
X18256531Y-2258597D02*
X18429427Y-2294088D01*
X18592132Y-2362483D01*
X18738458Y-2461180D01*
X18862828Y-2586422D01*
X18960502Y-2733433D01*
X19027757Y-2896608D01*
X19061973Y-3069407D01*
X19061973Y-3069416D01*
X19062039Y-3069750D01*
X19059224Y-3271346D01*
X19059148Y-3271680D01*
X19059148Y-3271691D01*
X19020123Y-3443459D01*
X18948334Y-3604699D01*
X18846592Y-3748927D01*
X18718778Y-3870644D01*
X18569755Y-3965216D01*
X18405199Y-4029043D01*
X18231383Y-4059692D01*
X18054923Y-4055996D01*
X17882536Y-4018094D01*
X17720800Y-3947433D01*
X17575869Y-3846703D01*
X17453260Y-3719738D01*
X17357651Y-3571382D01*
X17292676Y-3407277D01*
X17260814Y-3233672D01*
X17263279Y-3057191D01*
X17299974Y-2884552D01*
X17369506Y-2722322D01*
X17469222Y-2576691D01*
X17595328Y-2453198D01*
X17743015Y-2356555D01*
X17906663Y-2290437D01*
X18080032Y-2257365D01*
X18256531Y-2258597D01*
X18256531Y-2258597D01*
G37*
G36*
X16256531Y-2258597D02*
X16429427Y-2294088D01*
X16592132Y-2362483D01*
X16738458Y-2461180D01*
X16862828Y-2586422D01*
X16960502Y-2733433D01*
X17027757Y-2896608D01*
X17061973Y-3069407D01*
X17061973Y-3069416D01*
X17062039Y-3069750D01*
X17059224Y-3271346D01*
X17059148Y-3271680D01*
X17059148Y-3271691D01*
X17020123Y-3443459D01*
X16948334Y-3604699D01*
X16846592Y-3748927D01*
X16718778Y-3870644D01*
X16569755Y-3965216D01*
X16405199Y-4029043D01*
X16231383Y-4059692D01*
X16054923Y-4055996D01*
X15882536Y-4018094D01*
X15720800Y-3947433D01*
X15575869Y-3846703D01*
X15453260Y-3719738D01*
X15357651Y-3571382D01*
X15292676Y-3407277D01*
X15260814Y-3233672D01*
X15263279Y-3057191D01*
X15299974Y-2884552D01*
X15369506Y-2722322D01*
X15469222Y-2576691D01*
X15595328Y-2453198D01*
X15743015Y-2356555D01*
X15906663Y-2290437D01*
X16080032Y-2257365D01*
X16256531Y-2258597D01*
X16256531Y-2258597D01*
G37*
G36*
X14256531Y-2258597D02*
X14429427Y-2294088D01*
X14592132Y-2362483D01*
X14738458Y-2461180D01*
X14862828Y-2586422D01*
X14960502Y-2733433D01*
X15027757Y-2896608D01*
X15061973Y-3069407D01*
X15061973Y-3069416D01*
X15062039Y-3069750D01*
X15059224Y-3271346D01*
X15059148Y-3271680D01*
X15059148Y-3271691D01*
X15020123Y-3443459D01*
X14948334Y-3604699D01*
X14846592Y-3748927D01*
X14718778Y-3870644D01*
X14569755Y-3965216D01*
X14405199Y-4029043D01*
X14231383Y-4059692D01*
X14054923Y-4055996D01*
X13882536Y-4018094D01*
X13720800Y-3947433D01*
X13575869Y-3846703D01*
X13453260Y-3719738D01*
X13357651Y-3571382D01*
X13292676Y-3407277D01*
X13260814Y-3233672D01*
X13263279Y-3057191D01*
X13299974Y-2884552D01*
X13369506Y-2722322D01*
X13469222Y-2576691D01*
X13595328Y-2453198D01*
X13743015Y-2356555D01*
X13906663Y-2290437D01*
X14080032Y-2257365D01*
X14256531Y-2258597D01*
X14256531Y-2258597D01*
G37*
G36*
X12256531Y-2258597D02*
X12429427Y-2294088D01*
X12592132Y-2362483D01*
X12738458Y-2461180D01*
X12862828Y-2586422D01*
X12960502Y-2733433D01*
X13027757Y-2896608D01*
X13061973Y-3069407D01*
X13061973Y-3069416D01*
X13062039Y-3069750D01*
X13059224Y-3271346D01*
X13059148Y-3271680D01*
X13059148Y-3271691D01*
X13020123Y-3443459D01*
X12948334Y-3604699D01*
X12846592Y-3748927D01*
X12718778Y-3870644D01*
X12569755Y-3965216D01*
X12405199Y-4029043D01*
X12231383Y-4059692D01*
X12054923Y-4055996D01*
X11882536Y-4018094D01*
X11720800Y-3947433D01*
X11575869Y-3846703D01*
X11453260Y-3719738D01*
X11357651Y-3571382D01*
X11292676Y-3407277D01*
X11260814Y-3233672D01*
X11263279Y-3057191D01*
X11299974Y-2884552D01*
X11369506Y-2722322D01*
X11469222Y-2576691D01*
X11595328Y-2453198D01*
X11743015Y-2356555D01*
X11906663Y-2290437D01*
X12080032Y-2257365D01*
X12256531Y-2258597D01*
X12256531Y-2258597D01*
G37*
G36*
X10256531Y-2258597D02*
X10429427Y-2294088D01*
X10592132Y-2362483D01*
X10738458Y-2461180D01*
X10862828Y-2586422D01*
X10960502Y-2733433D01*
X11027757Y-2896608D01*
X11061973Y-3069407D01*
X11061973Y-3069416D01*
X11062039Y-3069750D01*
X11059224Y-3271346D01*
X11059148Y-3271680D01*
X11059148Y-3271691D01*
X11020123Y-3443459D01*
X10948334Y-3604699D01*
X10846592Y-3748927D01*
X10718778Y-3870644D01*
X10569755Y-3965216D01*
X10405199Y-4029043D01*
X10231383Y-4059692D01*
X10054923Y-4055996D01*
X9882536Y-4018094D01*
X9720800Y-3947433D01*
X9575869Y-3846703D01*
X9453260Y-3719738D01*
X9357651Y-3571382D01*
X9292676Y-3407277D01*
X9260814Y-3233672D01*
X9263279Y-3057191D01*
X9299974Y-2884552D01*
X9369506Y-2722322D01*
X9469222Y-2576691D01*
X9595328Y-2453198D01*
X9743015Y-2356555D01*
X9906663Y-2290437D01*
X10080032Y-2257365D01*
X10256531Y-2258597D01*
X10256531Y-2258597D01*
G37*
G36*
X48256531Y-2258597D02*
X48429427Y-2294088D01*
X48592132Y-2362483D01*
X48738458Y-2461180D01*
X48862828Y-2586422D01*
X48960502Y-2733433D01*
X49027757Y-2896608D01*
X49061973Y-3069407D01*
X49061973Y-3069416D01*
X49062039Y-3069750D01*
X49059224Y-3271346D01*
X49059148Y-3271680D01*
X49059148Y-3271691D01*
X49020123Y-3443459D01*
X48948334Y-3604699D01*
X48846592Y-3748927D01*
X48718778Y-3870644D01*
X48569755Y-3965216D01*
X48405199Y-4029043D01*
X48231383Y-4059692D01*
X48054923Y-4055996D01*
X47882536Y-4018094D01*
X47720800Y-3947433D01*
X47575869Y-3846703D01*
X47453260Y-3719738D01*
X47357651Y-3571382D01*
X47292676Y-3407277D01*
X47260814Y-3233672D01*
X47263279Y-3057191D01*
X47299974Y-2884552D01*
X47369506Y-2722322D01*
X47469222Y-2576691D01*
X47595328Y-2453198D01*
X47743015Y-2356555D01*
X47906663Y-2290437D01*
X48080032Y-2257365D01*
X48256531Y-2258597D01*
X48256531Y-2258597D01*
G37*
G36*
X69962000Y-3958000D02*
X68962000Y-3958000D01*
X68962000Y-3058000D01*
X69962000Y-3058000D01*
X69962000Y-3958000D01*
X69962000Y-3958000D01*
G37*
G36*
X64762000Y-3858000D02*
X63762000Y-3858000D01*
X63762000Y-2958000D01*
X64762000Y-2958000D01*
X64762000Y-3858000D01*
X64762000Y-3858000D01*
G37*
G36*
X58662000Y-3758000D02*
X57662000Y-3758000D01*
X57662000Y-2858000D01*
X58662000Y-2858000D01*
X58662000Y-3758000D01*
X58662000Y-3758000D01*
G37*
G36*
X58662000Y-2058000D02*
X57662000Y-2058000D01*
X57662000Y-1158000D01*
X58662000Y-1158000D01*
X58662000Y-2058000D01*
X58662000Y-2058000D01*
G37*
M02*
