%TF.GenerationSoftware,KiCad,Pcbnew,4.0.2-stable*%
%TF.CreationDate,2016-08-10T14:49:54+09:00*%
%TF.ProjectId,Shimonso-IoT-Type-R,5368696D6F6E736F2D496F542D547970,rev?*%
%TF.FileFunction,Copper,L4,Bot,Signal*%
%FSLAX46Y46*%
G04 Gerber Fmt 4.6, Leading zero omitted, Abs format (unit mm)*
G04 Created by KiCad (PCBNEW 4.0.2-stable) date 2016年08月10日水曜日 14:49:54*
%MOMM*%
G01*
G04 APERTURE LIST*
%ADD10C,0.100000*%
%ADD11R,2.235200X2.235200*%
%ADD12R,0.800000X0.700000*%
%ADD13O,0.890000X1.550000*%
%ADD14O,1.250000X0.950000*%
%ADD15R,0.500000X2.000000*%
%ADD16C,1.600000*%
%ADD17R,0.700000X0.800000*%
%ADD18C,0.600000*%
%ADD19C,0.350000*%
%ADD20C,0.150000*%
%ADD21C,0.250000*%
%ADD22C,0.400000*%
%ADD23C,0.200000*%
G04 APERTURE END LIST*
D10*
D11*
X56562000Y-8358000D03*
X53062000Y-8358000D03*
X49562000Y-8358000D03*
X76262000Y-4058000D03*
X2362000Y-52258000D03*
X4662000Y-42958000D03*
D12*
X6962000Y-47708000D03*
X6962000Y-49408000D03*
X19762000Y-50208000D03*
X19762000Y-51908000D03*
X6962000Y-50608000D03*
X6962000Y-52308000D03*
D13*
X16762000Y-52708000D03*
X9762000Y-52708000D03*
D14*
X15762000Y-50008000D03*
X10762000Y-50008000D03*
D15*
X34112000Y-40908000D03*
X34112000Y-36508000D03*
X34912000Y-36508000D03*
X34912000Y-40908000D03*
X36512000Y-40908000D03*
X36512000Y-36508000D03*
X35712000Y-36508000D03*
X35712000Y-40908000D03*
X38912000Y-40908000D03*
X38912000Y-36508000D03*
X39712000Y-36508000D03*
X39712000Y-40908000D03*
X38112000Y-40908000D03*
X38112000Y-36508000D03*
X37312000Y-36508000D03*
X37312000Y-40908000D03*
X43712000Y-40908000D03*
X43712000Y-36508000D03*
X44512000Y-36508000D03*
X44512000Y-40908000D03*
X42112000Y-40908000D03*
X42112000Y-36508000D03*
X42912000Y-36508000D03*
X42912000Y-40908000D03*
X41312000Y-40908000D03*
X41312000Y-36508000D03*
X40512000Y-36508000D03*
X40512000Y-40908000D03*
X27712000Y-40908000D03*
X27712000Y-36508000D03*
X28512000Y-36508000D03*
X28512000Y-40908000D03*
X30112000Y-40908000D03*
X30112000Y-36508000D03*
X29312000Y-36508000D03*
X29312000Y-40908000D03*
X32512000Y-40908000D03*
X32512000Y-36508000D03*
X33312000Y-36508000D03*
X33312000Y-40908000D03*
X31712000Y-40908000D03*
X31712000Y-36508000D03*
X30912000Y-36508000D03*
X30912000Y-40908000D03*
X24512000Y-40908000D03*
X24512000Y-36508000D03*
X25312000Y-36508000D03*
X25312000Y-40908000D03*
X26912000Y-40908000D03*
X26912000Y-36508000D03*
X26112000Y-36508000D03*
X26112000Y-40908000D03*
X22912000Y-40908000D03*
X22912000Y-36508000D03*
X23712000Y-36508000D03*
X23712000Y-40908000D03*
X22112000Y-40908000D03*
X22112000Y-36508000D03*
X21312000Y-36508000D03*
X21312000Y-40908000D03*
D16*
X10162000Y-5158000D03*
X10162000Y-3158000D03*
X12162000Y-5158000D03*
X12162000Y-3158000D03*
X14162000Y-5158000D03*
X14162000Y-3158000D03*
X16162000Y-5158000D03*
X16162000Y-3158000D03*
X18162000Y-5158000D03*
X18162000Y-3158000D03*
X20162000Y-5158000D03*
X20162000Y-3158000D03*
X22162000Y-5158000D03*
X22162000Y-3158000D03*
X24162000Y-5158000D03*
X24162000Y-3158000D03*
X26162000Y-5158000D03*
X26162000Y-3158000D03*
X28162000Y-5158000D03*
X28162000Y-3158000D03*
X30162000Y-5158000D03*
X30162000Y-3158000D03*
X32162000Y-5158000D03*
X32162000Y-3158000D03*
X34162000Y-5158000D03*
X34162000Y-3158000D03*
X36162000Y-5158000D03*
X36162000Y-3158000D03*
X38162000Y-5158000D03*
X38162000Y-3158000D03*
X40162000Y-5158000D03*
X40162000Y-3158000D03*
X42162000Y-5158000D03*
X42162000Y-3158000D03*
X44162000Y-5158000D03*
X44162000Y-3158000D03*
X46162000Y-5158000D03*
X46162000Y-3158000D03*
X48162000Y-5158000D03*
X48162000Y-3158000D03*
D12*
X22862000Y-20608000D03*
X22862000Y-22308000D03*
X27162000Y-15008000D03*
X27162000Y-16708000D03*
X43862000Y-17508000D03*
X43862000Y-19208000D03*
X20562000Y-6908000D03*
X20562000Y-8608000D03*
D17*
X18412000Y-14258000D03*
X20112000Y-14258000D03*
X54512000Y-44658000D03*
X52812000Y-44658000D03*
X43702000Y-11598000D03*
X42002000Y-11598000D03*
X79452000Y-44598000D03*
X77752000Y-44598000D03*
X79572000Y-49488000D03*
X77872000Y-49488000D03*
X44992000Y-11598000D03*
X46692000Y-11598000D03*
X72912000Y-43158000D03*
X74612000Y-43158000D03*
X58012000Y-43758000D03*
X56312000Y-43758000D03*
D12*
X69462000Y-5208000D03*
X69462000Y-3508000D03*
X64262000Y-5108000D03*
X64262000Y-3408000D03*
D17*
X52312000Y-31758000D03*
X54012000Y-31758000D03*
X52312000Y-29358000D03*
X54012000Y-29358000D03*
D12*
X73862000Y-34808000D03*
X73862000Y-36508000D03*
X76762000Y-34708000D03*
X76762000Y-36408000D03*
X58162000Y-3308000D03*
X58162000Y-1608000D03*
D17*
X41212000Y-8058000D03*
X39512000Y-8058000D03*
X37912000Y-8058000D03*
X36212000Y-8058000D03*
X41112000Y-27158000D03*
X42812000Y-27158000D03*
D12*
X41262000Y-29908000D03*
X41262000Y-31608000D03*
D17*
X29512000Y-32758000D03*
X31212000Y-32758000D03*
X16012000Y-18758000D03*
X14312000Y-18758000D03*
X16012000Y-16358000D03*
X14312000Y-16358000D03*
D12*
X16862000Y-23408000D03*
X16862000Y-25108000D03*
X24062000Y-16208000D03*
X24062000Y-17908000D03*
D17*
X6012000Y-12658000D03*
X4312000Y-12658000D03*
X6012000Y-9458000D03*
X4312000Y-9458000D03*
X32012000Y-22558000D03*
X33712000Y-22558000D03*
X54212000Y-20658000D03*
X55912000Y-20658000D03*
X43912000Y-21658000D03*
X45612000Y-21658000D03*
X44012000Y-23958000D03*
X45712000Y-23958000D03*
X58112000Y-14258000D03*
X59812000Y-14258000D03*
X22012000Y-14358000D03*
X23712000Y-14358000D03*
X55812000Y-46458000D03*
X57512000Y-46458000D03*
X27512000Y-11458000D03*
X29212000Y-11458000D03*
X81812000Y-46458000D03*
X83512000Y-46458000D03*
X74712000Y-40658000D03*
X73012000Y-40658000D03*
X56312000Y-41358000D03*
X58012000Y-41358000D03*
X63612000Y-24058000D03*
X65312000Y-24058000D03*
X63612000Y-26958000D03*
X65312000Y-26958000D03*
X76512000Y-21158000D03*
X74812000Y-21158000D03*
X76412000Y-13558000D03*
X74712000Y-13558000D03*
X82212000Y-38958000D03*
X83912000Y-38958000D03*
X57812000Y-27358000D03*
X59512000Y-27358000D03*
X71712000Y-21158000D03*
X73412000Y-21158000D03*
X71512000Y-13558000D03*
X73212000Y-13558000D03*
D12*
X22062000Y-46408000D03*
X22062000Y-44708000D03*
X19762000Y-47308000D03*
X19762000Y-49008000D03*
D17*
X2712000Y-45958000D03*
X4412000Y-45958000D03*
X53612000Y-49958000D03*
X51912000Y-49958000D03*
D18*
X59890000Y-15664000D03*
X84020000Y-40302000D03*
X17152000Y-8398000D03*
X55302000Y-13328000D03*
X51982000Y-20268000D03*
X50362000Y-21418000D03*
X78832000Y-40058000D03*
X57102000Y-16098000D03*
X54792000Y-16048000D03*
X45472000Y-21598000D03*
X39692000Y-22778000D03*
X23692000Y-12068000D03*
X19462000Y-16358000D03*
X18232000Y-25138000D03*
X30562000Y-31758000D03*
X33272000Y-22548000D03*
X29722000Y-11428000D03*
X80302000Y-29948000D03*
X74022000Y-29888000D03*
X74132000Y-21158000D03*
X73987300Y-13558000D03*
X36302000Y-10358000D03*
X41632000Y-11188000D03*
X41952000Y-8058000D03*
X42542000Y-8648000D03*
X72122000Y-40948000D03*
X63572000Y-34418000D03*
X63562000Y-30628000D03*
X54962000Y-40938000D03*
X57512000Y-45632700D03*
X43762000Y-37758000D03*
X41262000Y-37758000D03*
X20062000Y-23558000D03*
X3262000Y-20908000D03*
X2612000Y-17658000D03*
X7412000Y-30708000D03*
X4312000Y-11058000D03*
X40512000Y-42148000D03*
X38112000Y-42268000D03*
X35712000Y-42278000D03*
X33312000Y-42338000D03*
X30942000Y-42338000D03*
X25312000Y-38038000D03*
X38902000Y-37638000D03*
X36522000Y-37688000D03*
X32522000Y-37678000D03*
X28532000Y-39708000D03*
X25312000Y-35058000D03*
X22872000Y-37748000D03*
X48662000Y-48398000D03*
X45662000Y-48388000D03*
X74462000Y-48578000D03*
X71462000Y-48448000D03*
X68442000Y-48488000D03*
X65472000Y-45878000D03*
X65472000Y-45868000D03*
X42672000Y-48738000D03*
X38752000Y-46418000D03*
X73762000Y-8358000D03*
X79362000Y-16008000D03*
X79262000Y-8508000D03*
X68362000Y-8558000D03*
X15062000Y-36158000D03*
X6862000Y-45058000D03*
X2262000Y-40558000D03*
X18562000Y-44958000D03*
X37359000Y-27541800D03*
X12062000Y-48758000D03*
X17662000Y-45758000D03*
X29482000Y-32268000D03*
X18512000Y-16218000D03*
X32082000Y-21848000D03*
X30782000Y-25118000D03*
X40942000Y-26628000D03*
X31632000Y-22538000D03*
X29462000Y-33248000D03*
X21161200Y-15530600D03*
X23272000Y-16278000D03*
X17688400Y-23408000D03*
X16012000Y-17478000D03*
X12112000Y-15808000D03*
X79712000Y-45038000D03*
X79772000Y-50008000D03*
X80152000Y-47188000D03*
X63572000Y-29478000D03*
X58737300Y-45688000D03*
X55022000Y-48548000D03*
X29512000Y-51058000D03*
X77352800Y-13533300D03*
X73966800Y-11763000D03*
X40036900Y-26758000D03*
X54714500Y-46278900D03*
X72912000Y-44557800D03*
X18382200Y-24101800D03*
X62101300Y-27102700D03*
X21538300Y-6908000D03*
X34162000Y-7158000D03*
X58062000Y-4458000D03*
X65862000Y-19058000D03*
X65362000Y-11758000D03*
X71453300Y-12595500D03*
X56242000Y-13368000D03*
X55692000Y-14818000D03*
X57242000Y-14098000D03*
X51862000Y-22708000D03*
X80372000Y-38898000D03*
X25402000Y-11668000D03*
X43862000Y-17048000D03*
X42162000Y-24158000D03*
X43632000Y-23328000D03*
X23622000Y-19628000D03*
X27052000Y-11308000D03*
X27182000Y-14548000D03*
X54552000Y-41998000D03*
X52312000Y-30528000D03*
X57372000Y-28438000D03*
X76512000Y-18658000D03*
X75172000Y-35070600D03*
X49007000Y-42693000D03*
X7709500Y-44205500D03*
X79472200Y-19308000D03*
X42895800Y-22321300D03*
X56786700Y-29082100D03*
X78812000Y-43831700D03*
X54212000Y-20078000D03*
X8162000Y-51158000D03*
X17962000Y-50158000D03*
X34132000Y-38448000D03*
X77002000Y-38448000D03*
X58382000Y-36498000D03*
X47533600Y-34490200D03*
X74292000Y-37098000D03*
X57742000Y-37218000D03*
X36083500Y-34931100D03*
X40212000Y-38538000D03*
X39309600Y-34287700D03*
X37551500Y-38086100D03*
X62102000Y-44608000D03*
X46762000Y-36558000D03*
X73403800Y-48719100D03*
X43942000Y-39228000D03*
X48662000Y-37458000D03*
X27782000Y-39278000D03*
X33362000Y-38158000D03*
X24532000Y-38618000D03*
X30832000Y-38098000D03*
X26892000Y-38058000D03*
X41962000Y-44018000D03*
X43492000Y-45558000D03*
X26132000Y-38548000D03*
X23692000Y-38288000D03*
X22212000Y-38358000D03*
X21241800Y-38246900D03*
X1962000Y-7058000D03*
X13162000Y-38158000D03*
X14962000Y-9658000D03*
X50442000Y-19878000D03*
X40892000Y-21448000D03*
X28622000Y-18068000D03*
X23762000Y-10158000D03*
X20462000Y-18658000D03*
X47322000Y-18478000D03*
X30322000Y-13338000D03*
X8282000Y-1918000D03*
X47692000Y-19958000D03*
X19362000Y-22158000D03*
X50362000Y-16058000D03*
X42162000Y-19858000D03*
X60192000Y-9338000D03*
X59302000Y-8318000D03*
X50785300Y-3588500D03*
X49944600Y-4657900D03*
X46632000Y-8788000D03*
X52682000Y-10298000D03*
X51617600Y-27733300D03*
X46863200Y-6865100D03*
X54182000Y-4238000D03*
X56221000Y-31890000D03*
X59145500Y-1608700D03*
X65346400Y-2323600D03*
X69578800Y-1708700D03*
X77472000Y-48418000D03*
X78442000Y-45438000D03*
X76942000Y-44168000D03*
X71512000Y-37968000D03*
X80192000Y-43578000D03*
X62162000Y-32908000D03*
X50662000Y-45658000D03*
X51662000Y-48908000D03*
X51962000Y-43958000D03*
X52862000Y-45558000D03*
X62162000Y-31658000D03*
X49662000Y-45658000D03*
X39677200Y-10358000D03*
X19162000Y-10958000D03*
X55621400Y-30875600D03*
X46092000Y-10598000D03*
X53332000Y-43508000D03*
X21217000Y-12970000D03*
X43007700Y-21458000D03*
X7062000Y-9458000D03*
X6962000Y-12658000D03*
X40135100Y-29758000D03*
X18162000Y-47358000D03*
X8662000Y-47758000D03*
X55086200Y-30183800D03*
X7662000Y-46658000D03*
X38522000Y-27728000D03*
X36372000Y-25638000D03*
X17362000Y-46658000D03*
D19*
X37284000Y-29370400D02*
X37274400Y-29370400D01*
X37274400Y-29370400D02*
X33712000Y-25808000D01*
D20*
X59812000Y-15664000D02*
X59890000Y-15664000D01*
X83912000Y-40302000D02*
X84020000Y-40302000D01*
D21*
X30112000Y-36508000D02*
X30112000Y-34888000D01*
X31212000Y-33788000D02*
X31212000Y-32758000D01*
X30112000Y-34888000D02*
X31212000Y-33788000D01*
X56232000Y-16968000D02*
X57102000Y-16098000D01*
X55692000Y-16968000D02*
X56232000Y-16968000D01*
X55032000Y-16308000D02*
X55692000Y-16968000D01*
X55032000Y-16288000D02*
X55032000Y-16308000D01*
X54792000Y-16048000D02*
X55032000Y-16288000D01*
X45472000Y-21598000D02*
X45532000Y-21658000D01*
X45532000Y-21658000D02*
X45612000Y-21658000D01*
X14312000Y-18758000D02*
X14512000Y-18758000D01*
X14512000Y-18758000D02*
X15492000Y-19738000D01*
X16832000Y-19738000D02*
X19837000Y-16733000D01*
X15492000Y-19738000D02*
X16832000Y-19738000D01*
X24062000Y-17908000D02*
X21012000Y-17908000D01*
X21012000Y-17908000D02*
X19837000Y-16733000D01*
X19837000Y-16733000D02*
X19462000Y-16358000D01*
X24062000Y-17908000D02*
X24302000Y-17908000D01*
X24302000Y-17908000D02*
X24822000Y-17388000D01*
X24822000Y-17388000D02*
X24822000Y-15468000D01*
X24822000Y-15468000D02*
X23712000Y-14358000D01*
X18202000Y-25108000D02*
X16862000Y-25108000D01*
X18232000Y-25138000D02*
X18202000Y-25108000D01*
D19*
X30562000Y-31758000D02*
X31212000Y-32408000D01*
D21*
X33282000Y-22558000D02*
X33712000Y-22558000D01*
X33272000Y-22548000D02*
X33282000Y-22558000D01*
X29212000Y-11458000D02*
X29692000Y-11458000D01*
X29692000Y-11458000D02*
X29722000Y-11428000D01*
X42002000Y-11598000D02*
X42002000Y-11558000D01*
X42002000Y-11558000D02*
X41632000Y-11188000D01*
X41212000Y-8058000D02*
X41952000Y-8058000D01*
X42542000Y-8648000D02*
X41952000Y-8058000D01*
X73012000Y-40658000D02*
X72412000Y-40658000D01*
X72412000Y-40658000D02*
X72122000Y-40948000D01*
X43712000Y-36508000D02*
X43712000Y-37708000D01*
X43712000Y-37708000D02*
X43762000Y-37758000D01*
X41312000Y-36508000D02*
X41312000Y-37708000D01*
X41312000Y-37708000D02*
X41262000Y-37758000D01*
D19*
X4312000Y-9458000D02*
X4312000Y-11058000D01*
X4312000Y-11058000D02*
X4312000Y-12658000D01*
X35712000Y-42278000D02*
X35712000Y-42148000D01*
X33312000Y-42308000D02*
X33312000Y-42198000D01*
X33342000Y-42338000D02*
X33312000Y-42308000D01*
X33312000Y-42338000D02*
X33342000Y-42338000D01*
X35712000Y-40908000D02*
X35712000Y-42148000D01*
X35712000Y-42148000D02*
X35522000Y-42338000D01*
X38112000Y-40908000D02*
X38112000Y-42268000D01*
X38112000Y-42268000D02*
X38182000Y-42338000D01*
X40512000Y-40908000D02*
X40512000Y-42148000D01*
X40512000Y-42148000D02*
X40322000Y-42338000D01*
X33162000Y-42338000D02*
X35522000Y-42338000D01*
X35522000Y-42338000D02*
X38182000Y-42338000D01*
X38182000Y-42338000D02*
X40322000Y-42338000D01*
X40322000Y-42338000D02*
X42702000Y-42338000D01*
X42912000Y-42128000D02*
X42912000Y-40908000D01*
X42702000Y-42338000D02*
X42912000Y-42128000D01*
X28512000Y-40908000D02*
X28512000Y-42228000D01*
X28512000Y-42228000D02*
X28622000Y-42338000D01*
X26112000Y-40908000D02*
X26112000Y-42098000D01*
X26112000Y-42098000D02*
X26352000Y-42338000D01*
X26352000Y-42338000D02*
X28622000Y-42338000D01*
X28622000Y-42338000D02*
X30942000Y-42338000D01*
X30942000Y-42338000D02*
X31082000Y-42338000D01*
X30912000Y-40908000D02*
X30912000Y-42168000D01*
X30912000Y-42168000D02*
X31082000Y-42338000D01*
X33312000Y-42198000D02*
X33312000Y-40908000D01*
X31082000Y-42338000D02*
X33162000Y-42338000D01*
X33162000Y-42338000D02*
X33172000Y-42338000D01*
X33172000Y-42338000D02*
X33312000Y-42198000D01*
X38912000Y-36508000D02*
X38912000Y-37628000D01*
X38912000Y-37628000D02*
X38902000Y-37638000D01*
X36512000Y-36508000D02*
X36512000Y-37678000D01*
X36512000Y-37678000D02*
X36522000Y-37688000D01*
X32512000Y-36508000D02*
X32512000Y-37668000D01*
X32512000Y-37668000D02*
X32522000Y-37678000D01*
X28512000Y-40908000D02*
X28512000Y-39728000D01*
X28512000Y-39728000D02*
X28532000Y-39708000D01*
X27712000Y-36508000D02*
X27712000Y-35278000D01*
X27712000Y-35278000D02*
X27412000Y-34978000D01*
X25312000Y-36508000D02*
X25312000Y-35058000D01*
X25312000Y-35058000D02*
X25312000Y-35168000D01*
X25312000Y-35168000D02*
X25502000Y-34978000D01*
X22912000Y-36508000D02*
X22912000Y-35418000D01*
X22912000Y-35418000D02*
X23352000Y-34978000D01*
X23352000Y-34978000D02*
X25502000Y-34978000D01*
X25502000Y-34978000D02*
X27412000Y-34978000D01*
X26112000Y-40908000D02*
X26112000Y-39798000D01*
X25312000Y-38998000D02*
X25312000Y-38038000D01*
X25312000Y-38038000D02*
X25312000Y-36508000D01*
X26112000Y-39798000D02*
X25312000Y-38998000D01*
X22912000Y-36508000D02*
X22912000Y-37708000D01*
X22912000Y-37708000D02*
X22872000Y-37748000D01*
X18812000Y-44708000D02*
X22062000Y-44708000D01*
X18562000Y-44958000D02*
X18812000Y-44708000D01*
X19762000Y-51908000D02*
X19762000Y-52058000D01*
X19762000Y-52058000D02*
X19112000Y-52708000D01*
X19112000Y-52708000D02*
X16762000Y-52708000D01*
X6962000Y-52308000D02*
X6962000Y-52658000D01*
X6962000Y-52658000D02*
X7512000Y-52708000D01*
X7512000Y-52708000D02*
X9762000Y-52708000D01*
X38162000Y-40858000D02*
X38112000Y-40908000D01*
X31212000Y-32758000D02*
X31212000Y-32408000D01*
X28562000Y-40858000D02*
X28512000Y-40908000D01*
X48162000Y-5158000D02*
X48162000Y-3158000D01*
X42912000Y-40551600D02*
X42912000Y-40195300D01*
X42912000Y-40551600D02*
X42912000Y-40908000D01*
X73212000Y-13558000D02*
X73987300Y-13558000D01*
X55912000Y-20658000D02*
X56687300Y-20658000D01*
X74812000Y-21158000D02*
X74132000Y-21158000D01*
X74132000Y-21158000D02*
X74112000Y-21158000D01*
X74112000Y-21158000D02*
X73412000Y-21158000D01*
X74112000Y-21158000D02*
X74112000Y-13558000D01*
X74712000Y-13558000D02*
X74112000Y-13558000D01*
X74112000Y-13558000D02*
X73987300Y-13558000D01*
X73412000Y-21158000D02*
X72636700Y-21158000D01*
X65312000Y-26958000D02*
X65312000Y-26132700D01*
X59512000Y-27358000D02*
X58736700Y-27358000D01*
X72636700Y-21642600D02*
X72636700Y-21158000D01*
X70221300Y-24058000D02*
X72636700Y-21642600D01*
X65312000Y-24058000D02*
X70221300Y-24058000D01*
X65312000Y-24058000D02*
X65312000Y-26132700D01*
X57512000Y-46458000D02*
X57512000Y-45632700D01*
X83512000Y-46458000D02*
X83512000Y-45782800D01*
X83512000Y-45782800D02*
X83512000Y-45632600D01*
X57236700Y-45357400D02*
X57236700Y-41358000D01*
X57512000Y-45632700D02*
X57236700Y-45357400D01*
X45712000Y-22583300D02*
X45712000Y-23958000D01*
X45612000Y-22483300D02*
X45712000Y-22583300D01*
X44936700Y-25808600D02*
X44936700Y-23958000D01*
X43587300Y-27158000D02*
X44936700Y-25808600D01*
X42812000Y-27158000D02*
X43587300Y-27158000D01*
X45712000Y-23958000D02*
X44936700Y-23958000D01*
X41312000Y-37145600D02*
X41312000Y-36508000D01*
X42812000Y-29767300D02*
X42812000Y-27158000D01*
X41746600Y-30832700D02*
X42812000Y-29767300D01*
X41262000Y-30832700D02*
X41746600Y-30832700D01*
X45612000Y-22070600D02*
X45612000Y-22483300D01*
X45612000Y-22070600D02*
X45612000Y-21658000D01*
X14312000Y-18758000D02*
X14312000Y-16358000D01*
X9762000Y-52708000D02*
X9762000Y-52107800D01*
X10762000Y-51107800D02*
X10762000Y-50008000D01*
X9762000Y-52107800D02*
X10762000Y-51107800D01*
X41262000Y-31608000D02*
X41262000Y-31220300D01*
X41262000Y-31220300D02*
X41262000Y-30832700D01*
X33712000Y-25808000D02*
X33712000Y-22558000D01*
X59512000Y-27358000D02*
X60287300Y-27358000D01*
X60759400Y-27830100D02*
X60287300Y-27358000D01*
X65312000Y-27830100D02*
X60759400Y-27830100D01*
X65312000Y-26958000D02*
X65312000Y-27830100D01*
X57624400Y-41358000D02*
X57236700Y-41358000D01*
X57624400Y-41358000D02*
X58012000Y-41358000D01*
X25312000Y-37070500D02*
X25312000Y-36508000D01*
X37359000Y-29370400D02*
X37284000Y-29370400D01*
X39208900Y-31220300D02*
X37359000Y-29370400D01*
X41262000Y-31220300D02*
X39208900Y-31220300D01*
X37359000Y-29370400D02*
X37359000Y-27541800D01*
X83912000Y-45232600D02*
X83912000Y-40302000D01*
X83912000Y-40302000D02*
X83912000Y-38958000D01*
X83512000Y-45632600D02*
X83912000Y-45232600D01*
X59812000Y-17533300D02*
X59812000Y-15664000D01*
X59812000Y-15664000D02*
X59812000Y-14258000D01*
X56687300Y-20658000D02*
X59812000Y-17533300D01*
D21*
X29512000Y-32298000D02*
X29512000Y-32758000D01*
X29482000Y-32268000D02*
X29512000Y-32298000D01*
X20033350Y-15516650D02*
X19213350Y-15516650D01*
X19213350Y-15516650D02*
X18512000Y-16218000D01*
X32012000Y-21918000D02*
X32012000Y-22558000D01*
X32082000Y-21848000D02*
X32012000Y-21918000D01*
X41112000Y-27158000D02*
X41112000Y-26798000D01*
X41112000Y-26798000D02*
X40942000Y-26628000D01*
X32012000Y-22558000D02*
X31652000Y-22558000D01*
X31652000Y-22558000D02*
X31632000Y-22538000D01*
X29512000Y-32758000D02*
X29512000Y-33198000D01*
X29512000Y-33198000D02*
X29462000Y-33248000D01*
X18412000Y-14258000D02*
X18412000Y-14683300D01*
X16737300Y-16358000D02*
X17686700Y-15408600D01*
X16737300Y-16358000D02*
X16012000Y-16358000D01*
X18412000Y-14683300D02*
X17686700Y-15408600D01*
X18412000Y-14258000D02*
X18774700Y-14258000D01*
X19137300Y-14620600D02*
X20033350Y-15516650D01*
X20033350Y-15516650D02*
X20047300Y-15530600D01*
X20047300Y-15530600D02*
X21161200Y-15530600D01*
X18774700Y-14258000D02*
X19137300Y-14620600D01*
X24062000Y-16208000D02*
X23342000Y-16208000D01*
X23342000Y-16208000D02*
X23272000Y-16278000D01*
X79452000Y-44598000D02*
X79452000Y-44778000D01*
X79452000Y-44778000D02*
X79712000Y-45038000D01*
X79572000Y-49488000D02*
X79572000Y-49808000D01*
X79572000Y-49808000D02*
X79772000Y-50008000D01*
X79452000Y-44598000D02*
X79452000Y-46488000D01*
X79452000Y-46488000D02*
X80152000Y-47188000D01*
X79572000Y-49488000D02*
X79572000Y-47768000D01*
X79572000Y-47768000D02*
X80152000Y-47188000D01*
X81812000Y-46458000D02*
X80882000Y-46458000D01*
X80882000Y-46458000D02*
X80152000Y-47188000D01*
X58012000Y-43758000D02*
X58012000Y-43898000D01*
X58012000Y-43898000D02*
X58737300Y-44623300D01*
X58737300Y-44623300D02*
X58737300Y-45688000D01*
X58737300Y-45688000D02*
X58737300Y-46559200D01*
X55812000Y-46458000D02*
X55812000Y-47758000D01*
X55812000Y-47758000D02*
X55022000Y-48548000D01*
X55022000Y-48548000D02*
X53612000Y-49958000D01*
X54512000Y-44658000D02*
X54512000Y-45158000D01*
X54512000Y-45158000D02*
X55812000Y-46458000D01*
X76412000Y-13558000D02*
X77137300Y-13558000D01*
X77162000Y-13533300D02*
X77352800Y-13533300D01*
X77137300Y-13558000D02*
X77162000Y-13533300D01*
X63612000Y-24058000D02*
X63612000Y-24833300D01*
X55812000Y-46458000D02*
X55086700Y-46458000D01*
X16012000Y-16720600D02*
X16012000Y-17478000D01*
X16012000Y-17478000D02*
X16012000Y-18758000D01*
X41112000Y-27158000D02*
X40386700Y-27158000D01*
X64262000Y-5108000D02*
X64262000Y-5833300D01*
X64262000Y-5833300D02*
X70727500Y-12298700D01*
X71263200Y-11763000D02*
X70727500Y-12298700D01*
X73966800Y-11763000D02*
X71263200Y-11763000D01*
X63612000Y-19414200D02*
X63612000Y-24058000D01*
X70727500Y-12298700D02*
X63612000Y-19414200D01*
X55812000Y-46458000D02*
X56537300Y-46458000D01*
X20562000Y-6908000D02*
X20562000Y-7633300D01*
X54893600Y-46458000D02*
X54714500Y-46278900D01*
X55086700Y-46458000D02*
X54893600Y-46458000D01*
X15830700Y-16358000D02*
X16012000Y-16358000D01*
X72912000Y-43158000D02*
X72912000Y-44557800D01*
X17688400Y-23408000D02*
X18382200Y-24101800D01*
X16862000Y-23408000D02*
X17688400Y-23408000D01*
X20199400Y-7633300D02*
X18412000Y-9420700D01*
X20562000Y-7633300D02*
X20199400Y-7633300D01*
X56537300Y-46820600D02*
X56537300Y-46458000D01*
X56950100Y-47233400D02*
X56537300Y-46820600D01*
X58063100Y-47233400D02*
X56950100Y-47233400D01*
X58737300Y-46559200D02*
X58063100Y-47233400D01*
X40036900Y-26808200D02*
X40036900Y-26758000D01*
X40386700Y-27158000D02*
X40036900Y-26808200D01*
X63612000Y-26958000D02*
X63612000Y-24833300D01*
X62246000Y-26958000D02*
X62101300Y-27102700D01*
X63612000Y-26958000D02*
X62246000Y-26958000D01*
X20562000Y-6908000D02*
X21337300Y-6908000D01*
X21337300Y-6908000D02*
X21538300Y-6908000D01*
D19*
X58162000Y-4358000D02*
X58162000Y-3308000D01*
X58062000Y-4458000D02*
X58162000Y-4358000D01*
D21*
X71512000Y-13558000D02*
X71512000Y-13170300D01*
X71512000Y-13170300D02*
X71512000Y-12782700D01*
X71712000Y-13370300D02*
X71712000Y-21158000D01*
X71512000Y-13170300D02*
X71712000Y-13370300D01*
X71453300Y-12724000D02*
X71453300Y-12595500D01*
X71512000Y-12782700D02*
X71453300Y-12724000D01*
X59229850Y-12735850D02*
X59229850Y-11200150D01*
X62782000Y-7648000D02*
X62782000Y-5300300D01*
X59229850Y-11200150D02*
X62782000Y-7648000D01*
X57402000Y-14258000D02*
X58112000Y-14258000D01*
X57242000Y-14098000D02*
X57402000Y-14258000D01*
X80372000Y-38958000D02*
X80363700Y-38958000D01*
X80372000Y-38898000D02*
X80372000Y-38958000D01*
X25612000Y-11458000D02*
X27512000Y-11458000D01*
X25402000Y-11668000D02*
X25612000Y-11458000D01*
X43862000Y-17048000D02*
X43862000Y-17508000D01*
D22*
X43632000Y-23328000D02*
X44012000Y-23708000D01*
X44012000Y-23708000D02*
X44012000Y-23958000D01*
X23622000Y-19628000D02*
X22862000Y-20388000D01*
X22862000Y-20388000D02*
X22862000Y-20608000D01*
D21*
X27052000Y-11308000D02*
X27202000Y-11458000D01*
X27162000Y-14568000D02*
X27182000Y-14548000D01*
X27162000Y-15008000D02*
X27162000Y-14568000D01*
X57342000Y-28408000D02*
X57372000Y-28438000D01*
X57342000Y-28408000D02*
X57086700Y-28408000D01*
X27512000Y-11458000D02*
X27202000Y-11458000D01*
X76874700Y-21158000D02*
X77237300Y-21158000D01*
X76512000Y-21158000D02*
X76874700Y-21158000D01*
X77237300Y-21158000D02*
X77622200Y-21158000D01*
X77622200Y-21158000D02*
X79472200Y-19308000D01*
X57086700Y-28408000D02*
X57086700Y-28782100D01*
X57086700Y-28782100D02*
X56786700Y-29082100D01*
X57812000Y-27358000D02*
X57086700Y-27358000D01*
X57086700Y-27358000D02*
X57086700Y-28408000D01*
X76762000Y-34708000D02*
X76762000Y-35070600D01*
X76762000Y-35070600D02*
X76762000Y-35433300D01*
X74899900Y-35070600D02*
X74637300Y-34808000D01*
X76762000Y-35070600D02*
X75172000Y-35070600D01*
X75172000Y-35070600D02*
X74899900Y-35070600D01*
X73862000Y-34808000D02*
X74637300Y-34808000D01*
X69462000Y-5208000D02*
X69462000Y-4482700D01*
X58837300Y-14258000D02*
X58837300Y-13128400D01*
X58837300Y-13128400D02*
X59229850Y-12735850D01*
X62782000Y-5300300D02*
X63699700Y-4382600D01*
X63699700Y-4382600D02*
X69361900Y-4382600D01*
X69361900Y-4382600D02*
X69462000Y-4482700D01*
X58112000Y-14258000D02*
X58837300Y-14258000D01*
X44012000Y-23958000D02*
X44012000Y-23420300D01*
X44012000Y-23420300D02*
X44012000Y-23407600D01*
X44012000Y-23407600D02*
X44012000Y-23182700D01*
X43982100Y-23407600D02*
X42895800Y-22321300D01*
X44012000Y-23407600D02*
X43982100Y-23407600D01*
X80363700Y-38958000D02*
X82212000Y-38958000D01*
X77736600Y-36330900D02*
X80363700Y-38958000D01*
X77736600Y-36092500D02*
X77736600Y-36330900D01*
X77077400Y-35433300D02*
X77736600Y-36092500D01*
X76762000Y-35433300D02*
X77077400Y-35433300D01*
X52312000Y-31758000D02*
X52312000Y-30528000D01*
X52312000Y-30528000D02*
X52312000Y-29358000D01*
X74712000Y-40658000D02*
X74712000Y-41433300D01*
X74712000Y-42282700D02*
X74712000Y-41433300D01*
X74612000Y-42382700D02*
X74712000Y-42282700D01*
X74612000Y-43158000D02*
X74612000Y-42770300D01*
X74612000Y-42770300D02*
X74612000Y-42382700D01*
X77750600Y-42770300D02*
X78812000Y-43831700D01*
X74612000Y-42770300D02*
X77750600Y-42770300D01*
X54212000Y-20078000D02*
X54212000Y-20658000D01*
X8112000Y-51108000D02*
X6962000Y-50608000D01*
X8162000Y-51158000D02*
X8112000Y-51108000D01*
X6962000Y-49408000D02*
X6962000Y-50608000D01*
X18012000Y-50208000D02*
X19762000Y-50208000D01*
X17962000Y-50158000D02*
X18012000Y-50208000D01*
X19762000Y-49008000D02*
X19762000Y-50208000D01*
D23*
X34112000Y-38428000D02*
X34112000Y-36508000D01*
X34132000Y-38448000D02*
X34112000Y-38428000D01*
D21*
X34112000Y-35820300D02*
X34112000Y-36508000D01*
D23*
X76762000Y-38208000D02*
X76762000Y-36408000D01*
X77002000Y-38448000D02*
X76762000Y-38208000D01*
D21*
X75986700Y-36408000D02*
X75986700Y-36402700D01*
X76374400Y-36408000D02*
X75986700Y-36408000D01*
X71202000Y-36498000D02*
X58382000Y-36498000D01*
X71942000Y-35758000D02*
X71202000Y-36498000D01*
X75342000Y-35758000D02*
X71942000Y-35758000D01*
X75986700Y-36402700D02*
X75342000Y-35758000D01*
X47533600Y-34490200D02*
X46627100Y-33583700D01*
X46627100Y-33583700D02*
X36461000Y-33583700D01*
X36461000Y-33583700D02*
X34912000Y-35132700D01*
X34912000Y-36508000D02*
X34912000Y-35132700D01*
X76374400Y-36408000D02*
X76374500Y-36408000D01*
X76762000Y-36408000D02*
X76374500Y-36408000D01*
D23*
X74292000Y-37098000D02*
X73862000Y-36668000D01*
X73862000Y-36668000D02*
X73862000Y-36508000D01*
D21*
X73852000Y-37233300D02*
X57757300Y-37233300D01*
X57757300Y-37233300D02*
X57742000Y-37218000D01*
X35712000Y-36508000D02*
X35712000Y-35132700D01*
X35913600Y-34931100D02*
X36083500Y-34931100D01*
X35712000Y-35132700D02*
X35913600Y-34931100D01*
X67871000Y-37233300D02*
X73852000Y-37233300D01*
X73852000Y-37233300D02*
X73862000Y-37233300D01*
X73862000Y-36508000D02*
X73862000Y-37233300D01*
X40212000Y-38538000D02*
X39712000Y-38008000D01*
X39712000Y-36508000D02*
X39712000Y-38008000D01*
X38112000Y-36508000D02*
X38112000Y-35132700D01*
X38464600Y-35132700D02*
X39309600Y-34287700D01*
X38112000Y-35132700D02*
X38464600Y-35132700D01*
X37312000Y-36508000D02*
X37312000Y-37883300D01*
X37348700Y-37883300D02*
X37551500Y-38086100D01*
X37312000Y-37883300D02*
X37348700Y-37883300D01*
X73403800Y-48719100D02*
X73403800Y-49146200D01*
X67002000Y-49508000D02*
X62102000Y-44608000D01*
X73042000Y-49508000D02*
X67002000Y-49508000D01*
X73403800Y-49146200D02*
X73042000Y-49508000D01*
X42112000Y-35208000D02*
X42112000Y-36508000D01*
X42235698Y-35084302D02*
X42112000Y-35208000D01*
X45288302Y-35084302D02*
X42235698Y-35084302D01*
X46762000Y-36558000D02*
X45288302Y-35084302D01*
X42912000Y-38198000D02*
X42912000Y-36508000D01*
X43942000Y-39228000D02*
X42912000Y-38198000D01*
X42862000Y-36558000D02*
X42912000Y-36508000D01*
X45198002Y-34584002D02*
X45788002Y-34584002D01*
X45788002Y-34584002D02*
X48662000Y-37458000D01*
X45198002Y-34584002D02*
X45192000Y-34584002D01*
X45192000Y-34584002D02*
X45192000Y-34584300D01*
X41060400Y-34584300D02*
X45192000Y-34584300D01*
X40512000Y-35132700D02*
X41060400Y-34584300D01*
X40512000Y-36508000D02*
X40512000Y-35132700D01*
X27712000Y-39348000D02*
X27712000Y-40908000D01*
X27782000Y-39278000D02*
X27712000Y-39348000D01*
X33312000Y-38108000D02*
X33312000Y-36508000D01*
X33362000Y-38158000D02*
X33312000Y-38108000D01*
X24512000Y-36508000D02*
X24512000Y-38598000D01*
X24512000Y-38598000D02*
X24532000Y-38618000D01*
X26912000Y-39128000D02*
X26912000Y-40908000D01*
X27922000Y-38118000D02*
X26912000Y-39128000D01*
X30812000Y-38118000D02*
X27922000Y-38118000D01*
X30832000Y-38098000D02*
X30812000Y-38118000D01*
X26912000Y-38038000D02*
X26892000Y-38058000D01*
X26912000Y-38038000D02*
X26912000Y-36508000D01*
X41962000Y-44028000D02*
X41962000Y-44018000D01*
X43492000Y-45558000D02*
X41962000Y-44028000D01*
X26132000Y-38548000D02*
X26112000Y-38528000D01*
X26112000Y-38528000D02*
X26112000Y-36508000D01*
X23712000Y-38268000D02*
X23712000Y-36508000D01*
X23692000Y-38288000D02*
X23712000Y-38268000D01*
X22112000Y-38258000D02*
X22112000Y-36508000D01*
X22212000Y-38358000D02*
X22112000Y-38258000D01*
X21312000Y-38176700D02*
X21312000Y-36508000D01*
X21241800Y-38246900D02*
X21312000Y-38176700D01*
X12162000Y-3158000D02*
X12122000Y-3158000D01*
X12122000Y-3158000D02*
X10042000Y-1078000D01*
X2942000Y-1078000D02*
X2762000Y-1258000D01*
X10042000Y-1078000D02*
X2942000Y-1078000D01*
X1162000Y-8658000D02*
X1162000Y-2858000D01*
X1162000Y-30458000D02*
X1162000Y-8658000D01*
X10262000Y-1258000D02*
X12162000Y-3158000D01*
X1162000Y-2858000D02*
X2762000Y-1258000D01*
X2712000Y-45958000D02*
X2162000Y-45958000D01*
X1162000Y-44958000D02*
X1162000Y-30458000D01*
X1162000Y-30458000D02*
X1162000Y-30358000D01*
X2162000Y-45958000D02*
X1162000Y-44958000D01*
X2712000Y-45958000D02*
X2462000Y-45958000D01*
X1762000Y-7258000D02*
X1962000Y-7058000D01*
X1762000Y-28058000D02*
X1762000Y-7358000D01*
X7562000Y-33858000D02*
X1762000Y-28058000D01*
X7562000Y-36458000D02*
X7562000Y-33858000D01*
X1762000Y-7358000D02*
X1762000Y-7258000D01*
X13162000Y-38158000D02*
X10062000Y-38158000D01*
X10062000Y-38158000D02*
X9162000Y-38158000D01*
X9162000Y-38158000D02*
X7562000Y-36558000D01*
X7562000Y-36558000D02*
X7562000Y-36458000D01*
X16062000Y-6858000D02*
X18462000Y-6858000D01*
X14862000Y-8058000D02*
X16062000Y-6858000D01*
X14862000Y-9558000D02*
X14862000Y-8058000D01*
X14962000Y-9658000D02*
X14862000Y-9558000D01*
X20162000Y-5158000D02*
X18462000Y-6858000D01*
D23*
X45652000Y-20168000D02*
X45992000Y-20168000D01*
X48252000Y-20588000D02*
X48672000Y-20168000D01*
X46412000Y-20588000D02*
X48252000Y-20588000D01*
X45992000Y-20168000D02*
X46412000Y-20588000D01*
X40892000Y-21448000D02*
X41962000Y-21448000D01*
X50152000Y-20168000D02*
X50442000Y-19878000D01*
X43242000Y-20168000D02*
X45652000Y-20168000D01*
X48672000Y-20168000D02*
X50152000Y-20168000D01*
X41962000Y-21448000D02*
X43242000Y-20168000D01*
X38412000Y-21448000D02*
X40892000Y-21448000D01*
X37432000Y-20468000D02*
X38412000Y-21448000D01*
X31022000Y-20468000D02*
X37432000Y-20468000D01*
X28622000Y-18068000D02*
X31022000Y-20468000D01*
X26162000Y-7758000D02*
X26162000Y-5158000D01*
X23762000Y-10158000D02*
X26162000Y-7758000D01*
D21*
X20462000Y-18658000D02*
X25212000Y-18658000D01*
X25212000Y-18658000D02*
X25222000Y-18648000D01*
X25222000Y-18648000D02*
X27162000Y-16708000D01*
X27162000Y-16708000D02*
X28212000Y-16708000D01*
X31762000Y-13158000D02*
X31762000Y-5558000D01*
X29262000Y-15658000D02*
X31762000Y-13158000D01*
X28212000Y-16708000D02*
X29262000Y-15658000D01*
X31762000Y-5558000D02*
X32162000Y-5158000D01*
X47602000Y-19478000D02*
X47602000Y-19868000D01*
X47322000Y-18478000D02*
X47602000Y-18758000D01*
X47602000Y-18758000D02*
X47602000Y-19478000D01*
X22272000Y-12488000D02*
X23122000Y-13338000D01*
X23122000Y-13338000D02*
X30322000Y-13338000D01*
X22272000Y-12298000D02*
X21912000Y-11938000D01*
X8282000Y-1918000D02*
X7522000Y-2678000D01*
X7522000Y-2678000D02*
X7522000Y-4458000D01*
X7522000Y-4458000D02*
X15002000Y-11938000D01*
X15002000Y-11938000D02*
X21912000Y-11938000D01*
X22272000Y-12298000D02*
X22272000Y-12488000D01*
X47602000Y-19868000D02*
X47692000Y-19958000D01*
X22862000Y-22308000D02*
X23312000Y-22308000D01*
X32454000Y-13166000D02*
X23312000Y-22308000D01*
X32454000Y-6866000D02*
X32454000Y-13166000D01*
X32454000Y-6866000D02*
X34162000Y-5158000D01*
X22712000Y-22158000D02*
X19362000Y-22158000D01*
X22712000Y-22158000D02*
X22862000Y-22308000D01*
X48642000Y-17778000D02*
X45942000Y-17778000D01*
X44532000Y-19188000D02*
X44532000Y-19208000D01*
X45942000Y-17778000D02*
X44532000Y-19188000D01*
X48642000Y-17778000D02*
X50362000Y-16058000D01*
X43862000Y-19208000D02*
X44532000Y-19208000D01*
X42162000Y-19858000D02*
X42812000Y-19208000D01*
X42812000Y-19208000D02*
X43862000Y-19208000D01*
X36162000Y-7232700D02*
X36212000Y-7282700D01*
X36162000Y-5158000D02*
X36162000Y-7232700D01*
X36212000Y-8058000D02*
X36212000Y-7282700D01*
X60192000Y-9208000D02*
X60192000Y-9338000D01*
X59302000Y-8318000D02*
X60192000Y-9208000D01*
X40415500Y-9445500D02*
X40415500Y-11761500D01*
X38162000Y-5158000D02*
X40415500Y-7411500D01*
X40415500Y-7411500D02*
X40415500Y-9445500D01*
X49562000Y-11258000D02*
X49562000Y-8358000D01*
X47832000Y-12988000D02*
X49562000Y-11258000D01*
X41642000Y-12988000D02*
X47832000Y-12988000D01*
X40415500Y-11761500D02*
X41642000Y-12988000D01*
X48069000Y-10201000D02*
X48069000Y-11651000D01*
X50785300Y-3386000D02*
X50785300Y-3588500D01*
X48865600Y-1466300D02*
X50785300Y-3386000D01*
X39853700Y-1466300D02*
X48865600Y-1466300D01*
X38162000Y-3158000D02*
X39853700Y-1466300D01*
X49944600Y-5161100D02*
X49944600Y-4657900D01*
X48069000Y-7036700D02*
X49944600Y-5161100D01*
X48069000Y-9630900D02*
X48069000Y-7036700D01*
X48069000Y-9630900D02*
X48069000Y-10201000D01*
X44992000Y-12018000D02*
X45422000Y-12448000D01*
X45422000Y-12448000D02*
X47272000Y-12448000D01*
X47272000Y-12448000D02*
X47822000Y-11898000D01*
X44992000Y-12018000D02*
X44992000Y-11598000D01*
X48069000Y-11651000D02*
X47822000Y-11898000D01*
X43702000Y-11598000D02*
X44992000Y-11598000D01*
X46612000Y-8768000D02*
X43772000Y-8768000D01*
X46632000Y-8788000D02*
X46612000Y-8768000D01*
X40162000Y-5158000D02*
X43772000Y-8768000D01*
X53062000Y-9850900D02*
X53062000Y-9918000D01*
X53062000Y-9850900D02*
X53062000Y-8358000D01*
X53062000Y-9918000D02*
X52682000Y-10298000D01*
X41347100Y-1972900D02*
X40162000Y-3158000D01*
X48664400Y-1972900D02*
X41347100Y-1972900D01*
X50110000Y-3418500D02*
X48664400Y-1972900D01*
X50110000Y-3868200D02*
X50110000Y-3418500D01*
X51126700Y-4884900D02*
X50110000Y-3868200D01*
X51126700Y-27242400D02*
X51126700Y-4884900D01*
X51617600Y-27733300D02*
X51126700Y-27242400D01*
X43869100Y-6865100D02*
X46863200Y-6865100D01*
X42162000Y-5158000D02*
X43869100Y-6865100D01*
X54574100Y-4630100D02*
X54574100Y-4968000D01*
X54182000Y-4238000D02*
X54574100Y-4630100D01*
X53857000Y-18333000D02*
X53857000Y-11553000D01*
X53857000Y-18333000D02*
X53477700Y-18712300D01*
X53477700Y-18712300D02*
X53477700Y-26786400D01*
X53477700Y-26786400D02*
X56311400Y-29620100D01*
X56311400Y-29620100D02*
X56311400Y-31799600D01*
X56311400Y-31799600D02*
X56221000Y-31890000D01*
X54574100Y-4968000D02*
X54574100Y-10835900D01*
X54574100Y-4968000D02*
X54574100Y-4890100D01*
X53857000Y-11553000D02*
X54574100Y-10835900D01*
X58162000Y-1608000D02*
X58937300Y-1608000D01*
X58938000Y-1608700D02*
X59145500Y-1608700D01*
X58937300Y-1608000D02*
X58938000Y-1608700D01*
X64262000Y-3408000D02*
X64262000Y-2682700D01*
X64987300Y-2682700D02*
X65346400Y-2323600D01*
X64262000Y-2682700D02*
X64987300Y-2682700D01*
X69462000Y-1825500D02*
X69578800Y-1708700D01*
X69462000Y-3508000D02*
X69462000Y-1825500D01*
D20*
X77642000Y-48588000D02*
X77872000Y-49488000D01*
X77472000Y-48418000D02*
X77642000Y-48588000D01*
X77752000Y-44598000D02*
X77752000Y-44748000D01*
X77752000Y-44748000D02*
X78442000Y-45438000D01*
X77372000Y-44598000D02*
X77752000Y-44598000D01*
X76942000Y-44168000D02*
X77372000Y-44598000D01*
D21*
X72182000Y-38638000D02*
X71512000Y-37968000D01*
X75292000Y-38678000D02*
X72182000Y-38678000D01*
X80192000Y-43578000D02*
X75292000Y-38678000D01*
X72182000Y-38678000D02*
X72182000Y-38638000D01*
X50662000Y-44188000D02*
X50662000Y-44118000D01*
X57002000Y-37778000D02*
X57002000Y-36818000D01*
X50662000Y-44118000D02*
X57002000Y-37778000D01*
X50662000Y-45658000D02*
X50662000Y-44188000D01*
X60912000Y-32908000D02*
X62162000Y-32908000D01*
X57002000Y-36818000D02*
X60912000Y-32908000D01*
X51512000Y-49058000D02*
X51912000Y-49958000D01*
X51662000Y-48908000D02*
X51512000Y-49058000D01*
D20*
X51962000Y-43958000D02*
X52662000Y-44658000D01*
X52662000Y-44658000D02*
X52812000Y-44658000D01*
X52812000Y-44658000D02*
X52862000Y-44708000D01*
X52862000Y-44708000D02*
X52862000Y-45558000D01*
D21*
X56473445Y-37599445D02*
X56473445Y-36346555D01*
X49724890Y-44348000D02*
X56473445Y-37599445D01*
X49662000Y-44348000D02*
X49724890Y-44348000D01*
X56542000Y-36328000D02*
X56542000Y-36278000D01*
X56492000Y-36328000D02*
X56542000Y-36328000D01*
X56473445Y-36346555D02*
X56492000Y-36328000D01*
X62162000Y-31658000D02*
X61162000Y-31658000D01*
X61162000Y-31658000D02*
X56542000Y-36278000D01*
X49662000Y-44348000D02*
X49662000Y-45658000D01*
X39512000Y-10192800D02*
X39677200Y-10358000D01*
X39512000Y-8058000D02*
X39512000Y-10192800D01*
X37912000Y-8058000D02*
X39512000Y-8058000D01*
D20*
X20562000Y-8608000D02*
X20412000Y-8608000D01*
X20412000Y-8608000D02*
X19162000Y-9858000D01*
X19162000Y-9858000D02*
X19162000Y-10958000D01*
D21*
X20562000Y-8608000D02*
X20312000Y-8608000D01*
X54012000Y-31758000D02*
X54737300Y-31758000D01*
X54739000Y-31758000D02*
X54737300Y-31758000D01*
X55621400Y-30875600D02*
X54739000Y-31758000D01*
X46092000Y-10598000D02*
X46692000Y-11198000D01*
X46692000Y-11198000D02*
X46692000Y-11598000D01*
X56312000Y-43758000D02*
X53582000Y-43758000D01*
X53582000Y-43758000D02*
X53332000Y-43508000D01*
X56312000Y-43758000D02*
X56292000Y-43758000D01*
X56312000Y-41358000D02*
X56312000Y-43533300D01*
X56312000Y-43533300D02*
X56312000Y-43758000D01*
X21217000Y-14258000D02*
X21217000Y-12970000D01*
X20112000Y-14258000D02*
X20837300Y-14258000D01*
X21217000Y-14258000D02*
X20837300Y-14258000D01*
X21286700Y-14327700D02*
X21217000Y-14258000D01*
X21286700Y-14358000D02*
X21286700Y-14327700D01*
X22012000Y-14358000D02*
X21286700Y-14358000D01*
X43712000Y-21458000D02*
X43007700Y-21458000D01*
X43912000Y-21658000D02*
X43712000Y-21458000D01*
X7062000Y-9458000D02*
X6012000Y-9458000D01*
X6012000Y-12658000D02*
X6962000Y-12658000D01*
X41262000Y-29908000D02*
X40486700Y-29908000D01*
X40285100Y-29908000D02*
X40135100Y-29758000D01*
X40486700Y-29908000D02*
X40285100Y-29908000D01*
X18212000Y-47308000D02*
X19762000Y-47308000D01*
X18162000Y-47358000D02*
X18212000Y-47308000D01*
X6962000Y-47708000D02*
X8612000Y-47708000D01*
X8612000Y-47708000D02*
X8662000Y-47758000D01*
X6962000Y-47708000D02*
X7237300Y-47758000D01*
X54012000Y-29358000D02*
X54737300Y-29358000D01*
X54737300Y-29834900D02*
X55086200Y-30183800D01*
X54737300Y-29358000D02*
X54737300Y-29834900D01*
X6962000Y-45958000D02*
X4412000Y-45958000D01*
X7662000Y-46658000D02*
X6962000Y-45958000D01*
X4262000Y-45958000D02*
X4412000Y-45958000D01*
X38462000Y-27728000D02*
X38522000Y-27728000D01*
X36372000Y-25638000D02*
X38462000Y-27728000D01*
X18912000Y-46408000D02*
X22062000Y-46408000D01*
X17362000Y-46658000D02*
X18662000Y-46658000D01*
X18662000Y-46658000D02*
X18912000Y-46408000D01*
M02*
