%TF.GenerationSoftware,KiCad,Pcbnew,4.0.1-stable*%
%TF.CreationDate,2016-08-15T16:12:19+09:00*%
%TF.ProjectId,Shimonso-IoT-Type-R,5368696D6F6E736F2D496F542D547970,rev?*%
%TF.FileFunction,Copper,L4,Bot,Signal*%
%FSLAX46Y46*%
G04 Gerber Fmt 4.6, Leading zero omitted, Abs format (unit mm)*
G04 Created by KiCad (PCBNEW 4.0.1-stable) date 2016/08/15 16:12:19*
%MOMM*%
G01*
G04 APERTURE LIST*
%ADD10C,0.100000*%
%ADD11R,0.700000X0.800000*%
%ADD12R,2.235200X2.235200*%
%ADD13R,0.800000X0.700000*%
%ADD14O,0.890000X1.550000*%
%ADD15O,1.250000X0.950000*%
%ADD16R,0.500000X2.000000*%
%ADD17C,1.600000*%
%ADD18C,0.600000*%
%ADD19C,0.200000*%
%ADD20C,0.350000*%
%ADD21C,0.180000*%
%ADD22C,0.250000*%
G04 APERTURE END LIST*
D10*
D11*
X27512000Y-11458000D03*
X29212000Y-11458000D03*
D12*
X56562000Y-8358000D03*
X53062000Y-8358000D03*
X49562000Y-8358000D03*
X76262000Y-4058000D03*
X2362000Y-52258000D03*
X4662000Y-42958000D03*
D13*
X6962000Y-47708000D03*
X6962000Y-49408000D03*
X19762000Y-50208000D03*
X19762000Y-51908000D03*
X6962000Y-50608000D03*
X6962000Y-52308000D03*
D14*
X16762000Y-52708000D03*
X9762000Y-52708000D03*
D15*
X15762000Y-50008000D03*
X10762000Y-50008000D03*
D16*
X34112000Y-40908000D03*
X34112000Y-36508000D03*
X34912000Y-36508000D03*
X34912000Y-40908000D03*
X36512000Y-40908000D03*
X36512000Y-36508000D03*
X35712000Y-36508000D03*
X35712000Y-40908000D03*
X38912000Y-40908000D03*
X38912000Y-36508000D03*
X39712000Y-36508000D03*
X39712000Y-40908000D03*
X38112000Y-40908000D03*
X38112000Y-36508000D03*
X37312000Y-36508000D03*
X37312000Y-40908000D03*
X43712000Y-40908000D03*
X43712000Y-36508000D03*
X44512000Y-36508000D03*
X44512000Y-40908000D03*
X42112000Y-40908000D03*
X42112000Y-36508000D03*
X42912000Y-36508000D03*
X42912000Y-40908000D03*
X41312000Y-40908000D03*
X41312000Y-36508000D03*
X40512000Y-36508000D03*
X40512000Y-40908000D03*
X27712000Y-40908000D03*
X27712000Y-36508000D03*
X28512000Y-36508000D03*
X28512000Y-40908000D03*
X30112000Y-40908000D03*
X30112000Y-36508000D03*
X29312000Y-36508000D03*
X29312000Y-40908000D03*
X32512000Y-40908000D03*
X32512000Y-36508000D03*
X33312000Y-36508000D03*
X33312000Y-40908000D03*
X31712000Y-40908000D03*
X31712000Y-36508000D03*
X30912000Y-36508000D03*
X30912000Y-40908000D03*
X24512000Y-40908000D03*
X24512000Y-36508000D03*
X25312000Y-36508000D03*
X25312000Y-40908000D03*
X26912000Y-40908000D03*
X26912000Y-36508000D03*
X26112000Y-36508000D03*
X26112000Y-40908000D03*
X22912000Y-40908000D03*
X22912000Y-36508000D03*
X23712000Y-36508000D03*
X23712000Y-40908000D03*
X22112000Y-40908000D03*
X22112000Y-36508000D03*
X21312000Y-36508000D03*
X21312000Y-40908000D03*
D17*
X10162000Y-5158000D03*
X10162000Y-3158000D03*
X12162000Y-5158000D03*
X12162000Y-3158000D03*
X14162000Y-5158000D03*
X14162000Y-3158000D03*
X16162000Y-5158000D03*
X16162000Y-3158000D03*
X18162000Y-5158000D03*
X18162000Y-3158000D03*
X20162000Y-5158000D03*
X20162000Y-3158000D03*
X22162000Y-5158000D03*
X22162000Y-3158000D03*
X24162000Y-5158000D03*
X24162000Y-3158000D03*
X26162000Y-5158000D03*
X26162000Y-3158000D03*
X28162000Y-5158000D03*
X28162000Y-3158000D03*
X30162000Y-5158000D03*
X30162000Y-3158000D03*
X32162000Y-5158000D03*
X32162000Y-3158000D03*
X34162000Y-5158000D03*
X34162000Y-3158000D03*
X36162000Y-5158000D03*
X36162000Y-3158000D03*
X38162000Y-5158000D03*
X38162000Y-3158000D03*
X40162000Y-5158000D03*
X40162000Y-3158000D03*
X42162000Y-5158000D03*
X42162000Y-3158000D03*
X44162000Y-5158000D03*
X44162000Y-3158000D03*
X46162000Y-5158000D03*
X46162000Y-3158000D03*
X48162000Y-5158000D03*
X48162000Y-3158000D03*
D13*
X22862000Y-20608000D03*
X22862000Y-22308000D03*
X27162000Y-15008000D03*
X27162000Y-16708000D03*
X43862000Y-17508000D03*
X43862000Y-19208000D03*
X20562000Y-6908000D03*
X20562000Y-8608000D03*
D11*
X18412000Y-14258000D03*
X20112000Y-14258000D03*
X54512000Y-44658000D03*
X52812000Y-44658000D03*
X43702000Y-11598000D03*
X42002000Y-11598000D03*
X79452000Y-44598000D03*
X77752000Y-44598000D03*
X79572000Y-49488000D03*
X77872000Y-49488000D03*
X44992000Y-11598000D03*
X46692000Y-11598000D03*
X72912000Y-43158000D03*
X74612000Y-43158000D03*
X58012000Y-43758000D03*
X56312000Y-43758000D03*
D13*
X69462000Y-5208000D03*
X69462000Y-3508000D03*
X64262000Y-5108000D03*
X64262000Y-3408000D03*
D11*
X52312000Y-31758000D03*
X54012000Y-31758000D03*
X52312000Y-29358000D03*
X54012000Y-29358000D03*
D13*
X73862000Y-34808000D03*
X73862000Y-36508000D03*
X76762000Y-34708000D03*
X76762000Y-36408000D03*
X58162000Y-3308000D03*
X58162000Y-1608000D03*
D11*
X41212000Y-8058000D03*
X39512000Y-8058000D03*
X37912000Y-8058000D03*
X36212000Y-8058000D03*
X41112000Y-27158000D03*
X42812000Y-27158000D03*
D13*
X41262000Y-29908000D03*
X41262000Y-31608000D03*
D11*
X29512000Y-32758000D03*
X31212000Y-32758000D03*
X16012000Y-18758000D03*
X14312000Y-18758000D03*
X16012000Y-16358000D03*
X14312000Y-16358000D03*
D13*
X16862000Y-23408000D03*
X16862000Y-25108000D03*
X24062000Y-16208000D03*
X24062000Y-17908000D03*
D11*
X6012000Y-12658000D03*
X4312000Y-12658000D03*
X6012000Y-9458000D03*
X4312000Y-9458000D03*
X32012000Y-22558000D03*
X33712000Y-22558000D03*
X54212000Y-20658000D03*
X55912000Y-20658000D03*
X43912000Y-21658000D03*
X45612000Y-21658000D03*
X44012000Y-23958000D03*
X45712000Y-23958000D03*
X58112000Y-14258000D03*
X59812000Y-14258000D03*
X22012000Y-14358000D03*
X23712000Y-14358000D03*
X55812000Y-46458000D03*
X57512000Y-46458000D03*
X81812000Y-46458000D03*
X83512000Y-46458000D03*
X74712000Y-40658000D03*
X73012000Y-40658000D03*
X56312000Y-41358000D03*
X58012000Y-41358000D03*
X63612000Y-24058000D03*
X65312000Y-24058000D03*
X63612000Y-26958000D03*
X65312000Y-26958000D03*
X76512000Y-21158000D03*
X74812000Y-21158000D03*
X76412000Y-13558000D03*
X74712000Y-13558000D03*
X82212000Y-38958000D03*
X83912000Y-38958000D03*
X57812000Y-27358000D03*
X59512000Y-27358000D03*
X71712000Y-21158000D03*
X73412000Y-21158000D03*
X71512000Y-13558000D03*
X73212000Y-13558000D03*
D13*
X22062000Y-46408000D03*
X22062000Y-44708000D03*
X19762000Y-47308000D03*
X19762000Y-49008000D03*
D11*
X2712000Y-45958000D03*
X4412000Y-45958000D03*
X53612000Y-49958000D03*
X51912000Y-49958000D03*
D18*
X31662000Y-31598000D03*
X19437000Y-15633000D03*
X33012000Y-42633000D03*
X30112000Y-42483000D03*
X41312000Y-38156000D03*
X43562000Y-38058000D03*
X19687000Y-24183000D03*
X80162000Y-29758000D03*
X72562000Y-29558000D03*
X53962000Y-39958000D03*
X37262000Y-27358000D03*
X55762000Y-12858000D03*
X54362000Y-15758000D03*
X43462000Y-20558000D03*
X41862000Y-23058000D03*
X23662000Y-12558000D03*
X39462000Y-22558000D03*
X14762000Y-33558000D03*
X16662000Y-25758000D03*
X56562000Y-20558000D03*
X60562000Y-14158000D03*
X73962000Y-13658000D03*
X74162000Y-20758000D03*
X60262000Y-27358000D03*
X34462000Y-22658000D03*
X42062000Y-31658000D03*
X43462000Y-27258000D03*
X58162000Y-46458000D03*
X58862000Y-41258000D03*
X19062000Y-52058000D03*
X22762000Y-44758000D03*
X4662000Y-8658000D03*
X13662000Y-18758000D03*
X23562000Y-18558000D03*
X23962000Y-13758000D03*
X29862000Y-10858000D03*
X41962000Y-12458000D03*
X46362000Y-24658000D03*
X46362000Y-21658000D03*
X72262000Y-40358000D03*
X83562000Y-45658000D03*
X83562000Y-39858000D03*
X66062000Y-24758000D03*
X65862000Y-26858000D03*
X38862000Y-47058000D03*
X1862000Y-41058000D03*
X17362000Y-44758000D03*
X9162000Y-45458000D03*
X10662000Y-30658000D03*
X17162000Y-8058000D03*
X36062000Y-10358000D03*
X42262000Y-8658000D03*
X56862000Y-16058000D03*
X78837000Y-40033000D03*
X64862000Y-46958000D03*
X63662000Y-34558000D03*
X58162000Y-34558000D03*
X63562000Y-30558000D03*
X74962000Y-8658000D03*
X75162000Y-16358000D03*
X67962000Y-15858000D03*
X66062000Y-8658000D03*
X2662000Y-16058000D03*
X62062000Y-3458000D03*
X67162000Y-3258000D03*
X22607500Y-34942000D03*
X26112000Y-42460000D03*
X24962000Y-34948000D03*
X32512000Y-34910000D03*
X30571600Y-34944000D03*
X28062000Y-34948000D03*
X40512000Y-42499000D03*
X42912000Y-42477000D03*
X37631000Y-42493000D03*
X38831600Y-38080000D03*
X36069600Y-42470000D03*
X36512000Y-34293000D03*
X74462000Y-48715000D03*
X68462000Y-48722000D03*
X71626000Y-48710000D03*
X48662000Y-48760000D03*
X42662000Y-48744000D03*
X45662000Y-48710000D03*
X7912300Y-52073000D03*
X9453900Y-48908000D03*
X18137900Y-45533000D03*
X30322000Y-31648000D03*
X39762000Y-26258000D03*
X79537000Y-48583000D03*
X53562000Y-49358000D03*
X30462000Y-24458000D03*
X32062000Y-21958000D03*
X23262000Y-7058000D03*
X21062000Y-7058000D03*
X17662000Y-23258000D03*
X13262000Y-15358000D03*
X17462000Y-16358000D03*
X22862000Y-16558000D03*
X29662000Y-48458000D03*
X35762000Y-26258000D03*
X58862000Y-43858000D03*
X63662000Y-29158000D03*
X63562000Y-25558000D03*
X80162000Y-44558000D03*
X72162000Y-43058000D03*
X65400000Y-5200000D03*
X76400000Y-12600000D03*
X45900000Y-7200000D03*
X34300000Y-7800000D03*
X58200000Y-4200000D03*
X66200000Y-19200000D03*
X66100000Y-11900000D03*
X71600000Y-20100000D03*
X71500000Y-12600000D03*
X75287000Y-23833000D03*
X27512000Y-23158000D03*
X28712000Y-18358000D03*
X57062000Y-13858000D03*
X54562000Y-13658000D03*
X51200000Y-24158000D03*
X51162000Y-27958000D03*
X55962000Y-16658000D03*
X55162000Y-42758000D03*
X49062000Y-42558000D03*
X52962000Y-38658000D03*
X8962000Y-44206000D03*
X23562000Y-20658000D03*
X26562000Y-11458000D03*
X28362000Y-14958000D03*
X51562000Y-29458000D03*
X57862000Y-28458000D03*
X42862000Y-17458000D03*
X42662000Y-22658000D03*
X70562000Y-5358000D03*
X81400000Y-38900000D03*
X75300000Y-34700000D03*
X76500000Y-20100000D03*
X76374000Y-41258000D03*
X53287000Y-20458000D03*
X11630400Y-51270000D03*
X17831800Y-49053000D03*
X35334700Y-38073000D03*
X50902000Y-36418000D03*
X52012000Y-38048000D03*
X45704000Y-43047000D03*
X68680000Y-44782000D03*
X78037000Y-38183000D03*
X37460300Y-33802000D03*
X71215000Y-28061000D03*
X74358000Y-38321000D03*
X36604400Y-38203000D03*
X39132300Y-33793000D03*
X50389000Y-33183000D03*
X66462000Y-48737000D03*
X37858700Y-38086000D03*
X49198800Y-37974000D03*
X57750000Y-47800000D03*
X52604000Y-49094000D03*
X48910800Y-39086000D03*
X42234000Y-38091000D03*
X40387000Y-38758000D03*
X39973200Y-34284000D03*
X56208000Y-28711000D03*
X69510000Y-45600000D03*
X31796000Y-42472000D03*
X47374000Y-40083000D03*
X26378500Y-45783000D03*
X52316000Y-33558000D03*
X26038800Y-34847000D03*
X36391100Y-46772000D03*
X34340300Y-42480000D03*
X26042400Y-38114000D03*
X41818400Y-45583000D03*
X22256500Y-43653000D03*
X22593500Y-38846000D03*
X8224200Y-7252000D03*
X6803300Y-7603000D03*
X7491500Y-1724300D03*
X9310000Y-38158000D03*
X20463800Y-48172000D03*
X14889400Y-8786000D03*
X13137300Y-42348000D03*
X26176700Y-14090000D03*
X51787000Y-17733000D03*
X47112000Y-19208000D03*
X29706900Y-14585000D03*
X26152400Y-16556000D03*
X41342000Y-24458000D03*
X16747500Y-17676000D03*
X25477300Y-13564000D03*
X24290800Y-22117000D03*
X41893800Y-19609000D03*
X50365000Y-3936200D03*
X58762000Y-11908000D03*
X52750000Y-4706000D03*
X45709500Y-12898000D03*
X48879800Y-12910000D03*
X55062000Y-31733000D03*
X49952100Y-12948000D03*
X56284000Y-4015100D03*
X60294000Y-32258000D03*
X59843000Y-1683200D03*
X65281000Y-1683200D03*
X69105000Y-1783700D03*
X76962000Y-49183000D03*
X76833000Y-44525000D03*
X65824000Y-32258000D03*
X71680000Y-44012000D03*
X66208000Y-52958000D03*
X60041000Y-35302000D03*
X50472000Y-44128000D03*
X51662000Y-50917000D03*
X49922000Y-43338000D03*
X55112000Y-48860000D03*
X59217000Y-45478000D03*
X55960000Y-36600000D03*
X39677200Y-10358000D03*
X20942000Y-15568000D03*
X21362000Y-21018000D03*
X18821800Y-11750000D03*
X18542000Y-20078000D03*
X18251700Y-15448000D03*
X56523000Y-30935000D03*
X47685100Y-9124000D03*
X48771000Y-10802000D03*
X47550600Y-12272000D03*
X6727500Y-43531000D03*
X54237000Y-43533000D03*
X19881500Y-11908000D03*
X42849000Y-23950000D03*
X6012000Y-10440000D03*
X6308200Y-13689000D03*
X40135100Y-29758000D03*
X18473400Y-47570000D03*
X9052400Y-47424000D03*
X54220000Y-30310000D03*
X8292600Y-46133000D03*
X6610300Y-44451000D03*
X8080900Y-47012000D03*
X20455300Y-46428000D03*
D19*
X31212000Y-32048000D02*
X31212000Y-32758000D01*
X31662000Y-31598000D02*
X31212000Y-32048000D01*
D20*
X46362000Y-21658000D02*
X45612000Y-21658000D01*
X33312000Y-42333000D02*
X33012000Y-42633000D01*
X33312000Y-40908000D02*
X33312000Y-42333000D01*
X29687000Y-42333000D02*
X29962300Y-42333000D01*
X29962300Y-42333000D02*
X30112000Y-42483000D01*
X41312000Y-36508000D02*
X41312000Y-38156000D01*
X43712000Y-37908000D02*
X43712000Y-36508000D01*
X43562000Y-38058000D02*
X43712000Y-37908000D01*
X16862000Y-25558000D02*
X16662000Y-25758000D01*
X16862000Y-25108000D02*
X16862000Y-25558000D01*
X56462000Y-20658000D02*
X55912000Y-20658000D01*
X56562000Y-20558000D02*
X56462000Y-20658000D01*
X60462000Y-14258000D02*
X60562000Y-14158000D01*
X59812000Y-14258000D02*
X60462000Y-14258000D01*
X73862000Y-13558000D02*
X73212000Y-13558000D01*
X73962000Y-13658000D02*
X73862000Y-13558000D01*
X74562000Y-21158000D02*
X74162000Y-20758000D01*
X74812000Y-21158000D02*
X74562000Y-21158000D01*
X41662000Y-8058000D02*
X42262000Y-8658000D01*
X41212000Y-8058000D02*
X41662000Y-8058000D01*
X59512000Y-27358000D02*
X60262000Y-27358000D01*
X34362000Y-22558000D02*
X33712000Y-22558000D01*
X34462000Y-22658000D02*
X34362000Y-22558000D01*
X42012000Y-31608000D02*
X42062000Y-31658000D01*
X41262000Y-31608000D02*
X42012000Y-31608000D01*
X43362000Y-27158000D02*
X42812000Y-27158000D01*
X43462000Y-27258000D02*
X43362000Y-27158000D01*
X57512000Y-46458000D02*
X58162000Y-46458000D01*
X58762000Y-41358000D02*
X58012000Y-41358000D01*
X58862000Y-41258000D02*
X58762000Y-41358000D01*
X19212000Y-51908000D02*
X19062000Y-52058000D01*
X19762000Y-51908000D02*
X19212000Y-51908000D01*
X22712000Y-44708000D02*
X22762000Y-44758000D01*
X22062000Y-44708000D02*
X22712000Y-44708000D01*
X4312000Y-9008000D02*
X4662000Y-8658000D01*
X4312000Y-9458000D02*
X4312000Y-9008000D01*
X4312000Y-9458000D02*
X4312000Y-12658000D01*
X14312000Y-18758000D02*
X13662000Y-18758000D01*
X14312000Y-18758000D02*
X14312000Y-16358000D01*
X24062000Y-18058000D02*
X24062000Y-17908000D01*
X23562000Y-18558000D02*
X24062000Y-18058000D01*
X23712000Y-14008000D02*
X23962000Y-13758000D01*
X23712000Y-14358000D02*
X23712000Y-14008000D01*
X29262000Y-11458000D02*
X29212000Y-11458000D01*
X29862000Y-10858000D02*
X29262000Y-11458000D01*
X42002000Y-12418000D02*
X42002000Y-11598000D01*
X41962000Y-12458000D02*
X42002000Y-12418000D01*
X45712000Y-24008000D02*
X46362000Y-24658000D01*
X45712000Y-23958000D02*
X45712000Y-24008000D01*
X72562000Y-40658000D02*
X72262000Y-40358000D01*
X73012000Y-40658000D02*
X72562000Y-40658000D01*
X83512000Y-45708000D02*
X83512000Y-46458000D01*
X83562000Y-45658000D02*
X83512000Y-45708000D01*
X83912000Y-39508000D02*
X83562000Y-39858000D01*
X83912000Y-38958000D02*
X83912000Y-39508000D01*
X65362000Y-24058000D02*
X66062000Y-24758000D01*
X65312000Y-24058000D02*
X65362000Y-24058000D01*
X65762000Y-26958000D02*
X65862000Y-26858000D01*
X65312000Y-26958000D02*
X65762000Y-26958000D01*
X22748200Y-35083000D02*
X22607500Y-34942000D01*
X22912000Y-35083000D02*
X22748200Y-35083000D01*
X22912000Y-36508000D02*
X22912000Y-35083000D01*
X25096200Y-35083000D02*
X24962000Y-34948000D01*
X25312000Y-35083000D02*
X25096200Y-35083000D01*
X25312000Y-36508000D02*
X25312000Y-35083000D01*
X32512000Y-34910000D02*
X32512000Y-36508000D01*
X30112000Y-35083000D02*
X30112000Y-36508000D01*
X30433400Y-35083000D02*
X30112000Y-35083000D01*
X30571600Y-34944000D02*
X30433400Y-35083000D01*
X27927800Y-35083000D02*
X28062000Y-34948000D01*
X27712000Y-35083000D02*
X27927800Y-35083000D01*
X27712000Y-36508000D02*
X27712000Y-35083000D01*
X26112000Y-40908000D02*
X26112000Y-42460000D01*
X40512000Y-40908000D02*
X40512000Y-42499000D01*
X42912000Y-42477000D02*
X42912000Y-40908000D01*
X38112000Y-42333000D02*
X38112000Y-40908000D01*
X37791100Y-42333000D02*
X38112000Y-42333000D01*
X37631000Y-42493000D02*
X37791100Y-42333000D01*
X35933000Y-42333000D02*
X36069600Y-42470000D01*
X35712000Y-42333000D02*
X35933000Y-42333000D01*
X35712000Y-40908000D02*
X35712000Y-42333000D01*
X7787300Y-52308000D02*
X6962000Y-52308000D01*
X7787300Y-52198000D02*
X7787300Y-52308000D01*
X7912300Y-52073000D02*
X7787300Y-52198000D01*
X36512000Y-36508000D02*
X36512000Y-34293000D01*
X38912000Y-37999000D02*
X38831600Y-38080000D01*
X38912000Y-36508000D02*
X38912000Y-37999000D01*
X30912000Y-42333000D02*
X29962300Y-42333000D01*
X30912000Y-40908000D02*
X30912000Y-42333000D01*
X29962300Y-42333000D02*
X29687000Y-42333000D01*
X28512000Y-42333000D02*
X28512000Y-40908000D01*
X29687000Y-42333000D02*
X28512000Y-42333000D01*
X74712000Y-13558000D02*
X73862000Y-13558000D01*
X73862000Y-13558000D02*
X73212000Y-13558000D01*
X74812000Y-21158000D02*
X74562000Y-21158000D01*
X74562000Y-21158000D02*
X73412000Y-21158000D01*
X12828900Y-45533000D02*
X9453900Y-48908000D01*
X18137900Y-45533000D02*
X12828900Y-45533000D01*
D19*
X30322000Y-31648000D02*
X29512000Y-32458000D01*
X29512000Y-32458000D02*
X29512000Y-32758000D01*
D20*
X58012000Y-43758000D02*
X58762000Y-43758000D01*
X58762000Y-43758000D02*
X58862000Y-43858000D01*
X40662000Y-27158000D02*
X41112000Y-27158000D01*
X39762000Y-26258000D02*
X40662000Y-27158000D01*
X79572000Y-48618000D02*
X79572000Y-49488000D01*
X79537000Y-48583000D02*
X79572000Y-48618000D01*
X80122000Y-44598000D02*
X80162000Y-44558000D01*
X79452000Y-44598000D02*
X80122000Y-44598000D01*
X81312000Y-46458000D02*
X79452000Y-44598000D01*
X81812000Y-46458000D02*
X81312000Y-46458000D01*
X55962000Y-46308000D02*
X55812000Y-46458000D01*
X55962000Y-44658000D02*
X55962000Y-46308000D01*
X53612000Y-49408000D02*
X53612000Y-49958000D01*
X53562000Y-49358000D02*
X53612000Y-49408000D01*
D19*
X32012000Y-22008000D02*
X32062000Y-21958000D01*
X32012000Y-22558000D02*
X32012000Y-22008000D01*
D20*
X20712000Y-7058000D02*
X20562000Y-6908000D01*
X21062000Y-7058000D02*
X20712000Y-7058000D01*
X23212000Y-16208000D02*
X22862000Y-16558000D01*
X24062000Y-16208000D02*
X23212000Y-16208000D01*
X17512000Y-23408000D02*
X16862000Y-23408000D01*
X17662000Y-23258000D02*
X17512000Y-23408000D01*
X16012000Y-18758000D02*
X16012000Y-16358000D01*
X17462000Y-15208000D02*
X18412000Y-14258000D01*
X17462000Y-16358000D02*
X17462000Y-15208000D01*
X17462000Y-16358000D02*
X16012000Y-16358000D01*
X58862000Y-43858000D02*
X58762000Y-43758000D01*
X63562000Y-26908000D02*
X63612000Y-26958000D01*
X63562000Y-25558000D02*
X63562000Y-26908000D01*
X63612000Y-25508000D02*
X63612000Y-24058000D01*
X63562000Y-25558000D02*
X63612000Y-25508000D01*
X72262000Y-43158000D02*
X72912000Y-43158000D01*
X72162000Y-43058000D02*
X72262000Y-43158000D01*
X65308000Y-5108000D02*
X64262000Y-5108000D01*
X65400000Y-5200000D02*
X65308000Y-5108000D01*
X76412000Y-12612000D02*
X76400000Y-12600000D01*
X76412000Y-13558000D02*
X76412000Y-12612000D01*
X57362000Y-44658000D02*
X55962000Y-44658000D01*
X58012000Y-44008000D02*
X57362000Y-44658000D01*
X55962000Y-44658000D02*
X54512000Y-44658000D01*
X58162000Y-4162000D02*
X58162000Y-3308000D01*
X58200000Y-4200000D02*
X58162000Y-4162000D01*
X71712000Y-20212000D02*
X71712000Y-21158000D01*
X71600000Y-20100000D02*
X71712000Y-20212000D01*
X71512000Y-12612000D02*
X71512000Y-13558000D01*
X71500000Y-12600000D02*
X71512000Y-12612000D01*
X27512000Y-19558000D02*
X27512000Y-23158000D01*
X28712000Y-18358000D02*
X27512000Y-19558000D01*
X23512000Y-20608000D02*
X22862000Y-20608000D01*
X23562000Y-20658000D02*
X23512000Y-20608000D01*
X57462000Y-14258000D02*
X57062000Y-13858000D01*
X58112000Y-14258000D02*
X57462000Y-14258000D01*
X26562000Y-11458000D02*
X27512000Y-11458000D01*
X28312000Y-15008000D02*
X27162000Y-15008000D01*
X28362000Y-14958000D02*
X28312000Y-15008000D01*
X51662000Y-29358000D02*
X52312000Y-29358000D01*
X51562000Y-29458000D02*
X51662000Y-29358000D01*
X57812000Y-28408000D02*
X57862000Y-28458000D01*
X57812000Y-27358000D02*
X57812000Y-28408000D01*
X52312000Y-31758000D02*
X52312000Y-29358000D01*
X42912000Y-17508000D02*
X43862000Y-17508000D01*
X42862000Y-17458000D02*
X42912000Y-17508000D01*
X43962000Y-23958000D02*
X42662000Y-22658000D01*
X44012000Y-23958000D02*
X43962000Y-23958000D01*
X70412000Y-5208000D02*
X69462000Y-5208000D01*
X70562000Y-5358000D02*
X70412000Y-5208000D01*
D21*
X81458000Y-38958000D02*
X81400000Y-38900000D01*
D20*
X76754000Y-34700000D02*
X76762000Y-34708000D01*
X75300000Y-34700000D02*
X76754000Y-34700000D01*
X75192000Y-34808000D02*
X75300000Y-34700000D01*
X73862000Y-34808000D02*
X75192000Y-34808000D01*
X75300000Y-34700000D02*
X75300000Y-34708000D01*
D21*
X73962000Y-34708000D02*
X73862000Y-34808000D01*
D22*
X76512000Y-20112000D02*
X76500000Y-20100000D01*
X76512000Y-21158000D02*
X76512000Y-20112000D01*
D20*
X82212000Y-38958000D02*
X81458000Y-38958000D01*
X81458000Y-38958000D02*
X81400000Y-38900000D01*
D22*
X75774000Y-40658000D02*
X76374000Y-41258000D01*
X75075000Y-40658000D02*
X75774000Y-40658000D01*
X74612000Y-41121000D02*
X74612000Y-43158000D01*
X75075000Y-40658000D02*
X74612000Y-41121000D01*
X74712000Y-40658000D02*
X75075000Y-40658000D01*
D19*
X53487000Y-20658000D02*
X54212000Y-20658000D01*
X53287000Y-20458000D02*
X53487000Y-20658000D01*
D22*
X7737300Y-50608000D02*
X7349700Y-50608000D01*
X8399700Y-51270000D02*
X7737300Y-50608000D01*
X11630400Y-51270000D02*
X8399700Y-51270000D01*
X6962000Y-50220000D02*
X6962000Y-49408000D01*
X7349700Y-50608000D02*
X6962000Y-50220000D01*
X6962000Y-50608000D02*
X7349700Y-50608000D01*
X19762000Y-49008000D02*
X19762000Y-50208000D01*
X18986700Y-50208000D02*
X17831800Y-49053000D01*
X19762000Y-50208000D02*
X18986700Y-50208000D01*
D19*
X52012000Y-38048000D02*
X52012000Y-37528000D01*
X34687000Y-38073000D02*
X34112000Y-37498000D01*
X35334700Y-38073000D02*
X34687000Y-38073000D01*
X52012000Y-37528000D02*
X50902000Y-36418000D01*
X34112000Y-37498000D02*
X34112000Y-36508000D01*
D22*
X76762000Y-36408000D02*
X76762000Y-38148000D01*
D19*
X75748000Y-38148000D02*
X76762000Y-38148000D01*
X78001000Y-38148000D02*
X78037000Y-38183000D01*
X76762000Y-38148000D02*
X78001000Y-38148000D01*
D22*
X72575000Y-44782000D02*
X68680000Y-44782000D01*
X73737000Y-43620000D02*
X72575000Y-44782000D01*
X73737000Y-40158000D02*
X73737000Y-43620000D01*
X75748000Y-38148000D02*
X73737000Y-40158000D01*
X34912000Y-34231000D02*
X34912000Y-36508000D01*
X36025000Y-33118000D02*
X34912000Y-34231000D01*
X43683000Y-33118000D02*
X36025000Y-33118000D01*
X45704000Y-35139000D02*
X43683000Y-33118000D01*
X45704000Y-43047000D02*
X45704000Y-35139000D01*
X71215000Y-33498000D02*
X71215000Y-28061000D01*
X73499000Y-35783000D02*
X71215000Y-33498000D01*
X73862000Y-35783000D02*
X73499000Y-35783000D01*
X73862000Y-36145000D02*
X73862000Y-35783000D01*
D19*
X74358000Y-36642000D02*
X74358000Y-38321000D01*
X73862000Y-36145000D02*
X74358000Y-36642000D01*
D22*
X37275900Y-33618000D02*
X37460300Y-33802000D01*
X36232300Y-33618000D02*
X37275900Y-33618000D01*
X35712000Y-34138000D02*
X36232300Y-33618000D01*
X35712000Y-36508000D02*
X35712000Y-34138000D01*
X73862000Y-36508000D02*
X73862000Y-36145000D01*
X37165700Y-38764000D02*
X36604400Y-38203000D01*
X39105000Y-38764000D02*
X37165700Y-38764000D01*
X39712000Y-38157000D02*
X39105000Y-38764000D01*
X39712000Y-36508000D02*
X39712000Y-38157000D01*
X66462000Y-46148000D02*
X66462000Y-48737000D01*
X53177000Y-32862000D02*
X66462000Y-46148000D01*
X51861000Y-32862000D02*
X53177000Y-32862000D01*
X51540000Y-33183000D02*
X51861000Y-32862000D01*
X50389000Y-33183000D02*
X51540000Y-33183000D01*
X38112000Y-35133000D02*
X38112000Y-36508000D01*
X39132300Y-34112000D02*
X38112000Y-35133000D01*
X39132300Y-33793000D02*
X39132300Y-34112000D01*
X53537000Y-42313000D02*
X49198800Y-37974000D01*
X53537000Y-45507000D02*
X53537000Y-42313000D01*
X55830000Y-47800000D02*
X53537000Y-45507000D01*
X57750000Y-47800000D02*
X55830000Y-47800000D01*
X37655700Y-37883000D02*
X37858700Y-38086000D01*
X37312000Y-37883000D02*
X37655700Y-37883000D01*
X37312000Y-36508000D02*
X37312000Y-37883000D01*
X42112000Y-37969000D02*
X42234000Y-38091000D01*
X42112000Y-36508000D02*
X42112000Y-37969000D01*
X51153000Y-41328000D02*
X48910800Y-39086000D01*
X51153000Y-47643000D02*
X51153000Y-41328000D01*
X52604000Y-49094000D02*
X51153000Y-47643000D01*
X40974000Y-38832000D02*
X40387000Y-38758000D01*
X43969300Y-38832000D02*
X40974000Y-38832000D01*
X45137400Y-37663000D02*
X43969300Y-38832000D01*
X45137400Y-35280000D02*
X45137400Y-37663000D01*
X44990500Y-35133000D02*
X45137400Y-35280000D01*
X42912000Y-35133000D02*
X44990500Y-35133000D01*
X42912000Y-36508000D02*
X42912000Y-35133000D01*
X56208000Y-29246000D02*
X56208000Y-28711000D01*
X67641000Y-40679000D02*
X56208000Y-29246000D01*
X67641000Y-44710000D02*
X67641000Y-40679000D01*
X68530000Y-45600000D02*
X67641000Y-44710000D01*
X69510000Y-45600000D02*
X68530000Y-45600000D01*
X39973200Y-34594000D02*
X39973200Y-34284000D01*
X40512000Y-35133000D02*
X39973200Y-34594000D01*
X40512000Y-36508000D02*
X40512000Y-35133000D01*
X31796000Y-42686000D02*
X31796000Y-42472000D01*
X31244900Y-43237000D02*
X31796000Y-42686000D01*
X28573000Y-43237000D02*
X31244900Y-43237000D01*
X27712000Y-42376000D02*
X28573000Y-43237000D01*
X27712000Y-40908000D02*
X27712000Y-42376000D01*
X33312000Y-35123000D02*
X33312000Y-36508000D01*
X35817700Y-32617000D02*
X33312000Y-35123000D01*
X43890300Y-32617000D02*
X35817700Y-32617000D01*
X47374000Y-36101000D02*
X43890300Y-32617000D01*
X47374000Y-40083000D02*
X47374000Y-36101000D01*
X26231100Y-45635000D02*
X26378500Y-45783000D01*
X21691200Y-45635000D02*
X26231100Y-45635000D01*
X20137200Y-44081000D02*
X21691200Y-45635000D01*
X20137200Y-35892000D02*
X20137200Y-44081000D01*
X21795500Y-34233000D02*
X20137200Y-35892000D01*
X23247900Y-34233000D02*
X21795500Y-34233000D01*
X24512000Y-35497000D02*
X23247900Y-34233000D01*
X24512000Y-36508000D02*
X24512000Y-35497000D01*
X48069300Y-37804000D02*
X52316000Y-33558000D01*
X48069300Y-41637000D02*
X48069300Y-37804000D01*
X41945900Y-47761000D02*
X48069300Y-41637000D01*
X32389300Y-47761000D02*
X41945900Y-47761000D01*
X26912000Y-42283000D02*
X32389300Y-47761000D01*
X26912000Y-40908000D02*
X26912000Y-42283000D01*
X26324500Y-35133000D02*
X26038800Y-34847000D01*
X26912000Y-35133000D02*
X26324500Y-35133000D01*
X26912000Y-36508000D02*
X26912000Y-35133000D01*
X26042400Y-37953000D02*
X26042400Y-38114000D01*
X26112000Y-37883000D02*
X26042400Y-37953000D01*
X26112000Y-36508000D02*
X26112000Y-37883000D01*
X34340300Y-44721000D02*
X34340300Y-42480000D01*
X36391100Y-46772000D02*
X34340300Y-44721000D01*
X45148800Y-42253000D02*
X41818400Y-45583000D01*
X45148800Y-39725000D02*
X45148800Y-42253000D01*
X44899600Y-39476000D02*
X45148800Y-39725000D01*
X25304600Y-39476000D02*
X44899600Y-39476000D01*
X23712000Y-37883000D02*
X25304600Y-39476000D01*
X23712000Y-36508000D02*
X23712000Y-37883000D01*
X22112000Y-37883000D02*
X22112000Y-36508000D01*
X22585800Y-37883000D02*
X22112000Y-37883000D01*
X23268800Y-38566000D02*
X22585800Y-37883000D01*
X23268800Y-39126000D02*
X23268800Y-38566000D01*
X22873300Y-39521000D02*
X23268800Y-39126000D01*
X20916600Y-39521000D02*
X22873300Y-39521000D01*
X20686600Y-39751000D02*
X20916600Y-39521000D01*
X20686600Y-42083000D02*
X20686600Y-39751000D01*
X22256500Y-43653000D02*
X20686600Y-42083000D01*
X22274800Y-38846000D02*
X22593500Y-38846000D01*
X21312000Y-37883000D02*
X22274800Y-38846000D01*
X21312000Y-36508000D02*
X21312000Y-37883000D01*
X6983500Y-7783000D02*
X6803300Y-7603000D01*
X6983500Y-13969000D02*
X6983500Y-7783000D01*
X1170600Y-19782000D02*
X6983500Y-13969000D01*
X1170600Y-45142000D02*
X1170600Y-19782000D01*
X1986700Y-45958000D02*
X1170600Y-45142000D01*
X2712000Y-45958000D02*
X1986700Y-45958000D01*
X8224200Y-3425000D02*
X8224200Y-7252000D01*
X9714800Y-1934400D02*
X8224200Y-3425000D01*
X10938400Y-1934400D02*
X9714800Y-1934400D01*
X12162000Y-3158000D02*
X10938400Y-1934400D01*
X7491500Y-36340000D02*
X9310000Y-38158000D01*
X7491500Y-1724300D02*
X7491500Y-36340000D01*
X20602900Y-48311000D02*
X20463800Y-48172000D01*
X20602900Y-50650000D02*
X20602900Y-48311000D01*
X20319600Y-50933000D02*
X20602900Y-50650000D01*
X18739000Y-50933000D02*
X20319600Y-50933000D01*
X17144000Y-49338000D02*
X18739000Y-50933000D01*
X17144000Y-47533000D02*
X17144000Y-49338000D01*
X18835900Y-45841000D02*
X17144000Y-47533000D01*
X18835900Y-45228000D02*
X18835900Y-45841000D01*
X16631900Y-43024000D02*
X18835900Y-45228000D01*
X12834100Y-43024000D02*
X16631900Y-43024000D01*
X12414500Y-42604000D02*
X12834100Y-43024000D01*
X12414500Y-10248000D02*
X12414500Y-42604000D01*
X15315700Y-7346000D02*
X12414500Y-10248000D01*
X17973700Y-7346000D02*
X15315700Y-7346000D01*
X20162000Y-5158000D02*
X17973700Y-7346000D01*
X15037400Y-8934000D02*
X14889400Y-8786000D01*
X15037400Y-30778000D02*
X15037400Y-8934000D01*
X13137300Y-32678000D02*
X15037400Y-30778000D01*
X13137300Y-42348000D02*
X13137300Y-32678000D01*
X24162000Y-10213000D02*
X24162000Y-5158000D01*
X26176700Y-12227000D02*
X24162000Y-10213000D01*
X26176700Y-14090000D02*
X26176700Y-12227000D01*
D19*
X48587000Y-17733000D02*
X51787000Y-17733000D01*
X47112000Y-19208000D02*
X48587000Y-17733000D01*
X28374500Y-7370000D02*
X26162000Y-5158000D01*
X28337000Y-7408000D02*
X28374500Y-7370000D01*
X28337000Y-13233000D02*
X28337000Y-7408000D01*
X29689100Y-14585000D02*
X28337000Y-13233000D01*
X29706900Y-14585000D02*
X29689100Y-14585000D01*
D22*
X26304100Y-16708000D02*
X26152400Y-16556000D01*
X27162000Y-16708000D02*
X26304100Y-16708000D01*
X32162000Y-13085000D02*
X32162000Y-5158000D01*
X28539100Y-16708000D02*
X32162000Y-13085000D01*
X27162000Y-16708000D02*
X28539100Y-16708000D01*
D19*
X40701889Y-23817889D02*
X20462107Y-23817889D01*
X41342000Y-24458000D02*
X40701889Y-23817889D01*
D22*
X16747500Y-17676000D02*
X16747500Y-20103000D01*
X16747500Y-20103000D02*
X20462107Y-23817889D01*
X25477100Y-13564000D02*
X25477300Y-13564000D01*
X25477100Y-16836000D02*
X25477100Y-13564000D01*
X25675800Y-17035000D02*
X25477100Y-16836000D01*
X25675800Y-20270000D02*
X25675800Y-17035000D01*
X24399600Y-21546000D02*
X25675800Y-20270000D01*
D19*
X24399600Y-21546000D02*
X24399600Y-22008000D01*
X24290800Y-22008000D02*
X24290800Y-22117000D01*
D22*
X24290800Y-22008000D02*
X24399600Y-22008000D01*
X23828200Y-22117000D02*
X24290800Y-22117000D01*
X23637300Y-22308000D02*
X23828200Y-22117000D01*
X22862000Y-22308000D02*
X23637300Y-22308000D01*
X42294400Y-19208000D02*
X41893800Y-19609000D01*
X43862000Y-19208000D02*
X42294400Y-19208000D01*
X51086000Y-4656000D02*
X50365000Y-3936200D01*
X51086000Y-12845000D02*
X51086000Y-4656000D01*
X44722800Y-19208000D02*
X51086000Y-12845000D01*
X43862000Y-19208000D02*
X44722800Y-19208000D01*
X36212000Y-5208000D02*
X36212000Y-8058000D01*
X36162000Y-5158000D02*
X36212000Y-5208000D01*
D19*
X58762000Y-7583000D02*
X58762000Y-11908000D01*
X52177000Y-997600D02*
X58762000Y-7583000D01*
X38322400Y-997600D02*
X52177000Y-997600D01*
X36162000Y-3158000D02*
X38322400Y-997600D01*
D22*
X44992000Y-11598000D02*
X43702000Y-11598000D01*
X45185100Y-12373000D02*
X45709500Y-12898000D01*
X44992000Y-12373000D02*
X45185100Y-12373000D01*
X44992000Y-11598000D02*
X44992000Y-12373000D01*
X52750000Y-4572000D02*
X52750000Y-4706000D01*
X49640300Y-1462300D02*
X52750000Y-4572000D01*
X39857700Y-1462300D02*
X49640300Y-1462300D01*
X38162000Y-3158000D02*
X39857700Y-1462300D01*
X48818500Y-12972000D02*
X48879800Y-12910000D01*
X46768700Y-12972000D02*
X48818500Y-12972000D01*
X45717400Y-11920000D02*
X46768700Y-12972000D01*
X45717400Y-10713000D02*
X45717400Y-11920000D01*
X40162000Y-5158000D02*
X45717400Y-10713000D01*
X55062000Y-16013000D02*
X55062000Y-31733000D01*
X55287000Y-15789000D02*
X55062000Y-16013000D01*
X55287000Y-13338000D02*
X55287000Y-15789000D01*
X55056000Y-13107000D02*
X55287000Y-13338000D01*
X55056000Y-7585000D02*
X55056000Y-13107000D01*
X52851000Y-5381000D02*
X55056000Y-7585000D01*
X52470000Y-5381000D02*
X52851000Y-5381000D01*
X52074000Y-4986000D02*
X52470000Y-5381000D01*
X52074000Y-4684000D02*
X52074000Y-4986000D01*
X49353400Y-1962700D02*
X52074000Y-4684000D01*
X41357300Y-1962700D02*
X49353400Y-1962700D01*
X40162000Y-3158000D02*
X41357300Y-1962700D01*
X42162000Y-5158000D02*
X49952100Y-12948000D01*
X61248000Y-8979000D02*
X56284000Y-4015100D01*
X61248000Y-31305000D02*
X61248000Y-8979000D01*
X60294000Y-32258000D02*
X61248000Y-31305000D01*
X59767000Y-1608000D02*
X59843000Y-1683200D01*
X58162000Y-1608000D02*
X59767000Y-1608000D01*
X64281000Y-2682700D02*
X65281000Y-1683200D01*
X64262000Y-2682700D02*
X64281000Y-2682700D01*
X64262000Y-3408000D02*
X64262000Y-2682700D01*
X69105000Y-2425700D02*
X69105000Y-1783700D01*
X69462000Y-2782700D02*
X69105000Y-2425700D01*
X69462000Y-3508000D02*
X69462000Y-2782700D01*
D19*
X77267000Y-49488000D02*
X76962000Y-49183000D01*
X77872000Y-49488000D02*
X77267000Y-49488000D01*
X77029000Y-44525000D02*
X76833000Y-44525000D01*
X77102000Y-44598000D02*
X77029000Y-44525000D01*
X77752000Y-44598000D02*
X77102000Y-44598000D01*
D22*
X65824000Y-38155000D02*
X65824000Y-32258000D01*
X71680000Y-44012000D02*
X65824000Y-38155000D01*
X67140000Y-52026000D02*
X66208000Y-52958000D01*
X67140000Y-42401000D02*
X67140000Y-52026000D01*
X60041000Y-35302000D02*
X67140000Y-42401000D01*
D19*
X50478000Y-48524000D02*
X51912000Y-49958000D01*
X50478000Y-44134000D02*
X50478000Y-48524000D01*
X50472000Y-44128000D02*
X50478000Y-44134000D01*
D22*
X51846000Y-50733000D02*
X51662000Y-50917000D01*
X51912000Y-50733000D02*
X51846000Y-50733000D01*
X51912000Y-49958000D02*
X51912000Y-50733000D01*
D19*
X55112000Y-49818000D02*
X55112000Y-48860000D01*
X53372000Y-51558000D02*
X55112000Y-49818000D01*
X51412000Y-51558000D02*
X53372000Y-51558000D01*
X49732000Y-49878000D02*
X51412000Y-51558000D01*
X49732000Y-43568000D02*
X49732000Y-49878000D01*
X49922000Y-43338000D02*
X49732000Y-43568000D01*
D22*
X52812000Y-46559000D02*
X55112000Y-48860000D01*
X52812000Y-44658000D02*
X52812000Y-46559000D01*
D19*
X58084617Y-42735380D02*
X58712380Y-42735380D01*
X58712380Y-42735380D02*
X58960000Y-42983000D01*
D22*
X58960000Y-42983000D02*
X59543000Y-43566000D01*
X59543000Y-43566000D02*
X59543000Y-45152000D01*
X59543000Y-45152000D02*
X59217000Y-45478000D01*
X57287000Y-41937000D02*
X58084617Y-42735380D01*
X57287000Y-37927000D02*
X57287000Y-41937000D01*
X55960000Y-36600000D02*
X57287000Y-37927000D01*
X39512000Y-10193000D02*
X39677200Y-10358000D01*
X39512000Y-8058000D02*
X39512000Y-10193000D01*
X37912000Y-8058000D02*
X39512000Y-8058000D01*
D19*
X20942000Y-15568000D02*
X21362000Y-15988000D01*
X21362000Y-15988000D02*
X21362000Y-21018000D01*
D22*
X18821800Y-11074000D02*
X18821800Y-11750000D01*
X20562000Y-9333000D02*
X18821800Y-11074000D01*
X20562000Y-8608000D02*
X20562000Y-9333000D01*
D19*
X18251700Y-19787700D02*
X18251700Y-15448000D01*
X18542000Y-20078000D02*
X18251700Y-19787700D01*
D22*
X56523000Y-31286000D02*
X56523000Y-30935000D01*
X55334000Y-32475000D02*
X56523000Y-31286000D01*
X54729000Y-32475000D02*
X55334000Y-32475000D01*
X54012000Y-31758000D02*
X54729000Y-32475000D01*
X47417300Y-12139000D02*
X47550600Y-12272000D01*
X47417300Y-11598000D02*
X47417300Y-12139000D01*
X46692000Y-11598000D02*
X47417300Y-11598000D01*
X47685100Y-9716000D02*
X48771000Y-10802000D01*
X47685100Y-9124000D02*
X47685100Y-9716000D01*
X6154900Y-42958000D02*
X6727500Y-43531000D01*
X4662000Y-42958000D02*
X6154900Y-42958000D01*
X56312000Y-43533000D02*
X54237000Y-43533000D01*
X56312000Y-41358000D02*
X56312000Y-43533000D01*
X56312000Y-43533000D02*
X56312000Y-43758000D01*
X20837300Y-14258000D02*
X20474700Y-14258000D01*
X20937300Y-14358000D02*
X20837300Y-14258000D01*
X22012000Y-14358000D02*
X20937300Y-14358000D01*
X19881500Y-13665000D02*
X19881500Y-11908000D01*
X20474700Y-14258000D02*
X19881500Y-13665000D01*
X20112000Y-14258000D02*
X20474700Y-14258000D01*
X42849000Y-24145000D02*
X42849000Y-23950000D01*
X43437700Y-24733000D02*
X42849000Y-24145000D01*
X44565000Y-24733000D02*
X43437700Y-24733000D01*
X44742800Y-24556000D02*
X44565000Y-24733000D01*
X44742800Y-21764000D02*
X44742800Y-24556000D01*
X44637300Y-21658000D02*
X44742800Y-21764000D01*
X43912000Y-21658000D02*
X44637300Y-21658000D01*
X6012000Y-9458000D02*
X6012000Y-10440000D01*
X6052400Y-13433000D02*
X6308200Y-13689000D01*
X6012000Y-13433000D02*
X6052400Y-13433000D01*
X6012000Y-12658000D02*
X6012000Y-13433000D01*
X40285100Y-29908000D02*
X40135100Y-29758000D01*
X41262000Y-29908000D02*
X40285100Y-29908000D01*
X18936500Y-48033000D02*
X18473400Y-47570000D01*
X19762000Y-48033000D02*
X18936500Y-48033000D01*
X19762000Y-47308000D02*
X19762000Y-48033000D01*
X8767900Y-47708000D02*
X9052400Y-47424000D01*
X6962000Y-47708000D02*
X8767900Y-47708000D01*
X54044000Y-30133000D02*
X54220000Y-30310000D01*
X54012000Y-30133000D02*
X54044000Y-30133000D01*
X54012000Y-29358000D02*
X54012000Y-30133000D01*
X6610300Y-44451000D02*
X8292600Y-46133000D01*
X7026900Y-45958000D02*
X8080900Y-47012000D01*
X4412000Y-45958000D02*
X7026900Y-45958000D01*
X21266700Y-46428000D02*
X20455300Y-46428000D01*
X21286700Y-46408000D02*
X21266700Y-46428000D01*
X22062000Y-46408000D02*
X21286700Y-46408000D01*
M02*
