%TF.GenerationSoftware,KiCad,Pcbnew,4.0.2-stable*%
%TF.CreationDate,2016-08-10T14:12:24+09:00*%
%TF.ProjectId,Shimonso-IoT-Type-R,5368696D6F6E736F2D496F542D547970,rev?*%
%TF.FileFunction,Legend,Bot*%
%FSLAX46Y46*%
G04 Gerber Fmt 4.6, Leading zero omitted, Abs format (unit mm)*
G04 Created by KiCad (PCBNEW 4.0.2-stable) date 2016年08月10日水曜日 14:12:24*
%MOMM*%
G01*
G04 APERTURE LIST*
%ADD10C,0.100000*%
%ADD11C,0.300000*%
%ADD12C,0.250000*%
%ADD13R,2.435200X2.435200*%
%ADD14R,1.000000X0.900000*%
%ADD15O,1.090000X1.750000*%
%ADD16O,1.450000X1.150000*%
%ADD17R,0.700000X2.200000*%
%ADD18C,1.800000*%
%ADD19R,0.900000X1.000000*%
G04 APERTURE END LIST*
D10*
D11*
X57550000Y-144900000D02*
X57550000Y-143900000D01*
X56050000Y-143900000D02*
X56050000Y-144900000D01*
X70350000Y-147400000D02*
X70350000Y-146400000D01*
X68850000Y-146400000D02*
X68850000Y-147400000D01*
X57550000Y-147800000D02*
X57550000Y-146800000D01*
X56050000Y-146800000D02*
X56050000Y-147800000D01*
X73450000Y-117800000D02*
X73450000Y-116800000D01*
X71950000Y-116800000D02*
X71950000Y-117800000D01*
X77750000Y-112200000D02*
X77750000Y-111200000D01*
X76250000Y-111200000D02*
X76250000Y-112200000D01*
X94450000Y-114700000D02*
X94450000Y-113700000D01*
X92950000Y-113700000D02*
X92950000Y-114700000D01*
X71150000Y-104100000D02*
X71150000Y-103100000D01*
X69650000Y-103100000D02*
X69650000Y-104100000D01*
X69600000Y-109350000D02*
X68600000Y-109350000D01*
X68600000Y-110850000D02*
X69600000Y-110850000D01*
X103000000Y-141250000D02*
X104000000Y-141250000D01*
X104000000Y-139750000D02*
X103000000Y-139750000D01*
X92190000Y-108190000D02*
X93190000Y-108190000D01*
X93190000Y-106690000D02*
X92190000Y-106690000D01*
X127940000Y-141190000D02*
X128940000Y-141190000D01*
X128940000Y-139690000D02*
X127940000Y-139690000D01*
X128060000Y-146080000D02*
X129060000Y-146080000D01*
X129060000Y-144580000D02*
X128060000Y-144580000D01*
X96180000Y-106690000D02*
X95180000Y-106690000D01*
X95180000Y-108190000D02*
X96180000Y-108190000D01*
X124100000Y-138250000D02*
X123100000Y-138250000D01*
X123100000Y-139750000D02*
X124100000Y-139750000D01*
X106500000Y-140350000D02*
X107500000Y-140350000D01*
X107500000Y-138850000D02*
X106500000Y-138850000D01*
X118550000Y-99700000D02*
X118550000Y-100700000D01*
X120050000Y-100700000D02*
X120050000Y-99700000D01*
X113350000Y-99600000D02*
X113350000Y-100600000D01*
X114850000Y-100600000D02*
X114850000Y-99600000D01*
X103500000Y-126850000D02*
X102500000Y-126850000D01*
X102500000Y-128350000D02*
X103500000Y-128350000D01*
X103500000Y-124450000D02*
X102500000Y-124450000D01*
X102500000Y-125950000D02*
X103500000Y-125950000D01*
X124450000Y-132000000D02*
X124450000Y-131000000D01*
X122950000Y-131000000D02*
X122950000Y-132000000D01*
X127350000Y-131900000D02*
X127350000Y-130900000D01*
X125850000Y-130900000D02*
X125850000Y-131900000D01*
X107250000Y-97800000D02*
X107250000Y-98800000D01*
X108750000Y-98800000D02*
X108750000Y-97800000D01*
X89700000Y-104650000D02*
X90700000Y-104650000D01*
X90700000Y-103150000D02*
X89700000Y-103150000D01*
X86400000Y-104650000D02*
X87400000Y-104650000D01*
X87400000Y-103150000D02*
X86400000Y-103150000D01*
X92300000Y-122250000D02*
X91300000Y-122250000D01*
X91300000Y-123750000D02*
X92300000Y-123750000D01*
X91850000Y-127100000D02*
X91850000Y-126100000D01*
X90350000Y-126100000D02*
X90350000Y-127100000D01*
X80700000Y-127850000D02*
X79700000Y-127850000D01*
X79700000Y-129350000D02*
X80700000Y-129350000D01*
X64500000Y-115350000D02*
X65500000Y-115350000D01*
X65500000Y-113850000D02*
X64500000Y-113850000D01*
X64500000Y-112950000D02*
X65500000Y-112950000D01*
X65500000Y-111450000D02*
X64500000Y-111450000D01*
X67450000Y-120600000D02*
X67450000Y-119600000D01*
X65950000Y-119600000D02*
X65950000Y-120600000D01*
X74650000Y-113400000D02*
X74650000Y-112400000D01*
X73150000Y-112400000D02*
X73150000Y-113400000D01*
X54500000Y-109250000D02*
X55500000Y-109250000D01*
X55500000Y-107750000D02*
X54500000Y-107750000D01*
X54500000Y-106050000D02*
X55500000Y-106050000D01*
X55500000Y-104550000D02*
X54500000Y-104550000D01*
X83200000Y-117650000D02*
X82200000Y-117650000D01*
X82200000Y-119150000D02*
X83200000Y-119150000D01*
X105400000Y-115750000D02*
X104400000Y-115750000D01*
X104400000Y-117250000D02*
X105400000Y-117250000D01*
X95100000Y-116750000D02*
X94100000Y-116750000D01*
X94100000Y-118250000D02*
X95100000Y-118250000D01*
X95200000Y-119050000D02*
X94200000Y-119050000D01*
X94200000Y-120550000D02*
X95200000Y-120550000D01*
X109300000Y-109350000D02*
X108300000Y-109350000D01*
X108300000Y-110850000D02*
X109300000Y-110850000D01*
X73200000Y-109450000D02*
X72200000Y-109450000D01*
X72200000Y-110950000D02*
X73200000Y-110950000D01*
X107000000Y-141550000D02*
X106000000Y-141550000D01*
X106000000Y-143050000D02*
X107000000Y-143050000D01*
X78700000Y-106550000D02*
X77700000Y-106550000D01*
X77700000Y-108050000D02*
X78700000Y-108050000D01*
X133000000Y-141550000D02*
X132000000Y-141550000D01*
X132000000Y-143050000D02*
X133000000Y-143050000D01*
X123200000Y-137250000D02*
X124200000Y-137250000D01*
X124200000Y-135750000D02*
X123200000Y-135750000D01*
X107500000Y-136450000D02*
X106500000Y-136450000D01*
X106500000Y-137950000D02*
X107500000Y-137950000D01*
X114800000Y-119150000D02*
X113800000Y-119150000D01*
X113800000Y-120650000D02*
X114800000Y-120650000D01*
X114800000Y-122050000D02*
X113800000Y-122050000D01*
X113800000Y-123550000D02*
X114800000Y-123550000D01*
X125000000Y-117750000D02*
X126000000Y-117750000D01*
X126000000Y-116250000D02*
X125000000Y-116250000D01*
X124900000Y-110150000D02*
X125900000Y-110150000D01*
X125900000Y-108650000D02*
X124900000Y-108650000D01*
X133400000Y-134050000D02*
X132400000Y-134050000D01*
X132400000Y-135550000D02*
X133400000Y-135550000D01*
X109000000Y-122450000D02*
X108000000Y-122450000D01*
X108000000Y-123950000D02*
X109000000Y-123950000D01*
X122900000Y-116250000D02*
X121900000Y-116250000D01*
X121900000Y-117750000D02*
X122900000Y-117750000D01*
X122700000Y-108650000D02*
X121700000Y-108650000D01*
X121700000Y-110150000D02*
X122700000Y-110150000D01*
X71150000Y-140900000D02*
X71150000Y-141900000D01*
X72650000Y-141900000D02*
X72650000Y-140900000D01*
X70350000Y-144500000D02*
X70350000Y-143500000D01*
X68850000Y-143500000D02*
X68850000Y-144500000D01*
X53900000Y-141050000D02*
X52900000Y-141050000D01*
X52900000Y-142550000D02*
X53900000Y-142550000D01*
X102100000Y-146550000D02*
X103100000Y-146550000D01*
X103100000Y-145050000D02*
X102100000Y-145050000D01*
D12*
X59126381Y-144105334D02*
X58650190Y-143772000D01*
X59126381Y-143533905D02*
X58126381Y-143533905D01*
X58126381Y-143914858D01*
X58174000Y-144010096D01*
X58221619Y-144057715D01*
X58316857Y-144105334D01*
X58459714Y-144105334D01*
X58554952Y-144057715D01*
X58602571Y-144010096D01*
X58650190Y-143914858D01*
X58650190Y-143533905D01*
X58126381Y-144962477D02*
X58126381Y-144772000D01*
X58174000Y-144676762D01*
X58221619Y-144629143D01*
X58364476Y-144533905D01*
X58554952Y-144486286D01*
X58935905Y-144486286D01*
X59031143Y-144533905D01*
X59078762Y-144581524D01*
X59126381Y-144676762D01*
X59126381Y-144867239D01*
X59078762Y-144962477D01*
X59031143Y-145010096D01*
X58935905Y-145057715D01*
X58697810Y-145057715D01*
X58602571Y-145010096D01*
X58554952Y-144962477D01*
X58507333Y-144867239D01*
X58507333Y-144676762D01*
X58554952Y-144581524D01*
X58602571Y-144533905D01*
X58697810Y-144486286D01*
X68057143Y-146133334D02*
X68104762Y-146085715D01*
X68152381Y-145942858D01*
X68152381Y-145847620D01*
X68104762Y-145704762D01*
X68009524Y-145609524D01*
X67914286Y-145561905D01*
X67723810Y-145514286D01*
X67580952Y-145514286D01*
X67390476Y-145561905D01*
X67295238Y-145609524D01*
X67200000Y-145704762D01*
X67152381Y-145847620D01*
X67152381Y-145942858D01*
X67200000Y-146085715D01*
X67247619Y-146133334D01*
X68057143Y-147133334D02*
X68104762Y-147085715D01*
X68152381Y-146942858D01*
X68152381Y-146847620D01*
X68104762Y-146704762D01*
X68009524Y-146609524D01*
X67914286Y-146561905D01*
X67723810Y-146514286D01*
X67580952Y-146514286D01*
X67390476Y-146561905D01*
X67295238Y-146609524D01*
X67200000Y-146704762D01*
X67152381Y-146847620D01*
X67152381Y-146942858D01*
X67200000Y-147085715D01*
X67247619Y-147133334D01*
X67247619Y-147514286D02*
X67200000Y-147561905D01*
X67152381Y-147657143D01*
X67152381Y-147895239D01*
X67200000Y-147990477D01*
X67247619Y-148038096D01*
X67342857Y-148085715D01*
X67438095Y-148085715D01*
X67580952Y-148038096D01*
X68152381Y-147466667D01*
X68152381Y-148085715D01*
X55475143Y-146653334D02*
X55522762Y-146605715D01*
X55570381Y-146462858D01*
X55570381Y-146367620D01*
X55522762Y-146224762D01*
X55427524Y-146129524D01*
X55332286Y-146081905D01*
X55141810Y-146034286D01*
X54998952Y-146034286D01*
X54808476Y-146081905D01*
X54713238Y-146129524D01*
X54618000Y-146224762D01*
X54570381Y-146367620D01*
X54570381Y-146462858D01*
X54618000Y-146605715D01*
X54665619Y-146653334D01*
X55475143Y-147653334D02*
X55522762Y-147605715D01*
X55570381Y-147462858D01*
X55570381Y-147367620D01*
X55522762Y-147224762D01*
X55427524Y-147129524D01*
X55332286Y-147081905D01*
X55141810Y-147034286D01*
X54998952Y-147034286D01*
X54808476Y-147081905D01*
X54713238Y-147129524D01*
X54618000Y-147224762D01*
X54570381Y-147367620D01*
X54570381Y-147462858D01*
X54618000Y-147605715D01*
X54665619Y-147653334D01*
X55570381Y-148605715D02*
X55570381Y-148034286D01*
X55570381Y-148320000D02*
X54570381Y-148320000D01*
X54713238Y-148224762D01*
X54808476Y-148129524D01*
X54856095Y-148034286D01*
X70207143Y-133285715D02*
X70254762Y-133238096D01*
X70302381Y-133095239D01*
X70302381Y-133000001D01*
X70254762Y-132857143D01*
X70159524Y-132761905D01*
X70064286Y-132714286D01*
X69873810Y-132666667D01*
X69730952Y-132666667D01*
X69540476Y-132714286D01*
X69445238Y-132761905D01*
X69350000Y-132857143D01*
X69302381Y-133000001D01*
X69302381Y-133095239D01*
X69350000Y-133238096D01*
X69397619Y-133285715D01*
X69302381Y-133904762D02*
X69302381Y-134095239D01*
X69350000Y-134190477D01*
X69445238Y-134285715D01*
X69635714Y-134333334D01*
X69969048Y-134333334D01*
X70159524Y-134285715D01*
X70254762Y-134190477D01*
X70302381Y-134095239D01*
X70302381Y-133904762D01*
X70254762Y-133809524D01*
X70159524Y-133714286D01*
X69969048Y-133666667D01*
X69635714Y-133666667D01*
X69445238Y-133714286D01*
X69350000Y-133809524D01*
X69302381Y-133904762D01*
X70302381Y-134761905D02*
X69302381Y-134761905D01*
X70302381Y-135333334D01*
X69302381Y-135333334D01*
X70302381Y-136333334D02*
X70302381Y-135761905D01*
X70302381Y-136047619D02*
X69302381Y-136047619D01*
X69445238Y-135952381D01*
X69540476Y-135857143D01*
X69588095Y-135761905D01*
X75128381Y-116705143D02*
X74652190Y-116371809D01*
X75128381Y-116133714D02*
X74128381Y-116133714D01*
X74128381Y-116514667D01*
X74176000Y-116609905D01*
X74223619Y-116657524D01*
X74318857Y-116705143D01*
X74461714Y-116705143D01*
X74556952Y-116657524D01*
X74604571Y-116609905D01*
X74652190Y-116514667D01*
X74652190Y-116133714D01*
X74128381Y-117038476D02*
X74128381Y-117657524D01*
X74509333Y-117324190D01*
X74509333Y-117467048D01*
X74556952Y-117562286D01*
X74604571Y-117609905D01*
X74699810Y-117657524D01*
X74937905Y-117657524D01*
X75033143Y-117609905D01*
X75080762Y-117562286D01*
X75128381Y-117467048D01*
X75128381Y-117181333D01*
X75080762Y-117086095D01*
X75033143Y-117038476D01*
X74461714Y-118514667D02*
X75128381Y-118514667D01*
X74080762Y-118276571D02*
X74795048Y-118038476D01*
X74795048Y-118657524D01*
X79192381Y-111117143D02*
X78716190Y-110783809D01*
X79192381Y-110545714D02*
X78192381Y-110545714D01*
X78192381Y-110926667D01*
X78240000Y-111021905D01*
X78287619Y-111069524D01*
X78382857Y-111117143D01*
X78525714Y-111117143D01*
X78620952Y-111069524D01*
X78668571Y-111021905D01*
X78716190Y-110926667D01*
X78716190Y-110545714D01*
X78192381Y-111450476D02*
X78192381Y-112069524D01*
X78573333Y-111736190D01*
X78573333Y-111879048D01*
X78620952Y-111974286D01*
X78668571Y-112021905D01*
X78763810Y-112069524D01*
X79001905Y-112069524D01*
X79097143Y-112021905D01*
X79144762Y-111974286D01*
X79192381Y-111879048D01*
X79192381Y-111593333D01*
X79144762Y-111498095D01*
X79097143Y-111450476D01*
X78192381Y-112402857D02*
X78192381Y-113021905D01*
X78573333Y-112688571D01*
X78573333Y-112831429D01*
X78620952Y-112926667D01*
X78668571Y-112974286D01*
X78763810Y-113021905D01*
X79001905Y-113021905D01*
X79097143Y-112974286D01*
X79144762Y-112926667D01*
X79192381Y-112831429D01*
X79192381Y-112545714D01*
X79144762Y-112450476D01*
X79097143Y-112402857D01*
X91845981Y-113760343D02*
X91369790Y-113427009D01*
X91845981Y-113188914D02*
X90845981Y-113188914D01*
X90845981Y-113569867D01*
X90893600Y-113665105D01*
X90941219Y-113712724D01*
X91036457Y-113760343D01*
X91179314Y-113760343D01*
X91274552Y-113712724D01*
X91322171Y-113665105D01*
X91369790Y-113569867D01*
X91369790Y-113188914D01*
X90845981Y-114093676D02*
X90845981Y-114712724D01*
X91226933Y-114379390D01*
X91226933Y-114522248D01*
X91274552Y-114617486D01*
X91322171Y-114665105D01*
X91417410Y-114712724D01*
X91655505Y-114712724D01*
X91750743Y-114665105D01*
X91798362Y-114617486D01*
X91845981Y-114522248D01*
X91845981Y-114236533D01*
X91798362Y-114141295D01*
X91750743Y-114093676D01*
X91845981Y-115665105D02*
X91845981Y-115093676D01*
X91845981Y-115379390D02*
X90845981Y-115379390D01*
X90988838Y-115284152D01*
X91084076Y-115188914D01*
X91131695Y-115093676D01*
X69032381Y-102989143D02*
X68556190Y-102655809D01*
X69032381Y-102417714D02*
X68032381Y-102417714D01*
X68032381Y-102798667D01*
X68080000Y-102893905D01*
X68127619Y-102941524D01*
X68222857Y-102989143D01*
X68365714Y-102989143D01*
X68460952Y-102941524D01*
X68508571Y-102893905D01*
X68556190Y-102798667D01*
X68556190Y-102417714D01*
X68127619Y-103370095D02*
X68080000Y-103417714D01*
X68032381Y-103512952D01*
X68032381Y-103751048D01*
X68080000Y-103846286D01*
X68127619Y-103893905D01*
X68222857Y-103941524D01*
X68318095Y-103941524D01*
X68460952Y-103893905D01*
X69032381Y-103322476D01*
X69032381Y-103941524D01*
X69032381Y-104417714D02*
X69032381Y-104608190D01*
X68984762Y-104703429D01*
X68937143Y-104751048D01*
X68794286Y-104846286D01*
X68603810Y-104893905D01*
X68222857Y-104893905D01*
X68127619Y-104846286D01*
X68080000Y-104798667D01*
X68032381Y-104703429D01*
X68032381Y-104512952D01*
X68080000Y-104417714D01*
X68127619Y-104370095D01*
X68222857Y-104322476D01*
X68460952Y-104322476D01*
X68556190Y-104370095D01*
X68603810Y-104417714D01*
X68651429Y-104512952D01*
X68651429Y-104703429D01*
X68603810Y-104798667D01*
X68556190Y-104846286D01*
X68460952Y-104893905D01*
X69730857Y-112212381D02*
X70064191Y-111736190D01*
X70302286Y-112212381D02*
X70302286Y-111212381D01*
X69921333Y-111212381D01*
X69826095Y-111260000D01*
X69778476Y-111307619D01*
X69730857Y-111402857D01*
X69730857Y-111545714D01*
X69778476Y-111640952D01*
X69826095Y-111688571D01*
X69921333Y-111736190D01*
X70302286Y-111736190D01*
X69349905Y-111307619D02*
X69302286Y-111260000D01*
X69207048Y-111212381D01*
X68968952Y-111212381D01*
X68873714Y-111260000D01*
X68826095Y-111307619D01*
X68778476Y-111402857D01*
X68778476Y-111498095D01*
X68826095Y-111640952D01*
X69397524Y-112212381D01*
X68778476Y-112212381D01*
X68207048Y-111640952D02*
X68302286Y-111593333D01*
X68349905Y-111545714D01*
X68397524Y-111450476D01*
X68397524Y-111402857D01*
X68349905Y-111307619D01*
X68302286Y-111260000D01*
X68207048Y-111212381D01*
X68016571Y-111212381D01*
X67921333Y-111260000D01*
X67873714Y-111307619D01*
X67826095Y-111402857D01*
X67826095Y-111450476D01*
X67873714Y-111545714D01*
X67921333Y-111593333D01*
X68016571Y-111640952D01*
X68207048Y-111640952D01*
X68302286Y-111688571D01*
X68349905Y-111736190D01*
X68397524Y-111831429D01*
X68397524Y-112021905D01*
X68349905Y-112117143D01*
X68302286Y-112164762D01*
X68207048Y-112212381D01*
X68016571Y-112212381D01*
X67921333Y-112164762D01*
X67873714Y-112117143D01*
X67826095Y-112021905D01*
X67826095Y-111831429D01*
X67873714Y-111736190D01*
X67921333Y-111688571D01*
X68016571Y-111640952D01*
X104020857Y-139136381D02*
X104354191Y-138660190D01*
X104592286Y-139136381D02*
X104592286Y-138136381D01*
X104211333Y-138136381D01*
X104116095Y-138184000D01*
X104068476Y-138231619D01*
X104020857Y-138326857D01*
X104020857Y-138469714D01*
X104068476Y-138564952D01*
X104116095Y-138612571D01*
X104211333Y-138660190D01*
X104592286Y-138660190D01*
X103639905Y-138231619D02*
X103592286Y-138184000D01*
X103497048Y-138136381D01*
X103258952Y-138136381D01*
X103163714Y-138184000D01*
X103116095Y-138231619D01*
X103068476Y-138326857D01*
X103068476Y-138422095D01*
X103116095Y-138564952D01*
X103687524Y-139136381D01*
X103068476Y-139136381D01*
X102735143Y-138136381D02*
X102068476Y-138136381D01*
X102497048Y-139136381D01*
X92590857Y-109672381D02*
X92924191Y-109196190D01*
X93162286Y-109672381D02*
X93162286Y-108672381D01*
X92781333Y-108672381D01*
X92686095Y-108720000D01*
X92638476Y-108767619D01*
X92590857Y-108862857D01*
X92590857Y-109005714D01*
X92638476Y-109100952D01*
X92686095Y-109148571D01*
X92781333Y-109196190D01*
X93162286Y-109196190D01*
X92209905Y-108767619D02*
X92162286Y-108720000D01*
X92067048Y-108672381D01*
X91828952Y-108672381D01*
X91733714Y-108720000D01*
X91686095Y-108767619D01*
X91638476Y-108862857D01*
X91638476Y-108958095D01*
X91686095Y-109100952D01*
X92257524Y-109672381D01*
X91638476Y-109672381D01*
X90733714Y-108672381D02*
X91209905Y-108672381D01*
X91257524Y-109148571D01*
X91209905Y-109100952D01*
X91114667Y-109053333D01*
X90876571Y-109053333D01*
X90781333Y-109100952D01*
X90733714Y-109148571D01*
X90686095Y-109243810D01*
X90686095Y-109481905D01*
X90733714Y-109577143D01*
X90781333Y-109624762D01*
X90876571Y-109672381D01*
X91114667Y-109672381D01*
X91209905Y-109624762D01*
X91257524Y-109577143D01*
X128879657Y-138585981D02*
X129212991Y-138109790D01*
X129451086Y-138585981D02*
X129451086Y-137585981D01*
X129070133Y-137585981D01*
X128974895Y-137633600D01*
X128927276Y-137681219D01*
X128879657Y-137776457D01*
X128879657Y-137919314D01*
X128927276Y-138014552D01*
X128974895Y-138062171D01*
X129070133Y-138109790D01*
X129451086Y-138109790D01*
X128498705Y-137681219D02*
X128451086Y-137633600D01*
X128355848Y-137585981D01*
X128117752Y-137585981D01*
X128022514Y-137633600D01*
X127974895Y-137681219D01*
X127927276Y-137776457D01*
X127927276Y-137871695D01*
X127974895Y-138014552D01*
X128546324Y-138585981D01*
X127927276Y-138585981D01*
X127070133Y-137919314D02*
X127070133Y-138585981D01*
X127308229Y-137538362D02*
X127546324Y-138252648D01*
X126927276Y-138252648D01*
X128999657Y-143475981D02*
X129332991Y-142999790D01*
X129571086Y-143475981D02*
X129571086Y-142475981D01*
X129190133Y-142475981D01*
X129094895Y-142523600D01*
X129047276Y-142571219D01*
X128999657Y-142666457D01*
X128999657Y-142809314D01*
X129047276Y-142904552D01*
X129094895Y-142952171D01*
X129190133Y-142999790D01*
X129571086Y-142999790D01*
X128618705Y-142571219D02*
X128571086Y-142523600D01*
X128475848Y-142475981D01*
X128237752Y-142475981D01*
X128142514Y-142523600D01*
X128094895Y-142571219D01*
X128047276Y-142666457D01*
X128047276Y-142761695D01*
X128094895Y-142904552D01*
X128666324Y-143475981D01*
X128047276Y-143475981D01*
X127713943Y-142475981D02*
X127094895Y-142475981D01*
X127428229Y-142856933D01*
X127285371Y-142856933D01*
X127190133Y-142904552D01*
X127142514Y-142952171D01*
X127094895Y-143047410D01*
X127094895Y-143285505D01*
X127142514Y-143380743D01*
X127190133Y-143428362D01*
X127285371Y-143475981D01*
X127571086Y-143475981D01*
X127666324Y-143428362D01*
X127713943Y-143380743D01*
X96908857Y-109672381D02*
X97242191Y-109196190D01*
X97480286Y-109672381D02*
X97480286Y-108672381D01*
X97099333Y-108672381D01*
X97004095Y-108720000D01*
X96956476Y-108767619D01*
X96908857Y-108862857D01*
X96908857Y-109005714D01*
X96956476Y-109100952D01*
X97004095Y-109148571D01*
X97099333Y-109196190D01*
X97480286Y-109196190D01*
X96527905Y-108767619D02*
X96480286Y-108720000D01*
X96385048Y-108672381D01*
X96146952Y-108672381D01*
X96051714Y-108720000D01*
X96004095Y-108767619D01*
X95956476Y-108862857D01*
X95956476Y-108958095D01*
X96004095Y-109100952D01*
X96575524Y-109672381D01*
X95956476Y-109672381D01*
X95575524Y-108767619D02*
X95527905Y-108720000D01*
X95432667Y-108672381D01*
X95194571Y-108672381D01*
X95099333Y-108720000D01*
X95051714Y-108767619D01*
X95004095Y-108862857D01*
X95004095Y-108958095D01*
X95051714Y-109100952D01*
X95623143Y-109672381D01*
X95004095Y-109672381D01*
X124446057Y-141758781D02*
X124779391Y-141282590D01*
X125017486Y-141758781D02*
X125017486Y-140758781D01*
X124636533Y-140758781D01*
X124541295Y-140806400D01*
X124493676Y-140854019D01*
X124446057Y-140949257D01*
X124446057Y-141092114D01*
X124493676Y-141187352D01*
X124541295Y-141234971D01*
X124636533Y-141282590D01*
X125017486Y-141282590D01*
X124065105Y-140854019D02*
X124017486Y-140806400D01*
X123922248Y-140758781D01*
X123684152Y-140758781D01*
X123588914Y-140806400D01*
X123541295Y-140854019D01*
X123493676Y-140949257D01*
X123493676Y-141044495D01*
X123541295Y-141187352D01*
X124112724Y-141758781D01*
X123493676Y-141758781D01*
X122541295Y-141758781D02*
X123112724Y-141758781D01*
X122827010Y-141758781D02*
X122827010Y-140758781D01*
X122922248Y-140901638D01*
X123017486Y-140996876D01*
X123112724Y-141044495D01*
X109926381Y-139057143D02*
X109450190Y-138723809D01*
X109926381Y-138485714D02*
X108926381Y-138485714D01*
X108926381Y-138866667D01*
X108974000Y-138961905D01*
X109021619Y-139009524D01*
X109116857Y-139057143D01*
X109259714Y-139057143D01*
X109354952Y-139009524D01*
X109402571Y-138961905D01*
X109450190Y-138866667D01*
X109450190Y-138485714D01*
X109021619Y-139438095D02*
X108974000Y-139485714D01*
X108926381Y-139580952D01*
X108926381Y-139819048D01*
X108974000Y-139914286D01*
X109021619Y-139961905D01*
X109116857Y-140009524D01*
X109212095Y-140009524D01*
X109354952Y-139961905D01*
X109926381Y-139390476D01*
X109926381Y-140009524D01*
X108926381Y-140628571D02*
X108926381Y-140723810D01*
X108974000Y-140819048D01*
X109021619Y-140866667D01*
X109116857Y-140914286D01*
X109307333Y-140961905D01*
X109545429Y-140961905D01*
X109735905Y-140914286D01*
X109831143Y-140866667D01*
X109878762Y-140819048D01*
X109926381Y-140723810D01*
X109926381Y-140628571D01*
X109878762Y-140533333D01*
X109831143Y-140485714D01*
X109735905Y-140438095D01*
X109545429Y-140390476D01*
X109307333Y-140390476D01*
X109116857Y-140438095D01*
X109021619Y-140485714D01*
X108974000Y-140533333D01*
X108926381Y-140628571D01*
X122058781Y-99353943D02*
X121582590Y-99020609D01*
X122058781Y-98782514D02*
X121058781Y-98782514D01*
X121058781Y-99163467D01*
X121106400Y-99258705D01*
X121154019Y-99306324D01*
X121249257Y-99353943D01*
X121392114Y-99353943D01*
X121487352Y-99306324D01*
X121534971Y-99258705D01*
X121582590Y-99163467D01*
X121582590Y-98782514D01*
X122058781Y-100306324D02*
X122058781Y-99734895D01*
X122058781Y-100020609D02*
X121058781Y-100020609D01*
X121201638Y-99925371D01*
X121296876Y-99830133D01*
X121344495Y-99734895D01*
X122058781Y-100782514D02*
X122058781Y-100972990D01*
X122011162Y-101068229D01*
X121963543Y-101115848D01*
X121820686Y-101211086D01*
X121630210Y-101258705D01*
X121249257Y-101258705D01*
X121154019Y-101211086D01*
X121106400Y-101163467D01*
X121058781Y-101068229D01*
X121058781Y-100877752D01*
X121106400Y-100782514D01*
X121154019Y-100734895D01*
X121249257Y-100687276D01*
X121487352Y-100687276D01*
X121582590Y-100734895D01*
X121630210Y-100782514D01*
X121677829Y-100877752D01*
X121677829Y-101068229D01*
X121630210Y-101163467D01*
X121582590Y-101211086D01*
X121487352Y-101258705D01*
X116858781Y-99253943D02*
X116382590Y-98920609D01*
X116858781Y-98682514D02*
X115858781Y-98682514D01*
X115858781Y-99063467D01*
X115906400Y-99158705D01*
X115954019Y-99206324D01*
X116049257Y-99253943D01*
X116192114Y-99253943D01*
X116287352Y-99206324D01*
X116334971Y-99158705D01*
X116382590Y-99063467D01*
X116382590Y-98682514D01*
X116858781Y-100206324D02*
X116858781Y-99634895D01*
X116858781Y-99920609D02*
X115858781Y-99920609D01*
X116001638Y-99825371D01*
X116096876Y-99730133D01*
X116144495Y-99634895D01*
X116287352Y-100777752D02*
X116239733Y-100682514D01*
X116192114Y-100634895D01*
X116096876Y-100587276D01*
X116049257Y-100587276D01*
X115954019Y-100634895D01*
X115906400Y-100682514D01*
X115858781Y-100777752D01*
X115858781Y-100968229D01*
X115906400Y-101063467D01*
X115954019Y-101111086D01*
X116049257Y-101158705D01*
X116096876Y-101158705D01*
X116192114Y-101111086D01*
X116239733Y-101063467D01*
X116287352Y-100968229D01*
X116287352Y-100777752D01*
X116334971Y-100682514D01*
X116382590Y-100634895D01*
X116477829Y-100587276D01*
X116668305Y-100587276D01*
X116763543Y-100634895D01*
X116811162Y-100682514D01*
X116858781Y-100777752D01*
X116858781Y-100968229D01*
X116811162Y-101063467D01*
X116763543Y-101111086D01*
X116668305Y-101158705D01*
X116477829Y-101158705D01*
X116382590Y-101111086D01*
X116334971Y-101063467D01*
X116287352Y-100968229D01*
X103766857Y-129738381D02*
X104100191Y-129262190D01*
X104338286Y-129738381D02*
X104338286Y-128738381D01*
X103957333Y-128738381D01*
X103862095Y-128786000D01*
X103814476Y-128833619D01*
X103766857Y-128928857D01*
X103766857Y-129071714D01*
X103814476Y-129166952D01*
X103862095Y-129214571D01*
X103957333Y-129262190D01*
X104338286Y-129262190D01*
X102814476Y-129738381D02*
X103385905Y-129738381D01*
X103100191Y-129738381D02*
X103100191Y-128738381D01*
X103195429Y-128881238D01*
X103290667Y-128976476D01*
X103385905Y-129024095D01*
X101909714Y-128738381D02*
X102385905Y-128738381D01*
X102433524Y-129214571D01*
X102385905Y-129166952D01*
X102290667Y-129119333D01*
X102052571Y-129119333D01*
X101957333Y-129166952D01*
X101909714Y-129214571D01*
X101862095Y-129309810D01*
X101862095Y-129547905D01*
X101909714Y-129643143D01*
X101957333Y-129690762D01*
X102052571Y-129738381D01*
X102290667Y-129738381D01*
X102385905Y-129690762D01*
X102433524Y-129643143D01*
X103766857Y-123896381D02*
X104100191Y-123420190D01*
X104338286Y-123896381D02*
X104338286Y-122896381D01*
X103957333Y-122896381D01*
X103862095Y-122944000D01*
X103814476Y-122991619D01*
X103766857Y-123086857D01*
X103766857Y-123229714D01*
X103814476Y-123324952D01*
X103862095Y-123372571D01*
X103957333Y-123420190D01*
X104338286Y-123420190D01*
X102814476Y-123896381D02*
X103385905Y-123896381D01*
X103100191Y-123896381D02*
X103100191Y-122896381D01*
X103195429Y-123039238D01*
X103290667Y-123134476D01*
X103385905Y-123182095D01*
X101862095Y-123896381D02*
X102433524Y-123896381D01*
X102147810Y-123896381D02*
X102147810Y-122896381D01*
X102243048Y-123039238D01*
X102338286Y-123134476D01*
X102433524Y-123182095D01*
X121845981Y-131536534D02*
X121369790Y-131203200D01*
X121845981Y-130965105D02*
X120845981Y-130965105D01*
X120845981Y-131346058D01*
X120893600Y-131441296D01*
X120941219Y-131488915D01*
X121036457Y-131536534D01*
X121179314Y-131536534D01*
X121274552Y-131488915D01*
X121322171Y-131441296D01*
X121369790Y-131346058D01*
X121369790Y-130965105D01*
X121274552Y-132107962D02*
X121226933Y-132012724D01*
X121179314Y-131965105D01*
X121084076Y-131917486D01*
X121036457Y-131917486D01*
X120941219Y-131965105D01*
X120893600Y-132012724D01*
X120845981Y-132107962D01*
X120845981Y-132298439D01*
X120893600Y-132393677D01*
X120941219Y-132441296D01*
X121036457Y-132488915D01*
X121084076Y-132488915D01*
X121179314Y-132441296D01*
X121226933Y-132393677D01*
X121274552Y-132298439D01*
X121274552Y-132107962D01*
X121322171Y-132012724D01*
X121369790Y-131965105D01*
X121465029Y-131917486D01*
X121655505Y-131917486D01*
X121750743Y-131965105D01*
X121798362Y-132012724D01*
X121845981Y-132107962D01*
X121845981Y-132298439D01*
X121798362Y-132393677D01*
X121750743Y-132441296D01*
X121655505Y-132488915D01*
X121465029Y-132488915D01*
X121369790Y-132441296D01*
X121322171Y-132393677D01*
X121274552Y-132298439D01*
X124745981Y-131436534D02*
X124269790Y-131103200D01*
X124745981Y-130865105D02*
X123745981Y-130865105D01*
X123745981Y-131246058D01*
X123793600Y-131341296D01*
X123841219Y-131388915D01*
X123936457Y-131436534D01*
X124079314Y-131436534D01*
X124174552Y-131388915D01*
X124222171Y-131341296D01*
X124269790Y-131246058D01*
X124269790Y-130865105D01*
X123745981Y-131769867D02*
X123745981Y-132436534D01*
X124745981Y-132007962D01*
X110758781Y-97930134D02*
X110282590Y-97596800D01*
X110758781Y-97358705D02*
X109758781Y-97358705D01*
X109758781Y-97739658D01*
X109806400Y-97834896D01*
X109854019Y-97882515D01*
X109949257Y-97930134D01*
X110092114Y-97930134D01*
X110187352Y-97882515D01*
X110234971Y-97834896D01*
X110282590Y-97739658D01*
X110282590Y-97358705D01*
X110092114Y-98787277D02*
X110758781Y-98787277D01*
X109711162Y-98549181D02*
X110425448Y-98311086D01*
X110425448Y-98930134D01*
X90082666Y-106116381D02*
X90416000Y-105640190D01*
X90654095Y-106116381D02*
X90654095Y-105116381D01*
X90273142Y-105116381D01*
X90177904Y-105164000D01*
X90130285Y-105211619D01*
X90082666Y-105306857D01*
X90082666Y-105449714D01*
X90130285Y-105544952D01*
X90177904Y-105592571D01*
X90273142Y-105640190D01*
X90654095Y-105640190D01*
X89701714Y-105211619D02*
X89654095Y-105164000D01*
X89558857Y-105116381D01*
X89320761Y-105116381D01*
X89225523Y-105164000D01*
X89177904Y-105211619D01*
X89130285Y-105306857D01*
X89130285Y-105402095D01*
X89177904Y-105544952D01*
X89749333Y-106116381D01*
X89130285Y-106116381D01*
X87034666Y-106116381D02*
X87368000Y-105640190D01*
X87606095Y-106116381D02*
X87606095Y-105116381D01*
X87225142Y-105116381D01*
X87129904Y-105164000D01*
X87082285Y-105211619D01*
X87034666Y-105306857D01*
X87034666Y-105449714D01*
X87082285Y-105544952D01*
X87129904Y-105592571D01*
X87225142Y-105640190D01*
X87606095Y-105640190D01*
X86082285Y-106116381D02*
X86653714Y-106116381D01*
X86368000Y-106116381D02*
X86368000Y-105116381D01*
X86463238Y-105259238D01*
X86558476Y-105354476D01*
X86653714Y-105402095D01*
X92842857Y-125257143D02*
X92890476Y-125304762D01*
X93033333Y-125352381D01*
X93128571Y-125352381D01*
X93271429Y-125304762D01*
X93366667Y-125209524D01*
X93414286Y-125114286D01*
X93461905Y-124923810D01*
X93461905Y-124780952D01*
X93414286Y-124590476D01*
X93366667Y-124495238D01*
X93271429Y-124400000D01*
X93128571Y-124352381D01*
X93033333Y-124352381D01*
X92890476Y-124400000D01*
X92842857Y-124447619D01*
X92080952Y-124828571D02*
X91938095Y-124876190D01*
X91890476Y-124923810D01*
X91842857Y-125019048D01*
X91842857Y-125161905D01*
X91890476Y-125257143D01*
X91938095Y-125304762D01*
X92033333Y-125352381D01*
X92414286Y-125352381D01*
X92414286Y-124352381D01*
X92080952Y-124352381D01*
X91985714Y-124400000D01*
X91938095Y-124447619D01*
X91890476Y-124542857D01*
X91890476Y-124638095D01*
X91938095Y-124733333D01*
X91985714Y-124780952D01*
X92080952Y-124828571D01*
X92414286Y-124828571D01*
X91509524Y-124352381D02*
X90890476Y-124352381D01*
X91223810Y-124733333D01*
X91080952Y-124733333D01*
X90985714Y-124780952D01*
X90938095Y-124828571D01*
X90890476Y-124923810D01*
X90890476Y-125161905D01*
X90938095Y-125257143D01*
X90985714Y-125304762D01*
X91080952Y-125352381D01*
X91366667Y-125352381D01*
X91461905Y-125304762D01*
X91509524Y-125257143D01*
X90509524Y-124447619D02*
X90461905Y-124400000D01*
X90366667Y-124352381D01*
X90128571Y-124352381D01*
X90033333Y-124400000D01*
X89985714Y-124447619D01*
X89938095Y-124542857D01*
X89938095Y-124638095D01*
X89985714Y-124780952D01*
X90557143Y-125352381D01*
X89938095Y-125352381D01*
X89557143Y-125357143D02*
X89604762Y-125309524D01*
X89652381Y-125166667D01*
X89652381Y-125071429D01*
X89604762Y-124928571D01*
X89509524Y-124833333D01*
X89414286Y-124785714D01*
X89223810Y-124738095D01*
X89080952Y-124738095D01*
X88890476Y-124785714D01*
X88795238Y-124833333D01*
X88700000Y-124928571D01*
X88652381Y-125071429D01*
X88652381Y-125166667D01*
X88700000Y-125309524D01*
X88747619Y-125357143D01*
X89128571Y-126119048D02*
X89176190Y-126261905D01*
X89223810Y-126309524D01*
X89319048Y-126357143D01*
X89461905Y-126357143D01*
X89557143Y-126309524D01*
X89604762Y-126261905D01*
X89652381Y-126166667D01*
X89652381Y-125785714D01*
X88652381Y-125785714D01*
X88652381Y-126119048D01*
X88700000Y-126214286D01*
X88747619Y-126261905D01*
X88842857Y-126309524D01*
X88938095Y-126309524D01*
X89033333Y-126261905D01*
X89080952Y-126214286D01*
X89128571Y-126119048D01*
X89128571Y-125785714D01*
X88652381Y-126690476D02*
X88652381Y-127309524D01*
X89033333Y-126976190D01*
X89033333Y-127119048D01*
X89080952Y-127214286D01*
X89128571Y-127261905D01*
X89223810Y-127309524D01*
X89461905Y-127309524D01*
X89557143Y-127261905D01*
X89604762Y-127214286D01*
X89652381Y-127119048D01*
X89652381Y-126833333D01*
X89604762Y-126738095D01*
X89557143Y-126690476D01*
X89652381Y-128261905D02*
X89652381Y-127690476D01*
X89652381Y-127976190D02*
X88652381Y-127976190D01*
X88795238Y-127880952D01*
X88890476Y-127785714D01*
X88938095Y-127690476D01*
X81242857Y-130857143D02*
X81290476Y-130904762D01*
X81433333Y-130952381D01*
X81528571Y-130952381D01*
X81671429Y-130904762D01*
X81766667Y-130809524D01*
X81814286Y-130714286D01*
X81861905Y-130523810D01*
X81861905Y-130380952D01*
X81814286Y-130190476D01*
X81766667Y-130095238D01*
X81671429Y-130000000D01*
X81528571Y-129952381D01*
X81433333Y-129952381D01*
X81290476Y-130000000D01*
X81242857Y-130047619D01*
X80480952Y-130428571D02*
X80338095Y-130476190D01*
X80290476Y-130523810D01*
X80242857Y-130619048D01*
X80242857Y-130761905D01*
X80290476Y-130857143D01*
X80338095Y-130904762D01*
X80433333Y-130952381D01*
X80814286Y-130952381D01*
X80814286Y-129952381D01*
X80480952Y-129952381D01*
X80385714Y-130000000D01*
X80338095Y-130047619D01*
X80290476Y-130142857D01*
X80290476Y-130238095D01*
X80338095Y-130333333D01*
X80385714Y-130380952D01*
X80480952Y-130428571D01*
X80814286Y-130428571D01*
X79909524Y-129952381D02*
X79290476Y-129952381D01*
X79623810Y-130333333D01*
X79480952Y-130333333D01*
X79385714Y-130380952D01*
X79338095Y-130428571D01*
X79290476Y-130523810D01*
X79290476Y-130761905D01*
X79338095Y-130857143D01*
X79385714Y-130904762D01*
X79480952Y-130952381D01*
X79766667Y-130952381D01*
X79861905Y-130904762D01*
X79909524Y-130857143D01*
X78671429Y-129952381D02*
X78576190Y-129952381D01*
X78480952Y-130000000D01*
X78433333Y-130047619D01*
X78385714Y-130142857D01*
X78338095Y-130333333D01*
X78338095Y-130571429D01*
X78385714Y-130761905D01*
X78433333Y-130857143D01*
X78480952Y-130904762D01*
X78576190Y-130952381D01*
X78671429Y-130952381D01*
X78766667Y-130904762D01*
X78814286Y-130857143D01*
X78861905Y-130761905D01*
X78909524Y-130571429D01*
X78909524Y-130333333D01*
X78861905Y-130142857D01*
X78814286Y-130047619D01*
X78766667Y-130000000D01*
X78671429Y-129952381D01*
X66166857Y-116689143D02*
X66214476Y-116736762D01*
X66357333Y-116784381D01*
X66452571Y-116784381D01*
X66595429Y-116736762D01*
X66690667Y-116641524D01*
X66738286Y-116546286D01*
X66785905Y-116355810D01*
X66785905Y-116212952D01*
X66738286Y-116022476D01*
X66690667Y-115927238D01*
X66595429Y-115832000D01*
X66452571Y-115784381D01*
X66357333Y-115784381D01*
X66214476Y-115832000D01*
X66166857Y-115879619D01*
X65404952Y-116260571D02*
X65262095Y-116308190D01*
X65214476Y-116355810D01*
X65166857Y-116451048D01*
X65166857Y-116593905D01*
X65214476Y-116689143D01*
X65262095Y-116736762D01*
X65357333Y-116784381D01*
X65738286Y-116784381D01*
X65738286Y-115784381D01*
X65404952Y-115784381D01*
X65309714Y-115832000D01*
X65262095Y-115879619D01*
X65214476Y-115974857D01*
X65214476Y-116070095D01*
X65262095Y-116165333D01*
X65309714Y-116212952D01*
X65404952Y-116260571D01*
X65738286Y-116260571D01*
X64785905Y-115879619D02*
X64738286Y-115832000D01*
X64643048Y-115784381D01*
X64404952Y-115784381D01*
X64309714Y-115832000D01*
X64262095Y-115879619D01*
X64214476Y-115974857D01*
X64214476Y-116070095D01*
X64262095Y-116212952D01*
X64833524Y-116784381D01*
X64214476Y-116784381D01*
X63738286Y-116784381D02*
X63547810Y-116784381D01*
X63452571Y-116736762D01*
X63404952Y-116689143D01*
X63309714Y-116546286D01*
X63262095Y-116355810D01*
X63262095Y-115974857D01*
X63309714Y-115879619D01*
X63357333Y-115832000D01*
X63452571Y-115784381D01*
X63643048Y-115784381D01*
X63738286Y-115832000D01*
X63785905Y-115879619D01*
X63833524Y-115974857D01*
X63833524Y-116212952D01*
X63785905Y-116308190D01*
X63738286Y-116355810D01*
X63643048Y-116403429D01*
X63452571Y-116403429D01*
X63357333Y-116355810D01*
X63309714Y-116308190D01*
X63262095Y-116212952D01*
X66242857Y-110657143D02*
X66290476Y-110704762D01*
X66433333Y-110752381D01*
X66528571Y-110752381D01*
X66671429Y-110704762D01*
X66766667Y-110609524D01*
X66814286Y-110514286D01*
X66861905Y-110323810D01*
X66861905Y-110180952D01*
X66814286Y-109990476D01*
X66766667Y-109895238D01*
X66671429Y-109800000D01*
X66528571Y-109752381D01*
X66433333Y-109752381D01*
X66290476Y-109800000D01*
X66242857Y-109847619D01*
X65480952Y-110228571D02*
X65338095Y-110276190D01*
X65290476Y-110323810D01*
X65242857Y-110419048D01*
X65242857Y-110561905D01*
X65290476Y-110657143D01*
X65338095Y-110704762D01*
X65433333Y-110752381D01*
X65814286Y-110752381D01*
X65814286Y-109752381D01*
X65480952Y-109752381D01*
X65385714Y-109800000D01*
X65338095Y-109847619D01*
X65290476Y-109942857D01*
X65290476Y-110038095D01*
X65338095Y-110133333D01*
X65385714Y-110180952D01*
X65480952Y-110228571D01*
X65814286Y-110228571D01*
X64861905Y-109847619D02*
X64814286Y-109800000D01*
X64719048Y-109752381D01*
X64480952Y-109752381D01*
X64385714Y-109800000D01*
X64338095Y-109847619D01*
X64290476Y-109942857D01*
X64290476Y-110038095D01*
X64338095Y-110180952D01*
X64909524Y-110752381D01*
X64290476Y-110752381D01*
X63957143Y-109752381D02*
X63290476Y-109752381D01*
X63719048Y-110752381D01*
X65157143Y-118857143D02*
X65204762Y-118809524D01*
X65252381Y-118666667D01*
X65252381Y-118571429D01*
X65204762Y-118428571D01*
X65109524Y-118333333D01*
X65014286Y-118285714D01*
X64823810Y-118238095D01*
X64680952Y-118238095D01*
X64490476Y-118285714D01*
X64395238Y-118333333D01*
X64300000Y-118428571D01*
X64252381Y-118571429D01*
X64252381Y-118666667D01*
X64300000Y-118809524D01*
X64347619Y-118857143D01*
X64728571Y-119619048D02*
X64776190Y-119761905D01*
X64823810Y-119809524D01*
X64919048Y-119857143D01*
X65061905Y-119857143D01*
X65157143Y-119809524D01*
X65204762Y-119761905D01*
X65252381Y-119666667D01*
X65252381Y-119285714D01*
X64252381Y-119285714D01*
X64252381Y-119619048D01*
X64300000Y-119714286D01*
X64347619Y-119761905D01*
X64442857Y-119809524D01*
X64538095Y-119809524D01*
X64633333Y-119761905D01*
X64680952Y-119714286D01*
X64728571Y-119619048D01*
X64728571Y-119285714D01*
X64347619Y-120238095D02*
X64300000Y-120285714D01*
X64252381Y-120380952D01*
X64252381Y-120619048D01*
X64300000Y-120714286D01*
X64347619Y-120761905D01*
X64442857Y-120809524D01*
X64538095Y-120809524D01*
X64680952Y-120761905D01*
X65252381Y-120190476D01*
X65252381Y-120809524D01*
X64252381Y-121666667D02*
X64252381Y-121476190D01*
X64300000Y-121380952D01*
X64347619Y-121333333D01*
X64490476Y-121238095D01*
X64680952Y-121190476D01*
X65061905Y-121190476D01*
X65157143Y-121238095D01*
X65204762Y-121285714D01*
X65252381Y-121380952D01*
X65252381Y-121571429D01*
X65204762Y-121666667D01*
X65157143Y-121714286D01*
X65061905Y-121761905D01*
X64823810Y-121761905D01*
X64728571Y-121714286D01*
X64680952Y-121666667D01*
X64633333Y-121571429D01*
X64633333Y-121380952D01*
X64680952Y-121285714D01*
X64728571Y-121238095D01*
X64823810Y-121190476D01*
X75056857Y-115419143D02*
X75104476Y-115466762D01*
X75247333Y-115514381D01*
X75342571Y-115514381D01*
X75485429Y-115466762D01*
X75580667Y-115371524D01*
X75628286Y-115276286D01*
X75675905Y-115085810D01*
X75675905Y-114942952D01*
X75628286Y-114752476D01*
X75580667Y-114657238D01*
X75485429Y-114562000D01*
X75342571Y-114514381D01*
X75247333Y-114514381D01*
X75104476Y-114562000D01*
X75056857Y-114609619D01*
X74294952Y-114990571D02*
X74152095Y-115038190D01*
X74104476Y-115085810D01*
X74056857Y-115181048D01*
X74056857Y-115323905D01*
X74104476Y-115419143D01*
X74152095Y-115466762D01*
X74247333Y-115514381D01*
X74628286Y-115514381D01*
X74628286Y-114514381D01*
X74294952Y-114514381D01*
X74199714Y-114562000D01*
X74152095Y-114609619D01*
X74104476Y-114704857D01*
X74104476Y-114800095D01*
X74152095Y-114895333D01*
X74199714Y-114942952D01*
X74294952Y-114990571D01*
X74628286Y-114990571D01*
X73675905Y-114609619D02*
X73628286Y-114562000D01*
X73533048Y-114514381D01*
X73294952Y-114514381D01*
X73199714Y-114562000D01*
X73152095Y-114609619D01*
X73104476Y-114704857D01*
X73104476Y-114800095D01*
X73152095Y-114942952D01*
X73723524Y-115514381D01*
X73104476Y-115514381D01*
X72199714Y-114514381D02*
X72675905Y-114514381D01*
X72723524Y-114990571D01*
X72675905Y-114942952D01*
X72580667Y-114895333D01*
X72342571Y-114895333D01*
X72247333Y-114942952D01*
X72199714Y-114990571D01*
X72152095Y-115085810D01*
X72152095Y-115323905D01*
X72199714Y-115419143D01*
X72247333Y-115466762D01*
X72342571Y-115514381D01*
X72580667Y-115514381D01*
X72675905Y-115466762D01*
X72723524Y-115419143D01*
X56242857Y-106957143D02*
X56290476Y-107004762D01*
X56433333Y-107052381D01*
X56528571Y-107052381D01*
X56671429Y-107004762D01*
X56766667Y-106909524D01*
X56814286Y-106814286D01*
X56861905Y-106623810D01*
X56861905Y-106480952D01*
X56814286Y-106290476D01*
X56766667Y-106195238D01*
X56671429Y-106100000D01*
X56528571Y-106052381D01*
X56433333Y-106052381D01*
X56290476Y-106100000D01*
X56242857Y-106147619D01*
X55480952Y-106528571D02*
X55338095Y-106576190D01*
X55290476Y-106623810D01*
X55242857Y-106719048D01*
X55242857Y-106861905D01*
X55290476Y-106957143D01*
X55338095Y-107004762D01*
X55433333Y-107052381D01*
X55814286Y-107052381D01*
X55814286Y-106052381D01*
X55480952Y-106052381D01*
X55385714Y-106100000D01*
X55338095Y-106147619D01*
X55290476Y-106242857D01*
X55290476Y-106338095D01*
X55338095Y-106433333D01*
X55385714Y-106480952D01*
X55480952Y-106528571D01*
X55814286Y-106528571D01*
X54861905Y-106147619D02*
X54814286Y-106100000D01*
X54719048Y-106052381D01*
X54480952Y-106052381D01*
X54385714Y-106100000D01*
X54338095Y-106147619D01*
X54290476Y-106242857D01*
X54290476Y-106338095D01*
X54338095Y-106480952D01*
X54909524Y-107052381D01*
X54290476Y-107052381D01*
X53433333Y-106385714D02*
X53433333Y-107052381D01*
X53671429Y-106004762D02*
X53909524Y-106719048D01*
X53290476Y-106719048D01*
X56242857Y-103757143D02*
X56290476Y-103804762D01*
X56433333Y-103852381D01*
X56528571Y-103852381D01*
X56671429Y-103804762D01*
X56766667Y-103709524D01*
X56814286Y-103614286D01*
X56861905Y-103423810D01*
X56861905Y-103280952D01*
X56814286Y-103090476D01*
X56766667Y-102995238D01*
X56671429Y-102900000D01*
X56528571Y-102852381D01*
X56433333Y-102852381D01*
X56290476Y-102900000D01*
X56242857Y-102947619D01*
X55480952Y-103328571D02*
X55338095Y-103376190D01*
X55290476Y-103423810D01*
X55242857Y-103519048D01*
X55242857Y-103661905D01*
X55290476Y-103757143D01*
X55338095Y-103804762D01*
X55433333Y-103852381D01*
X55814286Y-103852381D01*
X55814286Y-102852381D01*
X55480952Y-102852381D01*
X55385714Y-102900000D01*
X55338095Y-102947619D01*
X55290476Y-103042857D01*
X55290476Y-103138095D01*
X55338095Y-103233333D01*
X55385714Y-103280952D01*
X55480952Y-103328571D01*
X55814286Y-103328571D01*
X54861905Y-102947619D02*
X54814286Y-102900000D01*
X54719048Y-102852381D01*
X54480952Y-102852381D01*
X54385714Y-102900000D01*
X54338095Y-102947619D01*
X54290476Y-103042857D01*
X54290476Y-103138095D01*
X54338095Y-103280952D01*
X54909524Y-103852381D01*
X54290476Y-103852381D01*
X53957143Y-102852381D02*
X53338095Y-102852381D01*
X53671429Y-103233333D01*
X53528571Y-103233333D01*
X53433333Y-103280952D01*
X53385714Y-103328571D01*
X53338095Y-103423810D01*
X53338095Y-103661905D01*
X53385714Y-103757143D01*
X53433333Y-103804762D01*
X53528571Y-103852381D01*
X53814286Y-103852381D01*
X53909524Y-103804762D01*
X53957143Y-103757143D01*
X83742857Y-120657143D02*
X83790476Y-120704762D01*
X83933333Y-120752381D01*
X84028571Y-120752381D01*
X84171429Y-120704762D01*
X84266667Y-120609524D01*
X84314286Y-120514286D01*
X84361905Y-120323810D01*
X84361905Y-120180952D01*
X84314286Y-119990476D01*
X84266667Y-119895238D01*
X84171429Y-119800000D01*
X84028571Y-119752381D01*
X83933333Y-119752381D01*
X83790476Y-119800000D01*
X83742857Y-119847619D01*
X82980952Y-120228571D02*
X82838095Y-120276190D01*
X82790476Y-120323810D01*
X82742857Y-120419048D01*
X82742857Y-120561905D01*
X82790476Y-120657143D01*
X82838095Y-120704762D01*
X82933333Y-120752381D01*
X83314286Y-120752381D01*
X83314286Y-119752381D01*
X82980952Y-119752381D01*
X82885714Y-119800000D01*
X82838095Y-119847619D01*
X82790476Y-119942857D01*
X82790476Y-120038095D01*
X82838095Y-120133333D01*
X82885714Y-120180952D01*
X82980952Y-120228571D01*
X83314286Y-120228571D01*
X82361905Y-119847619D02*
X82314286Y-119800000D01*
X82219048Y-119752381D01*
X81980952Y-119752381D01*
X81885714Y-119800000D01*
X81838095Y-119847619D01*
X81790476Y-119942857D01*
X81790476Y-120038095D01*
X81838095Y-120180952D01*
X82409524Y-120752381D01*
X81790476Y-120752381D01*
X81409524Y-119847619D02*
X81361905Y-119800000D01*
X81266667Y-119752381D01*
X81028571Y-119752381D01*
X80933333Y-119800000D01*
X80885714Y-119847619D01*
X80838095Y-119942857D01*
X80838095Y-120038095D01*
X80885714Y-120180952D01*
X81457143Y-120752381D01*
X80838095Y-120752381D01*
X105942857Y-118757143D02*
X105990476Y-118804762D01*
X106133333Y-118852381D01*
X106228571Y-118852381D01*
X106371429Y-118804762D01*
X106466667Y-118709524D01*
X106514286Y-118614286D01*
X106561905Y-118423810D01*
X106561905Y-118280952D01*
X106514286Y-118090476D01*
X106466667Y-117995238D01*
X106371429Y-117900000D01*
X106228571Y-117852381D01*
X106133333Y-117852381D01*
X105990476Y-117900000D01*
X105942857Y-117947619D01*
X105180952Y-118328571D02*
X105038095Y-118376190D01*
X104990476Y-118423810D01*
X104942857Y-118519048D01*
X104942857Y-118661905D01*
X104990476Y-118757143D01*
X105038095Y-118804762D01*
X105133333Y-118852381D01*
X105514286Y-118852381D01*
X105514286Y-117852381D01*
X105180952Y-117852381D01*
X105085714Y-117900000D01*
X105038095Y-117947619D01*
X104990476Y-118042857D01*
X104990476Y-118138095D01*
X105038095Y-118233333D01*
X105085714Y-118280952D01*
X105180952Y-118328571D01*
X105514286Y-118328571D01*
X104561905Y-117947619D02*
X104514286Y-117900000D01*
X104419048Y-117852381D01*
X104180952Y-117852381D01*
X104085714Y-117900000D01*
X104038095Y-117947619D01*
X103990476Y-118042857D01*
X103990476Y-118138095D01*
X104038095Y-118280952D01*
X104609524Y-118852381D01*
X103990476Y-118852381D01*
X103038095Y-118852381D02*
X103609524Y-118852381D01*
X103323810Y-118852381D02*
X103323810Y-117852381D01*
X103419048Y-117995238D01*
X103514286Y-118090476D01*
X103609524Y-118138095D01*
X95642857Y-119757143D02*
X95690476Y-119804762D01*
X95833333Y-119852381D01*
X95928571Y-119852381D01*
X96071429Y-119804762D01*
X96166667Y-119709524D01*
X96214286Y-119614286D01*
X96261905Y-119423810D01*
X96261905Y-119280952D01*
X96214286Y-119090476D01*
X96166667Y-118995238D01*
X96071429Y-118900000D01*
X95928571Y-118852381D01*
X95833333Y-118852381D01*
X95690476Y-118900000D01*
X95642857Y-118947619D01*
X94880952Y-119328571D02*
X94738095Y-119376190D01*
X94690476Y-119423810D01*
X94642857Y-119519048D01*
X94642857Y-119661905D01*
X94690476Y-119757143D01*
X94738095Y-119804762D01*
X94833333Y-119852381D01*
X95214286Y-119852381D01*
X95214286Y-118852381D01*
X94880952Y-118852381D01*
X94785714Y-118900000D01*
X94738095Y-118947619D01*
X94690476Y-119042857D01*
X94690476Y-119138095D01*
X94738095Y-119233333D01*
X94785714Y-119280952D01*
X94880952Y-119328571D01*
X95214286Y-119328571D01*
X94261905Y-118947619D02*
X94214286Y-118900000D01*
X94119048Y-118852381D01*
X93880952Y-118852381D01*
X93785714Y-118900000D01*
X93738095Y-118947619D01*
X93690476Y-119042857D01*
X93690476Y-119138095D01*
X93738095Y-119280952D01*
X94309524Y-119852381D01*
X93690476Y-119852381D01*
X93071429Y-118852381D02*
X92976190Y-118852381D01*
X92880952Y-118900000D01*
X92833333Y-118947619D01*
X92785714Y-119042857D01*
X92738095Y-119233333D01*
X92738095Y-119471429D01*
X92785714Y-119661905D01*
X92833333Y-119757143D01*
X92880952Y-119804762D01*
X92976190Y-119852381D01*
X93071429Y-119852381D01*
X93166667Y-119804762D01*
X93214286Y-119757143D01*
X93261905Y-119661905D01*
X93309524Y-119471429D01*
X93309524Y-119233333D01*
X93261905Y-119042857D01*
X93214286Y-118947619D01*
X93166667Y-118900000D01*
X93071429Y-118852381D01*
X95742857Y-122057143D02*
X95790476Y-122104762D01*
X95933333Y-122152381D01*
X96028571Y-122152381D01*
X96171429Y-122104762D01*
X96266667Y-122009524D01*
X96314286Y-121914286D01*
X96361905Y-121723810D01*
X96361905Y-121580952D01*
X96314286Y-121390476D01*
X96266667Y-121295238D01*
X96171429Y-121200000D01*
X96028571Y-121152381D01*
X95933333Y-121152381D01*
X95790476Y-121200000D01*
X95742857Y-121247619D01*
X94980952Y-121628571D02*
X94838095Y-121676190D01*
X94790476Y-121723810D01*
X94742857Y-121819048D01*
X94742857Y-121961905D01*
X94790476Y-122057143D01*
X94838095Y-122104762D01*
X94933333Y-122152381D01*
X95314286Y-122152381D01*
X95314286Y-121152381D01*
X94980952Y-121152381D01*
X94885714Y-121200000D01*
X94838095Y-121247619D01*
X94790476Y-121342857D01*
X94790476Y-121438095D01*
X94838095Y-121533333D01*
X94885714Y-121580952D01*
X94980952Y-121628571D01*
X95314286Y-121628571D01*
X93790476Y-122152381D02*
X94361905Y-122152381D01*
X94076191Y-122152381D02*
X94076191Y-121152381D01*
X94171429Y-121295238D01*
X94266667Y-121390476D01*
X94361905Y-121438095D01*
X93314286Y-122152381D02*
X93123810Y-122152381D01*
X93028571Y-122104762D01*
X92980952Y-122057143D01*
X92885714Y-121914286D01*
X92838095Y-121723810D01*
X92838095Y-121342857D01*
X92885714Y-121247619D01*
X92933333Y-121200000D01*
X93028571Y-121152381D01*
X93219048Y-121152381D01*
X93314286Y-121200000D01*
X93361905Y-121247619D01*
X93409524Y-121342857D01*
X93409524Y-121580952D01*
X93361905Y-121676190D01*
X93314286Y-121723810D01*
X93219048Y-121771429D01*
X93028571Y-121771429D01*
X92933333Y-121723810D01*
X92885714Y-121676190D01*
X92838095Y-121580952D01*
X109842857Y-112357143D02*
X109890476Y-112404762D01*
X110033333Y-112452381D01*
X110128571Y-112452381D01*
X110271429Y-112404762D01*
X110366667Y-112309524D01*
X110414286Y-112214286D01*
X110461905Y-112023810D01*
X110461905Y-111880952D01*
X110414286Y-111690476D01*
X110366667Y-111595238D01*
X110271429Y-111500000D01*
X110128571Y-111452381D01*
X110033333Y-111452381D01*
X109890476Y-111500000D01*
X109842857Y-111547619D01*
X109080952Y-111928571D02*
X108938095Y-111976190D01*
X108890476Y-112023810D01*
X108842857Y-112119048D01*
X108842857Y-112261905D01*
X108890476Y-112357143D01*
X108938095Y-112404762D01*
X109033333Y-112452381D01*
X109414286Y-112452381D01*
X109414286Y-111452381D01*
X109080952Y-111452381D01*
X108985714Y-111500000D01*
X108938095Y-111547619D01*
X108890476Y-111642857D01*
X108890476Y-111738095D01*
X108938095Y-111833333D01*
X108985714Y-111880952D01*
X109080952Y-111928571D01*
X109414286Y-111928571D01*
X107890476Y-112452381D02*
X108461905Y-112452381D01*
X108176191Y-112452381D02*
X108176191Y-111452381D01*
X108271429Y-111595238D01*
X108366667Y-111690476D01*
X108461905Y-111738095D01*
X107319048Y-111880952D02*
X107414286Y-111833333D01*
X107461905Y-111785714D01*
X107509524Y-111690476D01*
X107509524Y-111642857D01*
X107461905Y-111547619D01*
X107414286Y-111500000D01*
X107319048Y-111452381D01*
X107128571Y-111452381D01*
X107033333Y-111500000D01*
X106985714Y-111547619D01*
X106938095Y-111642857D01*
X106938095Y-111690476D01*
X106985714Y-111785714D01*
X107033333Y-111833333D01*
X107128571Y-111880952D01*
X107319048Y-111880952D01*
X107414286Y-111928571D01*
X107461905Y-111976190D01*
X107509524Y-112071429D01*
X107509524Y-112261905D01*
X107461905Y-112357143D01*
X107414286Y-112404762D01*
X107319048Y-112452381D01*
X107128571Y-112452381D01*
X107033333Y-112404762D01*
X106985714Y-112357143D01*
X106938095Y-112261905D01*
X106938095Y-112071429D01*
X106985714Y-111976190D01*
X107033333Y-111928571D01*
X107128571Y-111880952D01*
X73786857Y-108815143D02*
X73834476Y-108862762D01*
X73977333Y-108910381D01*
X74072571Y-108910381D01*
X74215429Y-108862762D01*
X74310667Y-108767524D01*
X74358286Y-108672286D01*
X74405905Y-108481810D01*
X74405905Y-108338952D01*
X74358286Y-108148476D01*
X74310667Y-108053238D01*
X74215429Y-107958000D01*
X74072571Y-107910381D01*
X73977333Y-107910381D01*
X73834476Y-107958000D01*
X73786857Y-108005619D01*
X73024952Y-108386571D02*
X72882095Y-108434190D01*
X72834476Y-108481810D01*
X72786857Y-108577048D01*
X72786857Y-108719905D01*
X72834476Y-108815143D01*
X72882095Y-108862762D01*
X72977333Y-108910381D01*
X73358286Y-108910381D01*
X73358286Y-107910381D01*
X73024952Y-107910381D01*
X72929714Y-107958000D01*
X72882095Y-108005619D01*
X72834476Y-108100857D01*
X72834476Y-108196095D01*
X72882095Y-108291333D01*
X72929714Y-108338952D01*
X73024952Y-108386571D01*
X73358286Y-108386571D01*
X71834476Y-108910381D02*
X72405905Y-108910381D01*
X72120191Y-108910381D02*
X72120191Y-107910381D01*
X72215429Y-108053238D01*
X72310667Y-108148476D01*
X72405905Y-108196095D01*
X71501143Y-107910381D02*
X70834476Y-107910381D01*
X71263048Y-108910381D01*
X107568857Y-144375143D02*
X107616476Y-144422762D01*
X107759333Y-144470381D01*
X107854571Y-144470381D01*
X107997429Y-144422762D01*
X108092667Y-144327524D01*
X108140286Y-144232286D01*
X108187905Y-144041810D01*
X108187905Y-143898952D01*
X108140286Y-143708476D01*
X108092667Y-143613238D01*
X107997429Y-143518000D01*
X107854571Y-143470381D01*
X107759333Y-143470381D01*
X107616476Y-143518000D01*
X107568857Y-143565619D01*
X106806952Y-143946571D02*
X106664095Y-143994190D01*
X106616476Y-144041810D01*
X106568857Y-144137048D01*
X106568857Y-144279905D01*
X106616476Y-144375143D01*
X106664095Y-144422762D01*
X106759333Y-144470381D01*
X107140286Y-144470381D01*
X107140286Y-143470381D01*
X106806952Y-143470381D01*
X106711714Y-143518000D01*
X106664095Y-143565619D01*
X106616476Y-143660857D01*
X106616476Y-143756095D01*
X106664095Y-143851333D01*
X106711714Y-143898952D01*
X106806952Y-143946571D01*
X107140286Y-143946571D01*
X105616476Y-144470381D02*
X106187905Y-144470381D01*
X105902191Y-144470381D02*
X105902191Y-143470381D01*
X105997429Y-143613238D01*
X106092667Y-143708476D01*
X106187905Y-143756095D01*
X104759333Y-143470381D02*
X104949810Y-143470381D01*
X105045048Y-143518000D01*
X105092667Y-143565619D01*
X105187905Y-143708476D01*
X105235524Y-143898952D01*
X105235524Y-144279905D01*
X105187905Y-144375143D01*
X105140286Y-144422762D01*
X105045048Y-144470381D01*
X104854571Y-144470381D01*
X104759333Y-144422762D01*
X104711714Y-144375143D01*
X104664095Y-144279905D01*
X104664095Y-144041810D01*
X104711714Y-143946571D01*
X104759333Y-143898952D01*
X104854571Y-143851333D01*
X105045048Y-143851333D01*
X105140286Y-143898952D01*
X105187905Y-143946571D01*
X105235524Y-144041810D01*
X79242857Y-109557143D02*
X79290476Y-109604762D01*
X79433333Y-109652381D01*
X79528571Y-109652381D01*
X79671429Y-109604762D01*
X79766667Y-109509524D01*
X79814286Y-109414286D01*
X79861905Y-109223810D01*
X79861905Y-109080952D01*
X79814286Y-108890476D01*
X79766667Y-108795238D01*
X79671429Y-108700000D01*
X79528571Y-108652381D01*
X79433333Y-108652381D01*
X79290476Y-108700000D01*
X79242857Y-108747619D01*
X78480952Y-109128571D02*
X78338095Y-109176190D01*
X78290476Y-109223810D01*
X78242857Y-109319048D01*
X78242857Y-109461905D01*
X78290476Y-109557143D01*
X78338095Y-109604762D01*
X78433333Y-109652381D01*
X78814286Y-109652381D01*
X78814286Y-108652381D01*
X78480952Y-108652381D01*
X78385714Y-108700000D01*
X78338095Y-108747619D01*
X78290476Y-108842857D01*
X78290476Y-108938095D01*
X78338095Y-109033333D01*
X78385714Y-109080952D01*
X78480952Y-109128571D01*
X78814286Y-109128571D01*
X77290476Y-109652381D02*
X77861905Y-109652381D01*
X77576191Y-109652381D02*
X77576191Y-108652381D01*
X77671429Y-108795238D01*
X77766667Y-108890476D01*
X77861905Y-108938095D01*
X76385714Y-108652381D02*
X76861905Y-108652381D01*
X76909524Y-109128571D01*
X76861905Y-109080952D01*
X76766667Y-109033333D01*
X76528571Y-109033333D01*
X76433333Y-109080952D01*
X76385714Y-109128571D01*
X76338095Y-109223810D01*
X76338095Y-109461905D01*
X76385714Y-109557143D01*
X76433333Y-109604762D01*
X76528571Y-109652381D01*
X76766667Y-109652381D01*
X76861905Y-109604762D01*
X76909524Y-109557143D01*
X133542857Y-144557143D02*
X133590476Y-144604762D01*
X133733333Y-144652381D01*
X133828571Y-144652381D01*
X133971429Y-144604762D01*
X134066667Y-144509524D01*
X134114286Y-144414286D01*
X134161905Y-144223810D01*
X134161905Y-144080952D01*
X134114286Y-143890476D01*
X134066667Y-143795238D01*
X133971429Y-143700000D01*
X133828571Y-143652381D01*
X133733333Y-143652381D01*
X133590476Y-143700000D01*
X133542857Y-143747619D01*
X132780952Y-144128571D02*
X132638095Y-144176190D01*
X132590476Y-144223810D01*
X132542857Y-144319048D01*
X132542857Y-144461905D01*
X132590476Y-144557143D01*
X132638095Y-144604762D01*
X132733333Y-144652381D01*
X133114286Y-144652381D01*
X133114286Y-143652381D01*
X132780952Y-143652381D01*
X132685714Y-143700000D01*
X132638095Y-143747619D01*
X132590476Y-143842857D01*
X132590476Y-143938095D01*
X132638095Y-144033333D01*
X132685714Y-144080952D01*
X132780952Y-144128571D01*
X133114286Y-144128571D01*
X131590476Y-144652381D02*
X132161905Y-144652381D01*
X131876191Y-144652381D02*
X131876191Y-143652381D01*
X131971429Y-143795238D01*
X132066667Y-143890476D01*
X132161905Y-143938095D01*
X130733333Y-143985714D02*
X130733333Y-144652381D01*
X130971429Y-143604762D02*
X131209524Y-144319048D01*
X130590476Y-144319048D01*
X124942857Y-134957143D02*
X124990476Y-135004762D01*
X125133333Y-135052381D01*
X125228571Y-135052381D01*
X125371429Y-135004762D01*
X125466667Y-134909524D01*
X125514286Y-134814286D01*
X125561905Y-134623810D01*
X125561905Y-134480952D01*
X125514286Y-134290476D01*
X125466667Y-134195238D01*
X125371429Y-134100000D01*
X125228571Y-134052381D01*
X125133333Y-134052381D01*
X124990476Y-134100000D01*
X124942857Y-134147619D01*
X124180952Y-134528571D02*
X124038095Y-134576190D01*
X123990476Y-134623810D01*
X123942857Y-134719048D01*
X123942857Y-134861905D01*
X123990476Y-134957143D01*
X124038095Y-135004762D01*
X124133333Y-135052381D01*
X124514286Y-135052381D01*
X124514286Y-134052381D01*
X124180952Y-134052381D01*
X124085714Y-134100000D01*
X124038095Y-134147619D01*
X123990476Y-134242857D01*
X123990476Y-134338095D01*
X124038095Y-134433333D01*
X124085714Y-134480952D01*
X124180952Y-134528571D01*
X124514286Y-134528571D01*
X122990476Y-135052381D02*
X123561905Y-135052381D01*
X123276191Y-135052381D02*
X123276191Y-134052381D01*
X123371429Y-134195238D01*
X123466667Y-134290476D01*
X123561905Y-134338095D01*
X122657143Y-134052381D02*
X122038095Y-134052381D01*
X122371429Y-134433333D01*
X122228571Y-134433333D01*
X122133333Y-134480952D01*
X122085714Y-134528571D01*
X122038095Y-134623810D01*
X122038095Y-134861905D01*
X122085714Y-134957143D01*
X122133333Y-135004762D01*
X122228571Y-135052381D01*
X122514286Y-135052381D01*
X122609524Y-135004762D01*
X122657143Y-134957143D01*
X108330857Y-135739143D02*
X108378476Y-135786762D01*
X108521333Y-135834381D01*
X108616571Y-135834381D01*
X108759429Y-135786762D01*
X108854667Y-135691524D01*
X108902286Y-135596286D01*
X108949905Y-135405810D01*
X108949905Y-135262952D01*
X108902286Y-135072476D01*
X108854667Y-134977238D01*
X108759429Y-134882000D01*
X108616571Y-134834381D01*
X108521333Y-134834381D01*
X108378476Y-134882000D01*
X108330857Y-134929619D01*
X107568952Y-135310571D02*
X107426095Y-135358190D01*
X107378476Y-135405810D01*
X107330857Y-135501048D01*
X107330857Y-135643905D01*
X107378476Y-135739143D01*
X107426095Y-135786762D01*
X107521333Y-135834381D01*
X107902286Y-135834381D01*
X107902286Y-134834381D01*
X107568952Y-134834381D01*
X107473714Y-134882000D01*
X107426095Y-134929619D01*
X107378476Y-135024857D01*
X107378476Y-135120095D01*
X107426095Y-135215333D01*
X107473714Y-135262952D01*
X107568952Y-135310571D01*
X107902286Y-135310571D01*
X106378476Y-135834381D02*
X106949905Y-135834381D01*
X106664191Y-135834381D02*
X106664191Y-134834381D01*
X106759429Y-134977238D01*
X106854667Y-135072476D01*
X106949905Y-135120095D01*
X105997524Y-134929619D02*
X105949905Y-134882000D01*
X105854667Y-134834381D01*
X105616571Y-134834381D01*
X105521333Y-134882000D01*
X105473714Y-134929619D01*
X105426095Y-135024857D01*
X105426095Y-135120095D01*
X105473714Y-135262952D01*
X106045143Y-135834381D01*
X105426095Y-135834381D01*
X115442857Y-118467143D02*
X115490476Y-118514762D01*
X115633333Y-118562381D01*
X115728571Y-118562381D01*
X115871429Y-118514762D01*
X115966667Y-118419524D01*
X116014286Y-118324286D01*
X116061905Y-118133810D01*
X116061905Y-117990952D01*
X116014286Y-117800476D01*
X115966667Y-117705238D01*
X115871429Y-117610000D01*
X115728571Y-117562381D01*
X115633333Y-117562381D01*
X115490476Y-117610000D01*
X115442857Y-117657619D01*
X114680952Y-118038571D02*
X114538095Y-118086190D01*
X114490476Y-118133810D01*
X114442857Y-118229048D01*
X114442857Y-118371905D01*
X114490476Y-118467143D01*
X114538095Y-118514762D01*
X114633333Y-118562381D01*
X115014286Y-118562381D01*
X115014286Y-117562381D01*
X114680952Y-117562381D01*
X114585714Y-117610000D01*
X114538095Y-117657619D01*
X114490476Y-117752857D01*
X114490476Y-117848095D01*
X114538095Y-117943333D01*
X114585714Y-117990952D01*
X114680952Y-118038571D01*
X115014286Y-118038571D01*
X113490476Y-118562381D02*
X114061905Y-118562381D01*
X113776191Y-118562381D02*
X113776191Y-117562381D01*
X113871429Y-117705238D01*
X113966667Y-117800476D01*
X114061905Y-117848095D01*
X112538095Y-118562381D02*
X113109524Y-118562381D01*
X112823810Y-118562381D02*
X112823810Y-117562381D01*
X112919048Y-117705238D01*
X113014286Y-117800476D01*
X113109524Y-117848095D01*
X115342857Y-125057143D02*
X115390476Y-125104762D01*
X115533333Y-125152381D01*
X115628571Y-125152381D01*
X115771429Y-125104762D01*
X115866667Y-125009524D01*
X115914286Y-124914286D01*
X115961905Y-124723810D01*
X115961905Y-124580952D01*
X115914286Y-124390476D01*
X115866667Y-124295238D01*
X115771429Y-124200000D01*
X115628571Y-124152381D01*
X115533333Y-124152381D01*
X115390476Y-124200000D01*
X115342857Y-124247619D01*
X114580952Y-124628571D02*
X114438095Y-124676190D01*
X114390476Y-124723810D01*
X114342857Y-124819048D01*
X114342857Y-124961905D01*
X114390476Y-125057143D01*
X114438095Y-125104762D01*
X114533333Y-125152381D01*
X114914286Y-125152381D01*
X114914286Y-124152381D01*
X114580952Y-124152381D01*
X114485714Y-124200000D01*
X114438095Y-124247619D01*
X114390476Y-124342857D01*
X114390476Y-124438095D01*
X114438095Y-124533333D01*
X114485714Y-124580952D01*
X114580952Y-124628571D01*
X114914286Y-124628571D01*
X113390476Y-125152381D02*
X113961905Y-125152381D01*
X113676191Y-125152381D02*
X113676191Y-124152381D01*
X113771429Y-124295238D01*
X113866667Y-124390476D01*
X113961905Y-124438095D01*
X112771429Y-124152381D02*
X112676190Y-124152381D01*
X112580952Y-124200000D01*
X112533333Y-124247619D01*
X112485714Y-124342857D01*
X112438095Y-124533333D01*
X112438095Y-124771429D01*
X112485714Y-124961905D01*
X112533333Y-125057143D01*
X112580952Y-125104762D01*
X112676190Y-125152381D01*
X112771429Y-125152381D01*
X112866667Y-125104762D01*
X112914286Y-125057143D01*
X112961905Y-124961905D01*
X113009524Y-124771429D01*
X113009524Y-124533333D01*
X112961905Y-124342857D01*
X112914286Y-124247619D01*
X112866667Y-124200000D01*
X112771429Y-124152381D01*
X126266666Y-115457143D02*
X126314285Y-115504762D01*
X126457142Y-115552381D01*
X126552380Y-115552381D01*
X126695238Y-115504762D01*
X126790476Y-115409524D01*
X126838095Y-115314286D01*
X126885714Y-115123810D01*
X126885714Y-114980952D01*
X126838095Y-114790476D01*
X126790476Y-114695238D01*
X126695238Y-114600000D01*
X126552380Y-114552381D01*
X126457142Y-114552381D01*
X126314285Y-114600000D01*
X126266666Y-114647619D01*
X125504761Y-115028571D02*
X125361904Y-115076190D01*
X125314285Y-115123810D01*
X125266666Y-115219048D01*
X125266666Y-115361905D01*
X125314285Y-115457143D01*
X125361904Y-115504762D01*
X125457142Y-115552381D01*
X125838095Y-115552381D01*
X125838095Y-114552381D01*
X125504761Y-114552381D01*
X125409523Y-114600000D01*
X125361904Y-114647619D01*
X125314285Y-114742857D01*
X125314285Y-114838095D01*
X125361904Y-114933333D01*
X125409523Y-114980952D01*
X125504761Y-115028571D01*
X125838095Y-115028571D01*
X124790476Y-115552381D02*
X124600000Y-115552381D01*
X124504761Y-115504762D01*
X124457142Y-115457143D01*
X124361904Y-115314286D01*
X124314285Y-115123810D01*
X124314285Y-114742857D01*
X124361904Y-114647619D01*
X124409523Y-114600000D01*
X124504761Y-114552381D01*
X124695238Y-114552381D01*
X124790476Y-114600000D01*
X124838095Y-114647619D01*
X124885714Y-114742857D01*
X124885714Y-114980952D01*
X124838095Y-115076190D01*
X124790476Y-115123810D01*
X124695238Y-115171429D01*
X124504761Y-115171429D01*
X124409523Y-115123810D01*
X124361904Y-115076190D01*
X124314285Y-114980952D01*
X126166666Y-107857143D02*
X126214285Y-107904762D01*
X126357142Y-107952381D01*
X126452380Y-107952381D01*
X126595238Y-107904762D01*
X126690476Y-107809524D01*
X126738095Y-107714286D01*
X126785714Y-107523810D01*
X126785714Y-107380952D01*
X126738095Y-107190476D01*
X126690476Y-107095238D01*
X126595238Y-107000000D01*
X126452380Y-106952381D01*
X126357142Y-106952381D01*
X126214285Y-107000000D01*
X126166666Y-107047619D01*
X125404761Y-107428571D02*
X125261904Y-107476190D01*
X125214285Y-107523810D01*
X125166666Y-107619048D01*
X125166666Y-107761905D01*
X125214285Y-107857143D01*
X125261904Y-107904762D01*
X125357142Y-107952381D01*
X125738095Y-107952381D01*
X125738095Y-106952381D01*
X125404761Y-106952381D01*
X125309523Y-107000000D01*
X125261904Y-107047619D01*
X125214285Y-107142857D01*
X125214285Y-107238095D01*
X125261904Y-107333333D01*
X125309523Y-107380952D01*
X125404761Y-107428571D01*
X125738095Y-107428571D01*
X124595238Y-107380952D02*
X124690476Y-107333333D01*
X124738095Y-107285714D01*
X124785714Y-107190476D01*
X124785714Y-107142857D01*
X124738095Y-107047619D01*
X124690476Y-107000000D01*
X124595238Y-106952381D01*
X124404761Y-106952381D01*
X124309523Y-107000000D01*
X124261904Y-107047619D01*
X124214285Y-107142857D01*
X124214285Y-107190476D01*
X124261904Y-107285714D01*
X124309523Y-107333333D01*
X124404761Y-107380952D01*
X124595238Y-107380952D01*
X124690476Y-107428571D01*
X124738095Y-107476190D01*
X124785714Y-107571429D01*
X124785714Y-107761905D01*
X124738095Y-107857143D01*
X124690476Y-107904762D01*
X124595238Y-107952381D01*
X124404761Y-107952381D01*
X124309523Y-107904762D01*
X124261904Y-107857143D01*
X124214285Y-107761905D01*
X124214285Y-107571429D01*
X124261904Y-107476190D01*
X124309523Y-107428571D01*
X124404761Y-107380952D01*
X133466666Y-137057143D02*
X133514285Y-137104762D01*
X133657142Y-137152381D01*
X133752380Y-137152381D01*
X133895238Y-137104762D01*
X133990476Y-137009524D01*
X134038095Y-136914286D01*
X134085714Y-136723810D01*
X134085714Y-136580952D01*
X134038095Y-136390476D01*
X133990476Y-136295238D01*
X133895238Y-136200000D01*
X133752380Y-136152381D01*
X133657142Y-136152381D01*
X133514285Y-136200000D01*
X133466666Y-136247619D01*
X132704761Y-136628571D02*
X132561904Y-136676190D01*
X132514285Y-136723810D01*
X132466666Y-136819048D01*
X132466666Y-136961905D01*
X132514285Y-137057143D01*
X132561904Y-137104762D01*
X132657142Y-137152381D01*
X133038095Y-137152381D01*
X133038095Y-136152381D01*
X132704761Y-136152381D01*
X132609523Y-136200000D01*
X132561904Y-136247619D01*
X132514285Y-136342857D01*
X132514285Y-136438095D01*
X132561904Y-136533333D01*
X132609523Y-136580952D01*
X132704761Y-136628571D01*
X133038095Y-136628571D01*
X131609523Y-136152381D02*
X131800000Y-136152381D01*
X131895238Y-136200000D01*
X131942857Y-136247619D01*
X132038095Y-136390476D01*
X132085714Y-136580952D01*
X132085714Y-136961905D01*
X132038095Y-137057143D01*
X131990476Y-137104762D01*
X131895238Y-137152381D01*
X131704761Y-137152381D01*
X131609523Y-137104762D01*
X131561904Y-137057143D01*
X131514285Y-136961905D01*
X131514285Y-136723810D01*
X131561904Y-136628571D01*
X131609523Y-136580952D01*
X131704761Y-136533333D01*
X131895238Y-136533333D01*
X131990476Y-136580952D01*
X132038095Y-136628571D01*
X132085714Y-136723810D01*
X109066666Y-125457143D02*
X109114285Y-125504762D01*
X109257142Y-125552381D01*
X109352380Y-125552381D01*
X109495238Y-125504762D01*
X109590476Y-125409524D01*
X109638095Y-125314286D01*
X109685714Y-125123810D01*
X109685714Y-124980952D01*
X109638095Y-124790476D01*
X109590476Y-124695238D01*
X109495238Y-124600000D01*
X109352380Y-124552381D01*
X109257142Y-124552381D01*
X109114285Y-124600000D01*
X109066666Y-124647619D01*
X108304761Y-125028571D02*
X108161904Y-125076190D01*
X108114285Y-125123810D01*
X108066666Y-125219048D01*
X108066666Y-125361905D01*
X108114285Y-125457143D01*
X108161904Y-125504762D01*
X108257142Y-125552381D01*
X108638095Y-125552381D01*
X108638095Y-124552381D01*
X108304761Y-124552381D01*
X108209523Y-124600000D01*
X108161904Y-124647619D01*
X108114285Y-124742857D01*
X108114285Y-124838095D01*
X108161904Y-124933333D01*
X108209523Y-124980952D01*
X108304761Y-125028571D01*
X108638095Y-125028571D01*
X107161904Y-124552381D02*
X107638095Y-124552381D01*
X107685714Y-125028571D01*
X107638095Y-124980952D01*
X107542857Y-124933333D01*
X107304761Y-124933333D01*
X107209523Y-124980952D01*
X107161904Y-125028571D01*
X107114285Y-125123810D01*
X107114285Y-125361905D01*
X107161904Y-125457143D01*
X107209523Y-125504762D01*
X107304761Y-125552381D01*
X107542857Y-125552381D01*
X107638095Y-125504762D01*
X107685714Y-125457143D01*
X122966666Y-119257143D02*
X123014285Y-119304762D01*
X123157142Y-119352381D01*
X123252380Y-119352381D01*
X123395238Y-119304762D01*
X123490476Y-119209524D01*
X123538095Y-119114286D01*
X123585714Y-118923810D01*
X123585714Y-118780952D01*
X123538095Y-118590476D01*
X123490476Y-118495238D01*
X123395238Y-118400000D01*
X123252380Y-118352381D01*
X123157142Y-118352381D01*
X123014285Y-118400000D01*
X122966666Y-118447619D01*
X122204761Y-118828571D02*
X122061904Y-118876190D01*
X122014285Y-118923810D01*
X121966666Y-119019048D01*
X121966666Y-119161905D01*
X122014285Y-119257143D01*
X122061904Y-119304762D01*
X122157142Y-119352381D01*
X122538095Y-119352381D01*
X122538095Y-118352381D01*
X122204761Y-118352381D01*
X122109523Y-118400000D01*
X122061904Y-118447619D01*
X122014285Y-118542857D01*
X122014285Y-118638095D01*
X122061904Y-118733333D01*
X122109523Y-118780952D01*
X122204761Y-118828571D01*
X122538095Y-118828571D01*
X121109523Y-118685714D02*
X121109523Y-119352381D01*
X121347619Y-118304762D02*
X121585714Y-119019048D01*
X120966666Y-119019048D01*
X122766666Y-111657143D02*
X122814285Y-111704762D01*
X122957142Y-111752381D01*
X123052380Y-111752381D01*
X123195238Y-111704762D01*
X123290476Y-111609524D01*
X123338095Y-111514286D01*
X123385714Y-111323810D01*
X123385714Y-111180952D01*
X123338095Y-110990476D01*
X123290476Y-110895238D01*
X123195238Y-110800000D01*
X123052380Y-110752381D01*
X122957142Y-110752381D01*
X122814285Y-110800000D01*
X122766666Y-110847619D01*
X122004761Y-111228571D02*
X121861904Y-111276190D01*
X121814285Y-111323810D01*
X121766666Y-111419048D01*
X121766666Y-111561905D01*
X121814285Y-111657143D01*
X121861904Y-111704762D01*
X121957142Y-111752381D01*
X122338095Y-111752381D01*
X122338095Y-110752381D01*
X122004761Y-110752381D01*
X121909523Y-110800000D01*
X121861904Y-110847619D01*
X121814285Y-110942857D01*
X121814285Y-111038095D01*
X121861904Y-111133333D01*
X121909523Y-111180952D01*
X122004761Y-111228571D01*
X122338095Y-111228571D01*
X121433333Y-110752381D02*
X120814285Y-110752381D01*
X121147619Y-111133333D01*
X121004761Y-111133333D01*
X120909523Y-111180952D01*
X120861904Y-111228571D01*
X120814285Y-111323810D01*
X120814285Y-111561905D01*
X120861904Y-111657143D01*
X120909523Y-111704762D01*
X121004761Y-111752381D01*
X121290476Y-111752381D01*
X121385714Y-111704762D01*
X121433333Y-111657143D01*
X74157143Y-140833334D02*
X74204762Y-140785715D01*
X74252381Y-140642858D01*
X74252381Y-140547620D01*
X74204762Y-140404762D01*
X74109524Y-140309524D01*
X74014286Y-140261905D01*
X73823810Y-140214286D01*
X73680952Y-140214286D01*
X73490476Y-140261905D01*
X73395238Y-140309524D01*
X73300000Y-140404762D01*
X73252381Y-140547620D01*
X73252381Y-140642858D01*
X73300000Y-140785715D01*
X73347619Y-140833334D01*
X73728571Y-141595239D02*
X73776190Y-141738096D01*
X73823810Y-141785715D01*
X73919048Y-141833334D01*
X74061905Y-141833334D01*
X74157143Y-141785715D01*
X74204762Y-141738096D01*
X74252381Y-141642858D01*
X74252381Y-141261905D01*
X73252381Y-141261905D01*
X73252381Y-141595239D01*
X73300000Y-141690477D01*
X73347619Y-141738096D01*
X73442857Y-141785715D01*
X73538095Y-141785715D01*
X73633333Y-141738096D01*
X73680952Y-141690477D01*
X73728571Y-141595239D01*
X73728571Y-141261905D01*
X73347619Y-142214286D02*
X73300000Y-142261905D01*
X73252381Y-142357143D01*
X73252381Y-142595239D01*
X73300000Y-142690477D01*
X73347619Y-142738096D01*
X73442857Y-142785715D01*
X73538095Y-142785715D01*
X73680952Y-142738096D01*
X74252381Y-142166667D01*
X74252381Y-142785715D01*
X67745981Y-144036534D02*
X67269790Y-143703200D01*
X67745981Y-143465105D02*
X66745981Y-143465105D01*
X66745981Y-143846058D01*
X66793600Y-143941296D01*
X66841219Y-143988915D01*
X66936457Y-144036534D01*
X67079314Y-144036534D01*
X67174552Y-143988915D01*
X67222171Y-143941296D01*
X67269790Y-143846058D01*
X67269790Y-143465105D01*
X66745981Y-144941296D02*
X66745981Y-144465105D01*
X67222171Y-144417486D01*
X67174552Y-144465105D01*
X67126933Y-144560343D01*
X67126933Y-144798439D01*
X67174552Y-144893677D01*
X67222171Y-144941296D01*
X67317410Y-144988915D01*
X67555505Y-144988915D01*
X67650743Y-144941296D01*
X67698362Y-144893677D01*
X67745981Y-144798439D01*
X67745981Y-144560343D01*
X67698362Y-144465105D01*
X67650743Y-144417486D01*
X53982857Y-143962381D02*
X54316191Y-143486190D01*
X54554286Y-143962381D02*
X54554286Y-142962381D01*
X54173333Y-142962381D01*
X54078095Y-143010000D01*
X54030476Y-143057619D01*
X53982857Y-143152857D01*
X53982857Y-143295714D01*
X54030476Y-143390952D01*
X54078095Y-143438571D01*
X54173333Y-143486190D01*
X54554286Y-143486190D01*
X53030476Y-143962381D02*
X53601905Y-143962381D01*
X53316191Y-143962381D02*
X53316191Y-142962381D01*
X53411429Y-143105238D01*
X53506667Y-143200476D01*
X53601905Y-143248095D01*
X52697143Y-142962381D02*
X52078095Y-142962381D01*
X52411429Y-143343333D01*
X52268571Y-143343333D01*
X52173333Y-143390952D01*
X52125714Y-143438571D01*
X52078095Y-143533810D01*
X52078095Y-143771905D01*
X52125714Y-143867143D01*
X52173333Y-143914762D01*
X52268571Y-143962381D01*
X52554286Y-143962381D01*
X52649524Y-143914762D01*
X52697143Y-143867143D01*
X103258857Y-148026381D02*
X103592191Y-147550190D01*
X103830286Y-148026381D02*
X103830286Y-147026381D01*
X103449333Y-147026381D01*
X103354095Y-147074000D01*
X103306476Y-147121619D01*
X103258857Y-147216857D01*
X103258857Y-147359714D01*
X103306476Y-147454952D01*
X103354095Y-147502571D01*
X103449333Y-147550190D01*
X103830286Y-147550190D01*
X102877905Y-147121619D02*
X102830286Y-147074000D01*
X102735048Y-147026381D01*
X102496952Y-147026381D01*
X102401714Y-147074000D01*
X102354095Y-147121619D01*
X102306476Y-147216857D01*
X102306476Y-147312095D01*
X102354095Y-147454952D01*
X102925524Y-148026381D01*
X102306476Y-148026381D01*
X101449333Y-147026381D02*
X101639810Y-147026381D01*
X101735048Y-147074000D01*
X101782667Y-147121619D01*
X101877905Y-147264476D01*
X101925524Y-147454952D01*
X101925524Y-147835905D01*
X101877905Y-147931143D01*
X101830286Y-147978762D01*
X101735048Y-148026381D01*
X101544571Y-148026381D01*
X101449333Y-147978762D01*
X101401714Y-147931143D01*
X101354095Y-147835905D01*
X101354095Y-147597810D01*
X101401714Y-147502571D01*
X101449333Y-147454952D01*
X101544571Y-147407333D01*
X101735048Y-147407333D01*
X101830286Y-147454952D01*
X101877905Y-147502571D01*
X101925524Y-147597810D01*
%LPC*%
D13*
X106400000Y-104200000D03*
X102900000Y-104200000D03*
X99400000Y-104200000D03*
X126100000Y-99900000D03*
X52200000Y-148100000D03*
X54500000Y-138800000D03*
D14*
X56800000Y-143550000D03*
X56800000Y-145250000D03*
X69600000Y-146050000D03*
X69600000Y-147750000D03*
X56800000Y-146450000D03*
X56800000Y-148150000D03*
D15*
X66600000Y-148550000D03*
X59600000Y-148550000D03*
D16*
X65600000Y-145850000D03*
X60600000Y-145850000D03*
D17*
X83950000Y-136750000D03*
X83950000Y-132350000D03*
X84750000Y-132350000D03*
X84750000Y-136750000D03*
X86350000Y-136750000D03*
X86350000Y-132350000D03*
X85550000Y-132350000D03*
X85550000Y-136750000D03*
X88750000Y-136750000D03*
X88750000Y-132350000D03*
X89550000Y-132350000D03*
X89550000Y-136750000D03*
X87950000Y-136750000D03*
X87950000Y-132350000D03*
X87150000Y-132350000D03*
X87150000Y-136750000D03*
X93550000Y-136750000D03*
X93550000Y-132350000D03*
X94350000Y-132350000D03*
X94350000Y-136750000D03*
X91950000Y-136750000D03*
X91950000Y-132350000D03*
X92750000Y-132350000D03*
X92750000Y-136750000D03*
X91150000Y-136750000D03*
X91150000Y-132350000D03*
X90350000Y-132350000D03*
X90350000Y-136750000D03*
X77550000Y-136750000D03*
X77550000Y-132350000D03*
X78350000Y-132350000D03*
X78350000Y-136750000D03*
X79950000Y-136750000D03*
X79950000Y-132350000D03*
X79150000Y-132350000D03*
X79150000Y-136750000D03*
X82350000Y-136750000D03*
X82350000Y-132350000D03*
X83150000Y-132350000D03*
X83150000Y-136750000D03*
X81550000Y-136750000D03*
X81550000Y-132350000D03*
X80750000Y-132350000D03*
X80750000Y-136750000D03*
X74350000Y-136750000D03*
X74350000Y-132350000D03*
X75150000Y-132350000D03*
X75150000Y-136750000D03*
X76750000Y-136750000D03*
X76750000Y-132350000D03*
X75950000Y-132350000D03*
X75950000Y-136750000D03*
X72750000Y-136750000D03*
X72750000Y-132350000D03*
X73550000Y-132350000D03*
X73550000Y-136750000D03*
X71950000Y-136750000D03*
X71950000Y-132350000D03*
X71150000Y-132350000D03*
X71150000Y-136750000D03*
D18*
X60000000Y-101000000D03*
X60000000Y-99000000D03*
X62000000Y-101000000D03*
X62000000Y-99000000D03*
X64000000Y-101000000D03*
X64000000Y-99000000D03*
X66000000Y-101000000D03*
X66000000Y-99000000D03*
X68000000Y-101000000D03*
X68000000Y-99000000D03*
X70000000Y-101000000D03*
X70000000Y-99000000D03*
X72000000Y-101000000D03*
X72000000Y-99000000D03*
X74000000Y-101000000D03*
X74000000Y-99000000D03*
X76000000Y-101000000D03*
X76000000Y-99000000D03*
X78000000Y-101000000D03*
X78000000Y-99000000D03*
X80000000Y-101000000D03*
X80000000Y-99000000D03*
X82000000Y-101000000D03*
X82000000Y-99000000D03*
X84000000Y-101000000D03*
X84000000Y-99000000D03*
X86000000Y-101000000D03*
X86000000Y-99000000D03*
X88000000Y-101000000D03*
X88000000Y-99000000D03*
X90000000Y-101000000D03*
X90000000Y-99000000D03*
X92000000Y-101000000D03*
X92000000Y-99000000D03*
X94000000Y-101000000D03*
X94000000Y-99000000D03*
X96000000Y-101000000D03*
X96000000Y-99000000D03*
X98000000Y-101000000D03*
X98000000Y-99000000D03*
D14*
X72700000Y-116450000D03*
X72700000Y-118150000D03*
X77000000Y-110850000D03*
X77000000Y-112550000D03*
X93700000Y-113350000D03*
X93700000Y-115050000D03*
X70400000Y-102750000D03*
X70400000Y-104450000D03*
D19*
X68250000Y-110100000D03*
X69950000Y-110100000D03*
X104350000Y-140500000D03*
X102650000Y-140500000D03*
X93540000Y-107440000D03*
X91840000Y-107440000D03*
X129290000Y-140440000D03*
X127590000Y-140440000D03*
X129410000Y-145330000D03*
X127710000Y-145330000D03*
X94830000Y-107440000D03*
X96530000Y-107440000D03*
X122750000Y-139000000D03*
X124450000Y-139000000D03*
X107850000Y-139600000D03*
X106150000Y-139600000D03*
D14*
X119300000Y-101050000D03*
X119300000Y-99350000D03*
X114100000Y-100950000D03*
X114100000Y-99250000D03*
D19*
X102150000Y-127600000D03*
X103850000Y-127600000D03*
X102150000Y-125200000D03*
X103850000Y-125200000D03*
D14*
X123700000Y-130650000D03*
X123700000Y-132350000D03*
X126600000Y-130550000D03*
X126600000Y-132250000D03*
X108000000Y-99150000D03*
X108000000Y-97450000D03*
D19*
X91050000Y-103900000D03*
X89350000Y-103900000D03*
X87750000Y-103900000D03*
X86050000Y-103900000D03*
X90950000Y-123000000D03*
X92650000Y-123000000D03*
D14*
X91100000Y-125750000D03*
X91100000Y-127450000D03*
D19*
X79350000Y-128600000D03*
X81050000Y-128600000D03*
X65850000Y-114600000D03*
X64150000Y-114600000D03*
X65850000Y-112200000D03*
X64150000Y-112200000D03*
D14*
X66700000Y-119250000D03*
X66700000Y-120950000D03*
X73900000Y-112050000D03*
X73900000Y-113750000D03*
D19*
X55850000Y-108500000D03*
X54150000Y-108500000D03*
X55850000Y-105300000D03*
X54150000Y-105300000D03*
X81850000Y-118400000D03*
X83550000Y-118400000D03*
X104050000Y-116500000D03*
X105750000Y-116500000D03*
X93750000Y-117500000D03*
X95450000Y-117500000D03*
X93850000Y-119800000D03*
X95550000Y-119800000D03*
X107950000Y-110100000D03*
X109650000Y-110100000D03*
X71850000Y-110200000D03*
X73550000Y-110200000D03*
X105650000Y-142300000D03*
X107350000Y-142300000D03*
X77350000Y-107300000D03*
X79050000Y-107300000D03*
X131650000Y-142300000D03*
X133350000Y-142300000D03*
X124550000Y-136500000D03*
X122850000Y-136500000D03*
X106150000Y-137200000D03*
X107850000Y-137200000D03*
X113450000Y-119900000D03*
X115150000Y-119900000D03*
X113450000Y-122800000D03*
X115150000Y-122800000D03*
X126350000Y-117000000D03*
X124650000Y-117000000D03*
X126250000Y-109400000D03*
X124550000Y-109400000D03*
X132050000Y-134800000D03*
X133750000Y-134800000D03*
X107650000Y-123200000D03*
X109350000Y-123200000D03*
X121550000Y-117000000D03*
X123250000Y-117000000D03*
X121350000Y-109400000D03*
X123050000Y-109400000D03*
D14*
X71900000Y-142250000D03*
X71900000Y-140550000D03*
X69600000Y-143150000D03*
X69600000Y-144850000D03*
D19*
X52550000Y-141800000D03*
X54250000Y-141800000D03*
X103450000Y-145800000D03*
X101750000Y-145800000D03*
M02*
