M48
;DRILL file {KiCad 4.0.1-stable} date 2016/08/15 16:12:23
;FORMAT={-:-/ absolute / inch / decimal}
FMAT,2
INCH,TZ
T1C0.016
T2C0.020
T3C0.022
T4C0.030
T5C0.040
%
G90
G05
M72
T1
X0.0733Y-1.6165
X0.1048Y-0.6322
X0.1835Y-0.3409
X0.2367Y-0.411
X0.2484Y-0.5389
X0.2602Y-1.75
X0.2649Y-1.7138
X0.2678Y-0.2993
X0.2949Y-0.0679
X0.3115Y-2.0501
X0.3181Y-1.8509
X0.3238Y-0.2855
X0.3265Y-1.8163
X0.3528Y-1.7404
X0.3564Y-1.8671
X0.3607Y-1.7897
X0.3665Y-1.5023
X0.3722Y-1.9255
X0.4198Y-1.207
X0.4579Y-2.0185
X0.5172Y-1.6672
X0.5221Y-0.6046
X0.5379Y-0.7385
X0.5812Y-1.3212
X0.5862Y-0.3459
X0.656Y-1.0141
X0.6594Y-0.6959
X0.6757Y-0.3172
X0.6835Y-1.7621
X0.6875Y-0.644
X0.6954Y-0.9157
X0.702Y-1.9312
X0.7141Y-1.7926
X0.7186Y-0.6082
X0.7273Y-1.8728
X0.73Y-0.7905
X0.741Y-0.4626
X0.7505Y-2.0495
X0.7652Y-0.6155
X0.7751Y-0.9521
X0.7827Y-0.4688
X0.8053Y-1.8279
X0.8057Y-1.8965
X0.8245Y-0.6129
X0.8292Y-0.2779
X0.841Y-0.8275
X0.8762Y-1.7186
X0.8895Y-1.5294
X0.8901Y-1.3757
X0.8961Y-1.7621
X0.9001Y-0.6519
X0.9158Y-0.2779
X0.9276Y-0.7306
X0.9276Y-0.8133
X0.9316Y-0.4944
X0.9434Y-0.5417
X0.9563Y-0.8707
X0.9828Y-1.3759
X1.003Y-0.534
X1.0251Y-1.3719
X1.0253Y-1.5006
X1.028Y-1.6717
X1.0296Y-0.6518
X1.0306Y-0.5547
X1.0385Y-1.8025
X1.0457Y-0.4511
X1.0831Y-0.9117
X1.1048Y-1.3759
X1.1166Y-0.5889
X1.1304Y-0.7228
X1.1678Y-1.9078
X1.1696Y-0.5742
X1.1757Y-0.4275
X1.1855Y-1.6726
X1.1938Y-1.246
X1.1993Y-0.9629
X1.2036Y-1.3757
X1.2465Y-1.244
X1.2518Y-1.6721
X1.2623Y-0.8645
X1.28Y-1.3744
X1.2997Y-1.6785
X1.3504Y-0.3071
X1.352Y-1.6724
X1.3568Y-0.892
X1.3911Y-1.4989
X1.408Y-1.0338
X1.4198Y-0.4078
X1.4201Y-1.672
X1.4327Y-1.8414
X1.4375Y-1.3501
X1.4411Y-1.5041
X1.467Y-1.0771
X1.4748Y-1.3308
X1.4815Y-1.673
X1.4905Y-1.4994
X1.5288Y-1.4992
X1.53Y-1.8527
X1.5406Y-1.3304
X1.5536Y-0.8881
X1.5621Y-0.4078
X1.5654Y-1.0338
X1.5737Y-1.3498
X1.5801Y-1.1716
X1.59Y-1.5259
X1.595Y-1.6732
X1.6265Y-1.5022
X1.6276Y-0.9629
X1.6464Y-1.7946
X1.6481Y-0.9078
X1.6494Y-0.772
X1.652Y-0.4905
X1.656Y-1.2464
X1.6628Y-1.4996
X1.6639Y-0.3409
X1.6796Y-0.892
X1.6796Y-1.9191
X1.687Y-0.9429
X1.6875Y-0.6873
X1.6894Y-1.6723
X1.7111Y-0.8094
X1.7111Y-1.0731
X1.715Y-1.4983
X1.7977Y-1.9177
X1.7994Y-1.6948
X1.7996Y-0.5078
X1.8071Y-0.2835
X1.8253Y-0.8527
X1.8253Y-0.9708
X1.8548Y-0.7562
X1.8651Y-1.5781
X1.8721Y-0.4831
X1.8774Y-0.3592
X1.9158Y-1.9197
X1.9201Y-0.4253
X1.9244Y-0.5083
X1.9256Y-1.5388
X1.9316Y-1.6755
X1.937Y-1.495
X1.9654Y-1.7062
X1.9666Y-0.5098
X1.9829Y-0.155
X1.9838Y-1.3064
X1.9871Y-1.7373
X2.004Y-1.4338
X2.0143Y-1.1007
X2.0157Y-0.9511
X2.03Y-1.1598
X2.0339Y-2.0046
X2.0389Y-0.6981
X2.0477Y-1.498
X2.0597Y-1.3212
X2.071Y-1.9328
X2.0768Y-0.1853
X2.0851Y-1.522
X2.0979Y-0.8054
X2.1087Y-1.9432
X2.1245Y-1.5731
X2.1346Y-1.1933
X2.1353Y-1.7139
X2.1402Y-0.6204
X2.1481Y-0.5377
X2.1678Y-1.2493
X2.1698Y-1.9236
X2.1717Y-1.6834
X2.1954Y-0.5062
X2.2031Y-1.4409
X2.2032Y-0.6558
X2.2129Y-1.1304
X2.2159Y-0.1581
X2.2253Y-1.2179
X2.2269Y-0.8094
X2.2387Y-0.6322
X2.2465Y-0.5456
X2.2736Y-1.8819
X2.278Y-1.1204
X2.2898Y-1.3606
X2.2898Y-1.8291
X2.2913Y-0.1654
X2.3135Y-0.4688
X2.3174Y-1.6243
X2.3174Y-1.7267
X2.3314Y-1.7905
X2.356Y-0.0663
X2.3638Y-1.3898
X2.3725Y-1.0771
X2.3738Y-1.27
X2.3843Y-0.5574
X2.4434Y-0.1361
X2.5024Y-1.0062
X2.5024Y-1.2031
X2.5064Y-1.148
X2.5064Y-1.3606
X2.5536Y-1.8487
X2.5701Y-0.0663
X2.5748Y-0.2047
X2.5915Y-1.27
X2.593Y-1.0574
X2.6009Y-0.3409
X2.6009Y-0.9747
X2.6024Y-0.4685
X2.6063Y-0.7559
X2.6066Y-2.085
X2.6166Y-1.9188
X2.6442Y-0.1283
X2.6757Y-0.6243
X2.6954Y-1.9182
X2.7039Y-1.7631
X2.7207Y-0.0702
X2.7366Y-1.7953
X2.778Y-0.2109
X2.8037Y-1.1048
X2.815Y-0.4961
X2.8189Y-0.7913
X2.8199Y-1.9177
X2.822Y-1.7328
X2.841Y-1.6952
X2.845Y-1.5889
X2.8568Y-1.1637
X2.9119Y-0.5377
X2.9198Y-0.8172
X2.9275Y-1.5087
X2.9316Y-1.9179
X2.9513Y-0.3409
X2.9591Y-0.644
X2.9641Y-0.9383
X2.9646Y-1.3661
X3.0069Y-1.6243
X3.0079Y-0.4961
X3.0118Y-0.7913
X3.0249Y-1.753
X3.03Y-1.9363
X3.0723Y-1.5033
X3.1038Y-1.5761
X3.1314Y-1.9127
X3.156Y-1.1716
X3.156Y-1.7543
X3.2047Y-1.5315
X3.2898Y-1.5692
X3.2898Y-1.7976
T4
X0.4001Y-0.1243
X0.4001Y-0.2031
X0.4788Y-0.1243
X0.4788Y-0.2031
X0.5576Y-0.1243
X0.5576Y-0.2031
X0.6363Y-0.1243
X0.6363Y-0.2031
X0.715Y-0.1243
X0.715Y-0.2031
X0.7938Y-0.1243
X0.7938Y-0.2031
X0.8725Y-0.1243
X0.8725Y-0.2031
X0.9513Y-0.1243
X0.9513Y-0.2031
X1.03Y-0.1243
X1.03Y-0.2031
X1.1087Y-0.1243
X1.1087Y-0.2031
X1.1875Y-0.1243
X1.1875Y-0.2031
X1.2662Y-0.1243
X1.2662Y-0.2031
X1.345Y-0.1243
X1.345Y-0.2031
X1.4237Y-0.1243
X1.4237Y-0.2031
X1.5024Y-0.1243
X1.5024Y-0.2031
X1.5812Y-0.1243
X1.5812Y-0.2031
X1.6599Y-0.1243
X1.6599Y-0.2031
X1.7387Y-0.1243
X1.7387Y-0.2031
X1.8174Y-0.1243
X1.8174Y-0.2031
X1.8961Y-0.1243
X1.8961Y-0.2031
T5
X0.093Y-2.0574
X0.1835Y-1.6913
X1.9513Y-0.3291
X2.0891Y-0.3291
X2.2269Y-0.3291
X3.0024Y-0.1598
T2
X0.3843Y-2.0623G85X0.3843Y-2.0879
G05
X0.6599Y-2.0623G85X0.6599Y-2.0879
G05
T3
X0.4178Y-1.9688G85X0.4296Y-1.9688
G05
X0.6146Y-1.9688G85X0.6265Y-1.9688
G05
T0
M30
