%FSLAX45Y45*%
G04 Gerber Fmt 4.5, Leading zero omitted, Abs format (unit mm)*
G04 Created by KiCad (PCBNEW 4.0.2-stable) date 2016年08月10日水曜日 14:50:09*
%MOMM*%
G01*
G04 APERTURE LIST*
%ADD10C,0.127000*%
%ADD11C,0.300000*%
%ADD12C,0.200000*%
G04 APERTURE END LIST*
D10*
D11*
X8241200Y-3565800D02*
G75*
G03X8241200Y-3565800I-125000J0D01*
G01*
X8241200Y-415800D02*
G75*
G03X8241200Y-415800I-125000J0D01*
G01*
X541200Y-3565800D02*
G75*
G03X541200Y-3565800I-125000J0D01*
G01*
X541200Y-415800D02*
G75*
G03X541200Y-415800I-125000J0D01*
G01*
X8516200Y-15800D02*
X16200Y-15800D01*
X16200Y-15800D02*
X16200Y-5415800D01*
X8516200Y-5415800D02*
X16200Y-5415800D01*
X8516200Y-15800D02*
X8516200Y-5415800D01*
D12*
X176200Y-685800D02*
X216200Y-725800D01*
X216200Y-685800D02*
X176200Y-725800D01*
X206200Y-4035800D02*
X246200Y-4075800D01*
X246200Y-4035800D02*
X206200Y-4075800D01*
X241200Y-1745800D02*
X281200Y-1785800D01*
X281200Y-1745800D02*
X241200Y-1785800D01*
X306200Y-2070800D02*
X346200Y-2110800D01*
X346200Y-2070800D02*
X306200Y-2110800D01*
X411200Y-1085800D02*
X451200Y-1125800D01*
X451200Y-1085800D02*
X411200Y-1125800D01*
X666200Y-4485800D02*
X706200Y-4525800D01*
X706200Y-4485800D02*
X666200Y-4525800D01*
X676200Y-1245800D02*
X716200Y-1285800D01*
X716200Y-1245800D02*
X676200Y-1285800D01*
X686200Y-925800D02*
X726200Y-965800D01*
X726200Y-925800D02*
X686200Y-965800D01*
X721200Y-3050800D02*
X761200Y-3090800D01*
X761200Y-3050800D02*
X721200Y-3090800D01*
X746200Y-4645800D02*
X786200Y-4685800D01*
X786200Y-4645800D02*
X746200Y-4685800D01*
X750950Y-4400550D02*
X790950Y-4440550D01*
X790950Y-4400550D02*
X750950Y-4440550D01*
X796200Y-5095800D02*
X836200Y-5135800D01*
X836200Y-5095800D02*
X796200Y-5135800D01*
X808200Y-171800D02*
X848200Y-211800D01*
X848200Y-171800D02*
X808200Y-211800D01*
X846200Y-4755800D02*
X886200Y-4795800D01*
X886200Y-4755800D02*
X846200Y-4795800D01*
X1186200Y-4855800D02*
X1226200Y-4895800D01*
X1226200Y-4855800D02*
X1186200Y-4895800D01*
X1191200Y-1560800D02*
X1231200Y-1600800D01*
X1231200Y-1560800D02*
X1191200Y-1600800D01*
X1296200Y-3795800D02*
X1336200Y-3835800D01*
X1336200Y-3795800D02*
X1296200Y-3835800D01*
X1476200Y-945800D02*
X1516200Y-985800D01*
X1516200Y-945800D02*
X1476200Y-985800D01*
X1486200Y-3595800D02*
X1526200Y-3635800D01*
X1526200Y-3595800D02*
X1486200Y-3635800D01*
X1581200Y-1727800D02*
X1621200Y-1767800D01*
X1621200Y-1727800D02*
X1581200Y-1767800D01*
X1695200Y-819800D02*
X1735200Y-859800D01*
X1735200Y-819800D02*
X1695200Y-859800D01*
X1716200Y-4645800D02*
X1756200Y-4685800D01*
X1756200Y-4645800D02*
X1716200Y-4685800D01*
X1746200Y-4555800D02*
X1786200Y-4595800D01*
X1786200Y-4555800D02*
X1746200Y-4595800D01*
X1748840Y-2320800D02*
X1788840Y-2360800D01*
X1788840Y-2320800D02*
X1748840Y-2360800D01*
X1776200Y-4995800D02*
X1816200Y-5035800D01*
X1816200Y-4995800D02*
X1776200Y-5035800D01*
X1796200Y-4715800D02*
X1836200Y-4755800D01*
X1836200Y-4715800D02*
X1796200Y-4755800D01*
X1803200Y-2493800D02*
X1843200Y-2533800D01*
X1843200Y-2493800D02*
X1803200Y-2533800D01*
X1818220Y-2390180D02*
X1858220Y-2430180D01*
X1858220Y-2390180D02*
X1818220Y-2430180D01*
X1831200Y-1601800D02*
X1871200Y-1641800D01*
X1871200Y-1601800D02*
X1831200Y-1641800D01*
X1836200Y-4475800D02*
X1876200Y-4515800D01*
X1876200Y-4475800D02*
X1836200Y-4515800D01*
X1896200Y-1075800D02*
X1936200Y-1115800D01*
X1936200Y-1075800D02*
X1896200Y-1115800D01*
X1916200Y-2195800D02*
X1956200Y-2235800D01*
X1956200Y-2195800D02*
X1916200Y-2235800D01*
X1926200Y-1615800D02*
X1966200Y-1655800D01*
X1966200Y-1615800D02*
X1926200Y-1655800D01*
X1986200Y-2335800D02*
X2026200Y-2375800D01*
X2026200Y-2335800D02*
X1986200Y-2375800D01*
X2026200Y-1845800D02*
X2066200Y-1885800D01*
X2066200Y-1845800D02*
X2026200Y-1885800D01*
X2096120Y-1533060D02*
X2136120Y-1573060D01*
X2136120Y-1533060D02*
X2096120Y-1573060D01*
X2101700Y-1277000D02*
X2141700Y-1317000D01*
X2141700Y-1277000D02*
X2101700Y-1317000D01*
X2104180Y-3804690D02*
X2144180Y-3844690D01*
X2144180Y-3804690D02*
X2104180Y-3844690D01*
X2133830Y-670800D02*
X2173830Y-710800D01*
X2173830Y-670800D02*
X2133830Y-710800D01*
X2201200Y-3815800D02*
X2241200Y-3855800D01*
X2241200Y-3815800D02*
X2201200Y-3855800D01*
X2267200Y-3754800D02*
X2307200Y-3794800D01*
X2307200Y-3754800D02*
X2267200Y-3794800D01*
X2307200Y-1607800D02*
X2347200Y-1647800D01*
X2347200Y-1607800D02*
X2307200Y-1647800D01*
X2342200Y-1942800D02*
X2382200Y-1982800D01*
X2382200Y-1942800D02*
X2342200Y-1982800D01*
X2349200Y-1186800D02*
X2389200Y-1226800D01*
X2389200Y-1186800D02*
X2349200Y-1226800D01*
X2349200Y-3808800D02*
X2389200Y-3848800D01*
X2389200Y-3808800D02*
X2349200Y-3848800D01*
X2356200Y-995800D02*
X2396200Y-1035800D01*
X2396200Y-995800D02*
X2356200Y-1035800D01*
X2433200Y-3841800D02*
X2473200Y-3881800D01*
X2473200Y-3841800D02*
X2433200Y-3881800D01*
X2511200Y-3485800D02*
X2551200Y-3525800D01*
X2551200Y-3485800D02*
X2511200Y-3525800D01*
X2511200Y-3783800D02*
X2551200Y-3823800D01*
X2551200Y-3783800D02*
X2511200Y-3823800D01*
X2520200Y-1146800D02*
X2560200Y-1186800D01*
X2560200Y-1146800D02*
X2520200Y-1186800D01*
X2593200Y-3834800D02*
X2633200Y-3874800D01*
X2633200Y-3834800D02*
X2593200Y-3874800D01*
X2669200Y-3785800D02*
X2709200Y-3825800D01*
X2709200Y-3785800D02*
X2669200Y-3825800D01*
X2685200Y-1110800D02*
X2725200Y-1150800D01*
X2725200Y-1110800D02*
X2685200Y-1150800D01*
X2698200Y-1434800D02*
X2738200Y-1474800D01*
X2738200Y-1434800D02*
X2698200Y-1474800D01*
X2758200Y-3907800D02*
X2798200Y-3947800D01*
X2798200Y-3907800D02*
X2758200Y-3947800D01*
X2833200Y-3950800D02*
X2873200Y-3990800D01*
X2873200Y-3950800D02*
X2833200Y-3990800D01*
X2842200Y-1786800D02*
X2882200Y-1826800D01*
X2882200Y-1786800D02*
X2842200Y-1826800D01*
X2926200Y-3304800D02*
X2966200Y-3344800D01*
X2966200Y-3304800D02*
X2926200Y-3344800D01*
X2928200Y-3206800D02*
X2968200Y-3246800D01*
X2968200Y-3206800D02*
X2928200Y-3246800D01*
X2931200Y-5085800D02*
X2971200Y-5125800D01*
X2971200Y-5085800D02*
X2931200Y-5125800D01*
X2952200Y-1122800D02*
X2992200Y-1162800D01*
X2992200Y-1122800D02*
X2952200Y-1162800D01*
X3012200Y-1313800D02*
X3052200Y-1353800D01*
X3052200Y-1313800D02*
X3012200Y-1353800D01*
X3036200Y-3155800D02*
X3076200Y-3195800D01*
X3076200Y-3155800D02*
X3036200Y-3195800D01*
X3058200Y-2491800D02*
X3098200Y-2531800D01*
X3098200Y-2491800D02*
X3058200Y-2531800D01*
X3063200Y-3789800D02*
X3103200Y-3829800D01*
X3103200Y-3789800D02*
X3063200Y-3829800D01*
X3074200Y-4213800D02*
X3114200Y-4253800D01*
X3114200Y-4213800D02*
X3074200Y-4253800D01*
X3143200Y-2233800D02*
X3183200Y-2273800D01*
X3183200Y-2233800D02*
X3143200Y-2273800D01*
X3188200Y-2164800D02*
X3228200Y-2204800D01*
X3228200Y-2164800D02*
X3188200Y-2204800D01*
X3232200Y-3747800D02*
X3272200Y-3787800D01*
X3272200Y-3747800D02*
X3232200Y-3787800D01*
X3307200Y-2234800D02*
X3347200Y-2274800D01*
X3347200Y-2234800D02*
X3307200Y-2274800D01*
X3311200Y-4213800D02*
X3351200Y-4253800D01*
X3351200Y-4213800D02*
X3311200Y-4253800D01*
X3316200Y-3795800D02*
X3356200Y-3835800D01*
X3356200Y-3795800D02*
X3316200Y-3835800D01*
X3393200Y-3824800D02*
X3433200Y-3864800D01*
X3433200Y-3824800D02*
X3393200Y-3864800D01*
X3396200Y-695800D02*
X3436200Y-735800D01*
X3436200Y-695800D02*
X3396200Y-735800D01*
X3551200Y-4207800D02*
X3591200Y-4247800D01*
X3591200Y-4207800D02*
X3551200Y-4247800D01*
X3588350Y-3473110D02*
X3628350Y-3513110D01*
X3628350Y-3473110D02*
X3588350Y-3513110D01*
X3610200Y-1015800D02*
X3650200Y-1055800D01*
X3650200Y-1015800D02*
X3610200Y-1055800D01*
X3617200Y-2543800D02*
X3657200Y-2583800D01*
X3657200Y-2543800D02*
X3617200Y-2583800D01*
X3632200Y-3748800D02*
X3672200Y-3788800D01*
X3672200Y-3748800D02*
X3632200Y-3788800D01*
X3715900Y-2734180D02*
X3755900Y-2774180D01*
X3755900Y-2734180D02*
X3715900Y-2774180D01*
X3735150Y-3788610D02*
X3775150Y-3828610D01*
X3775150Y-3788610D02*
X3735150Y-3828610D01*
X3791200Y-4206800D02*
X3831200Y-4246800D01*
X3831200Y-4206800D02*
X3791200Y-4246800D01*
X3832200Y-2752800D02*
X3872200Y-2792800D01*
X3872200Y-2752800D02*
X3832200Y-2792800D01*
X3855200Y-4621800D02*
X3895200Y-4661800D01*
X3895200Y-4621800D02*
X3855200Y-4661800D01*
X3870200Y-3743800D02*
X3910200Y-3783800D01*
X3910200Y-3743800D02*
X3870200Y-3783800D01*
X3910960Y-3408770D02*
X3950960Y-3448770D01*
X3950960Y-3408770D02*
X3910960Y-3448770D01*
X3947720Y-1015800D02*
X3987720Y-1055800D01*
X3987720Y-1015800D02*
X3947720Y-1055800D01*
X3949200Y-2257800D02*
X3989200Y-2297800D01*
X3989200Y-2257800D02*
X3949200Y-2297800D01*
X3983690Y-2655800D02*
X4023690Y-2695800D01*
X4023690Y-2655800D02*
X3983690Y-2695800D01*
X3993510Y-2955800D02*
X4033510Y-2995800D01*
X4033510Y-2955800D02*
X3993510Y-2995800D01*
X4001200Y-3833800D02*
X4041200Y-3873800D01*
X4041200Y-3833800D02*
X4001200Y-3873800D01*
X4031200Y-4194800D02*
X4071200Y-4234800D01*
X4071200Y-4194800D02*
X4031200Y-4234800D01*
X4069200Y-2124800D02*
X4109200Y-2164800D01*
X4109200Y-2124800D02*
X4069200Y-2164800D01*
X4074200Y-2642800D02*
X4114200Y-2682800D01*
X4114200Y-2642800D02*
X4074200Y-2682800D01*
X4106200Y-3755800D02*
X4146200Y-3795800D01*
X4146200Y-3755800D02*
X4106200Y-3795800D01*
X4143200Y-1098800D02*
X4183200Y-1138800D01*
X4183200Y-1098800D02*
X4143200Y-1138800D01*
X4175200Y-785800D02*
X4215200Y-825800D01*
X4215200Y-785800D02*
X4175200Y-825800D01*
X4176200Y-4381800D02*
X4216200Y-4421800D01*
X4216200Y-4381800D02*
X4176200Y-4421800D01*
X4196200Y-1965800D02*
X4236200Y-2005800D01*
X4236200Y-1965800D02*
X4196200Y-2005800D01*
X4196200Y-2395800D02*
X4236200Y-2435800D01*
X4236200Y-2395800D02*
X4196200Y-2435800D01*
X4234200Y-844800D02*
X4274200Y-884800D01*
X4274200Y-844800D02*
X4234200Y-884800D01*
X4247200Y-4853800D02*
X4287200Y-4893800D01*
X4287200Y-4853800D02*
X4247200Y-4893800D01*
X4269580Y-2212130D02*
X4309580Y-2252130D01*
X4309580Y-2212130D02*
X4269580Y-2252130D01*
X4280770Y-2125800D02*
X4320770Y-2165800D01*
X4320770Y-2125800D02*
X4280770Y-2165800D01*
X4329200Y-4535800D02*
X4369200Y-4575800D01*
X4369200Y-4535800D02*
X4329200Y-4575800D01*
X4343200Y-2312800D02*
X4383200Y-2352800D01*
X4383200Y-2312800D02*
X4343200Y-2352800D01*
X4356200Y-3755800D02*
X4396200Y-3795800D01*
X4396200Y-3755800D02*
X4356200Y-3795800D01*
X4366200Y-1684800D02*
X4406200Y-1724800D01*
X4406200Y-1684800D02*
X4366200Y-1724800D01*
X4374200Y-3902800D02*
X4414200Y-3942800D01*
X4414200Y-3902800D02*
X4374200Y-3942800D01*
X4527200Y-2139800D02*
X4567200Y-2179800D01*
X4567200Y-2139800D02*
X4527200Y-2179800D01*
X4546200Y-4818800D02*
X4586200Y-4858800D01*
X4586200Y-4818800D02*
X4546200Y-4858800D01*
X4589200Y-1039800D02*
X4629200Y-1079800D01*
X4629200Y-1039800D02*
X4589200Y-1079800D01*
X4643200Y-858800D02*
X4683200Y-898800D01*
X4683200Y-858800D02*
X4643200Y-898800D01*
X4656200Y-3635800D02*
X4696200Y-3675800D01*
X4696200Y-3635800D02*
X4656200Y-3675800D01*
X4666320Y-666510D02*
X4706320Y-706510D01*
X4706320Y-666510D02*
X4666320Y-706510D01*
X4712200Y-1827800D02*
X4752200Y-1867800D01*
X4752200Y-1827800D02*
X4712200Y-1867800D01*
X4733360Y-3429020D02*
X4773360Y-3469020D01*
X4773360Y-3429020D02*
X4733360Y-3469020D01*
X4749200Y-1975800D02*
X4789200Y-2015800D01*
X4789200Y-1975800D02*
X4749200Y-2015800D01*
X4846200Y-3725800D02*
X4886200Y-3765800D01*
X4886200Y-3725800D02*
X4846200Y-3765800D01*
X4846200Y-4819800D02*
X4886200Y-4859800D01*
X4886200Y-4819800D02*
X4846200Y-4859800D01*
X4880700Y-4249300D02*
X4920700Y-4289300D01*
X4920700Y-4249300D02*
X4880700Y-4289300D01*
X4946200Y-4545800D02*
X4986200Y-4585800D01*
X4986200Y-4545800D02*
X4946200Y-4585800D01*
X4974460Y-445790D02*
X5014460Y-485790D01*
X5014460Y-445790D02*
X4974460Y-485790D01*
X5016200Y-1585800D02*
X5056200Y-1625800D01*
X5056200Y-1585800D02*
X5016200Y-1625800D01*
X5016200Y-2121800D02*
X5056200Y-2161800D01*
X5056200Y-2121800D02*
X5016200Y-2161800D01*
X5024200Y-1967800D02*
X5064200Y-2007800D01*
X5064200Y-1967800D02*
X5024200Y-2007800D01*
X5046200Y-4545800D02*
X5086200Y-4585800D01*
X5086200Y-4545800D02*
X5046200Y-4585800D01*
X5058530Y-338850D02*
X5098530Y-378850D01*
X5098530Y-338850D02*
X5058530Y-378850D01*
X5141760Y-2753330D02*
X5181760Y-2793330D01*
X5181760Y-2753330D02*
X5141760Y-2793330D01*
X5146200Y-4870800D02*
X5186200Y-4910800D01*
X5186200Y-4870800D02*
X5146200Y-4910800D01*
X5166200Y-2250800D02*
X5206200Y-2290800D01*
X5206200Y-2250800D02*
X5166200Y-2290800D01*
X5176200Y-4375800D02*
X5216200Y-4415800D01*
X5216200Y-4375800D02*
X5176200Y-4415800D01*
X5178200Y-2006800D02*
X5218200Y-2046800D01*
X5218200Y-2006800D02*
X5178200Y-2046800D01*
X5211200Y-3032800D02*
X5251200Y-3072800D01*
X5251200Y-3032800D02*
X5211200Y-3072800D01*
X5248200Y-1009800D02*
X5288200Y-1049800D01*
X5288200Y-1009800D02*
X5248200Y-1049800D01*
X5266200Y-4535800D02*
X5306200Y-4575800D01*
X5306200Y-4535800D02*
X5266200Y-4575800D01*
X5313200Y-4330800D02*
X5353200Y-4370800D01*
X5353200Y-4330800D02*
X5313200Y-4370800D01*
X5398200Y-403800D02*
X5438200Y-443800D01*
X5438200Y-403800D02*
X5398200Y-443800D01*
X5401200Y-1987800D02*
X5441200Y-2027800D01*
X5441200Y-1987800D02*
X5401200Y-2027800D01*
X5435200Y-4179800D02*
X5475200Y-4219800D01*
X5475200Y-4179800D02*
X5435200Y-4219800D01*
X5451450Y-4607890D02*
X5491450Y-4647890D01*
X5491450Y-4607890D02*
X5451450Y-4647890D01*
X5459200Y-1584800D02*
X5499200Y-1624800D01*
X5499200Y-1584800D02*
X5459200Y-1624800D01*
X5476200Y-4073800D02*
X5516200Y-4113800D01*
X5516200Y-4073800D02*
X5476200Y-4113800D01*
X5482200Y-4834800D02*
X5522200Y-4874800D01*
X5522200Y-4834800D02*
X5482200Y-4874800D01*
X5488620Y-2998380D02*
X5528620Y-3038380D01*
X5528620Y-2998380D02*
X5488620Y-3038380D01*
X5510200Y-1312800D02*
X5550200Y-1352800D01*
X5550200Y-1312800D02*
X5510200Y-1352800D01*
X5542140Y-3067560D02*
X5582140Y-3107560D01*
X5582140Y-3067560D02*
X5542140Y-3107560D01*
X5549200Y-1461800D02*
X5589200Y-1501800D01*
X5589200Y-1461800D02*
X5549200Y-1501800D01*
X5602100Y-3169000D02*
X5642100Y-3209000D01*
X5642100Y-3169000D02*
X5602100Y-3209000D01*
X5604200Y-1316800D02*
X5644200Y-1356800D01*
X5644200Y-1316800D02*
X5604200Y-1356800D01*
X5658670Y-2888210D02*
X5698670Y-2928210D01*
X5698670Y-2888210D02*
X5658670Y-2928210D01*
X5690200Y-1589800D02*
X5730200Y-1629800D01*
X5730200Y-1589800D02*
X5690200Y-1629800D01*
X5704200Y-1389800D02*
X5744200Y-1429800D01*
X5744200Y-1389800D02*
X5704200Y-1429800D01*
X5717200Y-2823800D02*
X5757200Y-2863800D01*
X5757200Y-2823800D02*
X5717200Y-2863800D01*
X5731200Y-4543270D02*
X5771200Y-4583270D01*
X5771200Y-4543270D02*
X5731200Y-4583270D01*
X5754200Y-3701800D02*
X5794200Y-3741800D01*
X5794200Y-3701800D02*
X5754200Y-3741800D01*
X5786200Y-425800D02*
X5826200Y-465800D01*
X5826200Y-425800D02*
X5786200Y-465800D01*
X5818200Y-3629800D02*
X5858200Y-3669800D01*
X5858200Y-3629800D02*
X5818200Y-3669800D01*
X5853730Y-4548800D02*
X5893730Y-4588800D01*
X5893730Y-4548800D02*
X5853730Y-4588800D01*
X5894550Y-140870D02*
X5934550Y-180870D01*
X5934550Y-140870D02*
X5894550Y-180870D01*
X5910200Y-811800D02*
X5950200Y-851800D01*
X5950200Y-811800D02*
X5910200Y-851800D01*
X5969000Y-1546400D02*
X6009000Y-1586400D01*
X6009000Y-1546400D02*
X5969000Y-1586400D01*
X5999200Y-913800D02*
X6039200Y-953800D01*
X6039200Y-913800D02*
X5999200Y-953800D01*
X6190130Y-2690270D02*
X6230130Y-2730270D01*
X6230130Y-2690270D02*
X6190130Y-2730270D01*
X6190200Y-4440800D02*
X6230200Y-4480800D01*
X6230200Y-4440800D02*
X6190200Y-4480800D01*
X6196200Y-3145800D02*
X6236200Y-3185800D01*
X6236200Y-3145800D02*
X6196200Y-3185800D01*
X6196200Y-3270800D02*
X6236200Y-3310800D01*
X6236200Y-3270800D02*
X6196200Y-3310800D01*
X6336200Y-3042800D02*
X6376200Y-3082800D01*
X6376200Y-3042800D02*
X6336200Y-3082800D01*
X6337200Y-2927800D02*
X6377200Y-2967800D01*
X6377200Y-2927800D02*
X6337200Y-2967800D01*
X6337200Y-3421800D02*
X6377200Y-3461800D01*
X6377200Y-3421800D02*
X6337200Y-3461800D01*
X6514640Y-212360D02*
X6554640Y-252360D01*
X6554640Y-212360D02*
X6514640Y-252360D01*
X6516200Y-1155800D02*
X6556200Y-1195800D01*
X6556200Y-1155800D02*
X6516200Y-1195800D01*
X6527200Y-4566800D02*
X6567200Y-4606800D01*
X6567200Y-4566800D02*
X6527200Y-4606800D01*
X6527200Y-4567800D02*
X6567200Y-4607800D01*
X6567200Y-4567800D02*
X6527200Y-4607800D01*
X6566200Y-1885800D02*
X6606200Y-1925800D01*
X6606200Y-1885800D02*
X6566200Y-1925800D01*
X6816200Y-835800D02*
X6856200Y-875800D01*
X6856200Y-835800D02*
X6816200Y-875800D01*
X6824200Y-4828800D02*
X6864200Y-4868800D01*
X6864200Y-4828800D02*
X6824200Y-4868800D01*
X6937880Y-150870D02*
X6977880Y-190870D01*
X6977880Y-150870D02*
X6937880Y-190870D01*
X7125330Y-1239550D02*
X7165330Y-1279550D01*
X7165330Y-1239550D02*
X7125330Y-1279550D01*
X7126200Y-4824800D02*
X7166200Y-4864800D01*
X7166200Y-4824800D02*
X7126200Y-4864800D01*
X7131200Y-3776800D02*
X7171200Y-3816800D01*
X7171200Y-3776800D02*
X7131200Y-3816800D01*
X7192200Y-4074800D02*
X7232200Y-4114800D01*
X7232200Y-4074800D02*
X7192200Y-4114800D01*
X7271200Y-4435780D02*
X7311200Y-4475780D01*
X7311200Y-4435780D02*
X7271200Y-4475780D01*
X7320380Y-4851910D02*
X7360380Y-4891910D01*
X7360380Y-4851910D02*
X7320380Y-4891910D01*
X7356200Y-815800D02*
X7396200Y-855800D01*
X7396200Y-815800D02*
X7356200Y-855800D01*
X7376680Y-1156300D02*
X7416680Y-1196300D01*
X7416680Y-1156300D02*
X7376680Y-1196300D01*
X7378730Y-1335800D02*
X7418730Y-1375800D01*
X7418730Y-1335800D02*
X7378730Y-1375800D01*
X7382200Y-2968800D02*
X7422200Y-3008800D01*
X7422200Y-2968800D02*
X7382200Y-3008800D01*
X7393200Y-2095800D02*
X7433200Y-2135800D01*
X7433200Y-2095800D02*
X7393200Y-2135800D01*
X7409200Y-3689800D02*
X7449200Y-3729800D01*
X7449200Y-3689800D02*
X7409200Y-3729800D01*
X7426200Y-4837800D02*
X7466200Y-4877800D01*
X7466200Y-4837800D02*
X7426200Y-4877800D01*
X7497200Y-3487060D02*
X7537200Y-3527060D01*
X7537200Y-3487060D02*
X7497200Y-3527060D01*
X7631200Y-1845800D02*
X7671200Y-1885800D01*
X7671200Y-1845800D02*
X7631200Y-1885800D01*
X7674200Y-4396800D02*
X7714200Y-4436800D01*
X7714200Y-4396800D02*
X7674200Y-4436800D01*
X7680200Y-3824800D02*
X7720200Y-3864800D01*
X7720200Y-3824800D02*
X7680200Y-3864800D01*
X7715280Y-1333330D02*
X7755280Y-1373330D01*
X7755280Y-1333330D02*
X7715280Y-1373330D01*
X7727200Y-4821800D02*
X7767200Y-4861800D01*
X7767200Y-4821800D02*
X7727200Y-4861800D01*
X7824200Y-4523800D02*
X7864200Y-4563800D01*
X7864200Y-4523800D02*
X7824200Y-4563800D01*
X7861200Y-4363170D02*
X7901200Y-4403170D01*
X7901200Y-4363170D02*
X7861200Y-4403170D01*
X7863200Y-3985800D02*
X7903200Y-4025800D01*
X7903200Y-3985800D02*
X7863200Y-4025800D01*
X7906200Y-830800D02*
X7946200Y-870800D01*
X7946200Y-830800D02*
X7906200Y-870800D01*
X7916200Y-1580800D02*
X7956200Y-1620800D01*
X7956200Y-1580800D02*
X7916200Y-1620800D01*
X7927220Y-1910800D02*
X7967220Y-1950800D01*
X7967220Y-1910800D02*
X7927220Y-1950800D01*
X7951200Y-4483800D02*
X7991200Y-4523800D01*
X7991200Y-4483800D02*
X7951200Y-4523800D01*
X7957200Y-4980800D02*
X7997200Y-5020800D01*
X7997200Y-4980800D02*
X7957200Y-5020800D01*
X7995200Y-4698800D02*
X8035200Y-4738800D01*
X8035200Y-4698800D02*
X7995200Y-4738800D01*
X7999200Y-4337800D02*
X8039200Y-4377800D01*
X8039200Y-4337800D02*
X7999200Y-4377800D01*
X8010200Y-2974800D02*
X8050200Y-3014800D01*
X8050200Y-2974800D02*
X8010200Y-3014800D01*
X8017200Y-3869800D02*
X8057200Y-3909800D01*
X8057200Y-3869800D02*
X8017200Y-3909800D01*
X8382000Y-4010200D02*
X8422000Y-4050200D01*
X8422000Y-4010200D02*
X8382000Y-4050200D01*
X1001200Y-5270800D02*
G75*
G03X1001200Y-5270800I-25000J0D01*
G01*
X961200Y-5238300D02*
X961200Y-5303300D01*
X991200Y-5238300D02*
X991200Y-5303300D01*
X961200Y-5303300D02*
G75*
G03X991200Y-5303300I15000J0D01*
G01*
X991200Y-5238300D02*
G75*
G03X961200Y-5238300I-15000J0D01*
G01*
X1701200Y-5270800D02*
G75*
G03X1701200Y-5270800I-25000J0D01*
G01*
X1661200Y-5238300D02*
X1661200Y-5303300D01*
X1691200Y-5238300D02*
X1691200Y-5303300D01*
X1661200Y-5303300D02*
G75*
G03X1691200Y-5303300I15000J0D01*
G01*
X1691200Y-5238300D02*
G75*
G03X1661200Y-5238300I-15000J0D01*
G01*
X1076200Y-4973300D02*
X1076200Y-5028300D01*
X1048700Y-5000800D02*
X1103700Y-5000800D01*
X1061200Y-5018300D02*
X1091200Y-5018300D01*
X1061200Y-4983300D02*
X1091200Y-4983300D01*
X1091200Y-5018300D02*
G75*
G03X1091200Y-4983300I0J17500D01*
G01*
X1061200Y-4983300D02*
G75*
G03X1061200Y-5018300I0J-17500D01*
G01*
X1576200Y-4973300D02*
X1576200Y-5028300D01*
X1548700Y-5000800D02*
X1603700Y-5000800D01*
X1561200Y-5018300D02*
X1591200Y-5018300D01*
X1561200Y-4983300D02*
X1591200Y-4983300D01*
X1591200Y-5018300D02*
G75*
G03X1591200Y-4983300I0J17500D01*
G01*
X1561200Y-4983300D02*
G75*
G03X1561200Y-5018300I0J-17500D01*
G01*
X1043141Y-342741D02*
X1043141Y-288859D01*
X989259Y-288859D01*
X989259Y-342741D01*
X1043141Y-342741D01*
X1043141Y-542741D02*
X1043141Y-488859D01*
X989259Y-488859D01*
X989259Y-542741D01*
X1043141Y-542741D01*
X1243141Y-342741D02*
X1243141Y-288859D01*
X1189259Y-288859D01*
X1189259Y-342741D01*
X1243141Y-342741D01*
X1243141Y-542741D02*
X1243141Y-488859D01*
X1189259Y-488859D01*
X1189259Y-542741D01*
X1243141Y-542741D01*
X1443141Y-342741D02*
X1443141Y-288859D01*
X1389259Y-288859D01*
X1389259Y-342741D01*
X1443141Y-342741D01*
X1443141Y-542741D02*
X1443141Y-488859D01*
X1389259Y-488859D01*
X1389259Y-542741D01*
X1443141Y-542741D01*
X1643141Y-342741D02*
X1643141Y-288859D01*
X1589259Y-288859D01*
X1589259Y-342741D01*
X1643141Y-342741D01*
X1643141Y-542741D02*
X1643141Y-488859D01*
X1589259Y-488859D01*
X1589259Y-542741D01*
X1643141Y-542741D01*
X1843141Y-342741D02*
X1843141Y-288859D01*
X1789259Y-288859D01*
X1789259Y-342741D01*
X1843141Y-342741D01*
X1843141Y-542741D02*
X1843141Y-488859D01*
X1789259Y-488859D01*
X1789259Y-542741D01*
X1843141Y-542741D01*
X2043141Y-342741D02*
X2043141Y-288859D01*
X1989259Y-288859D01*
X1989259Y-342741D01*
X2043141Y-342741D01*
X2043141Y-542741D02*
X2043141Y-488859D01*
X1989259Y-488859D01*
X1989259Y-542741D01*
X2043141Y-542741D01*
X2243141Y-342741D02*
X2243141Y-288859D01*
X2189259Y-288859D01*
X2189259Y-342741D01*
X2243141Y-342741D01*
X2243141Y-542741D02*
X2243141Y-488859D01*
X2189259Y-488859D01*
X2189259Y-542741D01*
X2243141Y-542741D01*
X2443141Y-342741D02*
X2443141Y-288859D01*
X2389259Y-288859D01*
X2389259Y-342741D01*
X2443141Y-342741D01*
X2443141Y-542741D02*
X2443141Y-488859D01*
X2389259Y-488859D01*
X2389259Y-542741D01*
X2443141Y-542741D01*
X2643141Y-342741D02*
X2643141Y-288859D01*
X2589259Y-288859D01*
X2589259Y-342741D01*
X2643141Y-342741D01*
X2643141Y-542741D02*
X2643141Y-488859D01*
X2589259Y-488859D01*
X2589259Y-542741D01*
X2643141Y-542741D01*
X2843141Y-342741D02*
X2843141Y-288859D01*
X2789259Y-288859D01*
X2789259Y-342741D01*
X2843141Y-342741D01*
X2843141Y-542741D02*
X2843141Y-488859D01*
X2789259Y-488859D01*
X2789259Y-542741D01*
X2843141Y-542741D01*
X3043141Y-342741D02*
X3043141Y-288859D01*
X2989259Y-288859D01*
X2989259Y-342741D01*
X3043141Y-342741D01*
X3043141Y-542741D02*
X3043141Y-488859D01*
X2989259Y-488859D01*
X2989259Y-542741D01*
X3043141Y-542741D01*
X3243141Y-342741D02*
X3243141Y-288859D01*
X3189259Y-288859D01*
X3189259Y-342741D01*
X3243141Y-342741D01*
X3243141Y-542741D02*
X3243141Y-488859D01*
X3189259Y-488859D01*
X3189259Y-542741D01*
X3243141Y-542741D01*
X3443141Y-342741D02*
X3443141Y-288859D01*
X3389259Y-288859D01*
X3389259Y-342741D01*
X3443141Y-342741D01*
X3443141Y-542741D02*
X3443141Y-488859D01*
X3389259Y-488859D01*
X3389259Y-542741D01*
X3443141Y-542741D01*
X3643141Y-342741D02*
X3643141Y-288859D01*
X3589259Y-288859D01*
X3589259Y-342741D01*
X3643141Y-342741D01*
X3643141Y-542741D02*
X3643141Y-488859D01*
X3589259Y-488859D01*
X3589259Y-542741D01*
X3643141Y-542741D01*
X3843141Y-342741D02*
X3843141Y-288859D01*
X3789259Y-288859D01*
X3789259Y-342741D01*
X3843141Y-342741D01*
X3843141Y-542741D02*
X3843141Y-488859D01*
X3789259Y-488859D01*
X3789259Y-542741D01*
X3843141Y-542741D01*
X4043141Y-342741D02*
X4043141Y-288859D01*
X3989259Y-288859D01*
X3989259Y-342741D01*
X4043141Y-342741D01*
X4043141Y-542741D02*
X4043141Y-488859D01*
X3989259Y-488859D01*
X3989259Y-542741D01*
X4043141Y-542741D01*
X4243141Y-342741D02*
X4243141Y-288859D01*
X4189259Y-288859D01*
X4189259Y-342741D01*
X4243141Y-342741D01*
X4243141Y-542741D02*
X4243141Y-488859D01*
X4189259Y-488859D01*
X4189259Y-542741D01*
X4243141Y-542741D01*
X4443141Y-342741D02*
X4443141Y-288859D01*
X4389259Y-288859D01*
X4389259Y-342741D01*
X4443141Y-342741D01*
X4443141Y-542741D02*
X4443141Y-488859D01*
X4389259Y-488859D01*
X4389259Y-542741D01*
X4443141Y-542741D01*
X4643141Y-342741D02*
X4643141Y-288859D01*
X4589259Y-288859D01*
X4589259Y-342741D01*
X4643141Y-342741D01*
X4643141Y-542741D02*
X4643141Y-488859D01*
X4589259Y-488859D01*
X4589259Y-542741D01*
X4643141Y-542741D01*
X4843141Y-342741D02*
X4843141Y-288859D01*
X4789259Y-288859D01*
X4789259Y-342741D01*
X4843141Y-342741D01*
X4843141Y-542741D02*
X4843141Y-488859D01*
X4789259Y-488859D01*
X4789259Y-542741D01*
X4843141Y-542741D01*
X236200Y-5276600D02*
X287000Y-5225800D01*
X236200Y-5175000D01*
X185400Y-5225800D01*
X236200Y-5276600D01*
X466200Y-4346600D02*
X517000Y-4295800D01*
X466200Y-4245000D01*
X415400Y-4295800D01*
X466200Y-4346600D01*
X4956200Y-886600D02*
X5007000Y-835800D01*
X4956200Y-785000D01*
X4905400Y-835800D01*
X4956200Y-886600D01*
X5306200Y-886600D02*
X5357000Y-835800D01*
X5306200Y-785000D01*
X5255400Y-835800D01*
X5306200Y-886600D01*
X5656200Y-886600D02*
X5707000Y-835800D01*
X5656200Y-785000D01*
X5605400Y-835800D01*
X5656200Y-886600D01*
X7626200Y-456600D02*
X7677000Y-405800D01*
X7626200Y-355000D01*
X7575400Y-405800D01*
X7626200Y-456600D01*
D11*
X272629Y-5896514D02*
X272629Y-5596514D01*
X344057Y-5596514D01*
X386914Y-5610800D01*
X415486Y-5639371D01*
X429771Y-5667943D01*
X444057Y-5725086D01*
X444057Y-5767943D01*
X429771Y-5825086D01*
X415486Y-5853657D01*
X386914Y-5882229D01*
X344057Y-5896514D01*
X272629Y-5896514D01*
X572629Y-5896514D02*
X572629Y-5696514D01*
X572629Y-5753657D02*
X586914Y-5725086D01*
X601200Y-5710800D01*
X629771Y-5696514D01*
X658343Y-5696514D01*
X758343Y-5896514D02*
X758343Y-5696514D01*
X758343Y-5596514D02*
X744057Y-5610800D01*
X758343Y-5625086D01*
X772628Y-5610800D01*
X758343Y-5596514D01*
X758343Y-5625086D01*
X944057Y-5896514D02*
X915486Y-5882229D01*
X901200Y-5853657D01*
X901200Y-5596514D01*
X1101200Y-5896514D02*
X1072629Y-5882229D01*
X1058343Y-5853657D01*
X1058343Y-5596514D01*
X1444057Y-5896514D02*
X1444057Y-5596514D01*
X1544057Y-5810800D01*
X1644057Y-5596514D01*
X1644057Y-5896514D01*
X1915486Y-5896514D02*
X1915486Y-5739371D01*
X1901200Y-5710800D01*
X1872628Y-5696514D01*
X1815486Y-5696514D01*
X1786914Y-5710800D01*
X1915486Y-5882229D02*
X1886914Y-5896514D01*
X1815486Y-5896514D01*
X1786914Y-5882229D01*
X1772628Y-5853657D01*
X1772628Y-5825086D01*
X1786914Y-5796514D01*
X1815486Y-5782229D01*
X1886914Y-5782229D01*
X1915486Y-5767943D01*
X2058343Y-5696514D02*
X2058343Y-5996514D01*
X2058343Y-5710800D02*
X2086914Y-5696514D01*
X2144057Y-5696514D01*
X2172629Y-5710800D01*
X2186914Y-5725086D01*
X2201200Y-5753657D01*
X2201200Y-5839371D01*
X2186914Y-5867943D01*
X2172629Y-5882229D01*
X2144057Y-5896514D01*
X2086914Y-5896514D01*
X2058343Y-5882229D01*
X2329771Y-5867943D02*
X2344057Y-5882229D01*
X2329771Y-5896514D01*
X2315486Y-5882229D01*
X2329771Y-5867943D01*
X2329771Y-5896514D01*
X2329771Y-5710800D02*
X2344057Y-5725086D01*
X2329771Y-5739371D01*
X2315486Y-5725086D01*
X2329771Y-5710800D01*
X2329771Y-5739371D01*
X-38800Y-6370800D02*
X1200Y-6410800D01*
X1200Y-6370800D02*
X-38800Y-6410800D01*
X329771Y-6226514D02*
X358343Y-6226514D01*
X386914Y-6240800D01*
X401200Y-6255086D01*
X415486Y-6283657D01*
X429771Y-6340800D01*
X429771Y-6412229D01*
X415486Y-6469371D01*
X401200Y-6497943D01*
X386914Y-6512229D01*
X358343Y-6526514D01*
X329771Y-6526514D01*
X301200Y-6512229D01*
X286914Y-6497943D01*
X272629Y-6469371D01*
X258343Y-6412229D01*
X258343Y-6340800D01*
X272629Y-6283657D01*
X286914Y-6255086D01*
X301200Y-6240800D01*
X329771Y-6226514D01*
X558343Y-6497943D02*
X572629Y-6512229D01*
X558343Y-6526514D01*
X544057Y-6512229D01*
X558343Y-6497943D01*
X558343Y-6526514D01*
X829771Y-6326514D02*
X829771Y-6526514D01*
X758343Y-6212229D02*
X686914Y-6426514D01*
X872628Y-6426514D01*
X1044057Y-6226514D02*
X1072629Y-6226514D01*
X1101200Y-6240800D01*
X1115486Y-6255086D01*
X1129771Y-6283657D01*
X1144057Y-6340800D01*
X1144057Y-6412229D01*
X1129771Y-6469371D01*
X1115486Y-6497943D01*
X1101200Y-6512229D01*
X1072629Y-6526514D01*
X1044057Y-6526514D01*
X1015486Y-6512229D01*
X1001200Y-6497943D01*
X986914Y-6469371D01*
X972628Y-6412229D01*
X972628Y-6340800D01*
X986914Y-6283657D01*
X1001200Y-6255086D01*
X1015486Y-6240800D01*
X1044057Y-6226514D01*
X1272629Y-6526514D02*
X1272629Y-6326514D01*
X1272629Y-6355086D02*
X1286914Y-6340800D01*
X1315486Y-6326514D01*
X1358343Y-6326514D01*
X1386914Y-6340800D01*
X1401200Y-6369371D01*
X1401200Y-6526514D01*
X1401200Y-6369371D02*
X1415486Y-6340800D01*
X1444057Y-6326514D01*
X1486914Y-6326514D01*
X1515486Y-6340800D01*
X1529771Y-6369371D01*
X1529771Y-6526514D01*
X1672628Y-6526514D02*
X1672628Y-6326514D01*
X1672628Y-6355086D02*
X1686914Y-6340800D01*
X1715486Y-6326514D01*
X1758343Y-6326514D01*
X1786914Y-6340800D01*
X1801200Y-6369371D01*
X1801200Y-6526514D01*
X1801200Y-6369371D02*
X1815486Y-6340800D01*
X1844057Y-6326514D01*
X1886914Y-6326514D01*
X1915486Y-6340800D01*
X1929771Y-6369371D01*
X1929771Y-6526514D01*
X2515486Y-6212229D02*
X2258343Y-6597943D01*
X2901200Y-6226514D02*
X2929771Y-6226514D01*
X2958343Y-6240800D01*
X2972628Y-6255086D01*
X2986914Y-6283657D01*
X3001200Y-6340800D01*
X3001200Y-6412229D01*
X2986914Y-6469371D01*
X2972628Y-6497943D01*
X2958343Y-6512229D01*
X2929771Y-6526514D01*
X2901200Y-6526514D01*
X2872628Y-6512229D01*
X2858343Y-6497943D01*
X2844057Y-6469371D01*
X2829771Y-6412229D01*
X2829771Y-6340800D01*
X2844057Y-6283657D01*
X2858343Y-6255086D01*
X2872628Y-6240800D01*
X2901200Y-6226514D01*
X3129771Y-6497943D02*
X3144057Y-6512229D01*
X3129771Y-6526514D01*
X3115486Y-6512229D01*
X3129771Y-6497943D01*
X3129771Y-6526514D01*
X3329771Y-6226514D02*
X3358343Y-6226514D01*
X3386914Y-6240800D01*
X3401200Y-6255086D01*
X3415485Y-6283657D01*
X3429771Y-6340800D01*
X3429771Y-6412229D01*
X3415485Y-6469371D01*
X3401200Y-6497943D01*
X3386914Y-6512229D01*
X3358343Y-6526514D01*
X3329771Y-6526514D01*
X3301200Y-6512229D01*
X3286914Y-6497943D01*
X3272628Y-6469371D01*
X3258343Y-6412229D01*
X3258343Y-6340800D01*
X3272628Y-6283657D01*
X3286914Y-6255086D01*
X3301200Y-6240800D01*
X3329771Y-6226514D01*
X3715485Y-6526514D02*
X3544057Y-6526514D01*
X3629771Y-6526514D02*
X3629771Y-6226514D01*
X3601200Y-6269371D01*
X3572628Y-6297943D01*
X3544057Y-6312229D01*
X3972628Y-6226514D02*
X3915485Y-6226514D01*
X3886914Y-6240800D01*
X3872628Y-6255086D01*
X3844057Y-6297943D01*
X3829771Y-6355086D01*
X3829771Y-6469371D01*
X3844057Y-6497943D01*
X3858343Y-6512229D01*
X3886914Y-6526514D01*
X3944057Y-6526514D01*
X3972628Y-6512229D01*
X3986914Y-6497943D01*
X4001200Y-6469371D01*
X4001200Y-6397943D01*
X3986914Y-6369371D01*
X3972628Y-6355086D01*
X3944057Y-6340800D01*
X3886914Y-6340800D01*
X3858343Y-6355086D01*
X3844057Y-6369371D01*
X3829771Y-6397943D01*
X4115486Y-6226514D02*
X4115486Y-6283657D01*
X4229771Y-6226514D02*
X4229771Y-6283657D01*
X4672628Y-6640800D02*
X4658343Y-6626514D01*
X4629771Y-6583657D01*
X4615486Y-6555086D01*
X4601200Y-6512229D01*
X4586914Y-6440800D01*
X4586914Y-6383657D01*
X4601200Y-6312229D01*
X4615486Y-6269371D01*
X4629771Y-6240800D01*
X4658343Y-6197943D01*
X4672628Y-6183657D01*
X4772628Y-6255086D02*
X4786914Y-6240800D01*
X4815486Y-6226514D01*
X4886914Y-6226514D01*
X4915486Y-6240800D01*
X4929771Y-6255086D01*
X4944057Y-6283657D01*
X4944057Y-6312229D01*
X4929771Y-6355086D01*
X4758343Y-6526514D01*
X4944057Y-6526514D01*
X5229771Y-6526514D02*
X5058343Y-6526514D01*
X5144057Y-6526514D02*
X5144057Y-6226514D01*
X5115486Y-6269371D01*
X5086914Y-6297943D01*
X5058343Y-6312229D01*
X5415486Y-6226514D02*
X5444057Y-6226514D01*
X5472628Y-6240800D01*
X5486914Y-6255086D01*
X5501200Y-6283657D01*
X5515486Y-6340800D01*
X5515486Y-6412229D01*
X5501200Y-6469371D01*
X5486914Y-6497943D01*
X5472628Y-6512229D01*
X5444057Y-6526514D01*
X5415486Y-6526514D01*
X5386914Y-6512229D01*
X5372628Y-6497943D01*
X5358343Y-6469371D01*
X5344057Y-6412229D01*
X5344057Y-6340800D01*
X5358343Y-6283657D01*
X5372628Y-6255086D01*
X5386914Y-6240800D01*
X5415486Y-6226514D01*
X5872628Y-6526514D02*
X5872628Y-6226514D01*
X6001200Y-6526514D02*
X6001200Y-6369371D01*
X5986914Y-6340800D01*
X5958343Y-6326514D01*
X5915485Y-6326514D01*
X5886914Y-6340800D01*
X5872628Y-6355086D01*
X6186914Y-6526514D02*
X6158343Y-6512229D01*
X6144057Y-6497943D01*
X6129771Y-6469371D01*
X6129771Y-6383657D01*
X6144057Y-6355086D01*
X6158343Y-6340800D01*
X6186914Y-6326514D01*
X6229771Y-6326514D01*
X6258343Y-6340800D01*
X6272628Y-6355086D01*
X6286914Y-6383657D01*
X6286914Y-6469371D01*
X6272628Y-6497943D01*
X6258343Y-6512229D01*
X6229771Y-6526514D01*
X6186914Y-6526514D01*
X6458343Y-6526514D02*
X6429771Y-6512229D01*
X6415486Y-6483657D01*
X6415486Y-6226514D01*
X6686914Y-6512229D02*
X6658343Y-6526514D01*
X6601200Y-6526514D01*
X6572628Y-6512229D01*
X6558343Y-6483657D01*
X6558343Y-6369371D01*
X6572628Y-6340800D01*
X6601200Y-6326514D01*
X6658343Y-6326514D01*
X6686914Y-6340800D01*
X6701200Y-6369371D01*
X6701200Y-6397943D01*
X6558343Y-6426514D01*
X6815486Y-6512229D02*
X6844057Y-6526514D01*
X6901200Y-6526514D01*
X6929771Y-6512229D01*
X6944057Y-6483657D01*
X6944057Y-6469371D01*
X6929771Y-6440800D01*
X6901200Y-6426514D01*
X6858343Y-6426514D01*
X6829771Y-6412229D01*
X6815486Y-6383657D01*
X6815486Y-6369371D01*
X6829771Y-6340800D01*
X6858343Y-6326514D01*
X6901200Y-6326514D01*
X6929771Y-6340800D01*
X7044057Y-6640800D02*
X7058343Y-6626514D01*
X7086914Y-6583657D01*
X7101200Y-6555086D01*
X7115486Y-6512229D01*
X7129771Y-6440800D01*
X7129771Y-6383657D01*
X7115486Y-6312229D01*
X7101200Y-6269371D01*
X7086914Y-6240800D01*
X7058343Y-6197943D01*
X7044057Y-6183657D01*
X1200Y-6786800D02*
G75*
G03X1200Y-6786800I-25000J0D01*
G01*
X329771Y-6622514D02*
X358343Y-6622514D01*
X386914Y-6636800D01*
X401200Y-6651086D01*
X415486Y-6679657D01*
X429771Y-6736800D01*
X429771Y-6808229D01*
X415486Y-6865371D01*
X401200Y-6893943D01*
X386914Y-6908229D01*
X358343Y-6922514D01*
X329771Y-6922514D01*
X301200Y-6908229D01*
X286914Y-6893943D01*
X272629Y-6865371D01*
X258343Y-6808229D01*
X258343Y-6736800D01*
X272629Y-6679657D01*
X286914Y-6651086D01*
X301200Y-6636800D01*
X329771Y-6622514D01*
X558343Y-6893943D02*
X572629Y-6908229D01*
X558343Y-6922514D01*
X544057Y-6908229D01*
X558343Y-6893943D01*
X558343Y-6922514D01*
X844057Y-6622514D02*
X701200Y-6622514D01*
X686914Y-6765371D01*
X701200Y-6751086D01*
X729771Y-6736800D01*
X801200Y-6736800D01*
X829771Y-6751086D01*
X844057Y-6765371D01*
X858343Y-6793943D01*
X858343Y-6865371D01*
X844057Y-6893943D01*
X829771Y-6908229D01*
X801200Y-6922514D01*
X729771Y-6922514D01*
X701200Y-6908229D01*
X686914Y-6893943D01*
X1044057Y-6622514D02*
X1072629Y-6622514D01*
X1101200Y-6636800D01*
X1115486Y-6651086D01*
X1129771Y-6679657D01*
X1144057Y-6736800D01*
X1144057Y-6808229D01*
X1129771Y-6865371D01*
X1115486Y-6893943D01*
X1101200Y-6908229D01*
X1072629Y-6922514D01*
X1044057Y-6922514D01*
X1015486Y-6908229D01*
X1001200Y-6893943D01*
X986914Y-6865371D01*
X972628Y-6808229D01*
X972628Y-6736800D01*
X986914Y-6679657D01*
X1001200Y-6651086D01*
X1015486Y-6636800D01*
X1044057Y-6622514D01*
X1272629Y-6922514D02*
X1272629Y-6722514D01*
X1272629Y-6751086D02*
X1286914Y-6736800D01*
X1315486Y-6722514D01*
X1358343Y-6722514D01*
X1386914Y-6736800D01*
X1401200Y-6765371D01*
X1401200Y-6922514D01*
X1401200Y-6765371D02*
X1415486Y-6736800D01*
X1444057Y-6722514D01*
X1486914Y-6722514D01*
X1515486Y-6736800D01*
X1529771Y-6765371D01*
X1529771Y-6922514D01*
X1672628Y-6922514D02*
X1672628Y-6722514D01*
X1672628Y-6751086D02*
X1686914Y-6736800D01*
X1715486Y-6722514D01*
X1758343Y-6722514D01*
X1786914Y-6736800D01*
X1801200Y-6765371D01*
X1801200Y-6922514D01*
X1801200Y-6765371D02*
X1815486Y-6736800D01*
X1844057Y-6722514D01*
X1886914Y-6722514D01*
X1915486Y-6736800D01*
X1929771Y-6765371D01*
X1929771Y-6922514D01*
X2515486Y-6608229D02*
X2258343Y-6993943D01*
X2901200Y-6622514D02*
X2929771Y-6622514D01*
X2958343Y-6636800D01*
X2972628Y-6651086D01*
X2986914Y-6679657D01*
X3001200Y-6736800D01*
X3001200Y-6808229D01*
X2986914Y-6865371D01*
X2972628Y-6893943D01*
X2958343Y-6908229D01*
X2929771Y-6922514D01*
X2901200Y-6922514D01*
X2872628Y-6908229D01*
X2858343Y-6893943D01*
X2844057Y-6865371D01*
X2829771Y-6808229D01*
X2829771Y-6736800D01*
X2844057Y-6679657D01*
X2858343Y-6651086D01*
X2872628Y-6636800D01*
X2901200Y-6622514D01*
X3129771Y-6893943D02*
X3144057Y-6908229D01*
X3129771Y-6922514D01*
X3115486Y-6908229D01*
X3129771Y-6893943D01*
X3129771Y-6922514D01*
X3329771Y-6622514D02*
X3358343Y-6622514D01*
X3386914Y-6636800D01*
X3401200Y-6651086D01*
X3415485Y-6679657D01*
X3429771Y-6736800D01*
X3429771Y-6808229D01*
X3415485Y-6865371D01*
X3401200Y-6893943D01*
X3386914Y-6908229D01*
X3358343Y-6922514D01*
X3329771Y-6922514D01*
X3301200Y-6908229D01*
X3286914Y-6893943D01*
X3272628Y-6865371D01*
X3258343Y-6808229D01*
X3258343Y-6736800D01*
X3272628Y-6679657D01*
X3286914Y-6651086D01*
X3301200Y-6636800D01*
X3329771Y-6622514D01*
X3544057Y-6651086D02*
X3558343Y-6636800D01*
X3586914Y-6622514D01*
X3658343Y-6622514D01*
X3686914Y-6636800D01*
X3701200Y-6651086D01*
X3715485Y-6679657D01*
X3715485Y-6708229D01*
X3701200Y-6751086D01*
X3529771Y-6922514D01*
X3715485Y-6922514D01*
X3901200Y-6622514D02*
X3929771Y-6622514D01*
X3958343Y-6636800D01*
X3972628Y-6651086D01*
X3986914Y-6679657D01*
X4001200Y-6736800D01*
X4001200Y-6808229D01*
X3986914Y-6865371D01*
X3972628Y-6893943D01*
X3958343Y-6908229D01*
X3929771Y-6922514D01*
X3901200Y-6922514D01*
X3872628Y-6908229D01*
X3858343Y-6893943D01*
X3844057Y-6865371D01*
X3829771Y-6808229D01*
X3829771Y-6736800D01*
X3844057Y-6679657D01*
X3858343Y-6651086D01*
X3872628Y-6636800D01*
X3901200Y-6622514D01*
X4115486Y-6622514D02*
X4115486Y-6679657D01*
X4229771Y-6622514D02*
X4229771Y-6679657D01*
X4672628Y-7036800D02*
X4658343Y-7022514D01*
X4629771Y-6979657D01*
X4615486Y-6951086D01*
X4601200Y-6908229D01*
X4586914Y-6836800D01*
X4586914Y-6779657D01*
X4601200Y-6708229D01*
X4615486Y-6665371D01*
X4629771Y-6636800D01*
X4658343Y-6593943D01*
X4672628Y-6579657D01*
X4844057Y-6622514D02*
X4872628Y-6622514D01*
X4901200Y-6636800D01*
X4915486Y-6651086D01*
X4929771Y-6679657D01*
X4944057Y-6736800D01*
X4944057Y-6808229D01*
X4929771Y-6865371D01*
X4915486Y-6893943D01*
X4901200Y-6908229D01*
X4872628Y-6922514D01*
X4844057Y-6922514D01*
X4815486Y-6908229D01*
X4801200Y-6893943D01*
X4786914Y-6865371D01*
X4772628Y-6808229D01*
X4772628Y-6736800D01*
X4786914Y-6679657D01*
X4801200Y-6651086D01*
X4815486Y-6636800D01*
X4844057Y-6622514D01*
X5301200Y-6922514D02*
X5301200Y-6622514D01*
X5429771Y-6922514D02*
X5429771Y-6765371D01*
X5415486Y-6736800D01*
X5386914Y-6722514D01*
X5344057Y-6722514D01*
X5315486Y-6736800D01*
X5301200Y-6751086D01*
X5615485Y-6922514D02*
X5586914Y-6908229D01*
X5572628Y-6893943D01*
X5558343Y-6865371D01*
X5558343Y-6779657D01*
X5572628Y-6751086D01*
X5586914Y-6736800D01*
X5615485Y-6722514D01*
X5658343Y-6722514D01*
X5686914Y-6736800D01*
X5701200Y-6751086D01*
X5715485Y-6779657D01*
X5715485Y-6865371D01*
X5701200Y-6893943D01*
X5686914Y-6908229D01*
X5658343Y-6922514D01*
X5615485Y-6922514D01*
X5886914Y-6922514D02*
X5858343Y-6908229D01*
X5844057Y-6879657D01*
X5844057Y-6622514D01*
X6115486Y-6908229D02*
X6086914Y-6922514D01*
X6029771Y-6922514D01*
X6001200Y-6908229D01*
X5986914Y-6879657D01*
X5986914Y-6765371D01*
X6001200Y-6736800D01*
X6029771Y-6722514D01*
X6086914Y-6722514D01*
X6115486Y-6736800D01*
X6129771Y-6765371D01*
X6129771Y-6793943D01*
X5986914Y-6822514D01*
X6244057Y-6908229D02*
X6272628Y-6922514D01*
X6329771Y-6922514D01*
X6358343Y-6908229D01*
X6372628Y-6879657D01*
X6372628Y-6865371D01*
X6358343Y-6836800D01*
X6329771Y-6822514D01*
X6286914Y-6822514D01*
X6258343Y-6808229D01*
X6244057Y-6779657D01*
X6244057Y-6765371D01*
X6258343Y-6736800D01*
X6286914Y-6722514D01*
X6329771Y-6722514D01*
X6358343Y-6736800D01*
X6729771Y-6808229D02*
X6958343Y-6808229D01*
X6844057Y-6922514D02*
X6844057Y-6693943D01*
X7315486Y-6651086D02*
X7329771Y-6636800D01*
X7358343Y-6622514D01*
X7429771Y-6622514D01*
X7458343Y-6636800D01*
X7472628Y-6651086D01*
X7486914Y-6679657D01*
X7486914Y-6708229D01*
X7472628Y-6751086D01*
X7301200Y-6922514D01*
X7486914Y-6922514D01*
X7829771Y-6908229D02*
X7858343Y-6922514D01*
X7915485Y-6922514D01*
X7944057Y-6908229D01*
X7958343Y-6879657D01*
X7958343Y-6865371D01*
X7944057Y-6836800D01*
X7915485Y-6822514D01*
X7872628Y-6822514D01*
X7844057Y-6808229D01*
X7829771Y-6779657D01*
X7829771Y-6765371D01*
X7844057Y-6736800D01*
X7872628Y-6722514D01*
X7915485Y-6722514D01*
X7944057Y-6736800D01*
X8129771Y-6922514D02*
X8101200Y-6908229D01*
X8086914Y-6879657D01*
X8086914Y-6622514D01*
X8286914Y-6922514D02*
X8258343Y-6908229D01*
X8244057Y-6893943D01*
X8229771Y-6865371D01*
X8229771Y-6779657D01*
X8244057Y-6751086D01*
X8258343Y-6736800D01*
X8286914Y-6722514D01*
X8329771Y-6722514D01*
X8358343Y-6736800D01*
X8372628Y-6751086D01*
X8386914Y-6779657D01*
X8386914Y-6865371D01*
X8372628Y-6893943D01*
X8358343Y-6908229D01*
X8329771Y-6922514D01*
X8286914Y-6922514D01*
X8472628Y-6722514D02*
X8586914Y-6722514D01*
X8515486Y-6622514D02*
X8515486Y-6879657D01*
X8529771Y-6908229D01*
X8558343Y-6922514D01*
X8586914Y-6922514D01*
X8672629Y-6908229D02*
X8701200Y-6922514D01*
X8758343Y-6922514D01*
X8786914Y-6908229D01*
X8801200Y-6879657D01*
X8801200Y-6865371D01*
X8786914Y-6836800D01*
X8758343Y-6822514D01*
X8715486Y-6822514D01*
X8686914Y-6808229D01*
X8672629Y-6779657D01*
X8672629Y-6765371D01*
X8686914Y-6736800D01*
X8715486Y-6722514D01*
X8758343Y-6722514D01*
X8786914Y-6736800D01*
X8901200Y-7036800D02*
X8915486Y-7022514D01*
X8944057Y-6979657D01*
X8958343Y-6951086D01*
X8972628Y-6908229D01*
X8986914Y-6836800D01*
X8986914Y-6779657D01*
X8972628Y-6708229D01*
X8958343Y-6665371D01*
X8944057Y-6636800D01*
X8915486Y-6593943D01*
X8901200Y-6579657D01*
X-26300Y-7155300D02*
X-26300Y-7210300D01*
X-53800Y-7182800D02*
X1200Y-7182800D01*
X329771Y-7018514D02*
X358343Y-7018514D01*
X386914Y-7032800D01*
X401200Y-7047086D01*
X415486Y-7075657D01*
X429771Y-7132800D01*
X429771Y-7204229D01*
X415486Y-7261371D01*
X401200Y-7289943D01*
X386914Y-7304229D01*
X358343Y-7318514D01*
X329771Y-7318514D01*
X301200Y-7304229D01*
X286914Y-7289943D01*
X272629Y-7261371D01*
X258343Y-7204229D01*
X258343Y-7132800D01*
X272629Y-7075657D01*
X286914Y-7047086D01*
X301200Y-7032800D01*
X329771Y-7018514D01*
X558343Y-7289943D02*
X572629Y-7304229D01*
X558343Y-7318514D01*
X544057Y-7304229D01*
X558343Y-7289943D01*
X558343Y-7318514D01*
X844057Y-7018514D02*
X701200Y-7018514D01*
X686914Y-7161371D01*
X701200Y-7147086D01*
X729771Y-7132800D01*
X801200Y-7132800D01*
X829771Y-7147086D01*
X844057Y-7161371D01*
X858343Y-7189943D01*
X858343Y-7261371D01*
X844057Y-7289943D01*
X829771Y-7304229D01*
X801200Y-7318514D01*
X729771Y-7318514D01*
X701200Y-7304229D01*
X686914Y-7289943D01*
X1129771Y-7018514D02*
X986914Y-7018514D01*
X972628Y-7161371D01*
X986914Y-7147086D01*
X1015486Y-7132800D01*
X1086914Y-7132800D01*
X1115486Y-7147086D01*
X1129771Y-7161371D01*
X1144057Y-7189943D01*
X1144057Y-7261371D01*
X1129771Y-7289943D01*
X1115486Y-7304229D01*
X1086914Y-7318514D01*
X1015486Y-7318514D01*
X986914Y-7304229D01*
X972628Y-7289943D01*
X1272629Y-7318514D02*
X1272629Y-7118514D01*
X1272629Y-7147086D02*
X1286914Y-7132800D01*
X1315486Y-7118514D01*
X1358343Y-7118514D01*
X1386914Y-7132800D01*
X1401200Y-7161371D01*
X1401200Y-7318514D01*
X1401200Y-7161371D02*
X1415486Y-7132800D01*
X1444057Y-7118514D01*
X1486914Y-7118514D01*
X1515486Y-7132800D01*
X1529771Y-7161371D01*
X1529771Y-7318514D01*
X1672628Y-7318514D02*
X1672628Y-7118514D01*
X1672628Y-7147086D02*
X1686914Y-7132800D01*
X1715486Y-7118514D01*
X1758343Y-7118514D01*
X1786914Y-7132800D01*
X1801200Y-7161371D01*
X1801200Y-7318514D01*
X1801200Y-7161371D02*
X1815486Y-7132800D01*
X1844057Y-7118514D01*
X1886914Y-7118514D01*
X1915486Y-7132800D01*
X1929771Y-7161371D01*
X1929771Y-7318514D01*
X2515486Y-7004229D02*
X2258343Y-7389943D01*
X2901200Y-7018514D02*
X2929771Y-7018514D01*
X2958343Y-7032800D01*
X2972628Y-7047086D01*
X2986914Y-7075657D01*
X3001200Y-7132800D01*
X3001200Y-7204229D01*
X2986914Y-7261371D01*
X2972628Y-7289943D01*
X2958343Y-7304229D01*
X2929771Y-7318514D01*
X2901200Y-7318514D01*
X2872628Y-7304229D01*
X2858343Y-7289943D01*
X2844057Y-7261371D01*
X2829771Y-7204229D01*
X2829771Y-7132800D01*
X2844057Y-7075657D01*
X2858343Y-7047086D01*
X2872628Y-7032800D01*
X2901200Y-7018514D01*
X3129771Y-7289943D02*
X3144057Y-7304229D01*
X3129771Y-7318514D01*
X3115486Y-7304229D01*
X3129771Y-7289943D01*
X3129771Y-7318514D01*
X3329771Y-7018514D02*
X3358343Y-7018514D01*
X3386914Y-7032800D01*
X3401200Y-7047086D01*
X3415485Y-7075657D01*
X3429771Y-7132800D01*
X3429771Y-7204229D01*
X3415485Y-7261371D01*
X3401200Y-7289943D01*
X3386914Y-7304229D01*
X3358343Y-7318514D01*
X3329771Y-7318514D01*
X3301200Y-7304229D01*
X3286914Y-7289943D01*
X3272628Y-7261371D01*
X3258343Y-7204229D01*
X3258343Y-7132800D01*
X3272628Y-7075657D01*
X3286914Y-7047086D01*
X3301200Y-7032800D01*
X3329771Y-7018514D01*
X3544057Y-7047086D02*
X3558343Y-7032800D01*
X3586914Y-7018514D01*
X3658343Y-7018514D01*
X3686914Y-7032800D01*
X3701200Y-7047086D01*
X3715485Y-7075657D01*
X3715485Y-7104229D01*
X3701200Y-7147086D01*
X3529771Y-7318514D01*
X3715485Y-7318514D01*
X3829771Y-7047086D02*
X3844057Y-7032800D01*
X3872628Y-7018514D01*
X3944057Y-7018514D01*
X3972628Y-7032800D01*
X3986914Y-7047086D01*
X4001200Y-7075657D01*
X4001200Y-7104229D01*
X3986914Y-7147086D01*
X3815485Y-7318514D01*
X4001200Y-7318514D01*
X4115486Y-7018514D02*
X4115486Y-7075657D01*
X4229771Y-7018514D02*
X4229771Y-7075657D01*
X4672628Y-7432800D02*
X4658343Y-7418514D01*
X4629771Y-7375657D01*
X4615486Y-7347086D01*
X4601200Y-7304229D01*
X4586914Y-7232800D01*
X4586914Y-7175657D01*
X4601200Y-7104229D01*
X4615486Y-7061371D01*
X4629771Y-7032800D01*
X4658343Y-6989943D01*
X4672628Y-6975657D01*
X4844057Y-7018514D02*
X4872628Y-7018514D01*
X4901200Y-7032800D01*
X4915486Y-7047086D01*
X4929771Y-7075657D01*
X4944057Y-7132800D01*
X4944057Y-7204229D01*
X4929771Y-7261371D01*
X4915486Y-7289943D01*
X4901200Y-7304229D01*
X4872628Y-7318514D01*
X4844057Y-7318514D01*
X4815486Y-7304229D01*
X4801200Y-7289943D01*
X4786914Y-7261371D01*
X4772628Y-7204229D01*
X4772628Y-7132800D01*
X4786914Y-7075657D01*
X4801200Y-7047086D01*
X4815486Y-7032800D01*
X4844057Y-7018514D01*
X5301200Y-7318514D02*
X5301200Y-7018514D01*
X5429771Y-7318514D02*
X5429771Y-7161371D01*
X5415486Y-7132800D01*
X5386914Y-7118514D01*
X5344057Y-7118514D01*
X5315486Y-7132800D01*
X5301200Y-7147086D01*
X5615485Y-7318514D02*
X5586914Y-7304229D01*
X5572628Y-7289943D01*
X5558343Y-7261371D01*
X5558343Y-7175657D01*
X5572628Y-7147086D01*
X5586914Y-7132800D01*
X5615485Y-7118514D01*
X5658343Y-7118514D01*
X5686914Y-7132800D01*
X5701200Y-7147086D01*
X5715485Y-7175657D01*
X5715485Y-7261371D01*
X5701200Y-7289943D01*
X5686914Y-7304229D01*
X5658343Y-7318514D01*
X5615485Y-7318514D01*
X5886914Y-7318514D02*
X5858343Y-7304229D01*
X5844057Y-7275657D01*
X5844057Y-7018514D01*
X6115486Y-7304229D02*
X6086914Y-7318514D01*
X6029771Y-7318514D01*
X6001200Y-7304229D01*
X5986914Y-7275657D01*
X5986914Y-7161371D01*
X6001200Y-7132800D01*
X6029771Y-7118514D01*
X6086914Y-7118514D01*
X6115486Y-7132800D01*
X6129771Y-7161371D01*
X6129771Y-7189943D01*
X5986914Y-7218514D01*
X6244057Y-7304229D02*
X6272628Y-7318514D01*
X6329771Y-7318514D01*
X6358343Y-7304229D01*
X6372628Y-7275657D01*
X6372628Y-7261371D01*
X6358343Y-7232800D01*
X6329771Y-7218514D01*
X6286914Y-7218514D01*
X6258343Y-7204229D01*
X6244057Y-7175657D01*
X6244057Y-7161371D01*
X6258343Y-7132800D01*
X6286914Y-7118514D01*
X6329771Y-7118514D01*
X6358343Y-7132800D01*
X6729771Y-7204229D02*
X6958343Y-7204229D01*
X6844057Y-7318514D02*
X6844057Y-7089943D01*
X7315486Y-7047086D02*
X7329771Y-7032800D01*
X7358343Y-7018514D01*
X7429771Y-7018514D01*
X7458343Y-7032800D01*
X7472628Y-7047086D01*
X7486914Y-7075657D01*
X7486914Y-7104229D01*
X7472628Y-7147086D01*
X7301200Y-7318514D01*
X7486914Y-7318514D01*
X7829771Y-7304229D02*
X7858343Y-7318514D01*
X7915485Y-7318514D01*
X7944057Y-7304229D01*
X7958343Y-7275657D01*
X7958343Y-7261371D01*
X7944057Y-7232800D01*
X7915485Y-7218514D01*
X7872628Y-7218514D01*
X7844057Y-7204229D01*
X7829771Y-7175657D01*
X7829771Y-7161371D01*
X7844057Y-7132800D01*
X7872628Y-7118514D01*
X7915485Y-7118514D01*
X7944057Y-7132800D01*
X8129771Y-7318514D02*
X8101200Y-7304229D01*
X8086914Y-7275657D01*
X8086914Y-7018514D01*
X8286914Y-7318514D02*
X8258343Y-7304229D01*
X8244057Y-7289943D01*
X8229771Y-7261371D01*
X8229771Y-7175657D01*
X8244057Y-7147086D01*
X8258343Y-7132800D01*
X8286914Y-7118514D01*
X8329771Y-7118514D01*
X8358343Y-7132800D01*
X8372628Y-7147086D01*
X8386914Y-7175657D01*
X8386914Y-7261371D01*
X8372628Y-7289943D01*
X8358343Y-7304229D01*
X8329771Y-7318514D01*
X8286914Y-7318514D01*
X8472628Y-7118514D02*
X8586914Y-7118514D01*
X8515486Y-7018514D02*
X8515486Y-7275657D01*
X8529771Y-7304229D01*
X8558343Y-7318514D01*
X8586914Y-7318514D01*
X8672629Y-7304229D02*
X8701200Y-7318514D01*
X8758343Y-7318514D01*
X8786914Y-7304229D01*
X8801200Y-7275657D01*
X8801200Y-7261371D01*
X8786914Y-7232800D01*
X8758343Y-7218514D01*
X8715486Y-7218514D01*
X8686914Y-7204229D01*
X8672629Y-7175657D01*
X8672629Y-7161371D01*
X8686914Y-7132800D01*
X8715486Y-7118514D01*
X8758343Y-7118514D01*
X8786914Y-7132800D01*
X8901200Y-7432800D02*
X8915486Y-7418514D01*
X8944057Y-7375657D01*
X8958343Y-7347086D01*
X8972628Y-7304229D01*
X8986914Y-7232800D01*
X8986914Y-7175657D01*
X8972628Y-7104229D01*
X8958343Y-7061371D01*
X8944057Y-7032800D01*
X8915486Y-6989943D01*
X8901200Y-6975657D01*
X-9959Y-7605741D02*
X-9959Y-7551859D01*
X-63841Y-7551859D01*
X-63841Y-7605741D01*
X-9959Y-7605741D01*
X329771Y-7414514D02*
X358343Y-7414514D01*
X386914Y-7428800D01*
X401200Y-7443086D01*
X415486Y-7471657D01*
X429771Y-7528800D01*
X429771Y-7600229D01*
X415486Y-7657371D01*
X401200Y-7685943D01*
X386914Y-7700229D01*
X358343Y-7714514D01*
X329771Y-7714514D01*
X301200Y-7700229D01*
X286914Y-7685943D01*
X272629Y-7657371D01*
X258343Y-7600229D01*
X258343Y-7528800D01*
X272629Y-7471657D01*
X286914Y-7443086D01*
X301200Y-7428800D01*
X329771Y-7414514D01*
X558343Y-7685943D02*
X572629Y-7700229D01*
X558343Y-7714514D01*
X544057Y-7700229D01*
X558343Y-7685943D01*
X558343Y-7714514D01*
X672628Y-7414514D02*
X872628Y-7414514D01*
X744057Y-7714514D01*
X1115486Y-7414514D02*
X1058343Y-7414514D01*
X1029771Y-7428800D01*
X1015486Y-7443086D01*
X986914Y-7485943D01*
X972628Y-7543086D01*
X972628Y-7657371D01*
X986914Y-7685943D01*
X1001200Y-7700229D01*
X1029771Y-7714514D01*
X1086914Y-7714514D01*
X1115486Y-7700229D01*
X1129771Y-7685943D01*
X1144057Y-7657371D01*
X1144057Y-7585943D01*
X1129771Y-7557371D01*
X1115486Y-7543086D01*
X1086914Y-7528800D01*
X1029771Y-7528800D01*
X1001200Y-7543086D01*
X986914Y-7557371D01*
X972628Y-7585943D01*
X1272629Y-7714514D02*
X1272629Y-7514514D01*
X1272629Y-7543086D02*
X1286914Y-7528800D01*
X1315486Y-7514514D01*
X1358343Y-7514514D01*
X1386914Y-7528800D01*
X1401200Y-7557371D01*
X1401200Y-7714514D01*
X1401200Y-7557371D02*
X1415486Y-7528800D01*
X1444057Y-7514514D01*
X1486914Y-7514514D01*
X1515486Y-7528800D01*
X1529771Y-7557371D01*
X1529771Y-7714514D01*
X1672628Y-7714514D02*
X1672628Y-7514514D01*
X1672628Y-7543086D02*
X1686914Y-7528800D01*
X1715486Y-7514514D01*
X1758343Y-7514514D01*
X1786914Y-7528800D01*
X1801200Y-7557371D01*
X1801200Y-7714514D01*
X1801200Y-7557371D02*
X1815486Y-7528800D01*
X1844057Y-7514514D01*
X1886914Y-7514514D01*
X1915486Y-7528800D01*
X1929771Y-7557371D01*
X1929771Y-7714514D01*
X2515486Y-7400229D02*
X2258343Y-7785943D01*
X2901200Y-7414514D02*
X2929771Y-7414514D01*
X2958343Y-7428800D01*
X2972628Y-7443086D01*
X2986914Y-7471657D01*
X3001200Y-7528800D01*
X3001200Y-7600229D01*
X2986914Y-7657371D01*
X2972628Y-7685943D01*
X2958343Y-7700229D01*
X2929771Y-7714514D01*
X2901200Y-7714514D01*
X2872628Y-7700229D01*
X2858343Y-7685943D01*
X2844057Y-7657371D01*
X2829771Y-7600229D01*
X2829771Y-7528800D01*
X2844057Y-7471657D01*
X2858343Y-7443086D01*
X2872628Y-7428800D01*
X2901200Y-7414514D01*
X3129771Y-7685943D02*
X3144057Y-7700229D01*
X3129771Y-7714514D01*
X3115486Y-7700229D01*
X3129771Y-7685943D01*
X3129771Y-7714514D01*
X3329771Y-7414514D02*
X3358343Y-7414514D01*
X3386914Y-7428800D01*
X3401200Y-7443086D01*
X3415485Y-7471657D01*
X3429771Y-7528800D01*
X3429771Y-7600229D01*
X3415485Y-7657371D01*
X3401200Y-7685943D01*
X3386914Y-7700229D01*
X3358343Y-7714514D01*
X3329771Y-7714514D01*
X3301200Y-7700229D01*
X3286914Y-7685943D01*
X3272628Y-7657371D01*
X3258343Y-7600229D01*
X3258343Y-7528800D01*
X3272628Y-7471657D01*
X3286914Y-7443086D01*
X3301200Y-7428800D01*
X3329771Y-7414514D01*
X3529771Y-7414514D02*
X3715485Y-7414514D01*
X3615485Y-7528800D01*
X3658343Y-7528800D01*
X3686914Y-7543086D01*
X3701200Y-7557371D01*
X3715485Y-7585943D01*
X3715485Y-7657371D01*
X3701200Y-7685943D01*
X3686914Y-7700229D01*
X3658343Y-7714514D01*
X3572628Y-7714514D01*
X3544057Y-7700229D01*
X3529771Y-7685943D01*
X3901200Y-7414514D02*
X3929771Y-7414514D01*
X3958343Y-7428800D01*
X3972628Y-7443086D01*
X3986914Y-7471657D01*
X4001200Y-7528800D01*
X4001200Y-7600229D01*
X3986914Y-7657371D01*
X3972628Y-7685943D01*
X3958343Y-7700229D01*
X3929771Y-7714514D01*
X3901200Y-7714514D01*
X3872628Y-7700229D01*
X3858343Y-7685943D01*
X3844057Y-7657371D01*
X3829771Y-7600229D01*
X3829771Y-7528800D01*
X3844057Y-7471657D01*
X3858343Y-7443086D01*
X3872628Y-7428800D01*
X3901200Y-7414514D01*
X4115486Y-7414514D02*
X4115486Y-7471657D01*
X4229771Y-7414514D02*
X4229771Y-7471657D01*
X4672628Y-7828800D02*
X4658343Y-7814514D01*
X4629771Y-7771657D01*
X4615486Y-7743086D01*
X4601200Y-7700229D01*
X4586914Y-7628800D01*
X4586914Y-7571657D01*
X4601200Y-7500229D01*
X4615486Y-7457371D01*
X4629771Y-7428800D01*
X4658343Y-7385943D01*
X4672628Y-7371657D01*
X4915486Y-7514514D02*
X4915486Y-7714514D01*
X4844057Y-7400229D02*
X4772628Y-7614514D01*
X4958343Y-7614514D01*
X5129771Y-7414514D02*
X5158343Y-7414514D01*
X5186914Y-7428800D01*
X5201200Y-7443086D01*
X5215486Y-7471657D01*
X5229771Y-7528800D01*
X5229771Y-7600229D01*
X5215486Y-7657371D01*
X5201200Y-7685943D01*
X5186914Y-7700229D01*
X5158343Y-7714514D01*
X5129771Y-7714514D01*
X5101200Y-7700229D01*
X5086914Y-7685943D01*
X5072628Y-7657371D01*
X5058343Y-7600229D01*
X5058343Y-7528800D01*
X5072628Y-7471657D01*
X5086914Y-7443086D01*
X5101200Y-7428800D01*
X5129771Y-7414514D01*
X5586914Y-7714514D02*
X5586914Y-7414514D01*
X5715485Y-7714514D02*
X5715485Y-7557371D01*
X5701200Y-7528800D01*
X5672628Y-7514514D01*
X5629771Y-7514514D01*
X5601200Y-7528800D01*
X5586914Y-7543086D01*
X5901200Y-7714514D02*
X5872628Y-7700229D01*
X5858343Y-7685943D01*
X5844057Y-7657371D01*
X5844057Y-7571657D01*
X5858343Y-7543086D01*
X5872628Y-7528800D01*
X5901200Y-7514514D01*
X5944057Y-7514514D01*
X5972628Y-7528800D01*
X5986914Y-7543086D01*
X6001200Y-7571657D01*
X6001200Y-7657371D01*
X5986914Y-7685943D01*
X5972628Y-7700229D01*
X5944057Y-7714514D01*
X5901200Y-7714514D01*
X6172628Y-7714514D02*
X6144057Y-7700229D01*
X6129771Y-7671657D01*
X6129771Y-7414514D01*
X6401200Y-7700229D02*
X6372628Y-7714514D01*
X6315486Y-7714514D01*
X6286914Y-7700229D01*
X6272628Y-7671657D01*
X6272628Y-7557371D01*
X6286914Y-7528800D01*
X6315486Y-7514514D01*
X6372628Y-7514514D01*
X6401200Y-7528800D01*
X6415486Y-7557371D01*
X6415486Y-7585943D01*
X6272628Y-7614514D01*
X6529771Y-7700229D02*
X6558343Y-7714514D01*
X6615486Y-7714514D01*
X6644057Y-7700229D01*
X6658343Y-7671657D01*
X6658343Y-7657371D01*
X6644057Y-7628800D01*
X6615486Y-7614514D01*
X6572628Y-7614514D01*
X6544057Y-7600229D01*
X6529771Y-7571657D01*
X6529771Y-7557371D01*
X6544057Y-7528800D01*
X6572628Y-7514514D01*
X6615486Y-7514514D01*
X6644057Y-7528800D01*
X6758343Y-7828800D02*
X6772628Y-7814514D01*
X6801200Y-7771657D01*
X6815486Y-7743086D01*
X6829771Y-7700229D01*
X6844057Y-7628800D01*
X6844057Y-7571657D01*
X6829771Y-7500229D01*
X6815486Y-7457371D01*
X6801200Y-7428800D01*
X6772628Y-7385943D01*
X6758343Y-7371657D01*
X-49600Y-8025600D02*
X1200Y-7974800D01*
X-49600Y-7924000D01*
X-100400Y-7974800D01*
X-49600Y-8025600D01*
X429771Y-8110514D02*
X258343Y-8110514D01*
X344057Y-8110514D02*
X344057Y-7810514D01*
X315486Y-7853371D01*
X286914Y-7881943D01*
X258343Y-7896229D01*
X558343Y-8081943D02*
X572629Y-8096229D01*
X558343Y-8110514D01*
X544057Y-8096229D01*
X558343Y-8081943D01*
X558343Y-8110514D01*
X758343Y-7810514D02*
X786914Y-7810514D01*
X815486Y-7824800D01*
X829771Y-7839086D01*
X844057Y-7867657D01*
X858343Y-7924800D01*
X858343Y-7996229D01*
X844057Y-8053371D01*
X829771Y-8081943D01*
X815486Y-8096229D01*
X786914Y-8110514D01*
X758343Y-8110514D01*
X729771Y-8096229D01*
X715486Y-8081943D01*
X701200Y-8053371D01*
X686914Y-7996229D01*
X686914Y-7924800D01*
X701200Y-7867657D01*
X715486Y-7839086D01*
X729771Y-7824800D01*
X758343Y-7810514D01*
X972628Y-7839086D02*
X986914Y-7824800D01*
X1015486Y-7810514D01*
X1086914Y-7810514D01*
X1115486Y-7824800D01*
X1129771Y-7839086D01*
X1144057Y-7867657D01*
X1144057Y-7896229D01*
X1129771Y-7939086D01*
X958343Y-8110514D01*
X1144057Y-8110514D01*
X1272629Y-8110514D02*
X1272629Y-7910514D01*
X1272629Y-7939086D02*
X1286914Y-7924800D01*
X1315486Y-7910514D01*
X1358343Y-7910514D01*
X1386914Y-7924800D01*
X1401200Y-7953371D01*
X1401200Y-8110514D01*
X1401200Y-7953371D02*
X1415486Y-7924800D01*
X1444057Y-7910514D01*
X1486914Y-7910514D01*
X1515486Y-7924800D01*
X1529771Y-7953371D01*
X1529771Y-8110514D01*
X1672628Y-8110514D02*
X1672628Y-7910514D01*
X1672628Y-7939086D02*
X1686914Y-7924800D01*
X1715486Y-7910514D01*
X1758343Y-7910514D01*
X1786914Y-7924800D01*
X1801200Y-7953371D01*
X1801200Y-8110514D01*
X1801200Y-7953371D02*
X1815486Y-7924800D01*
X1844057Y-7910514D01*
X1886914Y-7910514D01*
X1915486Y-7924800D01*
X1929771Y-7953371D01*
X1929771Y-8110514D01*
X2515486Y-7796229D02*
X2258343Y-8181943D01*
X2901200Y-7810514D02*
X2929771Y-7810514D01*
X2958343Y-7824800D01*
X2972628Y-7839086D01*
X2986914Y-7867657D01*
X3001200Y-7924800D01*
X3001200Y-7996229D01*
X2986914Y-8053371D01*
X2972628Y-8081943D01*
X2958343Y-8096229D01*
X2929771Y-8110514D01*
X2901200Y-8110514D01*
X2872628Y-8096229D01*
X2858343Y-8081943D01*
X2844057Y-8053371D01*
X2829771Y-7996229D01*
X2829771Y-7924800D01*
X2844057Y-7867657D01*
X2858343Y-7839086D01*
X2872628Y-7824800D01*
X2901200Y-7810514D01*
X3129771Y-8081943D02*
X3144057Y-8096229D01*
X3129771Y-8110514D01*
X3115486Y-8096229D01*
X3129771Y-8081943D01*
X3129771Y-8110514D01*
X3329771Y-7810514D02*
X3358343Y-7810514D01*
X3386914Y-7824800D01*
X3401200Y-7839086D01*
X3415485Y-7867657D01*
X3429771Y-7924800D01*
X3429771Y-7996229D01*
X3415485Y-8053371D01*
X3401200Y-8081943D01*
X3386914Y-8096229D01*
X3358343Y-8110514D01*
X3329771Y-8110514D01*
X3301200Y-8096229D01*
X3286914Y-8081943D01*
X3272628Y-8053371D01*
X3258343Y-7996229D01*
X3258343Y-7924800D01*
X3272628Y-7867657D01*
X3286914Y-7839086D01*
X3301200Y-7824800D01*
X3329771Y-7810514D01*
X3686914Y-7910514D02*
X3686914Y-8110514D01*
X3615485Y-7796229D02*
X3544057Y-8010514D01*
X3729771Y-8010514D01*
X3901200Y-7810514D02*
X3929771Y-7810514D01*
X3958343Y-7824800D01*
X3972628Y-7839086D01*
X3986914Y-7867657D01*
X4001200Y-7924800D01*
X4001200Y-7996229D01*
X3986914Y-8053371D01*
X3972628Y-8081943D01*
X3958343Y-8096229D01*
X3929771Y-8110514D01*
X3901200Y-8110514D01*
X3872628Y-8096229D01*
X3858343Y-8081943D01*
X3844057Y-8053371D01*
X3829771Y-7996229D01*
X3829771Y-7924800D01*
X3844057Y-7867657D01*
X3858343Y-7839086D01*
X3872628Y-7824800D01*
X3901200Y-7810514D01*
X4115486Y-7810514D02*
X4115486Y-7867657D01*
X4229771Y-7810514D02*
X4229771Y-7867657D01*
X4672628Y-8224800D02*
X4658343Y-8210514D01*
X4629771Y-8167657D01*
X4615486Y-8139086D01*
X4601200Y-8096229D01*
X4586914Y-8024800D01*
X4586914Y-7967657D01*
X4601200Y-7896229D01*
X4615486Y-7853371D01*
X4629771Y-7824800D01*
X4658343Y-7781943D01*
X4672628Y-7767657D01*
X4915486Y-7810514D02*
X4858343Y-7810514D01*
X4829771Y-7824800D01*
X4815486Y-7839086D01*
X4786914Y-7881943D01*
X4772628Y-7939086D01*
X4772628Y-8053371D01*
X4786914Y-8081943D01*
X4801200Y-8096229D01*
X4829771Y-8110514D01*
X4886914Y-8110514D01*
X4915486Y-8096229D01*
X4929771Y-8081943D01*
X4944057Y-8053371D01*
X4944057Y-7981943D01*
X4929771Y-7953371D01*
X4915486Y-7939086D01*
X4886914Y-7924800D01*
X4829771Y-7924800D01*
X4801200Y-7939086D01*
X4786914Y-7953371D01*
X4772628Y-7981943D01*
X5301200Y-8110514D02*
X5301200Y-7810514D01*
X5429771Y-8110514D02*
X5429771Y-7953371D01*
X5415486Y-7924800D01*
X5386914Y-7910514D01*
X5344057Y-7910514D01*
X5315486Y-7924800D01*
X5301200Y-7939086D01*
X5615485Y-8110514D02*
X5586914Y-8096229D01*
X5572628Y-8081943D01*
X5558343Y-8053371D01*
X5558343Y-7967657D01*
X5572628Y-7939086D01*
X5586914Y-7924800D01*
X5615485Y-7910514D01*
X5658343Y-7910514D01*
X5686914Y-7924800D01*
X5701200Y-7939086D01*
X5715485Y-7967657D01*
X5715485Y-8053371D01*
X5701200Y-8081943D01*
X5686914Y-8096229D01*
X5658343Y-8110514D01*
X5615485Y-8110514D01*
X5886914Y-8110514D02*
X5858343Y-8096229D01*
X5844057Y-8067657D01*
X5844057Y-7810514D01*
X6115486Y-8096229D02*
X6086914Y-8110514D01*
X6029771Y-8110514D01*
X6001200Y-8096229D01*
X5986914Y-8067657D01*
X5986914Y-7953371D01*
X6001200Y-7924800D01*
X6029771Y-7910514D01*
X6086914Y-7910514D01*
X6115486Y-7924800D01*
X6129771Y-7953371D01*
X6129771Y-7981943D01*
X5986914Y-8010514D01*
X6244057Y-8096229D02*
X6272628Y-8110514D01*
X6329771Y-8110514D01*
X6358343Y-8096229D01*
X6372628Y-8067657D01*
X6372628Y-8053371D01*
X6358343Y-8024800D01*
X6329771Y-8010514D01*
X6286914Y-8010514D01*
X6258343Y-7996229D01*
X6244057Y-7967657D01*
X6244057Y-7953371D01*
X6258343Y-7924800D01*
X6286914Y-7910514D01*
X6329771Y-7910514D01*
X6358343Y-7924800D01*
X6472628Y-8224800D02*
X6486914Y-8210514D01*
X6515486Y-8167657D01*
X6529771Y-8139086D01*
X6544057Y-8096229D01*
X6558343Y-8024800D01*
X6558343Y-7967657D01*
X6544057Y-7896229D01*
X6529771Y-7853371D01*
X6515486Y-7824800D01*
X6486914Y-7781943D01*
X6472628Y-7767657D01*
M02*
